<svg width="81" height="80" viewBox="0 0 81 80" fill="none" xmlns="http://www.w3.org/2000/svg">
<g clip-path="url(#clip0_17_2236)">
<path d="M28.0534 76.5961H52.8973C58.3547 76.5961 62.0044 73.1138 62.0044 67.8906V14.4197C62.0044 9.1965 58.3547 5.71436 52.8973 5.71436H28.0534C22.5959 5.71436 18.9463 9.1965 18.9463 14.4197V67.8906C18.9463 73.1138 22.5959 76.5961 28.0534 76.5961ZM28.7566 71.2055C25.9441 71.2055 24.3369 69.6986 24.3369 67.0201V15.2902C24.3369 12.6117 25.9441 11.105 28.7566 11.105H33.0758C33.578 11.105 33.8793 11.3728 33.8793 11.8751V12.6452C33.8793 14.0514 34.7833 14.9889 36.1561 14.9889H44.8279C46.2007 14.9889 47.1047 14.0514 47.1047 12.6452V11.8751C47.1047 11.3728 47.4061 11.105 47.9084 11.105H52.1941C55.0064 11.105 56.6136 12.6117 56.6136 15.2902V67.0201C56.6136 69.6986 55.0064 71.2055 52.1941 71.2055H28.7566ZM33.3771 68.7612H47.607C48.511 68.7612 49.1473 68.1252 49.1473 67.1875C49.1473 66.2501 48.511 65.6475 47.607 65.6475H33.3771C32.4731 65.6475 31.8369 66.2501 31.8369 67.1875C31.8369 68.1252 32.4731 68.7612 33.3771 68.7612Z" fill="#FFD956"/>
<path d="M63.6117 73.6495C66.1563 76.1606 70.2746 76.1943 72.7857 73.6495C75.3303 71.1383 75.3303 67.02 72.8191 64.4755L17.3058 8.99556C14.7946 6.48439 10.6428 6.45091 8.09822 8.99556C5.58705 11.5067 5.58705 15.692 8.09822 18.1697L63.6117 73.6495Z" fill="#010101"/>
<path d="M66.391 70.8708C67.3955 71.9088 69.0695 71.8751 70.0407 70.8708C71.045 69.8996 71.045 68.2591 70.0407 67.2211L14.5607 11.7747C13.5562 10.7703 11.8821 10.7368 10.8777 11.7747C9.90666 12.7457 9.90666 14.4533 10.8777 15.4243L66.391 70.8708Z" fill="#FFD956"/>
</g>
<defs>
<clipPath id="clip0_17_2236">
<rect width="68.4834" height="70.9486" fill="white" transform="translate(6.21387 5.71436)"/>
</clipPath>
</defs>
</svg>
