<svg width="81" height="80" viewBox="0 0 81 80" fill="none" xmlns="http://www.w3.org/2000/svg">
<path d="M66.2424 39.8263C66.2424 25.6633 61.8227 12.4713 53.9544 1.55613C51.5439 -1.82557 46.6219 1.12086 49.2336 4.63648C56.5661 14.7146 60.4836 26.8686 60.4836 39.8263C60.4836 52.7838 56.5327 64.9043 49.2336 74.9823C46.689 78.4646 51.4433 81.5783 53.9544 78.0963C61.8227 67.1478 66.2424 53.9558 66.2424 39.8263Z" fill="#FFD956"/>
<path d="M47.9937 39.8254C47.9937 29.3119 44.679 19.4346 38.7192 11.4324C36.0406 7.8498 31.3866 11.2985 33.8978 14.5797C39.3553 21.7449 42.2683 30.4837 42.2683 39.8254C42.2683 49.1668 39.3553 57.9057 33.8978 65.0708C31.3866 68.3519 36.0406 71.8008 38.7192 68.1845C44.679 60.1825 47.9937 50.3385 47.9937 39.8254Z" fill="#FFD956"/>
<path d="M29.8145 39.826C29.8145 32.9286 27.4372 26.5 23.2185 21.4777C20.4395 18.1965 16.3881 21.913 18.464 24.5915C22.5154 29.6809 24.0555 33.9332 24.0555 39.826C24.0555 45.7189 22.5154 49.9709 18.464 55.0603C16.4216 57.7055 20.473 61.3883 23.2185 58.1406C27.4372 53.1517 29.8145 46.7232 29.8145 39.826Z" fill="#FFD956"/>
</svg>
