<svg width="87" height="88" viewBox="0 0 87 88" fill="none" xmlns="http://www.w3.org/2000/svg">
<path d="M35.4001 69.4838C37.8778 69.4838 40.6236 69.1155 43.4696 68.1112C46.3156 69.1155 49.061 69.4838 51.5387 69.4838C58.503 69.4838 63.6593 66.3367 65.5676 64.6961C68.4136 66.1021 71.0587 66.7384 73.5364 66.7384C81.3713 66.7384 86.7953 61.1469 86.7953 53.0775C86.7953 48.9929 85.1213 44.6735 81.2707 40.8232C84.3176 37.6424 85.5564 33.8589 85.5564 30.1424C85.5564 22.1401 79.3958 14.7406 71.7284 13.8366C71.3601 6.1022 62.7553 0.577637 54.5184 0.577637C50.3333 0.577637 46.3824 1.88344 43.4696 4.89683C40.5564 1.88344 36.639 0.577637 32.4204 0.577637C24.1837 0.577637 15.5788 6.1022 15.244 13.8366C7.5431 14.7406 1.34891 22.1401 1.34891 30.1424C1.34891 33.8589 2.62124 37.6424 5.6681 40.8232C1.81766 44.6735 0.143555 48.9929 0.143555 53.0775C0.143555 61.1469 5.56767 66.7384 13.4025 66.7384C15.8802 66.7384 18.5252 66.1021 21.3712 64.6961C23.2462 66.3367 28.436 69.4838 35.4001 69.4838ZM35.4001 64.6624C27.5989 64.6624 23.715 60.4438 22.1748 58.7027C18.6927 61.1804 16.6502 61.8835 13.4025 61.8835C8.31321 61.8835 4.99847 58.4012 4.99847 53.0775C4.99847 49.5287 6.27078 46.7495 10.9248 42.4972C11.9628 41.5932 11.8288 40.0867 10.9918 39.2161C7.07436 35.4327 6.17035 32.8209 6.17035 29.5061C6.17035 23.0441 11.1592 18.0888 18.7931 18.591C19.9315 18.658 20.2998 17.8879 20.1659 17.1178C19.1949 10.6223 24.686 5.39905 32.7216 5.39905C37.3756 5.39905 40.523 7.17363 43.4696 10.3209C46.4158 7.17363 49.5633 5.39905 54.2173 5.39905C62.253 5.39905 67.7441 10.6223 66.773 17.1178C66.639 17.8879 67.0073 18.658 68.1458 18.591C75.7461 18.0888 80.735 23.0441 80.735 29.5061C80.735 32.8209 79.8644 35.4327 75.947 39.2161C75.1101 40.0867 74.9761 41.5932 76.0141 42.4972C80.6681 46.7495 81.9404 49.5287 81.9404 53.0775C81.9404 58.4012 78.5921 61.8835 73.5364 61.8835C70.2887 61.8835 68.2461 61.1804 64.7307 58.7027C63.2238 60.4438 59.3401 64.6624 51.5387 64.6624C48.9941 64.6624 46.6838 64.2607 43.4696 62.9549C40.2553 64.2607 37.945 64.6624 35.4001 64.6624Z" fill="#FFD956"/>
<path d="M43.47 87.9664C46.6843 87.9664 48.7934 86.9618 48.7934 85.3546C48.7934 83.2452 48.1908 77.2521 48.1908 72.4975C48.1908 65.0981 55.8917 50.9687 57.0971 49.1269L52.6774 46.0801C50.97 49.1941 48.9274 52.7432 46.2154 58.7698V47.2187H40.7243V58.8032C38.0123 52.7767 35.9363 49.1604 34.2623 46.0801L29.876 49.1269C31.0145 50.9687 38.7488 65.0981 38.7488 72.4975C38.7488 77.2521 38.1463 83.2452 38.1463 85.3546C38.1463 86.9618 40.2557 87.9664 43.47 87.9664Z" fill="#FFD956"/>
<path d="M25.623 53.2119C31.8843 53.2119 35.4334 50.3324 36.9734 46.1473C38.8151 47.3862 40.9243 48.0221 43.4691 48.0221C46.0137 48.0221 48.1231 47.3862 49.9646 46.1473C51.5048 50.3324 55.054 53.2119 61.3151 53.2119C62.4534 53.2119 63.4243 52.3079 63.4243 51.1361C63.4243 49.9976 62.4534 49.0267 61.3151 49.0267C55.69 48.9596 53.2457 45.8124 53.0783 41.125C53.0448 39.4507 50.7346 38.781 49.7303 40.2207C48.324 42.2967 46.3151 43.5021 43.4691 43.5021C40.6231 43.5021 38.614 42.2967 37.208 40.2207C36.2034 38.781 33.8931 39.4507 33.8597 41.125C33.6923 45.8124 31.248 48.9596 25.623 49.0267C24.4846 49.0267 23.5137 49.9976 23.5137 51.1361C23.5137 52.3079 24.4846 53.2119 25.623 53.2119Z" fill="#FFD956"/>
</svg>
