<svg width="81" height="80" viewBox="0 0 81 80" fill="none" xmlns="http://www.w3.org/2000/svg">
<path d="M23.096 15.8314H34.346C42.6161 15.8314 47.7054 20.0167 47.7054 27.751C47.7054 35.5859 42.7165 39.6036 34.0781 39.6036H24.5357C22.058 39.6036 20.8192 41.2779 20.8192 43.0525C20.8192 44.1239 21.221 45.1953 22.125 46.0322L47.5045 69.9719C50.7189 72.9853 54.8706 68.7333 51.7231 65.7867L29.9598 45.3628H34.279C48.308 45.3628 54.3014 36.4899 54.3014 27.5501C54.3014 22.0591 52.3594 17.472 48.5089 14.4921H59.1897C60.3951 14.4921 61.3994 13.5211 61.3994 12.3158C61.3994 11.0769 60.3951 10.106 59.1897 10.106H23.096C21.5223 10.106 20.25 11.4118 20.25 12.9854C20.25 14.5256 21.5223 15.8314 23.096 15.8314ZM22.9286 29.9943H59.1897C60.3951 29.9943 61.3994 29.0234 61.3994 27.7845C61.3994 26.5792 60.3951 25.6082 59.1897 25.6082H22.9286C21.7232 25.6082 20.7187 26.5792 20.7187 27.7845C20.7187 29.0234 21.7232 29.9943 22.9286 29.9943Z" fill="#FFD956"/>
</svg>
