<svg width="86" height="80" viewBox="0 0 86 80" fill="none" xmlns="http://www.w3.org/2000/svg">
<g clip-path="url(#clip0_17_7987)">
<path d="M1.21814 51.6926C-1.12561 57.418 4.16458 60.13 8.71815 56.8489C12.4012 54.1369 16.1177 51.4246 19.8007 48.6123L18.4614 47.9092C15.1132 52.4626 13.707 56.4472 13.707 59.5943C13.707 67.0943 21.3409 70.61 29.2427 66.6592C31.3187 65.6212 30.5818 60.6323 26.7315 62.34C21.7092 64.5497 18.4614 63.4449 18.4614 59.36C18.4614 55.5432 21.274 49.0809 27.6021 40.7103C29.611 38.0655 26.3967 34.6502 23.6177 37.5966C18.2606 43.0206 10.861 48.4449 4.49938 53.802L5.50387 54.6389L20.6043 17.8421C21.6088 15.3645 17.0887 13.0542 15.649 16.5029L1.21814 51.6926Z" fill="#FFD956"/>
<path d="M33.1942 58.6903C32.6919 59.6615 33.7299 60.5318 34.567 60.0966L39.5559 57.4849L35.9062 53.8355L33.1942 58.6903ZM37.4465 51.0229L42.4353 56.0118L44.4108 54.9738L83.8528 15.6658C85.4933 14.0587 85.4933 11.4136 83.8528 9.80646C82.2122 8.16584 79.567 8.16584 77.9599 9.77298L38.5179 49.0809L37.4465 51.0229Z" fill="#FFD956"/>
</g>
<defs>
<clipPath id="clip0_17_7987">
<rect width="84.4389" height="63.2394" fill="white" transform="translate(0.642578 8.57129)"/>
</clipPath>
</defs>
</svg>
