<svg width="158" height="174" viewBox="0 0 158 174" fill="none" xmlns="http://www.w3.org/2000/svg">
<g filter="url(#filter0_d_47_257)">
<rect x="11" y="5" width="132.421" height="147.572" rx="30" fill="white"/>
</g>
<path d="M81.6044 57.75V43.7061C81.6044 41.75 80.5824 40.717 78.6154 40.717L63.989 40.717C62.022 40.717 61 41.75 61 43.7061L61 58.1236C61 60.0797 62.022 61.1017 63.989 61.1017H64.7363C64.7143 60.9588 64.7033 60.805 64.7033 60.6511C64.7033 58.2005 66.7033 56.2005 69.1538 56.2005C71.6044 56.2005 73.5934 58.2005 73.5934 60.6511C73.5934 60.805 73.5824 60.9588 73.5604 61.1017H80.5605C80.5384 60.9478 80.5275 60.794 80.5275 60.6401C80.5275 59.5192 80.9011 58.4973 81.6044 57.75ZM83.1099 46.783V56.6621C83.6373 56.3654 84.2637 56.1896 84.9231 56.1896C87.3736 56.1896 89.4176 58.1895 89.4176 60.6401C89.4176 60.794 89.4066 60.9478 89.3846 61.1017H90.055C91.989 61.1017 93 60.0687 93 58.1236V54.2445C93 53.1676 92.8242 52.6621 92.2198 51.9807L88.4835 47.761C87.8352 47.0357 87.1099 46.783 86.033 46.783L83.1099 46.783ZM85.9561 53.7939C85.3406 53.7939 84.9561 53.4203 84.9561 52.7939V48.8159H85.9231C86.4286 48.8159 86.7583 48.9039 87.1868 49.3764L90.5385 53.1346C90.7143 53.3324 90.8352 53.5412 90.8791 53.7939H85.9561ZM69.1538 63.8159C70.9121 63.8159 72.3187 62.3983 72.3187 60.6511C72.3187 58.9038 70.9011 57.4862 69.1538 57.4862C67.4066 57.4862 65.989 58.9038 65.989 60.6511C65.989 62.3874 67.4066 63.8159 69.1538 63.8159ZM84.967 63.8159C86.7253 63.8159 88.1319 62.3983 88.1319 60.6401C88.1319 58.8928 86.7143 57.4753 84.967 57.4753C83.2198 57.4753 81.8022 58.8928 81.8022 60.6401C81.8022 62.3874 83.2198 63.8159 84.967 63.8159Z" fill="#FF9A6C"/>
<path d="M25.9958 109.624V107.34H28.8925C29.5987 107.34 30.2167 107.202 30.7463 106.926C31.276 106.639 31.6843 106.225 31.9712 105.684C32.2581 105.144 32.4016 104.504 32.4016 103.764C32.4016 103.025 32.2526 102.39 31.9547 101.861C31.6678 101.331 31.2595 100.923 30.7298 100.636C30.2111 100.349 29.5987 100.205 28.8925 100.205H25.913V97.9377H28.9256C29.8084 97.9377 30.6194 98.0811 31.3588 98.368C32.1092 98.6439 32.7602 99.0467 33.312 99.5764C33.8748 100.095 34.3051 100.713 34.6031 101.43C34.9121 102.136 35.0666 102.92 35.0666 103.781C35.0666 104.63 34.9121 105.414 34.6031 106.131C34.3051 106.848 33.8803 107.466 33.3285 107.985C32.7768 108.504 32.1257 108.907 31.3753 109.193C30.636 109.48 29.8304 109.624 28.9587 109.624H25.9958ZM24.2412 109.624V97.9377H26.8399V109.624H24.2412ZM40.4612 109.806C39.5894 109.806 38.8114 109.629 38.1272 109.276C37.4541 108.912 36.9244 108.41 36.5382 107.77C36.152 107.13 35.9589 106.407 35.9589 105.602C35.9589 104.796 36.1465 104.079 36.5216 103.45C36.9079 102.81 37.4265 102.308 38.0776 101.943C38.7287 101.579 39.4625 101.397 40.2791 101.397C41.0736 101.397 41.7743 101.568 42.3813 101.91C42.9882 102.252 43.4627 102.727 43.8048 103.334C44.1579 103.941 44.3345 104.636 44.3345 105.419C44.3345 105.563 44.3234 105.717 44.3014 105.883C44.2903 106.037 44.2627 106.219 44.2186 106.429L37.2831 106.446V104.708L43.1427 104.691L42.0502 105.419C42.0392 104.956 41.9674 104.575 41.835 104.277C41.7026 103.968 41.504 103.737 41.2391 103.582C40.9853 103.417 40.6708 103.334 40.2956 103.334C39.8984 103.334 39.5508 103.428 39.2528 103.615C38.9659 103.792 38.7397 104.046 38.5742 104.377C38.4197 104.708 38.3424 105.11 38.3424 105.585C38.3424 106.059 38.4252 106.468 38.5907 106.81C38.7673 107.141 39.01 107.4 39.319 107.588C39.639 107.764 40.0142 107.853 40.4446 107.853C40.8419 107.853 41.2005 107.786 41.5205 107.654C41.8405 107.511 42.1219 107.301 42.3647 107.025L43.7551 108.415C43.3579 108.879 42.8778 109.227 42.315 109.458C41.7523 109.69 41.1343 109.806 40.4612 109.806ZM45.5569 109.624V97.6066H48.0894V109.624H45.5569ZM49.8729 109.624V101.579H52.4054V109.624H49.8729ZM51.1474 100.47C50.7501 100.47 50.4191 100.338 50.1542 100.073C49.9004 99.7971 49.7735 99.466 49.7735 99.0798C49.7735 98.6825 49.9004 98.3515 50.1542 98.0866C50.4191 97.8218 50.7501 97.6894 51.1474 97.6894C51.5447 97.6894 51.8702 97.8218 52.124 98.0866C52.3778 98.3515 52.5047 98.6825 52.5047 99.0798C52.5047 99.466 52.3778 99.7971 52.124 100.073C51.8702 100.338 51.5447 100.47 51.1474 100.47ZM56.7214 109.624L53.3115 101.579H56.0427L58.3601 108.283H57.1683L59.4856 101.579H62.1672L58.7573 109.607L56.7214 109.624ZM66.8257 109.806C65.9539 109.806 65.1759 109.629 64.4918 109.276C63.8186 108.912 63.2889 108.41 62.9027 107.77C62.5165 107.13 62.3234 106.407 62.3234 105.602C62.3234 104.796 62.511 104.079 62.8862 103.45C63.2724 102.81 63.791 102.308 64.4421 101.943C65.0932 101.579 65.827 101.397 66.6436 101.397C67.4381 101.397 68.1388 101.568 68.7458 101.91C69.3527 102.252 69.8272 102.727 70.1693 103.334C70.5224 103.941 70.699 104.636 70.699 105.419C70.699 105.563 70.6879 105.717 70.6659 105.883C70.6548 106.037 70.6272 106.219 70.5831 106.429L63.6476 106.446V104.708L69.5072 104.691L68.4147 105.419C68.4037 104.956 68.332 104.575 68.1995 104.277C68.0671 103.968 67.8685 103.737 67.6036 103.582C67.3498 103.417 67.0353 103.334 66.6601 103.334C66.2629 103.334 65.9153 103.428 65.6173 103.615C65.3304 103.792 65.1042 104.046 64.9387 104.377C64.7842 104.708 64.7069 105.11 64.7069 105.585C64.7069 106.059 64.7897 106.468 64.9552 106.81C65.1318 107.141 65.3746 107.4 65.6835 107.588C66.0036 107.764 66.3787 107.853 66.8091 107.853C67.2064 107.853 67.565 107.786 67.885 107.654C68.205 107.511 68.4864 107.301 68.7292 107.025L70.1196 108.415C69.7224 108.879 69.2423 109.227 68.6796 109.458C68.1168 109.69 67.4988 109.806 66.8257 109.806ZM71.9214 109.624V101.579H74.4539V109.624H71.9214ZM74.4539 105.204L73.3946 104.377C73.6042 103.439 73.9574 102.71 74.4539 102.192C74.9505 101.673 75.6402 101.414 76.523 101.414C76.9092 101.414 77.2458 101.474 77.5327 101.596C77.8307 101.706 78.09 101.883 78.3107 102.125L76.8044 104.029C76.6941 103.908 76.5561 103.814 76.3906 103.748C76.2251 103.681 76.0375 103.648 75.8278 103.648C75.4085 103.648 75.0719 103.781 74.8181 104.046C74.5753 104.299 74.4539 104.686 74.4539 105.204ZM82.4284 109.624V101.579H84.961V109.624H82.4284ZM87.5763 109.624V104.923C87.5763 104.515 87.4494 104.2 87.1956 103.979C86.9528 103.748 86.6493 103.632 86.2852 103.632C86.0314 103.632 85.8051 103.687 85.6065 103.797C85.4079 103.897 85.2479 104.04 85.1265 104.228C85.0161 104.415 84.961 104.647 84.961 104.923L83.9844 104.492C83.9844 103.852 84.1223 103.306 84.3982 102.854C84.674 102.39 85.0492 102.037 85.5237 101.794C85.9983 101.541 86.5335 101.414 87.1293 101.414C87.6921 101.414 88.1942 101.541 88.6356 101.794C89.0881 102.048 89.4467 102.401 89.7116 102.854C89.9764 103.306 90.1088 103.847 90.1088 104.476V109.624H87.5763ZM92.7241 109.624V104.923C92.7241 104.515 92.5972 104.2 92.3434 103.979C92.1006 103.748 91.7972 103.632 91.433 103.632C91.1792 103.632 90.953 103.687 90.7544 103.797C90.5557 103.897 90.3957 104.04 90.2743 104.228C90.164 104.415 90.1088 104.647 90.1088 104.923L88.6522 104.724C88.6743 104.04 88.8343 103.455 89.1322 102.97C89.4412 102.473 89.844 102.092 90.3405 101.828C90.8482 101.552 91.4165 101.414 92.0455 101.414C92.6634 101.414 93.2097 101.546 93.6842 101.811C94.1697 102.065 94.5504 102.434 94.8263 102.92C95.1132 103.394 95.2567 103.968 95.2567 104.641V109.624H92.7241ZM100.852 109.806C99.9804 109.806 99.2025 109.629 98.5183 109.276C97.8452 108.912 97.3155 108.41 96.9292 107.77C96.543 107.13 96.3499 106.407 96.3499 105.602C96.3499 104.796 96.5375 104.079 96.9127 103.45C97.2989 102.81 97.8176 102.308 98.4686 101.943C99.1197 101.579 99.8535 101.397 100.67 101.397C101.465 101.397 102.165 101.568 102.772 101.91C103.379 102.252 103.854 102.727 104.196 103.334C104.549 103.941 104.726 104.636 104.726 105.419C104.726 105.563 104.714 105.717 104.692 105.883C104.681 106.037 104.654 106.219 104.61 106.429L97.6741 106.446V104.708L103.534 104.691L102.441 105.419C102.43 104.956 102.358 104.575 102.226 104.277C102.094 103.968 101.895 103.737 101.63 103.582C101.376 103.417 101.062 103.334 100.687 103.334C100.289 103.334 99.9418 103.428 99.6439 103.615C99.357 103.792 99.1307 104.046 98.9652 104.377C98.8107 104.708 98.7335 105.11 98.7335 105.585C98.7335 106.059 98.8162 106.468 98.9818 106.81C99.1583 107.141 99.4011 107.4 99.7101 107.588C100.03 107.764 100.405 107.853 100.836 107.853C101.233 107.853 101.592 107.786 101.912 107.654C102.232 107.511 102.513 107.301 102.756 107.025L104.146 108.415C103.749 108.879 103.269 109.227 102.706 109.458C102.143 109.69 101.525 109.806 100.852 109.806ZM109.1 109.624V101.579H111.633V109.624H109.1ZM114.248 109.624V104.923C114.248 104.515 114.121 104.2 113.867 103.979C113.624 103.748 113.321 103.632 112.957 103.632C112.703 103.632 112.477 103.687 112.278 103.797C112.08 103.897 111.92 104.04 111.798 104.228C111.688 104.415 111.633 104.647 111.633 104.923L110.656 104.492C110.656 103.852 110.794 103.306 111.07 102.854C111.346 102.39 111.721 102.037 112.195 101.794C112.67 101.541 113.205 101.414 113.801 101.414C114.364 101.414 114.866 101.541 115.307 101.794C115.76 102.048 116.118 102.401 116.383 102.854C116.648 103.306 116.78 103.847 116.78 104.476V109.624H114.248ZM119.396 109.624V104.923C119.396 104.515 119.269 104.2 119.015 103.979C118.772 103.748 118.469 103.632 118.105 103.632C117.851 103.632 117.625 103.687 117.426 103.797C117.227 103.897 117.067 104.04 116.946 104.228C116.836 104.415 116.78 104.647 116.78 104.923L115.324 104.724C115.346 104.04 115.506 103.455 115.804 102.97C116.113 102.473 116.516 102.092 117.012 101.828C117.52 101.552 118.088 101.414 118.717 101.414C119.335 101.414 119.881 101.546 120.356 101.811C120.841 102.065 121.222 102.434 121.498 102.92C121.785 103.394 121.928 103.968 121.928 104.641V109.624H119.396ZM126.034 109.657L122.724 101.579H125.455L127.557 107.985H126.547L128.699 101.579H131.43L127.987 109.657H126.034ZM123.965 113.017L126.382 107.803L127.987 109.657L126.564 113.017H123.965ZM37.6431 130.806C36.683 130.806 35.8554 130.651 35.1602 130.342C34.476 130.022 33.847 129.542 33.2732 128.902L34.9616 127.231C35.3368 127.661 35.7506 127.997 36.203 128.24C36.6665 128.472 37.2017 128.588 37.8086 128.588C38.3604 128.588 38.7852 128.488 39.0832 128.29C39.3921 128.091 39.5466 127.815 39.5466 127.462C39.5466 127.142 39.4473 126.883 39.2487 126.684C39.05 126.486 38.7852 126.315 38.4542 126.171C38.1341 126.028 37.7755 125.89 37.3782 125.757C36.992 125.625 36.6058 125.476 36.2196 125.31C35.8333 125.134 35.4747 124.919 35.1436 124.665C34.8236 124.4 34.5643 124.074 34.3657 123.688C34.167 123.291 34.0677 122.794 34.0677 122.199C34.0677 121.481 34.2388 120.863 34.5808 120.345C34.934 119.826 35.4195 119.434 36.0375 119.169C36.6554 118.894 37.3672 118.756 38.1728 118.756C38.9894 118.756 39.7342 118.899 40.4074 119.186C41.0915 119.473 41.6543 119.865 42.0957 120.361L40.4074 122.033C40.0542 121.669 39.6956 121.398 39.3314 121.222C38.9783 121.045 38.5755 120.957 38.1231 120.957C37.6707 120.957 37.312 121.045 37.0472 121.222C36.7823 121.387 36.6499 121.63 36.6499 121.95C36.6499 122.248 36.7492 122.491 36.9479 122.679C37.1465 122.855 37.4058 123.01 37.7258 123.142C38.0569 123.274 38.4155 123.407 38.8018 123.539C39.199 123.672 39.5908 123.826 39.977 124.003C40.3632 124.179 40.7163 124.406 41.0364 124.681C41.3674 124.946 41.6322 125.288 41.8309 125.708C42.0295 126.116 42.1288 126.624 42.1288 127.231C42.1288 128.345 41.7316 129.222 40.937 129.862C40.1425 130.491 39.0445 130.806 37.6431 130.806ZM43.5525 130.624V122.579H46.085V130.624H43.5525ZM48.7003 130.624V125.923C48.7003 125.515 48.5734 125.2 48.3196 124.979C48.0768 124.748 47.7734 124.632 47.4092 124.632C47.1554 124.632 46.9292 124.687 46.7306 124.797C46.5319 124.897 46.3719 125.04 46.2505 125.228C46.1402 125.415 46.085 125.647 46.085 125.923L45.1084 125.492C45.1084 124.852 45.2464 124.306 45.5222 123.854C45.7981 123.39 46.1733 123.037 46.6478 122.794C47.1223 122.541 47.6575 122.414 48.2534 122.414C48.8162 122.414 49.3183 122.541 49.7597 122.794C50.2121 123.048 50.5708 123.401 50.8356 123.854C51.1005 124.306 51.2329 124.847 51.2329 125.476V130.624H48.7003ZM53.8482 130.624V125.923C53.8482 125.515 53.7213 125.2 53.4675 124.979C53.2247 124.748 52.9212 124.632 52.5571 124.632C52.3033 124.632 52.0771 124.687 51.8784 124.797C51.6798 124.897 51.5198 125.04 51.3984 125.228C51.288 125.415 51.2329 125.647 51.2329 125.923L49.7762 125.724C49.7983 125.04 49.9583 124.455 50.2563 123.97C50.5653 123.473 50.968 123.092 51.4646 122.828C51.9722 122.552 52.5405 122.414 53.1695 122.414C53.7875 122.414 54.3337 122.546 54.8082 122.811C55.2938 123.065 55.6745 123.434 55.9504 123.92C56.2373 124.394 56.3807 124.968 56.3807 125.641V130.624H53.8482ZM61.3638 130.789C60.6245 130.789 59.9624 130.607 59.3775 130.243C58.8037 129.879 58.3457 129.382 58.0037 128.753C57.6726 128.124 57.5071 127.407 57.5071 126.602C57.5071 125.796 57.6726 125.079 58.0037 124.45C58.3457 123.821 58.8037 123.324 59.3775 122.96C59.9624 122.596 60.6245 122.414 61.3638 122.414C61.9045 122.414 62.3901 122.519 62.8205 122.728C63.2619 122.938 63.6205 123.23 63.8964 123.605C64.1723 123.97 64.3267 124.389 64.3598 124.863V128.34C64.3267 128.814 64.1723 129.239 63.8964 129.614C63.6315 129.978 63.2784 130.265 62.837 130.475C62.3956 130.684 61.9045 130.789 61.3638 130.789ZM61.877 128.505C62.4177 128.505 62.8536 128.328 63.1846 127.975C63.5157 127.611 63.6812 127.153 63.6812 126.602C63.6812 126.226 63.6039 125.895 63.4495 125.608C63.306 125.321 63.0963 125.101 62.8205 124.946C62.5556 124.781 62.2466 124.698 61.8935 124.698C61.5404 124.698 61.2259 124.781 60.95 124.946C60.6852 125.101 60.47 125.321 60.3045 125.608C60.15 125.895 60.0727 126.226 60.0727 126.602C60.0727 126.966 60.15 127.291 60.3045 127.578C60.459 127.865 60.6741 128.091 60.95 128.257C61.2259 128.422 61.5349 128.505 61.877 128.505ZM63.5819 130.624V128.455L63.9626 126.502L63.5819 124.549V122.579H66.0648V130.624H63.5819ZM67.8479 130.624V122.579H70.3805V130.624H67.8479ZM70.3805 126.204L69.3211 125.377C69.5308 124.439 69.8839 123.71 70.3805 123.192C70.877 122.673 71.5667 122.414 72.4495 122.414C72.8358 122.414 73.1723 122.474 73.4592 122.596C73.7572 122.706 74.0165 122.883 74.2372 123.125L72.7309 125.029C72.6206 124.908 72.4826 124.814 72.3171 124.748C72.1516 124.681 71.964 124.648 71.7543 124.648C71.335 124.648 70.9984 124.781 70.7446 125.046C70.5018 125.299 70.3805 125.686 70.3805 126.204ZM76.1348 130.624V119.252H78.6674V130.624H76.1348ZM74.314 124.731V122.579H80.4881V124.731H74.314ZM90.533 130.806C89.6612 130.806 88.8501 130.657 88.0997 130.359C87.3604 130.05 86.7093 129.62 86.1465 129.068C85.5948 128.516 85.1644 127.876 84.8554 127.148C84.5464 126.408 84.392 125.614 84.392 124.764C84.392 123.914 84.5464 123.125 84.8554 122.397C85.1644 121.658 85.5948 121.018 86.1465 120.477C86.6983 119.936 87.3438 119.517 88.0832 119.219C88.8336 118.91 89.6446 118.756 90.5164 118.756C91.4434 118.756 92.2655 118.905 92.9827 119.202C93.7111 119.5 94.3456 119.909 94.8863 120.427L93.1483 122.182C92.8393 121.851 92.4641 121.592 92.0227 121.404C91.5923 121.216 91.0902 121.123 90.5164 121.123C90.0088 121.123 89.5398 121.211 89.1094 121.387C88.6901 121.553 88.326 121.796 88.017 122.116C87.719 122.436 87.4818 122.822 87.3052 123.274C87.1397 123.727 87.0569 124.223 87.0569 124.764C87.0569 125.316 87.1397 125.818 87.3052 126.27C87.4818 126.723 87.719 127.109 88.017 127.429C88.326 127.749 88.6901 127.997 89.1094 128.174C89.5398 128.351 90.0088 128.439 90.5164 128.439C91.1123 128.439 91.631 128.345 92.0724 128.157C92.5138 127.97 92.8945 127.711 93.2145 127.379L94.9691 129.134C94.4063 129.653 93.7607 130.061 93.0324 130.359C92.3151 130.657 91.482 130.806 90.533 130.806ZM99.3345 130.789C98.5952 130.789 97.9331 130.607 97.3482 130.243C96.7744 129.879 96.3165 129.382 95.9744 128.753C95.6433 128.124 95.4778 127.407 95.4778 126.602C95.4778 125.796 95.6433 125.079 95.9744 124.45C96.3165 123.821 96.7744 123.324 97.3482 122.96C97.9331 122.596 98.5952 122.414 99.3345 122.414C99.8753 122.414 100.361 122.519 100.791 122.728C101.233 122.938 101.591 123.23 101.867 123.605C102.143 123.97 102.297 124.389 102.331 124.863V128.34C102.297 128.814 102.143 129.239 101.867 129.614C101.602 129.978 101.249 130.265 100.808 130.475C100.366 130.684 99.8753 130.789 99.3345 130.789ZM99.8477 128.505C100.388 128.505 100.824 128.328 101.155 127.975C101.486 127.611 101.652 127.153 101.652 126.602C101.652 126.226 101.575 125.895 101.42 125.608C101.277 125.321 101.067 125.101 100.791 124.946C100.526 124.781 100.217 124.698 99.8642 124.698C99.5111 124.698 99.1966 124.781 98.9207 124.946C98.6559 125.101 98.4407 125.321 98.2752 125.608C98.1207 125.895 98.0434 126.226 98.0434 126.602C98.0434 126.966 98.1207 127.291 98.2752 127.578C98.4297 127.865 98.6449 128.091 98.9207 128.257C99.1966 128.422 99.5056 128.505 99.8477 128.505ZM101.553 130.624V128.455L101.933 126.502L101.553 124.549V122.579H104.035V130.624H101.553ZM105.819 130.624V122.579H108.351V130.624H105.819ZM108.351 126.204L107.292 125.377C107.501 124.439 107.855 123.71 108.351 123.192C108.848 122.673 109.537 122.414 110.42 122.414C110.806 122.414 111.143 122.474 111.43 122.596C111.728 122.706 111.987 122.883 112.208 123.125L110.702 125.029C110.591 124.908 110.453 124.814 110.288 124.748C110.122 124.681 109.935 124.648 109.725 124.648C109.306 124.648 108.969 124.781 108.715 125.046C108.473 125.299 108.351 125.686 108.351 126.204ZM116.083 130.789C115.321 130.789 114.643 130.607 114.047 130.243C113.462 129.879 112.998 129.382 112.656 128.753C112.325 128.124 112.16 127.407 112.16 126.602C112.16 125.796 112.325 125.079 112.656 124.45C112.998 123.821 113.462 123.324 114.047 122.96C114.643 122.596 115.321 122.414 116.083 122.414C116.634 122.414 117.131 122.519 117.572 122.728C118.025 122.938 118.394 123.23 118.681 123.605C118.979 123.97 119.145 124.389 119.178 124.863V128.257C119.145 128.731 118.985 129.162 118.698 129.548C118.411 129.923 118.041 130.227 117.589 130.458C117.136 130.679 116.634 130.789 116.083 130.789ZM116.53 128.505C116.894 128.505 117.208 128.428 117.473 128.273C117.738 128.108 117.948 127.882 118.102 127.595C118.257 127.308 118.334 126.977 118.334 126.602C118.334 126.226 118.257 125.901 118.102 125.625C117.959 125.338 117.749 125.112 117.473 124.946C117.208 124.781 116.899 124.698 116.546 124.698C116.193 124.698 115.879 124.781 115.603 124.946C115.338 125.112 115.123 125.338 114.957 125.625C114.803 125.912 114.725 126.237 114.725 126.602C114.725 126.966 114.803 127.291 114.957 127.578C115.112 127.865 115.327 128.091 115.603 128.257C115.879 128.422 116.187 128.505 116.53 128.505ZM120.717 130.624H118.234V128.455L118.615 126.502L118.185 124.549V118.607H120.717V130.624Z" fill="#BC3C50"/>
<defs>
<filter id="filter0_d_47_257" x="0.240823" y="0.861855" width="157.25" height="172.401" filterUnits="userSpaceOnUse" color-interpolation-filters="sRGB">
<feFlood flood-opacity="0" result="BackgroundImageFix"/>
<feColorMatrix in="SourceAlpha" type="matrix" values="0 0 0 0 0 0 0 0 0 0 0 0 0 0 0 0 0 0 127 0" result="hardAlpha"/>
<feOffset dx="1.65526" dy="8.27629"/>
<feGaussianBlur stdDeviation="6.20722"/>
<feComposite in2="hardAlpha" operator="out"/>
<feColorMatrix type="matrix" values="0 0 0 0 0 0 0 0 0 0 0 0 0 0 0 0 0 0 0.2 0"/>
<feBlend mode="normal" in2="BackgroundImageFix" result="effect1_dropShadow_47_257"/>
<feBlend mode="normal" in="SourceGraphic" in2="effect1_dropShadow_47_257" result="shape"/>
</filter>
</defs>
</svg>
