<svg width="80" height="100" viewBox="0 0 80 100" fill="none" xmlns="http://www.w3.org/2000/svg">
<path d="M39.4385 0C17.658 0 0 17.8234 0 39.8078C0 49.8737 3.70532 59.0739 9.81792 66.079C9.87126 66.1508 9.93145 66.2198 9.99848 66.2874L10.5812 66.9405L39.4372 98.861L61.2136 74.7698L54.759 68.2548C50.203 70.7605 44.9821 72.1881 39.4372 72.1881C21.734 72.1881 7.33403 57.6533 7.33403 39.7843C7.33403 21.9154 21.734 7.38061 39.4372 7.38061C57.1403 7.38061 71.5403 21.9154 71.5403 39.7843C71.5403 44.9753 70.3257 49.8875 68.166 54.2391L73.5906 59.7145C76.9499 53.8594 78.8716 47.0586 78.8716 39.8064C78.873 17.8234 61.219 0 39.4385 0Z" fill="white"/>
<path d="M59.3536 54.3328C62.2984 50.2435 64.0328 45.2168 64.0328 39.787C64.0328 26.0985 53.0003 14.9626 39.4388 14.9626C25.8772 14.9626 14.8447 26.0985 14.8447 39.787C14.8447 53.4755 25.8772 64.6113 39.4388 64.6113C45.2163 64.6113 50.5397 62.5873 54.7415 59.2077L65.5373 69.9831L69.9799 65.0586L59.3536 54.3328ZM20.8643 39.787C20.8643 29.4436 29.1968 21.0372 39.4401 21.0372C49.6834 21.0372 58.0159 29.4436 58.0159 39.787C58.0159 50.1303 49.6834 58.5367 39.4401 58.5367C29.1968 58.5367 20.8643 50.1262 20.8643 39.787Z" fill="white"/>
</svg>
