<svg width="44" height="44" viewBox="0 0 44 44" fill="none" xmlns="http://www.w3.org/2000/svg">
<path fill-rule="evenodd" clip-rule="evenodd" d="M10 15C10 14.4477 10.4477 14 11 14H33C33.5523 14 34 14.4477 34 15C34 15.5523 33.5523 16 33 16H11C10.4477 16 10 15.5523 10 15ZM10 22C10 21.4477 10.4477 21 11 21H33C33.5523 21 34 21.4477 34 22C34 22.5523 33.5523 23 33 23H11C10.4477 23 10 22.5523 10 22ZM10 29C10 28.4477 10.4477 28 11 28H33C33.5523 28 34 28.4477 34 29C34 29.5523 33.5523 30 33 30H11C10.4477 30 10 29.5523 10 29Z" fill="white"/>
</svg>
