<svg width="145" height="176" viewBox="0 0 145 176" fill="none" xmlns="http://www.w3.org/2000/svg">
<path d="M66.5206 109.54L81.2892 89.514L83.4305 112.867L79.756 128.095L129.623 134.572L128.282 93.9557L129.194 62.6967C129.247 60.8331 128.706 58.9781 127.655 57.4214C126.604 55.8648 125.102 54.6939 123.383 54.0918L109.394 49.1803L90.6417 53.7723L83.2366 57.1954C80.132 58.6331 77.4441 60.8571 75.4081 63.6729L54.681 92.3731" fill="#BC3C50"/>
<path d="M81.9769 85.3617C81.0475 85.3943 80.1149 85.3707 79.1838 85.291C76.9361 85.047 74.7823 84.1116 72.9983 82.6048C71.2143 81.0979 69.8814 79.0883 69.1706 76.8335C68.8997 75.8904 68.6779 74.9347 68.5063 73.9707C68.4663 74.2347 68.4659 74.5053 68.505 74.7728C68.5606 75.4981 68.6935 76.218 68.9014 76.919C69.5649 79.2681 70.9129 81.3702 72.7547 82.9276C74.5965 84.4851 76.8386 85.4189 79.1636 85.5968C79.8585 85.6557 80.5545 85.6375 81.2397 85.5425C81.4948 85.5243 81.7437 85.4633 81.9769 85.3617Z" fill="white"/>
<path d="M82.3217 111.822C82.2309 111.827 81.6677 103.853 81.064 94.0211C80.4603 84.1893 80.0488 76.2139 80.1396 76.2084C80.2303 76.2029 80.793 84.1691 81.3973 94.0088C82.0015 103.848 82.4124 111.816 82.3217 111.822Z" fill="#263238"/>
<path d="M85.7269 117.403L114.224 103.483C115.35 102.932 116.294 102.058 116.949 100.957C117.604 99.8571 117.943 98.5749 117.929 97.2554L117.591 67.4764C117.591 67.4764 116.268 54.8636 123.748 53.8787L128.155 55.433C133.949 58.236 136.028 66.612 135.825 73.1608C135.535 82.4683 136.192 95.5931 135.678 103.682C135.245 110.306 132.165 116.263 126.143 118.262L90.4436 128.315L85.7269 117.403Z" fill="#BC3C50"/>
<path d="M117.254 72.1102C117.223 72.335 117.212 72.563 117.22 72.7916C117.215 73.2796 117.202 73.936 117.195 74.76C117.19 76.5115 117.184 78.9747 117.179 81.9976C117.175 85.0205 117.195 88.7059 117.199 92.736C117.208 93.7511 117.211 94.7825 117.216 95.8378C117.248 96.9102 117.211 97.9806 117.105 99.0419C116.988 100.116 116.554 101.112 115.862 101.894C115.114 102.681 114.241 103.329 113.28 103.813C105.422 107.912 98.1502 111.342 92.8643 113.754L86.5809 116.576L84.8717 117.34C84.6711 117.421 84.4774 117.519 84.2923 117.632C84.5043 117.58 84.7107 117.509 84.9088 117.418L86.647 116.724C88.124 116.107 90.3402 115.19 92.9779 114.012C98.3078 111.67 105.591 108.287 113.481 104.203C114.479 103.696 115.385 103.019 116.163 102.199C116.905 101.355 117.37 100.282 117.494 99.1266C117.601 98.0497 117.634 96.9632 117.594 95.8751C117.589 94.8118 117.578 93.7808 117.569 92.7657C117.529 88.7694 117.494 85.0927 117.426 82.0254C117.358 78.9581 117.345 76.5358 117.32 74.7858C117.306 73.9869 117.286 73.3001 117.268 72.8132C117.283 72.5798 117.278 72.3445 117.254 72.1102Z" fill="#263238"/>
<path d="M135.979 86.9008C135.959 87.0321 135.953 87.1657 135.959 87.2994L135.957 88.4447C135.955 89.5026 135.961 90.9258 135.963 92.6594C135.965 94.393 135.919 96.5504 135.822 98.8934C135.745 101.429 135.516 103.951 135.134 106.443C134.964 107.725 134.582 108.958 134.006 110.086C133.438 111.124 132.786 112.106 132.058 113.022C130.815 114.573 129.341 115.9 127.688 116.954C126.145 117.9 124.463 118.585 122.7 118.984C122.829 118.994 122.958 118.988 123.083 118.964C123.444 118.921 123.801 118.853 124.152 118.76C125.451 118.435 126.693 117.915 127.839 117.217C129.542 116.182 131.061 114.854 132.336 113.287C133.092 112.359 133.766 111.36 134.348 110.299C134.955 109.139 135.359 107.867 135.542 106.542C135.93 104.031 136.153 101.487 136.209 98.9298C136.281 96.5404 136.287 94.4565 136.259 92.6765C136.23 90.8965 136.177 89.4517 136.131 88.452C136.093 87.9926 136.061 87.6125 136.035 87.3036C136.037 87.1679 136.018 87.032 135.979 86.9008Z" fill="#263238"/>
<path d="M124.934 108.377C124.806 107.798 124.574 107.245 124.25 106.748C123.528 105.503 122.581 104.411 121.464 103.535C120.346 102.659 119.082 102.017 117.743 101.647C117.198 101.462 116.627 101.389 116.064 101.432C116.584 101.626 117.111 101.793 117.644 101.933C118.918 102.37 120.12 103.025 121.2 103.87C122.277 104.718 123.219 105.741 123.986 106.898C124.6 107.791 124.875 108.404 124.934 108.377Z" fill="#263238"/>
<path d="M117.469 86.857C117.406 86.8801 117.347 86.9127 117.294 86.9538L116.784 87.2754C116.125 87.6643 115.443 88.011 114.741 88.3137C112.152 89.4253 109.308 89.8247 106.474 89.475C102.261 88.9066 98.3514 86.6821 95.5528 83.2604C93.8861 81.2865 92.7441 78.9014 92.2476 76.3573C91.9954 75.02 92.0158 73.6538 92.3075 72.3485C92.6189 71.0153 93.2552 69.8009 94.156 68.8202C95.0417 67.828 96.2058 67.1505 97.4955 66.8767C98.1051 66.7302 98.7443 66.7312 99.365 66.8796C99.9858 67.0279 100.572 67.3198 101.079 67.7332C101.542 68.1482 101.839 68.7286 101.906 69.3508C101.945 69.9709 101.792 70.5796 101.47 71.0869C101.131 71.5784 100.699 71.9909 100.198 72.3002C99.6981 72.6096 99.1397 72.8098 98.5556 72.8892C96.5109 73.2606 94.3883 73.0868 92.3825 72.3838C90.3768 71.6807 88.5521 70.471 87.0757 68.8654C85.9537 67.6147 85.0654 66.1596 84.4595 64.5801C84.0059 63.383 83.7094 62.1334 83.5782 60.8661C83.5021 60.0652 83.4906 59.2618 83.5439 58.4643C83.5688 58.2147 83.5894 58.0054 83.5989 57.8447C83.5994 57.7728 83.5933 57.7006 83.5807 57.6293C83.3523 58.6761 83.2887 59.7613 83.3923 60.8433C83.4933 62.131 83.7713 63.4043 84.2178 64.6241C85.3198 67.5629 87.3719 70.0409 90.0084 71.6171C92.645 73.1932 95.6949 73.765 98.6152 73.2308C99.2408 73.1415 99.8382 72.9234 100.373 72.589C100.908 72.2546 101.37 71.8105 101.732 71.2822C102.099 70.7042 102.272 70.0097 102.224 69.3031C102.162 68.5771 101.829 67.8941 101.297 67.4021C100.743 66.9487 100.104 66.627 99.4262 66.4607C98.7486 66.2945 98.0499 66.288 97.382 66.4417C96.0116 66.7253 94.7746 67.4434 93.8376 68.4994C92.8864 69.5266 92.2177 70.8047 91.897 72.2085C91.5943 73.5662 91.5733 74.9869 91.8353 76.3777C92.3542 78.9765 93.532 81.4097 95.2443 83.4199C97.6192 86.3375 100.815 88.4025 104.342 89.299C107.87 90.1954 111.535 89.8741 114.777 88.384C115.74 88.0036 116.645 87.4901 117.469 86.857Z" fill="white"/>
<path d="M136.922 77.5213C136.77 77.2789 136.584 77.0627 136.37 76.8811C135.828 76.3435 135.24 75.8614 134.615 75.4416C132.514 74.0829 130.138 73.3246 127.725 73.2429C126.397 73.1508 125.072 73.2769 123.797 73.6169C122.761 73.905 121.772 74.3427 120.857 74.918C120.242 75.2981 119.658 75.7296 119.109 76.2089C118.894 76.3692 118.705 76.5646 118.549 76.7884C118.601 76.8526 119.441 76.0752 121.004 75.1861C123.041 74.023 125.364 73.5008 127.714 73.6777C130.065 73.7571 132.386 74.4513 134.473 75.6993C136.059 76.6964 136.872 77.5823 136.922 77.5213Z" fill="white"/>
<path d="M130.64 56.7781C129.971 57.5337 129.209 58.1935 128.372 58.7416C127.455 59.3043 126.438 59.6782 125.374 59.8439C124.078 60.0457 122.743 59.9176 121.479 59.4705C120.237 58.9956 119.111 58.2191 118.197 57.2072C117.441 56.3626 116.835 55.3869 116.408 54.3285C116.046 53.3328 115.801 52.2996 115.677 51.2519C115.626 51.533 115.616 51.8225 115.649 52.1103C115.703 52.9006 115.871 53.6827 116.146 54.4303C116.556 55.5461 117.168 56.5762 117.948 57.4621C118.889 58.5751 120.086 59.42 121.417 59.9109C122.748 60.4018 124.165 60.5212 125.525 60.2568C126.63 60.0694 127.679 59.6549 128.613 59.037C129.243 58.6244 129.804 58.1114 130.278 57.5156C130.442 57.297 130.565 57.047 130.64 56.7781Z" fill="white"/>
<path d="M107.296 106.852C107.277 106.651 107.24 106.452 107.184 106.257C107.029 105.701 106.804 105.167 106.515 104.667C105.377 102.833 103.662 101.461 101.684 100.8C98.7667 99.765 95.638 99.8024 92.8278 100.906C91.2811 101.477 89.5133 102.182 88.4319 103.867C88.1605 104.297 88.0088 104.8 87.9929 105.324C87.977 105.848 88.0976 106.372 88.3419 106.841C88.8859 107.753 89.7009 108.459 90.6552 108.845C91.5801 109.261 92.572 109.467 93.5629 109.448C94.5483 109.449 95.4884 109.086 96.2173 108.424C96.5509 108.083 96.8117 107.672 96.9836 107.215C97.1555 106.759 97.2349 106.267 97.217 105.769C97.1893 104.838 96.9718 103.917 96.5789 103.066C95.1688 100.177 92.7575 97.9318 89.8581 96.8084C87.932 96.0346 85.8711 95.7684 83.8623 96.034C83.1308 96.1292 82.4184 96.3255 81.7437 96.6178C81.7484 96.6743 82.497 96.3695 83.8914 96.1949C85.559 96.0166 87.2578 96.1977 88.8839 96.727C90.5099 97.2563 92.0291 98.1227 93.3484 99.2732C94.5742 100.352 95.5717 101.687 96.2717 103.186C96.6395 103.987 96.8419 104.855 96.8653 105.73C96.8802 106.173 96.8079 106.611 96.653 107.016C96.498 107.422 96.2637 107.786 95.9645 108.087C95.3074 108.69 94.457 109.019 93.5654 109.017C92.6363 109.038 91.7059 108.846 90.8391 108.455C89.9679 108.104 89.2219 107.464 88.7194 106.636C88.511 106.232 88.4083 105.781 88.4221 105.33C88.4359 104.88 88.5658 104.446 88.798 104.076C89.2759 103.337 89.9169 102.733 90.67 102.311C91.3994 101.892 92.1652 101.541 92.9587 101.265C95.693 100.17 98.7414 100.102 101.598 101.072C103.531 101.69 105.224 102.987 106.382 104.739C106.773 105.402 107.08 106.113 107.296 106.852Z" fill="white"/>
<path d="M128.276 116.431C128.27 116.351 127.134 116.311 125.367 115.775C123.059 115.061 120.936 113.763 119.191 111.999C117.447 110.235 116.136 108.061 115.378 105.676C114.788 103.849 114.702 102.645 114.626 102.657C114.596 102.935 114.607 103.217 114.659 103.495C114.741 104.258 114.892 105.014 115.109 105.753C115.814 108.219 117.129 110.471 118.92 112.277C120.71 114.083 122.912 115.377 125.296 116.026C126.011 116.228 126.74 116.361 127.472 116.423C127.74 116.466 128.011 116.469 128.276 116.431Z" fill="white"/>
<path d="M136.465 92.8619C136.345 92.8006 136.219 92.7552 136.09 92.7266C135.837 92.6582 135.473 92.5629 134.993 92.4572C133.629 92.156 132.237 92.0773 130.867 92.2242C129.918 92.347 129.002 92.6358 128.156 93.0785C127.171 93.5915 126.341 94.3688 125.748 95.3341C125.1 96.428 124.853 97.7413 125.048 99.043C125.156 99.7353 125.416 100.398 125.807 100.98C126.205 101.594 126.791 102.052 127.463 102.274C127.816 102.38 128.186 102.387 128.535 102.296C128.884 102.205 129.201 102.018 129.452 101.755C129.87 101.199 130.061 100.489 129.989 99.7699C129.92 98.4837 129.57 97.2191 128.965 96.0734C128.122 94.4397 126.791 93.125 125.184 92.3379C123.576 91.5508 121.785 91.3365 120.094 91.7291C119.73 91.8074 119.374 91.9198 119.032 92.0649C118.801 92.1734 118.683 92.2359 118.692 92.2516C118.701 92.2674 119.194 92.0569 120.131 91.8891C121.455 91.6534 122.828 91.7691 124.125 92.2257C126.049 92.914 127.663 94.3589 128.616 96.2444C129.181 97.3395 129.507 98.5432 129.571 99.7663C129.639 100.382 129.48 100.992 129.127 101.472C128.923 101.679 128.668 101.825 128.388 101.896C128.108 101.967 127.812 101.959 127.53 101.874C126.941 101.682 126.426 101.284 126.074 100.748C125.722 100.22 125.486 99.6205 125.385 98.994C125.202 97.7874 125.424 96.569 126.014 95.5476C126.564 94.6296 127.341 93.888 128.268 93.3967C129.077 92.9546 129.956 92.6595 130.869 92.5235C132.207 92.3518 133.569 92.3853 134.914 92.6229C135.924 92.7753 136.452 92.8949 136.465 92.8619Z" fill="white"/>
<g opacity="0.3">
<path d="M94.3594 113.486C97.2338 111.476 100.088 109.903 103.136 108.193C106.183 106.483 109.122 104.309 110.899 101.14C114.247 95.1648 112.896 86.7845 116.341 80.8863C116.489 84.7543 116.638 88.6249 116.791 92.4981C116.926 96.0437 117.797 99.5281 115.962 102.014C114.411 104.108 111.131 105.795 108.784 106.768C104.069 108.721 99.0679 111.541 94.3594 113.486Z" fill="black"/>
</g>
<path d="M42.6432 159.876C42.6432 159.876 18.0808 168.455 17.1009 168.896C15.602 169.534 16.3787 175.374 18.7281 175.159C19.8456 175.062 38.1132 174.914 40.4199 174.652C42.7267 174.39 49.4414 171.154 49.4414 171.154L42.6432 159.876Z" fill="#BC3C50"/>
<path d="M32.9734 170.461C32.5909 169.527 32.151 168.619 31.6567 167.741C31.0592 166.936 30.4142 166.171 29.7257 165.45C30.6403 165.909 31.427 166.619 31.9998 167.502C32.5725 168.384 32.9091 169.405 32.9728 170.453L32.9734 170.461Z" fill="#263238"/>
<path d="M35.5492 169.071C35.4292 169.077 35.082 167.895 34.3174 166.581C33.5528 165.268 32.7095 164.364 32.7846 164.273C33.5461 164.824 34.1891 165.54 34.6672 166.371C35.1454 167.202 35.4468 168.127 35.5498 169.079L35.5492 169.071Z" fill="#263238"/>
<path d="M37.9553 168.238C37.7599 167.322 37.4952 166.423 37.1639 165.547C36.7144 164.728 36.2071 163.944 35.6467 163.202C36.4607 163.713 37.1179 164.469 37.5305 165.369C37.9431 166.269 38.0913 167.27 37.9553 168.238Z" fill="#263238"/>
<path d="M37.4196 164.929C37.1568 164.33 37.0147 163.683 37.0027 163.031C36.9518 162.323 36.9755 161.614 37.0731 160.918C37.1322 160.507 37.2204 160.102 37.337 159.708C37.3865 159.459 37.5017 159.233 37.6693 159.056C37.783 158.954 37.9284 158.899 38.0803 158.9C38.2322 158.901 38.3812 158.958 38.5016 159.062C38.7042 159.244 38.839 159.498 38.8797 159.773C38.9166 159.998 38.9354 160.225 38.9358 160.452C38.9686 160.875 38.9538 161.299 38.8917 161.715C38.7886 162.412 38.5944 163.086 38.3146 163.718C38.0988 164.325 37.7769 164.879 37.3654 165.352C37.3062 165.355 37.6601 164.695 38.054 163.62C38.2848 162.999 38.4428 162.346 38.5247 161.678C38.5706 161.287 38.5777 160.891 38.5458 160.495C38.5131 160.1 38.4727 159.611 38.2351 159.432C38.1881 159.392 38.1295 159.372 38.0707 159.375C38.0119 159.378 37.9572 159.404 37.9171 159.448C37.8073 159.58 37.7289 159.739 37.6881 159.912C37.5771 160.29 37.4875 160.676 37.4197 161.067C37.3045 161.731 37.2535 162.409 37.2674 163.089C37.3145 164.197 37.4855 164.918 37.4196 164.929Z" fill="#263238"/>
<path d="M37.3439 164.592C37.8365 164.343 38.3832 164.221 38.9396 164.237C39.5398 164.207 40.1442 164.253 40.7396 164.375C41.1058 164.442 41.4641 164.558 41.806 164.72C42.0209 164.819 42.2019 164.987 42.3217 165.2C42.4415 165.412 42.4936 165.656 42.4702 165.896C42.4316 166.125 42.3353 166.338 42.1909 166.512C42.0465 166.686 41.8592 166.815 41.6478 166.886C41.2866 167.001 40.8999 167.02 40.5223 166.941C39.9161 166.829 39.3352 166.581 38.8198 166.214C38.3358 165.916 37.9065 165.527 37.5543 165.068C38.042 165.329 38.5141 165.623 38.9676 165.947C39.4623 166.26 40.0058 166.472 40.5687 166.574C40.8817 166.64 41.2022 166.624 41.5016 166.528C41.6431 166.482 41.7692 166.398 41.8669 166.284C41.9646 166.169 42.0306 166.028 42.0582 165.876C42.0692 165.726 42.0329 165.575 41.9549 165.446C41.8768 165.316 41.7614 165.215 41.6262 165.159C41.3259 165.007 41.0095 164.898 40.6852 164.832C40.1179 164.694 39.5407 164.619 38.9633 164.609C37.9733 164.528 37.3654 164.664 37.3439 164.592Z" fill="#263238"/>
<path d="M29.0958 170.969C28.9261 170.187 28.6991 169.418 28.4171 168.669C28.0171 167.98 27.5639 167.325 27.0624 166.712C27.8045 167.085 28.4121 167.713 28.7826 168.489C29.1531 169.264 29.2637 170.141 29.0958 170.969Z" fill="#263238"/>
<path d="M46.8447 170.972C46.5545 171.211 46.2388 171.408 45.9043 171.559C45.0144 172.008 44.0982 172.392 43.1613 172.709C40.0409 173.673 36.8146 174.201 33.552 174.281C29.7466 174.432 26.304 174.42 23.8103 174.438L20.8599 174.418C20.4986 174.43 20.1358 174.408 19.7753 174.351C20.1283 174.267 20.4897 174.227 20.8533 174.23L23.7899 174.072L33.5122 173.764C36.7448 173.685 39.9467 173.213 43.0638 172.356C45.4509 171.664 46.806 170.876 46.8447 170.972Z" fill="#263238"/>
<path d="M47.6311 171.594C47.6359 171.652 46.8805 171.262 45.6665 170.78C44.1196 170.113 42.4432 169.911 40.8299 170.2C39.2569 170.647 37.885 171.627 36.92 172.992C36.5194 173.574 36.0795 174.123 35.6036 174.636C35.8815 173.969 36.2454 173.348 36.6855 172.79C37.1314 172.155 37.6465 171.577 38.2208 171.07C38.9398 170.429 39.8011 169.986 40.7324 169.777C42.4251 169.473 44.1871 169.732 45.7769 170.52C46.4419 170.773 47.068 171.135 47.6311 171.594Z" fill="#263238"/>
<path d="M69.3392 150.742C69.3392 150.742 94.4309 165.82 95.3333 166.439C96.6958 167.382 95.6393 172.262 93.3527 171.542C92.2727 171.199 71.8806 166.385 69.6676 165.621C67.4546 164.857 61.2782 160.262 61.2782 160.262L69.3392 150.742Z" fill="#BC3C50"/>
<path d="M77.4972 163.217C77.6958 162.189 78.1643 161.249 78.8515 160.501C79.5388 159.752 80.4182 159.223 81.3938 158.972C80.6088 159.532 79.8627 160.148 79.1607 160.816C78.5573 161.577 78.0017 162.379 77.4972 163.217Z" fill="#263238"/>
<path d="M75.2141 161.394C75.4365 160.469 75.855 159.616 76.4395 158.894C77.024 158.173 77.76 157.603 78.5946 157.224C78.6651 157.332 77.6925 158.069 76.7663 159.172C75.84 160.274 75.3264 161.453 75.2141 161.394Z" fill="#263238"/>
<path d="M72.9606 160.139C72.8793 159.138 73.1617 158.157 73.7513 157.392C74.2275 156.557 74.9924 155.949 75.8967 155.689C75.2405 156.299 74.6307 156.962 74.0725 157.672C73.6385 158.459 73.2667 159.284 72.9606 160.139Z" fill="#263238"/>
<path d="M74.1317 157.055C74.0728 157.058 74.3254 156.356 74.4895 155.206C74.5902 154.539 74.6259 153.86 74.5962 153.18C74.5886 152.779 74.5556 152.379 74.4975 151.981C74.4854 151.8 74.4275 151.625 74.3301 151.474C74.2938 151.422 74.2406 151.386 74.1816 151.374C74.1227 151.362 74.0627 151.375 74.0144 151.411C73.7659 151.534 73.6724 152.014 73.5784 152.399C73.5013 152.781 73.4591 153.17 73.4524 153.563C73.4512 154.242 73.527 154.922 73.6783 155.588C73.9277 156.733 74.199 157.424 74.1421 157.451C73.7923 156.902 73.5413 156.29 73.4025 155.65C73.2043 154.965 73.0964 154.258 73.0818 153.55C73.0765 153.126 73.1137 152.704 73.1926 152.292C73.2353 152.071 73.2914 151.854 73.3608 151.642C73.4377 151.378 73.6038 151.158 73.8274 151.024C73.9582 150.949 74.1115 150.927 74.2603 150.961C74.4092 150.996 74.544 151.085 74.6412 151.212C74.7811 151.426 74.8653 151.674 74.885 151.929C75.0586 153.049 75.0317 154.186 74.8058 155.277C74.7031 155.919 74.4733 156.525 74.1317 157.055Z" fill="#263238"/>
<path d="M74.1034 156.814C74.1089 156.879 73.4975 156.616 72.519 156.412C71.9475 156.299 71.369 156.246 70.7922 156.254C70.462 156.247 70.1342 156.285 69.8171 156.367C69.6767 156.395 69.5502 156.469 69.4563 156.579C69.3623 156.69 69.3057 156.83 69.2948 156.98C69.3018 157.141 69.3498 157.3 69.4337 157.439C69.5176 157.578 69.6344 157.692 69.7722 157.771C70.0525 157.933 70.3633 158.024 70.6783 158.035C71.2474 158.065 71.8119 157.976 72.3388 157.774C72.8253 157.551 73.328 157.365 73.8428 157.218C73.4378 157.606 72.9631 157.906 72.4439 158.103C71.8903 158.362 71.2846 158.489 70.6688 158.476C70.2862 158.474 69.9064 158.369 69.5655 158.172C69.3641 158.058 69.1935 157.891 69.0714 157.688C68.9493 157.485 68.8802 157.253 68.8715 157.017C68.8784 156.774 68.9608 156.543 69.1063 156.36C69.2517 156.176 69.4523 156.05 69.6776 155.999C70.0337 155.914 70.4011 155.879 70.7699 155.896C71.3739 155.909 71.9773 155.996 72.5674 156.157C73.116 156.251 73.6417 156.476 74.1034 156.814Z" fill="#263238"/>
<path d="M90.2943 170.371C90.2976 170.411 89.8831 170.145 89.6444 169.457C89.3882 168.556 89.4646 167.599 89.8579 166.782C90.0449 166.346 90.2618 165.926 90.507 165.525C90.7052 165.184 90.9453 164.873 91.2215 164.599C91.4194 164.402 91.6719 164.276 91.9455 164.237C92.1409 164.227 92.2418 164.262 92.2438 164.286C92.2458 164.309 91.834 164.346 91.4442 164.826C91.2142 165.108 91.0149 165.417 90.8499 165.747C90.6125 166.142 90.3949 166.552 90.1982 166.972C89.8427 167.704 89.733 168.548 89.8864 169.374C90.0034 169.714 90.1396 170.047 90.2943 170.371Z" fill="#263238"/>
<path d="M81.2166 164.432C81.1488 164.003 81.17 163.567 81.2789 163.155C81.3879 162.743 81.5819 162.364 81.8477 162.043C82.0518 161.676 82.3327 161.363 82.6705 161.127C83.0082 160.891 83.3947 160.737 83.8025 160.676C83.2197 161.169 82.6805 161.714 82.1907 162.306C81.8081 162.982 81.4822 163.694 81.2166 164.432Z" fill="#263238"/>
<path d="M63.6094 160.796C63.9984 160.995 64.3716 161.229 64.7246 161.495C65.7278 162.141 66.7627 162.728 67.8244 163.253C69.3947 164.019 71.0072 164.676 72.6512 165.221C74.5215 165.842 76.6359 166.409 78.7954 166.958C83.1995 168.052 87.184 169.052 90.0597 169.803L93.4872 170.741C93.9085 170.835 94.3227 170.969 94.7249 171.139C94.2981 171.099 93.8735 171.024 93.4551 170.915L90.0217 170.093C87.1289 169.416 83.1408 168.466 78.7367 167.372C76.5378 166.817 74.4452 166.231 72.5729 165.586C70.9073 165.019 69.2782 164.327 67.6986 163.514C66.6369 162.959 65.6125 162.325 64.6336 161.615C64.2724 161.371 63.9298 161.097 63.6094 160.796Z" fill="#263238"/>
<path d="M62.7557 161.488C63.3693 161.163 64.0309 160.939 64.7176 160.825C66.3768 160.415 68.1379 160.554 69.761 161.223C70.6435 161.643 71.4238 162.277 72.0351 163.069C72.5362 163.693 72.9696 164.372 73.3269 165.092C73.6908 165.73 73.9696 166.413 74.1554 167.123C73.7543 166.518 73.3912 165.887 73.0683 165.235C72.2936 163.693 71.0696 162.436 69.5808 161.653C68.0313 161.025 66.3615 160.858 64.7622 161.171C63.5392 161.336 62.7765 161.552 62.7557 161.488Z" fill="#263238"/>
<path d="M16.9225 114.712C16.9225 114.712 10.0229 117.725 10.705 126.088C11.9934 142.097 44.443 158.217 44.443 158.217L83.2367 127.602L85.7243 126.377C85.7243 126.377 28.2351 107.261 16.9225 114.712Z" fill="#263238"/>
<path d="M63.576 143.023C63.1803 142.823 62.8004 142.59 62.4403 142.324C61.7308 141.845 60.71 141.14 59.4579 140.246C56.9474 138.474 53.5346 135.944 49.8359 133.034C46.1373 130.124 42.876 127.385 40.5513 125.355C39.3892 124.344 38.4572 123.507 37.8155 122.92C37.4717 122.635 37.1517 122.321 36.8593 121.979C37.2336 122.219 37.5885 122.492 37.9202 122.794L40.7314 125.121C43.1043 127.085 46.3935 129.79 50.0839 132.692C53.7742 135.595 57.1591 138.159 59.6138 139.998L62.5284 142.183C62.8974 142.434 63.2477 142.715 63.576 143.023Z" fill="#455A64"/>
<path d="M29.1504 120.732C31.8367 120.291 34.6219 121.005 36.8957 122.718C36.8362 122.845 35.2704 121.889 33.0934 121.353C30.9164 120.817 29.1621 120.872 29.1504 120.732Z" fill="#455A64"/>
<path d="M32.5888 118.091C33.5646 118.462 34.4475 119.075 35.1593 119.876C35.8711 120.677 36.3898 121.64 36.6695 122.682C36.5479 122.688 35.9991 121.429 34.8625 120.167C33.7259 118.905 32.5298 118.206 32.5888 118.091Z" fill="#455A64"/>
<path d="M18.0876 168.613C18.0837 168.565 18.5488 168.439 19.1363 168.893C19.8347 169.502 20.3116 170.352 20.4785 171.284C20.6844 172.198 20.6388 173.145 20.3473 174.01C20.119 174.664 19.833 174.98 19.7934 174.95C19.862 174.594 19.9548 174.245 20.0711 173.905C20.2631 173.08 20.2675 172.211 20.0841 171.367C19.9262 170.525 19.5352 169.744 18.9622 169.124C18.5018 168.679 18.0861 168.684 18.0876 168.613Z" fill="#263238"/>
<path d="M24.9584 88.4152L42.9557 126.838L106.368 124.784L107.239 121.127L84.9753 121.384L71.3867 87.1786L24.9584 88.4152Z" fill="#455A64"/>
<path d="M55.8397 104.17C55.3372 103.941 54.7879 103.866 54.2578 103.953C53.7277 104.041 53.2394 104.287 52.8514 104.662C52.5261 105.028 52.3185 105.493 52.2555 105.995C52.1926 106.497 52.2773 107.013 52.4987 107.477C52.7348 107.938 53.0877 108.327 53.5174 108.599C53.9471 108.871 54.4364 109.015 54.93 109.016C55.4503 109.025 55.9523 108.857 56.36 108.537C56.7676 108.218 57.0586 107.764 57.1889 107.245C57.3042 106.666 57.2387 106.056 57.0018 105.503C56.7649 104.951 56.3687 104.483 55.8703 104.168" fill="#EBEBEB"/>
<path d="M40.9904 159.493C40.9904 159.493 95.7884 116.692 98.0888 115.745C100.389 114.799 105.828 110.567 111.717 111.942C117.606 113.317 123.234 118.465 126.478 126.229C128.337 130.665 129.678 138.322 130.497 144.079C131.52 150.962 129.957 157.881 126.136 163.379C124.454 165.939 122.101 167.929 119.341 169.124C118.75 169.356 118.133 169.556 117.499 169.733C106.712 172.773 94.9544 168.163 87.967 158.626L86.4303 156.535C86.4303 156.535 49.607 173.04 48.9974 172.868L40.9904 159.493Z" fill="#263238"/>
<path d="M111.779 145.069C111.681 145.128 111.58 145.182 111.476 145.229L110.557 145.669L107.005 147.335L93.7868 153.394C88.1738 155.943 81.4459 158.982 73.8888 162.336C66.3317 165.69 57.9615 169.366 48.9938 173.088L48.838 173.16L48.7394 172.996L43.4372 164.17L40.7441 159.67L40.6447 159.498L40.7971 159.386L82.576 127.836L95.1329 118.419L98.5419 115.882L99.4354 115.234C99.6389 115.087 99.7493 115.025 99.7493 115.025L99.4618 115.273L98.5941 115.952L95.2275 118.535L82.7128 128.087L41.0126 159.746L41.0649 159.453C41.9184 160.885 42.8567 162.41 43.758 163.953L49.0525 172.779L48.7903 172.687C57.728 168.975 66.1296 165.305 73.6964 161.975L93.6332 153.127L106.937 147.169L110.519 145.575L111.456 145.174L111.779 145.069Z" fill="#455A64"/>
<path d="M96.8896 6.5606C95.6641 3.81375 93.3765 2.71204 90.5495 2.15177C89.1286 1.882 87.6802 1.97125 86.3273 2.41195C84.9744 2.85266 83.7571 3.63178 82.7789 4.68309C81.4888 6.09011 80.6191 8.00728 78.9539 8.89388C76.2082 10.3888 72.3835 8.59078 69.8399 10.3814C69.0757 10.9174 68.5242 11.7204 68.2792 12.6539C68.0342 13.5874 68.1109 14.5938 68.4962 15.5019C68.8815 16.41 69.5516 17.1638 70.3926 17.6351C71.2336 18.1064 72.1936 18.2661 73.1092 18.087C71.3232 19.0922 71.226 22.0411 72.6487 23.6601C74.0714 25.2791 76.4794 25.6187 78.4159 24.9359C80.3139 24.1348 81.9448 22.8 83.1329 21.0753C84.393 19.4043 85.4742 17.6214 86.8671 16.0646C88.1937 14.4459 90.0463 13.3915 92.0977 13.0875C94.8716 12.838 97.6216 14.673 99.28 17.0767C100.939 19.4804 101.747 22.3926 102.397 25.2564C103.047 28.1201 103.602 31.0368 104.895 33.6757C105.045 33.9901 105.258 34.3255 105.578 34.382C106.055 34.4631 106.347 33.9097 106.492 33.444C108.156 28.196 108.798 22.616 108.384 17.0214C108.152 13.8153 107.54 10.7647 105.4 8.3204C103.261 5.87607 98.688 4.51714 96.9092 6.51941" fill="#263238"/>
<path d="M104.063 18.923L110.932 50.7142C111.208 51.998 111.235 53.3169 111.01 54.5904C110.785 55.8639 110.314 57.0653 109.625 58.1217C108.936 59.1781 108.043 60.0673 107.001 60.7351C105.96 61.403 104.791 61.8355 103.565 62.0064C101.246 62.3366 98.8588 61.7118 96.8969 60.2614C94.935 58.811 93.549 56.6461 93.0261 54.2149C92.5181 51.8529 92.0839 49.8294 92.0106 49.5864C92.0106 49.5864 84.2053 50.3327 81.9253 42.4328C80.849 38.611 79.155 30.5785 77.7204 23.297C76.9888 19.5284 77.6233 15.6664 79.4979 12.4775C81.3726 9.28866 84.3504 7.00603 87.8403 6.0827L88.5804 5.8947C96.4951 4.29145 102.459 10.52 104.063 18.923Z" fill="#FFBE9D"/>
<path d="M91.6874 49.3404C95.2236 48.4735 98.3895 46.5191 100.783 43.7256C100.783 43.7256 100.042 50.1125 92.247 51.4L91.6874 49.3404Z" fill="#EB996E"/>
<path d="M81.1167 28.2938C81.1961 28.5916 81.3835 28.8498 81.6384 29.0127C81.8933 29.1755 82.1954 29.2301 82.4796 29.1645C82.6203 29.1409 82.7539 29.0877 82.8722 29.0081C82.9905 28.9286 83.0913 28.8242 83.1683 28.7014C83.2453 28.5785 83.2971 28.4397 83.3205 28.2932C83.344 28.1468 83.3385 27.9957 83.3046 27.849C83.2268 27.5496 83.0401 27.2894 82.7848 27.1249C82.5295 26.9604 82.2264 26.9049 81.9411 26.9703C81.8001 26.9949 81.6665 27.049 81.5482 27.1294C81.4299 27.2099 81.3293 27.3149 81.2524 27.4384C81.1754 27.5619 81.1238 27.7012 81.1005 27.8482C81.0772 27.9951 81.0827 28.1466 81.1167 28.2938Z" fill="#263238"/>
<path d="M80.1548 27.0651C80.3359 27.1874 80.9851 26.3099 82.1631 25.9969C83.3411 25.6838 84.3852 26.0912 84.4841 25.8812C84.5831 25.6711 84.3098 25.5617 83.851 25.3712C83.2402 25.1245 82.5785 25.0857 81.9617 25.2603C81.3475 25.4177 80.8059 25.7813 80.4169 26.2973C80.117 26.706 80.0733 27.02 80.1548 27.0651Z" fill="#263238"/>
<path d="M92.9467 25.5379C93.0244 25.8373 93.2112 26.0975 93.4664 26.262C93.7217 26.4265 94.0249 26.4821 94.3102 26.4166C94.4509 26.3909 94.5842 26.3362 94.7023 26.2556C94.8204 26.1749 94.9211 26.07 94.9985 25.9469C95.0758 25.8238 95.1284 25.6849 95.1531 25.5383C95.1777 25.3917 95.174 25.2403 95.1422 25.0928C95.0593 24.7965 94.8716 24.5402 94.6179 24.3766C94.3641 24.2131 94.0636 24.1549 93.7786 24.214C93.6374 24.2387 93.5035 24.2929 93.3849 24.3732C93.2662 24.4535 93.1651 24.5584 93.0876 24.6818C93.01 24.8051 92.9576 24.9444 92.9334 25.0915C92.9092 25.2385 92.9137 25.3903 92.9467 25.5379Z" fill="#263238"/>
<path d="M91.9653 24.1296C92.1458 24.2436 92.7949 23.3663 93.9729 23.0532C95.1509 22.7402 96.195 23.1476 96.2939 22.9375C96.3929 22.7275 96.1196 22.6181 95.6609 22.4277C95.0493 22.1853 94.389 22.1465 93.7715 22.3168C93.1583 22.4815 92.6162 22.8437 92.219 23.354C91.9309 23.8113 91.8832 24.0762 91.9653 24.1296Z" fill="#263238"/>
<path d="M89.9561 34.2498C89.3121 34.2057 88.6689 34.2516 88.0428 34.3865C87.7417 34.4017 87.4553 34.4163 87.3523 34.2393C87.2333 33.9309 87.2056 33.5944 87.2732 33.2766C87.3406 32.4809 87.4075 31.5901 87.4805 30.6832C87.7464 27.0092 87.8478 24.0249 87.7137 24.008C87.5796 23.991 87.2185 26.9567 86.982 30.6292C86.9237 31.5354 86.8615 32.3943 86.8115 33.2208C86.7309 33.6442 86.7963 34.0909 86.9959 34.4792C87.0664 34.5757 87.1559 34.6546 87.2576 34.7099C87.3592 34.7651 87.4704 34.7953 87.5826 34.798C87.7527 34.8151 87.9233 34.8065 88.0892 34.7724C88.7326 34.6832 89.3598 34.5077 89.9561 34.2498Z" fill="#263238"/>
<path d="M93.6244 34.0872C93.4265 34.097 93.8009 35.4537 92.987 36.6772C92.173 37.9008 90.815 38.1118 90.8311 38.3029C90.8473 38.494 91.1974 38.4767 91.7672 38.3446C92.5087 38.1619 93.1549 37.7113 93.5935 37.071C94.0078 36.4511 94.1699 35.6783 94.0458 34.9139C93.9365 34.3437 93.7055 34.0513 93.6244 34.0872Z" fill="#263238"/>
<path d="M90.4001 19.4882C90.6058 19.8099 91.7418 19.3294 93.1816 19.1325C94.6214 18.9355 95.8454 19.0483 95.9478 18.6862C95.9884 18.5181 95.7015 18.2503 95.1621 18.0368C94.4487 17.7814 93.6956 17.7055 92.9636 17.8153C92.2261 17.9131 91.5288 18.1987 90.9301 18.6481C90.4845 19.0025 90.318 19.3429 90.4001 19.4882Z" fill="#263238"/>
<path d="M79.6725 23.469C79.9557 23.6998 80.6812 23.1903 81.6591 22.9132C82.637 22.636 83.5137 22.6333 83.6164 22.2854C83.6646 22.1197 83.4573 21.8688 83.0159 21.6949C82.4431 21.493 81.8318 21.4806 81.2668 21.6594C80.6949 21.8175 80.1939 22.1656 79.8368 22.6528C79.5815 23.0327 79.5386 23.3532 79.6725 23.469Z" fill="#263238"/>
<path d="M105.694 24.7312C105.808 24.6378 110.41 21.7538 111.753 27.2306C113.097 32.7074 107.61 32.7638 107.566 32.6065C107.523 32.4491 105.694 24.7312 105.694 24.7312Z" fill="#FFBE9D"/>
<path d="M108.665 30.155C108.665 30.155 108.768 30.2055 108.936 30.2448C109.173 30.2917 109.413 30.2427 109.609 30.1078C109.889 29.8101 110.084 29.4349 110.174 29.022C110.264 28.609 110.246 28.1736 110.121 27.7616C110.021 27.2893 109.821 26.8427 109.537 26.4554C109.453 26.2949 109.334 26.1564 109.19 26.0516C109.047 25.9468 108.883 25.8786 108.712 25.8529C108.602 25.8486 108.495 25.8851 108.41 25.9561C108.325 26.0271 108.268 26.1281 108.248 26.2416C108.216 26.4021 108.271 26.5107 108.271 26.5186C108.272 26.5265 108.138 26.4538 108.126 26.2238C108.122 26.0826 108.164 25.9461 108.244 25.8365C108.299 25.7624 108.368 25.7017 108.448 25.6581C108.527 25.6145 108.614 25.5889 108.705 25.583C108.925 25.5788 109.145 25.6342 109.344 25.7439C109.543 25.8536 109.714 26.014 109.84 26.2098C110.175 26.6332 110.41 27.1314 110.526 27.6619C110.762 28.7708 110.482 29.9213 109.792 30.3133C109.665 30.3879 109.522 30.4306 109.374 30.4379C109.226 30.4453 109.077 30.4173 108.938 30.3559C108.707 30.288 108.652 30.1715 108.665 30.155Z" fill="#EB996E"/>
<path d="M75.7168 22.4026C77.5297 22.4152 79.302 21.9792 80.8882 21.1305C82.4745 20.2819 83.8293 19.0446 84.8417 17.5204C86.2024 15.3745 86.995 12.62 89.1082 11.2587C89.8392 10.828 90.6509 10.5562 91.4963 10.4592C92.3418 10.3621 93.2041 10.4416 94.0335 10.6932C95.6861 11.2126 97.2333 12.0739 98.5806 13.2243C98.2485 17.6884 100.501 21.9926 102.675 25.9139C102.873 26.3793 103.213 26.7683 103.64 27.0185C104.394 27.36 105.203 26.7238 105.581 25.988C106.093 24.7606 106.245 23.3897 106.018 22.0425C105.741 18.9605 104.883 15.9413 103.494 13.1589C102.086 10.369 99.9405 8.03769 97.3222 6.45375C93.9778 4.58559 90.1207 4.11455 86.5634 5.13986C83.0294 6.19518 79.949 8.39651 77.7581 11.4324C76.6797 12.7832 75.9506 14.4054 75.6359 16.154" fill="#263238"/>
</svg>
