<svg width="823" height="896" viewBox="0 0 823 896" fill="none" xmlns="http://www.w3.org/2000/svg">
<g filter="url(#filter0_d_6_67)">
<path d="M545.369 58.4442C894.943 120.544 707.722 412.513 650.968 564.523C594.213 716.533 518.606 800.571 349.073 787.35C179.54 774.129 94.2711 664.456 81.832 503.655C69.3929 342.854 268.515 13.2305 549.713 59.2677" stroke="#FFD956" stroke-width="100"/>
</g>
<path d="M533.039 608.702L564.866 567.978L568.131 614.67L559.685 645.326L663.342 656.248L662.633 574.942L666.14 512.287C666.348 508.552 665.315 504.858 663.203 501.783C661.091 498.708 658.019 496.424 654.466 495.289L625.546 486.026L586.206 495.996L570.588 503.158C564.04 506.165 558.321 510.731 553.93 516.455L509.232 574.8" fill="#BC3C50"/>
<path d="M566.69 558.434C564.756 558.537 562.819 558.528 560.887 558.407C556.227 558.012 551.798 556.231 548.167 553.293C544.535 550.356 541.868 546.395 540.506 541.918C539.991 540.045 539.579 538.144 539.272 536.225C539.175 536.754 539.16 537.295 539.228 537.828C539.306 539.275 539.546 540.708 539.942 542.1C541.201 546.767 543.895 550.912 547.644 553.949C551.393 556.985 556.006 558.759 560.829 559.019C562.271 559.108 563.719 559.043 565.148 558.825C565.679 558.779 566.2 558.647 566.69 558.434Z" fill="white"/>
<path d="M567.176 612.76C566.931 612.776 565.828 596.555 564.713 576.549C563.598 556.544 562.904 540.312 563.149 540.296C563.394 540.279 564.496 556.485 565.612 576.506C566.728 596.528 567.42 612.744 567.176 612.76Z" fill="#263238"/>
<path d="M571.459 624.453L631.88 595.311C634.268 594.159 636.291 592.363 637.72 590.126C639.148 587.889 639.926 585.299 639.965 582.649L640.791 522.843C640.791 522.843 638.669 497.562 654.39 495.274L663.545 498.214C675.539 503.605 679.462 520.345 678.7 533.508C677.613 552.217 678.313 578.555 676.818 594.826C675.57 608.15 668.809 620.243 656.09 624.506L580.779 646.178L571.459 624.453Z" fill="#BC3C50"/>
<path d="M640.522 531.951C640.447 532.403 640.411 532.861 640.416 533.319C640.381 534.297 640.319 535.614 640.263 537.267C640.162 540.779 640.023 545.718 639.857 551.78C639.692 557.842 639.545 565.231 639.346 573.312C639.313 575.347 639.267 577.415 639.223 579.531C639.233 581.68 639.1 583.828 638.825 585.96C638.525 588.118 637.568 590.133 636.083 591.73C634.479 593.339 632.623 594.675 630.59 595.684C613.969 604.227 598.606 611.404 587.443 616.459L574.175 622.376L570.566 623.979C570.143 624.15 569.733 624.354 569.341 624.589C569.786 624.476 570.221 624.324 570.64 624.134L574.305 622.671C577.422 621.374 582.097 619.443 587.667 616.973C598.918 612.056 614.304 604.973 630.99 596.458C633.102 595.4 635.029 594.006 636.696 592.33C638.289 590.607 639.314 588.436 639.633 586.114C639.911 583.95 640.037 581.77 640.01 579.59C640.053 577.458 640.084 575.391 640.116 573.356C640.24 565.344 640.356 557.973 640.372 551.826C640.388 545.678 640.484 540.821 640.521 537.313C640.533 535.712 640.527 534.336 640.514 533.36C640.558 532.891 640.56 532.42 640.522 531.951Z" fill="#263238"/>
<path d="M677.97 562.051C677.922 562.317 677.902 562.587 677.908 562.856L677.844 565.167C677.786 567.302 677.725 570.173 677.639 573.671C677.553 577.169 677.345 581.524 677.016 586.255C676.723 591.375 676.105 596.472 675.167 601.516C674.74 604.111 673.867 606.614 672.587 608.914C671.329 611.031 669.896 613.04 668.304 614.919C665.589 618.101 662.395 620.839 658.837 623.035C655.516 625.009 651.914 626.461 648.156 627.339C648.428 627.356 648.702 627.337 648.969 627.285C649.737 627.182 650.498 627.029 651.246 626.828C654.018 626.117 656.676 625.016 659.142 623.559C662.806 621.4 666.096 618.658 668.881 615.441C670.532 613.539 672.012 611.494 673.302 609.33C674.649 606.964 675.571 604.381 676.027 601.699C676.98 596.616 677.585 591.475 677.836 586.312C678.111 581.488 678.233 577.283 678.265 573.693C678.297 570.103 678.259 567.19 678.213 565.175C678.155 564.249 678.107 563.484 678.069 562.862C678.079 562.588 678.046 562.314 677.97 562.051Z" fill="#263238"/>
<path d="M654.099 605.435C653.864 604.284 653.411 603.191 652.764 602.213C651.329 599.759 649.42 597.619 647.146 595.917C644.873 594.216 642.281 592.987 639.524 592.302C638.401 591.957 637.221 591.835 636.05 591.943C637.118 592.308 638.204 592.62 639.304 592.877C641.923 593.696 644.384 594.954 646.582 596.596C648.775 598.243 650.676 600.246 652.208 602.522C653.436 604.28 653.975 605.491 654.099 605.435Z" fill="#263238"/>
<path d="M639.027 560.804C638.894 560.853 638.769 560.921 638.656 561.005L637.579 561.669C636.186 562.475 634.747 563.196 633.27 563.831C627.823 566.161 621.882 567.077 615.999 566.494C607.256 565.53 599.23 561.24 593.579 554.508C590.21 550.627 587.954 545.902 587.051 540.831C586.595 538.166 586.707 535.432 587.382 532.808C588.099 530.127 589.486 527.671 591.412 525.672C593.307 523.65 595.765 522.247 598.465 521.646C599.741 521.328 601.072 521.304 602.357 521.575C603.642 521.846 604.847 522.406 605.883 523.213C606.825 524.024 607.413 525.173 607.521 526.416C607.571 527.655 607.221 528.879 606.524 529.907C605.793 530.905 604.871 531.747 603.814 532.387C602.756 533.027 601.584 533.45 600.363 533.633C596.087 534.46 591.676 534.2 587.536 532.875C583.396 531.551 579.659 529.205 576.667 526.053C574.396 523.597 572.621 520.722 571.44 517.587C570.557 515.21 570.004 512.722 569.796 510.191C569.679 508.592 569.696 506.985 569.848 505.387C569.913 504.887 569.966 504.467 569.994 504.145C569.999 504.001 569.99 503.857 569.967 503.715C569.438 505.819 569.25 507.993 569.41 510.153C569.554 512.726 570.068 515.262 570.935 517.684C573.078 523.519 577.224 528.393 582.632 531.439C588.041 534.484 594.362 535.503 600.47 534.314C601.777 534.11 603.032 533.649 604.163 532.958C605.294 532.267 606.278 531.359 607.059 530.287C607.854 529.115 608.249 527.719 608.185 526.307C608.094 524.857 607.435 523.504 606.352 522.541C605.223 521.657 603.909 521.039 602.506 520.735C601.104 520.43 599.649 520.445 598.251 520.78C595.383 521.404 592.771 522.892 590.765 525.043C588.732 527.138 587.274 529.723 586.534 532.545C585.834 535.274 585.718 538.117 586.192 540.889C587.139 546.068 589.466 550.888 592.928 554.84C597.723 560.58 604.271 564.581 611.569 566.229C618.868 567.878 626.516 567.085 633.343 563.97C635.367 563.169 637.279 562.105 639.027 560.804Z" fill="white"/>
<path d="M678.495 542.343C678.197 541.886 677.827 541.481 677.398 541.142C676.316 540.138 675.137 539.241 673.88 538.465C669.649 535.955 664.826 534.603 659.894 534.544C657.183 534.422 654.468 534.716 651.842 535.417C649.71 536.009 647.666 536.884 645.766 538.02C644.49 538.771 643.273 539.618 642.127 540.556C641.68 540.87 641.284 541.251 640.953 541.685C641.056 541.805 642.812 540.287 646.053 538.526C650.277 536.223 655.054 535.132 659.851 535.375C664.656 535.432 669.368 536.664 673.576 538.962C676.771 540.802 678.391 542.461 678.495 542.343Z" fill="white"/>
<path d="M665.871 500.388C664.451 501.912 662.844 503.249 661.089 504.369C659.168 505.521 657.05 506.302 654.844 506.674C652.16 507.126 649.409 506.927 646.823 506.093C644.283 505.203 641.998 503.711 640.163 501.745C638.647 500.103 637.445 498.195 636.618 496.116C635.921 494.159 635.467 492.123 635.265 490.053C635.144 490.612 635.11 491.186 635.164 491.754C635.234 493.317 635.541 494.859 636.072 496.329C636.86 498.522 638.071 500.537 639.636 502.259C641.522 504.425 643.95 506.05 646.672 506.968C649.394 507.886 652.314 508.064 655.135 507.486C657.424 507.07 659.612 506.206 661.572 504.944C662.892 504.101 664.076 503.062 665.085 501.863C665.435 501.424 665.702 500.923 665.871 500.388Z" fill="white"/>
<path d="M618.298 601.856C618.27 601.461 618.203 601.069 618.097 600.688C617.806 599.598 617.37 598.552 616.801 597.579C614.548 594.009 611.086 591.373 607.044 590.149C601.088 588.227 594.641 588.428 588.796 590.718C585.581 591.908 581.904 593.369 579.591 596.735C579.011 597.594 578.673 598.594 578.613 599.627C578.554 600.661 578.776 601.69 579.255 602.605C580.33 604.381 581.973 605.74 583.919 606.462C585.803 607.245 587.836 607.61 589.878 607.532C591.908 607.495 593.863 606.741 595.398 605.405C596.102 604.72 596.66 603.898 597.037 602.991C597.415 602.084 597.603 601.11 597.592 600.129C597.582 598.296 597.18 596.487 596.414 594.824C593.655 589.185 588.802 584.856 582.886 582.759C578.958 581.311 574.726 580.87 570.575 581.475C569.063 581.693 567.586 582.109 566.181 582.712C566.188 582.824 567.745 582.192 570.627 581.791C574.071 581.372 577.561 581.66 580.884 582.638C584.206 583.615 587.292 585.262 589.951 587.477C592.422 589.555 594.409 592.147 595.775 595.075C596.492 596.64 596.865 598.342 596.869 600.066C596.877 600.939 596.706 601.806 596.367 602.612C596.027 603.418 595.526 604.146 594.894 604.752C593.51 605.967 591.742 606.651 589.905 606.684C587.99 606.762 586.084 606.421 584.318 605.685C582.541 605.029 581.037 603.797 580.044 602.185C579.635 601.396 579.446 600.511 579.497 599.622C579.548 598.733 579.838 597.873 580.335 597.133C581.357 595.657 582.708 594.44 584.28 593.577C585.804 592.72 587.399 591.998 589.048 591.42C594.735 589.151 601.018 588.893 606.854 590.689C610.804 591.829 614.225 594.318 616.523 597.726C617.295 599.017 617.892 600.406 618.298 601.856Z" fill="white"/>
<path d="M660.902 621.65C660.892 621.49 658.524 621.457 654.864 620.454C650.085 619.119 645.722 616.605 642.172 613.141C638.621 609.678 635.998 605.375 634.54 600.626C633.402 596.989 633.283 594.58 633.125 594.607C633.048 595.165 633.056 595.731 633.15 596.286C633.282 597.811 633.558 599.32 633.975 600.792C635.317 605.705 637.946 610.165 641.59 613.71C645.234 617.255 649.761 619.759 654.704 620.961C656.185 621.337 657.698 621.573 659.224 621.666C659.781 621.742 660.346 621.736 660.902 621.65Z" fill="white"/>
<path d="M678.002 574.057C677.759 573.941 677.501 573.856 677.236 573.805C676.717 573.68 675.972 573.506 674.986 573.317C672.188 572.776 669.32 572.677 666.488 573.024C664.523 573.305 662.618 573.914 660.851 574.824C658.793 575.879 657.042 577.45 655.77 579.384C654.377 581.574 653.799 584.182 654.137 586.749C654.325 588.115 654.827 589.416 655.604 590.551C656.394 591.749 657.579 592.631 658.954 593.043C659.677 593.237 660.44 593.237 661.165 593.042C661.89 592.848 662.552 592.466 663.085 591.935C663.974 590.818 664.405 589.406 664.292 587.986C664.215 585.445 663.557 582.957 662.368 580.716C660.711 577.518 658.032 574.972 654.756 573.48C651.481 571.988 647.796 571.637 644.288 572.483C643.533 572.653 642.794 572.889 642.08 573.19C641.599 573.414 641.352 573.543 641.369 573.574C641.387 573.604 642.414 573.168 644.355 572.798C647.099 572.278 649.926 572.451 652.579 573.301C656.512 574.584 659.77 577.377 661.64 581.068C662.749 583.211 663.361 585.579 663.43 587.996C663.539 589.211 663.181 590.424 662.428 591.388C661.996 591.807 661.463 592.106 660.882 592.257C660.3 592.408 659.691 592.406 659.112 592.249C657.907 591.892 656.865 591.126 656.166 590.081C655.466 589.051 655.01 587.874 654.833 586.639C654.517 584.259 655.038 581.84 656.306 579.796C657.488 577.957 659.129 576.459 661.065 575.449C662.756 574.542 664.585 573.922 666.477 573.616C669.245 573.222 672.053 573.232 674.815 573.648C676.891 573.908 677.975 574.123 678.002 574.057Z" fill="white"/>
<g opacity="0.3">
<path d="M588.787 616.152C595.196 611.955 601.514 608.627 608.263 605.014C615.012 601.401 621.578 596.873 625.753 590.449C633.62 578.338 631.637 561.776 639.705 549.81C639.595 557.488 639.49 565.171 639.391 572.859C639.29 579.897 640.78 586.761 636.554 591.83C632.985 596.103 625.738 599.687 620.579 601.784C610.214 605.998 599.137 611.955 588.787 616.152Z" fill="black"/>
</g>
<path d="M487.221 710.768C487.221 710.768 436.338 728.543 434.303 729.446C431.192 730.756 432.494 742.145 437.331 741.629C439.631 741.395 477.162 740.365 481.913 739.759C486.664 739.153 500.619 732.552 500.619 732.552L487.221 710.768Z" fill="#BC3C50"/>
<path d="M466.958 731.981C466.198 730.115 465.314 728.301 464.315 726.553C463.093 724.955 461.769 723.439 460.35 722.013C462.26 722.902 463.887 724.3 465.052 726.055C466.218 727.811 466.877 729.855 466.957 731.965L466.958 731.981Z" fill="#263238"/>
<path d="M472.2 729.172C471.945 729.189 471.269 726.815 469.712 724.196C468.156 721.577 466.411 719.788 466.576 719.601C468.165 720.68 469.494 722.1 470.466 723.757C471.439 725.415 472.032 727.27 472.201 729.188L472.2 729.172Z" fill="#263238"/>
<path d="M477.083 727.494C476.712 725.651 476.192 723.843 475.527 722.086C474.607 720.448 473.561 718.884 472.399 717.408C474.116 718.407 475.485 719.909 476.322 721.711C477.159 723.513 477.424 725.531 477.083 727.494Z" fill="#263238"/>
<path d="M475.791 720.834C475.255 719.631 474.982 718.327 474.99 717.009C474.917 715.578 475.005 714.142 475.252 712.729C475.401 711.894 475.612 711.071 475.883 710.267C476.003 709.761 476.263 709.3 476.634 708.935C476.884 708.723 477.2 708.604 477.528 708.6C477.855 708.595 478.173 708.705 478.428 708.911C478.855 709.271 479.133 709.778 479.206 710.333C479.274 710.787 479.303 711.246 479.292 711.705C479.34 712.561 479.286 713.42 479.131 714.264C478.873 715.679 478.419 717.052 477.783 718.344C477.286 719.582 476.563 720.717 475.652 721.692C475.524 721.701 476.321 720.349 477.226 718.157C477.756 716.889 478.131 715.562 478.342 714.205C478.461 713.412 478.497 712.609 478.449 711.81C478.399 711.012 478.337 710.022 477.834 709.671C477.735 709.593 477.609 709.554 477.483 709.562C477.356 709.571 477.236 709.626 477.148 709.717C476.904 709.989 476.727 710.314 476.63 710.666C476.371 711.436 476.158 712.221 475.991 713.016C475.708 714.365 475.563 715.738 475.558 717.115C475.602 719.356 475.933 720.808 475.791 720.834Z" fill="#263238"/>
<path d="M475.838 720.322C476.866 719.81 477.998 719.548 479.144 719.557C480.382 719.473 481.624 719.54 482.845 719.756C483.596 719.874 484.328 720.088 485.024 720.393C485.462 720.58 485.826 720.905 486.062 721.318C486.298 721.732 486.393 722.212 486.333 722.685C486.242 723.14 486.033 723.563 485.727 723.912C485.42 724.261 485.028 724.523 484.589 724.672C483.839 724.914 483.041 724.967 482.267 724.827C481.024 724.63 479.84 724.164 478.797 723.462C477.815 722.894 476.95 722.144 476.248 721.253C477.239 721.748 478.197 722.309 479.115 722.93C480.118 723.526 481.227 723.923 482.382 724.101C483.023 724.217 483.684 724.173 484.306 723.972C484.6 723.876 484.863 723.705 485.071 723.475C485.278 723.245 485.421 722.965 485.485 722.662C485.515 722.367 485.448 722.071 485.294 721.819C485.14 721.567 484.907 721.372 484.632 721.266C484.021 720.98 483.374 720.776 482.71 720.66C481.548 720.411 480.363 720.286 479.174 720.29C477.138 720.17 475.879 720.463 475.838 720.322Z" fill="#263238"/>
<path d="M459.051 733.061C458.729 731.488 458.285 729.943 457.721 728.44C456.903 727.064 455.969 725.76 454.93 724.542C456.495 725.266 457.76 726.509 458.511 728.061C459.262 729.613 459.453 731.379 459.051 733.061Z" fill="#263238"/>
<path d="M495.304 733.133C494.702 733.568 494.05 733.929 493.362 734.21C491.529 735.04 489.645 735.756 487.722 736.352C481.323 738.184 474.727 739.247 468.078 739.519C460.32 739.939 453.308 740.057 448.228 740.189L442.219 740.272C441.482 740.308 440.744 740.283 440.013 740.197C440.736 740.035 441.473 739.949 442.214 739.94L448.203 739.543L468.02 738.607C474.608 738.338 481.152 737.374 487.54 735.733C492.434 734.413 495.229 732.965 495.304 733.133Z" fill="#263238"/>
<path d="M496.905 734.194C496.912 734.305 495.382 733.578 492.916 732.69C489.777 731.455 486.349 731.132 483.026 731.757C479.777 732.691 476.915 734.652 474.868 737.345C474.017 738.491 473.088 739.577 472.086 740.594C472.689 739.285 473.466 738.063 474.397 736.962C475.343 735.708 476.428 734.564 477.631 733.554C479.138 732.28 480.926 731.383 482.847 730.94C486.334 730.279 489.934 730.712 493.156 732.18C494.507 732.644 495.773 733.324 496.905 734.194Z" fill="#263238"/>
<path d="M541.241 692.918C541.241 692.918 592.262 721.751 594.092 722.939C596.857 724.752 594.428 734.457 589.745 733.125C587.534 732.49 545.691 723.788 541.162 722.366C536.634 720.943 524.12 712.096 524.12 712.096L541.241 692.918Z" fill="#BC3C50"/>
<path d="M557.373 717.354C557.838 715.293 558.86 713.397 560.326 711.873C561.792 710.35 563.647 709.258 565.686 708.716C564.027 709.867 562.445 711.128 560.952 712.49C559.66 714.036 558.464 715.66 557.373 717.354Z" fill="#263238"/>
<path d="M552.731 713.645C553.242 711.785 554.157 710.059 555.412 708.591C556.666 707.124 558.229 705.951 559.987 705.158C560.128 705.372 558.064 706.887 556.078 709.132C554.092 711.378 552.962 713.758 552.731 713.645Z" fill="#263238"/>
<path d="M548.133 711.091C548.015 709.084 548.656 707.103 549.93 705.543C550.969 703.846 552.601 702.595 554.507 702.034C553.102 703.288 551.792 704.644 550.587 706.091C549.639 707.691 548.818 709.363 548.133 711.091Z" fill="#263238"/>
<path d="M550.571 704.788C550.444 704.796 551.027 703.363 551.443 701.027C551.695 699.672 551.808 698.295 551.779 696.918C551.783 696.107 551.733 695.296 551.627 694.492C551.611 694.128 551.494 693.775 551.291 693.473C551.215 693.369 551.102 693.299 550.975 693.278C550.847 693.256 550.717 693.285 550.61 693.358C550.065 693.619 549.838 694.596 549.614 695.38C549.427 696.155 549.315 696.946 549.281 697.742C549.243 699.118 549.372 700.492 549.665 701.835C550.146 704.143 550.698 705.532 550.573 705.589C549.844 704.491 549.332 703.264 549.064 701.972C548.67 700.594 548.473 699.167 548.478 697.732C548.489 696.873 548.591 696.017 548.784 695.179C548.888 694.73 549.021 694.287 549.182 693.855C549.362 693.318 549.734 692.865 550.225 692.583C550.513 692.425 550.846 692.374 551.167 692.437C551.487 692.501 551.775 692.675 551.979 692.93C552.271 693.357 552.441 693.855 552.47 694.372C552.788 696.633 552.671 698.936 552.124 701.158C551.869 702.463 551.339 703.7 550.571 704.788Z" fill="#263238"/>
<path d="M550.731 704.243C550.739 704.371 549.495 703.879 547.493 703.518C546.323 703.319 545.136 703.238 543.949 703.276C543.271 703.276 542.595 703.364 541.938 703.539C541.648 703.599 541.384 703.75 541.186 703.97C540.987 704.19 540.863 704.468 540.833 704.763C540.84 705.08 540.93 705.389 541.096 705.659C541.261 705.928 541.496 706.149 541.775 706.297C542.344 706.604 542.978 706.77 543.626 706.78C544.794 706.816 545.96 706.618 547.054 706.199C548.066 705.741 549.109 705.356 550.175 705.047C549.322 705.824 548.331 706.433 547.253 706.84C546.102 707.371 544.85 707.646 543.584 707.645C542.797 707.656 542.021 707.467 541.33 707.093C540.922 706.878 540.579 706.556 540.338 706.162C540.097 705.768 539.967 705.316 539.961 704.853C539.987 704.376 540.169 703.92 540.477 703.553C540.785 703.187 541.204 702.93 541.67 702.822C542.407 702.64 543.164 702.557 543.922 702.576C545.163 702.576 546.4 702.723 547.605 703.015C548.729 703.178 549.799 703.598 550.731 704.243Z" fill="#263238"/>
<path d="M583.394 731.888C583.399 731.968 582.535 731.449 582.065 730.071C581.568 728.263 581.78 726.33 582.655 724.665C583.074 723.778 583.556 722.921 584.096 722.102C584.534 721.405 585.059 720.767 585.658 720.203C586.088 719.798 586.629 719.533 587.211 719.442C587.626 719.414 587.838 719.48 587.841 719.528C587.844 719.576 586.969 719.666 586.118 720.653C585.616 721.231 585.178 721.862 584.811 722.534C584.288 723.343 583.805 724.177 583.367 725.034C582.575 726.524 582.299 728.233 582.582 729.892C582.812 730.574 583.083 731.24 583.394 731.888Z" fill="#263238"/>
<path d="M564.965 719.827C564.845 718.968 564.912 718.093 565.161 717.262C565.41 716.43 565.835 715.661 566.407 715.008C566.853 714.262 567.456 713.623 568.175 713.135C568.893 712.647 569.709 712.322 570.565 712.184C569.321 713.196 568.165 714.312 567.111 715.521C566.276 716.894 565.558 718.334 564.965 719.827Z" fill="#263238"/>
<path d="M529.303 713.514C530.091 713.886 530.845 714.327 531.556 714.83C533.582 716.047 535.676 717.148 537.828 718.127C541.011 719.554 544.287 720.768 547.633 721.762C551.438 722.895 555.748 723.914 560.151 724.896C569.132 726.847 577.257 728.632 583.119 729.978L590.104 731.664C590.964 731.831 591.807 732.074 592.624 732.388C591.75 732.329 590.883 732.2 590.03 732.004L583.027 730.543C577.126 729.342 568.991 727.654 560.01 725.703C555.527 724.711 551.263 723.657 547.454 722.476C544.065 721.44 540.757 720.158 537.557 718.64C535.406 717.603 533.336 716.409 531.364 715.067C530.635 714.607 529.945 714.088 529.303 713.514Z" fill="#263238"/>
<path d="M527.533 714.207C528.815 713.537 530.191 713.068 531.614 712.814C535.057 711.935 538.683 712.138 541.998 713.396C543.797 714.192 545.375 715.414 546.596 716.956C547.598 718.171 548.458 719.497 549.158 720.908C549.876 722.154 550.417 723.495 550.764 724.892C549.967 723.711 549.25 722.478 548.617 721.2C547.097 718.181 544.636 715.743 541.604 714.254C538.44 713.075 535.003 712.812 531.688 713.496C529.157 713.874 527.572 714.332 527.533 714.207Z" fill="#263238"/>
<path d="M434.443 621.118C434.443 621.118 420.061 627.356 421.044 643.863C422.889 675.461 488.993 706.011 488.993 706.011L570.552 643.904L575.744 641.382C575.744 641.382 458.152 605.928 434.443 621.118Z" fill="#263238"/>
<path d="M529.235 675.292C528.424 674.91 527.648 674.459 526.914 673.944C525.466 673.017 523.384 671.653 520.831 669.921C515.711 666.489 508.758 661.58 501.231 655.926C493.704 650.272 487.076 644.942 482.355 640.987C479.996 639.018 478.104 637.385 476.802 636.24C476.104 635.687 475.456 635.072 474.866 634.403C475.631 634.867 476.353 635.396 477.026 635.985L482.741 640.513C487.565 644.333 494.253 649.595 501.763 655.234C509.273 660.874 516.167 665.85 521.167 669.418L527.104 673.659C527.857 674.145 528.569 674.691 529.235 675.292Z" fill="#455A64"/>
<path d="M459.176 631.155C464.699 630.196 470.369 631.461 474.941 634.675C474.813 634.923 471.653 633.142 467.221 632.195C462.789 631.248 459.193 631.425 459.176 631.155Z" fill="#455A64"/>
<path d="M466.177 625.669C468.2 626.374 470.016 627.569 471.464 629.147C472.912 630.726 473.948 632.639 474.48 634.718C474.225 634.735 473.141 632.23 470.828 629.744C468.514 627.257 466.047 625.902 466.177 625.669Z" fill="#455A64"/>
<path d="M436.664 728.427C436.658 728.331 437.667 728.055 438.909 728.95C440.382 730.153 441.365 731.853 441.677 733.732C442.073 735.573 441.926 737.493 441.253 739.257C440.727 740.59 440.094 741.241 440.011 741.183C440.177 740.459 440.395 739.749 440.663 739.056C441.119 737.378 441.174 735.617 440.823 733.917C440.526 732.22 439.724 730.655 438.522 729.424C437.553 728.544 436.657 728.572 436.664 728.427Z" fill="#263238"/>
<path d="M450.647 568.073L485.733 642.857L616.289 636.245L618.264 629.022L572.45 630.432L546.221 563.758L450.647 568.073Z" fill="#455A64"/>
<path d="M513.661 597.228C512.627 596.791 511.488 596.664 510.38 596.86C509.273 597.056 508.244 597.569 507.417 598.335C506.722 599.081 506.266 600.019 506.109 601.025C505.952 602.032 506.102 603.062 506.539 603.979C507.007 604.893 507.721 605.657 508.601 606.183C509.481 606.709 510.492 606.978 511.519 606.958C512.601 606.955 513.655 606.598 514.519 605.942C515.384 605.287 516.013 604.367 516.31 603.324C516.58 602.161 516.475 600.944 516.01 599.848C515.546 598.752 514.745 597.833 513.724 597.224" fill="#EBEBEB"/>
<path d="M481.132 710.629C481.132 710.629 596.407 623.649 601.203 621.681C606 619.713 617.441 611.114 629.525 613.596C641.61 616.078 652.965 626.042 659.266 641.283C662.876 649.992 665.256 665.097 666.653 676.463C668.416 690.049 664.837 703.814 656.672 714.855C653.07 719.993 648.112 724.028 642.355 726.508C641.124 726.99 639.84 727.412 638.522 727.788C616.104 734.247 592.071 725.597 578.134 707L575.068 702.922C575.068 702.922 498.228 737.102 496.978 736.786L481.132 710.629Z" fill="#263238"/>
<path d="M628.525 678.895C628.319 679.016 628.108 679.126 627.891 679.225L625.967 680.138L618.531 683.595L590.866 696.181C579.12 701.479 565.042 707.796 549.232 714.774C533.421 721.751 515.912 729.403 497.163 737.169L496.837 737.319L496.642 736.996L486.119 719.664L480.775 710.827L480.578 710.488L480.9 710.259L568.97 645.822L595.436 626.584L602.621 621.4L604.503 620.075C604.931 619.774 605.163 619.647 605.163 619.647L604.556 620.151L602.725 621.537L595.626 626.811L569.24 646.316L481.327 710.966L481.45 710.382C483.144 713.195 485.008 716.188 486.794 719.219L497.301 736.552L496.763 736.38C515.448 728.634 533.023 720.995 548.852 714.064L590.562 695.658L618.399 683.268L625.891 679.951L627.852 679.116L628.525 678.895Z" fill="#455A64"/>
<path d="M597.957 398.736C595.558 393.314 590.874 391.214 585.044 390.213C582.113 389.734 579.107 389.971 576.281 390.904C573.454 391.837 570.892 393.439 568.811 395.573C566.066 398.428 564.165 402.282 560.669 404.116C554.903 407.206 547.068 403.781 541.706 407.452C540.095 408.551 538.911 410.173 538.355 412.042C537.8 413.912 537.907 415.913 538.66 417.706C539.412 419.499 540.762 420.973 542.481 421.878C544.199 422.782 546.18 423.061 548.087 422.667C544.334 424.742 543.982 430.619 546.848 433.786C549.714 436.953 554.686 437.531 558.734 436.092C562.709 434.418 566.157 431.693 568.707 428.209C571.404 424.829 573.735 421.234 576.702 418.076C579.533 414.797 583.426 412.621 587.693 411.932C593.454 411.322 599.06 414.864 602.374 419.584C605.688 424.304 607.214 430.072 608.415 435.749C609.616 441.427 610.616 447.214 613.161 452.417C613.456 453.037 613.88 453.696 614.542 453.796C615.525 453.938 616.158 452.824 616.484 451.89C620.199 441.369 621.816 430.228 621.243 419.102C620.925 412.725 619.813 406.674 615.504 401.893C611.196 397.112 601.788 394.592 598 398.653" fill="#263238"/>
<path d="M613.207 423.58L626.089 487.393C626.607 489.97 626.595 492.628 626.054 495.205C625.512 497.782 624.453 500.224 622.941 502.383C621.429 504.542 619.495 506.372 617.257 507.762C615.019 509.152 612.525 510.073 609.924 510.468C605.003 511.231 599.985 510.071 595.911 507.228C591.836 504.386 589.017 500.079 588.036 495.199C587.084 490.457 586.27 486.395 586.128 485.908C586.128 485.908 569.581 487.739 565.167 471.906C563.089 464.245 559.921 448.12 557.264 433.498C555.912 425.93 557.453 418.117 561.583 411.609C565.713 405.101 572.129 400.374 579.559 398.367L581.134 397.957C597.956 394.394 610.249 406.704 613.207 423.58Z" fill="#FFBE9D"/>
<path d="M586.196 485.72C593.556 483.853 600.205 479.839 605.298 474.188C605.298 474.188 603.441 486.914 587.248 489.792L586.196 485.72Z" fill="#EB996E"/>
<path d="M564.87 442.821C565.02 443.413 565.396 443.922 565.918 444.237C566.44 444.552 567.066 444.649 567.66 444.506C567.954 444.453 568.234 444.341 568.485 444.177C568.735 444.013 568.95 443.801 569.116 443.552C569.283 443.303 569.398 443.023 569.454 442.73C569.51 442.436 569.507 442.134 569.443 441.842C569.297 441.247 568.922 440.734 568.399 440.416C567.877 440.097 567.249 439.998 566.653 440.141C566.358 440.196 566.077 440.31 565.827 440.475C565.577 440.641 565.362 440.855 565.196 441.105C565.03 441.355 564.915 441.636 564.859 441.931C564.803 442.225 564.807 442.528 564.87 442.821Z" fill="#263238"/>
<path d="M562.887 440.284C563.253 440.515 564.629 438.779 567.062 438.121C569.495 437.464 571.617 438.215 571.83 437.802C572.044 437.388 571.489 437.186 570.557 436.834C569.315 436.378 567.96 436.329 566.685 436.694C565.417 437.026 564.287 437.756 563.463 438.777C562.828 439.586 562.722 440.199 562.887 440.284Z" fill="#263238"/>
<path d="M588.944 437.213C589.09 437.808 589.465 438.321 589.988 438.639C590.51 438.958 591.138 439.057 591.735 438.914C592.029 438.857 592.309 438.742 592.559 438.576C592.808 438.41 593.023 438.196 593.19 437.947C593.358 437.697 593.474 437.418 593.533 437.123C593.592 436.829 593.592 436.527 593.533 436.233C593.376 435.644 592.999 435.139 592.479 434.823C591.96 434.506 591.338 434.402 590.742 434.532C590.447 434.587 590.166 434.701 589.915 434.866C589.664 435.032 589.448 435.246 589.281 435.496C589.113 435.745 588.997 436.026 588.939 436.321C588.881 436.616 588.883 436.919 588.944 437.213Z" fill="#263238"/>
<path d="M586.921 434.31C587.286 434.525 588.662 432.789 591.095 432.131C593.528 431.474 595.65 432.225 595.863 431.812C596.077 431.399 595.522 431.196 594.59 430.844C593.347 430.397 591.994 430.348 590.718 430.704C589.452 431.05 588.321 431.778 587.48 432.788C586.866 433.691 586.755 434.209 586.921 434.31Z" fill="#263238"/>
<path d="M582.937 454.778C581.54 454.716 580.14 454.837 578.773 455.137C578.118 455.181 577.495 455.222 577.28 454.868C577.037 454.248 576.995 453.568 577.158 452.921C577.346 451.306 577.538 449.498 577.743 447.657C578.512 440.201 578.888 434.15 578.597 434.121C578.307 434.093 577.368 440.118 576.663 447.569C576.489 449.408 576.31 451.151 576.158 452.828C575.961 453.689 576.08 454.591 576.493 455.369C576.641 455.562 576.832 455.718 577.05 455.826C577.268 455.933 577.508 455.99 577.751 455.99C578.12 456.018 578.491 455.993 578.853 455.917C580.256 455.708 581.628 455.326 582.937 454.778Z" fill="#263238"/>
<path d="M590.561 454.588C590.147 454.616 590.86 457.321 589.097 459.809C587.333 462.296 584.486 462.776 584.51 463.158C584.534 463.541 585.266 463.492 586.463 463.203C588.021 462.806 589.394 461.876 590.343 460.574C591.241 459.313 591.619 457.757 591.399 456.229C591.2 455.089 590.732 454.512 590.561 454.588Z" fill="#263238"/>
<path d="M583.747 424.878C584.152 425.488 586.501 424.519 589.458 424.082C592.415 423.645 594.915 423.813 595.143 423.112C595.234 422.788 594.66 422.284 593.567 421.895C592.119 421.433 590.581 421.318 589.077 421.559C587.563 421.776 586.121 422.353 584.873 423.242C583.944 423.941 583.586 424.602 583.747 424.878Z" fill="#263238"/>
<path d="M561.905 432.969C562.475 433.41 563.992 432.382 566.015 431.8C568.038 431.218 569.84 431.177 570.068 430.491C570.176 430.165 569.762 429.682 568.864 429.359C567.697 428.987 566.442 428.987 565.272 429.36C564.089 429.693 563.042 430.395 562.284 431.364C561.74 432.118 561.636 432.748 561.905 432.969Z" fill="#263238"/>
<path d="M614.913 435.753C615.157 435.56 624.971 429.57 627.51 440.528C630.049 451.487 618.523 451.828 618.439 451.513C618.356 451.199 614.913 435.753 614.913 435.753Z" fill="#FFBE9D"/>
<path d="M620.812 446.569C620.812 446.569 621.026 446.667 621.383 446.739C621.883 446.824 622.397 446.715 622.821 446.435C623.431 445.822 623.865 445.056 624.078 444.218C624.29 443.381 624.273 442.502 624.029 441.676C623.841 440.726 623.44 439.833 622.857 439.063C622.685 438.742 622.439 438.468 622.14 438.262C621.84 438.056 621.495 437.926 621.134 437.881C620.899 437.877 620.67 437.955 620.486 438.102C620.303 438.249 620.176 438.455 620.127 438.685C620.052 439.011 620.161 439.228 620.162 439.243C620.163 439.259 619.882 439.118 619.869 438.654C619.868 438.369 619.964 438.092 620.14 437.867C620.261 437.715 620.411 437.59 620.581 437.499C620.752 437.407 620.939 437.352 621.132 437.336C621.601 437.318 622.066 437.421 622.482 437.634C622.899 437.847 623.254 438.164 623.513 438.554C624.202 439.395 624.676 440.391 624.896 441.457C625.339 443.686 624.684 446.021 623.198 446.842C622.924 446.998 622.617 447.09 622.303 447.111C621.988 447.132 621.673 447.082 621.381 446.964C620.893 446.836 620.782 446.603 620.812 446.569Z" fill="#EB996E"/>
<path d="M553.123 431.102C556.873 431.053 560.563 430.114 563.889 428.362C567.214 426.61 570.081 424.095 572.253 421.023C575.179 416.701 576.959 411.193 581.402 408.4C582.936 407.514 584.63 406.941 586.384 406.713C588.138 406.486 589.919 406.609 591.622 407.075C595.015 408.04 598.173 409.689 600.902 411.921C599.987 420.81 604.429 429.275 608.728 436.982C609.114 437.899 609.797 438.659 610.668 439.139C612.21 439.787 613.918 438.489 614.736 437.011C615.858 434.55 616.243 431.818 615.843 429.149C615.427 423.033 613.806 417.066 611.073 411.591C608.302 406.102 603.981 401.554 598.644 398.512C591.818 394.935 583.861 394.156 576.448 396.339C569.081 398.582 562.595 403.084 557.906 409.209C555.606 411.939 554.014 415.193 553.274 418.683" fill="#263238"/>
<defs>
<filter id="filter0_d_6_67" x="0.529243" y="0.473724" width="832.215" height="895.337" filterUnits="userSpaceOnUse" color-interpolation-filters="sRGB">
<feFlood flood-opacity="0" result="BackgroundImageFix"/>
<feColorMatrix in="SourceAlpha" type="matrix" values="0 0 0 0 0 0 0 0 0 0 0 0 0 0 0 0 0 0 127 0" result="hardAlpha"/>
<feOffset dy="26.358"/>
<feGaussianBlur stdDeviation="15.3755"/>
<feComposite in2="hardAlpha" operator="out"/>
<feColorMatrix type="matrix" values="0 0 0 0 0 0 0 0 0 0 0 0 0 0 0 0 0 0 0.2 0"/>
<feBlend mode="normal" in2="BackgroundImageFix" result="effect1_dropShadow_6_67"/>
<feBlend mode="normal" in="SourceGraphic" in2="effect1_dropShadow_6_67" result="shape"/>
</filter>
</defs>
</svg>
