<svg width="211" height="283" viewBox="0 0 211 283" fill="none" xmlns="http://www.w3.org/2000/svg">
<rect y="185.737" width="181.897" height="107.922" rx="12.6669" transform="rotate(-26.3506 0 185.737)" fill="#9AD47F"/>
<path d="M103.086 189.522C104.416 188.863 105.082 188.016 104.753 187.351C104.321 186.479 102.844 184.123 101.87 182.157C100.67 179.734 100.585 174.688 100.718 168.621L98.3825 168.536C98.1862 172.979 98.159 174.734 98.2407 176.884L94.8928 170.299L92.6016 171.279L95.9765 178.023C94.3301 176.648 92.731 175.509 89.5735 173.417L89.0938 176C92.7887 178.55 96.7646 181.668 97.9649 184.091C98.939 186.058 99.9175 188.66 100.35 189.532C100.679 190.197 101.757 190.18 103.086 189.522Z" fill="#2D8B01"/>
<path d="M78.0198 183.968C79.6729 187.306 83.0617 188.507 86.302 186.902C87.3268 186.394 88.2904 185.589 89.1794 184.425C90.422 184.775 93.0688 184.826 95.5678 183.709C93.9925 181.747 90.9741 179.449 89.2302 178.226C91.2668 176.976 91.9021 175.229 91.6742 173.376C92.7101 173.553 93.7266 173.412 94.8344 172.863C95.9422 172.314 96.6705 171.591 97.1578 170.66C98.4936 171.964 100.268 172.517 102.496 171.655C102.412 173.783 102.412 177.577 103.018 180.019C105.421 178.708 106.984 176.571 107.458 175.371C108.923 175.369 110.148 175.09 111.172 174.583C114.413 172.978 115.511 169.554 113.858 166.217C113.021 164.527 111.444 163.084 109.062 162.28C109.671 160.341 109.408 158.522 108.647 156.985C107.007 153.675 102.944 151.877 99.5734 153.081C97.8504 149.951 93.1598 149.428 89.7532 151.116C88.0085 151.98 86.6558 153.323 86.0684 155.166C84.2462 154.516 82.3586 154.779 80.6138 155.643C77.2073 157.33 74.7802 161.378 76.2262 164.645C73.2264 166.597 72.1805 170.926 73.8198 174.236C74.5812 175.773 75.8825 177.077 77.7942 177.768C76.9905 180.149 77.183 182.279 78.0198 183.968Z" fill="#2D8B01"/>
<path d="M53.2404 230.583L44.3154 224.985L47.6207 223.347L54.6369 227.969L52.5121 229.021L53.0873 220.64L56.32 219.038L55.3289 229.549L53.2404 230.583ZM55.2612 235.53L52.2476 229.446L55.0989 228.034L58.1125 234.118L55.2612 235.53ZM65.6384 230.639C64.7304 231.089 63.8081 231.297 62.8716 231.263C61.9413 231.211 61.0903 230.939 60.3187 230.447C59.5471 229.955 58.9454 229.273 58.5136 228.401C58.0818 227.529 57.9069 226.643 57.9888 225.743C58.0707 224.843 58.3759 224.013 58.9045 223.254C59.427 222.483 60.1484 221.869 61.0686 221.413C61.9887 220.957 62.911 220.749 63.8353 220.789C64.7597 220.829 65.6077 221.095 66.3793 221.587C67.1449 222.067 67.7436 222.743 68.1754 223.615C68.6072 224.487 68.7851 225.379 68.7092 226.291C68.6333 227.203 68.334 228.045 67.8115 228.816C67.2829 229.576 66.5586 230.183 65.6384 230.639ZM64.388 228.115C64.7876 227.917 65.0967 227.658 65.3154 227.339C65.5281 227.007 65.6352 226.645 65.6367 226.252C65.6443 225.841 65.5461 225.43 65.3422 225.018C65.1383 224.607 64.8767 224.292 64.5572 224.073C64.2318 223.842 63.8757 223.717 63.4891 223.697C63.1086 223.66 62.7185 223.74 62.319 223.938C61.9315 224.129 61.6314 224.391 61.4187 224.723C61.2 225.042 61.0838 225.401 61.0703 225.8C61.0567 226.199 61.1518 226.604 61.3558 227.016C61.5537 227.415 61.8183 227.736 62.1498 227.979C62.4752 228.21 62.8342 228.341 63.2269 228.373C63.6135 228.393 64.0006 228.307 64.388 228.115ZM75.7755 225.618C74.9643 226.02 74.1629 226.213 73.3714 226.198C72.586 226.165 71.8738 225.945 71.2348 225.537C70.5899 225.118 70.0785 224.527 69.7006 223.764L67.1638 218.643L69.9425 217.266L72.4613 222.352C72.6112 222.654 72.7886 222.891 72.9934 223.061C73.2103 223.224 73.4517 223.316 73.7175 223.335C73.9833 223.354 74.2615 223.292 74.5521 223.148C74.9637 222.944 75.2277 222.655 75.3439 222.281C75.4541 221.894 75.3952 221.471 75.1673 221.011L72.6485 215.926L75.4272 214.55L77.955 219.653C78.3388 220.428 78.5021 221.199 78.4449 221.966C78.3816 222.721 78.1252 223.421 77.6756 224.066C77.2201 224.699 76.5867 225.216 75.7755 225.618ZM88.7789 219.154C87.9677 219.556 87.1423 219.716 86.3027 219.634C85.4752 219.547 84.7028 219.251 83.9857 218.747C83.2806 218.236 82.7092 217.539 82.2714 216.655C81.8336 215.772 81.6254 214.895 81.6468 214.025C81.6802 213.149 81.9128 212.355 82.3445 211.643C82.7883 210.926 83.4158 210.366 84.227 209.965C84.8203 209.671 85.41 209.522 85.9961 209.518C86.5944 209.508 87.1468 209.634 87.6534 209.896C88.154 210.146 88.5514 210.522 88.8456 211.024L90.7347 214.838C90.9562 215.377 91.0176 215.927 90.9188 216.488C90.8262 217.032 90.5947 217.539 90.2243 218.009C89.854 218.479 89.3721 218.86 88.7789 219.154ZM88.1005 216.369C88.6937 216.075 89.076 215.645 89.2473 215.077C89.4126 214.498 89.3454 213.905 89.0455 213.3C88.8416 212.888 88.5769 212.567 88.2515 212.336C87.9382 212.099 87.5882 211.971 87.2015 211.952C86.821 211.914 86.437 211.991 86.0496 212.183C85.6621 212.375 85.3621 212.637 85.1493 212.968C84.9427 213.282 84.8266 213.641 84.8009 214.046C84.7873 214.444 84.8825 214.849 85.0864 215.261C85.2843 215.661 85.5459 215.976 85.8714 216.207C86.1968 216.438 86.5558 216.569 86.9485 216.6C87.3411 216.632 87.7251 216.555 88.1005 216.369ZM91.1225 217.767L89.9441 215.388L89.3003 213.038L87.8211 211.102L86.7506 208.941L89.4747 207.591L93.8467 216.418L91.1225 217.767ZM95.8031 215.449L91.4312 206.622L94.2099 205.246L98.5818 214.072L95.8031 215.449ZM96.1799 209.223L94.5678 208.891C94.2881 207.748 94.2797 206.757 94.5427 205.918C94.8057 205.079 95.4215 204.42 96.39 203.94C96.8138 203.73 97.2161 203.614 97.5968 203.591C97.9837 203.55 98.3642 203.603 98.7383 203.749L98.1201 206.657C97.9331 206.583 97.7308 206.555 97.5132 206.573C97.2956 206.59 97.0718 206.656 96.8417 206.77C96.3816 206.997 96.0843 207.326 95.9498 207.754C95.8213 208.165 95.8981 208.654 96.1799 209.223ZM107.763 209.774C106.806 210.247 105.857 210.476 104.914 210.461C103.978 210.427 103.124 210.164 102.352 209.672C101.581 209.179 100.976 208.491 100.538 207.607C100.1 206.724 99.9164 205.835 99.9862 204.941C100.062 204.028 100.358 203.196 100.875 202.442C101.391 201.689 102.097 201.09 102.993 200.647C103.865 200.215 104.727 200.022 105.579 200.067C106.43 200.113 107.209 200.375 107.914 200.855C108.631 201.329 109.203 201.996 109.629 202.856C109.707 203.013 109.779 203.189 109.844 203.382C109.916 203.558 109.985 203.773 110.05 204.027L102.45 207.814L101.505 205.907L107.925 202.704L107.123 204.097C106.859 203.595 106.573 203.216 106.266 202.961C105.953 202.694 105.609 202.548 105.234 202.522C104.866 202.478 104.476 202.559 104.064 202.762C103.628 202.978 103.298 203.27 103.073 203.638C102.854 203.988 102.744 204.389 102.742 204.842C102.752 205.289 102.886 205.773 103.144 206.294C103.402 206.814 103.715 207.217 104.082 207.503C104.456 207.77 104.863 207.923 105.304 207.961C105.751 207.98 106.211 207.873 106.683 207.639C107.119 207.424 107.477 207.156 107.756 206.837C108.029 206.505 108.224 206.123 108.34 205.688L110.621 206.458C110.437 207.182 110.1 207.824 109.608 208.385C109.117 208.945 108.501 209.408 107.763 209.774ZM120.49 203.447C119.679 203.849 118.853 204.009 118.014 203.927C117.186 203.839 116.414 203.543 115.697 203.039C114.992 202.529 114.42 201.832 113.983 200.948C113.545 200.064 113.337 199.187 113.358 198.317C113.391 197.441 113.624 196.647 114.056 195.936C114.499 195.219 115.127 194.659 115.938 194.257C116.531 193.963 117.121 193.814 117.707 193.811C118.306 193.801 118.858 193.927 119.365 194.188C119.865 194.438 120.263 194.814 120.557 195.317L122.446 199.131C122.667 199.669 122.729 200.219 122.63 200.781C122.537 201.324 122.306 201.831 121.935 202.301C121.565 202.771 121.083 203.153 120.49 203.447ZM119.812 200.662C120.405 200.368 120.787 199.937 120.959 199.37C121.124 198.79 121.057 198.198 120.757 197.593C120.553 197.181 120.288 196.86 119.963 196.629C119.649 196.392 119.299 196.264 118.913 196.244C118.532 196.207 118.148 196.284 117.761 196.476C117.373 196.667 117.073 196.929 116.861 197.261C116.654 197.574 116.538 197.933 116.512 198.338C116.498 198.737 116.594 199.142 116.798 199.554C116.995 199.953 117.257 200.268 117.583 200.499C117.908 200.73 118.267 200.861 118.66 200.893C119.052 200.925 119.436 200.848 119.812 200.662ZM122.834 202.06L121.655 199.681L121.011 197.331L119.532 195.395L118.462 193.233L121.186 191.884L125.558 200.71L122.834 202.06ZM136.803 195.141L134.311 190.11C134.083 189.65 133.755 189.352 133.326 189.218C132.904 189.065 132.475 189.097 132.039 189.313C131.736 189.463 131.503 189.661 131.339 189.908C131.168 190.143 131.077 190.415 131.064 190.723C131.044 191.019 131.11 191.318 131.26 191.621L129.927 191.625C129.585 190.935 129.431 190.258 129.463 189.593C129.496 188.929 129.704 188.328 130.087 187.792C130.463 187.243 130.991 186.801 131.669 186.465C132.359 186.124 133.036 185.969 133.701 186.002C134.359 186.022 134.954 186.218 135.484 186.588C136.02 186.941 136.454 187.45 136.783 188.116L139.581 193.764L136.803 195.141ZM130.973 198.028L124.442 184.843L127.22 183.467L133.751 196.652L130.973 198.028ZM145.823 190.921C144.867 191.395 143.917 191.624 142.975 191.608C142.038 191.575 141.184 191.311 140.413 190.819C139.641 190.327 139.036 189.639 138.599 188.755C138.161 187.871 137.977 186.982 138.047 186.088C138.123 185.176 138.419 184.343 138.935 183.59C139.452 182.836 140.158 182.238 141.054 181.794C141.926 181.362 142.787 181.169 143.639 181.215C144.491 181.26 145.269 181.523 145.975 182.003C146.692 182.477 147.263 183.144 147.689 184.003C147.767 184.161 147.839 184.336 147.905 184.53C147.977 184.705 148.045 184.92 148.111 185.174L140.51 188.961L139.566 187.055L145.986 183.852L145.183 185.245C144.919 184.742 144.633 184.363 144.326 184.108C144.013 183.841 143.669 183.695 143.295 183.67C142.926 183.626 142.536 183.706 142.124 183.91C141.689 184.126 141.358 184.418 141.133 184.785C140.914 185.135 140.804 185.536 140.802 185.99C140.813 186.437 140.947 186.921 141.205 187.441C141.463 187.962 141.775 188.365 142.143 188.65C142.517 188.918 142.924 189.07 143.365 189.108C143.812 189.128 144.272 189.021 144.744 188.787C145.18 188.571 145.537 188.303 145.816 187.984C146.089 187.653 146.284 187.27 146.401 186.835L148.682 187.605C148.498 188.33 148.16 188.972 147.669 189.532C147.177 190.092 146.562 190.555 145.823 190.921ZM151.315 187.952L146.944 179.125L149.722 177.749L154.094 186.575L151.315 187.952ZM151.692 181.726L150.08 181.394C149.8 180.251 149.792 179.26 150.055 178.421C150.318 177.582 150.934 176.923 151.902 176.443C152.326 176.233 152.728 176.117 153.109 176.094C153.496 176.053 153.877 176.106 154.251 176.252L153.632 179.16C153.445 179.086 153.243 179.058 153.025 179.076C152.808 179.093 152.584 179.159 152.354 179.273C151.894 179.501 151.597 179.829 151.462 180.257C151.334 180.668 151.41 181.157 151.692 181.726ZM163.166 182.331C162.258 182.78 161.336 182.988 160.399 182.955C159.469 182.903 158.618 182.631 157.847 182.138C157.075 181.646 156.473 180.964 156.041 180.092C155.61 179.221 155.435 178.335 155.517 177.435C155.599 176.535 155.904 175.705 156.432 174.946C156.955 174.174 157.676 173.56 158.596 173.105C159.517 172.649 160.439 172.441 161.363 172.481C162.288 172.52 163.136 172.786 163.907 173.279C164.673 173.759 165.271 174.435 165.703 175.307C166.135 176.178 166.313 177.07 166.237 177.982C166.161 178.895 165.862 179.736 165.339 180.508C164.811 181.267 164.086 181.875 163.166 182.331ZM161.916 179.806C162.315 179.608 162.625 179.35 162.843 179.03C163.056 178.699 163.163 178.336 163.165 177.944C163.172 177.533 163.074 177.122 162.87 176.71C162.666 176.298 162.405 175.983 162.085 175.764C161.76 175.533 161.404 175.408 161.017 175.389C160.636 175.351 160.246 175.431 159.847 175.629C159.459 175.821 159.159 176.083 158.947 176.414C158.728 176.734 158.612 177.093 158.598 177.492C158.585 177.89 158.68 178.295 158.884 178.707C159.082 179.107 159.346 179.428 159.678 179.671C160.003 179.902 160.362 180.033 160.755 180.065C161.141 180.084 161.528 179.998 161.916 179.806ZM167.506 174.097L162.841 165.823L165.838 164.338L169.594 173.063L167.506 174.097ZM170.961 178.47C170.488 178.704 170.014 178.735 169.537 178.564C169.06 178.393 168.708 178.078 168.48 177.618C168.24 177.133 168.2 176.656 168.359 176.185C168.512 175.702 168.824 175.344 169.296 175.11C169.781 174.87 170.255 174.839 170.72 175.016C171.19 175.174 171.546 175.496 171.786 175.98C172.014 176.44 172.051 176.912 171.898 177.395C171.757 177.872 171.445 178.23 170.961 178.47ZM53.7848 259.328L44.8598 253.73L48.1651 252.092L55.1813 256.714L53.0564 257.767L53.6316 249.385L56.8643 247.783L55.8733 258.294L53.7848 259.328ZM55.8056 264.276L52.792 258.192L55.6433 256.779L58.6569 262.863L55.8056 264.276ZM66.1828 259.384C65.2747 259.834 64.3525 260.042 63.416 260.008C62.4857 259.956 61.6347 259.684 60.8631 259.192C60.0915 258.7 59.4898 258.018 59.058 257.146C58.6262 256.274 58.4513 255.388 58.5332 254.488C58.6151 253.588 58.9203 252.759 59.4489 251.999C59.9714 251.228 60.6928 250.614 61.6129 250.158C62.5331 249.702 63.4554 249.494 64.3797 249.534C65.3041 249.574 66.1521 249.84 66.9237 250.332C67.6893 250.812 68.288 251.488 68.7198 252.36C69.1516 253.232 69.3295 254.124 69.2536 255.036C69.1776 255.948 68.8784 256.79 68.3559 257.561C67.8273 258.321 67.103 258.928 66.1828 259.384ZM64.9324 256.86C65.3319 256.662 65.6411 256.403 65.8598 256.084C66.0725 255.752 66.1796 255.39 66.1811 254.997C66.1887 254.586 66.0905 254.175 65.8866 253.764C65.6827 253.352 65.421 253.037 65.1016 252.818C64.7762 252.587 64.4201 252.462 64.0335 252.442C63.6529 252.405 63.2629 252.485 62.8634 252.683C62.4759 252.875 62.1758 253.136 61.9631 253.468C61.7444 253.787 61.6282 254.146 61.6146 254.545C61.6011 254.944 61.6962 255.349 61.9001 255.761C62.098 256.16 62.3627 256.482 62.6941 256.725C63.0196 256.955 63.3786 257.087 63.7713 257.118C64.1579 257.138 64.5449 257.052 64.9324 256.86ZM76.3199 254.363C75.5087 254.765 74.7073 254.958 73.9158 254.943C73.1304 254.91 72.4182 254.69 71.7792 254.283C71.1343 253.863 70.6229 253.272 70.245 252.509L67.7082 247.388L70.4869 246.012L73.0057 251.097C73.1556 251.399 73.333 251.636 73.5378 251.806C73.7547 251.97 73.9961 252.061 74.2619 252.08C74.5277 252.099 74.8059 252.037 75.0965 251.893C75.5081 251.689 75.772 251.4 75.8882 251.026C75.9985 250.64 75.9396 250.216 75.7117 249.756L73.1929 244.671L75.9716 243.295L78.4994 248.398C78.8832 249.173 79.0465 249.944 78.9892 250.711C78.926 251.466 78.6696 252.166 78.22 252.811C77.7645 253.444 77.1311 253.961 76.3199 254.363ZM89.75 247.711C88.6966 248.232 87.7046 248.513 86.7739 248.552C85.8493 248.572 84.8983 248.387 83.9209 247.997L84.8648 245.245C85.5103 245.513 86.1472 245.658 86.7756 245.678C87.41 245.681 88.0602 245.517 88.7261 245.187C89.3315 244.887 89.7437 244.547 89.9626 244.168C90.1937 243.782 90.2133 243.395 90.0213 243.008C89.8474 242.656 89.5975 242.426 89.2716 242.316C88.9458 242.206 88.5622 242.162 88.121 242.185C87.692 242.201 87.2235 242.245 86.7157 242.315C86.2199 242.38 85.7152 242.426 85.2015 242.455C84.6818 242.471 84.1713 242.43 83.6702 242.331C83.1751 242.215 82.7137 241.998 82.2858 241.683C81.852 241.355 81.4732 240.864 81.1493 240.21C80.7595 239.423 80.6113 238.652 80.7048 237.897C80.8104 237.136 81.1302 236.442 81.6643 235.816C82.1924 235.177 82.8983 234.639 83.7822 234.201C84.6781 233.758 85.5733 233.51 86.4678 233.459C87.3744 233.402 88.2048 233.526 88.959 233.831L88.0151 236.583C87.4298 236.375 86.8893 236.274 86.3938 236.278C85.9104 236.276 85.4205 236.398 84.9241 236.644C84.4277 236.89 84.0822 237.182 83.8876 237.519C83.687 237.845 83.6736 238.183 83.8475 238.534C84.0095 238.861 84.2504 239.073 84.5703 239.171C84.8841 239.257 85.2526 239.286 85.6757 239.257C86.1109 239.222 86.5764 239.173 87.0721 239.108C87.5799 239.038 88.0937 238.994 88.6134 238.978C89.1331 238.962 89.6435 239.018 90.1446 239.147C90.6517 239.258 91.1282 239.489 91.574 239.841C92.0139 240.181 92.3987 240.684 92.7286 241.35C93.3343 242.573 93.3752 243.751 92.8513 244.885C92.3214 246.007 91.2876 246.949 89.75 247.711ZM99.8582 242.681C99.047 243.083 98.2216 243.243 97.382 243.161C96.5545 243.074 95.7821 242.778 95.065 242.273C94.3599 241.763 93.7885 241.066 93.3507 240.182C92.9129 239.299 92.7047 238.422 92.7261 237.552C92.7596 236.675 92.9921 235.882 93.4238 235.17C93.8676 234.453 94.4951 233.893 95.3063 233.492C95.8996 233.198 96.4893 233.049 97.0754 233.045C97.6737 233.035 98.2261 233.161 98.7327 233.423C99.2333 233.672 99.6307 234.049 99.9249 234.551L101.814 238.365C102.036 238.904 102.097 239.454 101.998 240.015C101.905 240.559 101.674 241.066 101.304 241.535C100.933 242.005 100.451 242.387 99.8582 242.681ZM99.1798 239.896C99.773 239.602 100.155 239.172 100.327 238.604C100.492 238.025 100.425 237.432 100.125 236.827C99.9209 236.415 99.6562 236.094 99.3308 235.863C99.0175 235.626 98.6675 235.498 98.2809 235.479C97.9003 235.441 97.5163 235.518 97.1289 235.71C96.7414 235.902 96.4414 236.164 96.2286 236.495C96.022 236.809 95.9059 237.168 95.8802 237.572C95.8666 237.971 95.9618 238.376 96.1657 238.788C96.3636 239.188 96.6252 239.503 96.9507 239.734C97.2761 239.964 97.6351 240.096 98.0278 240.127C98.4204 240.159 98.8044 240.082 99.1798 239.896ZM102.202 241.294L101.023 238.915L100.38 236.565L98.9004 234.629L97.8299 232.468L100.554 231.118L104.926 239.945L102.202 241.294ZM109.661 237.599L101.548 230.626L104.545 229.142L110.73 235.238L109.423 235.885L108.322 227.271L111.264 225.813L111.886 236.475L109.661 237.599ZM120.846 232.308C119.89 232.781 118.94 233.011 117.998 232.995C117.061 232.961 116.207 232.698 115.436 232.206C114.664 231.714 114.059 231.025 113.622 230.142C113.184 229.258 113 228.369 113.07 227.475C113.146 226.563 113.442 225.73 113.958 224.976C114.475 224.223 115.181 223.625 116.077 223.181C116.948 222.749 117.81 222.556 118.662 222.601C119.514 222.647 120.292 222.909 120.998 223.389C121.715 223.863 122.286 224.53 122.712 225.39C122.79 225.547 122.862 225.723 122.928 225.916C123 226.092 123.068 226.307 123.134 226.561L115.533 230.348L114.589 228.441L121.009 225.239L120.206 226.631C119.942 226.129 119.656 225.75 119.349 225.495C119.036 225.228 118.692 225.082 118.318 225.056C117.949 225.013 117.559 225.093 117.147 225.297C116.712 225.512 116.381 225.804 116.156 226.172C115.937 226.522 115.827 226.923 115.825 227.376C115.836 227.824 115.97 228.307 116.228 228.828C116.486 229.349 116.798 229.752 117.166 230.037C117.54 230.304 117.947 230.457 118.388 230.495C118.835 230.515 119.295 230.408 119.767 230.174C120.203 229.958 120.56 229.69 120.839 229.371C121.112 229.04 121.307 228.657 121.424 228.222L123.705 228.992C123.521 229.716 123.183 230.359 122.692 230.919C122.2 231.479 121.585 231.942 120.846 232.308ZM130.188 227.658C129.352 228.072 128.509 228.241 127.657 228.165C126.817 228.083 126.039 227.791 125.322 227.286C124.617 226.776 124.045 226.079 123.608 225.195C123.17 224.311 122.962 223.434 122.983 222.564C123.016 221.688 123.255 220.892 123.699 220.174C124.155 219.451 124.8 218.882 125.636 218.468C126.241 218.169 126.843 218.014 127.441 218.004C128.052 217.988 128.616 218.108 129.135 218.364C129.66 218.601 130.069 218.971 130.363 219.474L132.207 223.197C132.429 223.736 132.487 224.295 132.382 224.875C132.272 225.442 132.031 225.976 131.66 226.476C131.284 226.964 130.793 227.358 130.188 227.658ZM129.437 224.909C129.836 224.711 130.139 224.455 130.346 224.142C130.546 223.816 130.654 223.454 130.667 223.055C130.681 222.657 130.586 222.251 130.382 221.84C130.178 221.428 129.916 221.113 129.597 220.894C129.283 220.657 128.93 220.523 128.538 220.491C128.157 220.454 127.773 220.531 127.386 220.723C126.998 220.915 126.698 221.176 126.486 221.508C126.285 221.834 126.172 222.199 126.146 222.603C126.132 223.002 126.225 223.401 126.423 223.801C126.62 224.2 126.882 224.516 127.208 224.746C127.533 224.977 127.892 225.109 128.285 225.14C128.677 225.172 129.061 225.095 129.437 224.909ZM135.183 224.958L132.459 226.307L131.28 223.928L130.636 221.578L129.103 219.669L125.873 213.149L128.652 211.773L135.183 224.958ZM144.374 220.631C143.563 221.033 142.738 221.193 141.898 221.111C141.071 221.023 140.298 220.727 139.581 220.223C138.876 219.713 138.305 219.016 137.867 218.132C137.429 217.248 137.221 216.371 137.242 215.501C137.276 214.625 137.508 213.832 137.94 213.12C138.384 212.403 139.011 211.843 139.823 211.441C140.416 211.147 141.006 210.999 141.592 210.995C142.19 210.985 142.742 211.111 143.249 211.373C143.75 211.622 144.147 211.998 144.441 212.501L146.33 216.315C146.552 216.853 146.613 217.403 146.514 217.965C146.422 218.509 146.19 219.015 145.82 219.485C145.45 219.955 144.968 220.337 144.374 220.631ZM143.696 217.846C144.289 217.552 144.672 217.121 144.843 216.554C145.008 215.974 144.941 215.382 144.641 214.777C144.437 214.365 144.173 214.044 143.847 213.813C143.534 213.576 143.184 213.448 142.797 213.428C142.417 213.391 142.033 213.468 141.645 213.66C141.258 213.852 140.958 214.113 140.745 214.445C140.538 214.758 140.422 215.117 140.396 215.522C140.383 215.921 140.478 216.326 140.682 216.738C140.88 217.137 141.142 217.453 141.467 217.683C141.792 217.914 142.151 218.045 142.544 218.077C142.937 218.109 143.321 218.032 143.696 217.846ZM146.718 219.244L145.54 216.865L144.896 214.515L143.417 212.579L142.346 210.417L145.07 209.068L149.442 217.894L146.718 219.244ZM157.97 213.671L151.708 201.03L154.56 199.618L160.821 212.258L157.97 213.671ZM148.837 205.325L147.605 202.837L158.483 197.448L159.716 199.937L148.837 205.325ZM164.417 210.477L160.045 201.651L162.823 200.275L167.195 209.101L164.417 210.477ZM164.793 204.252L163.181 203.919C162.902 202.776 162.893 201.785 163.156 200.946C163.419 200.108 164.035 199.448 165.004 198.968C165.427 198.759 165.83 198.642 166.21 198.619C166.597 198.579 166.978 198.631 167.352 198.778L166.734 201.685C166.547 201.612 166.344 201.584 166.127 201.601C165.909 201.618 165.685 201.684 165.455 201.798C164.995 202.026 164.698 202.354 164.563 202.783C164.435 203.193 164.512 203.683 164.793 204.252ZM176.376 204.802C175.42 205.276 174.47 205.505 173.528 205.489C172.591 205.455 171.737 205.192 170.966 204.7C170.194 204.208 169.589 203.52 169.152 202.636C168.714 201.752 168.53 200.863 168.6 199.969C168.676 199.057 168.972 198.224 169.488 197.471C170.005 196.717 170.711 196.119 171.607 195.675C172.479 195.243 173.34 195.05 174.192 195.096C175.044 195.141 175.822 195.404 176.528 195.884C177.245 196.358 177.816 197.025 178.242 197.884C178.32 198.042 178.392 198.217 178.458 198.411C178.53 198.586 178.598 198.801 178.664 199.055L171.063 202.842L170.119 200.936L176.539 197.733L175.736 199.126C175.472 198.623 175.186 198.244 174.879 197.989C174.566 197.722 174.222 197.576 173.848 197.551C173.479 197.507 173.089 197.587 172.677 197.791C172.242 198.007 171.911 198.299 171.686 198.666C171.467 199.016 171.357 199.417 171.355 199.871C171.366 200.318 171.5 200.802 171.758 201.322C172.016 201.843 172.328 202.246 172.696 202.531C173.07 202.799 173.477 202.951 173.918 202.989C174.365 203.009 174.825 202.902 175.297 202.668C175.733 202.452 176.09 202.184 176.369 201.865C176.642 201.534 176.837 201.151 176.954 200.716L179.235 201.486C179.051 202.211 178.713 202.853 178.222 203.413C177.73 203.973 177.115 204.436 176.376 204.802ZM186.326 199.874C185.37 200.347 184.42 200.576 183.477 200.561C182.541 200.527 181.687 200.264 180.915 199.772C180.144 199.279 179.539 198.591 179.101 197.708C178.663 196.824 178.479 195.935 178.549 195.041C178.625 194.129 178.921 193.296 179.438 192.542C179.954 191.789 180.66 191.19 181.556 190.747C182.428 190.315 183.29 190.122 184.142 190.167C184.994 190.213 185.772 190.475 186.477 190.955C187.195 191.429 187.766 192.096 188.192 192.956C188.27 193.113 188.342 193.289 188.407 193.482C188.479 193.658 188.548 193.873 188.614 194.127L181.013 197.914L180.068 196.007L186.488 192.804L185.686 194.197C185.422 193.695 185.136 193.316 184.829 193.061C184.516 192.794 184.172 192.648 183.797 192.622C183.429 192.579 183.039 192.659 182.627 192.863C182.191 193.078 181.861 193.37 181.636 193.738C181.417 194.088 181.307 194.489 181.305 194.942C181.315 195.389 181.45 195.873 181.707 196.394C181.965 196.915 182.278 197.318 182.646 197.603C183.019 197.87 183.427 198.023 183.868 198.061C184.315 198.081 184.774 197.973 185.246 197.74C185.682 197.524 186.04 197.256 186.319 196.937C186.592 196.606 186.787 196.223 186.903 195.788L189.184 196.558C189.001 197.282 188.663 197.925 188.171 198.485C187.68 199.045 187.065 199.508 186.326 199.874ZM190.042 191.949L185.378 183.674L188.375 182.19L192.131 190.914L190.042 191.949ZM193.497 196.322C193.025 196.555 192.55 196.587 192.074 196.416C191.597 196.245 191.245 195.929 191.017 195.469C190.777 194.985 190.736 194.508 190.895 194.037C191.048 193.554 191.361 193.196 191.833 192.962C192.317 192.722 192.792 192.69 193.256 192.867C193.727 193.026 194.082 193.348 194.322 193.832C194.55 194.292 194.588 194.764 194.435 195.247C194.294 195.723 193.981 196.082 193.497 196.322Z" fill="#2D8B01"/>
<circle cx="158" cy="121" r="6" fill="black"/>
<path d="M191.135 25.6078C193.058 42.4666 186.997 83.1753 158.933 117.845C153.422 93.6875 154.651 26.0134 174.681 7.98028C179.887 1.82373 190.392 -5.60972 190.761 13.9089" stroke="black"/>
</svg>
