<svg width="119" height="117" viewBox="0 0 119 117" fill="none" xmlns="http://www.w3.org/2000/svg">
<g clip-path="url(#clip0_145_8238)" filter="url(#filter0_d_145_8238)">
<path d="M71.2811 73.8731C69.1096 73.8886 66.5007 74.2221 64.0907 73.8731C59.0436 73.1095 54.0628 72.1185 49.082 71.1275C39.6466 69.1985 30.1336 67.1978 19.8672 65.0786C26.3236 61.5135 34.1955 61.7098 38.799 54.7011C37.364 54.3863 36.4441 53.8253 35.9291 54.0715C27.8331 57.8548 19.215 59.7122 10.4966 60.8995C3.3458 61.9467 2.33432 64.9103 6.8752 70.1147C11.6489 75.5341 15.919 81.4989 20.4768 87.152C21.1866 88.0963 22.4057 88.6447 23.5642 89.5703C25.1061 84.7867 25.1061 84.7867 16.1327 71.3021C17.7173 71.6106 18.9971 71.782 20.2049 72.0313C32.4439 74.8173 44.611 77.6813 56.9163 80.2398C60.9165 81.047 65.0493 81.3991 69.0875 81.2309C76.2666 80.9317 79.925 76.6591 79.2049 69.4976C78.842 65.8421 77.5818 62.224 76.1776 58.7617C74.6069 54.8569 72.3717 51.2044 70.5795 47.3838C69.3532 44.6632 68.4203 41.7805 67.2603 38.8324C70.4222 37.2773 73.0707 37.991 75.7078 38.4054C86.8603 40.188 97.3992 43.5693 107.69 48.3093C108.909 48.8578 110.062 49.6338 111.419 49.8769C112.173 49.9953 113.352 49.4967 113.928 48.8734C114.216 48.5617 113.938 47.15 113.544 46.642C112.296 45.3456 110.75 44.0617 109.22 43.2265C98.2806 37.1651 86.5946 33.1575 74.2456 31.4247C71.758 31.004 69.1378 31.0383 66.6785 31.3655C62.2085 32.0013 59.9116 34.644 60.5299 39.1129C61.0424 42.7622 62.3746 46.3024 63.8507 49.6868C65.9872 54.6917 68.7107 59.3725 70.8473 64.3774C71.9241 67.1043 72.9345 70.0586 71.2811 73.8731Z" fill="white"/>
</g>
<defs>
<filter id="filter0_d_145_8238" x="-4" y="0" width="122.889" height="124.152" filterUnits="userSpaceOnUse" color-interpolation-filters="sRGB">
<feFlood flood-opacity="0" result="BackgroundImageFix"/>
<feColorMatrix in="SourceAlpha" type="matrix" values="0 0 0 0 0 0 0 0 0 0 0 0 0 0 0 0 0 0 127 0" result="hardAlpha"/>
<feOffset dy="4"/>
<feGaussianBlur stdDeviation="2"/>
<feComposite in2="hardAlpha" operator="out"/>
<feColorMatrix type="matrix" values="0 0 0 0 0 0 0 0 0 0 0 0 0 0 0 0 0 0 0.25 0"/>
<feBlend mode="normal" in2="BackgroundImageFix" result="effect1_dropShadow_145_8238"/>
<feBlend mode="normal" in="SourceGraphic" in2="effect1_dropShadow_145_8238" result="shape"/>
</filter>
<clipPath id="clip0_145_8238">
<rect width="93" height="70.5" fill="white" transform="matrix(-0.678475 0.734624 0.734624 0.678475 63.0981 0)"/>
</clipPath>
</defs>
</svg>
