<svg width="1387" height="875" viewBox="0 0 1387 875" fill="none" xmlns="http://www.w3.org/2000/svg">
<path d="M246.385 639.436L0 639.053C0 639.053 12.2583 623.138 25.7703 621.153C25.7703 621.153 52.1675 543.006 96.1511 542.519C137.035 542.066 153.333 590.681 153.333 590.681C153.333 590.681 172.313 568.916 190.387 578.911C208.461 588.905 218.665 617.462 218.665 617.462C218.665 617.462 239.002 628.466 246.385 639.436Z" fill="#EBEBEB"/>
<path d="M802.536 780.65L1114.11 781.137C1114.11 781.137 1114.11 761.217 1071.24 757.282C1071.24 757.282 1032.17 670.22 972.342 681.782C935.044 689.026 915.925 740.148 915.925 740.148C915.925 740.148 887.822 699.856 865.29 707.587C842.759 715.318 829.316 758.013 829.316 758.013C829.316 758.013 806.088 769.227 802.536 780.65Z" fill="#EBEBEB"/>
<path d="M183.353 99.931L494.93 100.419C494.93 100.419 494.93 80.4988 452.06 76.5288C452.06 76.5288 412.987 -10.5331 353.123 1.06356C315.861 8.27228 296.742 59.4298 296.742 59.4298C296.742 59.4298 268.638 19.1028 246.107 26.8687C223.575 34.6346 210.133 77.4691 210.133 77.4691C210.133 77.4691 186.905 88.6826 183.353 99.931Z" fill="#EBEBEB"/>
<path d="M1175.16 874.049L1387 874.362C1387 874.362 1367.05 855.731 1358.17 855.696C1349.28 855.661 1323.34 793.186 1290.29 795.797C1257.24 798.409 1239.48 844.9 1239.48 844.9C1239.48 844.9 1199.23 832.189 1175.16 874.049Z" fill="#EBEBEB"/>
<path d="M356.641 391.241L568.514 391.589C568.514 391.589 548.525 372.923 539.645 372.923C530.764 372.923 504.82 310.238 471.771 312.989C438.723 315.741 420.997 362.092 420.997 362.092C420.997 362.092 380.705 349.416 356.641 391.241Z" fill="#EBEBEB"/>
<path d="M1158.03 456.013L1339.12 456.292C1339.12 456.292 1330.1 444.556 1320.17 443.093C1320.17 443.093 1300.95 385.528 1268.63 385.075C1238.54 384.658 1226.46 420.388 1226.46 420.388C1226.46 420.388 1212.53 404.333 1199.22 411.647C1185.92 418.96 1178.33 439.924 1178.33 439.924C1178.33 439.924 1163.63 447.969 1158.03 456.013Z" fill="#EBEBEB"/>
<path d="M238.933 774.521L420.021 774.8C420.021 774.8 411.036 763.029 401.077 761.567C401.077 761.567 381.853 704.036 349.536 703.583C319.447 703.131 307.363 738.861 307.363 738.861C307.363 738.861 293.433 722.807 280.13 730.12C266.827 737.433 259.235 758.397 259.235 758.397C259.235 758.397 244.261 766.442 238.933 774.521Z" fill="#EBEBEB"/>
<path d="M757.508 118.074L938.596 118.353C938.596 118.353 929.612 106.617 919.687 105.154C919.687 105.154 900.463 47.624 868.111 47.1364C838.057 46.7186 825.938 82.4487 825.938 82.4487C825.938 82.4487 812.009 66.3946 798.74 73.7077C785.472 81.0209 777.845 101.985 777.845 101.985C777.845 101.985 762.94 110.03 757.508 118.074Z" fill="#EBEBEB"/>
</svg>
