<svg width="172" height="172" viewBox="0 0 172 172" fill="none" xmlns="http://www.w3.org/2000/svg">
<g filter="url(#filter0_d_107_28694)">
<rect x="54.8945" y="1" width="120" height="120" rx="30" transform="rotate(23.5231 54.8945 1)" fill="#930067"/>
</g>
<g clip-path="url(#clip0_107_28694)">
<rect width="75" height="75" transform="translate(66.2856 29.9524) rotate(23.5231)" fill="#930067"/>
<path fill-rule="evenodd" clip-rule="evenodd" d="M68.8011 47.6626C70.0926 44.6954 73.545 43.3371 76.5121 44.6287L89.406 50.2413C92.3731 51.5329 93.7314 54.9852 92.4399 57.9523L86.8272 70.8462C85.5357 73.8134 82.0833 75.1717 79.1162 73.8801L66.2223 68.2675C63.2552 66.9759 61.8969 63.5236 63.1884 60.5564L68.8011 47.6626ZM74.6412 48.9267C74.0478 48.6683 73.3573 48.94 73.099 49.5334L67.4864 62.4273C67.2281 63.0207 67.4998 63.7112 68.0932 63.9695L80.9871 69.5821C81.5805 69.8405 82.271 69.5688 82.5293 68.9754L88.1419 56.0815C88.4002 55.4881 88.1285 54.7976 87.5351 54.5393L74.6412 48.9267ZM96.7378 59.8232C98.0294 56.8561 101.482 55.4978 104.449 56.7894L117.343 62.402C120.31 63.6935 121.668 67.1459 120.377 70.113L114.764 83.0069C113.472 85.974 110.02 87.3323 107.053 86.0408L94.1591 80.4282C91.192 79.1366 89.8336 75.6842 91.1252 72.7171L96.7378 59.8232ZM102.578 61.0873C101.985 60.829 101.294 61.1007 101.036 61.6941L95.4232 74.588C95.1649 75.1814 95.4365 75.8719 96.0299 76.1302L108.924 81.7428C109.517 82.0011 110.208 81.7295 110.466 81.136L116.079 68.2421C116.337 67.6487 116.065 66.9582 115.472 66.6999L102.578 61.0873ZM75.0584 56.7768C75.575 55.5899 76.956 55.0466 78.1428 55.5632L80.2918 56.4986C81.4786 57.0153 82.022 58.3962 81.5053 59.5831L80.5699 61.732C80.0533 62.9189 78.6723 63.4622 77.4855 62.9456L75.3365 62.0102C74.1497 61.4935 73.6063 60.1126 74.123 58.9257L75.0584 56.7768ZM102.995 68.9374C103.512 67.7506 104.893 67.2072 106.08 67.7239L108.229 68.6593C109.415 69.1759 109.959 70.5569 109.442 71.7437L108.507 73.8927C107.99 75.0796 106.609 75.6229 105.422 75.1063L103.273 74.1708C102.086 73.6542 101.543 72.2732 102.06 71.0864L102.995 68.9374ZM56.6404 75.5993C57.932 72.6322 61.3843 71.2739 64.3514 72.5655L77.2453 78.1781C80.2125 79.4696 81.5708 82.922 80.2792 85.8891L74.6666 98.783C73.375 101.75 69.9227 103.108 66.9555 101.817L54.0616 96.2043C51.0945 94.9127 49.7362 91.4603 51.0278 88.4932L56.6404 75.5993ZM62.4806 76.8634C61.8871 76.6051 61.1967 76.8768 60.9384 77.4702L55.3257 90.3641C55.0674 90.9575 55.3391 91.648 55.9325 91.9063L68.8264 97.5189C69.4198 97.7772 70.1103 97.5056 70.3686 96.9121L75.9812 84.0182C76.2395 83.4248 75.9679 82.7343 75.3745 82.476L62.4806 76.8634ZM85.9803 84.5365C86.4969 83.3497 87.8779 82.8063 89.0647 83.323L91.2137 84.2584C92.4006 84.775 92.9439 86.156 92.4273 87.3428L91.4918 89.4918C90.9752 90.6787 89.5943 91.222 88.4074 90.7053L86.2584 89.7699C85.0716 89.2533 84.5283 87.8723 85.0449 86.6855L85.9803 84.5365ZM103.172 92.02C103.689 90.8331 105.07 90.2898 106.257 90.8065L108.406 91.7419C109.592 92.2585 110.136 93.6395 109.619 94.8263L108.684 96.9753C108.167 98.1621 106.786 98.7055 105.599 98.1888L103.45 97.2534C102.263 96.7368 101.72 95.3558 102.237 94.169L103.172 92.02ZM62.8977 84.7135C63.4144 83.5267 64.7953 82.9833 65.9822 83.5L68.1311 84.4354C69.318 84.952 69.8613 86.333 69.3447 87.5198L68.4092 89.6688C67.8926 90.8557 66.5117 91.399 65.3248 90.8824L63.1758 89.9469C61.989 89.4303 61.4457 88.0494 61.9623 86.8625L62.8977 84.7135ZM90.8345 96.8742C91.3511 95.6873 92.7321 95.144 93.9189 95.6606L96.0679 96.5961C97.2547 97.1127 97.7981 98.4936 97.2814 99.6805L96.346 101.829C95.8294 103.016 94.4484 103.56 93.2616 103.043L91.1126 102.108C89.9258 101.591 89.3824 100.21 89.8991 99.0232L90.8345 96.8742ZM78.4968 101.728C79.0135 100.542 80.3944 99.9982 81.5812 100.515L83.7302 101.45C84.9171 101.967 85.4604 103.348 84.9438 104.535L84.0083 106.684C83.4917 107.871 82.1108 108.414 80.9239 107.897L78.7749 106.962C77.5881 106.445 77.0448 105.064 77.5614 103.877L78.4968 101.728ZM95.6887 109.212C96.2053 108.025 97.5863 107.482 98.7731 107.998L100.922 108.934C102.109 109.45 102.652 110.831 102.136 112.018L101.2 114.167C100.684 115.354 99.3026 115.897 98.1158 115.381L95.9668 114.445C94.78 113.929 94.2366 112.548 94.7533 111.361L95.6887 109.212Z" fill="white"/>
</g>
<defs>
<filter id="filter0_d_107_28694" x="0.473145" y="0.872962" width="170.977" height="170.976" filterUnits="userSpaceOnUse" color-interpolation-filters="sRGB">
<feFlood flood-opacity="0" result="BackgroundImageFix"/>
<feColorMatrix in="SourceAlpha" type="matrix" values="0 0 0 0 0 0 0 0 0 0 0 0 0 0 0 0 0 0 127 0" result="hardAlpha"/>
<feOffset dy="6.4"/>
<feGaussianBlur stdDeviation="8"/>
<feComposite in2="hardAlpha" operator="out"/>
<feColorMatrix type="matrix" values="0 0 0 0 0 0 0 0 0 0 0 0 0 0 0 0 0 0 0.15 0"/>
<feBlend mode="normal" in2="BackgroundImageFix" result="effect1_dropShadow_107_28694"/>
<feBlend mode="normal" in="SourceGraphic" in2="effect1_dropShadow_107_28694" result="shape"/>
</filter>
<clipPath id="clip0_107_28694">
<rect width="75" height="75" fill="white" transform="translate(66.2856 29.9524) rotate(23.5231)"/>
</clipPath>
</defs>
</svg>
