<svg width="461" height="282" viewBox="0 0 461 282" fill="none" xmlns="http://www.w3.org/2000/svg">
<g clip-path="url(#clip0_168_137)">
<rect width="460.5" height="282" rx="30" fill="#171717"/>
<path d="M428.454 58.5C392.72 58.5 363.75 87.7749 363.75 123.884C363.75 140.417 369.829 155.529 379.858 167.035C379.945 167.153 380.044 167.266 380.154 167.377L381.11 168.45L428.452 220.879L464.179 181.309L453.589 170.608C446.114 174.724 437.549 177.069 428.452 177.069C399.407 177.069 375.782 153.195 375.782 123.846C375.782 94.4961 399.407 70.6227 428.452 70.6227C457.496 70.6227 481.121 94.4961 481.121 123.846C481.121 132.372 479.128 140.44 475.585 147.588L484.485 156.581C489.996 146.964 493.149 135.794 493.149 123.882C493.151 87.7749 464.188 58.5 428.454 58.5Z" fill="url(#paint0_linear_168_137)"/>
<path d="M461.127 147.742C465.958 141.025 468.804 132.769 468.804 123.851C468.804 101.367 450.703 83.0767 428.454 83.0767C406.205 83.0767 388.104 101.367 388.104 123.851C388.104 146.334 406.205 164.625 428.454 164.625C437.933 164.625 446.666 161.3 453.56 155.749L471.272 173.448L478.561 165.359L461.127 147.742ZM397.98 123.851C397.98 106.862 411.651 93.0542 428.456 93.0542C445.262 93.0542 458.932 106.862 458.932 123.851C458.932 140.84 445.262 154.647 428.456 154.647C411.651 154.647 397.98 140.833 397.98 123.851Z" fill="url(#paint1_linear_168_137)"/>
<path d="M78.012 192.516V189.732H81.588C82.34 189.732 82.916 189.54 83.316 189.156C83.732 188.772 83.94 188.252 83.94 187.596C83.94 186.988 83.74 186.484 83.34 186.084C82.94 185.684 82.364 185.484 81.612 185.484H78.012V182.556H82.044C83.164 182.556 84.148 182.772 84.996 183.204C85.844 183.62 86.508 184.204 86.988 184.956C87.468 185.708 87.708 186.572 87.708 187.548C87.708 188.54 87.468 189.412 86.988 190.164C86.508 190.9 85.836 191.476 84.972 191.892C84.108 192.308 83.092 192.516 81.924 192.516H78.012ZM75.132 199.5V182.556H78.9V199.5H75.132ZM84.348 199.5L79.068 192.204L82.524 191.268L88.812 199.5H84.348ZM95.3784 199.764C94.3064 199.764 93.3544 199.548 92.5224 199.116C91.7064 198.668 91.0664 198.06 90.6024 197.292C90.1384 196.508 89.9064 195.612 89.9064 194.604V187.836H93.5784V194.556C93.5784 194.956 93.6424 195.3 93.7704 195.588C93.9144 195.876 94.1224 196.1 94.3944 196.26C94.6664 196.42 94.9944 196.5 95.3784 196.5C95.9224 196.5 96.3544 196.332 96.6744 195.996C96.9944 195.644 97.1544 195.164 97.1544 194.556V187.836H100.826V194.58C100.826 195.604 100.594 196.508 100.13 197.292C99.6664 198.06 99.0264 198.668 98.2104 199.116C97.3944 199.548 96.4504 199.764 95.3784 199.764ZM107.38 199.788C106.692 199.788 106.012 199.7 105.34 199.524C104.684 199.348 104.068 199.1 103.492 198.78C102.932 198.444 102.452 198.06 102.052 197.628L104.14 195.516C104.524 195.932 104.98 196.26 105.508 196.5C106.036 196.724 106.612 196.836 107.236 196.836C107.668 196.836 107.996 196.772 108.22 196.644C108.46 196.516 108.58 196.34 108.58 196.116C108.58 195.828 108.436 195.612 108.148 195.468C107.876 195.308 107.524 195.172 107.092 195.06C106.66 194.932 106.204 194.796 105.724 194.652C105.244 194.508 104.788 194.308 104.356 194.052C103.924 193.796 103.572 193.444 103.3 192.996C103.028 192.532 102.892 191.948 102.892 191.244C102.892 190.492 103.084 189.844 103.468 189.3C103.852 188.74 104.396 188.3 105.1 187.98C105.804 187.66 106.628 187.5 107.572 187.5C108.564 187.5 109.476 187.676 110.308 188.028C111.156 188.364 111.844 188.868 112.372 189.54L110.284 191.652C109.916 191.22 109.5 190.916 109.036 190.74C108.588 190.564 108.148 190.476 107.716 190.476C107.3 190.476 106.988 190.54 106.78 190.668C106.572 190.78 106.468 190.948 106.468 191.172C106.468 191.412 106.604 191.604 106.876 191.748C107.148 191.892 107.5 192.02 107.932 192.132C108.364 192.244 108.82 192.38 109.3 192.54C109.78 192.7 110.236 192.916 110.668 193.188C111.1 193.46 111.452 193.828 111.724 194.292C111.996 194.74 112.132 195.332 112.132 196.068C112.132 197.204 111.7 198.108 110.836 198.78C109.988 199.452 108.836 199.788 107.38 199.788ZM121.828 199.5V192.852C121.828 192.244 121.636 191.756 121.252 191.388C120.884 191.004 120.412 190.812 119.836 190.812C119.436 190.812 119.084 190.9 118.78 191.076C118.476 191.236 118.236 191.476 118.06 191.796C117.884 192.1 117.796 192.452 117.796 192.852L116.38 192.156C116.38 191.244 116.572 190.444 116.956 189.756C117.34 189.068 117.876 188.54 118.564 188.172C119.252 187.788 120.044 187.596 120.94 187.596C121.852 187.596 122.652 187.788 123.34 188.172C124.028 188.54 124.556 189.06 124.924 189.732C125.308 190.388 125.5 191.156 125.5 192.036V199.5H121.828ZM114.124 199.5V182.076H117.796V199.5H114.124ZM127.859 199.5V187.836H131.531V199.5H127.859ZM129.707 186.228C129.131 186.228 128.651 186.036 128.267 185.652C127.899 185.252 127.715 184.772 127.715 184.212C127.715 183.636 127.899 183.156 128.267 182.772C128.651 182.388 129.131 182.196 129.707 182.196C130.283 182.196 130.755 182.388 131.123 182.772C131.491 183.156 131.675 183.636 131.675 184.212C131.675 184.772 131.491 185.252 131.123 185.652C130.755 186.036 130.283 186.228 129.707 186.228ZM134.116 199.5V182.076H137.788V199.5H134.116ZM145.28 199.5V182.556H147.968L154.64 192.948H153.272L159.92 182.556H162.632V199.5H158.864V188.916L159.536 189.084L155.192 195.852H152.696L148.376 189.084L149.024 188.916V199.5H145.28ZM170.418 199.74C169.346 199.74 168.386 199.476 167.538 198.948C166.706 198.42 166.042 197.7 165.546 196.788C165.066 195.876 164.826 194.836 164.826 193.668C164.826 192.5 165.066 191.46 165.546 190.548C166.042 189.636 166.706 188.916 167.538 188.388C168.386 187.86 169.346 187.596 170.418 187.596C171.202 187.596 171.906 187.748 172.53 188.052C173.17 188.356 173.69 188.78 174.09 189.324C174.49 189.852 174.714 190.46 174.762 191.148V196.188C174.714 196.876 174.49 197.492 174.09 198.036C173.706 198.564 173.194 198.98 172.554 199.284C171.914 199.588 171.202 199.74 170.418 199.74ZM171.162 196.428C171.946 196.428 172.578 196.172 173.058 195.66C173.538 195.132 173.778 194.468 173.778 193.668C173.778 193.124 173.666 192.644 173.442 192.228C173.234 191.812 172.93 191.492 172.53 191.268C172.146 191.028 171.698 190.908 171.186 190.908C170.674 190.908 170.218 191.028 169.818 191.268C169.434 191.492 169.122 191.812 168.882 192.228C168.658 192.644 168.546 193.124 168.546 193.668C168.546 194.196 168.658 194.668 168.882 195.084C169.106 195.5 169.418 195.828 169.818 196.068C170.218 196.308 170.666 196.428 171.162 196.428ZM173.634 199.5V196.356L174.186 193.524L173.634 190.692V187.836H177.234V199.5H173.634ZM187.523 199.5V192.852C187.523 192.244 187.331 191.756 186.947 191.388C186.579 191.004 186.107 190.812 185.531 190.812C185.131 190.812 184.779 190.9 184.475 191.076C184.171 191.236 183.931 191.476 183.755 191.796C183.579 192.1 183.491 192.452 183.491 192.852L182.075 192.156C182.075 191.244 182.267 190.444 182.651 189.756C183.035 189.068 183.571 188.54 184.259 188.172C184.947 187.788 185.739 187.596 186.635 187.596C187.547 187.596 188.347 187.788 189.035 188.172C189.723 188.54 190.251 189.06 190.619 189.732C191.003 190.388 191.195 191.156 191.195 192.036V199.5H187.523ZM179.819 199.5V182.076H183.491V199.5H179.819ZM193.554 199.5V187.836H197.226V199.5H193.554ZM195.402 186.228C194.826 186.228 194.346 186.036 193.962 185.652C193.594 185.252 193.41 184.772 193.41 184.212C193.41 183.636 193.594 183.156 193.962 182.772C194.346 182.388 194.826 182.196 195.402 182.196C195.978 182.196 196.45 182.388 196.818 182.772C197.186 183.156 197.37 183.636 197.37 184.212C197.37 184.772 197.186 185.252 196.818 185.652C196.45 186.036 195.978 186.228 195.402 186.228ZM207.516 199.5V192.852C207.516 192.244 207.324 191.756 206.94 191.388C206.572 191.004 206.1 190.812 205.524 190.812C205.124 190.812 204.772 190.9 204.468 191.076C204.164 191.236 203.924 191.476 203.748 191.796C203.572 192.1 203.484 192.452 203.484 192.852L202.068 192.156C202.068 191.244 202.268 190.444 202.668 189.756C203.068 189.068 203.62 188.54 204.324 188.172C205.044 187.788 205.852 187.596 206.748 187.596C207.612 187.596 208.372 187.804 209.028 188.22C209.7 188.62 210.228 189.156 210.612 189.828C210.996 190.5 211.188 191.236 211.188 192.036V199.5H207.516ZM199.812 199.5V187.836H203.484V199.5H199.812ZM218.514 199.74C217.41 199.74 216.426 199.476 215.562 198.948C214.714 198.42 214.042 197.7 213.546 196.788C213.066 195.876 212.826 194.836 212.826 193.668C212.826 192.5 213.066 191.46 213.546 190.548C214.042 189.636 214.714 188.916 215.562 188.388C216.426 187.86 217.41 187.596 218.514 187.596C219.314 187.596 220.034 187.748 220.674 188.052C221.33 188.356 221.866 188.78 222.282 189.324C222.714 189.852 222.954 190.46 223.002 191.148V196.068C222.954 196.756 222.722 197.38 222.306 197.94C221.89 198.484 221.354 198.924 220.698 199.26C220.042 199.58 219.314 199.74 218.514 199.74ZM219.162 196.428C219.69 196.428 220.146 196.316 220.53 196.092C220.914 195.852 221.218 195.524 221.442 195.108C221.666 194.692 221.778 194.212 221.778 193.668C221.778 193.124 221.666 192.652 221.442 192.252C221.234 191.836 220.93 191.508 220.53 191.268C220.146 191.028 219.698 190.908 219.186 190.908C218.674 190.908 218.218 191.028 217.818 191.268C217.434 191.508 217.122 191.836 216.882 192.252C216.658 192.668 216.546 193.14 216.546 193.668C216.546 194.196 216.658 194.668 216.882 195.084C217.106 195.5 217.418 195.828 217.818 196.068C218.218 196.308 218.666 196.428 219.162 196.428ZM225.234 199.5H221.634V196.356L222.186 193.524L221.562 190.692V182.076H225.234V199.5ZM227.819 199.5V187.836H231.491V199.5H227.819ZM231.491 193.092L229.955 191.892C230.259 190.532 230.771 189.476 231.491 188.724C232.211 187.972 233.211 187.596 234.491 187.596C235.051 187.596 235.539 187.684 235.955 187.86C236.387 188.02 236.763 188.276 237.083 188.628L234.899 191.388C234.739 191.212 234.539 191.076 234.299 190.98C234.059 190.884 233.787 190.836 233.483 190.836C232.875 190.836 232.387 191.028 232.019 191.412C231.667 191.78 231.491 192.34 231.491 193.092ZM242.606 199.74C241.534 199.74 240.574 199.476 239.726 198.948C238.894 198.42 238.23 197.7 237.734 196.788C237.254 195.876 237.014 194.836 237.014 193.668C237.014 192.5 237.254 191.46 237.734 190.548C238.23 189.636 238.894 188.916 239.726 188.388C240.574 187.86 241.534 187.596 242.606 187.596C243.39 187.596 244.094 187.748 244.718 188.052C245.358 188.356 245.878 188.78 246.278 189.324C246.678 189.852 246.902 190.46 246.95 191.148V196.188C246.902 196.876 246.678 197.492 246.278 198.036C245.894 198.564 245.382 198.98 244.742 199.284C244.102 199.588 243.39 199.74 242.606 199.74ZM243.35 196.428C244.134 196.428 244.766 196.172 245.246 195.66C245.726 195.132 245.966 194.468 245.966 193.668C245.966 193.124 245.854 192.644 245.63 192.228C245.422 191.812 245.118 191.492 244.718 191.268C244.334 191.028 243.886 190.908 243.374 190.908C242.862 190.908 242.406 191.028 242.006 191.268C241.622 191.492 241.31 191.812 241.07 192.228C240.846 192.644 240.734 193.124 240.734 193.668C240.734 194.196 240.846 194.668 241.07 195.084C241.294 195.5 241.606 195.828 242.006 196.068C242.406 196.308 242.854 196.428 243.35 196.428ZM245.822 199.5V196.356L246.374 193.524L245.822 190.692V187.836H249.422V199.5H245.822ZM80.22 229.764C78.828 229.764 77.628 229.54 76.62 229.092C75.628 228.628 74.716 227.932 73.884 227.004L76.332 224.58C76.876 225.204 77.476 225.692 78.132 226.044C78.804 226.38 79.58 226.548 80.46 226.548C81.26 226.548 81.876 226.404 82.308 226.116C82.756 225.828 82.98 225.428 82.98 224.916C82.98 224.452 82.836 224.076 82.548 223.788C82.26 223.5 81.876 223.252 81.396 223.044C80.932 222.836 80.412 222.636 79.836 222.444C79.276 222.252 78.716 222.036 78.156 221.796C77.596 221.54 77.076 221.228 76.596 220.86C76.132 220.476 75.756 220.004 75.468 219.444C75.18 218.868 75.036 218.148 75.036 217.284C75.036 216.244 75.284 215.348 75.78 214.596C76.292 213.844 76.996 213.276 77.892 212.892C78.788 212.492 79.82 212.292 80.988 212.292C82.172 212.292 83.252 212.5 84.228 212.916C85.22 213.332 86.036 213.9 86.676 214.62L84.228 217.044C83.716 216.516 83.196 216.124 82.668 215.868C82.156 215.612 81.572 215.484 80.916 215.484C80.26 215.484 79.74 215.612 79.356 215.868C78.972 216.108 78.78 216.46 78.78 216.924C78.78 217.356 78.924 217.708 79.212 217.98C79.5 218.236 79.876 218.46 80.34 218.652C80.82 218.844 81.34 219.036 81.9 219.228C82.476 219.42 83.044 219.644 83.604 219.9C84.164 220.156 84.676 220.484 85.14 220.884C85.62 221.268 86.004 221.764 86.292 222.372C86.58 222.964 86.724 223.7 86.724 224.58C86.724 226.196 86.148 227.468 84.996 228.396C83.844 229.308 82.252 229.764 80.22 229.764ZM94.4779 229.764C93.2139 229.764 92.0859 229.508 91.0939 228.996C90.1179 228.468 89.3499 227.74 88.7899 226.812C88.2299 225.884 87.9499 224.836 87.9499 223.668C87.9499 222.5 88.2219 221.46 88.7659 220.548C89.3259 219.62 90.0779 218.892 91.0219 218.364C91.9659 217.836 93.0299 217.572 94.2139 217.572C95.3659 217.572 96.3819 217.82 97.2619 218.316C98.1419 218.812 98.8299 219.5 99.3259 220.38C99.8379 221.26 100.094 222.268 100.094 223.404C100.094 223.612 100.078 223.836 100.046 224.076C100.03 224.3 99.9899 224.564 99.9259 224.868L89.8699 224.892V222.372L98.3659 222.348L96.7819 223.404C96.7659 222.732 96.6619 222.18 96.4699 221.748C96.2779 221.3 95.9899 220.964 95.6059 220.74C95.2379 220.5 94.7819 220.38 94.2379 220.38C93.6619 220.38 93.1579 220.516 92.7259 220.788C92.3099 221.044 91.9819 221.412 91.7419 221.892C91.5179 222.372 91.4059 222.956 91.4059 223.644C91.4059 224.332 91.5259 224.924 91.7659 225.42C92.0219 225.9 92.3739 226.276 92.8219 226.548C93.2859 226.804 93.8299 226.932 94.4539 226.932C95.0299 226.932 95.5499 226.836 96.0139 226.644C96.4779 226.436 96.8859 226.132 97.2379 225.732L99.2539 227.748C98.6779 228.42 97.9819 228.924 97.1659 229.26C96.3499 229.596 95.4539 229.764 94.4779 229.764ZM109.57 229.5V222.852C109.57 222.244 109.378 221.756 108.994 221.388C108.626 221.004 108.154 220.812 107.578 220.812C107.178 220.812 106.826 220.9 106.522 221.076C106.218 221.236 105.978 221.476 105.802 221.796C105.626 222.1 105.538 222.452 105.538 222.852L104.122 222.156C104.122 221.244 104.314 220.444 104.698 219.756C105.082 219.068 105.618 218.54 106.306 218.172C106.994 217.788 107.786 217.596 108.682 217.596C109.594 217.596 110.394 217.788 111.082 218.172C111.77 218.54 112.298 219.06 112.666 219.732C113.05 220.388 113.242 221.156 113.242 222.036V229.5H109.57ZM101.866 229.5V212.076H105.538V229.5H101.866ZM120.545 234.732C119.265 234.732 118.137 234.508 117.161 234.06C116.201 233.628 115.441 233.012 114.881 232.212L117.137 229.956C117.553 230.452 118.017 230.828 118.529 231.084C119.057 231.34 119.689 231.468 120.425 231.468C121.337 231.468 122.049 231.244 122.561 230.796C123.089 230.348 123.353 229.716 123.353 228.9V225.924L123.977 223.38L123.425 220.836V217.836H127.025V228.804C127.025 230.004 126.745 231.044 126.185 231.924C125.625 232.804 124.857 233.492 123.881 233.988C122.905 234.484 121.793 234.732 120.545 234.732ZM120.377 229.14C119.305 229.14 118.353 228.884 117.521 228.372C116.689 227.86 116.033 227.164 115.553 226.284C115.073 225.404 114.833 224.428 114.833 223.356C114.833 222.268 115.073 221.292 115.553 220.428C116.033 219.548 116.689 218.86 117.521 218.364C118.353 217.852 119.305 217.596 120.377 217.596C121.177 217.596 121.889 217.748 122.513 218.052C123.153 218.34 123.665 218.756 124.049 219.3C124.449 219.828 124.673 220.444 124.721 221.148V225.588C124.673 226.276 124.449 226.892 124.049 227.436C123.665 227.964 123.153 228.38 122.513 228.684C121.873 228.988 121.161 229.14 120.377 229.14ZM121.073 225.876C121.585 225.876 122.025 225.764 122.393 225.54C122.777 225.316 123.065 225.02 123.257 224.652C123.465 224.268 123.569 223.836 123.569 223.356C123.569 222.876 123.465 222.444 123.257 222.06C123.065 221.676 122.777 221.372 122.393 221.148C122.025 220.924 121.585 220.812 121.073 220.812C120.577 220.812 120.137 220.924 119.753 221.148C119.369 221.372 119.073 221.676 118.865 222.06C118.657 222.444 118.553 222.876 118.553 223.356C118.553 223.804 118.657 224.228 118.865 224.628C119.073 225.012 119.361 225.316 119.729 225.54C120.113 225.764 120.561 225.876 121.073 225.876ZM134.488 229.74C133.416 229.74 132.456 229.476 131.608 228.948C130.776 228.42 130.112 227.7 129.616 226.788C129.136 225.876 128.896 224.836 128.896 223.668C128.896 222.5 129.136 221.46 129.616 220.548C130.112 219.636 130.776 218.916 131.608 218.388C132.456 217.86 133.416 217.596 134.488 217.596C135.272 217.596 135.976 217.748 136.6 218.052C137.24 218.356 137.76 218.78 138.16 219.324C138.56 219.852 138.784 220.46 138.832 221.148V226.188C138.784 226.876 138.56 227.492 138.16 228.036C137.776 228.564 137.264 228.98 136.624 229.284C135.984 229.588 135.272 229.74 134.488 229.74ZM135.232 226.428C136.016 226.428 136.648 226.172 137.128 225.66C137.608 225.132 137.848 224.468 137.848 223.668C137.848 223.124 137.736 222.644 137.512 222.228C137.304 221.812 137 221.492 136.6 221.268C136.216 221.028 135.768 220.908 135.256 220.908C134.744 220.908 134.288 221.028 133.888 221.268C133.504 221.492 133.192 221.812 132.952 222.228C132.728 222.644 132.616 223.124 132.616 223.668C132.616 224.196 132.728 224.668 132.952 225.084C133.176 225.5 133.488 225.828 133.888 226.068C134.288 226.308 134.736 226.428 135.232 226.428ZM137.704 229.5V226.356L138.256 223.524L137.704 220.692V217.836H141.304V229.5H137.704ZM143.89 229.5V212.076H147.562V229.5H143.89Z" fill="url(#paint2_linear_168_137)"/>
<path fill-rule="evenodd" clip-rule="evenodd" d="M36.3641 42.4302C53.9377 24.8566 82.4301 24.8566 100.004 42.4302C100.882 43.3088 100.882 44.7334 100.004 45.6121L98.4128 47.2032C97.9908 47.6252 97.4185 47.8623 96.8218 47.8623C96.225 47.8623 95.6527 47.6253 95.2307 47.2033C80.2932 32.2657 56.0746 32.2657 41.1371 47.2033C40.7151 47.6253 40.1428 47.8623 39.546 47.8623C38.9493 47.8623 38.377 47.6252 37.955 47.2032L36.364 45.6121C35.4854 44.7334 35.4854 43.3088 36.3641 42.4302ZM45.91 51.9763C58.2115 39.6748 78.1562 39.6748 90.4578 51.9763C91.3364 52.855 91.3364 54.2796 90.4578 55.1582L88.8669 56.7492C88.4449 57.1712 87.8726 57.4083 87.2759 57.4083C86.6791 57.4083 86.1068 57.1712 85.6848 56.7493C76.0194 47.0838 60.3485 47.0838 50.6831 56.7493C49.8044 57.6279 48.3798 57.628 47.5011 56.7493L45.9101 55.1583C45.4881 54.7364 45.251 54.1641 45.251 53.5673C45.251 52.9706 45.4881 52.3983 45.91 51.9763ZM55.5222 61.5221C62.5517 54.4926 73.9486 54.4926 80.9781 61.5221C81.8568 62.4008 81.8568 63.8254 80.9781 64.7041L79.3871 66.2951C78.9651 66.717 78.3928 66.9541 77.7961 66.9541C77.1994 66.9541 76.6271 66.717 76.2051 66.2951C71.8117 61.9017 64.6886 61.9017 60.2952 66.2951C59.4165 67.1737 57.9919 67.1737 57.1132 66.2951L55.5222 64.7041C54.6436 63.8254 54.6436 62.4008 55.5222 61.5221Z" fill="url(#paint3_linear_168_137)"/>
</g>
<defs>
<linearGradient id="paint0_linear_168_137" x1="363.75" y1="62.4888" x2="486.276" y2="62.4365" gradientUnits="userSpaceOnUse">
<stop stop-color="#FFD956"/>
<stop offset="0.155" stop-color="#F7CB61"/>
<stop offset="0.35" stop-color="#FFD46A"/>
<stop offset="0.565" stop-color="#FFD675"/>
<stop offset="0.715" stop-color="#FBD67E"/>
<stop offset="0.84" stop-color="#F9C762"/>
<stop offset="1" stop-color="#F1B856"/>
</linearGradient>
<linearGradient id="paint1_linear_168_137" x1="388.104" y1="85.2966" x2="473.756" y2="85.2507" gradientUnits="userSpaceOnUse">
<stop stop-color="#FFD956"/>
<stop offset="0.155" stop-color="#F7CB61"/>
<stop offset="0.35" stop-color="#FFD46A"/>
<stop offset="0.565" stop-color="#FFD675"/>
<stop offset="0.715" stop-color="#FBD67E"/>
<stop offset="0.84" stop-color="#F9C762"/>
<stop offset="1" stop-color="#F1B856"/>
</linearGradient>
<linearGradient id="paint2_linear_168_137" x1="73.5" y1="176.974" x2="245.833" y2="176.694" gradientUnits="userSpaceOnUse">
<stop stop-color="#FFD956"/>
<stop offset="0.155" stop-color="#F7CB61"/>
<stop offset="0.35" stop-color="#FFD46A"/>
<stop offset="0.565" stop-color="#FFD675"/>
<stop offset="0.715" stop-color="#FBD67E"/>
<stop offset="0.84" stop-color="#F9C762"/>
<stop offset="1" stop-color="#F1B856"/>
</linearGradient>
<linearGradient id="paint3_linear_168_137" x1="35.7051" y1="30.1762" x2="97.2125" y2="30.1194" gradientUnits="userSpaceOnUse">
<stop stop-color="#FFD956"/>
<stop offset="0.155" stop-color="#F7CB61"/>
<stop offset="0.35" stop-color="#FFD46A"/>
<stop offset="0.565" stop-color="#FFD675"/>
<stop offset="0.715" stop-color="#FBD67E"/>
<stop offset="0.84" stop-color="#F9C762"/>
<stop offset="1" stop-color="#F1B856"/>
</linearGradient>
<clipPath id="clip0_168_137">
<rect width="460.5" height="282" fill="white"/>
</clipPath>
</defs>
</svg>
