<svg width="228" height="92" viewBox="0 0 228 92" fill="none" xmlns="http://www.w3.org/2000/svg">
<g filter="url(#filter0_d_145_8240)">
<path d="M28.8069 24.272C29.4682 24.272 29.9375 24.4533 30.2149 24.816C30.4922 25.1573 30.6309 25.52 30.6309 25.904C30.6309 26.4373 30.3642 27.0027 29.8309 27.6C29.2975 28.1973 28.6042 28.752 27.7509 29.264C26.9189 29.7547 26.0229 30.16 25.0629 30.48C24.1029 30.8 23.1855 30.96 22.3109 30.96C21.0095 30.96 19.7615 30.608 18.5669 29.904C17.3935 29.1787 16.4335 28.1653 15.6869 26.864C14.9615 25.5627 14.5989 24.016 14.5989 22.224C14.5989 20.752 14.8762 19.2907 15.4309 17.84C16.0069 16.3893 16.7642 14.992 17.7029 13.648C18.6629 12.304 19.7082 11.056 20.8389 9.904C21.9909 8.752 23.1429 7.74933 24.2949 6.896C25.4682 6.04267 26.5455 5.38133 27.5269 4.912C28.5082 4.42133 29.2975 4.176 29.8949 4.176C30.6415 4.176 31.1962 4.368 31.5589 4.752C31.9429 5.11467 32.1349 5.62667 32.1349 6.288C32.1349 6.82133 32.0282 7.23733 31.8149 7.536C31.6229 7.81333 31.3135 8.05867 30.8869 8.272C29.5215 8.976 28.1349 9.82933 26.7269 10.832C25.3402 11.8347 24.0709 12.944 22.9189 14.16C21.7669 15.3547 20.8389 16.6133 20.1349 17.936C19.4309 19.2587 19.0789 20.6027 19.0789 21.968C19.0789 23.4613 19.3775 24.592 19.9749 25.36C20.5722 26.128 21.3829 26.512 22.4069 26.512C22.9189 26.512 23.4735 26.4053 24.0709 26.192C24.6682 25.9573 25.2549 25.6907 25.8309 25.392C26.4282 25.0933 26.9829 24.8373 27.4949 24.624C28.0282 24.3893 28.4655 24.272 28.8069 24.272ZM41.9861 31.6C40.0661 31.6 38.5515 31.0133 37.4421 29.84C36.3541 28.6453 35.8101 26.9493 35.8101 24.752C35.8101 23.5573 35.9701 22.16 36.2901 20.56C36.6101 18.9387 37.0261 17.232 37.5381 15.44C38.0715 13.6267 38.6368 11.8347 39.2341 10.064C39.8528 8.29333 40.4608 6.65067 41.0581 5.136C41.6555 3.62133 42.1781 2.352 42.6261 1.328C43.0101 0.538666 43.5541 0.143999 44.2581 0.143999C44.7061 0.143999 45.0688 0.282666 45.3461 0.559999C45.6448 0.837332 45.7941 1.28533 45.7941 1.904C45.7941 2.20267 45.6448 2.85333 45.3461 3.856C45.0475 4.85867 44.6528 6.096 44.1621 7.568C43.6928 9.01867 43.1808 10.5867 42.6261 12.272C42.0928 13.9573 41.5808 15.6533 41.0901 17.36C40.6208 19.0667 40.2368 20.6773 39.9381 22.192C39.6395 23.6853 39.4901 24.9547 39.4901 26C39.4901 26.4267 39.6075 26.768 39.8421 27.024C40.0981 27.28 40.4288 27.408 40.8341 27.408C41.7088 27.408 42.6048 27.248 43.5221 26.928C44.4608 26.608 45.3781 26.2027 46.2741 25.712C47.1915 25.2213 48.0555 24.6987 48.8661 24.144C49.6768 23.5893 50.4021 23.0667 51.0421 22.576C51.7035 22.064 52.2368 21.6587 52.6421 21.36C53.1755 20.9547 53.5381 20.752 53.7301 20.752C54.4555 20.752 54.8181 21.104 54.8181 21.808C54.8181 21.9787 54.6048 22.3307 54.1781 22.864C53.8155 23.3333 53.3035 23.9307 52.6421 24.656C51.9808 25.3813 51.2128 26.1493 50.3381 26.96C49.4848 27.7493 48.5675 28.496 47.5861 29.2C46.6261 29.904 45.6661 30.48 44.7061 30.928C43.7461 31.376 42.8395 31.6 41.9861 31.6ZM54.4489 31.216C53.7662 31.216 53.1475 31.024 52.5929 30.64C52.0382 30.2773 51.6009 29.7973 51.2809 29.2C50.9609 28.5813 50.8009 27.92 50.8009 27.216C50.8009 25.8933 51.0889 24.6027 51.6649 23.344C52.2622 22.0853 53.0409 20.8907 54.0009 19.76C54.9609 18.6293 56.0062 17.5947 57.1369 16.656C58.2889 15.696 59.4302 14.8747 60.5609 14.192C61.7129 13.5093 62.7582 12.976 63.6969 12.592C64.6569 12.208 65.4035 12.016 65.9369 12.016C66.5555 12.016 67.0569 12.1547 67.4409 12.432C67.8462 12.688 68.0489 13.0933 68.0489 13.648C68.0489 13.8187 68.0062 13.9573 67.9209 14.064C68.1982 14.128 68.4222 14.288 68.5929 14.544C68.7635 14.8 68.8489 15.184 68.8489 15.696C68.8489 15.9093 68.7955 16.464 68.6889 17.36C68.5822 18.256 68.4649 19.344 68.3369 20.624C68.2302 21.904 68.1769 23.2373 68.1769 24.624C68.1769 24.8373 68.2089 25.0293 68.2729 25.2C68.3369 25.3493 68.4755 25.424 68.6889 25.424C69.5422 25.424 70.4062 25.2533 71.2809 24.912C72.1769 24.5493 73.0409 24.112 73.8729 23.6C74.7262 23.0667 75.4942 22.544 76.1769 22.032C76.8809 21.4987 77.4675 21.0613 77.9369 20.72C78.4275 20.3573 78.7475 20.176 78.8969 20.176C79.6222 20.176 79.9849 20.5387 79.9849 21.264C79.9849 21.456 79.7502 21.8613 79.2809 22.48C78.8329 23.0773 78.2142 23.7707 77.4249 24.56C76.6355 25.328 75.7502 26.096 74.7689 26.864C73.8089 27.6107 72.8062 28.2293 71.7609 28.72C70.7369 29.2107 69.7449 29.456 68.7849 29.456C67.6115 29.456 66.7155 29.1787 66.0969 28.624C65.4995 28.0693 65.0729 27.3227 64.8169 26.384C64.5822 25.424 64.4542 24.3467 64.4329 23.152C63.3449 24.7093 62.2142 26.096 61.0409 27.312C59.8889 28.5067 58.7475 29.456 57.6169 30.16C56.4862 30.864 55.4302 31.216 54.4489 31.216ZM65.7769 15.184C63.6862 16.1867 61.8089 17.3387 60.1449 18.64C58.4809 19.92 57.1582 21.264 56.1769 22.672C55.2169 24.08 54.7369 25.4347 54.7369 26.736C54.7369 27.0987 54.9075 27.28 55.2489 27.28C55.6542 27.28 56.1875 27.0453 56.8489 26.576C57.5315 26.1067 58.2675 25.488 59.0569 24.72C59.8462 23.9307 60.6355 23.056 61.4249 22.096C62.2142 21.1147 62.9502 20.112 63.6329 19.088C64.3155 18.064 64.8595 17.0827 65.2649 16.144C65.4142 15.8027 65.5849 15.4827 65.7769 15.184ZM78.5736 30.48C77.9763 30.48 77.443 30.2773 76.9736 29.872C76.5256 29.4667 76.3016 28.8053 76.3016 27.888C76.3016 27.3973 76.3656 26.704 76.4936 25.808C76.643 24.912 76.835 23.9413 77.0696 22.896C77.3043 21.8293 77.5603 20.7733 77.8376 19.728C78.1363 18.6827 78.4243 17.7547 78.7016 16.944C78.979 16.112 79.2243 15.4933 79.4376 15.088C79.715 14.5973 79.971 14.2987 80.2056 14.192C80.4616 14.064 80.707 14 80.9416 14C81.3683 14 81.763 14.128 82.1256 14.384C82.5096 14.64 82.7016 15.2053 82.7016 16.08C82.7016 16.4213 82.6376 16.976 82.5096 17.744C82.3816 18.4907 82.2216 19.3653 82.0296 20.368C81.8376 21.3707 81.6243 22.4053 81.3896 23.472C81.1763 24.5387 80.963 25.552 80.7496 26.512C80.5576 27.4507 80.3976 28.24 80.2696 28.88C80.163 29.4133 79.939 29.808 79.5976 30.064C79.2776 30.3413 78.9363 30.48 78.5736 30.48ZM82.2536 10.832C81.5496 10.832 80.899 10.6293 80.3016 10.224C79.7043 9.79733 79.4056 9.14667 79.4056 8.272C79.4056 7.54667 79.587 6.96 79.9496 6.512C80.3123 6.064 80.739 5.744 81.2296 5.552C81.7416 5.33867 82.1896 5.232 82.5736 5.232C82.9576 5.232 83.3843 5.31733 83.8536 5.488C84.323 5.63733 84.7283 5.92533 85.0696 6.352C85.4323 6.75733 85.6136 7.344 85.6136 8.112C85.6136 8.624 85.4323 9.09333 85.0696 9.52C84.707 9.92533 84.259 10.2453 83.7256 10.48C83.2136 10.7147 82.723 10.832 82.2536 10.832ZM115.689 29.264C115.561 30.416 114.878 30.992 113.641 30.992C113.001 30.992 112.489 30.8 112.105 30.416C111.742 30.032 111.561 29.4773 111.561 28.752C111.561 27.5147 111.614 26.192 111.721 24.784C111.849 23.3547 111.998 21.9147 112.169 20.464C112.361 19.0133 112.542 17.6267 112.713 16.304C111.945 17.4133 111.134 18.5547 110.281 19.728C109.428 20.9013 108.574 22.0427 107.721 23.152C106.868 24.2613 106.046 25.264 105.257 26.16C104.489 27.0347 103.785 27.7387 103.145 28.272C102.505 28.784 101.972 29.04 101.545 29.04C100.521 29.04 99.6355 28.6667 98.8889 27.92C98.1422 27.152 97.7689 26.1813 97.7689 25.008C97.7689 24.6027 97.8115 24.0587 97.8969 23.376C97.9822 22.672 98.0889 21.9253 98.2169 21.136C98.3449 20.3467 98.4515 19.6 98.5369 18.896C98.6222 18.192 98.6649 17.6373 98.6649 17.232C98.6649 17.232 98.6649 17.2107 98.6649 17.168C98.6862 17.0613 98.6649 17.008 98.6009 17.008C98.5155 17.008 98.2809 17.296 97.8969 17.872C97.5129 18.4267 97.0435 19.152 96.4889 20.048C95.9342 20.944 95.3475 21.8827 94.7289 22.864C94.1315 23.8453 93.5662 24.7627 93.0329 25.616C92.5209 26.4693 92.0942 27.1307 91.7529 27.6C91.2835 28.3253 90.8462 28.784 90.4409 28.976C90.0355 29.168 89.5662 29.264 89.0329 29.264C88.2862 29.264 87.6995 29.0187 87.2729 28.528C86.8675 28.016 86.6649 27.3013 86.6649 26.384C86.6649 26 86.7289 25.4027 86.8569 24.592C87.0062 23.7813 87.1875 22.8853 87.4009 21.904C87.6142 20.9013 87.8275 19.9307 88.0409 18.992C88.2755 18.032 88.4782 17.2213 88.6489 16.56C88.8409 15.6853 89.1075 15.0773 89.4489 14.736C89.8115 14.3733 90.2702 14.192 90.8249 14.192C92.1262 14.192 92.7769 14.832 92.7769 16.112C92.7769 16.3467 92.7022 16.7307 92.5529 17.264C92.4035 17.7973 92.2222 18.416 92.0089 19.12C91.7955 19.824 91.5715 20.5493 91.3369 21.296C91.1022 22.0213 90.9102 22.704 90.7609 23.344C91.2729 22.448 91.8275 21.488 92.4249 20.464C93.0222 19.44 93.6302 18.4373 94.2489 17.456C94.8889 16.4747 95.5182 15.5787 96.1369 14.768C96.7769 13.9573 97.4062 13.3173 98.0249 12.848C98.6435 12.3573 99.2302 12.112 99.7849 12.112C100.34 12.112 100.884 12.3147 101.417 12.72C101.95 13.104 102.388 13.6053 102.729 14.224C103.092 14.8213 103.273 15.4613 103.273 16.144C103.273 16.784 103.188 17.552 103.017 18.448C102.846 19.344 102.654 20.2827 102.441 21.264C102.228 22.2453 102.078 23.2053 101.993 24.144C102.718 23.3333 103.486 22.416 104.297 21.392C105.108 20.3467 105.94 19.2693 106.793 18.16C107.646 17.0507 108.478 15.9733 109.289 14.928C110.121 13.8827 110.889 12.9333 111.593 12.08C112.318 11.2267 112.958 10.5547 113.513 10.064C114.068 9.552 114.494 9.296 114.793 9.296C115.668 9.296 116.35 9.53067 116.841 10C117.353 10.448 117.609 11.2373 117.609 12.368C117.609 13.072 117.556 13.9893 117.449 15.12C117.364 16.2507 117.236 17.4773 117.065 18.8C116.916 20.1013 116.745 21.424 116.553 22.768C116.382 24.0907 116.222 25.3173 116.073 26.448C115.924 27.5787 115.796 28.5173 115.689 29.264ZM150.135 33.232C149.282 33.232 148.663 33.0187 148.279 32.592C147.895 32.1653 147.703 31.664 147.703 31.088C147.703 30.4053 148.066 28.88 148.791 26.512C149.516 24.1227 150.69 20.88 152.311 16.784C151.564 17.7227 150.807 18.5867 150.039 19.376C149.271 20.1653 148.503 20.7947 147.735 21.264C146.988 21.712 146.252 21.936 145.527 21.936C143.927 21.936 142.679 21.4453 141.783 20.464C140.887 19.4827 140.439 17.9147 140.439 15.76C140.439 13.5413 140.61 11.6533 140.951 10.096C141.292 8.51733 141.708 7.23733 142.199 6.256C142.69 5.27467 143.17 4.56 143.639 4.112C144.108 3.64267 144.471 3.408 144.727 3.408C145.495 3.408 146.082 3.58933 146.487 3.952C146.914 4.29333 147.127 4.77333 147.127 5.392C147.127 5.98933 146.999 6.62933 146.743 7.312C146.508 7.99467 146.231 8.784 145.911 9.68C145.591 10.576 145.303 11.6427 145.047 12.88C144.812 14.096 144.695 15.5467 144.695 17.232C144.695 17.616 144.823 17.808 145.079 17.808C145.826 17.808 146.594 17.5413 147.383 17.008C148.194 16.4533 148.994 15.7387 149.783 14.864C150.594 13.9893 151.362 13.0293 152.087 11.984C152.812 10.9173 153.474 9.86133 154.071 8.816C154.69 7.77067 155.202 6.832 155.607 6C155.863 5.50933 156.098 5.06133 156.311 4.656C156.524 4.22933 156.802 3.89867 157.143 3.664C157.484 3.408 157.954 3.28 158.551 3.28C159.298 3.28 159.863 3.48267 160.247 3.888C160.652 4.29333 160.855 4.86933 160.855 5.616C160.855 6.04267 160.45 7.216 159.639 9.136C158.828 11.0347 157.794 13.8827 156.535 17.68C155.618 20.4533 154.85 22.7787 154.231 24.656C153.612 26.5333 153.09 28.048 152.663 29.2C152.258 30.3307 151.916 31.184 151.639 31.76C151.362 32.336 151.106 32.72 150.871 32.912C150.636 33.1253 150.391 33.232 150.135 33.232ZM167.618 31.056C166.103 31.056 164.887 30.5227 163.97 29.456C163.053 28.368 162.594 26.9173 162.594 25.104C162.594 24.528 162.669 23.9413 162.818 23.344C162.989 22.7467 163.191 22.192 163.426 21.68C163.298 21.488 163.191 21.2427 163.106 20.944C163.042 20.624 163.01 20.2507 163.01 19.824C163.01 18.4373 163.255 17.168 163.746 16.016C164.237 14.8427 164.898 13.8293 165.73 12.976C166.562 12.1227 167.479 11.4613 168.482 10.992C169.485 10.5227 170.498 10.288 171.522 10.288C173.271 10.288 174.701 10.8747 175.81 12.048C176.941 13.2213 177.506 15.0453 177.506 17.52C177.506 18.7573 177.314 20.016 176.93 21.296C176.546 22.576 176.023 23.8027 175.362 24.976C174.722 26.128 173.975 27.1627 173.122 28.08C172.29 28.9973 171.394 29.7227 170.434 30.256C169.495 30.7893 168.557 31.056 167.618 31.056ZM167.106 20.24C167.213 20.4747 167.266 20.752 167.266 21.072C167.266 21.392 167.202 21.7227 167.074 22.064C166.946 22.4053 166.818 22.864 166.69 23.44C166.562 23.9947 166.498 24.7947 166.498 25.84C166.498 26.1173 166.53 26.352 166.594 26.544C166.679 26.7147 166.861 26.8 167.138 26.8C167.863 26.8 168.546 26.5653 169.186 26.096C169.847 25.6267 170.434 25.008 170.946 24.24C171.479 23.472 171.927 22.6187 172.29 21.68C172.674 20.72 172.962 19.7493 173.154 18.768C173.367 17.7653 173.474 16.8373 173.474 15.984C173.474 15.4293 173.367 15.0453 173.154 14.832C172.941 14.6187 172.567 14.512 172.034 14.512C171.309 14.512 170.562 14.7467 169.794 15.216C169.047 15.664 168.418 16.2827 167.906 17.072C167.394 17.84 167.138 18.7147 167.138 19.696C167.138 19.888 167.127 20.0693 167.106 20.24ZM193.555 31.44C193.064 31.44 192.616 31.2373 192.211 30.832C191.827 30.448 191.635 29.7973 191.635 28.88C191.635 28.1973 191.688 27.248 191.795 26.032C191.923 24.7947 192.158 23.2053 192.499 21.264C191.752 22.8 190.974 24.1653 190.163 25.36C189.352 26.5547 188.552 27.4933 187.763 28.176C186.995 28.8373 186.259 29.168 185.555 29.168C184.424 29.168 183.528 28.8267 182.867 28.144C182.206 27.44 181.875 26.128 181.875 24.208C181.875 23.2907 181.95 22.256 182.099 21.104C182.27 19.952 182.483 18.8 182.739 17.648C182.995 16.496 183.251 15.472 183.507 14.576C183.784 13.6587 184.03 12.976 184.243 12.528C184.414 12.144 184.627 11.8453 184.883 11.632C185.16 11.4187 185.512 11.312 185.939 11.312C186.622 11.312 187.144 11.536 187.507 11.984C187.87 12.432 188.051 12.8907 188.051 13.36C188.051 13.7227 187.966 14.2453 187.795 14.928C187.646 15.6107 187.454 16.368 187.219 17.2C187.006 18.032 186.782 18.8853 186.547 19.76C186.312 20.6347 186.11 21.456 185.939 22.224C185.79 22.992 185.715 23.6427 185.715 24.176C185.715 24.8373 185.971 25.168 186.483 25.168C186.782 25.168 187.166 24.88 187.635 24.304C188.126 23.728 188.638 22.96 189.171 22C189.726 21.0187 190.28 19.952 190.835 18.8C191.411 17.6267 191.934 16.4427 192.403 15.248C192.894 14.032 193.31 12.912 193.651 11.888C193.864 11.248 194.152 10.8 194.515 10.544C194.878 10.288 195.294 10.16 195.763 10.16C196.488 10.16 197.043 10.3627 197.427 10.768C197.832 11.1733 198.035 11.7493 198.035 12.496C198.035 12.8373 197.982 13.4133 197.875 14.224C197.768 15.0347 197.63 15.984 197.459 17.072C197.31 18.16 197.128 19.312 196.915 20.528C196.702 21.744 196.488 22.9387 196.275 24.112C196.083 25.2853 195.891 26.3627 195.699 27.344C195.507 28.304 195.347 29.072 195.219 29.648C195.006 30.5013 194.75 31.0133 194.451 31.184C194.152 31.3547 193.854 31.44 193.555 31.44ZM203.437 31.408C202.903 31.408 202.445 31.216 202.061 30.832C201.698 30.448 201.517 29.8933 201.517 29.168C201.517 28.848 201.559 28.3253 201.645 27.6C201.751 26.8533 201.879 26 202.029 25.04C202.199 24.08 202.359 23.0773 202.509 22.032C202.679 20.9867 202.818 19.9947 202.925 19.056C203.053 18.1173 203.138 17.3173 203.181 16.656C203.223 15.8453 203.437 15.2693 203.821 14.928C204.205 14.5653 204.663 14.384 205.197 14.384C205.623 14.384 206.007 14.4907 206.349 14.704C206.711 14.896 206.935 15.312 207.021 15.952C207.127 16.5707 207.138 17.4667 207.053 18.64C207.991 16.9333 208.941 15.408 209.901 14.064C210.882 12.72 211.906 11.6533 212.973 10.864C214.743 9.52 216.343 8.848 217.773 8.848C218.583 8.848 219.117 9.02933 219.373 9.392C219.629 9.75467 219.757 10.128 219.757 10.512C219.757 10.768 219.693 11.0027 219.565 11.216C219.458 11.4293 219.223 11.6533 218.861 11.888C218.498 12.1227 217.943 12.432 217.197 12.816C216.194 13.328 215.202 14 214.221 14.832C213.261 15.664 212.301 16.7307 211.341 18.032C210.381 19.3333 209.41 20.9333 208.429 22.832C207.447 24.7307 206.434 26.992 205.389 29.616C205.197 30.3413 204.919 30.8213 204.557 31.056C204.215 31.2907 203.842 31.408 203.437 31.408ZM25.1935 54C25.1935 55.664 25.0442 57.424 24.7455 59.28C24.4682 61.1147 24.0095 62.9173 23.3695 64.688C22.7508 66.4373 21.9295 68.0267 20.9055 69.456C19.8815 70.8853 18.6442 72.0267 17.1935 72.88C15.7642 73.7333 14.0895 74.16 12.1695 74.16C9.97217 74.16 8.2015 73.456 6.8575 72.048C5.5135 70.64 4.8415 68.4853 4.8415 65.584C4.8415 64.1547 5.0015 62.7573 5.3215 61.392C5.66283 60.0053 6.0255 58.7573 6.4095 57.648C6.36683 57.456 6.3455 57.232 6.3455 56.976C6.3455 56.0587 6.48417 55.1947 6.7615 54.384C7.06017 53.552 7.4335 52.8267 7.8815 52.208C8.35083 51.568 8.8415 51.0667 9.3535 50.704C9.88683 50.3413 10.3882 50.16 10.8575 50.16C11.3482 50.16 11.7748 50.3307 12.1375 50.672C12.5215 50.992 12.7135 51.5573 12.7135 52.368C12.7135 52.8587 12.5322 53.5413 12.1695 54.416C11.8282 55.2693 11.4335 56.2933 10.9855 57.488C10.5375 58.6613 10.1322 59.984 9.7695 61.456C9.42817 62.9067 9.2575 64.464 9.2575 66.128C9.2575 68.432 10.4095 69.584 12.7135 69.584C13.9082 69.584 14.9322 69.2427 15.7855 68.56C16.6602 67.856 17.3748 66.9173 17.9295 65.744C18.5055 64.5707 18.9748 63.248 19.3375 61.776C19.7002 60.304 19.9775 58.7893 20.1695 57.232C20.3615 55.6533 20.5002 54.1387 20.5855 52.688C20.6495 51.8773 20.8948 51.2907 21.3215 50.928C21.7695 50.5653 22.3028 50.384 22.9215 50.384C23.3268 50.384 23.7002 50.4587 24.0415 50.608C24.3828 50.736 24.6602 51.056 24.8735 51.568C25.0868 52.08 25.1935 52.8907 25.1935 54ZM31.998 74C31.486 74 30.974 73.8293 30.462 73.488C29.9713 73.1253 29.566 72.6133 29.246 71.952C28.926 71.2693 28.766 70.448 28.766 69.488C28.766 68.208 28.9367 66.8427 29.278 65.392C29.6407 63.9413 30.078 62.4907 30.59 61.04C31.102 59.5893 31.6033 58.224 32.094 56.944C32.3287 56.3253 32.6167 55.9093 32.958 55.696C33.2993 55.4613 33.7473 55.344 34.302 55.344C35.5607 55.344 36.19 55.9733 36.19 57.232C36.19 57.4453 36.094 57.8613 35.902 58.48C35.71 59.0773 35.454 59.8133 35.134 60.688C34.8353 61.5627 34.5153 62.512 34.174 63.536C33.854 64.5387 33.5553 65.5627 33.278 66.608C33.022 67.632 32.8193 68.6027 32.67 69.52C33.1607 68.7733 33.7047 67.8453 34.302 66.736C34.9207 65.6053 35.5713 64.4213 36.254 63.184C36.958 61.9467 37.662 60.7947 38.366 59.728C39.07 58.64 39.7633 57.7547 40.446 57.072C41.1287 56.3893 41.7793 56.048 42.398 56.048C42.9313 56.048 43.4327 56.1547 43.902 56.368C44.3927 56.56 44.8193 56.944 45.182 57.52C45.5447 58.0747 45.822 58.8747 46.014 59.92C46.2273 60.9653 46.334 62.3413 46.334 64.048C46.334 64.9013 46.4087 65.7333 46.558 66.544C46.7287 67.3333 47.006 67.9947 47.39 68.528C47.774 69.04 48.318 69.296 49.022 69.296C50.238 69.296 51.326 69.072 52.286 68.624C53.246 68.176 54.0887 67.6533 54.814 67.056C55.5393 66.4587 56.1473 65.936 56.638 65.488C56.9367 65.1893 57.1927 64.9547 57.406 64.784C57.6407 64.6133 57.8327 64.528 57.982 64.528C58.43 64.528 58.75 64.6453 58.942 64.88C59.1553 65.1147 59.262 65.4347 59.262 65.84C59.262 66.0533 59.0807 66.448 58.718 67.024C58.3553 67.6 57.8433 68.2613 57.182 69.008C56.542 69.7333 55.806 70.4373 54.974 71.12C54.142 71.8027 53.246 72.368 52.286 72.816C51.326 73.264 50.3447 73.488 49.342 73.488C47.6567 73.488 46.2593 73.1893 45.15 72.592C44.062 71.9733 43.2513 70.9493 42.718 69.52C42.1847 68.0693 41.918 66.096 41.918 63.6C41.918 63.536 41.918 63.4293 41.918 63.28C41.918 62.6187 41.9073 62.032 41.886 61.52C41.886 61.008 41.854 60.592 41.79 60.272C41.4273 60.9333 40.99 61.7227 40.478 62.64C39.9873 63.5573 39.454 64.5387 38.878 65.584C38.302 66.608 37.7047 67.6213 37.086 68.624C36.4673 69.6053 35.8487 70.5013 35.23 71.312C34.6327 72.1227 34.0567 72.7733 33.502 73.264C32.9473 73.7547 32.446 74 31.998 74ZM57.6518 74.48C57.0544 74.48 56.5211 74.2773 56.0518 73.872C55.6038 73.4667 55.3798 72.8053 55.3798 71.888C55.3798 71.3973 55.4438 70.704 55.5718 69.808C55.7211 68.912 55.9131 67.9413 56.1478 66.896C56.3824 65.8293 56.6384 64.7733 56.9158 63.728C57.2144 62.6827 57.5024 61.7547 57.7798 60.944C58.0571 60.112 58.3024 59.4933 58.5158 59.088C58.7931 58.5973 59.0491 58.2987 59.2838 58.192C59.5398 58.064 59.7851 58 60.0198 58C60.4464 58 60.8411 58.128 61.2038 58.384C61.5878 58.64 61.7798 59.2053 61.7798 60.08C61.7798 60.4213 61.7158 60.976 61.5878 61.744C61.4598 62.4907 61.2998 63.3653 61.1078 64.368C60.9158 65.3707 60.7024 66.4053 60.4678 67.472C60.2544 68.5387 60.0411 69.552 59.8278 70.512C59.6358 71.4507 59.4758 72.24 59.3478 72.88C59.2411 73.4133 59.0171 73.808 58.6758 74.064C58.3558 74.3413 58.0144 74.48 57.6518 74.48ZM61.3318 54.832C60.6278 54.832 59.9771 54.6293 59.3798 54.224C58.7824 53.7973 58.4838 53.1467 58.4838 52.272C58.4838 51.5467 58.6651 50.96 59.0278 50.512C59.3904 50.064 59.8171 49.744 60.3078 49.552C60.8198 49.3387 61.2678 49.232 61.6518 49.232C62.0358 49.232 62.4624 49.3173 62.9318 49.488C63.4011 49.6373 63.8064 49.9253 64.1478 50.352C64.5104 50.7573 64.6918 51.344 64.6918 52.112C64.6918 52.624 64.5104 53.0933 64.1478 53.52C63.7851 53.9253 63.3371 54.2453 62.8038 54.48C62.2918 54.7147 61.8011 54.832 61.3318 54.832ZM77.7073 83.664C76.9606 83.664 76.4059 83.3973 76.0433 82.864C75.7019 82.352 75.5313 81.6907 75.5313 80.88C75.5313 80.7947 75.5846 80.4 75.6913 79.696C75.8193 78.992 75.9899 78.0853 76.2033 76.976C76.4166 75.8667 76.6513 74.6293 76.9073 73.264C77.1633 71.8773 77.4299 70.4587 77.7073 69.008C77.9846 67.536 78.2513 66.1173 78.5073 64.752C77.5899 66.48 76.6193 68.08 75.5953 69.552C74.5713 71.024 73.5259 72.208 72.4593 73.104C71.3926 73.9787 70.3473 74.416 69.3233 74.416C67.9793 74.416 66.9446 74 66.2193 73.168C65.5153 72.336 65.1633 71.2693 65.1633 69.968C65.1633 68.7733 65.4619 67.536 66.0593 66.256C66.6779 64.9547 67.4779 63.6747 68.4593 62.416C69.4619 61.136 70.5606 59.9307 71.7552 58.8C72.9713 57.6693 74.1873 56.6667 75.4033 55.792C76.6193 54.9173 77.7393 54.2347 78.7633 53.744C79.8086 53.232 80.6513 52.976 81.2913 52.976C82.1019 52.976 82.6886 53.1467 83.0513 53.488C83.4353 53.808 83.6273 54.3733 83.6273 55.184C83.6273 55.5893 83.5633 56.3147 83.4353 57.36C83.3073 58.4053 83.1366 59.6533 82.9233 61.104C82.7099 62.5547 82.4646 64.112 82.1873 65.776C81.9313 67.44 81.6646 69.1147 81.3873 70.8C81.1099 72.464 80.8433 74.0427 80.5873 75.536C80.3313 77.0293 80.1073 78.3413 79.9153 79.472C79.7233 80.6027 79.5739 81.4347 79.4673 81.968C79.3819 82.5013 79.2006 82.9173 78.9233 83.216C78.6459 83.5147 78.2406 83.664 77.7073 83.664ZM69.1633 70.736C69.7179 70.736 70.3366 70.448 71.0193 69.872C71.7019 69.2747 72.4166 68.496 73.1633 67.536C73.9099 66.5547 74.6566 65.456 75.4033 64.24C76.1499 63.024 76.8646 61.7867 77.5473 60.528C78.2513 59.248 78.8806 58.032 79.4353 56.88C78.1979 57.7547 76.9606 58.7253 75.7233 59.792C74.4859 60.8373 73.3553 61.9467 72.3313 63.12C71.3073 64.272 70.4859 65.456 69.8673 66.672C69.2486 67.888 68.9393 69.104 68.9393 70.32C68.9393 70.4267 68.9499 70.5227 68.9713 70.608C68.9926 70.6933 69.0566 70.736 69.1633 70.736ZM99.8205 75.44C99.3298 75.44 98.8818 75.2373 98.4765 74.832C98.0925 74.448 97.9005 73.7973 97.9005 72.88C97.9005 72.1973 97.9538 71.248 98.0605 70.032C98.1885 68.7947 98.4232 67.2053 98.7645 65.264C98.0178 66.8 97.2392 68.1653 96.4285 69.36C95.6178 70.5547 94.8178 71.4933 94.0285 72.176C93.2605 72.8373 92.5245 73.168 91.8205 73.168C90.6898 73.168 89.7938 72.8267 89.1325 72.144C88.4712 71.44 88.1405 70.128 88.1405 68.208C88.1405 67.2907 88.2152 66.256 88.3645 65.104C88.5352 63.952 88.7485 62.8 89.0045 61.648C89.2605 60.496 89.5165 59.472 89.7725 58.576C90.0498 57.6587 90.2952 56.976 90.5085 56.528C90.6792 56.144 90.8925 55.8453 91.1485 55.632C91.4258 55.4187 91.7778 55.312 92.2045 55.312C92.8872 55.312 93.4098 55.536 93.7725 55.984C94.1352 56.432 94.3165 56.8907 94.3165 57.36C94.3165 57.7227 94.2312 58.2453 94.0605 58.928C93.9112 59.6107 93.7192 60.368 93.4845 61.2C93.2712 62.032 93.0472 62.8853 92.8125 63.76C92.5778 64.6347 92.3752 65.456 92.2045 66.224C92.0552 66.992 91.9805 67.6427 91.9805 68.176C91.9805 68.8373 92.2365 69.168 92.7485 69.168C93.0472 69.168 93.4312 68.88 93.9005 68.304C94.3912 67.728 94.9032 66.96 95.4365 66C95.9912 65.0187 96.5458 63.952 97.1005 62.8C97.6765 61.6267 98.1992 60.4427 98.6685 59.248C99.1592 58.032 99.5752 56.912 99.9165 55.888C100.13 55.248 100.418 54.8 100.781 54.544C101.143 54.288 101.559 54.16 102.029 54.16C102.754 54.16 103.309 54.3627 103.693 54.768C104.098 55.1733 104.301 55.7493 104.301 56.496C104.301 56.8373 104.247 57.4133 104.141 58.224C104.034 59.0347 103.895 59.984 103.725 61.072C103.575 62.16 103.394 63.312 103.181 64.528C102.967 65.744 102.754 66.9387 102.541 68.112C102.349 69.2853 102.157 70.3627 101.965 71.344C101.773 72.304 101.613 73.072 101.485 73.648C101.271 74.5013 101.015 75.0133 100.717 75.184C100.418 75.3547 100.119 75.44 99.8205 75.44ZM112.99 75.088C111.667 75.088 110.6 74.6293 109.79 73.712C108.979 72.7733 108.574 71.2693 108.574 69.2C108.574 67.8773 108.723 66.5547 109.022 65.232C109.342 63.888 109.779 62.6187 110.334 61.424C110.91 60.208 111.571 59.1307 112.318 58.192C113.086 57.2533 113.928 56.5173 114.845 55.984C115.763 55.4293 116.712 55.152 117.694 55.152C119.358 55.152 120.659 55.6 121.597 56.496C122.536 57.392 123.006 58.5333 123.006 59.92C123.006 60.9867 122.707 61.9573 122.11 62.832C121.534 63.6853 120.744 64.4533 119.742 65.136C118.739 65.8187 117.619 66.4373 116.382 66.992C115.144 67.5467 113.875 68.048 112.574 68.496C112.467 69.264 112.414 69.9467 112.414 70.544C112.414 70.9067 112.616 71.088 113.022 71.088C113.982 71.088 115.006 70.9387 116.094 70.64C117.203 70.32 118.323 69.9147 119.454 69.424C120.584 68.912 121.672 68.3893 122.718 67.856C123.763 67.3013 124.712 66.7787 125.566 66.288C126.44 65.776 127.155 65.3707 127.71 65.072C128.286 64.752 128.659 64.592 128.83 64.592C129.299 64.592 129.64 64.7307 129.854 65.008C130.067 65.2853 130.174 65.584 130.174 65.904C130.174 66.0533 129.886 66.384 129.31 66.896C128.755 67.408 127.987 68.016 127.006 68.72C126.046 69.4027 124.958 70.1173 123.742 70.864C122.547 71.5893 121.299 72.2827 119.998 72.944C118.718 73.584 117.47 74.096 116.254 74.48C115.059 74.8853 113.971 75.088 112.99 75.088ZM113.118 65.648C113.992 65.136 114.856 64.6027 115.71 64.048C116.584 63.472 117.31 62.832 117.886 62.128C118.462 61.4027 118.75 60.56 118.75 59.6C118.75 59.3227 118.675 59.1413 118.526 59.056C118.376 58.9493 118.163 58.896 117.886 58.896C117.139 58.896 116.456 59.2267 115.838 59.888C115.24 60.5493 114.707 61.4027 114.238 62.448C113.79 63.472 113.416 64.5387 113.118 65.648ZM164.287 54C164.287 55.664 164.138 57.424 163.839 59.28C163.562 61.1147 163.103 62.9173 162.463 64.688C161.845 66.4373 161.023 68.0267 159.999 69.456C158.975 70.8853 157.738 72.0267 156.287 72.88C154.858 73.7333 153.183 74.16 151.263 74.16C149.066 74.16 147.295 73.456 145.951 72.048C144.607 70.64 143.935 68.4853 143.935 65.584C143.935 64.1547 144.095 62.7573 144.415 61.392C144.757 60.0053 145.119 58.7573 145.503 57.648C145.461 57.456 145.439 57.232 145.439 56.976C145.439 56.0587 145.578 55.1947 145.855 54.384C146.154 53.552 146.527 52.8267 146.975 52.208C147.445 51.568 147.935 51.0667 148.447 50.704C148.981 50.3413 149.482 50.16 149.951 50.16C150.442 50.16 150.869 50.3307 151.231 50.672C151.615 50.992 151.807 51.5573 151.807 52.368C151.807 52.8587 151.626 53.5413 151.263 54.416C150.922 55.2693 150.527 56.2933 150.079 57.488C149.631 58.6613 149.226 59.984 148.863 61.456C148.522 62.9067 148.351 64.464 148.351 66.128C148.351 68.432 149.503 69.584 151.807 69.584C153.002 69.584 154.026 69.2427 154.879 68.56C155.754 67.856 156.469 66.9173 157.023 65.744C157.599 64.5707 158.069 63.248 158.431 61.776C158.794 60.304 159.071 58.7893 159.263 57.232C159.455 55.6533 159.594 54.1387 159.679 52.688C159.743 51.8773 159.989 51.2907 160.415 50.928C160.863 50.5653 161.397 50.384 162.015 50.384C162.421 50.384 162.794 50.4587 163.135 50.608C163.477 50.736 163.754 51.056 163.967 51.568C164.181 52.08 164.287 52.8907 164.287 54ZM175.399 73.84C174.61 73.84 174.023 73.5307 173.639 72.912C173.255 72.272 173.063 71.12 173.063 69.456C173.063 67.3227 173.255 65.2213 173.639 63.152C174.045 61.0827 174.61 59.1413 175.335 57.328C176.082 55.5147 176.978 53.9253 178.023 52.56C179.09 51.1733 180.295 50.096 181.639 49.328C182.983 48.5387 184.445 48.144 186.023 48.144C188.37 48.144 190.109 48.7733 191.239 50.032C192.391 51.2693 192.967 53.0933 192.967 55.504C192.967 56.784 192.711 57.9253 192.199 58.928C191.687 59.9093 191.015 60.688 190.183 61.264C189.373 61.8187 188.498 62.096 187.559 62.096C187.026 62.096 186.461 62 185.863 61.808C187.015 63.3013 188.167 64.6027 189.319 65.712C190.493 66.8213 191.655 67.8453 192.807 68.784C193.981 69.7013 195.154 70.64 196.327 71.6C196.946 72.0907 197.298 72.6133 197.383 73.168C197.469 73.7227 197.319 74.192 196.935 74.576C196.573 74.9813 196.007 75.184 195.239 75.184C194.642 75.184 193.885 74.9173 192.967 74.384C192.05 73.872 191.058 73.1787 189.991 72.304C188.925 71.408 187.858 70.416 186.791 69.328C185.746 68.24 184.786 67.1307 183.911 66C183.058 64.8693 182.365 63.792 181.831 62.768C181.319 61.744 181.063 60.8693 181.063 60.144C181.063 59.4613 181.245 58.9387 181.607 58.576C181.97 58.192 182.439 58 183.015 58C183.485 58 183.911 58.064 184.295 58.192C184.701 58.32 185.127 58.384 185.575 58.384C186.045 58.384 186.535 58.256 187.047 58C187.581 57.744 188.029 57.3493 188.391 56.816C188.754 56.2613 188.935 55.5573 188.935 54.704C188.935 53.7653 188.669 53.136 188.135 52.816C187.623 52.496 186.93 52.336 186.055 52.336C184.839 52.336 183.741 52.7627 182.759 53.616C181.778 54.4693 180.925 55.6747 180.199 57.232C179.474 58.7893 178.887 60.624 178.439 62.736C178.013 64.848 177.725 67.152 177.575 69.648C177.49 71.2693 177.277 72.3787 176.935 72.976C176.594 73.552 176.082 73.84 175.399 73.84ZM211.3 75.664C210.51 75.664 209.689 75.472 208.836 75.088C207.982 74.7253 207.257 74.1067 206.66 73.232C206.084 72.3573 205.796 71.1947 205.796 69.744C205.796 68.208 205.924 66.6187 206.18 64.976C206.457 63.312 206.809 61.68 207.236 60.08C207.684 58.4587 208.164 56.9333 208.676 55.504C209.209 54.0747 209.732 52.8053 210.244 51.696C210.777 50.5867 211.268 49.7227 211.716 49.104C212.185 48.464 212.558 48.144 212.836 48.144C213.412 48.144 213.924 48.3573 214.372 48.784C214.841 49.2107 215.076 49.8613 215.076 50.736C215.076 50.9493 214.948 51.472 214.692 52.304C214.457 53.1147 214.148 54.128 213.764 55.344C213.401 56.56 212.996 57.8827 212.548 59.312C212.121 60.72 211.716 62.1493 211.332 63.6C210.969 65.0507 210.66 66.416 210.404 67.696C210.169 68.976 210.052 70.0747 210.052 70.992C210.052 71.248 210.201 71.376 210.5 71.376C210.926 71.376 211.556 71.2693 212.388 71.056C213.241 70.8427 214.169 70.576 215.172 70.256C216.196 69.9147 217.177 69.584 218.116 69.264C219.054 68.944 219.854 68.6773 220.516 68.464C221.177 68.2507 221.55 68.144 221.636 68.144C222.169 68.144 222.596 68.2933 222.916 68.592C223.236 68.8907 223.396 69.3173 223.396 69.872C223.396 70.256 223.14 70.704 222.628 71.216C222.116 71.7067 221.433 72.2187 220.58 72.752C219.726 73.264 218.766 73.7333 217.7 74.16C216.654 74.608 215.577 74.9707 214.468 75.248C213.358 75.5253 212.302 75.664 211.3 75.664Z" fill="white"/>
</g>
<defs>
<filter id="filter0_d_145_8240" x="0.841553" y="0.143982" width="226.554" height="91.52" filterUnits="userSpaceOnUse" color-interpolation-filters="sRGB">
<feFlood flood-opacity="0" result="BackgroundImageFix"/>
<feColorMatrix in="SourceAlpha" type="matrix" values="0 0 0 0 0 0 0 0 0 0 0 0 0 0 0 0 0 0 127 0" result="hardAlpha"/>
<feOffset dy="4"/>
<feGaussianBlur stdDeviation="2"/>
<feComposite in2="hardAlpha" operator="out"/>
<feColorMatrix type="matrix" values="0 0 0 0 0 0 0 0 0 0 0 0 0 0 0 0 0 0 0.25 0"/>
<feBlend mode="normal" in2="BackgroundImageFix" result="effect1_dropShadow_145_8240"/>
<feBlend mode="normal" in="SourceGraphic" in2="effect1_dropShadow_145_8240" result="shape"/>
</filter>
</defs>
</svg>
