<svg width="477" height="483" viewBox="0 0 477 483" fill="none" xmlns="http://www.w3.org/2000/svg">
<path d="M396.774 333.718L431.74 452.755H421.914L373.704 332.891L396.774 333.718Z" fill="#6F4439"/>
<path d="M310.982 333.718L345.948 451.62H336.122L287.912 332.891L310.982 333.718Z" fill="#6F4439"/>
<path d="M204.469 333.718L172.774 451.62H182.6L227.553 332.891L204.469 333.718Z" fill="#AE7461"/>
<path d="M307.123 333.718L277.084 451.62H286.91L330.207 332.891L307.123 333.718Z" fill="#AE7461"/>
<path d="M185.524 282.104C185.524 282.104 182.853 246.217 188.26 235.964C193.668 225.71 246.27 204.936 246.27 204.936C246.27 204.936 282.317 148.008 306.442 135.966C330.567 123.923 424.691 125.579 438.376 144.176C452.06 162.774 436.734 211.491 429.618 241.05L403.89 313.292L396.788 333.719H200.85L185.524 282.104Z" fill="#CF4258"/>
<path d="M429.565 143.602C429.62 143.723 429.669 143.848 429.712 143.975C429.792 144.216 429.925 144.59 430.059 145.084C430.352 146.085 430.74 147.567 431.127 149.503C432.213 155.004 432.621 160.617 432.342 166.218C432.094 170.11 431.649 173.987 431.007 177.833C430.366 181.999 429.605 186.445 428.75 191.184C427.055 200.53 425.039 210.89 422.769 221.824V221.998L422.622 222.065C419.685 223.547 416.588 225.109 413.41 226.644C394.427 235.902 374.939 244.09 355.04 251.17C347.403 253.84 341.168 255.909 336.843 257.258L331.85 258.78L330.514 259.153L330.061 259.26L330.488 259.087L331.823 258.646L336.776 257.004C341.075 255.562 347.283 253.479 354.893 250.702C374.701 243.461 394.118 235.19 413.063 225.923C416.24 224.388 419.338 222.812 422.275 221.344L422.088 221.584C424.371 210.65 426.414 200.316 428.149 190.957C429.017 186.284 429.805 181.852 430.459 177.7C431.113 173.548 431.687 169.689 431.888 166.151C432.204 160.577 431.868 154.985 430.886 149.489C430.539 147.553 430.192 146.071 429.938 145.07C429.818 144.603 429.725 144.229 429.645 143.935C429.605 143.828 429.578 143.716 429.565 143.602Z" fill="#263238"/>
<path d="M210.811 311.436C211.769 315.081 212.505 318.782 213.013 322.517C213.747 326.216 214.255 329.957 214.535 333.718C213.575 330.073 212.839 326.372 212.333 322.637C211.599 318.937 211.091 315.197 210.811 311.436Z" fill="#263238"/>
<path d="M312.237 332.891C312.05 332.891 314.239 319.139 317.123 302.264C320.007 285.388 322.463 271.73 322.69 271.757C322.917 271.784 320.701 285.495 317.817 302.384C314.934 319.273 312.437 332.917 312.237 332.891Z" fill="#263238"/>
<path d="M76.2468 342.703L49.3181 376.788C49.3181 376.788 5.60735 360.86 0.0400391 366.681L64.2444 421.273L108.409 369.885L76.2468 342.703Z" fill="#263238"/>
<path d="M71.534 390.887C71.9937 391.6 72.1743 392.457 72.0413 393.294C71.9083 394.132 71.4709 394.891 70.813 395.426C70.1144 395.909 69.2578 396.105 68.4187 395.976C67.5796 395.847 66.8217 395.402 66.3004 394.732C65.8182 393.975 65.6332 393.067 65.7811 392.182C65.9291 391.297 66.3994 390.498 67.1015 389.939C68.5701 389.085 71.1068 389.605 71.7075 391.167" fill="#E0E0E0"/>
<path d="M64.2444 421.273L68.49 415.932L5.34035 365.573C5.34035 365.573 1.42854 364.385 0 366.681L64.2444 421.273Z" fill="#455A64"/>
<path d="M48.5569 375.574C48.3033 375.907 49.7452 377.376 50.4261 379.699C51.1069 382.022 50.8132 384.038 51.2138 384.158C51.6143 384.278 52.6823 382.062 51.8012 379.272C50.92 376.481 48.7305 375.24 48.5569 375.574Z" fill="white"/>
<path d="M39.4516 372.636C39.1178 372.876 40.0256 374.572 39.9589 376.801C39.8921 379.031 39.011 380.7 39.3448 380.953C39.6785 381.207 41.3741 379.618 41.4008 376.815C41.4275 374.011 39.7186 372.342 39.4516 372.636Z" fill="white"/>
<path d="M28.7707 377.443C28.9977 377.75 30.7734 376.562 31.4409 374.158C32.1084 371.755 31.2139 369.833 30.8535 369.98C30.493 370.126 30.6265 371.809 30.0524 373.771C29.4783 375.734 28.4904 377.149 28.7707 377.443Z" fill="white"/>
<path d="M55.5534 368.497C55.4465 368.884 57.2489 369.686 58.9178 371.301C60.5866 372.916 61.4945 374.665 61.8817 374.532C62.2688 374.398 61.8817 372.155 59.9057 370.273C57.9298 368.39 55.6068 368.11 55.5534 368.497Z" fill="white"/>
<path d="M134.777 284.788C134.777 287.885 120.973 429.818 120.973 429.818L167.607 435.159C167.607 435.159 179.209 363.571 180.958 350.38C182.707 337.19 188.795 313.545 188.795 313.545L288.272 303.706C288.272 303.706 239.475 235.456 234.735 235.162C229.996 234.869 134.777 284.788 134.777 284.788Z" fill="#263238"/>
<path d="M54.1914 363.223C54.1914 363.223 137.674 250.035 142.494 244.107C147.314 238.179 152.868 231.891 170.277 231.891C187.687 231.891 234.789 235.228 234.789 235.228L259.675 223.894L350.06 237.819C350.06 237.819 353.398 280.795 347.47 290.808C341.542 300.821 306.349 303.398 298.94 303.772C291.53 304.146 176.766 288.565 176.766 288.565C176.766 288.565 154.283 319.78 143.482 331.769C135.792 340.327 94.7113 393.049 94.7113 393.049L54.1914 363.223Z" fill="#263238"/>
<path d="M94.7781 393.97L53.2568 363.357L53.644 362.823C54.4851 361.688 137.207 249.567 141.973 243.693C146.486 238.139 152.107 231.223 170.277 231.223C186.993 231.223 231.544 234.334 234.669 234.547L259.581 223.199H259.782L350.634 237.204V237.725C350.768 239.501 353.919 281.035 347.964 291.128C341.529 301.983 303.239 304.199 298.886 304.479C291.663 304.893 185.577 290.474 176.993 289.313C174.563 292.677 154.003 321.034 143.896 332.263C136.313 340.7 95.5658 392.969 95.1519 393.49L94.7781 393.97ZM55.1126 363.076L94.5244 392.128C98.7967 386.641 135.712 339.352 142.935 331.328C153.615 319.486 175.951 288.485 176.178 288.165L176.405 287.844H176.806C177.954 288.004 291.623 303.411 298.846 303.051C300.555 302.957 340.661 300.848 346.843 290.408C352.25 281.289 349.74 243.292 349.379 238.339L259.768 224.588L234.909 235.909H234.735C234.268 235.909 187.473 232.572 170.277 232.572C152.748 232.572 147.354 239.247 143.015 244.587C138.435 250.168 61.3742 354.599 55.1126 363.076Z" fill="#455A64"/>
<path d="M167.487 273.56C169.452 275.994 171.237 278.569 172.827 281.263C174.628 283.832 176.234 286.532 177.633 289.34C175.664 286.909 173.879 284.334 172.293 281.637C170.493 279.068 168.886 276.368 167.487 273.56Z" fill="#455A64"/>
<path d="M124.737 401.754L127.1 445.131C127.1 445.131 83.8299 462.113 83.4961 470.244L167.753 468.655L166.819 400.913L124.737 401.754Z" fill="#263238"/>
<path d="M153.108 440.992C153.924 441.224 154.626 441.748 155.079 442.465C155.532 443.182 155.705 444.041 155.564 444.877C155.361 445.699 154.85 446.411 154.138 446.868C153.425 447.325 152.564 447.492 151.733 447.334C150.869 447.087 150.127 446.528 149.652 445.766C149.176 445.004 148.999 444.093 149.156 443.208C149.69 441.606 151.92 440.325 153.428 441.086" fill="#E0E0E0"/>
<path d="M167.754 468.589L167.394 461.767L86.7409 465.839C86.7409 465.839 83.0427 467.574 83.4966 470.244L167.754 468.589Z" fill="#455A64"/>
<path d="M125.765 444.731C125.765 445.145 127.848 445.292 129.891 446.574C131.934 447.855 133.055 449.564 133.429 449.404C133.803 449.244 133.148 446.867 130.638 445.399C128.129 443.93 125.645 444.357 125.765 444.731Z" fill="white"/>
<path d="M116.98 448.549C116.887 448.95 118.689 449.618 120.118 451.326C121.546 453.035 121.987 454.878 122.387 454.851C122.788 454.824 123.015 452.501 121.199 450.392C119.383 448.282 116.98 448.162 116.98 448.549Z" fill="white"/>
<path d="M112.16 459.23C112.534 459.31 113.068 457.24 111.96 455.011C110.852 452.781 108.929 451.913 108.756 452.26C108.582 452.608 109.811 453.782 110.678 455.638C111.546 457.494 111.746 459.19 112.16 459.23Z" fill="white"/>
<path d="M126.299 434.784C126.486 435.158 128.355 434.557 130.692 434.664C133.028 434.771 134.844 435.478 135.044 435.118C135.244 434.757 133.482 433.329 130.745 433.235C128.008 433.142 126.099 434.463 126.299 434.784Z" fill="white"/>
<path d="M295.028 126.005L297.992 153.067L264.014 221.223C264.014 221.223 243.921 227.899 236.805 235.228L253.079 235.936C276.551 236.914 299.131 245.194 317.671 259.62C325.681 265.895 332.183 272.678 333.385 278.846C336.923 297.003 342.343 294.199 342.343 294.199L362.944 267.698L377.363 239.02L406.321 126.686L378.377 111.332L372.102 102.2L330.715 107.968L322.477 116.098L295.028 126.005Z" fill="#455A64"/>
<path d="M226.391 198.608L243.747 191.345L271.023 153.081C271.023 153.081 283.68 127.781 295.054 126.006C306.429 124.23 297.992 153.068 297.992 153.068L280.502 202.733L252.292 222.479L232.839 220.783L220.25 210.103L226.391 198.608Z" fill="#455A64"/>
<path d="M297.738 135.418C297.664 135.725 297.561 136.025 297.431 136.312C297.191 136.953 296.857 137.781 296.456 138.809C295.575 141.065 294.334 144.149 292.825 147.994C289.768 155.765 285.669 166.539 281.183 178.448C276.697 190.357 272.518 201.144 269.341 208.834C267.765 212.693 266.444 215.804 265.496 217.94L264.401 220.383C264.292 220.679 264.149 220.961 263.974 221.224C264.038 220.916 264.137 220.616 264.267 220.33C264.521 219.702 264.841 218.861 265.255 217.833C266.136 215.59 267.378 212.493 268.887 208.648C271.944 200.891 276.043 190.116 280.529 178.194C285.015 166.272 289.18 155.498 292.358 147.821C293.946 143.963 295.268 140.838 296.216 138.716L297.311 136.259C297.423 135.964 297.566 135.682 297.738 135.418Z" fill="#263238"/>
<path d="M331.796 134.296C331.393 133.715 331.044 133.098 330.755 132.453C330.074 131.118 329.206 129.409 328.085 127.327H328.538C327.631 129.329 326.576 131.706 325.161 134.229C323.679 137.004 321.769 139.527 319.5 141.705L318.846 142.306L318.912 141.425V141.278C319.42 134.389 320.248 128.181 320.955 123.722C321.329 121.492 321.663 119.717 321.916 118.448C322.014 117.799 322.171 117.16 322.384 116.539C322.382 117.194 322.315 117.847 322.183 118.488C321.997 119.823 321.743 121.652 321.449 123.829C320.835 128.301 320.114 134.509 319.607 141.372V141.519L319.033 141.238C321.24 139.103 323.116 136.65 324.6 133.962C326.015 131.479 327.123 129.129 328.085 127.153L328.325 126.659L328.538 127.153C329.513 129.262 330.314 131.025 330.942 132.373C331.28 132.989 331.566 133.632 331.796 134.296Z" fill="#263238"/>
<path d="M375.654 113.442C375.552 113.643 375.422 113.827 375.267 113.99L374.065 115.458C372.997 116.793 371.395 118.529 369.419 120.705C364.196 126.343 358.669 131.691 352.864 136.726C349.766 139.396 346.736 141.906 343.905 144.109L343.398 144.51V143.869C343.316 139.533 342.614 135.23 341.315 131.092L341.649 131.212L336.576 134.123C335.977 134.493 335.353 134.819 334.707 135.098C335.25 134.653 335.831 134.256 336.442 133.909L341.422 130.825L341.649 130.678L341.742 130.945C343.161 135.107 343.935 139.46 344.039 143.856L343.518 143.602C346.322 141.386 349.339 138.889 352.41 136.206C359.205 130.305 365 124.564 369.085 120.318C371.128 118.195 372.743 116.433 373.878 115.231L375.213 113.896C375.344 113.73 375.492 113.578 375.654 113.442Z" fill="#263238"/>
<path d="M373.144 105.765L375.961 48.3565C377.75 30.3862 368.778 14.3518 350.754 13.0701H349.086C340.969 12.964 333.109 15.9172 327.071 21.3422C321.032 26.7673 317.257 34.2667 316.496 42.3486C315.041 57.9424 313.626 75.1784 313.612 83.5628C313.612 100.919 330.902 103.816 330.902 103.816C330.902 103.816 330.448 114.35 330.154 119.423L333.785 132.641L373.144 105.765Z" fill="#FFBF9D"/>
<path d="M330.941 103.803C338.961 103.898 346.838 101.687 353.638 97.4346C353.638 97.4346 348.03 110.385 330.754 108.609L330.941 103.803Z" fill="#FF9A6C"/>
<path d="M321.663 58.1427C321.648 58.7889 321.887 59.415 322.329 59.8867C322.771 60.3585 323.38 60.6383 324.026 60.666C324.34 60.6934 324.657 60.6578 324.957 60.5615C325.258 60.4651 325.536 60.3099 325.776 60.1048C326.016 59.8998 326.213 59.649 326.354 59.3671C326.496 59.0853 326.581 58.778 326.603 58.4632C326.621 57.8183 326.384 57.1921 325.945 56.72C325.505 56.2478 324.897 55.9676 324.253 55.9398C323.937 55.9106 323.619 55.9447 323.317 56.0402C323.015 56.1357 322.735 56.2906 322.494 56.4959C322.253 56.7011 322.055 56.9526 321.912 57.2354C321.769 57.5182 321.685 57.8267 321.663 58.1427Z" fill="#263238"/>
<path d="M320.114 49.3977C320.421 49.7315 322.317 48.3697 324.974 48.4098C327.63 48.4498 329.58 49.8116 329.873 49.4912C330.167 49.1708 329.713 48.7569 328.859 48.1561C327.726 47.3133 326.358 46.8464 324.947 46.821C323.562 46.8006 322.206 47.2214 321.075 48.0226C320.247 48.6768 319.967 49.2509 320.114 49.3977Z" fill="#263238"/>
<path d="M344.893 58.6505C344.882 59.2957 345.122 59.9199 345.563 60.3909C346.004 60.8619 346.612 61.1427 347.256 61.1739C347.57 61.2031 347.886 61.1693 348.187 61.0745C348.487 60.9797 348.765 60.8257 349.005 60.6217C349.246 60.4177 349.442 60.1678 349.584 59.8866C349.727 59.6054 349.811 59.2986 349.833 58.9843C349.848 58.339 349.611 57.7133 349.172 57.2398C348.733 56.7663 348.128 56.4822 347.483 56.4476C347.168 56.4184 346.849 56.4526 346.547 56.548C346.245 56.6435 345.965 56.7985 345.724 57.0037C345.483 57.2089 345.285 57.4604 345.142 57.7432C344.999 58.026 344.915 58.3345 344.893 58.6505Z" fill="#263238"/>
<path d="M346.215 50.359C346.522 50.6927 348.418 49.3309 351.074 49.371C353.731 49.411 355.681 50.7061 355.974 50.4391C356.268 50.172 355.814 49.7181 354.973 49.104C353.829 48.2944 352.463 47.8563 351.061 47.849C349.677 47.8209 348.32 48.2373 347.189 49.0372C346.362 49.6914 346.055 50.2121 346.215 50.359Z" fill="#263238"/>
<path d="M336.402 70.7064C334.999 70.2538 333.547 69.9714 332.076 69.8652C331.409 69.7851 330.741 69.6516 330.648 69.1844C330.606 68.4797 330.774 67.7785 331.128 67.1684C331.796 65.5262 332.464 63.8173 333.211 62.0149C336.095 54.6719 338.204 48.6641 337.911 48.5306C337.617 48.397 335.027 54.2714 332.143 61.6011C331.436 63.4168 330.808 65.139 330.141 66.7945C329.699 67.6105 329.562 68.5569 329.753 69.4647C329.846 69.7087 329.994 69.9276 330.187 70.1038C330.379 70.28 330.61 70.4087 330.861 70.4794C331.236 70.5826 331.621 70.6408 332.01 70.6529C333.466 70.8567 334.942 70.8747 336.402 70.7064Z" fill="#263238"/>
<path d="M345.468 42.0147C345.815 42.6956 348.418 42.0147 351.555 42.0147C354.693 42.0147 357.323 42.5221 357.657 41.8145C357.79 41.4807 357.27 40.8666 356.175 40.3058C354.725 39.604 353.126 39.265 351.515 39.3179C349.901 39.3294 348.312 39.7277 346.883 40.4794C345.815 41.0535 345.307 41.681 345.468 42.0147Z" fill="#263238"/>
<path d="M320.1 41.5743C320.634 42.1885 322.771 41.5743 325.441 41.6678C328.111 41.7612 330.247 42.2018 330.781 41.5877C331.008 41.2939 330.688 40.6665 329.74 40.079C328.424 39.352 326.944 38.9707 325.441 38.9707C323.937 38.9707 322.458 39.352 321.142 40.079C320.181 40.6531 319.86 41.2673 320.1 41.5743Z" fill="#263238"/>
<path d="M374.412 60.5597C374.706 60.4262 386.361 57.182 385.827 69.0375C385.293 80.8931 373.518 77.9025 373.518 77.5554C373.518 77.2083 374.412 60.5597 374.412 60.5597Z" fill="#FFBF9D"/>
<path d="M377.336 73.2297C377.336 73.2297 377.536 73.3899 377.87 73.5634C378.35 73.8186 378.91 73.8761 379.432 73.7236C380.7 73.3098 381.848 71.3739 381.995 69.2377C382.074 68.2248 381.923 67.2072 381.555 66.2605C381.459 65.8857 381.274 65.5394 381.016 65.2512C380.758 64.963 380.435 64.7413 380.073 64.605C379.838 64.5308 379.584 64.5423 379.356 64.6377C379.129 64.733 378.943 64.9059 378.831 65.1257C378.657 65.4461 378.724 65.6864 378.657 65.6998C378.591 65.7131 378.404 65.4861 378.524 65.0055C378.607 64.7147 378.785 64.4605 379.031 64.2846C379.366 64.0537 379.778 63.9627 380.179 64.0309C380.661 64.1505 381.103 64.3912 381.466 64.73C381.828 65.0688 382.097 65.4945 382.249 65.9668C382.705 67.0171 382.902 68.162 382.823 69.3045C382.636 71.681 381.314 73.8705 379.579 74.2844C379.257 74.3604 378.922 74.3638 378.599 74.2946C378.276 74.2253 377.972 74.085 377.709 73.8838C377.336 73.5234 377.296 73.2564 377.336 73.2297Z" fill="#FF9A6C"/>
<path d="M293.479 24.8323C293.708 24.1535 294.185 23.5861 294.814 23.2436C296.227 22.673 297.766 22.4887 299.273 22.7096C303.051 22.8022 306.8 22.0304 310.234 20.4532C309.086 19.8361 308.045 19.0382 307.15 18.0901C306.19 17.1281 305.512 15.9213 305.189 14.6008C304.867 13.2803 304.912 11.8967 305.321 10.6003C305.39 10.3557 305.513 10.1299 305.682 9.9402C305.851 9.75048 306.061 9.60181 306.296 9.50553C307.083 9.30527 307.724 10.093 308.232 10.7071C308.873 11.6653 309.761 12.4327 310.802 12.9285C311.843 13.4243 312.998 13.6301 314.146 13.5241C315.735 13.4922 317.297 13.0996 318.712 12.376C318.764 12.3257 318.813 12.2722 318.859 12.2158L320.755 10.4668C325.401 6.23457 329.366 3.33743 333.385 1.92224C339.259 -0.160501 348.978 -0.747942 354.946 1.14788C360.914 3.04371 366.108 8.11704 366.682 14.3385C370.18 11.6684 375.266 11.8686 379.312 13.6977H379.418C383.931 15.5268 386.334 20.48 387.429 25.2195C387.496 25.4865 387.549 25.7402 387.603 26.0072C389.044 28.5455 391.072 30.7017 393.517 32.2955C393.958 32.5758 394.452 32.9096 394.478 33.4303C394.505 33.951 394.064 34.3382 393.637 34.6185C392.493 35.339 391.202 35.7951 389.859 35.9536C390.207 37.0898 390.653 38.1932 391.194 39.2513C391.675 40.1458 392.235 41.2272 391.755 42.1084C391.532 42.4365 391.215 42.689 390.845 42.8321C390.475 42.9752 390.071 43.0022 389.685 42.9094C388.923 42.7027 388.21 42.344 387.589 41.8547C388.056 43.0963 388.51 44.3513 388.924 45.5929C387.249 45.7997 385.548 45.6123 383.958 45.0456C382.796 49.3713 381.715 57.4485 380.46 60.359C377.309 60.2789 376.561 59.9051 374.946 60.359C372.877 60.9465 373.491 64.618 370.874 63.4698C369.539 62.8823 367.67 57.6354 367.269 56.2336C364.654 46.8792 364.076 37.0727 365.574 27.4758C363.756 25.3644 361.549 23.6236 359.072 22.3491L359.272 22.536C354.492 20.6535 349.085 18.7577 344.399 20.8404C340.754 22.4425 338.498 26.0606 335.708 28.851C333.345 31.451 330.457 33.5193 327.235 34.9187C324.012 36.3182 320.529 37.0168 317.016 36.9683C316.109 42.1751 315.535 50.7197 315.067 55.5794L311.329 45.633C311.022 45.0456 310.768 44.4581 310.528 43.8707L310.434 43.6971C310.047 42.7492 309.673 41.8013 309.18 40.8667C308.591 41.3073 307.864 41.5213 307.131 41.4695C306.398 41.4178 305.708 41.1038 305.188 40.585C304.668 40.0662 304.352 39.3774 304.297 38.6445C304.243 37.9117 304.455 37.184 304.894 36.5945C305.334 36.0454 305.856 35.568 306.443 35.1793C305.857 35.7277 305.143 36.1211 304.367 36.324C303.591 36.5268 302.776 36.5326 301.997 36.3408C301.212 36.0624 300.54 35.5342 300.084 34.8373C299.628 34.1403 299.414 33.313 299.473 32.4824C299.563 31.9248 299.797 31.4005 300.154 30.9622C300.51 30.524 300.975 30.1872 301.503 29.9858C299.324 30.0563 297.173 29.4802 295.321 28.3303C294.146 27.5426 292.998 26.341 293.479 24.8323Z" fill="#263238"/>
<path d="M361.194 16.0879C361.789 16.6046 362.346 17.1623 362.863 17.7568C364.167 19.4707 365 21.4958 365.28 23.6311C365.511 25.0921 365.596 26.5725 365.533 28.0503C365.533 29.6524 365.266 31.3479 365.066 33.1503C364.83 35.0326 364.705 36.9273 364.692 38.8244C364.702 39.8356 364.792 40.8445 364.959 41.8417C365.064 42.9073 365.441 43.928 366.054 44.8056C366.344 45.1537 366.719 45.4221 367.141 45.5856C367.564 45.7491 368.022 45.8023 368.471 45.7402C369.327 45.6115 370.119 45.2086 370.727 44.592C371.718 43.3352 372.359 41.838 372.583 40.253H372.222C372.682 41.5849 373.339 42.8404 374.171 43.9779C374.975 45.0372 376.156 45.7451 377.469 45.9538C378.076 46.0445 378.696 45.9612 379.258 45.7135C379.787 45.4736 380.229 45.0775 380.526 44.5787C380.806 44.1194 380.958 43.5941 380.967 43.0567C380.955 42.5668 380.776 42.0958 380.46 41.7216L380.273 41.8818C381.253 43.1084 382.481 44.114 383.877 44.8323C384.243 45.0257 384.622 45.1909 385.012 45.3263C385.144 45.386 385.283 45.4264 385.426 45.4465L385.039 45.2729C384.785 45.1528 384.412 44.9792 383.944 44.7122C382.594 43.9645 381.412 42.9464 380.473 41.7216L380.273 41.8818C380.541 42.2577 380.686 42.7082 380.686 43.1701C380.686 43.6321 380.541 44.0826 380.273 44.4585C380.002 44.9053 379.601 45.2592 379.125 45.4732C378.61 45.6884 378.047 45.7577 377.496 45.6734C376.274 45.4592 375.18 44.7857 374.438 43.791C373.641 42.6718 373.007 41.4445 372.556 40.1462L372.329 39.5854L372.195 40.1729C371.974 41.6875 371.362 43.1184 370.42 44.325C369.877 44.8767 369.169 45.2375 368.404 45.353C368.022 45.4096 367.633 45.3668 367.272 45.2288C366.912 45.0908 366.594 44.8623 366.348 44.5653C365.783 43.7402 365.438 42.7843 365.346 41.7883C365.179 40.8135 365.089 39.8268 365.079 38.8378C365.077 36.9543 365.193 35.0726 365.427 33.2037C365.613 31.4013 365.8 29.6924 365.854 28.077C365.907 26.5751 365.804 25.0717 365.547 23.5911C365.238 21.4229 364.348 19.3788 362.97 17.6766C362.474 17.0485 361.874 16.511 361.194 16.0879Z" fill="#455A64"/>
<path d="M306.83 30.6532L306.964 30.7867C307.084 30.8668 307.217 30.987 307.391 31.1205C307.613 31.3043 307.849 31.4695 308.098 31.6145C308.427 31.8379 308.771 32.0386 309.126 32.2153C311.407 33.3717 313.94 33.9407 316.496 33.8708C320.314 33.7992 324.027 32.611 327.177 30.4529C330.97 27.807 334.183 24.4131 336.616 20.4798C337.951 18.4372 339.086 16.3277 340.301 14.3918C341.421 12.5039 342.801 10.7826 344.399 9.27846C345.848 7.92873 347.61 6.96064 349.526 6.46142C350.401 6.26032 351.302 6.19726 352.196 6.27451C353.015 6.35221 353.819 6.54085 354.586 6.83525C355.912 7.35822 357.113 8.15426 358.111 9.17165C358.867 9.95503 359.489 10.8571 359.953 11.8418C360.315 12.6995 360.579 13.5952 360.741 14.512C360.741 14.512 360.741 14.512 360.741 14.3251C360.741 14.1382 360.741 14.0047 360.741 13.7911C360.625 13.1084 360.433 12.441 360.167 11.8018C359.705 10.819 359.087 9.91732 358.338 9.1316C357.334 8.07036 356.114 7.23717 354.76 6.68838C353.967 6.37615 353.137 6.16966 352.29 6.07425C351.37 5.99347 350.442 6.05198 349.54 6.2478C347.547 6.74227 345.711 7.72928 344.199 9.11824C342.561 10.6357 341.15 12.3801 340.007 14.2984C338.779 16.2476 337.657 18.3037 336.309 20.3864C333.888 24.2731 330.709 27.6329 326.963 30.266C323.889 32.3891 320.27 33.5846 316.536 33.7106C314.021 33.7962 311.521 33.2789 309.247 32.2019C308.413 31.731 307.606 31.214 306.83 30.6532Z" fill="#455A64"/>
<path d="M305.588 22.9898C305.766 23.1687 305.968 23.3215 306.189 23.4437C306.762 23.8296 307.365 24.1689 307.992 24.4584C308.915 24.9028 309.875 25.2647 310.862 25.5398C313.287 26.2225 315.825 26.4132 318.325 26.1005C319.344 25.9779 320.349 25.7634 321.329 25.4597C321.993 25.2675 322.64 25.0219 323.265 24.7254C323.502 24.6351 323.727 24.5139 323.932 24.3649C323.932 24.3649 322.918 24.7387 321.262 25.1793C319.086 25.7485 316.831 25.956 314.587 25.7934C313.357 25.69 312.138 25.4846 310.942 25.1793C309.969 24.9283 309.018 24.5978 308.098 24.1913C306.523 23.4971 305.628 22.9097 305.588 22.9898Z" fill="#455A64"/>
<path d="M336.202 78.8095C336.362 78.3823 339.099 79.624 342.103 78.1554C345.107 76.6868 346.108 73.6427 346.509 73.803C346.909 73.9632 346.749 74.6841 346.228 75.9257C345.525 77.5378 344.277 78.8515 342.704 79.6373C341.19 80.3909 339.442 80.525 337.831 80.0111C336.709 79.5973 336.108 78.9831 336.202 78.8095Z" fill="#263238"/>
<path d="M312.237 332.891C312.237 332.05 321.582 271.757 325.107 264.067C327.951 257.979 350.727 253.226 375.133 243.373C401.407 232.772 431.861 232.038 431.861 232.038L393.303 321.035L312.237 332.891Z" fill="#CF4258"/>
<path d="M325.895 205.029L303.639 206.685V227.966L328.792 230.97L325.895 205.029Z" fill="#FFBF9D"/>
<path d="M396.454 121.626C407.442 126.139 417.629 135.885 416.961 148.515C415.973 167.206 411.621 207.405 410.566 217.752C409.231 231.263 404.665 242.638 384.785 243.386C364.906 244.134 335.654 239.301 335.654 239.301C335.654 239.301 325.12 244.641 322.21 238.78C321.449 237.218 316.215 205.75 316.215 205.75C316.215 205.323 318.792 202.332 322.477 200.49C324.496 199.492 326.821 199.305 328.974 199.968C331.127 200.631 332.944 202.093 334.052 204.054L372.77 202.786L380.446 166.338" fill="#455A64"/>
<path d="M380.487 166.338C380.467 166.549 380.436 166.759 380.393 166.966C380.3 167.406 380.18 168.021 380.033 168.822C379.699 170.464 379.205 172.827 378.577 175.978C377.242 182.253 375.4 191.371 373.023 202.84V203H372.85L345.614 203.934L337.83 204.201L335.828 204.268H334.827H334.039C334.039 204.268 333.545 203.988 333.772 204.108L333.638 203.908C332.956 202.765 332.008 201.803 330.875 201.104C329.715 200.375 328.396 199.94 327.03 199.835C325.665 199.731 324.295 199.96 323.038 200.503C321.741 201.094 320.526 201.848 319.42 202.746C318.849 203.19 318.305 203.667 317.791 204.175C317.537 204.428 317.284 204.695 317.057 204.962C316.83 205.229 316.83 205.243 316.723 205.376C316.616 205.51 316.509 205.75 316.523 205.683C317.751 213 319.059 220.69 320.528 228.647C320.902 230.636 321.275 232.652 321.649 234.668C321.85 235.669 322.05 236.684 322.29 237.685C322.356 238.165 322.535 238.623 322.811 239.021C322.933 239.227 323.072 239.423 323.225 239.608L323.759 240.102C324.617 240.628 325.572 240.976 326.568 241.123C327.564 241.269 328.58 241.213 329.553 240.956C331.624 240.575 333.632 239.911 335.521 238.98H335.628H335.734C343.611 240.222 351.929 241.277 360.42 242.078C366.281 242.612 372.102 242.999 377.843 243.106C383.584 243.213 389.271 243.106 394.558 241.517C397.159 240.72 399.59 239.448 401.728 237.766C403.809 236.099 405.507 234.005 406.708 231.624C408.866 226.885 410.107 221.779 410.366 216.578C412.489 196.231 414.371 177.86 415.706 162.493C416.04 158.648 416.32 154.977 416.547 151.506C416.667 149.757 416.774 148.074 416.748 146.459C416.748 145.645 416.587 144.843 416.521 144.069C416.454 143.295 416.213 142.534 416.053 141.786C415.32 139.041 414.099 136.45 412.449 134.136C411.065 132.191 409.476 130.4 407.709 128.796C405.228 126.594 402.489 124.702 399.552 123.162C398.55 122.614 397.763 122.267 397.229 122.027L396.441 121.64C396.441 121.64 396.721 121.733 397.255 121.96C397.789 122.187 398.59 122.521 399.618 123.041C402.598 124.536 405.379 126.397 407.896 128.582C409.689 130.189 411.309 131.979 412.729 133.922C414.412 136.263 415.665 138.885 416.427 141.666C416.587 142.427 416.774 143.188 416.921 143.976C417.068 144.763 417.121 145.578 417.161 146.406C417.161 148.074 417.161 149.77 416.988 151.506C416.774 154.977 416.507 158.662 416.2 162.507C414.945 177.94 413.076 196.271 410.993 216.618C410.727 221.904 409.458 227.092 407.255 231.905C406.011 234.367 404.259 236.537 402.115 238.273C399.906 240.003 397.399 241.315 394.719 242.145C389.378 243.8 383.517 243.84 377.79 243.773C372.062 243.707 366.188 243.279 360.313 242.745C351.809 241.944 343.491 240.89 335.588 239.635H335.801C333.845 240.587 331.771 241.274 329.633 241.677C328.569 241.931 327.465 241.968 326.387 241.784C325.308 241.6 324.278 241.201 323.358 240.609L322.744 240.035C322.561 239.825 322.4 239.597 322.263 239.354C321.956 238.891 321.751 238.368 321.663 237.819C321.409 236.791 321.222 235.776 321.022 234.762C320.648 232.746 320.274 230.756 319.9 228.74C318.472 220.73 317.23 213.08 315.895 205.764C315.943 205.513 316.053 205.279 316.215 205.083C316.336 204.936 316.456 204.776 316.576 204.642C316.696 204.509 317.083 204.081 317.35 203.814C317.879 203.285 318.441 202.79 319.032 202.332C320.189 201.412 321.453 200.636 322.797 200.023C324.811 199.169 327.065 199.07 329.146 199.741C331.227 200.413 332.997 201.811 334.132 203.681L334.279 203.908C334.506 204.041 333.959 203.734 334.025 203.774H334.746H335.761L337.764 203.707L345.547 203.467L372.783 202.626L372.569 202.8C375.026 191.358 376.975 182.253 378.324 175.991L379.886 168.848C380.073 168.047 380.206 167.446 380.3 167.006L380.487 166.338Z" fill="#263238"/>
<path d="M394.118 124.67C394.198 124.764 392.783 126.139 390.78 128.676C388.245 132.002 386.15 135.641 384.545 139.503C382.948 143.364 381.801 147.396 381.127 151.519C380.593 154.683 380.487 156.686 380.353 156.672C380.298 156.207 380.298 155.736 380.353 155.271C380.353 154.363 380.473 153.054 380.66 151.439C381.208 147.236 382.308 143.124 383.931 139.209C384.833 137.059 385.895 134.979 387.109 132.988C388.106 131.366 389.212 129.814 390.42 128.342C391.254 127.356 392.146 126.419 393.09 125.538C393.691 124.951 394.118 124.63 394.118 124.67Z" fill="#263238"/>
<path d="M389.512 219.088C389.391 219.088 389.098 217.753 388.177 215.737C385.796 210.439 381.428 206.291 376.014 204.188C373.945 203.401 372.569 203.174 372.596 203.053C372.623 202.933 372.943 203.053 373.571 203.053C374.456 203.174 375.328 203.38 376.174 203.668C377.44 204.078 378.657 204.624 379.806 205.296C381.213 206.119 382.525 207.096 383.717 208.207C384.887 209.341 385.93 210.599 386.828 211.958C387.552 213.071 388.156 214.257 388.631 215.496C388.965 216.324 389.215 217.182 389.378 218.06C389.525 218.741 389.565 219.074 389.512 219.088Z" fill="#263238"/>
<path d="M335.962 238.193C335.855 238.193 336.389 236.284 336.829 233.16C337.386 229.104 337.614 225.01 337.51 220.917C337.45 218.684 337.272 216.456 336.976 214.242C336.716 212.438 336.337 210.654 335.841 208.901C334.974 205.884 333.932 204.215 334.052 204.148C334.354 204.497 334.61 204.883 334.813 205.297C335.093 205.761 335.335 206.248 335.534 206.752C335.841 207.4 336.1 208.069 336.309 208.755C336.899 210.527 337.346 212.344 337.644 214.188C337.985 216.443 338.186 218.717 338.245 220.997C338.366 225.129 338.066 229.262 337.35 233.333C337.134 234.568 336.849 235.789 336.496 236.992C336.364 237.411 336.185 237.814 335.962 238.193Z" fill="#263238"/>
<path d="M184.843 157.927C184.843 157.927 186.351 154.309 189.355 153.561C189.355 153.561 204.255 157.567 208.607 162.319C208.607 162.319 209.475 158.928 217.472 152.119C223.415 147.043 230.857 144.051 238.66 143.602L246.577 148.581L214.842 170.811L205.403 174.108L184.843 157.927Z" fill="#FAFAFA"/>
<path d="M184.843 157.927C184.984 158.004 185.118 158.093 185.243 158.194L186.351 159.035L190.517 162.226L205.563 173.854H205.31L214.735 170.53L246.016 148.488L246.377 148.234V148.822C243.707 147.126 241.037 145.457 238.46 143.842H238.647C232.09 144.229 225.768 146.424 220.383 150.183C218 151.91 215.766 153.835 213.707 155.938C212.721 156.91 211.794 157.939 210.93 159.022C210.105 160.005 209.426 161.102 208.914 162.279L208.754 162.706L208.447 162.399C206.88 160.902 205.076 159.674 203.107 158.768C201.37 157.898 199.587 157.123 197.766 156.445C194.429 155.11 191.545 154.255 189.249 153.588H189.315C187.81 154.106 186.534 155.136 185.711 156.498C185.474 156.838 185.256 157.19 185.056 157.553C184.91 157.793 184.856 157.913 184.843 157.913C184.868 157.772 184.917 157.637 184.99 157.513C185.167 157.136 185.368 156.771 185.59 156.418C186.43 155.001 187.752 153.934 189.315 153.414H189.395C191.705 154.028 194.616 154.896 197.98 156.151C199.799 156.814 201.581 157.572 203.32 158.421C205.336 159.351 207.189 160.6 208.808 162.119L208.34 162.239C208.855 160.977 209.562 159.801 210.436 158.755C211.304 157.655 212.236 156.607 213.227 155.617C215.327 153.5 217.6 151.562 220.022 149.823C225.523 145.95 231.997 143.693 238.714 143.308H238.807H238.9L246.818 148.274L247.258 148.555L246.831 148.862L246.47 149.115L215.002 171.051L205.55 174.308H205.416L205.296 174.215L190.317 162.199L186.311 158.928L185.27 158.074C185.122 158.042 184.979 157.993 184.843 157.927Z" fill="#263238"/>
<path d="M179.609 157.314L180.504 155.511L202.853 167.954C202.853 167.954 210.196 167.5 210.343 162.614C210.343 162.614 246.938 147.314 247.832 147.768C248.727 148.222 307.337 196.899 307.337 196.899L254.401 208.18L229.902 197.34L179.609 157.314Z" fill="#CF4258"/>
<path d="M247.659 205.203C247.538 205.35 237.405 197.125 224.962 186.845C212.519 176.565 202.666 168.154 202.786 167.954C202.906 167.754 213.04 175.964 225.416 186.311C237.792 196.658 247.779 205.043 247.659 205.203Z" fill="#263238"/>
<path d="M261.944 206.337C261.811 206.484 250.276 196.858 236.177 184.842C222.079 172.826 210.811 162.96 210.811 162.813C210.811 162.666 222.466 172.292 236.578 184.321C250.69 196.351 262.011 206.19 261.944 206.337Z" fill="#263238"/>
<path d="M210.65 177.941C210.503 177.941 205.51 177.46 204.322 179.636C203.134 181.812 202.987 183.001 203.467 184.296C204.282 185.731 205.249 187.074 206.351 188.301L207.206 189.876C206.312 191.706 206.032 193.775 206.405 195.777C207.012 197.499 208.142 198.987 209.635 200.036C209.635 200.036 210.036 206.538 213.988 206.592C214.274 207.61 214.881 208.508 215.717 209.155C216.554 209.802 217.577 210.162 218.634 210.183C222.265 210.09 224.094 211.024 228.126 208.941C232.158 206.859 236.831 204.776 237.859 202.693C238.887 200.61 235.296 200.383 235.296 200.383C235.296 200.383 237.245 195.043 230.957 195.737C230.957 195.737 231.664 190.197 227.632 189.529C223.567 189.146 219.478 189.088 215.403 189.356L212.172 185.457C212.172 185.457 214.522 184.79 214.655 182.707C214.789 180.624 212.546 178.007 210.65 177.941Z" fill="#FFBF9D"/>
<path d="M292.905 199.101C292.504 199.234 287.658 201.397 284.427 200.983C281.196 200.569 256.15 186.858 252.518 185.777C248.887 184.695 242.692 185.777 247.178 190.49C251.664 195.202 265.362 202.879 265.629 203.28C265.966 204.126 266.238 204.996 266.443 205.883L252.438 200.543C252.438 200.543 242.198 195.429 240.583 198.527C238.967 201.624 241.397 203.373 243.947 204.174C246.497 204.975 249.288 205.843 249.288 205.843C249.288 205.843 252.251 211.317 255.202 213.466C258.153 215.616 271.637 224.241 273.893 225.189C276.15 226.136 303.786 228.286 304.32 227.859C304.854 227.431 304.32 207.258 304.32 207.258L294.627 198.513L292.905 199.101Z" fill="#FFBF9D"/>
<ellipse cx="262.5" cy="463.5" rx="214.5" ry="19.5" fill="url(#paint0_radial_110_4071)"/>
<defs>
<radialGradient id="paint0_radial_110_4071" cx="0" cy="0" r="1" gradientUnits="userSpaceOnUse" gradientTransform="translate(262.5 463.5) rotate(90) scale(19.5 214.5)">
<stop stop-opacity="0.4"/>
<stop offset="1" stop-opacity="0"/>
</radialGradient>
</defs>
</svg>
