<svg width="161" height="162" viewBox="0 0 161 162" fill="none" xmlns="http://www.w3.org/2000/svg">
<g filter="url(#filter0_d_107_28697)">
<g filter="url(#filter1_d_107_28697)">
<rect x="30.6113" y="6" width="120" height="120" rx="30" transform="rotate(8.92208 30.6113 6)" fill="#578EFF"/>
</g>
<rect width="75" height="75" transform="translate(48.9336 31.1458) rotate(8.92208)" fill="#578EFF"/>
<path fill-rule="evenodd" clip-rule="evenodd" d="M87.8459 44.4853C87.5491 43.9221 87.0361 43.5039 86.4246 43.3268C85.8132 43.1497 85.156 43.2289 84.6042 43.5462C78.1013 47.2855 73.0164 53.3931 70.686 60.8994C68.8897 59.1118 67.3905 57.042 66.2518 54.7764C65.9386 54.1532 65.364 53.7018 64.6843 53.5451C64.0046 53.3884 63.2904 53.5425 62.7359 53.9657C57.182 58.2038 53.1852 64.5115 52.0158 71.9604C49.6068 87.3054 60.0935 101.698 75.4385 104.107C90.7836 106.516 105.176 96.0293 107.585 80.6842C109.359 69.3824 104.138 58.6022 95.1424 52.7427C91.9806 50.5334 89.5308 47.6823 87.8459 44.4853ZM90.6503 82.7718C89.6465 89.1655 83.6496 93.535 77.2558 92.5313C70.862 91.5275 66.4926 85.5306 67.4963 79.1368C67.6947 77.8731 68.0882 76.6885 68.6412 75.6088C70.3562 77.3477 72.4193 78.7624 74.7426 79.7323C76.088 75.5124 78.8516 72.0209 82.4029 69.7171C87.9572 71.3553 91.5727 76.8959 90.6503 82.7718Z" fill="white"/>
</g>
<defs>
<filter id="filter0_d_107_28697" x="12.2861" y="10.2854" width="136.588" height="136.588" filterUnits="userSpaceOnUse" color-interpolation-filters="sRGB">
<feFlood flood-opacity="0" result="BackgroundImageFix"/>
<feColorMatrix in="SourceAlpha" type="matrix" values="0 0 0 0 0 0 0 0 0 0 0 0 0 0 0 0 0 0 127 0" result="hardAlpha"/>
<feOffset dy="4"/>
<feGaussianBlur stdDeviation="2"/>
<feComposite in2="hardAlpha" operator="out"/>
<feColorMatrix type="matrix" values="0 0 0 0 0 0 0 0 0 0 0 0 0 0 0 0 0 0 0.25 0"/>
<feBlend mode="normal" in2="BackgroundImageFix" result="effect1_dropShadow_107_28697"/>
<feBlend mode="normal" in="SourceGraphic" in2="effect1_dropShadow_107_28697" result="shape"/>
</filter>
<filter id="filter1_d_107_28697" x="0.286133" y="0.6854" width="160.588" height="160.588" filterUnits="userSpaceOnUse" color-interpolation-filters="sRGB">
<feFlood flood-opacity="0" result="BackgroundImageFix"/>
<feColorMatrix in="SourceAlpha" type="matrix" values="0 0 0 0 0 0 0 0 0 0 0 0 0 0 0 0 0 0 127 0" result="hardAlpha"/>
<feOffset dy="6.4"/>
<feGaussianBlur stdDeviation="8"/>
<feComposite in2="hardAlpha" operator="out"/>
<feColorMatrix type="matrix" values="0 0 0 0 0 0 0 0 0 0 0 0 0 0 0 0 0 0 0.15 0"/>
<feBlend mode="normal" in2="BackgroundImageFix" result="effect1_dropShadow_107_28697"/>
<feBlend mode="normal" in="SourceGraphic" in2="effect1_dropShadow_107_28697" result="shape"/>
</filter>
</defs>
</svg>
