<svg width="180" height="276" viewBox="0 0 180 276" fill="none" xmlns="http://www.w3.org/2000/svg">
<path d="M74.0581 196.534L92.5611 172.859L94.4593 200.004L89.5494 217.826L149.812 224.176L149.4 176.907L151.439 140.482C151.559 138.31 150.959 136.163 149.731 134.375C148.503 132.587 146.717 131.26 144.652 130.599L127.839 125.214L104.968 131.01L95.8878 135.174C92.081 136.923 88.7559 139.577 86.2035 142.905L60.2175 176.825" fill="#BC3C50"/>
<path d="M93.6217 167.31C92.4976 167.37 91.3712 167.365 90.2482 167.295C87.5392 167.065 84.9641 166.029 82.853 164.321C80.7419 162.614 79.1911 160.311 78.3992 157.708C78.1 156.619 77.8604 155.514 77.6817 154.398C77.6255 154.706 77.6169 155.021 77.6563 155.33C77.7018 156.172 77.841 157.005 78.0714 157.814C78.8031 160.527 80.3697 162.937 82.5491 164.702C84.7285 166.468 87.4103 167.499 90.2147 167.65C91.0528 167.702 91.8945 167.664 92.7254 167.538C93.0342 167.51 93.3369 167.434 93.6217 167.31Z" fill="white"/>
<path d="M93.9043 198.893C93.7619 198.903 93.1208 189.472 92.4726 177.842C91.8243 166.211 91.4211 156.774 91.5635 156.765C91.7059 156.756 92.3464 166.177 92.9952 177.817C93.6441 189.456 94.0467 198.884 93.9043 198.893Z" fill="#263238"/>
<path d="M96.3944 205.691L131.521 188.749C132.91 188.08 134.085 187.035 134.916 185.735C135.747 184.434 136.199 182.928 136.221 181.388L136.701 146.619C136.701 146.619 135.468 131.921 144.608 130.591L149.93 132.3C156.903 135.434 159.184 145.166 158.741 152.819C158.109 163.696 158.516 179.008 157.646 188.467C156.921 196.213 152.99 203.244 145.596 205.722L101.812 218.321L96.3944 205.691Z" fill="#BC3C50"/>
<path d="M136.545 151.914C136.501 152.176 136.48 152.443 136.483 152.709C136.463 153.278 136.427 154.043 136.394 155.004C136.336 157.046 136.254 159.918 136.158 163.442C136.062 166.966 135.977 171.261 135.861 175.959C135.842 177.143 135.815 178.345 135.789 179.575C135.796 180.824 135.718 182.073 135.558 183.313C135.384 184.567 134.827 185.739 133.964 186.667C133.032 187.603 131.953 188.379 130.771 188.966C121.108 193.933 112.176 198.105 105.686 201.044L97.9728 204.484L95.8747 205.415C95.6287 205.515 95.3906 205.634 95.1626 205.77C95.4215 205.705 95.6742 205.616 95.9175 205.506L98.0486 204.655C99.8604 203.901 102.579 202.779 105.816 201.342C112.358 198.484 121.302 194.366 131.004 189.416C132.231 188.801 133.351 187.99 134.321 187.016C135.247 186.014 135.843 184.752 136.028 183.402C136.19 182.144 136.263 180.877 136.247 179.609C136.272 178.37 136.29 177.168 136.309 175.985C136.381 171.327 136.448 167.042 136.457 163.468C136.467 159.894 136.523 157.071 136.544 155.031C136.551 154.1 136.548 153.3 136.54 152.733C136.566 152.46 136.567 152.186 136.545 151.914Z" fill="#263238"/>
<path d="M158.316 169.413C158.289 169.567 158.276 169.724 158.28 169.881L158.243 171.225C158.209 172.465 158.174 174.135 158.124 176.168C158.074 178.202 157.953 180.734 157.762 183.484C157.591 186.461 157.232 189.424 156.687 192.357C156.438 193.865 155.931 195.32 155.187 196.657C154.456 197.888 153.623 199.056 152.697 200.149C151.118 201.998 149.261 203.59 147.193 204.867C145.262 206.015 143.168 206.859 140.984 207.369C141.142 207.379 141.301 207.368 141.456 207.338C141.903 207.278 142.345 207.189 142.78 207.072C144.391 206.659 145.937 206.019 147.37 205.172C149.5 203.916 151.413 202.322 153.032 200.452C153.992 199.346 154.852 198.157 155.602 196.899C156.386 195.524 156.922 194.022 157.187 192.463C157.741 189.508 158.092 186.519 158.238 183.517C158.398 180.713 158.469 178.268 158.488 176.181C158.506 174.094 158.484 172.4 158.458 171.229C158.424 170.691 158.396 170.246 158.374 169.884C158.38 169.725 158.36 169.566 158.316 169.413Z" fill="#263238"/>
<path d="M144.438 194.635C144.302 193.966 144.038 193.33 143.662 192.762C142.828 191.335 141.718 190.091 140.396 189.102C139.074 188.112 137.568 187.398 135.965 187C135.312 186.799 134.626 186.728 133.945 186.791C134.566 187.003 135.198 187.184 135.837 187.334C137.36 187.81 138.79 188.541 140.068 189.496C141.343 190.454 142.448 191.618 143.339 192.941C144.053 193.963 144.366 194.668 144.438 194.635Z" fill="#263238"/>
<path d="M135.676 168.688C135.599 168.716 135.526 168.756 135.46 168.805L134.834 169.191C134.024 169.659 133.188 170.079 132.329 170.448C129.162 171.802 125.708 172.335 122.288 171.996C117.205 171.435 112.539 168.941 109.254 165.028C107.295 162.771 105.984 160.024 105.459 157.076C105.194 155.527 105.259 153.937 105.651 152.412C106.068 150.853 106.874 149.426 107.994 148.263C109.096 147.088 110.525 146.272 112.094 145.923C112.837 145.738 113.61 145.724 114.357 145.881C115.104 146.039 115.805 146.365 116.407 146.834C116.955 147.305 117.297 147.973 117.359 148.696C117.388 149.416 117.185 150.128 116.78 150.725C116.355 151.305 115.819 151.795 115.204 152.167C114.589 152.539 113.908 152.785 113.198 152.892C110.712 153.372 108.148 153.221 105.741 152.451C103.334 151.681 101.161 150.317 99.4222 148.485C98.1014 147.057 97.0695 145.385 96.3833 143.563C95.8699 142.181 95.5483 140.734 95.4274 139.263C95.3592 138.333 95.3692 137.399 95.4575 136.47C95.4951 136.179 95.5264 135.935 95.5426 135.748C95.5454 135.664 95.5401 135.581 95.527 135.498C95.2193 136.721 95.1099 137.985 95.203 139.241C95.2869 140.737 95.5854 142.211 96.0895 143.62C97.3357 147.012 99.7456 149.845 102.89 151.616C106.034 153.386 109.709 153.979 113.26 153.287C114.02 153.169 114.75 152.901 115.407 152.499C116.065 152.097 116.637 151.569 117.091 150.946C117.553 150.265 117.783 149.453 117.746 148.632C117.692 147.789 117.309 147.003 116.68 146.443C116.024 145.929 115.259 145.57 114.444 145.393C113.629 145.216 112.783 145.225 111.97 145.419C110.303 145.782 108.784 146.647 107.618 147.898C106.436 149.115 105.589 150.618 105.158 152.259C104.752 153.845 104.684 155.498 104.959 157.11C105.51 160.121 106.863 162.923 108.876 165.22C111.663 168.558 115.47 170.883 119.713 171.842C123.956 172.801 128.402 172.339 132.371 170.529C133.548 170.063 134.66 169.444 135.676 168.688Z" fill="white"/>
<path d="M158.622 157.955C158.449 157.69 158.233 157.454 157.984 157.257C157.355 156.673 156.67 156.152 155.939 155.7C153.479 154.241 150.675 153.455 147.808 153.421C146.232 153.35 144.653 153.521 143.127 153.929C141.887 154.273 140.699 154.782 139.594 155.442C138.852 155.878 138.145 156.371 137.479 156.916C137.219 157.099 136.989 157.32 136.796 157.573C136.856 157.643 137.877 156.76 139.761 155.736C142.217 154.397 144.994 153.763 147.783 153.904C150.576 153.937 153.316 154.653 155.762 155.99C157.62 157.06 158.561 158.024 158.622 157.955Z" fill="white"/>
<path d="M151.283 133.564C150.457 134.45 149.523 135.227 148.502 135.878C147.386 136.548 146.154 137.002 144.872 137.218C143.311 137.481 141.712 137.366 140.209 136.881C138.732 136.363 137.404 135.496 136.337 134.353C135.455 133.398 134.757 132.289 134.276 131.08C133.871 129.943 133.607 128.759 133.489 127.556C133.419 127.88 133.399 128.214 133.43 128.544C133.471 129.453 133.649 130.35 133.958 131.204C134.417 132.479 135.121 133.65 136.031 134.652C137.127 135.911 138.538 136.856 140.121 137.389C141.704 137.923 143.401 138.027 145.041 137.69C146.372 137.448 147.644 136.946 148.783 136.213C149.551 135.723 150.239 135.119 150.826 134.422C151.029 134.166 151.184 133.875 151.283 133.564Z" fill="white"/>
<path d="M123.625 192.554C123.609 192.324 123.57 192.097 123.508 191.875C123.339 191.241 123.085 190.633 122.755 190.068C121.445 187.992 119.432 186.459 117.082 185.748C113.619 184.631 109.871 184.747 106.474 186.079C104.605 186.771 102.467 187.62 101.122 189.577C100.784 190.076 100.588 190.658 100.554 191.258C100.519 191.859 100.648 192.458 100.927 192.99C101.552 194.022 102.507 194.812 103.638 195.232C104.734 195.687 105.915 195.899 107.103 195.854C108.283 195.832 109.419 195.394 110.312 194.617C110.721 194.219 111.045 193.741 111.265 193.214C111.484 192.687 111.594 192.121 111.587 191.55C111.581 190.484 111.348 189.433 110.902 188.466C109.299 185.188 106.477 182.671 103.038 181.452C100.754 180.61 98.2936 180.353 95.8803 180.705C95.0014 180.832 94.1425 181.074 93.3259 181.425C93.3299 181.489 94.2353 181.122 95.9103 180.889C97.9126 180.645 99.9417 180.813 101.873 181.381C103.805 181.95 105.599 182.907 107.145 184.195C108.581 185.403 109.737 186.91 110.531 188.612C110.948 189.522 111.165 190.511 111.167 191.513C111.172 192.021 111.072 192.525 110.875 192.994C110.677 193.462 110.386 193.886 110.019 194.238C109.214 194.944 108.186 195.342 107.118 195.361C106.005 195.406 104.896 195.208 103.87 194.78C102.837 194.399 101.962 193.683 101.385 192.745C101.147 192.287 101.038 191.772 101.067 191.255C101.097 190.738 101.265 190.239 101.554 189.808C102.148 188.95 102.934 188.242 103.848 187.741C104.734 187.243 105.661 186.823 106.62 186.487C109.926 185.168 113.579 185.018 116.972 186.062C119.268 186.725 121.257 188.172 122.593 190.153C123.042 190.904 123.389 191.711 123.625 192.554Z" fill="white"/>
<path d="M148.393 204.062C148.387 203.969 147.01 203.95 144.883 203.367C142.105 202.59 139.568 201.129 137.504 199.115C135.44 197.102 133.915 194.6 133.067 191.839C132.405 189.725 132.337 188.324 132.245 188.34C132.2 188.664 132.205 188.993 132.259 189.316C132.336 190.203 132.496 191.08 132.738 191.936C133.519 194.792 135.047 197.385 137.166 199.446C139.284 201.507 141.916 202.962 144.79 203.661C145.651 203.88 146.531 204.017 147.418 204.071C147.741 204.115 148.07 204.112 148.393 204.062Z" fill="white"/>
<path d="M158.336 176.393C158.194 176.325 158.044 176.276 157.89 176.246C157.588 176.174 157.155 176.073 156.582 175.962C154.955 175.648 153.288 175.591 151.641 175.792C150.499 175.956 149.391 176.31 148.364 176.839C147.168 177.452 146.15 178.366 145.41 179.49C144.601 180.763 144.265 182.279 144.461 183.772C144.57 184.565 144.862 185.322 145.314 185.982C145.773 186.678 146.462 187.191 147.261 187.431C147.682 187.543 148.125 187.543 148.547 187.43C148.968 187.317 149.353 187.095 149.663 186.786C150.18 186.137 150.43 185.316 150.364 184.491C150.32 183.013 149.938 181.567 149.246 180.264C148.283 178.405 146.725 176.924 144.821 176.057C142.917 175.19 140.774 174.986 138.735 175.478C138.296 175.576 137.866 175.714 137.451 175.889C137.172 176.019 137.028 176.094 137.038 176.112C137.049 176.13 137.646 175.876 138.774 175.661C140.369 175.358 142.012 175.459 143.555 175.953C145.842 176.699 147.736 178.323 148.823 180.469C149.468 181.715 149.823 183.091 149.863 184.496C149.927 185.203 149.719 185.908 149.281 186.468C149.03 186.712 148.72 186.886 148.382 186.974C148.044 187.062 147.69 187.06 147.353 186.969C146.653 186.762 146.047 186.316 145.64 185.709C145.234 185.11 144.969 184.425 144.866 183.707C144.682 182.324 144.985 180.918 145.722 179.729C146.409 178.66 147.363 177.789 148.489 177.202C149.472 176.674 150.535 176.314 151.635 176.136C153.244 175.907 154.877 175.913 156.482 176.155C157.689 176.306 158.319 176.431 158.336 176.393Z" fill="white"/>
<g opacity="0.3">
<path d="M106.468 200.866C110.195 198.426 113.868 196.491 117.791 194.39C121.715 192.29 125.532 189.658 127.959 185.923C132.533 178.882 131.38 169.253 136.07 162.297C136.006 166.761 135.945 171.227 135.888 175.697C135.829 179.788 136.695 183.779 134.239 186.726C132.164 189.21 127.95 191.294 124.951 192.513C118.925 194.963 112.486 198.426 106.468 200.866Z" fill="black"/>
</g>
<path d="M47.4211 255.872C47.4211 255.872 17.8391 266.206 16.656 266.731C14.8475 267.492 15.6046 274.114 18.4165 273.814C19.7537 273.678 41.5727 273.079 44.335 272.727C47.0972 272.374 55.2102 268.537 55.2102 268.537L47.4211 255.872Z" fill="#BC3C50"/>
<path d="M35.6409 268.205C35.1987 267.12 34.6853 266.065 34.104 265.049C33.3937 264.12 32.6238 263.238 31.7992 262.41C32.9097 262.926 33.8555 263.739 34.533 264.76C35.2105 265.78 35.5936 266.969 35.6403 268.196L35.6409 268.205Z" fill="#263238"/>
<path d="M38.6888 266.572C38.5405 266.582 38.1472 265.202 37.2423 263.679C36.3375 262.156 35.3231 261.116 35.4187 261.007C36.3427 261.635 37.1152 262.46 37.6808 263.424C38.2463 264.387 38.5908 265.466 38.6893 266.581L38.6888 266.572Z" fill="#263238"/>
<path d="M41.5273 265.596C41.3115 264.525 41.0091 263.473 40.6229 262.452C40.0879 261.5 39.4799 260.591 38.8044 259.733C39.8025 260.313 40.5981 261.186 41.0847 262.234C41.5714 263.282 41.7257 264.455 41.5273 265.596Z" fill="#263238"/>
<path d="M40.776 261.724C40.4648 261.025 40.3062 260.267 40.3108 259.5C40.2684 258.668 40.3194 257.834 40.4628 257.012C40.5493 256.527 40.672 256.048 40.83 255.581C40.8996 255.287 41.0508 255.018 41.2662 254.806C41.4118 254.683 41.5956 254.614 41.786 254.612C41.9764 254.609 42.1613 254.673 42.3091 254.792C42.5577 255.002 42.719 255.296 42.7616 255.619C42.8011 255.883 42.8178 256.15 42.8115 256.417C42.8398 256.914 42.8084 257.414 42.718 257.904C42.5678 258.727 42.3041 259.526 41.9344 260.277C41.6455 260.996 41.2254 261.656 40.6953 262.223C40.6211 262.228 41.0846 261.442 41.6107 260.168C41.9186 259.43 42.1364 258.659 42.2592 257.87C42.3286 257.409 42.3494 256.942 42.3213 256.478C42.2923 256.014 42.2563 255.439 41.964 255.235C41.9063 255.189 41.8334 255.166 41.7596 255.171C41.6859 255.176 41.6165 255.208 41.5649 255.261C41.4233 255.419 41.3203 255.608 41.2639 255.813C41.1134 256.26 40.9894 256.717 40.8926 257.179C40.7282 257.963 40.6439 258.762 40.6408 259.562C40.6664 260.865 40.8589 261.709 40.776 261.724Z" fill="#263238"/>
<path d="M40.803 261.426C41.4004 261.129 42.0588 260.977 42.7247 260.982C43.4444 260.933 44.1669 260.972 44.8764 261.097C45.313 261.166 45.7388 261.291 46.1435 261.467C46.3979 261.576 46.6097 261.765 46.747 262.006C46.8842 262.246 46.9395 262.525 46.9043 262.8C46.8515 263.065 46.7298 263.311 46.5518 263.514C46.3737 263.716 46.1456 263.869 45.8903 263.955C45.4542 264.096 44.9906 264.127 44.5406 264.046C43.8179 263.931 43.1296 263.66 42.523 263.252C41.9521 262.922 41.4493 262.486 41.0411 261.968C41.6175 262.256 42.1743 262.581 42.7079 262.943C43.2911 263.289 43.9358 263.52 44.6071 263.623C44.98 263.691 45.3643 263.665 45.7257 263.548C45.8966 263.493 46.05 263.393 46.1704 263.259C46.2908 263.126 46.374 262.963 46.4115 262.787C46.4291 262.616 46.3901 262.443 46.3004 262.297C46.2108 262.15 46.0755 262.037 45.9152 261.975C45.5601 261.809 45.1843 261.69 44.7978 261.623C44.1225 261.478 43.4333 261.406 42.7421 261.408C41.5588 261.338 40.8267 261.508 40.803 261.426Z" fill="#263238"/>
<path d="M31.0437 268.833C30.8565 267.918 30.598 267.02 30.2704 266.146C29.7946 265.346 29.2517 264.588 28.6476 263.88C29.5575 264.301 30.2929 265.023 30.7295 265.926C31.1661 266.828 31.2771 267.855 31.0437 268.833Z" fill="#263238"/>
<path d="M52.1197 268.875C51.7698 269.127 51.3907 269.337 50.9907 269.5C49.9249 269.983 48.8299 270.399 47.7121 270.746C43.9915 271.811 40.157 272.429 36.2913 272.587C31.781 272.831 27.7047 272.9 24.7511 272.976L21.2578 273.024C20.8296 273.046 20.4006 273.031 19.9752 272.981C20.3955 272.887 20.8245 272.837 21.2549 272.832L24.7367 272.601L36.2578 272.057C40.0879 271.9 43.8921 271.34 47.6059 270.386C50.451 269.619 52.0764 268.776 52.1197 268.875Z" fill="#263238"/>
<path d="M53.0509 269.491C53.055 269.556 52.1655 269.133 50.7321 268.617C48.907 267.899 46.9141 267.711 44.9821 268.075C43.0936 268.618 41.4295 269.757 40.2393 271.323C39.7448 271.989 39.2044 272.621 38.6221 273.212C38.9727 272.451 39.4246 271.741 39.9655 271.1C40.5156 270.371 41.1465 269.707 41.846 269.119C42.7219 268.378 43.7616 267.857 44.8781 267.599C46.9052 267.215 48.9986 267.467 50.8713 268.32C51.6568 268.59 52.3928 268.986 53.0509 269.491Z" fill="#263238"/>
<path d="M78.8262 245.495C78.8262 245.495 108.488 262.257 109.553 262.948C111.16 264.002 109.748 269.644 107.025 268.87C105.74 268.5 81.4136 263.442 78.7808 262.615C76.148 261.788 68.8727 256.644 68.8727 256.644L78.8262 245.495Z" fill="#BC3C50"/>
<path d="M88.205 259.701C88.4755 258.503 89.0694 257.4 89.9218 256.515C90.7742 255.629 91.8522 254.994 93.0381 254.679C92.0732 255.348 91.1537 256.081 90.2859 256.873C89.5344 257.772 88.8394 258.716 88.205 259.701Z" fill="#263238"/>
<path d="M85.5063 257.545C85.8031 256.463 86.3354 255.46 87.0647 254.607C87.7941 253.753 88.7024 253.072 89.7244 252.611C89.8065 252.735 88.6068 253.616 87.4522 254.921C86.2976 256.227 85.6404 257.61 85.5063 257.545Z" fill="#263238"/>
<path d="M82.8334 256.06C82.7645 254.893 83.1374 253.742 83.8777 252.835C84.4821 251.848 85.431 251.12 86.5391 250.794C85.7223 251.523 84.9606 252.312 84.2602 253.153C83.7086 254.083 83.2315 255.055 82.8334 256.06Z" fill="#263238"/>
<path d="M84.2506 252.395C84.1764 252.4 84.5159 251.567 84.7573 250.209C84.9042 249.421 84.9698 248.621 84.9529 247.82C84.9554 247.348 84.9259 246.877 84.8647 246.41C84.8549 246.198 84.7873 245.993 84.6691 245.817C84.625 245.757 84.559 245.716 84.4851 245.704C84.4112 245.691 84.3353 245.708 84.2733 245.751C83.9565 245.902 83.8242 246.47 83.6942 246.926C83.5855 247.377 83.5206 247.837 83.5003 248.299C83.4782 249.099 83.5532 249.898 83.7237 250.679C84.0034 252.021 84.3243 252.828 84.2518 252.861C83.8277 252.223 83.5299 251.509 83.3744 250.758C83.1454 249.957 83.0307 249.127 83.0337 248.293C83.0399 247.794 83.0995 247.297 83.2114 246.809C83.2718 246.548 83.3491 246.291 83.4429 246.039C83.5477 245.727 83.7636 245.464 84.0494 245.3C84.2165 245.208 84.4103 245.178 84.5967 245.215C84.7832 245.252 84.9504 245.354 85.069 245.502C85.2387 245.75 85.3374 246.039 85.3545 246.34C85.5394 247.655 85.4712 248.994 85.1536 250.285C85.0048 251.044 84.6971 251.763 84.2506 252.395Z" fill="#263238"/>
<path d="M84.3437 252.079C84.3483 252.153 83.6251 251.867 82.4611 251.657C81.7811 251.542 81.091 251.494 80.4011 251.517C80.0066 251.516 79.6135 251.568 79.2319 251.669C79.0632 251.704 78.9099 251.792 78.7943 251.92C78.6787 252.048 78.6069 252.21 78.5895 252.381C78.5932 252.565 78.6459 252.745 78.7421 252.902C78.8384 253.058 78.9747 253.187 79.1371 253.273C79.4675 253.452 79.8365 253.548 80.2127 253.553C80.8923 253.574 81.5698 253.459 82.2057 253.216C82.794 252.949 83.4004 252.726 84.0202 252.546C83.5247 252.998 82.9483 253.352 82.3218 253.589C81.6523 253.897 80.9244 254.057 80.1885 254.056C79.7311 254.063 79.2801 253.953 78.8783 253.736C78.6408 253.611 78.4417 253.424 78.3016 253.195C78.1616 252.965 78.0858 252.703 78.0823 252.434C78.0977 252.156 78.203 251.891 78.3823 251.678C78.5616 251.464 78.805 251.315 79.0759 251.253C79.5042 251.147 79.9444 251.099 80.3849 251.109C81.1067 251.109 81.8256 251.195 82.5264 251.365C83.1797 251.459 83.8016 251.704 84.3437 252.079Z" fill="#263238"/>
<path d="M103.333 268.151C103.336 268.197 102.833 267.896 102.56 267.094C102.271 266.043 102.394 264.919 102.903 263.952C103.147 263.436 103.426 262.938 103.741 262.461C103.995 262.056 104.3 261.685 104.649 261.357C104.898 261.122 105.213 260.968 105.552 260.915C105.793 260.899 105.916 260.937 105.918 260.965C105.919 260.993 105.411 261.045 104.916 261.619C104.624 261.955 104.37 262.322 104.156 262.713C103.852 263.183 103.572 263.668 103.317 264.166C102.857 265.032 102.696 266.026 102.86 266.99C102.994 267.386 103.152 267.774 103.333 268.151Z" fill="#263238"/>
<path d="M92.6185 261.138C92.5489 260.639 92.5877 260.131 92.7325 259.647C92.8772 259.164 93.1243 258.717 93.457 258.337C93.7162 257.904 94.0669 257.532 94.4846 257.248C94.9022 256.965 95.3765 256.776 95.874 256.695C95.1509 257.284 94.4791 257.933 93.8661 258.635C93.3808 259.433 92.9634 260.271 92.6185 261.138Z" fill="#263238"/>
<path d="M71.8864 257.468C72.3446 257.685 72.7829 257.941 73.1963 258.234C74.374 258.941 75.5914 259.581 76.8425 260.151C78.6932 260.98 80.5973 261.686 82.5425 262.264C84.7551 262.922 87.2606 263.515 89.8204 264.086C95.0417 265.22 99.7651 266.257 103.173 267.04L107.234 268.02C107.734 268.118 108.224 268.259 108.699 268.442C108.191 268.407 107.687 268.332 107.191 268.218L103.12 267.368C99.6888 266.671 94.9597 265.689 89.7384 264.555C87.1318 263.978 84.6529 263.365 82.4385 262.679C80.4683 262.076 78.5453 261.331 76.6848 260.449C75.4346 259.846 74.2312 259.152 73.0842 258.371C72.6605 258.104 72.2598 257.802 71.8864 257.468Z" fill="#263238"/>
<path d="M70.8564 257.871C71.602 257.482 72.4021 257.209 73.229 257.062C75.2311 256.55 77.3392 256.669 79.2662 257.4C80.3121 257.863 81.2293 258.573 81.9392 259.47C82.5217 260.176 83.0215 260.947 83.4288 261.767C83.8464 262.492 84.1607 263.271 84.3626 264.084C83.8993 263.397 83.4824 262.68 83.1145 261.937C82.2308 260.182 80.7998 258.765 79.0374 257.899C77.1975 257.213 75.1996 257.06 73.2723 257.458C71.8006 257.678 70.8796 257.944 70.8564 257.871Z" fill="#263238"/>
<path d="M16.7375 203.753C16.7375 203.753 8.37612 207.379 8.94738 216.976C10.02 235.346 48.4508 253.106 48.4508 253.106L95.8666 217L98.8853 215.534C98.8853 215.534 30.5208 194.922 16.7375 203.753Z" fill="#263238"/>
<path d="M71.8463 235.247C71.3748 235.025 70.9234 234.763 70.4969 234.464C69.6551 233.925 68.4445 233.132 66.9604 232.125C63.9841 230.13 59.9417 227.276 55.5657 223.989C51.1898 220.702 47.3364 217.603 44.592 215.304C43.2201 214.159 42.1205 213.21 41.3637 212.544C40.9574 212.222 40.5806 211.865 40.238 211.476C40.6824 211.746 41.1025 212.054 41.4938 212.396L44.8163 215.028C47.6209 217.249 51.5089 220.308 55.8751 223.587C60.2412 226.865 64.2489 229.758 67.1558 231.833L70.6073 234.298C71.045 234.581 71.4593 234.898 71.8463 235.247Z" fill="#455A64"/>
<path d="M31.1162 209.588C34.3274 209.03 37.6232 209.766 40.2813 211.634C40.2068 211.778 38.3699 210.743 35.7932 210.192C33.2165 209.642 31.126 209.745 31.1162 209.588Z" fill="#455A64"/>
<path d="M35.1868 206.398C36.3629 206.808 37.4187 207.503 38.2606 208.42C39.1026 209.338 39.7048 210.45 40.014 211.659C39.8659 211.669 39.2359 210.213 37.8908 208.767C36.5458 207.322 35.1116 206.534 35.1868 206.398Z" fill="#455A64"/>
<path d="M18.0293 266.138C18.0258 266.083 18.6122 265.922 19.3343 266.442C20.1906 267.142 20.7623 268.13 20.9432 269.223C21.1736 270.293 21.0879 271.409 20.6967 272.435C20.391 273.21 20.0233 273.588 19.9745 273.554C20.0712 273.134 20.198 272.721 20.3539 272.318C20.6192 271.342 20.651 270.319 20.4467 269.33C20.2743 268.344 19.8082 267.434 19.1092 266.718C18.546 266.206 18.0252 266.223 18.0293 266.138Z" fill="#263238"/>
<path d="M26.1581 172.914L46.556 216.391L122.457 212.547L123.605 208.348L96.9706 209.167L81.7217 170.405L26.1581 172.914Z" fill="#455A64"/>
<path d="M62.7922 189.864C62.1911 189.61 61.5288 189.535 60.8849 189.65C60.2411 189.764 59.6429 190.062 59.1625 190.507C58.758 190.941 58.4929 191.486 58.4018 192.071C58.3107 192.657 58.3978 193.255 58.6518 193.789C58.9237 194.32 59.339 194.764 59.8507 195.07C60.3624 195.376 60.95 195.532 61.5471 195.52C62.1763 195.518 62.7886 195.311 63.2913 194.93C63.794 194.549 64.1596 194.014 64.3326 193.407C64.4894 192.731 64.4283 192.024 64.1582 191.387C63.8881 190.749 63.4228 190.215 62.8292 189.861" fill="#EBEBEB"/>
<path d="M43.881 255.791C43.881 255.791 110.898 205.224 113.687 204.08C116.475 202.936 123.126 197.936 130.152 199.379C137.178 200.822 143.779 206.615 147.442 215.476C149.541 220.539 150.925 229.32 151.737 235.929C152.762 243.827 150.681 251.829 145.934 258.248C143.84 261.235 140.958 263.581 137.611 265.023C136.895 265.303 136.149 265.548 135.383 265.767C122.349 269.522 108.377 264.493 100.275 253.681L98.4926 251.31C98.4926 251.31 53.82 271.182 53.0937 270.998L43.881 255.791Z" fill="#263238"/>
<path d="M129.57 237.342C129.451 237.412 129.328 237.477 129.202 237.534L128.083 238.065L123.76 240.075L107.677 247.392C100.848 250.472 92.6634 254.144 83.4718 258.201C74.2802 262.257 64.1007 266.706 53.2011 271.221L53.0115 271.308L52.8976 271.12L46.7802 261.044L43.6735 255.906L43.5591 255.71L43.7458 255.576L94.9469 218.115L110.334 206.93L114.511 203.917L115.605 203.146C115.854 202.971 115.989 202.897 115.989 202.897L115.635 203.19L114.571 203.996L110.444 207.062L95.1041 218.402L43.9943 255.987L44.066 255.648C45.0503 257.283 46.134 259.023 47.1727 260.785L53.2808 270.862L52.9681 270.762C63.8314 266.259 74.0484 261.817 83.251 257.788L107.5 247.088L123.683 239.884L128.039 237.956L129.179 237.47L129.57 237.342Z" fill="#455A64"/>
<path d="M111.799 74.4665C110.404 71.3149 107.681 70.0935 104.292 69.5119C102.588 69.2333 100.84 69.3711 99.1972 69.9135C97.5542 70.456 96.0644 71.3872 94.8546 72.6278C93.2585 74.2878 92.1537 76.5285 90.1212 77.5948C86.7688 79.3912 82.2142 77.4 79.0965 79.534C78.1599 80.1728 77.4716 81.1157 77.1487 82.2026C76.8258 83.2894 76.8883 84.4529 77.3255 85.4953C77.7627 86.5378 78.5477 87.3948 79.5469 87.9205C80.5461 88.4463 81.6979 88.6084 82.8064 88.3793C80.6247 89.5857 80.42 93.0028 82.086 94.8437C83.752 96.6847 86.6429 97.0208 88.9963 96.1841C91.3068 95.2113 93.3114 93.6268 94.794 91.6013C96.3618 89.6364 97.7175 87.5462 99.4419 85.7102C101.088 83.8043 103.352 82.5393 105.832 82.1385C109.182 81.7836 112.44 83.8432 114.367 86.5872C116.293 89.3312 117.181 92.6844 117.879 95.9851C118.577 99.2858 119.159 102.65 120.639 105.675C120.81 106.036 121.056 106.419 121.441 106.477C122.013 106.559 122.381 105.912 122.57 105.369C124.73 99.2522 125.67 92.7754 125.337 86.3068C125.152 82.5997 124.505 79.0817 122.001 76.3021C119.496 73.5224 114.027 72.0575 111.824 74.4184" fill="#263238"/>
<path d="M120.665 88.9101L128.155 126.009C128.456 127.507 128.449 129.053 128.134 130.551C127.819 132.049 127.204 133.469 126.324 134.724C125.445 135.979 124.321 137.043 123.02 137.851C121.719 138.659 120.268 139.194 118.757 139.424C115.896 139.868 112.978 139.193 110.61 137.541C108.241 135.888 106.602 133.384 106.032 130.547C105.478 127.791 105.005 125.429 104.922 125.146C104.922 125.146 95.3025 126.21 92.7366 117.005C91.5281 112.551 89.6867 103.177 88.1418 94.6764C87.3555 90.2766 88.2518 85.7342 90.6529 81.9507C93.0539 78.1672 96.7841 75.4193 101.103 74.2523L102.019 74.014C111.799 71.9426 118.945 79.099 120.665 88.9101Z" fill="#FFBE9D"/>
<path d="M104.962 125.037C109.24 123.951 113.106 121.617 116.067 118.332C116.067 118.332 114.988 125.731 105.574 127.404L104.962 125.037Z" fill="#EB996E"/>
<path d="M92.5641 100.096C92.6512 100.441 92.87 100.736 93.1734 100.92C93.4768 101.103 93.8404 101.159 94.186 101.076C94.3569 101.045 94.5199 100.98 94.6654 100.885C94.8109 100.79 94.9358 100.666 95.0326 100.521C95.1294 100.377 95.1962 100.214 95.2289 100.043C95.2615 99.8723 95.2595 99.6968 95.2228 99.5272C95.1377 99.181 94.9196 98.883 94.6159 98.6979C94.3121 98.5127 93.9472 98.4554 93.6003 98.5382C93.4291 98.5702 93.2659 98.6363 93.1205 98.7326C92.975 98.8289 92.8502 98.9534 92.7535 99.0988C92.6569 99.2441 92.5903 99.4074 92.5577 99.5787C92.5252 99.7501 92.5273 99.9261 92.5641 100.096Z" fill="#263238"/>
<path d="M91.4106 98.6213C91.6231 98.7555 92.4231 97.7463 93.8375 97.364C95.252 96.9817 96.4857 97.4186 96.6099 97.1783C96.734 96.9381 96.4112 96.8205 95.8694 96.6156C95.1478 96.3505 94.3596 96.3221 93.6187 96.5345C92.8814 96.7272 92.2247 97.1518 91.7456 97.7454C91.3759 98.2154 91.3147 98.572 91.4106 98.6213Z" fill="#263238"/>
<path d="M106.559 96.8361C106.644 97.1822 106.862 97.4802 107.166 97.6653C107.47 97.8505 107.835 97.9078 108.182 97.825C108.353 97.7917 108.515 97.7249 108.661 97.6284C108.806 97.5319 108.931 97.4075 109.028 97.2626C109.125 97.1176 109.193 96.955 109.227 96.7839C109.261 96.6129 109.261 96.437 109.227 96.2663C109.136 95.9239 108.916 95.6304 108.615 95.4463C108.313 95.2623 107.951 95.2018 107.605 95.2774C107.433 95.3094 107.27 95.3755 107.124 95.4717C106.978 95.5679 106.852 95.6923 106.755 95.8375C106.658 95.9828 106.59 96.146 106.556 96.3174C106.523 96.4889 106.524 96.6652 106.559 96.8361Z" fill="#263238"/>
<path d="M105.384 95.1482C105.596 95.2731 106.396 94.264 107.81 93.8817C109.224 93.4993 110.458 93.9362 110.582 93.696C110.706 93.4557 110.384 93.3382 109.842 93.1333C109.119 92.8731 108.333 92.8448 107.591 93.0521C106.855 93.2532 106.197 93.6762 105.709 94.2636C105.352 94.7885 105.287 95.0897 105.384 95.1482Z" fill="#263238"/>
<path d="M103.067 107.048C102.255 107.012 101.441 107.082 100.646 107.256C100.265 107.282 99.9031 107.306 99.7783 107.1C99.6373 106.74 99.6125 106.344 99.7075 105.968C99.8166 105.029 99.9281 103.978 100.048 102.908C100.495 98.5733 100.713 95.0553 100.544 95.0387C100.375 95.0221 99.8295 98.5247 99.4196 102.857C99.3186 103.926 99.2142 104.939 99.1259 105.914C99.0113 106.415 99.0805 106.939 99.3209 107.392C99.407 107.504 99.5177 107.594 99.6445 107.657C99.7712 107.719 99.9107 107.752 100.052 107.753C100.267 107.768 100.482 107.754 100.693 107.71C101.509 107.589 102.306 107.366 103.067 107.048Z" fill="#263238"/>
<path d="M107.5 106.937C107.259 106.953 107.673 108.526 106.648 109.973C105.623 111.419 103.968 111.697 103.981 111.92C103.995 112.142 104.421 112.114 105.117 111.946C106.023 111.715 106.821 111.174 107.373 110.417C107.895 109.684 108.115 108.779 107.987 107.891C107.871 107.229 107.599 106.893 107.5 106.937Z" fill="#263238"/>
<path d="M103.538 89.6651C103.773 90.0198 105.139 89.4561 106.858 89.2021C108.577 88.9482 110.031 89.0454 110.163 88.6383C110.216 88.4495 109.882 88.157 109.246 87.9309C108.405 87.6623 107.511 87.5952 106.636 87.7351C105.756 87.8616 104.918 88.1972 104.192 88.7136C103.652 89.1202 103.444 89.5046 103.538 89.6651Z" fill="#263238"/>
<path d="M90.8401 94.3688C91.1717 94.6249 92.0533 94.0277 93.2295 93.6891C94.4057 93.3505 95.453 93.3267 95.5859 92.9281C95.6483 92.7383 95.408 92.4576 94.8858 92.2699C94.2074 92.0535 93.4776 92.0538 92.7974 92.2707C92.1097 92.4642 91.501 92.8724 91.0602 93.4355C90.7442 93.8742 90.6836 94.2401 90.8401 94.3688Z" fill="#263238"/>
<path d="M121.657 95.9872C121.799 95.8753 127.504 92.3924 128.981 98.7635C130.457 105.135 123.756 105.333 123.707 105.15C123.659 104.967 121.657 95.9872 121.657 95.9872Z" fill="#FFBE9D"/>
<path d="M125.086 102.275C125.086 102.275 125.21 102.332 125.418 102.374C125.708 102.424 126.007 102.36 126.254 102.197C126.609 101.841 126.861 101.396 126.985 100.909C127.108 100.422 127.098 99.9111 126.956 99.4305C126.847 98.8785 126.614 98.3591 126.275 97.9115C126.175 97.725 126.032 97.5654 125.858 97.4459C125.684 97.3263 125.483 97.2503 125.273 97.2242C125.137 97.2219 125.004 97.2674 124.897 97.3528C124.79 97.4382 124.716 97.5581 124.688 97.6919C124.644 97.8811 124.708 98.0072 124.708 98.0165C124.709 98.0258 124.545 97.9436 124.538 97.674C124.537 97.5082 124.593 97.347 124.696 97.2164C124.765 97.1281 124.853 97.0552 124.952 97.002C125.051 96.9489 125.16 96.9168 125.272 96.9076C125.544 96.8973 125.815 96.957 126.057 97.0809C126.3 97.2049 126.506 97.389 126.657 97.6158C127.057 98.1045 127.333 98.6837 127.46 99.3036C127.718 100.6 127.337 101.957 126.473 102.434C126.314 102.525 126.136 102.578 125.953 102.59C125.77 102.603 125.586 102.573 125.417 102.505C125.133 102.431 125.069 102.295 125.086 102.275Z" fill="#EB996E"/>
<path d="M85.7341 93.2833C87.9146 93.2548 90.0597 92.7088 91.9931 91.6903C93.9265 90.6717 95.5931 89.2096 96.8562 87.4239C98.5567 84.9112 99.592 81.7088 102.175 80.0852C103.067 79.5701 104.051 79.2367 105.071 79.1045C106.091 78.9722 107.126 79.0437 108.117 79.3147C110.089 79.8759 111.925 80.8346 113.512 82.1323C112.98 87.2998 115.562 92.2211 118.061 96.7018C118.286 97.235 118.683 97.6765 119.189 97.9556C120.085 98.3324 121.078 97.5778 121.554 96.7185C122.207 95.2877 122.43 93.6996 122.198 92.1478C121.956 88.5923 121.013 85.123 119.425 81.9401C117.814 78.7489 115.301 76.1053 112.199 74.3367C108.231 72.2569 103.604 71.804 99.2946 73.0735C95.0118 74.3771 91.2408 76.9945 88.5152 80.5554C87.1777 82.1423 86.2525 84.0346 85.8221 86.0631" fill="#263238"/>
<path d="M164.029 23.1812L153.251 34.2325L138.077 28.4666L137.472 32.2571L144.045 45.7857L137.981 55.8867L138.491 58.9085L153.177 56.4206L161.863 65.9984L163.902 64.4502L165.696 52.267L179.395 45.0916L180 42.3048L166.206 38.5142L164.029 23.1812Z" fill="url(#paint0_linear_115_4585)"/>
<g opacity="0.3">
<path d="M164.029 23.1812L153.251 34.2325L138.077 28.4666L137.472 32.2571L144.045 45.7857L137.981 55.8867L138.491 58.9085L153.177 56.4206L161.863 65.9984L163.902 64.4502L165.696 52.267L179.395 45.0916L180 42.3048L166.206 38.5142L164.029 23.1812Z" fill="black"/>
</g>
<path d="M164.029 20.0737L153.251 31.1357L138.077 28.4663L145.202 42.1978L137.981 55.8865L153.177 53.3238L163.902 64.4499L166.164 49.1275L180 42.3045L166.206 35.4068L164.029 20.0737Z" fill="url(#paint1_linear_115_4585)"/>
<path d="M52.2668 23.1812L63.0555 34.2325L78.2297 28.4666L78.835 32.2571L72.2619 45.7857L78.3253 55.8867L77.8156 58.9085L63.1298 56.4206L54.4436 65.9984L52.4048 64.4502L50.6102 52.267L36.912 45.0916L36.3067 42.3048L50.1005 38.5142L52.2668 23.1812Z" fill="url(#paint2_linear_115_4585)"/>
<g opacity="0.3">
<path d="M52.2668 23.1812L63.0555 34.2325L78.2297 28.4666L78.835 32.2571L72.2619 45.7857L78.3253 55.8867L77.8156 58.9085L63.1298 56.4206L54.4436 65.9984L52.4048 64.4502L50.6102 52.267L36.912 45.0916L36.3067 42.3048L50.1005 38.5142L52.2668 23.1812Z" fill="black"/>
</g>
<path d="M52.2667 20.0737L63.0554 31.1357L78.2296 28.4663L71.1044 42.1978L78.3252 55.8865L63.1297 53.3238L52.4047 64.4499L50.1429 49.1275L36.3067 42.3045L50.1004 35.4068L52.2667 20.0737Z" fill="url(#paint3_linear_115_4585)"/>
<path d="M108.504 3.77979L99.5309 21.4085L78.8349 20.1806L79.5357 25.0282L92.6818 39.0266L89.1245 53.6656L90.8766 57.1572L107.856 48.4977L122.075 56.8689L123.975 54.1888L121.554 38.6315L135.55 24.6332L135.231 21.0135L116.967 21.6648L108.504 3.77979Z" fill="url(#paint4_linear_115_4585)"/>
<g opacity="0.3">
<path d="M108.504 3.77979L99.5309 21.4085L78.8349 20.1806L79.5357 25.0282L92.6818 39.0266L89.1245 53.6656L90.8766 57.1572L107.856 48.4977L122.075 56.8689L123.975 54.1888L121.554 38.6315L135.55 24.6332L135.231 21.0135L116.967 21.6648L108.504 3.77979Z" fill="black"/>
</g>
<path d="M107.336 0L98.363 17.6181L78.8351 20.1807L92.7351 34.2111L89.1247 53.6657L106.678 44.7179L123.976 54.1889L120.928 34.6275L135.231 21.0136L115.788 17.8743L107.336 0Z" fill="url(#paint5_linear_115_4585)"/>
<defs>
<linearGradient id="paint0_linear_115_4585" x1="180" y1="24.2329" x2="139.731" y2="24.2115" gradientUnits="userSpaceOnUse">
<stop stop-color="#FFD956"/>
<stop offset="0.155" stop-color="#F7CB61"/>
<stop offset="0.35" stop-color="#FFD46A"/>
<stop offset="0.565" stop-color="#FFD675"/>
<stop offset="0.715" stop-color="#FBD67E"/>
<stop offset="0.84" stop-color="#F9C762"/>
<stop offset="1" stop-color="#F1B856"/>
</linearGradient>
<linearGradient id="paint1_linear_115_4585" x1="180" y1="21.1638" x2="140.213" y2="21.1436" gradientUnits="userSpaceOnUse">
<stop stop-color="#FFD956"/>
<stop offset="0.155" stop-color="#F7CB61"/>
<stop offset="0.35" stop-color="#FFD46A"/>
<stop offset="0.565" stop-color="#FFD675"/>
<stop offset="0.715" stop-color="#FBD67E"/>
<stop offset="0.84" stop-color="#F9C762"/>
<stop offset="1" stop-color="#F1B856"/>
</linearGradient>
<linearGradient id="paint2_linear_115_4585" x1="78.835" y1="24.2329" x2="38.5656" y2="24.2115" gradientUnits="userSpaceOnUse">
<stop stop-color="#FFD956"/>
<stop offset="0.155" stop-color="#F7CB61"/>
<stop offset="0.35" stop-color="#FFD46A"/>
<stop offset="0.565" stop-color="#FFD675"/>
<stop offset="0.715" stop-color="#FBD67E"/>
<stop offset="0.84" stop-color="#F9C762"/>
<stop offset="1" stop-color="#F1B856"/>
</linearGradient>
<linearGradient id="paint3_linear_115_4585" x1="78.3252" y1="21.1638" x2="38.5384" y2="21.1436" gradientUnits="userSpaceOnUse">
<stop stop-color="#FFD956"/>
<stop offset="0.155" stop-color="#F7CB61"/>
<stop offset="0.35" stop-color="#FFD46A"/>
<stop offset="0.565" stop-color="#FFD675"/>
<stop offset="0.715" stop-color="#FBD67E"/>
<stop offset="0.84" stop-color="#F9C762"/>
<stop offset="1" stop-color="#F1B856"/>
</linearGradient>
<linearGradient id="paint4_linear_115_4585" x1="135.55" y1="5.09099" x2="81.8472" y2="5.06041" gradientUnits="userSpaceOnUse">
<stop stop-color="#FFD956"/>
<stop offset="0.155" stop-color="#F7CB61"/>
<stop offset="0.35" stop-color="#FFD46A"/>
<stop offset="0.565" stop-color="#FFD675"/>
<stop offset="0.715" stop-color="#FBD67E"/>
<stop offset="0.84" stop-color="#F9C762"/>
<stop offset="1" stop-color="#F1B856"/>
</linearGradient>
<linearGradient id="paint5_linear_115_4585" x1="135.231" y1="1.33113" x2="81.8305" y2="1.30135" gradientUnits="userSpaceOnUse">
<stop stop-color="#FFD956"/>
<stop offset="0.155" stop-color="#F7CB61"/>
<stop offset="0.35" stop-color="#FFD46A"/>
<stop offset="0.565" stop-color="#FFD675"/>
<stop offset="0.715" stop-color="#FBD67E"/>
<stop offset="0.84" stop-color="#F9C762"/>
<stop offset="1" stop-color="#F1B856"/>
</linearGradient>
</defs>
</svg>
