<svg width="144" height="190" viewBox="0 0 144 190" fill="none" xmlns="http://www.w3.org/2000/svg">
<path d="M64.579 52.5523L79.2676 22.5956C82.679 15.0248 89.9283 10.6993 97.4019 14.319L98.0728 14.694C104.827 18.466 107.555 26.7914 104.338 33.8267C101.345 40.3723 97.9536 47.5663 96.0357 50.9036C92.0646 57.8119 84.5027 55.0081 84.5027 55.0081C84.4865 54.9999 82.2734 59.3085 81.2224 61.397L75.3002 62.7359L64.579 52.5523Z" fill="#FFBF9D"/>
<path d="M84.5044 55.0046C84.5044 55.0046 79.9762 52.8128 76.9424 47.2681C76.9424 47.2681 76.2007 53.7149 83.492 56.9655L84.5044 55.0046Z" fill="#FF9A6C"/>
<path d="M98.854 39.0552C98.5795 39.5901 97.9001 39.7992 97.3363 39.5223C96.7739 39.2461 96.5384 38.5899 96.8129 38.055C97.0873 37.5201 97.7671 37.3104 98.3299 37.586C98.8936 37.8628 99.1284 38.5203 98.854 39.0552Z" fill="#263238"/>
<path d="M101.154 36.0715C100.958 36.132 100.517 35.1548 99.4466 34.5607C98.3862 33.9515 97.2943 34.0634 97.2517 33.868C97.2271 33.7784 97.4831 33.6144 97.9634 33.5566C98.4381 33.4967 99.1458 33.5757 99.8099 33.9513C100.474 34.3269 100.897 34.8844 101.079 35.3152C101.267 35.751 101.247 36.0473 101.154 36.0715Z" fill="#263238"/>
<path d="M88.9916 33.7546C88.7172 34.2895 88.0381 34.498 87.474 34.2217C86.9112 33.9462 86.6754 33.289 86.9499 32.7541C87.2244 32.2192 87.9038 32.0101 88.4672 32.286C89.0316 32.5616 89.2661 33.2197 88.9916 33.7546Z" fill="#263238"/>
<path d="M90.5379 30.4705C90.3424 30.5309 89.8994 29.5537 88.8299 28.9593C87.7691 28.3508 86.6772 28.4627 86.6343 28.2663C86.6098 28.1767 86.8644 28.012 87.3466 27.9552C87.8214 27.8953 88.529 27.9743 89.1935 28.3493C89.8567 28.7252 90.2801 29.283 90.4624 29.7132C90.6489 30.1496 90.6304 30.4466 90.5379 30.4705Z" fill="#263238"/>
<path d="M89.7604 40.8213C89.7892 40.7578 90.5178 41.014 91.6713 41.4777C91.9604 41.6019 92.2486 41.6924 92.3989 41.5319C92.5731 41.3705 92.6233 41.0123 92.6685 40.6208C92.7807 39.8169 92.8986 38.9745 93.0225 38.0913C93.5547 34.5053 94.102 31.6193 94.2459 31.6417C94.3904 31.6644 94.0762 34.5894 93.5443 38.1747C93.4061 39.0556 93.2759 39.895 93.1498 40.6975C93.0801 41.0653 93.0609 41.5163 92.6932 41.8481C92.506 42.0111 92.2227 42.0474 92.0219 41.9963C91.8168 41.9519 91.6618 41.8695 91.522 41.8021C90.4055 41.2555 89.7309 40.8844 89.7604 40.8213Z" fill="#263238"/>
<path d="M92.7466 27.3171C92.449 27.5087 91.572 26.6428 90.3243 25.9105C89.091 25.1529 87.9147 24.7858 87.9438 24.4324C87.963 24.2674 88.3132 24.1405 88.8813 24.1677C89.4455 24.1929 90.2201 24.3983 90.9647 24.8447C91.708 25.292 92.2528 25.8795 92.5403 26.3653C92.831 26.8543 92.8835 27.223 92.7466 27.3171Z" fill="#263238"/>
<path d="M102.943 32.9501C102.587 33.074 101.846 32.3468 100.797 31.7662C99.7657 31.1545 98.7603 30.8802 98.6921 30.5134C98.6689 30.3408 98.9414 30.1714 99.4569 30.15C99.9662 30.1263 100.712 30.2846 101.427 30.6942C102.142 31.1044 102.65 31.6651 102.882 32.1134C103.119 32.5655 103.106 32.8836 102.943 32.9501Z" fill="#263238"/>
<path d="M76.96 28.0605C76.8701 27.9427 72.9698 23.9768 70.4657 28.8176C67.9615 33.6584 73.338 35.1738 73.418 35.0396C73.4981 34.9053 76.96 28.0605 76.96 28.0605Z" fill="#FFBF9D"/>
<path d="M72.892 32.4469C72.8785 32.4206 72.7771 32.4619 72.6007 32.454C72.4292 32.4461 72.1675 32.3658 71.9635 32.1408C71.5494 31.6885 71.5384 30.6542 71.9662 29.7694C72.1816 29.3225 72.4914 28.9509 72.8269 28.6841C73.1583 28.4063 73.515 28.2779 73.7961 28.3647C74.0832 28.4383 74.1858 28.6869 74.1741 28.8532C74.1691 29.0222 74.0877 29.1029 74.1093 29.1244C74.1167 29.1436 74.255 29.0965 74.3196 28.8772C74.3492 28.7703 74.3518 28.627 74.2863 28.4752C74.2189 28.3209 74.0736 28.184 73.8838 28.1109C73.497 27.9437 72.9838 28.1134 72.6144 28.4052C72.224 28.6889 71.8661 29.1012 71.6245 29.6031C71.1508 30.5948 71.178 31.7657 71.773 32.3297C72.0672 32.5947 72.4047 32.6393 72.6105 32.6003C72.8231 32.5591 72.9043 32.4645 72.892 32.4469Z" fill="#FF9A6C"/>
<path d="M86.003 39.7606C86.1753 39.8347 85.6183 40.9557 86.1789 42.2289C86.7369 43.504 87.9932 43.975 87.9234 44.1355C87.9036 44.2133 87.5491 44.2201 87.0381 43.9821C86.5361 43.7519 85.8933 43.2327 85.55 42.4538C85.2087 41.6742 85.2832 40.8984 85.4737 40.4202C85.666 39.9307 85.9299 39.7156 86.003 39.7606Z" fill="#263238"/>
<path d="M117.391 32.3873C117.463 32.0627 117.378 31.7205 117.201 31.4388C116.818 30.8238 116.157 30.5352 115.545 30.2049C114.023 29.3828 112.705 28.1987 111.698 26.7932C112.3 26.7994 112.899 26.7372 113.474 26.5565C114.661 26.1833 115.731 25.2231 115.916 23.9922C115.95 23.7611 115.943 23.4964 115.777 23.3328C115.512 23.0732 115.078 23.2386 114.731 23.3697C113.593 23.8003 112.748 23.7998 111.73 23.1323C111.098 22.7176 110.529 22.2329 110.175 21.6326C110.165 21.6001 110.159 21.566 110.149 21.5336C110.033 21.1432 109.916 20.7681 109.799 20.4024C109.799 20.4024 109.798 20.4004 109.799 20.3991L109.799 20.4008C108.918 17.6508 108.003 15.587 106.73 14.1011C104.863 11.9231 101.115 9.48546 98.3174 8.85135C95.52 8.21723 92.2708 9.06523 90.6177 11.4093C89.8438 9.52443 87.766 8.45697 85.7334 8.25824L85.7011 8.21755C83.4815 7.91129 81.3891 9.33684 79.844 10.9594C79.7593 11.0482 79.6784 11.1406 79.5953 11.2311C78.44 11.9057 77.1328 12.3183 75.7957 12.3818C75.5602 12.3928 75.2854 12.4139 75.1548 12.6112C75.0255 12.8059 75.1109 13.0676 75.2173 13.2766C75.499 13.8318 75.9123 14.3146 76.4052 14.6947C75.9982 15.0593 75.5679 15.396 75.1003 15.6878C74.7025 15.9361 74.2287 16.2337 74.2201 16.7023C74.2133 17.0645 74.5171 17.3733 74.8594 17.4919C75.2017 17.6105 75.5748 17.5814 75.9366 17.5505C75.4675 17.9415 74.9987 18.3335 74.5303 18.7248C75.1467 19.1949 75.8763 19.5053 76.6379 19.6481C76.1075 21.6407 74.6869 25.1034 74.5174 26.5527C75.7889 27.2426 76.1734 27.2648 76.7094 27.8169C77.4019 28.5302 76.3125 29.846 77.6212 29.9916C78.2873 30.0659 80.2319 28.4055 80.7117 27.9371C83.8924 24.8279 86.39 21.0239 87.9833 16.8709C89.1888 16.4475 90.4765 16.2583 91.7525 16.3174L91.6291 16.3493C93.9634 16.6908 96.5516 17.1777 97.9442 19.0811C99.0252 20.558 99.0953 22.5121 99.5571 24.283C100.432 27.6384 102.132 30.0712 105.137 31.8009C104.304 34.0801 102.571 37.614 101.64 39.66L105.415 36.5567L105.408 36.5735C105.667 36.4112 105.902 36.2345 106.135 36.0562L106.21 36.004L106.215 35.9949C106.586 35.7063 106.949 35.4131 107.364 35.1532C107.368 35.1623 107.371 35.1711 107.374 35.1802C107.959 36.6938 110.306 36.0643 110.057 34.4613C110.009 34.1433 109.913 33.8335 109.77 33.5442C110.023 34.2634 110.643 34.8681 111.393 35.0056C112.143 35.1429 112.985 34.7493 113.28 34.0459C113.48 33.5655 113.365 32.9831 113.045 32.5854C113.882 33.1061 114.872 33.3793 115.857 33.3409C116.503 33.3155 117.235 33.1021 117.391 32.3873Z" fill="#263238"/>
<path d="M92.4216 13.3796C92.4264 13.4055 92.0277 13.4128 91.3741 13.6594C90.7256 13.9069 89.8498 14.4676 89.0661 15.444C88.6731 15.9271 88.2886 16.4965 87.95 17.1485C87.6082 17.7989 87.2979 18.5237 86.9656 19.2854C86.6308 20.0457 86.2796 20.8498 85.8123 21.6342C85.5787 22.0256 85.3165 22.4107 85.0159 22.7755C84.7169 23.1323 84.3838 23.5148 83.899 23.7037C83.5095 23.8602 83.0393 23.7745 82.7258 23.5201C82.4045 23.2732 82.1881 22.9216 82.0909 22.545C81.912 21.7768 82.1484 21.0439 82.3443 20.3913L82.483 20.4866C81.9623 20.8946 81.4393 21.2925 80.8513 21.5217C80.2678 21.7566 79.6194 21.7758 79.0846 21.5558C78.8181 21.4463 78.5828 21.272 78.4213 21.0482C78.2546 20.8233 78.189 20.5545 78.1794 20.3018C78.177 20.0479 78.2351 19.801 78.3557 19.5962C78.4766 19.3924 78.6622 19.2359 78.8691 19.1642L78.9098 19.2701C78.0411 19.6078 77.2914 19.6424 76.7963 19.6204C76.5469 19.609 76.3573 19.5806 76.2303 19.5586C76.1036 19.5343 76.0388 19.5178 76.0398 19.5127C76.0411 19.5068 76.1075 19.5136 76.2346 19.5275C76.3627 19.5394 76.552 19.5571 76.7985 19.5598C77.2875 19.5633 78.0237 19.5104 78.8678 19.1652L78.9085 19.2711C78.5389 19.3995 78.295 19.8353 78.3147 20.2979C78.3263 20.5272 78.3894 20.7688 78.5381 20.9634C78.6832 21.1603 78.8985 21.3179 79.1436 21.4149C79.637 21.6124 80.2426 21.5927 80.7923 21.3668C81.3495 21.1455 81.8578 20.7572 82.3756 20.347L82.5953 20.1728L82.515 20.4426C82.3195 21.0946 82.1042 21.8049 82.2708 22.4994C82.3572 22.8364 82.5575 23.1571 82.839 23.3717C83.1179 23.5932 83.498 23.661 83.8362 23.5289C84.2583 23.3676 84.5822 23.0097 84.875 22.6572C85.1685 22.3017 85.4264 21.925 85.6574 21.5404C86.1187 20.7709 86.4722 19.9737 86.8103 19.2166C87.147 18.4572 87.4635 17.7315 87.8157 17.0766C88.1647 16.4201 88.5613 15.8462 88.9669 15.3605C89.7756 14.3797 90.6826 13.8217 91.3507 13.5915C92.0221 13.3613 92.4216 13.3796 92.4216 13.3796Z" fill="#455A64"/>
<path d="M110.734 31.648C110.734 31.6506 110.707 31.657 110.652 31.6668C110.586 31.6766 110.506 31.6889 110.409 31.7037C110.301 31.7217 110.168 31.738 110.009 31.7405C109.85 31.7473 109.667 31.7601 109.46 31.7436C108.641 31.7143 107.425 31.4761 106.148 30.7135C104.881 29.9616 103.555 28.6841 102.697 26.9153C101.812 25.1636 101.349 23.021 101.226 20.7778C101.157 19.653 101.195 18.5563 101.153 17.505C101.116 16.454 100.999 15.44 100.692 14.5283C100.394 13.6172 99.918 12.8101 99.2963 12.2301C98.9901 11.9339 98.6375 11.7199 98.2855 11.5468C97.9268 11.3834 97.5592 11.2828 97.203 11.2238C96.4864 11.1111 95.8186 11.1927 95.2653 11.3453C94.7084 11.5002 94.2649 11.7392 93.9276 11.966C93.2674 12.4489 93.0324 12.8575 93.0108 12.8376C93.0079 12.8353 93.0229 12.812 93.0549 12.7664C93.0944 12.7125 93.1426 12.6475 93.201 12.5673C93.3341 12.3957 93.5586 12.1638 93.8854 11.9081C94.2221 11.6679 94.6698 11.414 95.2359 11.2459C95.799 11.0804 96.4824 10.9871 97.2214 11.0942C97.5896 11.1503 97.9709 11.2512 98.3441 11.4164C98.7108 11.5912 99.0818 11.8137 99.4006 12.117C100.05 12.7134 100.545 13.5433 100.854 14.4738C101.173 15.4061 101.295 16.4396 101.335 17.4977C101.378 18.5581 101.343 19.6525 101.411 20.7672C101.533 22.9929 101.986 25.1095 102.85 26.8381C103.686 28.5847 104.975 29.8427 106.215 30.5996C107.464 31.3647 108.655 31.6184 109.464 31.6697C110.281 31.7197 110.732 31.6208 110.734 31.648Z" fill="#455A64"/>
<path d="M112.996 28.8736C112.997 28.8863 112.874 28.9019 112.65 28.9181C112.427 28.9392 112.101 28.9378 111.7 28.9091C111.299 28.8833 110.824 28.8076 110.307 28.6811C109.793 28.5461 109.237 28.3552 108.681 28.092C108.128 27.823 107.631 27.5085 107.203 27.1913C106.781 26.8668 106.425 26.5444 106.153 26.2471C105.881 25.9524 105.676 25.6985 105.552 25.5118C105.426 25.3267 105.36 25.2213 105.37 25.2142C105.399 25.1936 105.685 25.5977 106.248 26.1551C106.527 26.4359 106.885 26.7424 107.305 27.0536C107.73 27.3571 108.219 27.6602 108.762 27.9241C109.307 28.1817 109.848 28.3735 110.351 28.5155C110.856 28.6481 111.319 28.7361 111.713 28.7784C112.5 28.8682 112.994 28.8386 112.996 28.8736Z" fill="#455A64"/>
<path d="M5.68332 176.998L15.4966 177.652L16.8301 159.28L2.48484 158.173L2.32797 159.306C1.68304 164.361 -0.617774 185.025 0.157878 188.493C1.0294 192.354 5.68332 176.998 5.68332 176.998Z" fill="#BC3C50"/>
<g opacity="0.4">
<path d="M3.13842 184.484C3.13842 184.484 1.16007 189.844 0.305984 189.095C-0.548105 188.345 0.994485 167.368 2.48478 158.173L2.89439 158.234L0.916046 182.689C0.916046 182.689 3.17328 183.412 3.13842 184.484Z" fill="white"/>
</g>
<path d="M2.92966 157.947C2.89471 158.048 2.87417 158.154 2.86865 158.261C2.86865 158.531 2.79021 158.827 2.74664 159.132C2.64206 160.004 2.51133 161.145 2.36317 162.461C2.04943 165.268 1.67467 169.163 1.36093 173.469C1.04718 177.774 0.838011 181.678 0.724713 184.511C0.684042 185.824 0.649186 186.939 0.620135 187.857C0.620135 188.197 0.620135 188.494 0.620135 188.729C0.60709 188.836 0.60709 188.944 0.620135 189.051C0.620135 189.051 0.620135 188.938 0.620135 188.738C0.620135 188.537 0.620133 188.162 0.672424 187.822C0.672424 186.951 0.777004 185.801 0.846725 184.476C0.994884 181.652 1.2302 177.756 1.54394 173.451C1.85769 169.146 2.21502 165.259 2.48519 162.435C2.6072 161.128 2.71178 160.012 2.79893 159.106C2.79893 158.766 2.85122 158.47 2.87737 158.234C2.90351 157.999 2.92966 157.947 2.92966 157.947Z" fill="#263238"/>
<path d="M0.602539 182.663C1.14884 182.843 1.67008 183.092 2.15384 183.404C2.59552 183.769 2.9959 184.181 3.34783 184.633C3.17925 184.047 2.80067 183.544 2.28457 183.221C1.81318 182.831 1.21319 182.632 0.602539 182.663Z" fill="#263238"/>
<path d="M3.75718 177.443C3.71361 177.495 4.00992 177.774 4.41953 178.07C4.82915 178.366 5.17776 178.576 5.21262 178.523C5.24748 178.471 4.95116 178.192 4.55026 177.896C4.14936 177.599 3.79204 177.39 3.75718 177.443Z" fill="#263238"/>
<path d="M4.64648 176.013C4.64648 176.013 4.7685 176.353 5.02996 176.693C5.29141 177.033 5.54415 177.268 5.59644 177.233C5.64874 177.199 5.47443 176.894 5.21297 176.554C4.95152 176.214 4.69878 175.97 4.64648 176.013Z" fill="#263238"/>
<path d="M6.45053 175.203C6.31537 175.498 6.24977 175.82 6.25879 176.144C6.18587 176.465 6.18587 176.799 6.25879 177.12C6.38696 176.82 6.45222 176.497 6.45053 176.17C6.52454 175.852 6.52454 175.521 6.45053 175.203Z" fill="#263238"/>
<path d="M7.69648 174.968C7.49858 175.287 7.36791 175.643 7.31247 176.015C7.25702 176.387 7.27797 176.766 7.37403 177.129C7.45449 176.773 7.50694 176.412 7.53089 176.048C7.62162 175.694 7.67709 175.332 7.69648 174.968Z" fill="#263238"/>
<path d="M5.27356 178.183C5.17743 178.568 5.15087 178.966 5.19512 179.36C5.21628 179.792 5.27755 180.221 5.37814 180.641C5.43563 180.895 5.51735 181.143 5.62217 181.382C5.69518 181.528 5.81916 181.643 5.97078 181.704C6.05788 181.727 6.14956 181.725 6.23569 181.699C6.32182 181.673 6.39905 181.623 6.45882 181.556C6.71266 181.122 6.80715 180.613 6.72602 180.117C6.64489 179.62 6.39321 179.168 6.01435 178.837C5.79709 178.635 5.53829 178.484 5.25613 178.393C5.0644 178.331 4.94238 178.323 4.94238 178.34C5.2995 178.483 5.62741 178.689 5.90977 178.95C6.20165 179.238 6.40437 179.605 6.49369 180.005C6.61223 180.481 6.5403 180.984 6.29323 181.408C6.13636 181.582 5.9272 181.495 5.8139 181.277C5.71347 181.056 5.63467 180.825 5.57859 180.589C5.46937 180.183 5.39358 179.769 5.35199 179.351C5.31713 178.637 5.34328 178.183 5.27356 178.183Z" fill="#263238"/>
<path d="M5.27344 178.48C5.50748 178.649 5.79802 178.721 6.08395 178.68C6.39111 178.664 6.68988 178.574 6.95547 178.419C7.13934 178.335 7.29848 178.205 7.41755 178.042C7.53662 177.878 7.61159 177.687 7.63525 177.486C7.61788 177.364 7.55373 177.253 7.45625 177.176C7.35878 177.1 7.23554 177.064 7.11234 177.077C6.92209 177.091 6.73742 177.147 6.572 177.242C6.29823 177.377 6.04332 177.547 5.81378 177.748C5.59298 177.917 5.41405 178.135 5.29086 178.384C5.29086 178.384 5.51746 178.166 5.91836 177.87C6.14996 177.697 6.39811 177.549 6.65915 177.425C6.92061 177.286 7.38251 177.207 7.40866 177.504C7.4348 177.8 7.10363 178.079 6.85089 178.244C6.61016 178.394 6.33941 178.49 6.05781 178.523C5.79555 178.536 5.53272 178.521 5.27344 178.48Z" fill="#263238"/>
<path d="M7.88844 158.688C7.84486 158.688 7.88844 159.219 7.74028 160.047C7.53757 161.118 7.03949 162.111 6.30227 162.914C5.55834 163.712 4.60817 164.288 3.55698 164.579C2.74647 164.797 2.21484 164.788 2.21484 164.832C2.33921 164.848 2.46523 164.848 2.5896 164.832C2.92741 164.824 3.26345 164.781 3.59185 164.701C4.69654 164.453 5.69978 163.875 6.46864 163.044C7.23749 162.213 7.73567 161.168 7.89716 160.047C7.94946 159.713 7.96698 159.374 7.94944 159.036C7.95092 158.917 7.93023 158.799 7.88844 158.688Z" fill="#263238"/>
<path d="M15.4273 161.154C14.1846 160.937 12.9305 160.791 11.6711 160.718C10.4153 160.576 9.15244 160.506 7.88867 160.509C9.13437 160.725 10.3914 160.871 11.6536 160.945C12.9065 161.086 14.1665 161.156 15.4273 161.154Z" fill="#263238"/>
<path d="M3.76573 167.289C3.50132 168.156 3.34615 169.051 3.30382 169.956C3.18779 170.853 3.18779 171.761 3.30382 172.658C3.37354 172.658 3.38226 171.446 3.50427 169.974C3.62629 168.501 3.82673 167.307 3.76573 167.289Z" fill="#263238"/>
<path d="M4.03577 163.69C4.03577 163.646 3.77431 163.768 3.48671 163.873C3.1991 163.978 2.95508 164.021 2.95508 164.091C2.95508 164.161 3.24268 164.204 3.56515 164.091C3.88761 163.978 4.07934 163.734 4.03577 163.69Z" fill="#263238"/>
<path d="M5.8225 162.461C5.8225 162.409 5.58719 162.514 5.37803 162.688C5.16887 162.862 5.03813 163.045 5.07299 163.097C5.10785 163.15 5.31702 163.036 5.52619 162.862C5.73535 162.688 5.86608 162.505 5.8225 162.461Z" fill="#263238"/>
<path d="M6.73789 160.57C6.67688 160.57 6.65945 160.823 6.54616 161.084C6.43286 161.346 6.26727 161.537 6.31085 161.59C6.35442 161.642 6.61588 161.503 6.74661 161.171C6.87734 160.84 6.7989 160.561 6.73789 160.57Z" fill="#263238"/>
<path d="M7.20017 159.219C7.14788 159.219 7.0433 159.289 6.97358 159.437C6.90385 159.585 6.89514 159.724 6.97358 159.751C7.05201 159.777 7.13045 159.681 7.20017 159.533C7.26989 159.385 7.26118 159.245 7.20017 159.219Z" fill="#263238"/>
<path opacity="0.3" d="M8.41984 158.749L7.37402 177.129L9.58768 177.26V158.688L8.41984 158.749Z" fill="black"/>
<path d="M103.755 177.739L103.555 167.908L85.1309 168.178L85.279 182.558L86.4207 182.619C91.5104 182.829 112.305 183.317 115.686 182.245C119.443 181.033 103.755 177.739 103.755 177.739Z" fill="#BC3C50"/>
<g opacity="0.4">
<path d="M111.451 179.621C111.451 179.621 116.959 181.129 116.288 182.035C115.617 182.942 94.5873 183.247 85.2969 182.558V182.149L109.83 182.018C109.83 182.018 110.379 179.682 111.451 179.621Z" fill="white"/>
</g>
<path d="M85.035 182.14H85.3488H86.2638L89.6105 182.236C92.4429 182.297 96.3473 182.332 100.67 182.236C104.993 182.14 108.888 182.044 111.721 181.905L115.068 181.722L115.939 181.661C116.045 181.659 116.15 181.645 116.253 181.617H115.957H115.041L111.695 181.73C108.871 181.826 104.958 181.94 100.644 182.001C96.3299 182.062 92.4255 182.044 89.5931 182.001H86.2464H85.0176L85.035 182.14Z" fill="#263238"/>
<path d="M109.856 182.306C109.994 181.75 110.195 181.211 110.458 180.702C110.777 180.225 111.155 179.788 111.582 179.404C111.01 179.614 110.539 180.035 110.266 180.58C109.92 181.085 109.774 181.7 109.856 182.306Z" fill="#263238"/>
<path d="M104.383 179.621C104.436 179.621 104.688 179.334 104.95 178.907C105.211 178.48 105.386 178.105 105.333 178.035C105.281 177.965 105.028 178.323 104.767 178.75C104.505 179.177 104.331 179.586 104.383 179.621Z" fill="#263238"/>
<path d="M102.884 178.854C102.884 178.854 103.215 178.706 103.529 178.41C103.842 178.114 104.06 177.852 104.025 177.809C103.991 177.765 103.694 177.957 103.381 178.244C103.067 178.532 102.884 178.811 102.884 178.854Z" fill="#263238"/>
<path d="M101.916 177.129C102.223 177.239 102.551 177.278 102.875 177.242C103.199 177.273 103.525 177.234 103.833 177.129C103.833 177.059 103.406 177.016 102.875 177.016C102.551 176.979 102.223 177.018 101.916 177.129Z" fill="#263238"/>
<path d="M101.568 175.909C101.891 176.114 102.267 176.217 102.649 176.205C103.026 176.269 103.414 176.211 103.756 176.04C103.395 175.99 103.031 175.969 102.666 175.979C102.303 175.925 101.936 175.902 101.568 175.909Z" fill="#263238"/>
<path d="M104.984 178.009C105.377 178.077 105.777 178.077 106.17 178.009C106.596 177.949 107.016 177.85 107.425 177.713C107.673 177.638 107.913 177.536 108.139 177.408C108.21 177.367 108.271 177.314 108.321 177.249C108.37 177.185 108.406 177.111 108.427 177.033C108.445 176.945 108.438 176.854 108.405 176.77C108.373 176.687 108.317 176.614 108.244 176.562C107.789 176.348 107.274 176.298 106.786 176.42C106.299 176.543 105.868 176.83 105.568 177.233C105.389 177.471 105.261 177.745 105.194 178.035C105.15 178.236 105.15 178.349 105.194 178.349C105.309 177.984 105.486 177.642 105.716 177.338C105.979 177.022 106.327 176.789 106.719 176.667C107.18 176.502 107.688 176.527 108.131 176.737C108.322 176.876 108.253 177.103 108.043 177.225C107.834 177.346 107.612 177.445 107.381 177.521C106.986 177.66 106.581 177.77 106.17 177.852C105.438 177.965 104.984 177.974 104.984 178.009Z" fill="#263238"/>
<path d="M105.289 178.061C105.434 177.814 105.48 177.522 105.42 177.242C105.377 176.929 105.26 176.63 105.08 176.37C104.979 176.195 104.834 176.048 104.66 175.945C104.486 175.841 104.289 175.784 104.086 175.778C103.968 175.807 103.866 175.88 103.799 175.982C103.733 176.084 103.708 176.207 103.729 176.327C103.76 176.517 103.831 176.698 103.938 176.859C104.099 177.115 104.289 177.352 104.505 177.564C104.888 177.922 105.176 178.061 105.193 178.035C105.211 178.009 104.949 177.826 104.618 177.46C104.429 177.24 104.26 177.004 104.113 176.754C103.947 176.501 103.834 176.057 104.113 175.996C104.391 175.935 104.714 176.257 104.897 176.492C105.068 176.719 105.187 176.981 105.245 177.259C105.289 177.524 105.304 177.793 105.289 178.061Z" fill="#263238"/>
<path d="M85.3398 177.094C85.3398 177.137 85.8628 177.042 86.6994 177.094C87.7846 177.206 88.8185 177.612 89.6887 178.27C90.5424 178.956 91.1956 179.859 91.5799 180.885C91.8675 181.669 91.9024 182.201 91.946 182.201C91.9704 182.077 91.9704 181.95 91.946 181.826C91.9139 181.488 91.8437 181.155 91.7368 180.833C91.3842 179.757 90.7199 178.811 89.8282 178.114C88.9333 177.425 87.8525 177.022 86.7256 176.954C86.3866 176.92 86.0449 176.92 85.7059 176.954C85.5786 176.986 85.4556 177.032 85.3398 177.094Z" fill="#263238"/>
<path d="M87.1443 169.407C87.0326 170.665 86.9976 171.928 87.0397 173.19C87.0031 174.454 87.0409 175.72 87.153 176.981C87.2593 175.72 87.2943 174.454 87.2576 173.19C87.2944 171.928 87.2566 170.665 87.1443 169.407Z" fill="#263238"/>
<path d="M94.2646 180.493C95.1487 180.685 96.054 180.761 96.9576 180.72C97.8626 180.757 98.7684 180.672 99.6506 180.467C99.6506 180.406 98.4392 180.467 96.9576 180.467C95.4761 180.467 94.2734 180.432 94.2646 180.493Z" fill="#263238"/>
<path d="M90.6826 180.536C90.639 180.58 90.7872 180.789 90.9092 181.068C91.0312 181.347 91.1096 181.582 91.1706 181.582C91.2316 181.582 91.2665 181.286 91.1183 180.972C90.9702 180.658 90.6826 180.493 90.6826 180.536Z" fill="#263238"/>
<path d="M89.2705 178.863C89.2705 178.907 89.3489 179.099 89.5494 179.29C89.7498 179.482 89.9329 179.595 89.9764 179.552C90.02 179.508 89.898 179.316 89.7063 179.125C89.5145 178.933 89.3141 178.82 89.2705 178.863Z" fill="#263238"/>
<path d="M87.3181 178.114C87.3181 178.183 87.5796 178.175 87.8498 178.262C88.1199 178.349 88.3117 178.497 88.364 178.454C88.4162 178.41 88.2507 178.157 87.9195 178.053C87.5883 177.948 87.3007 178.061 87.3181 178.114Z" fill="#263238"/>
<path d="M85.9238 177.774C85.9238 177.826 86.011 177.922 86.1679 177.983C86.3247 178.044 86.4642 178.035 86.4816 177.983C86.499 177.931 86.3945 177.835 86.2463 177.782C86.0981 177.73 85.95 177.713 85.9238 177.774Z" fill="#263238"/>
<path opacity="0.3" d="M85.358 176.606L103.756 176.039L103.695 173.826L85.1924 175.438L85.358 176.606Z" fill="black"/>
<path d="M46.043 110.309L104.243 109.508C104.243 109.508 123.852 111.19 119.678 126.354C116.462 138.067 112.557 154.652 105.995 174.967L82.8385 175.194L92.4252 133.928C91.0395 133.928 75.1082 134.459 75.1082 134.459L46.043 110.309Z" fill="#263238"/>
<path d="M103.947 125.84C101.887 126.867 99.8853 128.007 97.9514 129.256C96.1124 130.641 94.3521 132.128 92.6787 133.71C93.0071 133.108 93.4309 132.563 93.9337 132.097C95.0656 130.891 96.3185 129.805 97.6725 128.855C99.0356 127.906 100.496 127.105 102.03 126.467C102.633 126.16 103.28 125.948 103.947 125.84Z" fill="#455A64"/>
<path d="M99.842 132.036C98.6506 132.552 97.4134 132.955 96.1467 133.239C94.9229 133.678 93.659 133.997 92.373 134.189C93.5089 133.543 94.7333 133.068 96.0073 132.777C97.2403 132.336 98.5335 132.087 99.842 132.036Z" fill="#455A64"/>
<path d="M109.068 165.704L82.4082 165.76L82.4286 175.486L109.088 175.43L109.068 165.704Z" fill="#455A64"/>
<path d="M65.8613 158.836C65.8613 158.836 16.2806 131.757 10.6593 122.946C8.97246 120.365 7.94014 117.411 7.65161 114.34C7.36309 111.27 7.82706 108.175 9.00337 105.324L50.7143 110.954L81.784 138.93L80.3895 140.673C86.8562 145.798 98.5172 156.509 98.5172 167.063C98.5172 185.129 75.1517 182.175 58.3837 182.218C35.454 182.271 9.73545 182.375 9.73545 182.375L9.63087 157.711L65.8613 158.836Z" fill="#263238"/>
<path d="M77.61 163.986C75.5202 163.339 73.4811 162.538 71.5094 161.59C69.4702 160.788 67.4924 159.839 65.5918 158.749C67.6796 159.402 69.7183 160.203 71.6924 161.145C73.7313 161.947 75.7091 162.897 77.61 163.986Z" fill="#455A64"/>
<path d="M73.7406 157.947C72.3065 158.233 70.8452 158.362 69.383 158.33C67.9313 158.457 66.4701 158.424 65.0254 158.234C66.4586 157.941 67.9206 157.812 69.383 157.851C70.8347 157.725 72.2958 157.757 73.7406 157.947Z" fill="#455A64"/>
<path d="M19.3141 156.753H9.58789V183.412H19.3141V156.753Z" fill="#455A64"/>
<path d="M53.4253 54.1835C62.4369 47.9434 71.9451 52.1878 76.1807 62.2887C80.7388 73.1652 87.5105 85.6367 89.3145 86.6912C92.8006 88.7393 133.762 107.137 133.762 107.137L127.513 119.748C127.513 119.748 76.0936 102.117 72.4942 95.9642C68.8948 89.8112 48.6494 57.4692 48.6494 57.4692L53.4253 54.1835Z" fill="#FFBE9D"/>
<path d="M137.126 123.792C137.126 123.234 136.882 123.652 137.797 123.077C139.654 121.927 138.39 120.794 138.39 120.794C138.39 120.794 137.972 120.297 138.05 119.922C138.181 119.399 138.704 119.669 138.704 119.669C140.551 120.044 141.031 119.129 140.795 118.371C140.56 117.613 139.27 116.776 139.052 116.358C138.834 115.939 139.671 116.053 139.671 116.053C139.671 116.053 142.164 116.375 142.817 115.451C143.471 114.528 143.157 114.196 142.347 113.621C141.893 113.307 136.83 111.451 136.83 110.344C136.83 109.237 138.712 109.028 140.316 108.192C141.92 107.355 144.229 105.037 143.218 104.235C142.207 103.433 141.475 104.235 139.985 105.263C138.495 106.292 133.884 107.102 133.884 107.102L127.365 119.669C127.365 119.669 133.562 124.088 134.425 124.628C134.425 124.637 137.118 126.18 137.126 123.792Z" fill="#FFBE9D"/>
<path d="M76.1191 98.8837C76.1191 98.2824 91.0047 86.6825 91.0047 86.6825C91.0047 86.6825 82.0106 67.509 78.0713 60.5369L76.1191 98.8837Z" fill="#BC3C50"/>
<path d="M78.0714 60.5457C78.0714 60.5457 66.5238 41.1718 48.6751 57.4779C37.0229 68.1192 18.015 90.0466 11.1998 98.6398C9.68332 100.566 7.29535 103.494 8.96867 105.298C14.0583 110.806 27.9329 123.13 53.6166 113.935L80.0324 64.2584L78.0714 60.5457Z" fill="#BC3C50"/>
<path d="M63.2646 51.325L66.5241 46L83.1527 59.2297L80.0414 64.2235L63.2646 51.325Z" fill="#BC3C50"/>
<path d="M69.662 56.1968C69.8016 56.8077 69.8016 57.4422 69.662 58.0531C69.4988 58.9006 69.1651 59.7061 68.6812 60.4207C68.1973 61.1353 67.5733 61.7441 66.847 62.2103C65.8289 62.862 64.6276 63.1677 63.4219 63.0818C62.0844 62.9335 60.7612 62.677 59.4652 62.3148C58.097 61.8833 56.6197 61.9544 55.2993 62.5153C53.9925 63.3307 53.0192 64.5852 52.554 66.0537C51.9614 67.5352 51.6825 69.1127 51.0986 70.5681C50.6325 72.0346 49.6988 73.308 48.4405 74.1937C47.2382 74.9018 45.8271 75.1699 44.4489 74.9519C43.2582 74.7797 42.1323 74.3023 41.1807 73.5662C39.8474 72.4822 38.8275 71.0622 38.2263 69.4526C38.0595 69.0231 37.9198 68.5835 37.8079 68.1366C37.7586 67.9845 37.7322 67.8258 37.7295 67.666C37.7295 67.666 37.9299 68.2934 38.4006 69.409C39.0482 70.9462 40.0771 72.293 41.3899 73.3221C42.3036 73.9978 43.3744 74.4297 44.5012 74.5771C45.7835 74.7726 47.0937 74.5136 48.2052 73.845C49.3712 73.0028 50.231 71.8034 50.6541 70.4287C51.2032 69.0168 51.5256 67.4481 52.1008 65.9055C52.6136 64.3307 53.6702 62.9899 55.0814 62.1231C56.4994 61.5123 58.0905 61.4349 59.5611 61.9052C60.8327 62.2779 62.1327 62.5461 63.448 62.707C64.5762 62.7951 65.703 62.5202 66.6639 61.9226C68.0813 61.0443 69.0934 59.6406 69.479 58.0182C69.5974 57.4182 69.6587 56.8084 69.662 56.1968Z" fill="#263238"/>
<path d="M25.8677 116.924C25.8277 116.789 25.8101 116.647 25.8154 116.506C25.8082 116.097 25.8823 115.692 26.0333 115.312C26.6568 113.939 27.7735 112.85 29.162 112.262C30.844 111.39 33.1187 111.198 35.3934 110.431C36.5844 110.074 37.6507 109.389 38.4698 108.453C39.2764 107.389 39.7604 106.115 39.8643 104.784C40.1955 102.039 39.8643 99.2324 40.8752 96.8706C41.7428 94.8231 43.279 93.1303 45.2328 92.0685C46.5349 91.348 47.9897 90.9477 49.4771 90.9007C49.8767 90.8916 50.2762 90.9179 50.6711 90.9791C50.8111 90.9885 50.949 91.0178 51.0807 91.0663C51.0807 91.1273 50.5055 91.014 49.4859 91.0663C47.7037 91.2117 45.9955 91.8426 44.5466 92.8905C43.0978 93.9383 41.9637 95.3631 41.2674 97.01C40.3349 99.2411 40.6574 101.986 40.3175 104.854C40.2066 106.274 39.6825 107.632 38.8097 108.758C37.9342 109.758 36.7912 110.487 35.5154 110.858C33.1536 111.625 30.9225 111.73 29.2927 112.602C27.9554 113.142 26.8531 114.14 26.1814 115.417C25.9968 115.899 25.8909 116.408 25.8677 116.924Z" fill="#263238"/>
<path d="M23.715 83.6583C23.8215 83.5781 23.9389 83.5135 24.0636 83.4666C24.4137 83.3131 24.7788 83.1962 25.153 83.118C26.5331 82.8156 27.9703 82.9062 29.3015 83.3794C30.2295 83.698 31.0875 84.1922 31.8289 84.8349C32.6807 85.5865 33.3359 86.535 33.7375 87.5976C34.2374 88.8037 34.415 90.119 34.2531 91.4145C34.0911 92.71 33.5951 93.9411 32.8137 94.9871C32.0324 96.033 30.9925 96.8578 29.7961 97.3805C28.5997 97.9032 27.288 98.1059 25.9897 97.9687C24.8594 97.881 23.7675 97.5191 22.8086 96.9142C21.9813 96.3872 21.2624 95.7068 20.6909 94.9096C19.8592 93.7639 19.3642 92.4086 19.2616 90.9965C19.2175 90.6202 19.2175 90.2399 19.2616 89.8635C19.2656 89.7293 19.2921 89.5968 19.34 89.4714C19.3923 89.4714 19.34 90.0204 19.4184 90.9791C19.5908 92.3378 20.1234 93.6256 20.961 94.7092C21.5501 95.5158 22.307 96.1851 23.1797 96.6711C24.0523 97.1571 25.0199 97.4481 26.0158 97.5242C27.2364 97.6438 28.4672 97.4464 29.5892 96.9513C30.7112 96.4561 31.6865 95.6799 32.4208 94.6976C33.1552 93.7153 33.6236 92.5602 33.781 91.3439C33.9384 90.1276 33.7793 88.8913 33.3192 87.7545C32.9645 86.8191 32.4105 85.972 31.6957 85.2722C30.9808 84.5724 30.1222 84.0366 29.1795 83.7019C27.9048 83.2174 26.5246 83.0791 25.1792 83.301C24.2292 83.4666 23.7325 83.7019 23.715 83.6583Z" fill="#263238"/>
<g opacity="0.3">
<path d="M78.0371 96.9581L78.0458 66.0366L82.8392 93.1409L78.0371 96.9581Z" fill="black"/>
</g>
<g opacity="0.3">
<path d="M53.739 70.3328L46.9062 101.594H53.739L53.6344 113.935L55.4907 110.179L55.1334 98.0122H50.6189L53.739 70.3328Z" fill="black"/>
</g>
<g opacity="0.3">
<path d="M63.9795 52.0046C63.9795 52.0046 77.0523 63.3344 77.2615 63.1427C77.4706 62.9509 82.4906 59.3167 82.4906 59.3167L77.8802 61.9313L63.9795 52.0046Z" fill="black"/>
</g>
<path d="M63.1338 51.2639C63.4461 51.3687 63.7402 51.5216 64.0053 51.7171C64.5195 52.0396 65.2603 52.5189 66.158 53.1377C67.9533 54.3752 70.3761 56.1618 73.043 58.1402C74.8557 59.4823 76.529 60.7547 78.0281 61.7308H77.8102C79.3615 60.8593 80.6601 60.197 81.5751 59.7264C82.0439 59.4545 82.537 59.2269 83.048 59.0466C82.6257 59.3826 82.1701 59.6746 81.6884 59.9181C80.8169 60.4497 79.5445 61.1905 78.0106 62.0708L77.906 62.1318L77.7928 62.0533C76.3025 61.0772 74.5681 59.8571 72.7554 58.5149L65.9575 53.3991L63.892 51.8565C63.6178 51.6881 63.3635 51.4893 63.1338 51.2639Z" fill="#263238"/>
<path d="M141.535 113.508C140.167 112.88 138.683 112.545 137.178 112.523C136.807 112.503 136.436 112.56 136.088 112.689C135.913 112.753 135.757 112.862 135.638 113.006C135.518 113.15 135.439 113.323 135.409 113.508C135.398 113.709 135.444 113.91 135.541 114.087C135.638 114.264 135.782 114.41 135.958 114.51C136.311 114.709 136.698 114.839 137.099 114.894L140.69 115.652" fill="#FFBE9D"/>
<path d="M138.137 120.375C136.768 119.751 135.284 119.418 133.779 119.399C133.409 119.374 133.038 119.427 132.69 119.556C132.515 119.622 132.361 119.733 132.242 119.876C132.123 120.02 132.043 120.192 132.01 120.375C131.991 120.578 132.028 120.782 132.117 120.965C132.206 121.148 132.344 121.303 132.515 121.413C132.868 121.611 133.256 121.741 133.657 121.796L137.248 122.545" fill="#FFBE9D"/>
<path d="M139.252 116.959C137.882 116.338 136.399 116.006 134.895 115.983C134.522 115.964 134.149 116.017 133.796 116.14C133.622 116.208 133.468 116.32 133.349 116.465C133.23 116.61 133.15 116.783 133.117 116.968C133.111 117.169 133.159 117.367 133.256 117.543C133.352 117.719 133.494 117.867 133.666 117.97C134.019 118.167 134.406 118.297 134.807 118.354L138.407 119.103" fill="#FFBE9D"/>
<path d="M141.039 116.061C140.354 116.031 139.675 115.917 139.017 115.721L136.838 115.216C136.429 115.111 135.967 115.016 135.549 114.894C135.266 114.848 135.005 114.716 134.801 114.517C134.597 114.317 134.459 114.059 134.407 113.778C134.401 113.619 134.436 113.462 134.507 113.32C134.579 113.178 134.685 113.057 134.816 112.967C135.035 112.809 135.289 112.707 135.557 112.671C136.013 112.632 136.47 112.632 136.926 112.671C137.674 112.709 138.419 112.793 139.157 112.924C139.84 113.005 140.514 113.151 141.17 113.36C140.483 113.423 139.791 113.391 139.113 113.264C138.381 113.177 137.645 113.128 136.908 113.116C136.485 113.085 136.059 113.085 135.636 113.116C135.244 113.168 134.86 113.429 134.886 113.734C134.912 114.039 135.278 114.318 135.688 114.423L136.952 114.763L139.087 115.373C139.763 115.523 140.418 115.754 141.039 116.061Z" fill="#EB996E"/>
<path d="M138.808 119.277C138.12 119.248 137.438 119.134 136.777 118.937L134.599 118.432C134.189 118.327 133.727 118.231 133.317 118.109C133.034 118.067 132.772 117.938 132.565 117.74C132.359 117.541 132.22 117.284 132.167 117.003C132.165 116.843 132.202 116.686 132.273 116.543C132.344 116.401 132.448 116.277 132.577 116.183C132.797 116.023 133.055 115.921 133.326 115.887C133.779 115.848 134.233 115.848 134.686 115.887C135.434 115.924 136.179 116.009 136.917 116.14C137.601 116.219 138.276 116.368 138.93 116.584C138.243 116.641 137.551 116.606 136.873 116.48C136.246 116.419 135.496 116.34 134.668 116.331C134.247 116.305 133.825 116.305 133.405 116.331C133.004 116.384 132.629 116.645 132.646 116.95C132.664 117.255 133.039 117.534 133.448 117.639L134.712 117.987L136.856 118.589C137.529 118.748 138.184 118.979 138.808 119.277Z" fill="#EB996E"/>
<path d="M137.623 122.685C136.938 122.648 136.259 122.531 135.601 122.336L133.422 121.831C133.012 121.735 132.551 121.639 132.132 121.508C131.851 121.463 131.591 121.333 131.387 121.135C131.183 120.937 131.044 120.681 130.991 120.402C130.987 120.242 131.022 120.084 131.093 119.941C131.165 119.798 131.27 119.675 131.4 119.582C131.621 119.422 131.879 119.32 132.15 119.286C132.602 119.251 133.057 119.251 133.509 119.286C134.258 119.319 135.003 119.403 135.74 119.539C136.424 119.618 137.098 119.764 137.754 119.975C137.066 120.037 136.374 120.002 135.697 119.87C135.069 119.809 134.32 119.739 133.492 119.722C133.067 119.71 132.642 119.725 132.219 119.765C131.827 119.818 131.444 120.07 131.47 120.384C131.496 120.698 131.862 120.959 132.272 121.073L133.535 121.413L135.679 122.014C136.352 122.157 137.005 122.382 137.623 122.685Z" fill="#EB996E"/>
<path d="M98.4483 152.587L101.594 153.903C103.258 154.841 105.009 155.615 106.824 156.212C107.726 156.523 108.675 156.676 109.63 156.666C110.804 156.703 111.977 156.576 113.116 156.291C114.144 155.916 115.086 156.988 114.537 157.807C113.987 158.627 111.181 159.725 107.678 159.428C104.174 159.132 108.157 162.975 109.586 164.396C111.016 165.817 115.216 170.436 115.12 171.22C114.99 172.37 113.735 172.44 112.34 170.985C110.946 169.529 106.475 165.459 105.76 166.252C105.046 167.045 112.41 174.183 112.41 174.183C112.41 174.183 114.231 175.456 113.43 176.397C111.992 178.088 104.714 169.913 104.061 169.111C103.59 168.562 102.788 169.39 103.32 169.982C103.852 170.575 110.824 176.955 109.377 178.698C108.27 180.031 103.337 172.022 101.159 171.499C98.9799 170.976 105.516 177.19 104.401 178.427C103.991 178.881 103.616 179.168 100.383 175.055C97.1497 170.941 89.9248 157.982 89.9248 157.982L98.579 152.639" fill="#FFBE9D"/>
<path d="M77.4091 69.1213C77.4091 69.1213 74.7161 113.037 76.8688 116.462C79.0214 119.887 105.254 155.585 105.254 155.585L93.6455 164.117C93.6455 164.117 56.1266 124.785 55.7693 117.665C55.412 110.545 54.3574 69.1213 54.3574 69.1213H77.4091Z" fill="#FFBE9D"/>
<path d="M59.7002 121.012C59.7002 121.012 59.4823 121.064 59.0988 120.968C58.5609 120.827 58.0798 120.522 57.7218 120.097C57.4471 119.775 57.25 119.395 57.1457 118.986C57.0414 118.576 57.0328 118.148 57.1205 117.735C57.2136 117.216 57.4499 116.734 57.8025 116.343C58.1552 115.952 58.6103 115.667 59.1163 115.521C59.6536 115.357 60.2331 115.404 60.7373 115.652C60.9731 115.769 61.1831 115.931 61.3552 116.13C61.5273 116.329 61.658 116.561 61.7395 116.811C61.8082 117.025 61.8322 117.251 61.8099 117.474C61.7876 117.698 61.7196 117.914 61.6101 118.111C61.5006 118.307 61.3519 118.478 61.1732 118.615C60.9946 118.751 60.7899 118.849 60.5717 118.903C60.2787 118.952 59.9778 118.902 59.716 118.762C59.4541 118.621 59.2463 118.398 59.125 118.127C58.9681 117.743 59.064 117.508 59.125 117.517C59.186 117.526 59.125 117.743 59.3254 118.04C59.449 118.241 59.6313 118.4 59.8479 118.495C60.0644 118.59 60.3048 118.617 60.5369 118.571C60.6973 118.519 60.8459 118.436 60.974 118.326C61.1021 118.216 61.2073 118.082 61.2834 117.931C61.3595 117.781 61.4051 117.616 61.4176 117.448C61.4301 117.28 61.4092 117.111 61.3561 116.95C61.2142 116.568 60.93 116.256 60.563 116.079C60.1624 115.89 59.7061 115.856 59.2819 115.983C58.8591 116.106 58.4782 116.343 58.1802 116.667C57.8821 116.991 57.6784 117.39 57.5911 117.822C57.5058 118.176 57.4998 118.545 57.5736 118.902C57.6474 119.26 57.7992 119.596 58.0182 119.887C58.4615 120.413 59.0446 120.803 59.7002 121.012Z" fill="#EB996E"/>
<path d="M53.8692 67.4567L51.3418 97.8814L78.0713 97.0883C78.0713 97.0883 78.7162 72.3808 77.9057 64.1885L53.8692 67.4567Z" fill="#BC3C50"/>
<path d="M78.0719 97.071C77.8928 97.1186 77.7081 97.1421 77.5228 97.1407L75.9454 97.2366L70.1062 97.5067L50.6539 98.2214H50.375V97.9425C50.436 97.437 50.497 96.8966 50.5667 96.3476C51.569 88.4168 52.4754 81.2355 53.1813 75.9628C53.5299 73.4005 53.8175 71.3088 54.0528 69.7924C54.1574 69.1039 54.2445 68.5548 54.3055 68.1191C54.3233 67.9203 54.3642 67.7244 54.4276 67.5352C54.4506 67.732 54.4506 67.9309 54.4276 68.1278C54.4276 68.5635 54.3317 69.1213 54.2707 69.8185C54.0964 71.335 53.8698 73.4353 53.5822 76.0063C52.9547 81.2354 52.1006 88.4691 51.1507 96.4086C51.0809 96.9489 51.0199 97.498 50.9502 98.0035L50.7062 97.7333L70.1672 97.1668L76.0064 97.0448H77.5926C77.7528 97.0364 77.9135 97.0452 78.0719 97.071Z" fill="#263238"/>
<path d="M78.0718 97.071C77.9411 97.071 77.7929 89.7067 77.7494 80.6254C77.7058 71.5442 77.7493 64.1711 77.9062 64.1711C78.0631 64.1711 78.1851 71.5355 78.2287 80.6254C78.2723 89.7154 78.2113 97.071 78.0718 97.071Z" fill="#263238"/>
<path d="M62.3491 97.7683C62.1591 97.4308 62.0127 97.0707 61.9133 96.6964C61.6043 95.6933 61.4113 94.6582 61.3381 93.6112C61.063 90.0949 62.0796 86.599 64.1974 83.7785C66.3151 80.958 69.3887 79.0066 72.8422 78.2899C73.8725 78.0662 74.9255 77.9639 75.9796 77.9848C76.3639 77.975 76.7478 78.016 77.1213 78.1068C75.7085 78.1517 74.3026 78.3238 72.9206 78.621C69.5879 79.4015 66.6358 81.3288 64.5805 84.0659C62.5253 86.8031 61.4979 90.1757 61.678 93.5937C61.7789 95.0023 62.0034 96.3992 62.3491 97.7683Z" fill="#263238"/>
</svg>
