<svg width="165" height="164" viewBox="0 0 165 164" fill="none" xmlns="http://www.w3.org/2000/svg">
<g filter="url(#filter0_d_107_28700)">
<rect x="37.4067" y="4" width="120" height="120" rx="30" transform="rotate(12.7123 37.4067 4)" fill="#9AD47F"/>
</g>
<g clip-path="url(#clip0_107_28700)">
<rect width="75" height="75" transform="translate(54.0264 30.3019) rotate(12.7123)" fill="#9AD47F"/>
<path fill-rule="evenodd" clip-rule="evenodd" d="M77.207 59.8256C88.5331 50.5253 103.886 46.3556 119.297 49.8314C119.904 49.9682 120.431 50.3402 120.763 50.8657C121.095 51.3912 121.205 52.0271 121.068 52.6335C117.591 68.0451 107.234 80.1224 93.9712 86.3594C93.9002 87.455 93.7427 88.5582 93.494 89.6608C90.9304 101.025 79.6397 108.159 68.2755 105.596C67.0128 105.311 66.2201 104.056 66.505 102.794L69.3461 90.199C69.3225 90.1723 69.2994 90.145 69.277 90.1172C66.8939 87.1613 64.8575 83.9385 63.211 80.5172C63.195 80.4839 63.1798 80.4503 63.1654 80.4165L50.5701 77.5751C49.3074 77.2903 48.5147 76.0358 48.7995 74.7731C51.3631 63.4089 62.6538 56.2746 74.018 58.8382C75.1215 59.0871 76.1863 59.4188 77.207 59.8256ZM95.1105 61.1937C91.3224 60.3392 87.5588 62.7173 86.7043 66.5053C85.8498 70.2934 88.2279 74.057 92.0159 74.9115C95.804 75.766 99.5676 73.3879 100.422 69.5999C101.277 65.8118 98.8985 62.0482 95.1105 61.1937Z" fill="white"/>
<path d="M58.2052 86.4793C59.3876 85.9526 59.9192 84.5671 59.3925 83.3846C58.8658 82.2022 57.4803 81.6707 56.2979 82.1974C51.7344 84.2301 48.1456 88.3225 46.9598 93.579C46.7704 94.419 46.6488 95.26 46.5921 96.0959C46.5231 97.1141 47.1207 98.0599 48.0699 98.4346C48.8492 98.7423 49.6609 98.9936 50.5009 99.1831C55.7574 100.369 60.9942 98.8846 64.7893 95.6358C65.7726 94.794 65.8874 93.3145 65.0456 92.3312C64.2038 91.3478 62.7243 91.2331 61.7409 92.0749C59.0215 94.4028 55.2845 95.4569 51.5324 94.6105C52.3788 90.8585 54.9352 87.9359 58.2052 86.4793Z" fill="white"/>
</g>
<defs>
<filter id="filter0_d_107_28700" x="0.859863" y="0.259772" width="163.746" height="163.746" filterUnits="userSpaceOnUse" color-interpolation-filters="sRGB">
<feFlood flood-opacity="0" result="BackgroundImageFix"/>
<feColorMatrix in="SourceAlpha" type="matrix" values="0 0 0 0 0 0 0 0 0 0 0 0 0 0 0 0 0 0 127 0" result="hardAlpha"/>
<feOffset dy="6.4"/>
<feGaussianBlur stdDeviation="8"/>
<feComposite in2="hardAlpha" operator="out"/>
<feColorMatrix type="matrix" values="0 0 0 0 0 0 0 0 0 0 0 0 0 0 0 0 0 0 0.15 0"/>
<feBlend mode="normal" in2="BackgroundImageFix" result="effect1_dropShadow_107_28700"/>
<feBlend mode="normal" in="SourceGraphic" in2="effect1_dropShadow_107_28700" result="shape"/>
</filter>
<clipPath id="clip0_107_28700">
<rect width="75" height="75" fill="white" transform="translate(54.0264 30.3019) rotate(12.7123)"/>
</clipPath>
</defs>
</svg>
