<svg width="208" height="208" viewBox="0 0 208 208" fill="none" xmlns="http://www.w3.org/2000/svg">
<path d="M103.838 207.676C161.186 207.676 207.676 161.186 207.676 103.838C207.676 46.4898 161.186 0 103.838 0C46.4898 0 0 46.4898 0 103.838C0 161.186 46.4898 207.676 103.838 207.676Z" fill="#EBEBEB"/>
<path d="M141.636 42.2295C141.877 47.1656 140.53 52.0491 137.792 56.1635C135.039 60.4743 131.138 63.9317 126.527 66.1469C121.795 68.5314 116.322 68.9906 111.258 67.4282C106.448 65.9228 102.326 62.7647 99.6201 58.5126C103.332 61.206 107.601 63.0305 112.113 63.8513C114.211 64.2523 116.367 64.2523 118.466 63.8513C120.566 63.5365 122.603 62.8876 124.499 61.9293C125.505 61.4482 126.485 60.9135 127.435 60.3277C128.366 59.7665 129.258 59.1422 130.104 58.4592C131.898 57.145 133.529 55.6216 134.962 53.9213C137.92 50.4907 140.186 46.5205 141.636 42.2295Z" fill="#C7C7C7"/>
<path d="M104.319 48.2082C103.859 44.7507 104.613 41.2409 106.454 38.2782C108.331 35.2045 111.056 32.7387 114.302 31.1777C117.626 29.5399 121.46 29.2715 124.979 30.4303C128.319 31.5521 131.094 33.925 132.72 37.0503C130.1 35.4151 127.176 34.3257 124.125 33.847C121.378 33.5228 118.595 34.0051 116.117 35.2351C110.728 37.9682 106.529 42.5846 104.319 48.2082Z" fill="#C7C7C7"/>
<path d="M103.838 152.634C105.129 155.802 105.224 159.331 104.105 162.564C103 165.895 100.916 168.816 98.1254 170.946C96.6885 172.069 95.0412 172.893 93.2808 173.37C91.5204 173.847 89.6823 173.966 87.875 173.722C84.4822 173.244 81.3842 171.534 79.1729 168.917C82.0273 169.867 85.0284 170.301 88.0351 170.198C90.6965 169.987 93.2383 169.003 95.3491 167.369C97.5037 165.66 99.3151 163.558 100.688 161.176C102.246 158.542 103.313 155.648 103.838 152.634Z" fill="#C7C7C7"/>
<path d="M82.3227 164.432C81.1876 162.3 80.9384 159.807 81.6288 157.492C82.3344 155.072 83.7931 152.94 85.793 151.406C86.8296 150.591 88.026 150.004 89.3045 149.682C90.583 149.36 91.9149 149.311 93.2137 149.537C94.4133 149.734 95.5591 150.178 96.5789 150.839C97.5988 151.501 98.4707 152.366 99.1398 153.381C97.1389 152.968 95.0868 152.86 93.0536 153.061C91.4228 153.321 89.882 153.981 88.5691 154.983C85.5182 157.373 83.326 160.689 82.3227 164.432Z" fill="#C7C7C7"/>
<path d="M66.4134 59.2588C67.3373 60.111 68.0786 61.1419 68.5925 62.2889C69.1064 63.436 69.3821 64.6754 69.403 65.9322C69.4264 68.6619 68.3712 71.2904 66.4668 73.2462C65.4775 74.2348 64.2755 74.9844 62.9524 75.4378C61.6293 75.8912 60.2201 76.0363 58.8323 75.8622C56.3798 75.5902 54.0972 74.4772 52.3726 72.7123C54.5209 72.7603 56.6683 72.5813 58.7791 72.1784C60.4647 71.9457 62.0243 71.1566 63.2101 69.9362C64.47 68.6952 65.3893 67.1508 65.8795 65.4517C66.3867 63.4291 66.567 61.3384 66.4134 59.2588Z" fill="#C7C7C7"/>
<path d="M53.5473 69.35C52.8 68.8167 52.182 68.1225 51.7385 67.3187C51.295 66.5149 51.0373 65.6218 50.9846 64.7053C50.938 63.7238 51.0941 62.7433 51.4431 61.8247C51.7921 60.9062 52.3267 60.0695 53.0134 59.3666C53.7075 58.6943 54.5385 58.1794 55.4496 57.857C56.3606 57.5346 57.3304 57.4123 58.2929 57.4984C59.2555 57.5846 60.1881 57.8771 61.0274 58.3561C61.8668 58.8351 62.5931 59.4893 63.1569 60.2742C61.6795 60.4569 60.2169 60.7423 58.7792 61.1284C57.8261 61.3687 56.9578 61.8675 56.27 62.5698C55.5274 63.3265 54.9301 64.2132 54.5082 65.1858C54.0033 66.5247 53.6801 67.9253 53.5473 69.35Z" fill="#C7C7C7"/>
<path d="M138.593 168.703C137.975 169.794 137.148 170.752 136.158 171.522C135.169 172.291 134.037 172.858 132.827 173.188C131.514 173.542 130.143 173.631 128.795 173.447C127.448 173.264 126.15 172.813 124.979 172.12C123.791 171.401 122.78 170.422 122.022 169.257C121.264 168.093 120.778 166.772 120.602 165.393C120.279 162.932 120.786 160.434 122.043 158.293C122.534 160.396 123.213 162.451 124.072 164.432C124.722 166.013 125.864 167.342 127.328 168.223C128.856 169.111 130.58 169.607 132.347 169.664C134.467 169.68 136.576 169.356 138.593 168.703Z" fill="#C7C7C7"/>
<path d="M125.673 158.667C125.98 157.809 126.482 157.034 127.14 156.404C127.798 155.774 128.594 155.306 129.464 155.036C130.428 154.738 131.445 154.646 132.447 154.765C133.45 154.885 134.416 155.213 135.283 155.73C136.179 156.244 136.935 156.971 137.485 157.846C138.034 158.721 138.36 159.718 138.433 160.749C138.524 161.646 138.435 162.553 138.169 163.415C137.903 164.277 137.466 165.077 136.884 165.767C136.353 164.374 135.729 163.019 135.016 161.71C134.527 160.855 133.829 160.139 132.987 159.628C132.076 159.067 131.058 158.704 129.998 158.56C128.559 158.386 127.102 158.422 125.673 158.667Z" fill="#C7C7C7"/>
<path d="M174.148 95.6157C174.268 96.8644 174.132 98.1244 173.746 99.3181C173.36 100.512 172.734 101.614 171.906 102.556C171.034 103.593 169.959 104.441 168.747 105.047C167.535 105.653 166.212 106.004 164.859 106.08C163.466 106.177 162.07 105.947 160.782 105.41C159.494 104.872 158.349 104.041 157.438 102.983C155.765 101.149 154.784 98.7893 154.662 96.3097C156.223 97.8004 157.921 99.141 159.734 100.314C161.188 101.218 162.881 101.665 164.592 101.595C166.359 101.464 168.065 100.895 169.557 99.9401C171.328 98.7776 172.882 97.3141 174.148 95.6157Z" fill="#C7C7C7"/>
<path d="M157.812 94.6017C157.566 93.6863 157.54 92.7259 157.735 91.7984C157.929 90.8708 158.34 90.0023 158.933 89.263C159.573 88.4501 160.382 87.7857 161.304 87.3156C162.225 86.8456 163.238 86.5811 164.272 86.5403C165.289 86.4877 166.303 86.6782 167.232 87.096C168.16 87.5138 168.976 88.1468 169.611 88.9427C170.188 89.6245 170.622 90.4153 170.888 91.2681C171.154 92.121 171.246 93.0186 171.159 93.9077C169.925 93.0824 168.641 92.3336 167.315 91.6654C166.428 91.2035 165.429 91.0001 164.432 91.0782C163.373 91.1293 162.336 91.4022 161.389 91.879C160.068 92.6031 158.862 93.5208 157.812 94.6017Z" fill="#C7C7C7"/>
<path d="M36.6234 119.16C36.7404 120.408 36.602 121.667 36.2165 122.861C35.831 124.054 35.2066 125.156 34.3813 126.1C33.5051 127.132 32.429 127.977 31.2179 128.582C30.0069 129.188 28.6857 129.542 27.3342 129.624C25.9429 129.708 24.5508 129.473 23.2645 128.936C21.9782 128.4 20.8319 127.575 19.9134 126.527C18.2404 124.693 17.2587 122.333 17.1372 119.854C18.7862 121.338 20.5739 122.661 22.4759 123.804C23.9025 124.727 25.5841 125.176 27.2807 125.086C29.0427 124.971 30.7487 124.42 32.2458 123.484C33.9149 122.272 35.3907 120.814 36.6234 119.16Z" fill="#C7C7C7"/>
<path d="M20.3406 118.146C20.0992 117.231 20.075 116.271 20.2696 115.344C20.4642 114.418 20.8724 113.549 21.4617 112.808C22.1045 112.002 22.915 111.346 23.837 110.885C24.7589 110.424 25.7701 110.169 26.8004 110.138C27.8183 110.077 28.8359 110.263 29.7658 110.682C30.6957 111.1 31.5101 111.738 32.1391 112.541C32.7113 113.226 33.1426 114.017 33.4083 114.869C33.674 115.721 33.7688 116.617 33.6874 117.506C32.4524 116.666 31.1689 115.899 29.8435 115.21C28.9424 114.79 27.9544 114.588 26.9606 114.623C25.9056 114.7 24.8741 114.972 23.9176 115.424C22.6126 116.173 21.4102 117.088 20.3406 118.146Z" fill="#C7C7C7"/>
<path d="M177.298 177.298C163.572 190.973 146.292 200.532 127.415 204.894C108.537 209.256 88.8147 208.247 70.4809 201.98C52.1471 195.713 35.9337 184.439 23.6757 169.434C11.4177 154.429 3.60469 136.293 1.12109 117.078C5.1378 133.8 13.5689 149.139 25.5345 161.492C37.5001 173.846 52.5617 182.762 69.1479 187.31C85.734 191.858 103.237 191.871 119.83 187.349C136.423 182.826 151.498 173.933 163.483 161.598C175.468 149.263 183.922 133.938 187.965 117.221C192.007 100.505 191.489 83.0096 186.465 66.5614C181.441 50.1132 172.095 35.3148 159.401 23.7102C146.708 12.1055 131.133 4.12004 114.302 0.586914C133.874 2.50838 152.498 9.95162 168.004 22.0495C183.51 34.1474 195.259 50.402 201.883 68.9198C208.507 87.4375 209.732 107.456 205.418 126.644C201.103 145.832 191.425 163.398 177.512 177.298H177.298Z" fill="#DBDBDB"/>
</svg>
