<svg width="720" height="722" viewBox="0 0 720 722" fill="none" xmlns="http://www.w3.org/2000/svg">
<g filter="url(#filter0_d_107_30106)">
<rect x="50" y="50" width="300" height="300" rx="150" fill="url(#paint0_linear_107_30106)"/>
</g>
<path fill-rule="evenodd" clip-rule="evenodd" d="M205.818 135.956C221.605 136.732 236.316 143.242 247.552 154.485C259.537 166.478 266.134 182.419 266.128 199.372C266.113 234.356 237.634 262.82 202.648 262.82C189.491 262.82 179.036 258.778 172.286 255.097L138.634 263.92L147.64 231.041C142.085 221.419 139.161 210.505 139.166 199.322C139.18 164.339 167.657 135.877 202.647 135.877L205.818 135.956ZM173.845 243.611L175.772 244.754C183.873 249.559 193.158 252.101 202.626 252.105H202.647C231.729 252.105 255.398 228.447 255.409 199.368C255.415 185.277 249.932 172.028 239.97 162.06C230.008 152.091 216.761 146.598 202.668 146.594C173.565 146.594 149.896 170.249 149.884 199.325C149.88 209.29 152.669 218.995 157.951 227.391L159.206 229.386L153.875 248.847L173.845 243.611ZM234.628 214.46C234.232 213.798 233.175 213.402 231.589 212.608C230.002 211.814 222.204 207.979 220.75 207.45C219.296 206.921 218.239 206.657 217.181 208.243C216.124 209.83 213.084 213.402 212.159 214.46C211.234 215.518 210.309 215.65 208.723 214.857C207.137 214.063 202.026 212.389 195.967 206.988C191.252 202.784 188.068 197.592 187.143 196.005C186.218 194.418 187.045 193.56 187.839 192.77C188.552 192.059 189.425 190.918 190.218 189.992C191.011 189.067 191.275 188.405 191.804 187.347C192.333 186.289 192.068 185.364 191.672 184.57C191.275 183.776 188.103 175.973 186.782 172.798C185.494 169.707 184.186 170.126 183.213 170.077C182.288 170.031 181.23 170.021 180.173 170.021C179.115 170.021 177.397 170.417 175.943 172.005C174.489 173.592 170.391 177.428 170.391 185.231C170.391 193.034 176.075 200.572 176.868 201.631C177.661 202.689 188.053 218.702 203.964 225.569C207.749 227.203 210.703 228.178 213.007 228.909C216.806 230.115 220.264 229.945 222.997 229.537C226.045 229.082 232.382 225.702 233.703 221.999C235.025 218.295 235.025 215.121 234.628 214.46Z" fill="white"/>
<mask id="mask0_107_30106" style="mask-type:alpha" maskUnits="userSpaceOnUse" x="149" y="146" width="107" height="107">
<path fill-rule="evenodd" clip-rule="evenodd" d="M173.842 243.611L175.769 244.754C183.87 249.559 193.156 252.101 202.624 252.105H202.645C231.726 252.105 255.395 228.447 255.407 199.369C255.413 185.278 249.93 172.028 239.968 162.06C230.006 152.092 216.759 146.599 202.666 146.594C173.563 146.594 149.893 170.249 149.882 199.326C149.878 209.291 152.667 218.995 157.949 227.391L159.203 229.387L153.873 248.847L173.842 243.611ZM234.626 214.46C234.23 213.799 233.172 213.402 231.586 212.608C230 211.815 222.202 207.98 220.748 207.45C219.294 206.922 218.237 206.657 217.179 208.244C216.122 209.831 213.082 213.402 212.157 214.46C211.232 215.518 210.306 215.651 208.72 214.857C207.134 214.064 202.023 212.389 195.965 206.988C191.25 202.784 188.066 197.593 187.141 196.006C186.216 194.419 187.042 193.56 187.836 192.77C188.55 192.06 189.423 190.918 190.216 189.993C191.009 189.067 191.273 188.405 191.802 187.348C192.331 186.29 192.066 185.364 191.67 184.571C191.273 183.777 188.101 175.973 186.779 172.799C185.492 169.708 184.184 170.126 183.21 170.077C182.286 170.031 181.228 170.021 180.171 170.021C179.113 170.021 177.395 170.418 175.941 172.005C174.487 173.592 170.389 177.428 170.389 185.231C170.389 193.035 176.073 200.573 176.866 201.631C177.659 202.69 188.051 218.702 203.962 225.57C207.746 227.203 210.701 228.179 213.004 228.909C216.804 230.116 220.262 229.946 222.995 229.537C226.042 229.082 232.379 225.702 233.701 221.999C235.023 218.295 235.023 215.121 234.626 214.46Z" fill="black"/>
</mask>
<g mask="url(#mask0_107_30106)">
<path d="M289.816 111.458H111.458V289.816H289.816V111.458Z" fill="url(#paint1_linear_107_30106)"/>
</g>
<g filter="url(#filter1_d_107_30106)">
<rect x="210" y="212" width="300" height="300" rx="150" fill="url(#paint2_linear_107_30106)"/>
</g>
<path d="M360.004 300.182C343.216 300.182 341.109 300.256 334.515 300.556C327.934 300.857 323.442 301.899 319.512 303.428C315.446 305.007 311.997 307.119 308.561 310.556C305.123 313.992 303.011 317.441 301.427 321.506C299.894 325.437 298.851 329.931 298.555 336.509C298.26 343.103 298.183 345.212 298.183 362C298.183 378.789 298.257 380.89 298.556 387.484C298.859 394.065 299.901 398.557 301.428 402.487C303.008 406.553 305.12 410.002 308.557 413.438C311.992 416.877 315.441 418.994 319.504 420.573C323.437 422.102 327.93 423.144 334.51 423.445C341.104 423.745 343.209 423.818 359.996 423.818C376.786 423.818 378.886 423.745 385.48 423.445C392.061 423.144 396.558 422.102 400.491 420.573C404.556 418.994 407.999 416.877 411.434 413.438C414.872 410.002 416.985 406.553 418.569 402.489C420.088 398.557 421.131 394.063 421.44 387.485C421.737 380.891 421.814 378.789 421.814 362C421.814 345.212 421.737 343.105 421.44 336.511C421.131 329.93 420.088 325.437 418.569 321.507C416.985 317.441 414.872 313.992 411.434 310.556C407.995 307.117 404.557 305.005 400.487 303.428C396.547 301.899 392.052 300.857 385.471 300.556C378.877 300.256 376.778 300.182 359.985 300.182H360.004ZM354.459 311.322C356.104 311.32 357.941 311.322 360.004 311.322C376.509 311.322 378.465 311.382 384.983 311.678C391.01 311.953 394.281 312.96 396.46 313.807C399.345 314.927 401.402 316.266 403.564 318.43C405.728 320.594 407.067 322.654 408.19 325.539C409.036 327.716 410.044 330.987 410.319 337.014C410.615 343.531 410.679 345.488 410.679 361.986C410.679 378.484 410.615 380.441 410.319 386.958C410.043 392.985 409.036 396.257 408.19 398.433C407.069 401.318 405.728 403.372 403.564 405.534C401.4 407.698 399.346 409.037 396.46 410.158C394.284 411.008 391.01 412.012 384.983 412.288C378.467 412.584 376.509 412.649 360.004 412.649C343.498 412.649 341.542 412.584 335.025 412.288C328.998 412.01 325.727 411.003 323.547 410.157C320.662 409.036 318.601 407.697 316.438 405.533C314.274 403.37 312.935 401.314 311.812 398.428C310.966 396.251 309.957 392.98 309.683 386.953C309.387 380.436 309.328 378.479 309.328 361.971C309.328 345.463 309.387 343.515 309.683 336.999C309.959 330.971 310.966 327.7 311.812 325.521C312.932 322.636 314.274 320.576 316.438 318.412C318.601 316.248 320.662 314.909 323.547 313.786C325.726 312.936 328.998 311.931 335.025 311.655C340.728 311.397 342.938 311.32 354.459 311.307V311.322ZM393.001 321.587C388.906 321.587 385.583 324.906 385.583 329.002C385.583 333.098 388.906 336.42 393.001 336.42C397.096 336.42 400.419 333.098 400.419 329.002C400.419 324.907 397.096 321.584 393.001 321.584V321.587ZM360.004 330.254C342.473 330.254 328.259 344.468 328.259 362C328.259 379.532 342.473 393.74 360.004 393.74C377.535 393.74 391.744 379.532 391.744 362C391.744 344.468 377.534 330.254 360.003 330.254H360.004ZM360.004 341.394C371.383 341.394 380.61 350.619 380.61 362C380.61 373.38 371.383 382.606 360.004 382.606C348.623 382.606 339.399 373.38 339.399 362C339.399 350.619 348.623 341.394 360.004 341.394Z" fill="url(#paint3_radial_107_30106)"/>
<path d="M360.004 300.182C343.216 300.182 341.109 300.256 334.515 300.556C327.934 300.857 323.442 301.899 319.512 303.428C315.446 305.007 311.997 307.119 308.561 310.556C305.123 313.992 303.011 317.441 301.427 321.506C299.894 325.437 298.851 329.931 298.555 336.509C298.26 343.103 298.183 345.212 298.183 362C298.183 378.789 298.257 380.89 298.556 387.484C298.859 394.065 299.901 398.557 301.428 402.487C303.008 406.553 305.12 410.002 308.557 413.438C311.992 416.877 315.441 418.994 319.504 420.573C323.437 422.102 327.93 423.144 334.51 423.445C341.104 423.745 343.209 423.818 359.996 423.818C376.786 423.818 378.886 423.745 385.48 423.445C392.061 423.144 396.558 422.102 400.491 420.573C404.556 418.994 407.999 416.877 411.434 413.438C414.872 410.002 416.985 406.553 418.569 402.489C420.088 398.557 421.131 394.063 421.44 387.485C421.737 380.891 421.814 378.789 421.814 362C421.814 345.212 421.737 343.105 421.44 336.511C421.131 329.93 420.088 325.437 418.569 321.507C416.985 317.441 414.872 313.992 411.434 310.556C407.995 307.117 404.557 305.005 400.487 303.428C396.547 301.899 392.052 300.857 385.471 300.556C378.877 300.256 376.778 300.182 359.985 300.182H360.004ZM354.459 311.322C356.104 311.32 357.941 311.322 360.004 311.322C376.509 311.322 378.465 311.382 384.983 311.678C391.01 311.953 394.281 312.96 396.46 313.807C399.345 314.927 401.402 316.266 403.564 318.43C405.728 320.594 407.067 322.654 408.19 325.539C409.036 327.716 410.044 330.987 410.319 337.014C410.615 343.531 410.679 345.488 410.679 361.986C410.679 378.484 410.615 380.441 410.319 386.958C410.043 392.985 409.036 396.257 408.19 398.433C407.069 401.318 405.728 403.372 403.564 405.534C401.4 407.698 399.346 409.037 396.46 410.158C394.284 411.008 391.01 412.012 384.983 412.288C378.467 412.584 376.509 412.649 360.004 412.649C343.498 412.649 341.542 412.584 335.025 412.288C328.998 412.01 325.727 411.003 323.547 410.157C320.662 409.036 318.601 407.697 316.438 405.533C314.274 403.37 312.935 401.314 311.812 398.428C310.966 396.251 309.957 392.98 309.683 386.953C309.387 380.436 309.328 378.479 309.328 361.971C309.328 345.463 309.387 343.515 309.683 336.999C309.959 330.971 310.966 327.7 311.812 325.521C312.932 322.636 314.274 320.576 316.438 318.412C318.601 316.248 320.662 314.909 323.547 313.786C325.726 312.936 328.998 311.931 335.025 311.655C340.728 311.397 342.938 311.32 354.459 311.307V311.322ZM393.001 321.587C388.906 321.587 385.583 324.906 385.583 329.002C385.583 333.098 388.906 336.42 393.001 336.42C397.096 336.42 400.419 333.098 400.419 329.002C400.419 324.907 397.096 321.584 393.001 321.584V321.587ZM360.004 330.254C342.473 330.254 328.259 344.468 328.259 362C328.259 379.532 342.473 393.74 360.004 393.74C377.535 393.74 391.744 379.532 391.744 362C391.744 344.468 377.534 330.254 360.003 330.254H360.004ZM360.004 341.394C371.383 341.394 380.61 350.619 380.61 362C380.61 373.38 371.383 382.606 360.004 382.606C348.623 382.606 339.399 373.38 339.399 362C339.399 350.619 348.623 341.394 360.004 341.394Z" fill="url(#paint4_radial_107_30106)"/>
<g filter="url(#filter2_d_107_30106)">
<rect x="370" y="372" width="300" height="300" rx="150" fill="url(#paint5_linear_107_30106)"/>
</g>
<path d="M463.864 570.525H484.545V520.297L455 498.138V561.661C455 566.565 458.974 570.525 463.864 570.525Z" fill="#4285F4"/>
<path d="M555.454 570.525H576.136C581.04 570.525 585 566.551 585 561.661V498.138L555.454 520.297" fill="#34A853"/>
<path d="M555.454 481.889V520.298L585 498.139V486.321C585 475.359 572.487 469.11 563.727 475.684" fill="#FBBC04"/>
<path d="M484.546 520.298V481.888L520 508.479L555.455 481.888V520.298L520 546.888" fill="#EA4335"/>
<path d="M455.001 486.322V498.14L484.546 520.3V481.89L476.274 475.686C467.499 469.112 455.001 475.361 455.001 486.322Z" fill="#C5221F"/>
<path d="M162.585 359.546L162.178 326.184C161.807 317.889 166.325 310.758 174.628 310.616L175.396 310.648C183.125 310.967 189.316 317.166 189.619 324.896C189.902 332.088 190.121 340.039 189.915 343.882C189.487 351.839 181.474 352.749 181.474 352.749C181.456 352.749 181.425 357.592 181.429 359.93L176.748 363.797L162.585 359.546Z" fill="#FFBF9D"/>
<path d="M181.474 352.745C181.474 352.745 176.444 352.832 171.234 349.253C171.234 349.253 173.481 355.341 181.455 354.952L181.474 352.745Z" fill="#FF9A6C"/>
<path d="M187.084 332.037C187.081 332.638 186.569 333.132 185.941 333.139C185.314 333.146 184.808 332.667 184.812 332.066C184.815 331.464 185.327 330.97 185.954 330.962C186.582 330.955 187.088 331.436 187.084 332.037Z" fill="#263238"/>
<path d="M187.79 328.337C187.643 328.479 186.808 327.806 185.585 327.759C184.363 327.694 183.439 328.286 183.313 328.131C183.251 328.062 183.405 327.8 183.808 327.532C184.204 327.264 184.872 327.015 185.634 327.051C186.396 327.087 187.025 327.393 187.382 327.696C187.746 328 187.862 328.273 187.79 328.337Z" fill="#263238"/>
<path d="M175.891 331.756C175.887 332.357 175.375 332.85 174.747 332.858C174.12 332.866 173.614 332.386 173.617 331.785C173.621 331.183 174.133 330.69 174.76 330.682C175.388 330.674 175.894 331.155 175.891 331.756Z" fill="#263238"/>
<path d="M175.788 328.128C175.641 328.27 174.805 327.598 173.582 327.55C172.361 327.485 171.437 328.078 171.31 327.922C171.248 327.853 171.401 327.591 171.806 327.323C172.202 327.055 172.869 326.807 173.632 326.841C174.393 326.878 175.023 327.184 175.379 327.486C175.743 327.791 175.86 328.065 175.788 328.128Z" fill="#263238"/>
<path d="M179.765 337.716C179.762 337.646 180.528 337.546 181.767 337.439C182.081 337.42 182.379 337.371 182.44 337.16C182.523 336.937 182.406 336.595 182.27 336.225C182.008 335.457 181.733 334.652 181.445 333.808C180.302 330.367 179.488 327.545 179.627 327.5C179.766 327.455 180.805 330.207 181.948 333.647C182.222 334.495 182.485 335.303 182.734 336.076C182.838 336.436 183.024 336.847 182.846 337.309C182.752 337.539 182.516 337.699 182.314 337.744C182.111 337.797 181.935 337.793 181.78 337.796C180.537 337.812 179.767 337.785 179.765 337.716Z" fill="#263238"/>
<path d="M176.338 324.317C176.159 324.622 174.985 324.245 173.541 324.154C172.099 324.035 170.884 324.238 170.75 323.909C170.693 323.753 170.948 323.482 171.467 323.25C171.982 323.018 172.766 322.852 173.632 322.914C174.497 322.978 175.249 323.257 175.724 323.56C176.204 323.866 176.418 324.171 176.338 324.317Z" fill="#263238"/>
<path d="M187.979 324.744C187.717 325.015 186.728 324.7 185.53 324.655C184.333 324.575 183.312 324.784 183.086 324.487C182.987 324.344 183.154 324.069 183.604 323.818C184.048 323.567 184.785 323.372 185.608 323.415C186.431 323.458 187.138 323.729 187.547 324.024C187.963 324.321 188.094 324.611 187.979 324.744Z" fill="#263238"/>
<path d="M162.584 332.103C162.451 332.038 157.181 330.258 157.13 335.708C157.079 341.158 162.561 340.085 162.572 339.929C162.583 339.773 162.584 332.103 162.584 332.103Z" fill="#FFBF9D"/>
<path d="M160.933 337.852C160.909 337.835 160.838 337.918 160.677 337.99C160.52 338.061 160.25 338.107 159.967 337.998C159.393 337.781 158.917 336.863 158.899 335.881C158.89 335.385 158.999 334.913 159.178 334.524C159.348 334.126 159.608 333.851 159.899 333.801C160.188 333.738 160.392 333.913 160.456 334.067C160.528 334.22 160.492 334.329 160.521 334.338C160.536 334.352 160.638 334.247 160.597 334.023C160.575 333.914 160.513 333.785 160.386 333.679C160.256 333.572 160.065 333.515 159.862 333.535C159.442 333.561 159.06 333.944 158.862 334.371C158.642 334.8 158.508 335.329 158.519 335.886C158.544 336.985 159.096 338.018 159.882 338.253C160.264 338.356 160.585 338.244 160.751 338.116C160.922 337.984 160.952 337.863 160.933 337.852Z" fill="#FF9A6C"/>
<path d="M175.934 338.464C176.121 338.453 176.13 339.705 177.205 340.588C178.278 341.474 179.612 341.328 179.622 341.502C179.639 341.581 179.326 341.747 178.762 341.765C178.211 341.786 177.403 341.613 176.745 341.072C176.089 340.531 175.805 339.805 175.759 339.292C175.71 338.768 175.849 338.457 175.934 338.464Z" fill="#263238"/>
<path d="M200.619 317.723C200.536 317.401 200.305 317.134 200.021 316.962C199.401 316.587 198.681 316.627 197.986 316.608C196.257 316.561 194.547 316.099 193.013 315.299C193.554 315.033 194.06 314.708 194.491 314.287C195.383 313.418 195.904 312.079 195.514 310.897C195.441 310.675 195.315 310.442 195.093 310.371C194.739 310.258 194.426 310.602 194.176 310.876C193.354 311.773 192.6 312.154 191.39 312.018C190.639 311.933 189.913 311.757 189.326 311.381C189.303 311.356 189.282 311.329 189.258 311.304C188.978 311.008 188.705 310.726 188.435 310.453C188.435 310.453 188.434 310.451 188.434 310.45L188.435 310.451C186.408 308.395 184.661 306.965 182.853 306.214C180.205 305.112 175.76 304.628 172.978 305.324C170.195 306.02 167.678 308.243 167.26 311.081C165.719 309.748 163.383 309.733 161.479 310.472L161.432 310.451C159.313 311.179 158.089 313.395 157.442 315.54C157.407 315.658 157.376 315.776 157.343 315.895C156.616 317.018 155.636 317.976 154.471 318.636C154.266 318.752 154.03 318.895 154.003 319.13C153.975 319.362 154.169 319.557 154.359 319.695C154.861 320.064 155.447 320.308 156.059 320.425C155.86 320.934 155.628 321.429 155.342 321.9C155.099 322.301 154.811 322.78 155.014 323.203C155.172 323.529 155.582 323.667 155.941 323.619C156.3 323.57 156.62 323.376 156.929 323.185C156.687 323.746 156.445 324.307 156.204 324.868C156.966 325.009 157.757 324.957 158.501 324.741C158.927 326.758 159.221 330.489 159.724 331.859C161.17 331.901 161.523 331.748 162.25 331.999C163.19 332.323 162.812 333.989 164.045 333.528C164.673 333.294 165.66 330.935 165.876 330.3C167.312 326.09 167.825 321.569 167.373 317.143C168.258 316.222 169.322 315.472 170.487 314.949L170.391 315.033C172.629 314.285 175.158 313.552 177.26 314.622C178.891 315.452 179.835 317.165 181.046 318.537C183.341 321.136 185.956 322.54 189.418 322.728C189.703 325.138 189.751 329.074 189.843 331.32L191.811 326.847L191.813 326.866C191.971 326.604 192.101 326.34 192.228 326.076L192.272 325.995V325.985C192.472 325.56 192.665 325.135 192.918 324.715C192.925 324.722 192.932 324.728 192.939 324.735C194.143 325.822 195.954 324.201 195.009 322.883C194.822 322.621 194.597 322.387 194.339 322.194C194.889 322.722 195.716 322.981 196.447 322.766C197.178 322.55 197.752 321.819 197.698 321.058C197.66 320.539 197.294 320.071 196.829 319.861C197.811 319.948 198.818 319.745 199.68 319.266C200.244 318.952 200.801 318.431 200.619 317.723Z" fill="#263238"/>
<path d="M169.759 312.025C169.775 312.046 169.423 312.233 168.95 312.747C168.483 313.261 167.955 314.157 167.696 315.381C167.563 315.99 167.477 316.672 167.469 317.406C167.457 318.141 167.507 318.928 167.554 319.757C167.599 320.587 167.648 321.463 167.585 322.374C167.553 322.828 167.493 323.29 167.389 323.752C167.283 324.205 167.158 324.697 166.811 325.084C166.534 325.399 166.076 325.535 165.681 325.449C165.283 325.374 164.931 325.158 164.675 324.866C164.168 324.261 164.049 323.5 163.929 322.829L164.096 322.852C163.815 323.451 163.528 324.042 163.107 324.512C162.692 324.985 162.122 325.294 161.545 325.339C161.258 325.362 160.97 325.312 160.724 325.185C160.474 325.06 160.294 324.85 160.172 324.628C160.055 324.403 159.996 324.156 160.011 323.919C160.027 323.683 160.122 323.459 160.274 323.302L160.358 323.378C159.735 324.071 159.082 324.441 158.63 324.644C158.402 324.747 158.22 324.807 158.097 324.845C157.973 324.88 157.908 324.895 157.906 324.89C157.905 324.884 157.967 324.86 158.087 324.815C158.207 324.768 158.383 324.698 158.605 324.589C159.043 324.372 159.676 323.992 160.273 323.304L160.357 323.38C160.086 323.661 160.064 324.16 160.291 324.564C160.405 324.763 160.57 324.95 160.79 325.057C161.009 325.167 161.272 325.211 161.534 325.187C162.064 325.14 162.595 324.85 162.984 324.4C163.382 323.951 163.66 323.375 163.937 322.776L164.055 322.521L164.105 322.798C164.224 323.468 164.353 324.199 164.815 324.744C165.044 325.006 165.367 325.201 165.715 325.266C166.064 325.338 166.434 325.227 166.676 324.956C166.98 324.622 167.108 324.156 167.21 323.71C167.311 323.26 167.372 322.807 167.404 322.36C167.469 321.465 167.425 320.594 167.385 319.766C167.343 318.936 167.298 318.146 167.317 317.403C167.332 316.659 167.427 315.968 167.57 315.352C167.849 314.112 168.406 313.204 168.899 312.697C169.394 312.189 169.759 312.025 169.759 312.025Z" fill="#455A64"/>
<path d="M194.344 320.067C194.346 320.069 194.324 320.087 194.28 320.12C194.225 320.159 194.159 320.206 194.079 320.263C193.991 320.328 193.879 320.402 193.739 320.476C193.6 320.554 193.442 320.648 193.251 320.727C192.506 321.07 191.314 321.406 189.83 321.302C188.36 321.202 186.6 320.661 185.036 319.469C183.456 318.305 182.077 316.602 180.955 314.655C180.386 313.683 179.924 312.687 179.413 311.767C178.905 310.846 178.343 309.994 177.658 309.319C176.982 308.64 176.193 308.135 175.376 307.898C174.969 307.772 174.558 307.74 174.166 307.744C173.772 307.76 173.398 307.836 173.054 307.944C172.363 308.167 171.804 308.541 171.379 308.927C170.952 309.316 170.664 309.73 170.466 310.084C170.094 310.813 170.069 311.284 170.041 311.276C170.037 311.275 170.04 311.247 170.048 311.192C170.059 311.126 170.073 311.047 170.088 310.949C170.13 310.736 170.226 310.427 170.402 310.052C170.594 309.685 170.879 309.257 171.308 308.851C171.736 308.45 172.304 308.058 173.012 307.82C173.366 307.704 173.751 307.622 174.159 307.601C174.565 307.592 174.997 307.623 175.418 307.75C176.266 307.989 177.083 308.506 177.779 309.197C178.483 309.886 179.059 310.753 179.572 311.679C180.089 312.606 180.551 313.599 181.115 314.562C182.228 316.494 183.587 318.178 185.138 319.331C186.672 320.513 188.39 321.054 189.839 321.17C191.298 321.289 192.476 320.978 193.22 320.659C193.972 320.335 194.33 320.043 194.344 320.067Z" fill="#455A64"/>
<path d="M195.111 316.57C195.118 316.581 195.015 316.651 194.822 316.766C194.632 316.886 194.341 317.031 193.97 317.187C193.601 317.345 193.143 317.491 192.624 317.612C192.104 317.723 191.522 317.804 190.907 317.82C190.292 317.829 189.707 317.773 189.182 317.683C188.659 317.583 188.196 317.456 187.819 317.313C187.443 317.174 187.145 317.039 186.951 316.928C186.755 316.82 186.649 316.756 186.655 316.745C186.67 316.714 187.109 316.945 187.862 317.189C188.238 317.313 188.696 317.425 189.211 317.514C189.727 317.593 190.3 317.643 190.903 317.633C191.506 317.617 192.076 317.544 192.589 317.444C193.099 317.335 193.553 317.204 193.923 317.064C194.666 316.789 195.094 316.54 195.111 316.57Z" fill="#455A64"/>
<path d="M207.477 365.388L235.419 372.63C235.419 372.63 258.521 346.991 259.605 346.097C260.689 345.203 274.861 349.696 274.861 349.696L258.398 380.174C254.475 390.11 248.63 395.721 242.952 395.967L197.128 386.869L207.477 365.388Z" fill="#FFBE9D"/>
<path d="M258.633 347.237C258.633 347.237 261.818 340.833 262.265 339.872C263.336 337.056 264.261 334.188 265.037 331.277C265.037 331.277 266.937 330.864 266.814 335.111C266.691 339.358 267.552 338.184 267.552 338.184C267.552 338.184 276.381 327.455 278.527 328.125C279.321 328.394 278.225 330.942 276.761 332.317C275.654 333.437 274.637 334.644 273.721 335.927C273.721 335.927 282.025 328.438 283.925 329.612C283.925 329.612 284.853 330.35 282.215 332.562C280.027 334.387 277.972 336.366 276.068 338.486C276.068 338.486 284.305 332.685 285.233 333.311C286.787 334.351 278.427 340.274 277.052 342.476C277.052 342.476 283.255 337.715 283.422 339.246C283.59 340.777 275.867 346.142 272.335 353.932L258.633 347.237Z" fill="#FFBE9D"/>
<path d="M265.271 339.257C265.271 339.257 265.986 339.391 266.825 340.185C267.373 340.702 267.813 341.323 268.12 342.012C268.427 342.701 268.594 343.443 268.613 344.197L268.099 344.007C269.092 342.844 270.452 342.055 271.955 341.772C272.549 341.595 273.182 341.595 273.776 341.772C273.776 341.872 273.084 341.85 272.044 342.141C270.69 342.498 269.473 343.248 268.546 344.298L268.043 344.845V344.119C267.994 342.735 267.465 341.411 266.545 340.375C265.83 339.659 265.215 339.335 265.271 339.257Z" fill="#EB996E"/>
<path d="M135.947 364.192L108.005 371.446C108.005 371.446 84.9593 345.807 83.8751 344.901C82.791 343.996 68.6191 348.511 68.6191 348.511L85.0822 378.99C89.0052 388.926 94.8505 394.537 100.528 394.782L146.352 385.685L135.947 364.192Z" fill="#FFBE9D"/>
<path d="M84.7921 346.041C84.7921 346.041 81.6068 339.637 81.1597 338.676C80.0919 335.886 79.1667 333.044 78.3879 330.16C78.3879 330.16 76.4879 329.735 76.6109 333.993C76.7338 338.251 75.8732 337.067 75.8732 337.067C75.8732 337.067 67.0437 326.337 64.8978 327.008C64.1043 327.276 65.1996 329.824 66.6637 331.199C67.7714 332.32 68.788 333.527 69.7038 334.809C69.7038 334.809 61.3996 327.321 59.4996 328.494C59.4996 328.494 58.5719 329.232 61.2096 331.434C63.397 333.263 65.4512 335.247 67.3567 337.368C67.3567 337.368 59.1195 331.568 58.1919 332.194C56.6383 333.233 64.9872 339.157 66.3731 341.358C66.3731 341.358 60.1701 336.597 60.0025 338.128C59.8348 339.66 67.5578 345.024 71.0896 352.814L84.7921 346.041Z" fill="#FFBE9D"/>
<path d="M78.1534 338.061C78.1534 338.139 77.5945 338.464 76.8904 339.268C75.9711 340.304 75.4415 341.628 75.3928 343.012V343.739L74.8898 343.191C73.9629 342.142 72.7454 341.391 71.3915 341.034C70.3521 340.744 69.6592 340.766 69.6592 340.665C70.2536 340.489 70.8866 340.489 71.481 340.665C72.976 340.934 74.3355 341.703 75.3369 342.845L74.8227 343.035C74.8412 342.281 75.0088 341.538 75.3157 340.85C75.6226 340.161 76.0628 339.54 76.611 339.022C77.4381 338.195 78.1422 337.983 78.1534 338.061Z" fill="#EB996E"/>
<path d="M216.519 648.691L218.352 656.403C218.352 656.403 230.948 672.766 234.837 671.972C237.385 671.447 234.256 667.177 229.461 654.738L228.455 649.608L216.519 648.691Z" fill="#BC3C50"/>
<path d="M235.352 669.524C235.334 669.608 235.3 669.688 235.251 669.759C235.118 669.963 234.938 670.132 234.726 670.251C234.383 670.434 233.996 670.519 233.608 670.497C233.097 670.451 232.607 670.27 232.189 669.971C229.931 668.154 227.809 666.175 225.84 664.048C223.859 661.953 221.993 659.752 220.252 657.454C219.582 656.571 219.056 655.844 218.699 655.33L218.296 654.738L218.162 654.525C218.228 654.579 218.285 654.643 218.33 654.715L218.766 655.274C219.235 655.878 219.772 656.56 220.375 657.353C221.761 659.085 223.728 661.444 226.053 663.891C228.017 666.002 230.111 667.988 232.323 669.837C232.656 670.109 233.057 670.284 233.483 670.343C233.909 670.402 234.342 670.343 234.737 670.173C235.001 670.021 235.214 669.796 235.352 669.524Z" fill="#263238"/>
<path d="M233.563 664.271C233.225 664.253 232.885 664.253 232.546 664.271C231.75 664.4 230.989 664.693 230.311 665.132C229.602 665.535 229.016 666.122 228.612 666.831C228.31 667.378 228.232 667.769 228.188 667.758C228.197 667.407 228.288 667.062 228.456 666.752C228.847 665.992 229.448 665.36 230.188 664.931C230.905 664.47 231.721 664.187 232.569 664.104C232.909 664.072 233.252 664.13 233.563 664.271Z" fill="#263238"/>
<path d="M221.638 660.426C221.638 660.426 221.772 659.867 221.873 658.984C221.993 657.83 221.775 656.665 221.247 655.632C220.713 654.589 219.87 653.738 218.833 653.195C218.388 652.995 217.929 652.83 217.458 652.703C217.591 652.684 217.727 652.684 217.86 652.703C218.219 652.768 218.568 652.877 218.9 653.027C220.003 653.546 220.9 654.42 221.448 655.509C222.01 656.583 222.218 657.807 222.04 659.007C221.985 659.367 221.899 659.723 221.783 660.069C221.751 660.194 221.702 660.314 221.638 660.426Z" fill="#263238"/>
<path d="M217.312 649.977C217.669 650.74 217.903 651.554 218.005 652.391C218.24 653.765 218.485 654.838 218.441 654.861C218.093 654.093 217.87 653.274 217.781 652.435C217.535 651.072 217.256 649.999 217.312 649.977Z" fill="#263238"/>
<path d="M229.685 655.8C229.685 655.878 228.97 655.8 228.12 656.046C227.271 656.291 226.645 656.571 226.611 656.515C227.042 656.181 227.539 655.944 228.07 655.821C228.6 655.698 229.151 655.69 229.685 655.8Z" fill="#263238"/>
<path d="M229.942 657.129C229.942 657.197 229.339 657.13 228.635 657.297C227.93 657.465 227.428 657.789 227.383 657.733C227.692 657.38 228.115 657.146 228.579 657.074C229.024 656.917 229.512 656.937 229.942 657.129Z" fill="#263238"/>
<path d="M230.948 658.75C230.499 658.698 230.045 658.698 229.596 658.75C229.158 658.882 228.737 659.066 228.344 659.298C228.473 659.087 228.647 658.907 228.853 658.772C229.06 658.637 229.295 658.549 229.54 658.516C229.777 658.446 230.027 658.43 230.271 658.471C230.515 658.512 230.746 658.607 230.948 658.75Z" fill="#263238"/>
<path d="M228.813 655.252C228.673 655.254 228.534 655.235 228.4 655.196C228.02 655.125 227.646 655.024 227.282 654.895C226.741 654.711 226.217 654.479 225.717 654.202C225.417 654.039 225.126 653.86 224.846 653.665C224.676 653.562 224.531 653.423 224.423 653.256C224.314 653.09 224.245 652.901 224.22 652.704C224.236 652.599 224.275 652.498 224.333 652.409C224.391 652.32 224.468 652.244 224.558 652.187C224.648 652.13 224.749 652.093 224.855 652.078C224.96 652.063 225.067 652.07 225.17 652.1C225.512 652.216 225.816 652.42 226.053 652.693C226.451 653.09 226.824 653.512 227.17 653.956C227.42 654.247 227.651 654.553 227.863 654.872C228.02 655.096 228.098 655.23 228.076 655.241C228.053 655.252 227.696 654.783 227.047 654.056C226.723 653.699 226.332 653.285 225.863 652.849C225.656 652.609 225.39 652.428 225.091 652.324C224.801 652.257 224.421 652.413 224.421 652.715C224.421 653.017 224.689 653.285 224.946 653.475C225.215 653.67 225.495 653.849 225.784 654.012C226.271 654.296 226.779 654.543 227.304 654.749C228.232 655.096 228.824 655.219 228.813 655.252Z" fill="#263238"/>
<path d="M228.154 655.096C228.135 654.966 228.135 654.834 228.154 654.704C228.154 654.459 228.154 654.101 228.232 653.665C228.294 653.142 228.429 652.63 228.634 652.145C228.756 651.849 228.921 651.574 229.126 651.329C229.235 651.173 229.394 651.057 229.576 651.001C229.758 650.944 229.953 650.95 230.132 651.016C230.279 651.131 230.39 651.286 230.452 651.463C230.513 651.639 230.522 651.829 230.478 652.011C230.426 652.324 230.332 652.628 230.199 652.916C229.975 653.395 229.673 653.833 229.305 654.213C229.058 654.464 228.789 654.693 228.5 654.894C228.401 654.981 228.288 655.049 228.165 655.096C228.165 655.096 228.601 654.749 229.182 654.101C229.518 653.721 229.793 653.291 229.998 652.827C230.115 652.559 230.197 652.277 230.244 651.989C230.281 651.852 230.28 651.708 230.24 651.572C230.201 651.436 230.125 651.313 230.02 651.217C229.786 651.083 229.495 651.273 229.294 651.486C229.109 651.712 228.951 651.96 228.824 652.223C228.623 652.692 228.48 653.184 228.4 653.687C228.344 654.161 228.262 654.631 228.154 655.096Z" fill="#263238"/>
<g opacity="0.4">
<path d="M218.352 656.381L217.458 652.67C217.458 652.67 220.554 653.24 221.347 655.553C221.823 656.816 222.029 658.163 221.951 659.51L228.657 666.741C228.657 666.741 230.345 663.455 233.385 664.238C233.385 664.238 235.788 669.524 235.709 670.843C235.631 672.162 234.1 671.961 233.552 671.76C231.335 670.466 229.311 668.867 227.539 667.009C223.996 663.321 220.073 658.649 218.352 656.381Z" fill="black"/>
</g>
<path d="M153.83 652.57V642.287L173.076 642.053L173.322 657.085L172.126 657.186C166.817 657.543 145.112 658.639 141.547 657.599C137.557 656.448 153.83 652.57 153.83 652.57Z" fill="#BC3C50"/>
<g opacity="0.4">
<path d="M166.314 657.018C166.585 655.393 167.445 653.925 168.729 652.894C169.986 651.868 171.579 651.346 173.199 651.43L173.266 656.817L166.314 657.018Z" fill="black"/>
</g>
<g opacity="0.4">
<path d="M145.894 654.749C145.894 654.749 140.183 656.47 140.91 657.409C141.636 658.348 163.62 658.057 173.322 657.085V656.66L147.683 657.208C147.683 657.208 147.023 654.783 145.894 654.749Z" fill="black"/>
</g>
<path d="M173.568 656.649H173.232L172.282 656.716L168.784 656.917C165.833 657.062 161.754 657.208 157.239 657.264C152.723 657.32 148.644 657.264 145.682 657.264L142.184 657.163H141.234H140.898H142.184H145.682C148.644 657.163 152.723 657.163 157.239 657.163C161.754 657.163 165.822 656.984 168.784 656.884L172.282 656.761H173.232L173.568 656.649Z" fill="#263238"/>
<path d="M147.637 657.498C147.479 656.923 147.254 656.368 146.967 655.844C146.611 655.36 146.207 654.915 145.76 654.514C146.356 654.734 146.853 655.163 147.157 655.721C147.532 656.233 147.703 656.867 147.637 657.498Z" fill="#263238"/>
<path d="M153.282 654.548C153.226 654.548 152.957 654.257 152.667 653.821C152.376 653.386 152.186 652.994 152.242 652.961C152.298 652.927 152.577 653.251 152.857 653.687C153.136 654.123 153.338 654.514 153.282 654.548Z" fill="#263238"/>
<path d="M154.835 653.71C154.835 653.71 154.477 653.553 154.142 653.263C153.807 652.972 153.572 652.693 153.617 652.637C153.661 652.581 153.963 652.793 154.299 653.084C154.634 653.375 154.869 653.654 154.835 653.71Z" fill="#263238"/>
<path d="M155.797 651.876C155.476 651.997 155.133 652.047 154.791 652.022C154.453 652.068 154.108 652.033 153.785 651.921C154.104 651.807 154.443 651.762 154.78 651.787C155.121 651.741 155.469 651.771 155.797 651.876Z" fill="#263238"/>
<path d="M156.065 650.591C155.726 650.774 155.352 650.886 154.968 650.92C154.584 650.955 154.197 650.911 153.83 650.792C154.199 650.729 154.573 650.699 154.948 650.703C155.316 650.629 155.69 650.592 156.065 650.591Z" fill="#263238"/>
<path d="M152.611 652.882C152.201 652.953 151.781 652.953 151.37 652.882C150.923 652.837 150.481 652.747 150.052 652.614C149.789 652.539 149.534 652.438 149.292 652.312C149.144 652.229 149.032 652.093 148.979 651.932C148.958 651.84 148.964 651.744 148.996 651.655C149.027 651.566 149.084 651.488 149.158 651.429C149.626 651.185 150.167 651.115 150.682 651.232C151.198 651.348 151.656 651.644 151.974 652.066C152.169 652.305 152.31 652.584 152.388 652.882C152.443 653.094 152.443 653.217 152.388 653.217C152.266 652.834 152.072 652.478 151.818 652.167C151.52 651.837 151.131 651.604 150.7 651.496C150.458 651.416 150.203 651.386 149.95 651.407C149.696 651.428 149.45 651.5 149.225 651.619C149.023 651.764 149.102 651.988 149.325 652.122C149.552 652.237 149.787 652.334 150.029 652.413C150.447 652.542 150.873 652.647 151.303 652.726C152.13 652.849 152.611 652.837 152.611 652.882Z" fill="#263238"/>
<path d="M152.288 652.95C152.138 652.689 152.083 652.386 152.131 652.089C152.166 651.764 152.281 651.453 152.466 651.184C152.566 650.998 152.712 650.84 152.89 650.726C153.068 650.613 153.273 650.547 153.484 650.536C153.611 650.56 153.723 650.634 153.796 650.74C153.869 650.847 153.898 650.978 153.875 651.106C153.844 651.3 153.776 651.486 153.674 651.653C153.51 651.929 153.315 652.184 153.092 652.413C152.903 652.64 152.662 652.816 152.388 652.927C152.388 652.927 152.634 652.693 152.969 652.302C153.164 652.069 153.336 651.818 153.484 651.553C153.651 651.284 153.752 650.815 153.484 650.77C153.215 650.726 152.858 651.05 152.668 651.307C152.499 651.548 152.385 651.822 152.332 652.112C152.294 652.389 152.279 652.67 152.288 652.95Z" fill="#263238"/>
<path d="M173.109 651.385C173.109 651.385 172.551 651.385 171.69 651.452C170.556 651.595 169.484 652.052 168.594 652.771C167.721 653.501 167.064 654.455 166.694 655.531C166.415 656.358 166.392 656.917 166.348 656.917C166.329 656.787 166.329 656.656 166.348 656.526C166.381 656.174 166.448 655.826 166.549 655.487C166.879 654.35 167.546 653.34 168.462 652.589C169.378 651.839 170.499 651.384 171.679 651.284C172.05 651.245 172.425 651.245 172.796 651.284C172.905 651.302 173.011 651.336 173.109 651.385Z" fill="#263238"/>
<path d="M171.008 643.394C171.163 644.707 171.234 646.028 171.22 647.35C171.298 648.668 171.298 649.989 171.22 651.307C171.004 648.675 170.937 646.033 171.019 643.394H171.008Z" fill="#263238"/>
<path d="M163.889 655.174C162.048 655.544 160.156 655.586 158.301 655.296C158.301 655.229 159.564 655.296 161.117 655.296C162.671 655.296 163.889 655.106 163.889 655.174Z" fill="#263238"/>
<path d="M167.644 655.118C167.644 655.174 167.543 655.386 167.42 655.677C167.297 655.968 167.23 656.225 167.163 656.225C167.096 656.225 167.063 655.923 167.163 655.588C167.264 655.252 167.599 655.073 167.644 655.118Z" fill="#263238"/>
<path d="M169.041 653.341C169.041 653.341 168.974 653.587 168.773 653.788C168.572 653.989 168.382 654.123 168.337 654.078C168.292 654.034 168.404 653.833 168.605 653.62C168.806 653.408 168.996 653.296 169.041 653.341Z" fill="#263238"/>
<path d="M171.063 652.502C171.063 652.569 170.795 652.569 170.516 652.67C170.236 652.77 170.035 652.927 169.979 652.882C169.923 652.838 170.091 652.569 170.438 652.446C170.784 652.323 171.086 652.446 171.063 652.502Z" fill="#263238"/>
<path d="M172.517 652.1C172.517 652.156 172.427 652.256 172.271 652.323C172.114 652.391 171.958 652.391 171.935 652.323C171.913 652.256 172.025 652.167 172.181 652.1C172.338 652.033 172.483 652.044 172.517 652.1Z" fill="#263238"/>
<path d="M140.765 448.463L149.751 648.133L179.726 648.77L174.753 481.602L208.461 650.044H236.961L198.905 448.463" fill="#263238"/>
<path d="M206.985 647.327L207.667 650.278L236.961 650.68L236.525 646.064L206.985 647.327Z" fill="#455A64"/>
<path d="M229.831 647.16C229.998 647.16 230.188 647.473 230.255 647.931C230.322 648.39 230.255 648.781 230.11 648.803C229.965 648.825 229.764 648.49 229.685 648.032C229.607 647.574 229.63 647.183 229.831 647.16Z" fill="#455A64"/>
<path d="M228.713 640.622C228.869 640.622 229.126 641.303 229.272 642.209C229.417 643.114 229.417 643.863 229.272 643.885C229.126 643.908 228.869 643.203 228.713 642.298C228.556 641.393 228.534 640.644 228.713 640.622Z" fill="#455A64"/>
<path d="M227.595 634.083C227.751 634.083 228.008 634.765 228.153 635.67C228.299 636.575 228.299 637.324 228.153 637.347C228.008 637.369 227.74 636.665 227.595 635.759C227.449 634.854 227.438 634.161 227.595 634.083Z" fill="#455A64"/>
<path d="M226.478 627.545C226.634 627.545 226.88 628.227 227.036 629.132C227.193 630.037 227.182 630.786 227.036 630.808C226.891 630.831 226.623 630.127 226.466 629.221C226.31 628.316 226.332 627.567 226.478 627.545Z" fill="#455A64"/>
<path d="M225.36 621.007C225.517 621.007 225.774 621.689 225.919 622.594C226.064 623.499 226.064 624.248 225.919 624.27C225.774 624.293 225.517 623.589 225.36 622.683C225.204 621.778 225.237 621.029 225.36 621.007Z" fill="#455A64"/>
<path d="M224.242 614.469C224.398 614.469 224.655 615.151 224.812 616.056C224.968 616.961 224.957 617.71 224.812 617.732C224.667 617.755 224.398 617.051 224.242 616.145C224.085 615.24 224.13 614.491 224.242 614.469Z" fill="#455A64"/>
<path d="M223.18 607.931C223.336 607.931 223.593 608.612 223.75 609.507C223.906 610.401 223.895 611.172 223.75 611.194C223.605 611.217 223.336 610.512 223.18 609.607C223.023 608.702 223.023 607.953 223.18 607.931Z" fill="#455A64"/>
<path d="M222.073 601.392C222.23 601.392 222.487 602.074 222.632 602.979C222.777 603.884 222.789 604.633 222.632 604.656C222.476 604.678 222.219 603.974 222.062 603.069C221.906 602.163 221.917 601.414 222.073 601.392Z" fill="#455A64"/>
<path d="M220.956 594.854C221.113 594.854 221.37 595.535 221.526 596.441C221.683 597.346 221.672 598.095 221.526 598.117C221.381 598.139 221.113 597.435 220.956 596.53C220.8 595.625 220.8 594.876 220.956 594.854Z" fill="#455A64"/>
<path d="M219.838 588.338C219.995 588.338 220.252 589.02 220.408 589.925C220.565 590.83 220.554 591.579 220.408 591.601C220.263 591.624 219.995 590.92 219.85 590.014C219.704 589.109 219.682 588.338 219.838 588.338Z" fill="#455A64"/>
<path d="M218.721 581.777C218.877 581.777 219.134 582.459 219.28 583.364C219.425 584.27 219.436 585.019 219.28 585.041C219.123 585.063 218.866 584.359 218.71 583.465C218.553 582.571 218.564 581.811 218.721 581.777Z" fill="#455A64"/>
<path d="M217.592 575.239C217.748 575.239 218.006 575.921 218.162 576.826C218.318 577.732 218.307 578.48 218.162 578.514C218.017 578.548 217.748 577.832 217.592 576.927C217.435 576.022 217.435 575.273 217.592 575.239Z" fill="#455A64"/>
<path d="M216.419 568.712C216.575 568.712 216.832 569.394 216.989 570.288C217.145 571.182 217.145 571.953 216.989 571.975C216.832 571.998 216.575 571.294 216.419 570.388C216.262 569.483 216.296 568.734 216.419 568.712Z" fill="#455A64"/>
<path d="M215.301 562.174C215.457 562.174 215.714 562.856 215.871 563.761C216.027 564.666 216.027 565.415 215.871 565.449C215.714 565.482 215.457 564.767 215.301 563.861C215.144 562.956 215.155 562.207 215.301 562.174Z" fill="#455A64"/>
<path d="M214.183 555.646C214.35 555.646 214.607 556.328 214.764 557.222C214.92 558.117 214.92 558.888 214.764 558.91C214.607 558.932 214.35 558.228 214.183 557.323C214.015 556.418 214.004 555.669 214.183 555.646Z" fill="#455A64"/>
<path d="M213.066 549.119C213.222 549.119 213.479 549.79 213.647 550.695C213.815 551.6 213.803 552.349 213.647 552.383C213.491 552.416 213.233 551.701 213.066 550.796C212.898 549.89 212.853 549.141 213.066 549.119Z" fill="#455A64"/>
<path d="M211.847 542.581C212.004 542.581 212.261 543.263 212.428 544.168C212.596 545.073 212.585 545.822 212.428 545.856C212.272 545.889 212.015 545.174 211.847 544.269C211.68 543.363 211.691 542.615 211.847 542.581Z" fill="#455A64"/>
<path d="M210.674 536.054C210.83 536.054 211.088 536.736 211.255 537.641C211.423 538.546 211.423 539.295 211.255 539.318C211.088 539.34 210.83 538.647 210.674 537.742C210.518 536.836 210.518 536.087 210.674 536.054Z" fill="#455A64"/>
<path d="M209.489 529.538C209.645 529.538 209.913 530.209 210.07 531.114C210.226 532.019 210.238 532.768 210.07 532.802C209.902 532.835 209.656 532.12 209.489 531.215C209.321 530.309 209.332 529.56 209.489 529.538Z" fill="#455A64"/>
<path d="M208.304 523.011C208.461 523.011 208.718 523.693 208.885 524.587C209.053 525.481 209.053 526.241 208.885 526.275C208.718 526.308 208.472 525.593 208.304 524.699C208.137 523.805 208.148 523.045 208.304 523.011Z" fill="#455A64"/>
<path d="M207.097 516.484C207.254 516.484 207.522 517.166 207.69 518.071C207.857 518.976 207.857 519.725 207.69 519.747C207.522 519.77 207.265 519.077 207.097 518.172C206.93 517.266 206.941 516.517 207.097 516.484Z" fill="#455A64"/>
<path d="M205.89 509.968C206.047 509.968 206.304 510.65 206.471 511.544C206.639 512.438 206.65 513.198 206.471 513.232C206.293 513.265 206.047 512.55 205.879 511.656C205.711 510.762 205.723 510.002 205.89 509.968Z" fill="#455A64"/>
<path d="M204.661 503.452C204.817 503.452 205.085 504.123 205.253 505.028C205.421 505.933 205.432 506.682 205.253 506.704C205.074 506.727 204.828 506.034 204.661 505.128C204.493 504.223 204.504 503.485 204.661 503.452Z" fill="#455A64"/>
<path d="M203.42 496.936C203.576 496.936 203.844 497.607 204.023 498.512C204.202 499.417 204.202 500.166 204.023 500.188C203.844 500.211 203.599 499.518 203.431 498.624C203.263 497.73 203.263 496.97 203.42 496.936Z" fill="#455A64"/>
<path d="M202.168 490.42C202.336 490.42 202.604 491.102 202.772 491.996C202.94 492.89 202.962 493.65 202.772 493.684C202.582 493.717 202.336 493.002 202.168 492.108C202.001 491.214 202.012 490.454 202.168 490.42Z" fill="#455A64"/>
<path d="M200.905 483.915C201.062 483.915 201.341 484.586 201.509 485.48C201.676 486.374 201.699 487.134 201.509 487.168C201.319 487.201 201.084 486.497 200.905 485.592C200.726 484.686 200.771 483.949 200.905 483.915Z" fill="#455A64"/>
<path d="M199.654 477.41C199.81 477.41 200.078 478.081 200.257 478.975C200.436 479.869 200.447 480.629 200.257 480.663C200.067 480.696 199.832 479.992 199.654 479.087C199.475 478.182 199.475 477.433 199.654 477.41Z" fill="#455A64"/>
<path d="M198.335 470.906C198.491 470.906 198.771 471.576 198.95 472.47C199.129 473.365 199.14 474.125 198.95 474.158C198.76 474.192 198.525 473.488 198.346 472.582C198.167 471.677 198.179 470.984 198.335 470.906Z" fill="#455A64"/>
<path d="M197.027 464.401C197.184 464.401 197.452 465.072 197.642 465.966C197.832 466.86 197.843 467.62 197.642 467.654C197.441 467.687 197.206 466.983 197.027 466.089C196.848 465.195 196.871 464.435 197.027 464.401Z" fill="#455A64"/>
<path d="M195.697 457.896C195.853 457.896 196.133 458.567 196.311 459.472C196.49 460.377 196.524 461.115 196.311 461.149C196.099 461.182 195.887 460.478 195.697 459.584C195.507 458.69 195.54 457.93 195.697 457.896Z" fill="#455A64"/>
<path d="M194.68 453.001C194.836 453.001 195.037 453.314 195.138 453.772C195.239 454.23 195.138 454.61 195.026 454.644C194.914 454.677 194.657 454.342 194.568 453.884C194.479 453.426 194.523 453.035 194.68 453.001Z" fill="#455A64"/>
<path d="M174.562 647.138C174.719 647.138 174.864 647.495 174.898 647.954C174.931 648.412 174.808 648.803 174.641 648.803C174.473 648.803 174.339 648.445 174.305 647.987C174.272 647.529 174.395 647.138 174.562 647.138Z" fill="#455A64"/>
<path d="M174.283 640.477C174.439 640.477 174.607 641.214 174.64 642.131C174.674 643.047 174.573 643.796 174.406 643.807C174.238 643.818 174.093 643.081 174.059 642.153C174.026 641.225 174.126 640.488 174.283 640.477Z" fill="#455A64"/>
<path d="M174.081 633.827C174.238 633.827 174.394 634.564 174.417 635.481C174.439 636.397 174.338 637.146 174.171 637.157C174.003 637.168 173.858 636.42 173.835 635.503C173.813 634.587 173.947 633.838 174.081 633.827Z" fill="#455A64"/>
<path d="M173.947 627.177C174.115 627.177 174.26 627.914 174.283 628.831C174.305 629.747 174.193 630.496 174.037 630.496C173.88 630.496 173.724 629.759 173.701 628.842C173.679 627.926 173.746 627.177 173.947 627.177Z" fill="#455A64"/>
<path d="M173.747 620.515C173.914 620.515 174.06 621.253 174.082 622.169C174.104 623.086 173.993 623.846 173.825 623.846C173.657 623.846 173.523 623.108 173.501 622.192C173.479 621.275 173.59 620.515 173.747 620.515Z" fill="#455A64"/>
<path d="M173.579 613.854C173.736 613.854 173.892 614.591 173.914 615.508C173.937 616.424 173.825 617.184 173.668 617.184C173.512 617.184 173.356 616.446 173.333 615.53C173.311 614.614 173.411 613.854 173.579 613.854Z" fill="#455A64"/>
<path d="M173.355 607.192C173.523 607.192 173.679 607.93 173.701 608.847C173.724 609.763 173.634 610.523 173.478 610.523C173.321 610.523 173.154 609.785 173.12 608.869C173.087 607.952 173.198 607.204 173.355 607.192Z" fill="#455A64"/>
<path d="M173.075 600.543C173.243 600.543 173.399 601.281 173.433 602.197C173.466 603.114 173.377 603.862 173.221 603.874C173.064 603.885 172.896 603.136 172.852 602.219C172.807 601.303 172.919 600.554 173.075 600.543Z" fill="#455A64"/>
<path d="M172.83 593.926C172.987 593.926 173.143 594.664 173.188 595.58C173.232 596.497 173.121 597.246 172.953 597.257C172.785 597.268 172.64 596.519 172.607 595.603C172.573 594.686 172.662 593.926 172.83 593.926Z" fill="#455A64"/>
<path d="M172.584 587.22C172.752 587.22 172.897 587.947 172.931 588.874C172.964 589.802 172.83 590.573 172.696 590.573C172.562 590.573 172.383 589.847 172.35 588.919C172.316 587.991 172.428 587.22 172.584 587.22Z" fill="#455A64"/>
<path d="M172.382 580.581C172.539 580.581 172.695 581.319 172.718 582.235C172.74 583.152 172.639 583.901 172.483 583.912C172.326 583.923 172.17 583.174 172.136 582.246C172.103 581.319 172.226 580.581 172.382 580.581Z" fill="#455A64"/>
<path d="M172.204 573.92C172.371 573.92 172.517 574.658 172.539 575.585C172.561 576.513 172.45 577.251 172.293 577.251C172.137 577.251 171.98 576.513 171.958 575.596C171.936 574.68 172.047 573.931 172.204 573.92Z" fill="#455A64"/>
<path d="M172.07 567.271C172.227 567.271 172.372 568.008 172.395 568.925C172.417 569.841 172.294 570.59 172.137 570.601C171.981 570.612 171.825 569.863 171.813 568.936C171.802 568.008 171.903 567.271 172.07 567.271Z" fill="#455A64"/>
<path d="M171.947 560.609C172.115 560.609 172.26 561.358 172.271 562.274C172.283 563.191 172.171 563.94 172.003 563.94C171.836 563.94 171.701 563.202 171.69 562.285C171.679 561.369 171.791 560.609 171.947 560.609Z" fill="#455A64"/>
<path d="M171.869 553.959C172.036 553.959 172.17 554.697 172.182 555.613C172.193 556.53 172.07 557.278 171.913 557.278C171.757 557.278 171.611 556.541 171.6 555.624C171.589 554.708 171.712 553.959 171.869 553.959Z" fill="#455A64"/>
<path d="M171.824 547.298C171.981 547.298 172.115 548.047 172.126 548.963C172.137 549.88 172.003 550.628 171.847 550.628C171.69 550.628 171.545 549.88 171.545 548.963C171.545 548.047 171.713 547.298 171.824 547.298Z" fill="#455A64"/>
<path d="M171.813 540.637C171.97 540.637 172.104 541.386 172.104 542.302C172.104 543.218 171.97 543.967 171.813 543.967C171.657 543.967 171.522 543.23 171.522 542.302C171.522 541.374 171.645 540.637 171.813 540.637Z" fill="#455A64"/>
<path d="M171.825 533.986C171.992 533.986 172.115 534.724 172.115 535.651C172.115 536.579 171.981 537.317 171.813 537.317C171.646 537.317 171.523 536.568 171.534 535.64C171.545 534.713 171.713 533.986 171.825 533.986Z" fill="#455A64"/>
<path d="M171.88 527.325C172.047 527.325 172.17 528.074 172.159 528.99C172.148 529.907 172.014 530.656 171.846 530.656C171.678 530.656 171.567 529.907 171.578 528.99C171.589 528.074 171.712 527.325 171.88 527.325Z" fill="#455A64"/>
<path d="M171.97 520.664C172.126 520.664 172.249 521.413 172.238 522.34C172.227 523.268 172.082 523.994 171.925 523.994C171.769 523.994 171.646 523.246 171.657 522.329C171.668 521.413 171.802 520.664 171.97 520.664Z" fill="#455A64"/>
<path d="M172.081 514.014C172.249 514.014 172.361 514.763 172.349 515.679C172.338 516.596 172.182 517.345 172.025 517.345C171.869 517.345 171.746 516.596 171.768 515.668C171.791 514.74 171.925 514.014 172.081 514.014Z" fill="#455A64"/>
<path d="M172.237 507.353C172.394 507.353 172.506 508.101 172.483 509.029C172.461 509.957 172.316 510.683 172.159 510.683C172.003 510.683 171.88 509.934 171.902 509.007C171.924 508.079 172.081 507.353 172.237 507.353Z" fill="#455A64"/>
<path d="M172.473 500.691C172.629 500.691 172.73 501.451 172.696 502.368C172.663 503.284 172.495 504.033 172.338 504.022C172.182 504.011 172.081 503.262 172.115 502.346C172.148 501.429 172.316 500.691 172.473 500.691Z" fill="#455A64"/>
<path d="M172.83 494.041C172.987 494.041 173.065 494.813 173.009 495.729C172.953 496.646 172.763 497.372 172.607 497.372C172.45 497.372 172.361 496.601 172.428 495.684C172.495 494.768 172.696 494.03 172.83 494.041Z" fill="#455A64"/>
<path d="M173.467 487.414C173.623 487.414 173.679 488.185 173.59 489.101C173.5 490.018 173.288 490.744 173.131 490.722C172.975 490.699 172.919 489.962 173.008 489.045C173.098 488.129 173.31 487.391 173.467 487.414Z" fill="#455A64"/>
<path d="M174.115 482.462C174.271 482.462 174.349 482.876 174.282 483.334C174.215 483.792 174.037 484.15 173.88 484.128C173.724 484.105 173.634 483.714 173.701 483.256C173.768 482.798 173.947 482.44 174.115 482.462Z" fill="#455A64"/>
<path d="M148.968 649.105L180.665 649.619L180.419 644.344L148.968 644.511V649.105Z" fill="#455A64"/>
<path d="M169.757 451C169.862 451.399 169.925 451.807 169.947 452.219C170.025 453.012 170.126 454.152 170.248 455.571C170.472 458.399 170.74 462.277 171.008 466.614C171.143 468.76 171.254 470.805 171.366 472.694C171.347 474.329 171.542 475.96 171.947 477.545C172.277 478.569 172.995 479.424 173.948 479.925C174.307 480.074 174.682 480.182 175.066 480.249C175.066 480.249 174.954 480.249 174.741 480.305C174.428 480.302 174.117 480.241 173.825 480.126C173.288 479.898 172.804 479.56 172.404 479.135C172.004 478.71 171.696 478.206 171.5 477.656C171.028 476.044 170.783 474.374 170.774 472.694C170.651 470.805 170.517 468.76 170.371 466.614C170.114 462.3 169.902 458.399 169.779 455.56C169.712 454.152 169.678 453.001 169.667 452.207C169.641 451.803 169.671 451.397 169.757 451Z" fill="#455A64"/>
<path d="M172.83 453.649C172.83 453.727 172.584 453.917 172.55 454.398C172.542 454.521 172.559 454.645 172.599 454.763C172.639 454.88 172.702 454.987 172.785 455.08C172.896 455.162 173.026 455.215 173.163 455.232C173.299 455.25 173.439 455.232 173.567 455.18C173.694 455.129 173.807 455.045 173.893 454.937C173.98 454.83 174.037 454.702 174.059 454.566C174.053 454.44 174.022 454.318 173.969 454.205C173.915 454.091 173.839 453.99 173.746 453.906C173.4 453.593 173.042 453.66 173.031 453.571C173.02 453.481 173.4 453.236 173.981 453.571C174.21 453.657 174.404 453.815 174.535 454.022C174.665 454.229 174.724 454.473 174.702 454.716C174.681 454.96 174.58 455.189 174.415 455.37C174.251 455.551 174.031 455.673 173.791 455.717C173.557 455.821 173.296 455.85 173.045 455.797C172.795 455.745 172.567 455.615 172.394 455.426C172.266 455.273 172.177 455.092 172.134 454.897C172.092 454.703 172.096 454.501 172.148 454.309C172.327 453.671 172.83 453.571 172.83 453.649Z" fill="#455A64"/>
<path d="M201.04 458.388C200.294 458.895 199.441 459.22 198.547 459.338C196.397 459.755 194.17 459.506 192.166 458.623C190.167 457.724 188.496 456.229 187.382 454.342C186.87 453.598 186.541 452.744 186.421 451.85C186.521 451.85 186.823 452.788 187.729 454.085C188.873 455.831 190.494 457.212 192.4 458.064C194.306 458.915 196.416 459.203 198.48 458.891C200.067 458.69 201.006 458.287 201.04 458.388Z" fill="#455A64"/>
<path d="M151.193 451C151.339 451.721 151.301 452.467 151.081 453.168C150.68 454.909 149.74 456.478 148.396 457.654C147.052 458.83 145.371 459.552 143.593 459.718C142.87 459.851 142.126 459.789 141.436 459.539C141.436 459.45 142.263 459.539 143.537 459.316C145.189 459.031 146.734 458.305 148.007 457.214C149.251 456.091 150.173 454.655 150.679 453.057C151.07 451.816 151.092 451 151.193 451Z" fill="#455A64"/>
<path d="M189.997 357.967C187.37 357.029 184.615 356.501 181.827 356.402C175.408 358.43 168.52 358.43 162.101 356.402C156.047 356.949 150.059 358.071 144.218 359.755L119.183 366.506L127.375 397.219L142.486 392.122C142.486 392.122 134.215 449.179 134.36 455.561L200.693 451.19L198.156 419.628L197.318 392.234L216.318 395.721L229.082 370.25" fill="#BC3C50"/>
<path d="M184.442 356.302C184.442 356.302 184.174 356.547 183.626 356.894C182.845 357.376 182.027 357.795 181.179 358.146C179.927 358.689 178.629 359.119 177.3 359.431C175.669 359.797 174.008 360.014 172.338 360.079C170.665 360.117 168.992 359.993 167.342 359.71C165.998 359.478 164.678 359.127 163.397 358.66C162.53 358.356 161.689 357.982 160.882 357.542C160.573 357.403 160.283 357.222 160.021 357.006C160.021 356.916 161.34 357.576 163.52 358.269C164.799 358.672 166.106 358.978 167.432 359.185C169.048 359.426 170.682 359.53 172.316 359.498C173.95 359.433 175.576 359.235 177.178 358.906C178.484 358.626 179.769 358.253 181.022 357.788C183.168 356.983 184.398 356.212 184.442 356.302Z" fill="#263238"/>
<path d="M174.864 384.679C175.204 384.626 175.548 384.607 175.892 384.623L178.91 384.556L189.829 384.422H190.086V384.679C190.086 386.724 190.086 388.926 190.086 391.262C190.086 392.435 190.086 393.609 190.086 394.872C189.973 396.537 189.324 398.122 188.236 399.389C187.148 400.656 185.68 401.537 184.051 401.902C182.294 402.3 180.452 402.071 178.846 401.254C177.24 400.438 175.97 399.085 175.255 397.431C174.958 396.717 174.766 395.965 174.685 395.196C174.647 394.496 174.647 393.794 174.685 393.095C174.685 390.524 174.763 388.423 174.797 386.858C174.797 386.199 174.797 385.651 174.797 385.204C174.783 385.022 174.783 384.839 174.797 384.656C174.815 384.865 174.815 385.074 174.797 385.282C174.797 385.74 174.797 386.299 174.797 386.992C174.797 388.523 174.864 390.602 174.909 393.139C174.909 393.776 174.909 394.458 174.987 395.14C175.076 395.853 175.268 396.55 175.557 397.208C176.241 398.739 177.434 399.986 178.934 400.738C180.433 401.49 182.146 401.7 183.783 401.332C185.29 400.988 186.646 400.169 187.653 398.996C188.659 397.823 189.261 396.358 189.371 394.816C189.427 393.631 189.371 392.402 189.371 391.239C189.371 388.903 189.371 386.702 189.371 384.656L189.617 384.913L178.865 384.779L175.781 384.712C175.475 384.715 175.169 384.704 174.864 384.679Z" fill="#263238"/>
<path d="M189.349 387.048C189.349 387.048 189.505 386.981 189.807 386.959V387.16C188.79 387.272 185.951 387.35 182.598 387.35C180.043 387.45 177.483 387.353 174.942 387.059C177.484 386.772 180.043 386.675 182.598 386.769C185.951 386.769 188.79 386.858 189.807 386.97V387.16C189.505 387.16 189.349 387.082 189.349 387.048Z" fill="#263238"/>
<path d="M227.304 369.836C227.194 370.202 227.036 370.551 226.834 370.876L225.359 373.592L220.576 382.533L215.893 391.541L214.473 394.268C214.321 394.614 214.121 394.938 213.881 395.229C213.962 394.861 214.09 394.504 214.261 394.168C214.551 393.497 214.976 392.536 215.524 391.351C216.641 388.993 218.206 385.763 220.061 382.253C221.917 378.744 223.683 375.614 225.002 373.379C225.661 372.261 226.22 371.356 226.611 370.753C226.804 370.42 227.037 370.112 227.304 369.836Z" fill="#263238"/>
<path d="M131.476 395.609C131.254 395.261 131.078 394.885 130.951 394.492C130.638 393.765 130.213 392.703 129.71 391.396C128.693 388.758 127.363 385.092 125.999 381.013C124.636 376.933 123.507 373.189 122.747 370.473C122.356 369.121 122.065 368.014 121.875 367.254C121.743 366.865 121.664 366.458 121.641 366.047C121.836 366.4 121.986 366.775 122.088 367.165L123.138 370.339C124.055 373.144 125.239 376.788 126.558 380.8L130.09 391.228C130.515 392.469 130.872 393.531 131.208 394.391C131.35 394.784 131.441 395.193 131.476 395.609Z" fill="#263238"/>
<path d="M201.039 448.34C201.039 448.497 186.275 449.458 168.046 450.576C149.817 451.693 135.019 452.397 135.008 452.241C134.997 452.084 149.772 451.067 168.012 450.006C186.252 448.944 201.028 448.184 201.039 448.34Z" fill="#263238"/>
<defs>
<filter id="filter0_d_107_30106" x="0" y="0" width="400" height="400" filterUnits="userSpaceOnUse" color-interpolation-filters="sRGB">
<feFlood flood-opacity="0" result="BackgroundImageFix"/>
<feColorMatrix in="SourceAlpha" type="matrix" values="0 0 0 0 0 0 0 0 0 0 0 0 0 0 0 0 0 0 127 0" result="hardAlpha"/>
<feOffset/>
<feGaussianBlur stdDeviation="25"/>
<feComposite in2="hardAlpha" operator="out"/>
<feColorMatrix type="matrix" values="0 0 0 0 0 0 0 0 0 0 0 0 0 0 0 0 0 0 0.25 0"/>
<feBlend mode="normal" in2="BackgroundImageFix" result="effect1_dropShadow_107_30106"/>
<feBlend mode="normal" in="SourceGraphic" in2="effect1_dropShadow_107_30106" result="shape"/>
</filter>
<filter id="filter1_d_107_30106" x="160" y="162" width="400" height="400" filterUnits="userSpaceOnUse" color-interpolation-filters="sRGB">
<feFlood flood-opacity="0" result="BackgroundImageFix"/>
<feColorMatrix in="SourceAlpha" type="matrix" values="0 0 0 0 0 0 0 0 0 0 0 0 0 0 0 0 0 0 127 0" result="hardAlpha"/>
<feOffset/>
<feGaussianBlur stdDeviation="25"/>
<feComposite in2="hardAlpha" operator="out"/>
<feColorMatrix type="matrix" values="0 0 0 0 0 0 0 0 0 0 0 0 0 0 0 0 0 0 0.25 0"/>
<feBlend mode="normal" in2="BackgroundImageFix" result="effect1_dropShadow_107_30106"/>
<feBlend mode="normal" in="SourceGraphic" in2="effect1_dropShadow_107_30106" result="shape"/>
</filter>
<filter id="filter2_d_107_30106" x="320" y="322" width="400" height="400" filterUnits="userSpaceOnUse" color-interpolation-filters="sRGB">
<feFlood flood-opacity="0" result="BackgroundImageFix"/>
<feColorMatrix in="SourceAlpha" type="matrix" values="0 0 0 0 0 0 0 0 0 0 0 0 0 0 0 0 0 0 127 0" result="hardAlpha"/>
<feOffset/>
<feGaussianBlur stdDeviation="25"/>
<feComposite in2="hardAlpha" operator="out"/>
<feColorMatrix type="matrix" values="0 0 0 0 0 0 0 0 0 0 0 0 0 0 0 0 0 0 0.25 0"/>
<feBlend mode="normal" in2="BackgroundImageFix" result="effect1_dropShadow_107_30106"/>
<feBlend mode="normal" in="SourceGraphic" in2="effect1_dropShadow_107_30106" result="shape"/>
</filter>
<linearGradient id="paint0_linear_107_30106" x1="119.404" y1="131.818" x2="282.612" y2="132.804" gradientUnits="userSpaceOnUse">
<stop stop-color="#FFD956"/>
<stop offset="1" stop-color="#F18956"/>
</linearGradient>
<linearGradient id="paint1_linear_107_30106" x1="200.637" y1="289.816" x2="200.637" y2="111.458" gradientUnits="userSpaceOnUse">
<stop stop-color="#25CF43"/>
<stop offset="1" stop-color="#61FD7D"/>
</linearGradient>
<linearGradient id="paint2_linear_107_30106" x1="279.404" y1="293.818" x2="442.612" y2="294.804" gradientUnits="userSpaceOnUse">
<stop stop-color="#FFD956"/>
<stop offset="1" stop-color="#F18956"/>
</linearGradient>
<radialGradient id="paint3_radial_107_30106" cx="0" cy="0" r="1" gradientUnits="userSpaceOnUse" gradientTransform="translate(331.022 433.341) rotate(-90) scale(122.533 113.96)">
<stop stop-color="#FFDD55"/>
<stop offset="0.1" stop-color="#FFAA55"/>
<stop offset="0.5" stop-color="#FF543E"/>
<stop offset="1" stop-color="#C837AB"/>
</radialGradient>
<radialGradient id="paint4_radial_107_30106" cx="0" cy="0" r="1" gradientUnits="userSpaceOnUse" gradientTransform="translate(277.474 309.089) rotate(78.6811) scale(54.7726 225.766)">
<stop stop-color="#3771C8"/>
<stop offset="0.128" stop-color="#3771C8"/>
<stop offset="1" stop-color="#6600FF" stop-opacity="0"/>
</radialGradient>
<linearGradient id="paint5_linear_107_30106" x1="439.404" y1="453.818" x2="602.612" y2="454.804" gradientUnits="userSpaceOnUse">
<stop stop-color="#FFD956"/>
<stop offset="1" stop-color="#F18956"/>
</linearGradient>
</defs>
</svg>
