<svg width="1728" height="466" viewBox="0 0 1728 466" fill="none" xmlns="http://www.w3.org/2000/svg">
<mask id="mask0_109_3838" style="mask-type:alpha" maskUnits="userSpaceOnUse" x="-5" y="0" width="1735" height="466">
<rect x="-5" width="1735" height="466" fill="url(#paint0_linear_109_3838)"/>
</mask>
<g mask="url(#mask0_109_3838)">
<path fill-rule="evenodd" clip-rule="evenodd" d="M115.388 234.607C115.388 254.12 105.547 271.806 89.5927 284.708C135.451 292.863 172.85 318.807 189.701 352.942C201.241 348.671 214.111 346.287 227.682 346.287C258.972 346.287 286.534 358.963 302.671 378.201C318.124 368.29 337.788 362.356 359.198 362.356C401.978 362.356 437.789 386.05 446.96 417.816C447.716 417.801 448.475 417.794 449.236 417.794C498.962 417.794 539.274 449.808 539.274 489.301C539.274 528.793 498.962 560.807 449.236 560.807C406.456 560.807 370.645 537.113 361.474 505.347C360.718 505.362 359.959 505.37 359.198 505.37C327.908 505.37 300.346 492.694 284.21 473.455C268.756 483.366 249.092 489.301 227.682 489.301C202.629 489.301 179.966 481.174 163.643 468.059C137.892 490.956 100.432 505.37 58.7343 505.37C-18.9286 505.37 -81.8867 455.369 -81.8867 393.69C-81.8867 353.476 -55.1229 318.225 -14.9696 298.562C-44.4525 286.815 -64.6882 262.588 -64.6882 234.607C-64.6882 195.115 -24.3769 163.101 25.3497 163.101C75.0762 163.101 115.388 195.115 115.388 234.607ZM743.448 531.541C727.063 549.286 700.621 560.807 670.79 560.807C621.063 560.807 580.752 528.793 580.752 489.301C580.752 449.808 621.063 417.794 670.79 417.794C683.239 417.794 695.099 419.8 705.883 423.429C723.004 387.724 766.512 362.356 817.481 362.356C837.117 362.356 855.646 366.121 871.985 372.792C883.969 330.486 931.563 298.883 988.452 298.883C1046.21 298.883 1094.39 331.461 1105.44 374.743C1110.23 372.576 1115.22 370.665 1120.39 369.032C1118.13 361.745 1116.93 354.127 1116.93 346.287C1116.93 293.926 1170.38 251.48 1236.31 251.48C1302.24 251.48 1355.69 293.926 1355.69 346.287C1355.69 347.188 1355.67 348.086 1355.64 348.981C1364.73 347.22 1374.23 346.287 1384.01 346.287C1402.62 346.287 1420.23 349.668 1435.93 355.699C1458.87 307.918 1517.11 273.976 1585.33 273.976C1601.87 273.976 1617.82 275.971 1632.83 279.674C1647.85 252.209 1682.3 233.001 1722.41 233.001C1776.33 233.001 1820.04 267.713 1820.04 310.533C1820.04 347.433 1787.58 378.312 1744.1 386.145C1744.81 390.993 1745.17 395.923 1745.17 400.921C1745.17 471.031 1673.61 527.866 1585.33 527.866C1545.27 527.866 1508.65 516.161 1480.6 496.821C1458.9 520.505 1423.72 535.901 1384.01 535.901C1338.25 535.901 1298.5 515.448 1278.46 485.425C1263.32 523.982 1218.02 551.97 1164.48 551.97C1106.72 551.97 1058.54 519.392 1047.49 476.11C1030.08 483.993 1009.93 488.497 988.452 488.497C968.816 488.497 950.286 484.732 933.947 478.061C921.963 520.367 874.369 551.97 817.481 551.97C789.515 551.97 763.795 544.332 743.448 531.541Z" fill="#455A64"/>
</g>
<defs>
<linearGradient id="paint0_linear_109_3838" x1="-4.99983" y1="4.08447" x2="714.231" y2="1123.01" gradientUnits="userSpaceOnUse">
<stop stop-color="#CF4258"/>
<stop offset="1" stop-color="#F38D56"/>
</linearGradient>
</defs>
</svg>
