<svg width="1491" height="2928" viewBox="0 0 1491 2928" fill="none" xmlns="http://www.w3.org/2000/svg">
<g opacity="0.4">
<path d="M1236.72 1128.15L1253.74 1131.29L1257.54 1149.26L1261.31 1131.29L1278.37 1128.15L1261.4 1124L1257.54 1107.07L1253.65 1124L1236.72 1128.15Z" fill="#FCFCFC"/>
<path d="M545.585 1227.28L562.603 1230.42L566.413 1248.35L570.222 1230.42L587.241 1227.28L570.305 1223.13L566.413 1206.16L562.521 1223.13L545.585 1227.28Z" fill="#FCFCFC"/>
<path d="M1055.14 826.591L1072.16 829.738L1075.97 847.709L1079.78 829.738L1096.8 826.591L1079.82 822.45L1075.97 805.515L1072.08 822.45L1055.14 826.591Z" fill="#FCFCFC"/>
<path d="M1467.73 1014.75L1477.21 1016.49L1479.36 1026.55L1481.48 1016.49L1491 1014.75L1481.52 1012.43L1479.36 1002.94L1477.17 1012.43L1467.73 1014.75Z" fill="#FCFCFC"/>
<path d="M1177.63 1346.2L1187.11 1347.98L1189.26 1358L1191.38 1347.98L1200.9 1346.2L1191.42 1343.88L1189.26 1334.44L1187.07 1343.88L1177.63 1346.2Z" fill="#FCFCFC"/>
<path d="M1265.5 551.396L1275.02 553.177L1277.13 563.198L1279.28 553.177L1288.81 551.396L1279.33 549.078L1277.13 539.637L1274.98 549.078L1265.5 551.396Z" fill="#FCFCFC"/>
<path d="M606.164 1315.56L615.688 1317.3L617.841 1327.32L619.953 1317.3L629.476 1315.56L619.994 1313.24L617.841 1303.76L615.646 1313.24L606.164 1315.56Z" fill="#FCFCFC"/>
<path d="M189.604 1364.29L199.128 1366.03L201.24 1376.05L203.393 1366.03L212.917 1364.29L203.435 1361.97L201.24 1352.49L199.087 1361.97L189.604 1364.29Z" fill="#FCFCFC"/>
<path d="M1228.77 805.515L1238.29 807.254L1240.44 817.316L1242.56 807.254L1252.08 805.515L1242.6 803.196L1240.44 793.714L1238.25 803.196L1228.77 805.515Z" fill="#FCFCFC"/>
<path d="M1016.18 229.645L1025.7 231.384L1027.82 241.447L1029.93 231.384L1039.45 229.645L1029.97 227.327L1027.82 217.844L1025.66 227.327L1016.18 229.645Z" fill="#FCFCFC"/>
<path d="M1017.42 595.289L1026.95 597.069L1029.06 607.09L1031.17 597.069L1040.69 595.289L1031.21 592.97L1029.06 583.488L1026.91 592.97L1017.42 595.289Z" fill="#FCFCFC"/>
<path d="M1206.16 1458.29C1206.83 1458.37 1207.45 1458.69 1207.9 1459.2C1208.35 1459.71 1208.59 1460.36 1208.59 1461.04C1208.59 1461.72 1208.35 1462.37 1207.9 1462.88C1207.45 1463.39 1206.83 1463.71 1206.16 1463.79C1205.49 1463.71 1204.87 1463.39 1204.42 1462.88C1203.97 1462.37 1203.72 1461.72 1203.72 1461.04C1203.72 1460.36 1203.97 1459.71 1204.42 1459.2C1204.87 1458.69 1205.49 1458.37 1206.16 1458.29Z" fill="#FCFCFC"/>
<path d="M1126.08 764.521C1126.75 764.603 1127.37 764.929 1127.82 765.436C1128.26 765.943 1128.51 766.597 1128.51 767.274C1128.51 767.951 1128.26 768.605 1127.82 769.112C1127.37 769.62 1126.75 769.945 1126.08 770.028C1125.4 769.945 1124.78 769.62 1124.34 769.112C1123.89 768.605 1123.64 767.951 1123.64 767.274C1123.64 766.597 1123.89 765.943 1124.34 765.436C1124.78 764.929 1125.4 764.603 1126.08 764.521Z" fill="#FCFCFC"/>
<path d="M414.24 1146.62C414.912 1146.7 415.531 1147.02 415.979 1147.53C416.428 1148.04 416.676 1148.69 416.676 1149.37C416.676 1150.05 416.428 1150.7 415.979 1151.21C415.531 1151.71 414.912 1152.04 414.24 1152.12C413.568 1152.04 412.949 1151.71 412.5 1151.21C412.051 1150.7 411.804 1150.05 411.804 1149.37C411.804 1148.69 412.051 1148.04 412.5 1147.53C412.949 1147.02 413.568 1146.7 414.24 1146.62Z" fill="#FCFCFC"/>
<path d="M1186.61 1031.87C1187.29 1031.96 1187.9 1032.28 1188.35 1032.79C1188.8 1033.3 1189.05 1033.95 1189.05 1034.63C1189.05 1035.3 1188.8 1035.96 1188.35 1036.46C1187.9 1036.97 1187.29 1037.3 1186.61 1037.38C1185.94 1037.3 1185.32 1036.97 1184.87 1036.46C1184.43 1035.96 1184.18 1035.3 1184.18 1034.63C1184.18 1033.95 1184.43 1033.3 1184.87 1032.79C1185.32 1032.28 1185.94 1031.96 1186.61 1031.87Z" fill="#FCFCFC"/>
<path d="M1275.27 1408.68C1275.78 1408.68 1276.28 1408.89 1276.64 1409.25C1277.01 1409.62 1277.21 1410.11 1277.21 1410.63C1277.21 1411.14 1277.01 1411.64 1276.64 1412C1276.28 1412.37 1275.78 1412.57 1275.27 1412.57C1274.75 1412.57 1274.26 1412.37 1273.89 1412C1273.53 1411.64 1273.32 1411.14 1273.32 1410.63C1273.32 1410.11 1273.53 1409.62 1273.89 1409.25C1274.26 1408.89 1274.75 1408.68 1275.27 1408.68Z" fill="#FCFCFC"/>
<path d="M1277.21 375.855C1277.69 375.924 1278.12 376.161 1278.43 376.522C1278.74 376.883 1278.91 377.345 1278.91 377.822C1278.91 378.3 1278.74 378.761 1278.43 379.123C1278.12 379.484 1277.69 379.72 1277.21 379.789C1276.74 379.72 1276.31 379.484 1276 379.123C1275.68 378.761 1275.51 378.3 1275.51 377.822C1275.51 377.345 1275.68 376.883 1276 376.522C1276.31 376.161 1276.74 375.924 1277.21 375.855Z" fill="#FCFCFC"/>
<path d="M1078.25 977.479C1078.77 977.479 1079.26 977.684 1079.63 978.049C1079.99 978.414 1080.2 978.909 1080.2 979.425C1080.2 979.941 1079.99 980.436 1079.63 980.801C1079.26 981.166 1078.77 981.371 1078.25 981.371C1077.73 981.371 1077.24 981.166 1076.87 980.801C1076.51 980.436 1076.3 979.941 1076.3 979.425C1076.3 978.909 1076.51 978.414 1076.87 978.049C1077.24 977.684 1077.73 977.479 1078.25 977.479Z" fill="#FCFCFC"/>
<path d="M952.786 947.294C954.106 947.411 955.334 948.018 956.228 948.995C957.122 949.972 957.618 951.249 957.618 952.573C957.618 953.898 957.122 955.175 956.228 956.152C955.334 957.129 954.106 957.736 952.786 957.853C951.467 957.736 950.239 957.129 949.345 956.152C948.45 955.175 947.954 953.898 947.954 952.573C947.954 951.249 948.45 949.972 949.345 948.995C950.239 948.018 951.467 947.411 952.786 947.294Z" fill="#FCFCFC"/>
<path d="M77.1006 232.337L94.1191 235.484L97.9285 253.413L101.738 235.484L118.756 232.295L101.821 228.154L97.9285 211.219L94.0362 228.154L77.1006 232.337Z" fill="#FCFCFC"/>
<path d="M438.919 11.8011L448.443 13.5402L450.554 23.6023L452.708 13.5402L462.19 11.8011L452.749 9.48231L450.554 0L448.401 9.48231L438.919 11.8011Z" fill="#FCFCFC"/>
<path d="M466.041 351.26C466.714 351.343 467.332 351.668 467.781 352.176C468.23 352.683 468.477 353.337 468.477 354.014C468.477 354.691 468.23 355.345 467.781 355.852C467.332 356.359 466.714 356.685 466.041 356.767C465.369 356.685 464.751 356.359 464.302 355.852C463.853 355.345 463.605 354.691 463.605 354.014C463.605 353.337 463.853 352.683 464.302 352.176C464.751 351.668 465.369 351.343 466.041 351.26Z" fill="#FCFCFC"/>
<path d="M166.292 1321.35C166.965 1321.43 167.583 1321.76 168.032 1322.27C168.481 1322.77 168.728 1323.43 168.728 1324.11C168.728 1324.78 168.481 1325.44 168.032 1325.94C167.583 1326.45 166.965 1326.78 166.292 1326.86C165.62 1326.78 165.002 1326.45 164.553 1325.94C164.104 1325.44 163.856 1324.78 163.856 1324.11C163.856 1323.43 164.104 1322.77 164.553 1322.27C165.002 1321.76 165.62 1321.43 166.292 1321.35Z" fill="#FCFCFC"/>
<path d="M237.306 734.501C237.978 734.584 238.597 734.909 239.046 735.416C239.494 735.924 239.742 736.577 239.742 737.255C239.742 737.932 239.494 738.586 239.046 739.093C238.597 739.6 237.978 739.926 237.306 740.008C236.634 739.926 236.015 739.6 235.567 739.093C235.118 738.586 234.87 737.932 234.87 737.255C234.87 736.577 235.118 735.924 235.567 735.416C236.015 734.909 236.634 734.584 237.306 734.501Z" fill="#FCFCFC"/>
<path d="M346.456 1103.3C346.972 1103.3 347.467 1103.51 347.832 1103.87C348.197 1104.24 348.402 1104.73 348.402 1105.25C348.402 1105.76 348.197 1106.26 347.832 1106.62C347.467 1106.99 346.972 1107.19 346.456 1107.19C345.94 1107.19 345.445 1106.99 345.08 1106.62C344.715 1106.26 344.51 1105.76 344.51 1105.25C344.51 1104.73 344.715 1104.24 345.08 1103.87C345.445 1103.51 345.94 1103.3 346.456 1103.3Z" fill="#FCFCFC"/>
<path d="M871.379 1266.24C871.895 1266.24 872.39 1266.45 872.755 1266.81C873.12 1267.18 873.325 1267.67 873.325 1268.19C873.325 1268.7 873.12 1269.2 872.755 1269.56C872.39 1269.93 871.895 1270.13 871.379 1270.13C870.863 1270.13 870.368 1269.93 870.003 1269.56C869.638 1269.2 869.433 1268.7 869.433 1268.19C869.433 1267.67 869.638 1267.18 870.003 1266.81C870.368 1266.45 870.863 1266.24 871.379 1266.24Z" fill="#FCFCFC"/>
<path d="M1072.12 386.373C1072.64 386.373 1073.13 386.578 1073.5 386.943C1073.86 387.308 1074.07 387.803 1074.07 388.319C1074.07 388.835 1073.86 389.33 1073.5 389.695C1073.13 390.06 1072.64 390.265 1072.12 390.265C1071.61 390.265 1071.11 390.06 1070.75 389.695C1070.38 389.33 1070.18 388.835 1070.18 388.319C1070.18 387.803 1070.38 387.308 1070.75 386.943C1071.11 386.578 1071.61 386.373 1072.12 386.373Z" fill="#FCFCFC"/>
<path d="M686.163 1006.42C687.483 1006.54 688.711 1007.15 689.605 1008.12C690.499 1009.1 690.995 1010.38 690.995 1011.7C690.995 1013.03 690.499 1014.3 689.605 1015.28C688.711 1016.26 687.483 1016.87 686.163 1016.98C684.844 1016.87 683.616 1016.26 682.722 1015.28C681.827 1014.3 681.331 1013.03 681.331 1011.7C681.331 1010.38 681.827 1009.1 682.722 1008.12C683.616 1007.15 684.844 1006.54 686.163 1006.42Z" fill="#FCFCFC"/>
<path d="M1260.15 398.796C1261.56 398.796 1262.91 399.354 1263.9 400.348C1264.9 401.342 1265.45 402.69 1265.45 404.096C1265.45 405.502 1264.9 406.85 1263.9 407.844C1262.91 408.838 1261.56 409.396 1260.15 409.396C1258.75 409.396 1257.4 408.838 1256.41 407.844C1255.41 406.85 1254.85 405.502 1254.85 404.096C1254.85 402.69 1255.41 401.342 1256.41 400.348C1257.4 399.354 1258.75 398.796 1260.15 398.796Z" fill="#FCFCFC"/>
<path d="M28.4054 1098C29.7249 1098.12 30.9528 1098.72 31.8471 1099.7C32.7415 1100.68 33.2376 1101.96 33.2376 1103.28C33.2376 1104.61 32.7415 1105.88 31.8471 1106.86C30.9528 1107.84 29.7249 1108.44 28.4054 1108.56C27.0859 1108.44 25.858 1107.84 24.9637 1106.86C24.0693 1105.88 23.5732 1104.61 23.5732 1103.28C23.5732 1101.96 24.0693 1100.68 24.9637 1099.7C25.858 1098.72 27.0859 1098.12 28.4054 1098Z" fill="#FCFCFC"/>
<path d="M402.439 552.929L411.922 554.668L414.075 564.73L416.187 554.668L425.71 552.929L416.228 550.61L414.075 541.128L411.922 550.61L402.439 552.929Z" fill="#FCFCFC"/>
<path d="M848.107 1161.07L857.631 1162.8L859.743 1172.82L861.855 1162.8L871.378 1161.07L861.896 1158.75L859.743 1149.26L857.59 1158.75L848.107 1161.07Z" fill="#FCFCFC"/>
<path d="M1073.7 1324.67C1074.37 1324.75 1074.99 1325.07 1075.44 1325.58C1075.88 1326.09 1076.13 1326.74 1076.13 1327.42C1076.13 1328.1 1075.88 1328.75 1075.44 1329.26C1074.99 1329.77 1074.37 1330.09 1073.7 1330.17C1073.02 1330.09 1072.4 1329.77 1071.96 1329.26C1071.51 1328.75 1071.26 1328.1 1071.26 1327.42C1071.26 1326.74 1071.51 1326.09 1071.96 1325.58C1072.4 1325.07 1073.02 1324.75 1073.7 1324.67Z" fill="#FCFCFC"/>
<path d="M1157.42 1176.01C1158.09 1176.1 1158.71 1176.42 1159.16 1176.93C1159.61 1177.44 1159.86 1178.09 1159.86 1178.77C1159.86 1179.44 1159.61 1180.1 1159.16 1180.6C1158.71 1181.11 1158.09 1181.44 1157.42 1181.52C1156.75 1181.44 1156.13 1181.11 1155.68 1180.6C1155.23 1180.1 1154.99 1179.44 1154.99 1178.77C1154.99 1178.09 1155.23 1177.44 1155.68 1176.93C1156.13 1176.42 1156.75 1176.1 1157.42 1176.01Z" fill="#FCFCFC"/>
<path d="M1373.4 1291.96L1382.93 1293.69L1385.08 1303.76L1387.19 1293.69L1396.71 1291.96L1387.23 1289.64L1385.08 1280.15L1382.88 1289.64L1373.4 1291.96Z" fill="#FCFCFC"/>
<path d="M1083.84 437.18C1084.58 437.18 1085.28 437.472 1085.8 437.993C1086.32 438.513 1086.61 439.219 1086.61 439.954C1086.61 440.69 1086.32 441.396 1085.8 441.916C1085.28 442.437 1084.58 442.729 1083.84 442.729C1083.1 442.729 1082.4 442.437 1081.88 441.916C1081.36 441.396 1081.07 440.69 1081.07 439.954C1081.07 439.219 1081.36 438.513 1081.88 437.993C1082.4 437.472 1083.1 437.18 1083.84 437.18Z" fill="#FCFCFC"/>
<path d="M1275.52 1184.71C1276.03 1184.71 1276.53 1184.92 1276.89 1185.28C1277.26 1185.65 1277.46 1186.14 1277.46 1186.66C1277.46 1187.17 1277.26 1187.67 1276.89 1188.03C1276.53 1188.4 1276.03 1188.6 1275.52 1188.6C1275 1188.6 1274.5 1188.4 1274.14 1188.03C1273.77 1187.67 1273.57 1187.17 1273.57 1186.66C1273.57 1186.14 1273.77 1185.65 1274.14 1185.28C1274.5 1184.92 1275 1184.71 1275.52 1184.71Z" fill="#FCFCFC"/>
<path d="M276.312 854.416L285.836 856.155L287.948 866.176L290.06 856.155L299.583 854.375L290.101 852.097L287.948 842.615L285.795 852.097L276.312 854.416Z" fill="#FCFCFC"/>
<path d="M0 627.379L9.52373 629.159L11.6355 639.18L13.7473 629.159L23.271 627.379L13.7887 625.06L11.6355 615.578L9.48231 625.06L0 627.379Z" fill="#FCFCFC"/>
<path d="M493.535 322.813L503.059 324.594L505.212 334.614L507.324 324.594L516.848 322.813L507.365 320.495L505.212 311.012L503.018 320.495L493.535 322.813Z" fill="#FCFCFC"/>
<path d="M166.292 1006.18C166.965 1006.26 167.583 1006.58 168.032 1007.09C168.481 1007.6 168.728 1008.25 168.728 1008.93C168.728 1009.61 168.481 1010.26 168.032 1010.77C167.583 1011.27 166.965 1011.6 166.292 1011.68C165.62 1011.6 165.002 1011.27 164.553 1010.77C164.104 1010.26 163.856 1009.61 163.856 1008.93C163.856 1008.25 164.104 1007.6 164.553 1007.09C165.002 1006.58 165.62 1006.26 166.292 1006.18Z" fill="#FCFCFC"/>
<path d="M460.7 884.934C461.372 885.016 461.991 885.342 462.439 885.849C462.888 886.356 463.136 887.01 463.136 887.687C463.136 888.364 462.888 889.018 462.439 889.525C461.991 890.033 461.372 890.358 460.7 890.441C460.028 890.358 459.409 890.033 458.96 889.525C458.511 889.018 458.264 888.364 458.264 887.687C458.264 887.01 458.511 886.356 458.96 885.849C459.409 885.342 460.028 885.016 460.7 884.934Z" fill="#FCFCFC"/>
<path d="M400.741 499.25C401.257 499.25 401.752 499.455 402.117 499.819C402.482 500.184 402.687 500.68 402.687 501.196C402.687 501.712 402.482 502.207 402.117 502.572C401.752 502.937 401.257 503.142 400.741 503.142C400.225 503.142 399.73 502.937 399.365 502.572C399 502.207 398.795 501.712 398.795 501.196C398.795 500.68 399 500.184 399.365 499.819C399.73 499.455 400.225 499.25 400.741 499.25Z" fill="#FCFCFC"/>
<path d="M97.9279 698.932C99.2474 699.049 100.475 699.656 101.37 700.633C102.264 701.61 102.76 702.887 102.76 704.212C102.76 705.536 102.264 706.813 101.37 707.79C100.475 708.767 99.2474 709.374 97.9279 709.491C96.6084 709.374 95.3805 708.767 94.4861 707.79C93.5918 706.813 93.0957 705.536 93.0957 704.212C93.0957 702.887 93.5918 701.61 94.4861 700.633C95.3805 699.656 96.6084 699.049 97.9279 698.932Z" fill="#FCFCFC"/>
<path d="M1442.1 627.379C1443.42 627.496 1444.65 628.103 1445.54 629.08C1446.43 630.057 1446.93 631.334 1446.93 632.658C1446.93 633.983 1446.43 635.26 1445.54 636.237C1444.65 637.214 1443.42 637.821 1442.1 637.938C1440.78 637.821 1439.55 637.214 1438.66 636.237C1437.76 635.26 1437.27 633.983 1437.27 632.658C1437.27 631.334 1437.76 630.057 1438.66 629.08C1439.55 628.103 1440.78 627.496 1442.1 627.379Z" fill="#FCFCFC"/>
<path d="M329.272 532.142C330.678 532.142 332.026 532.7 333.02 533.694C334.014 534.688 334.572 536.037 334.572 537.442C334.572 538.848 334.014 540.196 333.02 541.19C332.026 542.184 330.678 542.742 329.272 542.742C327.866 542.742 326.518 542.184 325.524 541.19C324.53 540.196 323.972 538.848 323.972 537.442C323.972 536.037 324.53 534.688 325.524 533.694C326.518 532.7 327.866 532.142 329.272 532.142Z" fill="#FCFCFC"/>
<path d="M1236.72 2591.94L1253.74 2595.09L1257.54 2613.06L1261.31 2595.09L1278.37 2591.94L1261.4 2587.8L1257.54 2570.86L1253.65 2587.8L1236.72 2591.94Z" fill="#FCFCFC"/>
<path d="M545.585 2691.07L562.603 2694.22L566.413 2712.15L570.222 2694.22L587.241 2691.07L570.305 2686.93L566.413 2669.95L562.521 2686.93L545.585 2691.07Z" fill="#FCFCFC"/>
<path d="M1055.14 2290.39L1072.16 2293.53L1075.97 2311.5L1079.78 2293.53L1096.8 2290.39L1079.82 2286.24L1075.97 2269.31L1072.08 2286.24L1055.14 2290.39Z" fill="#FCFCFC"/>
<path d="M1467.73 2478.54L1477.21 2480.28L1479.36 2490.34L1481.48 2480.28L1491 2478.54L1481.52 2476.22L1479.36 2466.74L1477.17 2476.22L1467.73 2478.54Z" fill="#FCFCFC"/>
<path d="M1177.63 2809.99L1187.11 2811.77L1189.26 2821.79L1191.38 2811.77L1200.9 2809.99L1191.42 2807.67L1189.26 2798.23L1187.07 2807.67L1177.63 2809.99Z" fill="#FCFCFC"/>
<path d="M1265.5 2015.19L1275.02 2016.97L1277.13 2026.99L1279.28 2016.97L1288.81 2015.19L1279.33 2012.87L1277.13 2003.43L1274.98 2012.87L1265.5 2015.19Z" fill="#FCFCFC"/>
<path d="M606.164 2779.35L615.688 2781.09L617.841 2791.11L619.953 2781.09L629.476 2779.35L619.994 2777.03L617.841 2767.55L615.646 2777.03L606.164 2779.35Z" fill="#FCFCFC"/>
<path d="M189.604 2828.09L199.128 2829.83L201.24 2839.85L203.393 2829.83L212.917 2828.09L203.435 2825.77L201.24 2816.29L199.087 2825.77L189.604 2828.09Z" fill="#FCFCFC"/>
<path d="M1228.77 2269.31L1238.29 2271.05L1240.44 2281.11L1242.56 2271.05L1252.08 2269.31L1242.6 2266.99L1240.44 2257.51L1238.25 2266.99L1228.77 2269.31Z" fill="#FCFCFC"/>
<path d="M1016.18 1693.44L1025.7 1695.18L1027.82 1705.24L1029.93 1695.18L1039.45 1693.44L1029.97 1691.12L1027.82 1681.64L1025.66 1691.12L1016.18 1693.44Z" fill="#FCFCFC"/>
<path d="M1017.42 2059.08L1026.95 2060.86L1029.06 2070.88L1031.17 2060.86L1040.69 2059.08L1031.21 2056.76L1029.06 2047.28L1026.91 2056.76L1017.42 2059.08Z" fill="#FCFCFC"/>
<path d="M1206.16 2922.08C1206.83 2922.16 1207.45 2922.49 1207.9 2923C1208.35 2923.5 1208.59 2924.16 1208.59 2924.83C1208.59 2925.51 1208.35 2926.17 1207.9 2926.67C1207.45 2927.18 1206.83 2927.51 1206.16 2927.59C1205.49 2927.51 1204.87 2927.18 1204.42 2926.67C1203.97 2926.17 1203.72 2925.51 1203.72 2924.83C1203.72 2924.16 1203.97 2923.5 1204.42 2923C1204.87 2922.49 1205.49 2922.16 1206.16 2922.08Z" fill="#FCFCFC"/>
<path d="M1126.08 2228.31C1126.75 2228.4 1127.37 2228.72 1127.82 2229.23C1128.26 2229.74 1128.51 2230.39 1128.51 2231.07C1128.51 2231.75 1128.26 2232.4 1127.82 2232.91C1127.37 2233.41 1126.75 2233.74 1126.08 2233.82C1125.4 2233.74 1124.78 2233.41 1124.34 2232.91C1123.89 2232.4 1123.64 2231.75 1123.64 2231.07C1123.64 2230.39 1123.89 2229.74 1124.34 2229.23C1124.78 2228.72 1125.4 2228.4 1126.08 2228.31Z" fill="#FCFCFC"/>
<path d="M414.24 2610.41C414.912 2610.49 415.531 2610.82 415.979 2611.33C416.428 2611.83 416.676 2612.49 416.676 2613.16C416.676 2613.84 416.428 2614.49 415.979 2615C415.531 2615.51 414.912 2615.83 414.24 2615.92C413.568 2615.83 412.949 2615.51 412.5 2615C412.051 2614.49 411.804 2613.84 411.804 2613.16C411.804 2612.49 412.051 2611.83 412.5 2611.33C412.949 2610.82 413.568 2610.49 414.24 2610.41Z" fill="#FCFCFC"/>
<path d="M1186.61 2495.67C1187.29 2495.75 1187.9 2496.08 1188.35 2496.58C1188.8 2497.09 1189.05 2497.74 1189.05 2498.42C1189.05 2499.1 1188.8 2499.75 1188.35 2500.26C1187.9 2500.77 1187.29 2501.09 1186.61 2501.17C1185.94 2501.09 1185.32 2500.77 1184.87 2500.26C1184.43 2499.75 1184.18 2499.1 1184.18 2498.42C1184.18 2497.74 1184.43 2497.09 1184.87 2496.58C1185.32 2496.08 1185.94 2495.75 1186.61 2495.67Z" fill="#FCFCFC"/>
<path d="M1275.27 2872.48C1275.78 2872.48 1276.28 2872.68 1276.64 2873.05C1277.01 2873.41 1277.21 2873.91 1277.21 2874.42C1277.21 2874.94 1277.01 2875.43 1276.64 2875.8C1276.28 2876.16 1275.78 2876.37 1275.27 2876.37C1274.75 2876.37 1274.26 2876.16 1273.89 2875.8C1273.53 2875.43 1273.32 2874.94 1273.32 2874.42C1273.32 2873.91 1273.53 2873.41 1273.89 2873.05C1274.26 2872.68 1274.75 2872.48 1275.27 2872.48Z" fill="#FCFCFC"/>
<path d="M1277.21 1839.65C1277.69 1839.72 1278.12 1839.95 1278.43 1840.32C1278.74 1840.68 1278.91 1841.14 1278.91 1841.62C1278.91 1842.09 1278.74 1842.56 1278.43 1842.92C1278.12 1843.28 1277.69 1843.51 1277.21 1843.58C1276.74 1843.51 1276.31 1843.28 1276 1842.92C1275.68 1842.56 1275.51 1842.09 1275.51 1841.62C1275.51 1841.14 1275.68 1840.68 1276 1840.32C1276.31 1839.95 1276.74 1839.72 1277.21 1839.65Z" fill="#FCFCFC"/>
<path d="M1078.25 2441.27C1078.77 2441.27 1079.26 2441.48 1079.63 2441.84C1079.99 2442.21 1080.2 2442.7 1080.2 2443.22C1080.2 2443.74 1079.99 2444.23 1079.63 2444.6C1079.26 2444.96 1078.77 2445.17 1078.25 2445.17C1077.73 2445.17 1077.24 2444.96 1076.87 2444.6C1076.51 2444.23 1076.3 2443.74 1076.3 2443.22C1076.3 2442.7 1076.51 2442.21 1076.87 2441.84C1077.24 2441.48 1077.73 2441.27 1078.25 2441.27Z" fill="#FCFCFC"/>
<path d="M952.786 2411.09C954.106 2411.2 955.334 2411.81 956.228 2412.79C957.122 2413.77 957.618 2415.04 957.618 2416.37C957.618 2417.69 957.122 2418.97 956.228 2419.95C955.334 2420.92 954.106 2421.53 952.786 2421.65C951.467 2421.53 950.239 2420.92 949.345 2419.95C948.45 2418.97 947.954 2417.69 947.954 2416.37C947.954 2415.04 948.45 2413.77 949.345 2412.79C950.239 2411.81 951.467 2411.2 952.786 2411.09Z" fill="#FCFCFC"/>
<path d="M77.1006 1696.13L94.1191 1699.28L97.9285 1717.21L101.738 1699.28L118.756 1696.09L101.821 1691.95L97.9285 1675.01L94.0362 1691.95L77.1006 1696.13Z" fill="#FCFCFC"/>
<path d="M438.919 1475.6L448.443 1477.33L450.554 1487.4L452.708 1477.33L462.19 1475.6L452.749 1473.28L450.554 1463.79L448.401 1473.28L438.919 1475.6Z" fill="#FCFCFC"/>
<path d="M466.041 1815.05C466.714 1815.14 467.332 1815.46 467.781 1815.97C468.23 1816.48 468.477 1817.13 468.477 1817.81C468.477 1818.49 468.23 1819.14 467.781 1819.65C467.332 1820.15 466.714 1820.48 466.041 1820.56C465.369 1820.48 464.751 1820.15 464.302 1819.65C463.853 1819.14 463.605 1818.49 463.605 1817.81C463.605 1817.13 463.853 1816.48 464.302 1815.97C464.751 1815.46 465.369 1815.14 466.041 1815.05Z" fill="#FCFCFC"/>
<path d="M166.292 2785.15C166.965 2785.23 167.583 2785.55 168.032 2786.06C168.481 2786.57 168.728 2787.22 168.728 2787.9C168.728 2788.58 168.481 2789.23 168.032 2789.74C167.583 2790.24 166.965 2790.57 166.292 2790.65C165.62 2790.57 165.002 2790.24 164.553 2789.74C164.104 2789.23 163.856 2788.58 163.856 2787.9C163.856 2787.22 164.104 2786.57 164.553 2786.06C165.002 2785.55 165.62 2785.23 166.292 2785.15Z" fill="#FCFCFC"/>
<path d="M237.306 2198.29C237.978 2198.38 238.597 2198.7 239.046 2199.21C239.494 2199.72 239.742 2200.37 239.742 2201.05C239.742 2201.73 239.494 2202.38 239.046 2202.89C238.597 2203.39 237.978 2203.72 237.306 2203.8C236.634 2203.72 236.015 2203.39 235.567 2202.89C235.118 2202.38 234.87 2201.73 234.87 2201.05C234.87 2200.37 235.118 2199.72 235.567 2199.21C236.015 2198.7 236.634 2198.38 237.306 2198.29Z" fill="#FCFCFC"/>
<path d="M346.456 2567.1C346.972 2567.1 347.467 2567.3 347.832 2567.67C348.197 2568.03 348.402 2568.53 348.402 2569.04C348.402 2569.56 348.197 2570.05 347.832 2570.42C347.467 2570.78 346.972 2570.99 346.456 2570.99C345.94 2570.99 345.445 2570.78 345.08 2570.42C344.715 2570.05 344.51 2569.56 344.51 2569.04C344.51 2568.53 344.715 2568.03 345.08 2567.67C345.445 2567.3 345.94 2567.1 346.456 2567.1Z" fill="#FCFCFC"/>
<path d="M871.379 2730.04C871.895 2730.04 872.39 2730.24 872.755 2730.61C873.12 2730.97 873.325 2731.47 873.325 2731.98C873.325 2732.5 873.12 2732.99 872.755 2733.36C872.39 2733.72 871.895 2733.93 871.379 2733.93C870.863 2733.93 870.368 2733.72 870.003 2733.36C869.638 2732.99 869.433 2732.5 869.433 2731.98C869.433 2731.47 869.638 2730.97 870.003 2730.61C870.368 2730.24 870.863 2730.04 871.379 2730.04Z" fill="#FCFCFC"/>
<path d="M1072.12 1850.17C1072.64 1850.17 1073.13 1850.37 1073.5 1850.74C1073.86 1851.1 1074.07 1851.6 1074.07 1852.11C1074.07 1852.63 1073.86 1853.12 1073.5 1853.49C1073.13 1853.85 1072.64 1854.06 1072.12 1854.06C1071.61 1854.06 1071.11 1853.85 1070.75 1853.49C1070.38 1853.12 1070.18 1852.63 1070.18 1852.11C1070.18 1851.6 1070.38 1851.1 1070.75 1850.74C1071.11 1850.37 1071.61 1850.17 1072.12 1850.17Z" fill="#FCFCFC"/>
<path d="M686.163 2470.22C687.483 2470.33 688.711 2470.94 689.605 2471.92C690.499 2472.9 690.995 2474.17 690.995 2475.5C690.995 2476.82 690.499 2478.1 689.605 2479.08C688.711 2480.05 687.483 2480.66 686.163 2480.78C684.844 2480.66 683.616 2480.05 682.722 2479.08C681.827 2478.1 681.331 2476.82 681.331 2475.5C681.331 2474.17 681.827 2472.9 682.722 2471.92C683.616 2470.94 684.844 2470.33 686.163 2470.22Z" fill="#FCFCFC"/>
<path d="M1260.15 1862.59C1261.56 1862.59 1262.91 1863.15 1263.9 1864.14C1264.9 1865.14 1265.45 1866.48 1265.45 1867.89C1265.45 1869.3 1264.9 1870.64 1263.9 1871.64C1262.91 1872.63 1261.56 1873.19 1260.15 1873.19C1258.75 1873.19 1257.4 1872.63 1256.41 1871.64C1255.41 1870.64 1254.85 1869.3 1254.85 1867.89C1254.85 1866.48 1255.41 1865.14 1256.41 1864.14C1257.4 1863.15 1258.75 1862.59 1260.15 1862.59Z" fill="#FCFCFC"/>
<path d="M28.4054 2561.79C29.7249 2561.91 30.9528 2562.52 31.8471 2563.5C32.7415 2564.47 33.2376 2565.75 33.2376 2567.07C33.2376 2568.4 32.7415 2569.68 31.8471 2570.65C30.9528 2571.63 29.7249 2572.24 28.4054 2572.35C27.0859 2572.24 25.858 2571.63 24.9637 2570.65C24.0693 2569.68 23.5732 2568.4 23.5732 2567.07C23.5732 2565.75 24.0693 2564.47 24.9637 2563.5C25.858 2562.52 27.0859 2561.91 28.4054 2561.79Z" fill="#FCFCFC"/>
<path d="M402.439 2016.72L411.922 2018.46L414.075 2028.52L416.187 2018.46L425.71 2016.72L416.228 2014.4L414.075 2004.92L411.922 2014.4L402.439 2016.72Z" fill="#FCFCFC"/>
<path d="M848.107 2624.86L857.631 2626.6L859.743 2636.62L861.855 2626.6L871.378 2624.86L861.896 2622.54L859.743 2613.06L857.59 2622.54L848.107 2624.86Z" fill="#FCFCFC"/>
<path d="M1073.7 2788.46C1074.37 2788.54 1074.99 2788.87 1075.44 2789.38C1075.88 2789.88 1076.13 2790.54 1076.13 2791.21C1076.13 2791.89 1075.88 2792.54 1075.44 2793.05C1074.99 2793.56 1074.37 2793.88 1073.7 2793.97C1073.02 2793.88 1072.4 2793.56 1071.96 2793.05C1071.51 2792.54 1071.26 2791.89 1071.26 2791.21C1071.26 2790.54 1071.51 2789.88 1071.96 2789.38C1072.4 2788.87 1073.02 2788.54 1073.7 2788.46Z" fill="#FCFCFC"/>
<path d="M1157.42 2639.81C1158.09 2639.89 1158.71 2640.21 1159.16 2640.72C1159.61 2641.23 1159.86 2641.88 1159.86 2642.56C1159.86 2643.24 1159.61 2643.89 1159.16 2644.4C1158.71 2644.91 1158.09 2645.23 1157.42 2645.31C1156.75 2645.23 1156.13 2644.91 1155.68 2644.4C1155.23 2643.89 1154.99 2643.24 1154.99 2642.56C1154.99 2641.88 1155.23 2641.23 1155.68 2640.72C1156.13 2640.21 1156.75 2639.89 1157.42 2639.81Z" fill="#FCFCFC"/>
<path d="M1373.4 2755.75L1382.93 2757.49L1385.08 2767.55L1387.19 2757.49L1396.71 2755.75L1387.23 2753.43L1385.08 2743.95L1382.88 2753.43L1373.4 2755.75Z" fill="#FCFCFC"/>
<path d="M1083.84 1900.97C1084.58 1900.97 1085.28 1901.27 1085.8 1901.79C1086.32 1902.31 1086.61 1903.01 1086.61 1903.75C1086.61 1904.48 1086.32 1905.19 1085.8 1905.71C1085.28 1906.23 1084.58 1906.52 1083.84 1906.52C1083.1 1906.52 1082.4 1906.23 1081.88 1905.71C1081.36 1905.19 1081.07 1904.48 1081.07 1903.75C1081.07 1903.01 1081.36 1902.31 1081.88 1901.79C1082.4 1901.27 1083.1 1900.97 1083.84 1900.97Z" fill="#FCFCFC"/>
<path d="M1275.52 2648.5C1276.03 2648.5 1276.53 2648.71 1276.89 2649.07C1277.26 2649.44 1277.46 2649.93 1277.46 2650.45C1277.46 2650.97 1277.26 2651.46 1276.89 2651.83C1276.53 2652.19 1276.03 2652.4 1275.52 2652.4C1275 2652.4 1274.5 2652.19 1274.14 2651.83C1273.77 2651.46 1273.57 2650.97 1273.57 2650.45C1273.57 2649.93 1273.77 2649.44 1274.14 2649.07C1274.5 2648.71 1275 2648.5 1275.52 2648.5Z" fill="#FCFCFC"/>
<path d="M276.312 2318.21L285.836 2319.95L287.948 2329.97L290.06 2319.95L299.583 2318.17L290.101 2315.89L287.948 2306.41L285.795 2315.89L276.312 2318.21Z" fill="#FCFCFC"/>
<path d="M0 2091.17L9.52373 2092.95L11.6355 2102.97L13.7473 2092.95L23.271 2091.17L13.7887 2088.85L11.6355 2079.37L9.48231 2088.85L0 2091.17Z" fill="#FCFCFC"/>
<path d="M493.535 1786.61L503.059 1788.39L505.212 1798.41L507.324 1788.39L516.848 1786.61L507.365 1784.29L505.212 1774.81L503.018 1784.29L493.535 1786.61Z" fill="#FCFCFC"/>
<path d="M166.292 2469.97C166.965 2470.05 167.583 2470.38 168.032 2470.89C168.481 2471.39 168.728 2472.05 168.728 2472.72C168.728 2473.4 168.481 2474.05 168.032 2474.56C167.583 2475.07 166.965 2475.39 166.292 2475.48C165.62 2475.39 165.002 2475.07 164.553 2474.56C164.104 2474.05 163.856 2473.4 163.856 2472.72C163.856 2472.05 164.104 2471.39 164.553 2470.89C165.002 2470.38 165.62 2470.05 166.292 2469.97Z" fill="#FCFCFC"/>
<path d="M460.7 2348.73C461.372 2348.81 461.991 2349.14 462.439 2349.64C462.888 2350.15 463.136 2350.8 463.136 2351.48C463.136 2352.16 462.888 2352.81 462.439 2353.32C461.991 2353.83 461.372 2354.15 460.7 2354.23C460.028 2354.15 459.409 2353.83 458.96 2353.32C458.511 2352.81 458.264 2352.16 458.264 2351.48C458.264 2350.8 458.511 2350.15 458.96 2349.64C459.409 2349.14 460.028 2348.81 460.7 2348.73Z" fill="#FCFCFC"/>
<path d="M400.741 1963.04C401.257 1963.04 401.752 1963.25 402.117 1963.61C402.482 1963.98 402.687 1964.47 402.687 1964.99C402.687 1965.51 402.482 1966 402.117 1966.37C401.752 1966.73 401.257 1966.94 400.741 1966.94C400.225 1966.94 399.73 1966.73 399.365 1966.37C399 1966 398.795 1965.51 398.795 1964.99C398.795 1964.47 399 1963.98 399.365 1963.61C399.73 1963.25 400.225 1963.04 400.741 1963.04Z" fill="#FCFCFC"/>
<path d="M97.9279 2162.73C99.2474 2162.84 100.475 2163.45 101.37 2164.43C102.264 2165.4 102.76 2166.68 102.76 2168.01C102.76 2169.33 102.264 2170.61 101.37 2171.58C100.475 2172.56 99.2474 2173.17 97.9279 2173.28C96.6084 2173.17 95.3805 2172.56 94.4861 2171.58C93.5918 2170.61 93.0957 2169.33 93.0957 2168.01C93.0957 2166.68 93.5918 2165.4 94.4861 2164.43C95.3805 2163.45 96.6084 2162.84 97.9279 2162.73Z" fill="#FCFCFC"/>
<path d="M1442.1 2091.17C1443.42 2091.29 1444.65 2091.9 1445.54 2092.87C1446.43 2093.85 1446.93 2095.13 1446.93 2096.45C1446.93 2097.78 1446.43 2099.05 1445.54 2100.03C1444.65 2101.01 1443.42 2101.61 1442.1 2101.73C1440.78 2101.61 1439.55 2101.01 1438.66 2100.03C1437.76 2099.05 1437.27 2097.78 1437.27 2096.45C1437.27 2095.13 1437.76 2093.85 1438.66 2092.87C1439.55 2091.9 1440.78 2091.29 1442.1 2091.17Z" fill="#FCFCFC"/>
<path d="M329.272 1995.94C330.678 1995.94 332.026 1996.49 333.02 1997.49C334.014 1998.48 334.572 1999.83 334.572 2001.24C334.572 2002.64 334.014 2003.99 333.02 2004.98C332.026 2005.98 330.678 2006.54 329.272 2006.54C327.866 2006.54 326.518 2005.98 325.524 2004.98C324.53 2003.99 323.972 2002.64 323.972 2001.24C323.972 1999.83 324.53 1998.48 325.524 1997.49C326.518 1996.49 327.866 1995.94 329.272 1995.94Z" fill="#FCFCFC"/>
</g>
</svg>
