<svg width="1524" height="434" viewBox="0 0 1524 434" fill="none" xmlns="http://www.w3.org/2000/svg">
<path d="M1464.96 269.25C1462.75 268.086 1461.31 266.353 1460.65 264.048C1459.98 261.744 1460.21 259.516 1461.35 257.364C1462.54 255.099 1464.26 253.618 1466.51 252.921C1468.79 252.168 1471.03 252.373 1473.24 253.536C1475.5 254.729 1476.94 256.463 1477.55 258.737C1478.25 260.985 1478 263.241 1476.81 265.506C1475.67 267.658 1473.97 269.111 1471.69 269.864C1469.47 270.647 1467.23 270.443 1464.96 269.25Z" fill="white"/>
<path d="M1437.19 253.783L1433.24 224.87L1457.72 211.885L1472.45 219.138L1443.72 233.135L1446.83 227.922L1452.7 261.417L1437.19 253.783ZM1410.41 240.592L1441.2 178.067L1454.38 184.557L1423.59 247.081L1410.41 240.592Z" fill="white"/>
<path d="M1388.5 230.537L1399.39 206.275C1400.38 204.056 1400.48 201.96 1399.68 199.989C1398.97 197.985 1397.56 196.511 1395.46 195.568C1394 194.913 1392.57 194.658 1391.17 194.803C1389.8 194.889 1388.53 195.372 1387.37 196.252C1386.23 197.073 1385.33 198.214 1384.67 199.673L1380.65 194.815C1382.14 191.487 1384.18 188.894 1386.76 187.038C1389.35 185.182 1392.23 184.159 1395.4 183.969C1398.66 183.746 1401.92 184.368 1405.19 185.835C1408.34 187.25 1410.78 189.253 1412.49 191.845C1414.29 194.405 1415.34 197.226 1415.64 200.307C1415.94 203.388 1415.44 206.389 1414.13 209.308L1401.91 236.549L1388.5 230.537ZM1360.39 217.924L1379.48 175.355L1392.89 181.367L1373.79 223.936L1360.39 217.924Z" fill="white"/>
<path d="M1337.23 208.338L1355.18 165.274L1368.74 170.925L1350.79 213.989L1337.23 208.338ZM1364.48 162.181C1362.35 161.294 1360.88 159.847 1360.05 157.838C1359.31 155.795 1359.37 153.739 1360.23 151.672C1361.12 149.545 1362.53 148.056 1364.48 147.205C1366.49 146.378 1368.56 146.408 1370.69 147.294C1372.81 148.181 1374.26 149.616 1375.03 151.6C1375.8 153.584 1375.74 155.639 1374.85 157.766C1373.99 159.834 1372.57 161.323 1370.6 162.233C1368.65 163.085 1366.61 163.067 1364.48 162.181Z" fill="white"/>
<path d="M1288.36 189.117L1312.78 125.891L1326.84 131.32L1302.42 194.546L1288.36 189.117ZM1299.2 193.301L1303.97 180.943L1335.23 193.012L1330.45 205.37L1299.2 193.301Z" fill="white"/>
<path d="M1241.62 173.93C1236.82 172.336 1232.86 169.942 1229.74 166.748C1226.7 163.513 1224.7 159.781 1223.75 155.552C1222.79 151.323 1223.05 146.992 1224.52 142.558C1226 138.124 1228.34 134.519 1231.55 131.743C1234.85 128.926 1238.62 127.111 1242.87 126.297C1247.12 125.483 1251.49 125.822 1255.99 127.315C1260.36 128.767 1263.9 130.99 1266.62 133.982C1269.33 136.975 1271.08 140.454 1271.85 144.42C1272.69 148.406 1272.39 152.555 1270.95 156.867C1270.69 157.657 1270.35 158.487 1269.93 159.358C1269.58 160.188 1269.1 161.14 1268.47 162.213L1230.27 149.625L1233.44 140.059L1265.73 150.68L1258.38 152.692C1259.17 150.12 1259.47 147.894 1259.29 146.012C1259.12 144.069 1258.45 142.431 1257.28 141.096C1256.18 139.721 1254.6 138.691 1252.54 138.005C1250.35 137.278 1248.27 137.159 1246.28 137.647C1244.38 138.094 1242.67 139.078 1241.16 140.597C1239.7 142.137 1238.54 144.213 1237.67 146.824C1236.8 149.436 1236.51 151.835 1236.8 154.02C1237.17 156.165 1238.03 158.036 1239.39 159.634C1240.82 161.19 1242.73 162.362 1245.1 163.149C1247.28 163.875 1249.38 164.166 1251.38 164.023C1253.41 163.818 1255.34 163.178 1257.18 162.104L1262.29 172.299C1259.26 174.123 1255.98 175.159 1252.46 175.406C1248.94 175.652 1245.32 175.16 1241.62 173.93Z" fill="white"/>
<path d="M1197.01 158.697L1204.48 133.175C1205.16 130.841 1204.98 128.752 1203.91 126.908C1202.93 125.02 1201.34 123.753 1199.13 123.106C1197.59 122.657 1196.14 122.599 1194.77 122.933C1193.43 123.206 1192.24 123.858 1191.2 124.888C1190.18 125.858 1189.45 127.11 1189 128.646L1184.35 124.383C1185.37 120.882 1187.04 118.035 1189.35 115.843C1191.66 113.652 1194.37 112.245 1197.48 111.623C1200.68 110.958 1204 111.128 1207.44 112.135C1210.75 113.106 1213.44 114.758 1215.49 117.092C1217.62 119.382 1219.04 122.033 1219.76 125.044C1220.48 128.056 1220.39 131.097 1219.49 134.168L1211.11 162.822L1197.01 158.697ZM1167.44 150.042L1180.54 105.264L1194.64 109.389L1181.53 154.167L1167.44 150.042Z" fill="white"/>
<path d="M1124.85 140.294C1119.87 139.075 1115.49 137.078 1111.69 134.301C1107.95 131.539 1104.88 128.216 1102.47 124.331C1100.06 120.446 1098.49 116.239 1097.75 111.709C1097.03 107.118 1097.26 102.429 1098.43 97.643C1099.62 92.7946 1101.59 88.5324 1104.34 84.8566C1107.08 81.1808 1110.38 78.2009 1114.24 75.917C1118.11 73.571 1122.33 72.0693 1126.91 71.412C1131.56 70.7078 1136.37 70.9652 1141.35 72.1843C1146.26 73.3881 1150.58 75.3708 1154.32 78.1322C1158.13 80.8468 1161.22 84.139 1163.56 88.0089C1165.98 91.8319 1167.56 96.039 1168.28 100.63C1169.01 105.16 1168.78 109.848 1167.59 114.697C1166.42 119.483 1164.45 123.745 1161.69 127.483C1158.95 131.159 1155.64 134.17 1151.77 136.516C1147.91 138.8 1143.66 140.294 1139.01 140.998C1134.41 141.718 1129.69 141.483 1124.85 140.294ZM1127.93 126.916C1131.84 127.876 1135.48 127.844 1138.82 126.819C1142.24 125.81 1145.13 123.95 1147.51 121.238C1149.9 118.464 1151.6 115.026 1152.61 110.923C1153.37 107.815 1153.59 104.904 1153.26 102.189C1152.96 99.412 1152.15 96.9088 1150.86 94.6795C1149.57 92.388 1147.83 90.4789 1145.64 88.9522C1143.52 87.3786 1141 86.2337 1138.08 85.5175C1134.16 84.5574 1130.5 84.5819 1127.09 85.5909C1123.76 86.553 1120.9 88.3899 1118.52 91.1017C1116.16 93.7513 1114.47 97.1584 1113.45 101.323C1112.68 104.431 1112.46 107.374 1112.76 110.151C1113.07 112.928 1113.84 115.455 1115.06 117.731C1116.36 119.96 1118.1 121.869 1120.28 123.458C1122.46 125.047 1125.01 126.199 1127.93 126.916Z" fill="white"/>
<path d="M1050.85 122.924L1055.71 96.7805C1056.16 94.3896 1055.76 92.33 1054.52 90.6019C1053.35 88.8226 1051.63 87.7223 1049.37 87.3009C1047.8 87.0083 1046.35 87.0968 1045.02 87.5665C1043.71 87.9734 1042.59 88.7416 1041.67 89.8712C1040.75 90.938 1040.15 92.2579 1039.85 93.8309L1034.8 90.0579C1035.46 86.4715 1036.83 83.4717 1038.91 81.0588C1040.99 78.6458 1043.54 76.9733 1046.58 76.0411C1049.69 75.0578 1053.01 74.8938 1056.54 75.5493C1059.93 76.1814 1062.77 77.5553 1065.04 79.6712C1067.4 81.7358 1069.08 84.2299 1070.1 87.1535C1071.12 90.0771 1071.33 93.1119 1070.75 96.2579L1065.29 125.61L1050.85 122.924ZM1020.55 117.288L1029.08 71.419L1043.52 74.1053L1034.99 119.974L1020.55 117.288Z" fill="white"/>
<path d="M995.789 113.426L1003.09 67.3448L1017.6 69.6437L1010.3 115.725L995.789 113.426ZM1011.4 62.1491C1009.12 61.7884 1007.35 60.7294 1006.07 58.9719C1004.87 57.1612 1004.44 55.1497 1004.79 52.9373C1005.15 50.6617 1006.18 48.8806 1007.87 47.5939C1009.63 46.3172 1011.65 45.8592 1013.92 46.2198C1016.2 46.5804 1017.94 47.6345 1019.16 49.3819C1020.37 51.1294 1020.8 53.1409 1020.44 55.4165C1020.09 57.6289 1019.06 59.4101 1017.35 60.76C1015.66 62.0466 1013.67 62.5097 1011.4 62.1491Z" fill="white"/>
<path d="M946.867 107.827C942.61 107.316 938.931 106.005 935.833 103.894C932.805 101.726 930.553 99.007 929.075 95.736C927.605 92.4015 927.11 88.7325 927.59 84.7291L930.811 57.8494L945.394 59.5968L942.197 86.2859C942.006 87.8745 942.097 89.2712 942.468 90.476C942.903 91.6883 943.622 92.6769 944.627 93.4418C945.631 94.2067 946.895 94.6805 948.42 94.8632C950.581 95.1221 952.377 94.6605 953.807 93.4783C955.246 92.2326 956.11 90.4023 956.399 87.9876L959.597 61.2985L974.181 63.0459L970.971 89.8303C970.484 93.8972 969.132 97.3772 966.916 100.27C964.708 103.099 961.877 105.21 958.423 106.601C954.977 107.928 951.125 108.337 946.867 107.827Z" fill="white"/>
<path d="M893.611 102.41C888.828 102.01 884.579 100.595 880.864 98.1654C877.219 95.677 874.435 92.4899 872.512 88.6042C870.589 84.7184 869.82 80.4796 870.204 75.8876C870.587 71.2956 872.048 67.2753 874.584 63.8267C877.12 60.378 880.389 57.7613 884.392 55.9767C888.4 54.1282 892.827 53.4066 897.675 53.812C902.522 54.2173 906.771 55.6322 910.421 58.0569C914.072 60.4815 916.859 63.6367 918.782 67.5224C920.71 71.3444 921.482 75.5514 921.098 80.1433C920.714 84.7353 919.251 88.7875 916.71 92.3C914.168 95.8124 910.893 98.4928 906.885 100.341C902.883 102.126 898.458 102.816 893.611 102.41ZM894.723 89.1128C896.827 89.2887 898.714 88.997 900.383 88.2374C902.058 87.4141 903.379 86.208 904.347 84.6191C905.384 82.9717 905.993 81.0639 906.174 78.8954C906.355 76.727 906.066 74.8082 905.307 73.1391C904.552 71.4063 903.415 70.0267 901.896 69.0005C900.445 67.9159 898.667 67.2855 896.563 67.1095C894.522 66.9389 892.664 67.2652 890.99 68.0886C889.321 68.8481 887.97 70.0197 886.939 71.6032C885.907 73.1868 885.301 75.0628 885.119 77.2312C884.943 79.3359 885.23 81.2865 885.979 83.0832C886.733 84.816 887.867 86.2275 889.382 87.3175C890.902 88.3437 892.682 88.9421 894.723 89.1128Z" fill="white"/>
<path d="M834.484 97.7688L817.542 50.0576L833.364 50.8138L843.769 88.5056L837.919 88.226L852.159 51.7122L867.981 52.4684L845.799 98.3097L834.484 97.7688ZM821.567 116.662L837.011 87.1253L845.799 98.3097L836.622 117.381L821.567 116.662Z" fill="white"/>
<path d="M770.191 96.1444L770.558 30.1934L785.246 30.2753L784.878 96.2262L770.191 96.1444ZM759.821 61.91L759.891 49.4302L795.698 49.6298L795.629 62.1096L759.821 61.91Z" fill="white"/>
<path d="M732.587 97.6673C728.3 97.7726 724.472 97.0024 721.103 95.3566C717.796 93.6454 715.177 91.277 713.246 88.2515C711.313 85.162 710.298 81.6019 710.199 77.5711L709.534 50.5073L724.217 50.1465L724.878 77.0184C724.917 78.6179 725.207 79.9872 725.747 81.1263C726.351 82.2638 727.205 83.1391 728.308 83.7522C729.411 84.3653 730.731 84.6529 732.266 84.6152C734.442 84.5618 736.153 83.8475 737.399 82.4725C738.644 81.0335 739.237 79.0983 739.177 76.6671L738.517 49.7952L753.201 49.4344L753.863 76.4023C753.964 80.4971 753.125 84.1348 751.346 87.3154C749.566 90.4321 747.067 92.9262 743.848 94.7978C740.627 96.6055 736.874 97.562 732.587 97.6673Z" fill="white"/>
<path d="M679.106 99.9396C674.314 100.229 669.906 99.4378 665.882 97.5653C661.918 95.625 658.706 92.8699 656.246 89.2998C653.786 85.7298 652.417 81.645 652.139 77.0454C651.861 72.4458 652.729 68.2577 654.745 64.4811C656.761 60.7046 659.622 57.6464 663.327 55.3065C667.029 52.9027 671.307 51.554 676.162 51.2605C681.017 50.9669 685.425 51.7583 689.386 53.6347C693.346 55.5111 696.556 58.2344 699.016 61.8044C701.472 65.3106 702.839 69.3635 703.118 73.9631C703.396 78.5627 702.529 82.7827 700.517 86.6231C698.505 90.4635 695.648 93.5856 691.947 95.9894C688.241 98.3293 683.961 99.646 679.106 99.9396ZM678.3 86.6199C680.408 86.4924 682.234 85.9332 683.777 84.9423C685.316 83.8875 686.451 82.5045 687.181 80.7933C687.971 79.0144 688.3 77.0389 688.169 74.8669C688.038 72.6949 687.476 70.8373 686.485 69.2943C685.491 67.6874 684.168 66.4851 682.517 65.6873C680.925 64.8217 679.076 64.4527 676.968 64.5802C674.923 64.7038 673.132 65.293 671.592 66.3478C670.049 67.3387 668.881 68.6917 668.087 70.4067C667.293 72.1218 666.962 74.0653 667.093 76.2373C667.221 78.3455 667.784 80.235 668.782 81.9057C669.777 83.5126 671.102 84.7469 672.757 85.6086C674.408 86.4064 676.256 86.7435 678.3 86.6199Z" fill="white"/>
<path d="M626.591 103.945C623.47 104.252 620.541 103.897 617.804 102.88C615.061 101.799 612.755 100.257 610.886 98.2545C609.011 96.1881 607.812 93.798 607.288 91.0843L605.362 71.4987C605.347 68.7349 606.065 66.2206 607.514 63.9559C608.957 61.6275 610.925 59.7298 613.417 58.2629C615.91 56.796 618.716 55.9091 621.837 55.6022C626.232 55.1701 630.221 55.839 633.803 57.6089C637.449 59.3726 640.406 61.9757 642.674 65.4183C645.005 68.8546 646.4 72.8976 646.857 77.5472C647.314 82.1968 646.734 86.4339 645.116 90.2585C643.562 94.0769 641.169 97.2061 637.936 99.6462C634.767 102.08 630.985 103.513 626.591 103.945ZM622.715 91.0143C624.753 90.8139 626.489 90.1608 627.924 89.0551C629.422 87.9431 630.536 86.5153 631.265 84.7716C631.994 83.0279 632.255 81.1052 632.048 79.0033C631.835 76.8377 631.201 74.9708 630.147 73.4025C629.092 71.8341 627.725 70.6824 626.045 69.9473C624.423 69.1422 622.592 68.8398 620.554 69.0402C618.516 69.2407 616.748 69.8968 615.249 71.0088C613.745 72.0571 612.628 73.4531 611.899 75.1968C611.234 76.9342 611.008 78.8857 611.221 81.0512C611.434 83.2168 612.067 85.0837 613.122 86.6521C614.176 88.2204 615.515 89.4071 617.137 90.2122C618.817 90.9473 620.677 91.2147 622.715 91.0143ZM599.746 105.62L592.926 36.2585L607.543 34.8212L610.916 69.1198L609.636 80.6283L612.942 91.6859L614.172 104.202L599.746 105.62Z" fill="white"/>
<path d="M562.559 111.487C558.311 112.069 554.363 111.545 550.716 109.913C547.132 108.273 544.109 105.78 541.648 102.435C539.251 99.082 537.734 95.091 537.1 90.4623C536.465 85.8336 536.851 81.5817 538.258 77.7068C539.728 73.8231 541.968 70.609 544.979 68.0646C548.052 65.5114 551.713 63.9436 555.962 63.3612C559.068 62.9352 561.941 63.1551 564.579 64.0208C567.28 64.8778 569.572 66.2756 571.452 68.2141C573.324 70.0892 574.542 72.377 575.106 75.0774L577.845 95.0505C578.028 97.8031 577.475 100.366 576.186 102.739C574.951 105.04 573.148 106.967 570.777 108.519C568.405 110.072 565.666 111.061 562.559 111.487ZM563.708 97.9576C566.815 97.5316 569.181 96.1737 570.805 93.8839C572.42 91.5307 573.011 88.7689 572.576 85.5986C572.28 83.4427 571.576 81.6014 570.462 80.0745C569.412 78.5389 568.033 77.436 566.326 76.7656C564.674 76.0231 562.834 75.791 560.804 76.0691C558.775 76.3473 557.034 77.0706 555.579 78.239C554.179 79.3354 553.116 80.773 552.391 82.552C551.729 84.3223 551.546 86.2853 551.842 88.4412C552.129 90.5336 552.829 92.3432 553.943 93.8701C555.056 95.397 556.471 96.5273 558.187 97.2611C559.902 97.9949 561.743 98.227 563.708 97.9576ZM575.174 108.789L573.466 96.3292L574.115 84.8062L570.388 73.8831L568.837 62.565L583.103 60.6091L589.44 106.833L575.174 108.789Z" fill="white"/>
<path d="M493.282 143.16C488.251 144.108 483.651 144.064 479.482 143.026C475.389 142.039 471.945 140.181 469.151 137.451L476.347 126.912C478.35 128.553 480.452 129.687 482.654 130.314C484.92 130.929 487.499 130.964 490.392 130.419C493.976 129.743 496.609 128.335 498.29 126.194C500.033 124.042 500.603 121.362 499.998 118.155L497.793 106.457L498.36 95.9944L494.305 86.4036L492.082 74.6113L506.233 71.9435L514.36 115.056C515.25 119.773 514.92 124.068 513.371 127.942C511.822 131.817 509.313 135.09 505.844 137.763C502.375 140.436 498.188 142.235 493.282 143.16ZM488.478 121.303C484.264 122.098 480.332 121.797 476.682 120.401C473.033 119.005 469.938 116.755 467.399 113.652C464.861 110.549 463.194 106.89 462.399 102.676C461.593 98.3995 461.813 94.3853 463.06 90.6334C464.294 86.8186 466.363 83.6281 469.266 81.0619C472.157 78.4328 475.709 76.721 479.923 75.9266C483.068 75.3338 485.979 75.4036 488.657 76.1362C491.386 76.794 493.707 78.0497 495.62 79.9035C497.583 81.6825 498.92 83.9379 499.631 86.6696L502.921 104.122C503.242 106.862 502.818 109.449 501.649 111.884C500.531 114.244 498.826 116.259 496.536 117.928C494.246 119.597 491.56 120.722 488.478 121.303ZM488.795 107.958C490.807 107.578 492.454 106.812 493.734 105.659C495.078 104.494 495.991 103.117 496.473 101.528C497.006 99.8643 497.094 98.0891 496.739 96.2024C496.383 94.3156 495.654 92.6946 494.552 91.3393C493.512 89.9722 492.155 88.9907 490.48 88.3947C488.867 87.7869 487.055 87.6728 485.042 88.0522C483.092 88.4197 481.446 89.1861 480.103 90.3511C478.759 91.5162 477.821 92.9305 477.288 94.594C476.755 96.2576 476.666 98.0327 477.022 99.9195C477.354 101.68 478.077 103.27 479.191 104.688C480.293 106.043 481.65 107.025 483.263 107.633C484.938 108.229 486.782 108.337 488.795 107.958Z" fill="white"/>
<path d="M446.43 131.422L440.536 105.491C439.997 103.12 438.816 101.386 436.992 100.291C435.216 99.1198 433.205 98.7894 430.958 99.3C429.398 99.6546 428.103 100.31 427.073 101.266C426.029 102.159 425.306 103.308 424.903 104.713C424.486 106.054 424.455 107.505 424.809 109.066L418.669 107.606C417.861 104.049 417.932 100.751 418.882 97.7129C419.832 94.6747 421.517 92.1259 423.937 90.0664C426.405 87.9303 429.386 86.4651 432.881 85.6708C436.251 84.9049 439.4 85.0424 442.328 86.0835C445.303 87.048 447.838 88.6706 449.931 90.9513C452.025 93.2321 453.426 95.9326 454.136 99.0531L460.752 128.167L446.43 131.422ZM416.38 138.251L406.04 92.7557L420.363 89.5005L430.703 134.996L416.38 138.251Z" fill="white"/>
<path d="M392.115 144.517L380.561 99.314L394.791 95.6766L406.345 140.879L392.115 144.517ZM386.129 91.2517C383.897 91.8223 381.847 91.5537 379.978 90.4459C378.156 89.2603 376.967 87.5824 376.413 85.4121C375.842 83.1799 376.08 81.1375 377.125 79.2848C378.233 77.4162 379.903 76.1967 382.135 75.6261C384.368 75.0555 386.387 75.3321 388.194 76.4557C390 77.5793 391.189 79.2573 391.759 81.4895C392.314 83.6597 392.076 85.7022 391.046 87.6169C390.001 89.4696 388.362 90.6812 386.129 91.2517Z" fill="white"/>
<path d="M368.845 150.781L361.572 125.202C360.907 122.863 359.635 121.196 357.755 120.2C355.919 119.125 353.893 118.903 351.676 119.533C350.137 119.97 348.879 120.694 347.902 121.704C346.908 122.652 346.247 123.838 345.92 125.261C345.575 126.624 345.622 128.074 346.059 129.613L339.85 128.484C338.852 124.975 338.716 121.687 339.44 118.62C340.165 115.553 341.65 112.935 343.894 110.767C346.121 108.537 348.959 106.932 352.406 105.951C355.915 104.954 359.203 104.817 362.27 105.542C365.32 106.205 367.92 107.628 370.071 109.811C372.266 111.915 373.845 114.66 374.808 118.046L382.973 146.764L368.845 150.781ZM339.203 159.208L320.143 92.1693L334.271 88.1524L353.332 155.191L339.203 159.208Z" fill="white"/>
<path d="M309 168.789L288.994 105.945L302.99 101.489L322.996 164.334L309 168.789ZM288.571 139.427L284.785 127.535L318.905 116.673L322.691 128.565L288.571 139.427Z" fill="white"/>
<path d="M267.893 182.973L234.237 145.148L249.18 139.893L273.008 170.896L267.483 172.839L266.93 133.65L281.873 128.395L278.579 179.214L267.893 182.973ZM263.038 205.338L266.227 172.161L278.579 179.214L277.256 200.338L263.038 205.338Z" fill="white"/>
<path d="M214.459 202.88L197.605 159.375L211.301 154.069L228.155 197.574L214.459 202.88ZM218.896 173.673L211.433 171.417C210.601 165.905 210.985 161.226 212.584 157.381C214.183 153.536 217.369 150.688 222.144 148.839C224.232 148.029 226.18 147.652 227.986 147.708C229.828 147.68 231.601 148.092 233.303 148.942L229.145 162.393C228.294 161.967 227.351 161.749 226.317 161.738C225.284 161.727 224.2 161.941 223.066 162.38C220.798 163.258 219.255 164.68 218.438 166.644C217.656 168.525 217.809 170.868 218.896 173.673Z" fill="white"/>
<path d="M187.558 215.182C182.904 217.158 178.351 217.979 173.898 217.644C169.479 217.226 165.513 215.746 162.001 213.204C158.488 210.663 155.819 207.242 153.993 202.941C152.168 198.641 151.543 194.386 152.121 190.178C152.732 185.886 154.363 182.03 157.013 178.61C159.664 175.191 163.169 172.555 167.528 170.705C171.77 168.904 175.898 168.229 179.914 168.68C183.929 169.13 187.538 170.588 190.739 173.053C194 175.493 196.518 178.804 198.294 182.987C198.619 183.752 198.91 184.602 199.168 185.536C199.459 186.386 199.724 187.42 199.964 188.639L162.976 204.447L159.037 195.168L190.281 181.799L186.1 188.164C184.99 185.714 183.744 183.844 182.362 182.554C180.955 181.205 179.369 180.418 177.605 180.193C175.875 179.885 174.009 180.156 172.006 181.006C169.885 181.906 168.242 183.195 167.076 184.872C165.945 186.465 165.313 188.332 165.179 190.475C165.105 192.592 165.605 194.917 166.681 197.451C167.756 199.984 169.123 201.976 170.782 203.427C172.475 204.794 174.359 205.628 176.434 205.93C178.542 206.147 180.745 205.768 183.043 204.792C185.164 203.892 186.928 202.726 188.336 201.294C189.72 199.802 190.747 198.045 191.417 196.022L201.992 200.294C200.921 203.668 199.146 206.612 196.667 209.125C194.188 211.637 191.151 213.657 187.558 215.182Z" fill="white"/>
<path d="M132.45 238.64L94.8093 204.713L109.165 198.019L137.778 227.576L131.513 230.497L127.262 189.58L141.357 183.007L143.112 233.563L132.45 238.64Z" fill="white"/>
<path d="M67.6642 270.919L36.7667 210.596L50.1814 203.725L81.0789 264.049L67.6642 270.919ZM77.9175 265.668L71.9656 254.047L105.032 237.111L110.984 248.731L77.9175 265.668ZM65.0071 240.462L59.274 229.269L89.3503 213.864L95.0834 225.057L65.0071 240.462ZM52.9282 216.879L47.02 205.344L79.6597 188.626L85.5678 200.161L52.9282 216.879Z" fill="white"/>
<path d="M1345.12 406.412C1341.53 404.244 1338.74 401.487 1336.77 398.141C1334.8 394.795 1333.81 391.225 1333.81 387.432C1333.81 383.638 1334.84 380.014 1336.93 376.561C1339.04 373.06 1341.75 370.448 1345.08 368.726C1348.48 366.984 1352.12 366.204 1356 366.384C1359.88 366.565 1363.65 367.753 1367.29 369.95C1370.03 371.597 1372.23 373.58 1373.91 375.898C1375.66 378.197 1376.86 380.816 1377.51 383.756L1366.21 386.558C1365.94 385.155 1365.39 383.906 1364.54 382.809C1363.75 381.741 1362.66 380.789 1361.27 379.95C1359.68 378.996 1358.05 378.504 1356.37 378.471C1354.77 378.42 1353.23 378.802 1351.76 379.615C1350.36 380.409 1349.18 381.622 1348.19 383.253C1347.21 384.884 1346.68 386.525 1346.6 388.177C1346.57 389.857 1346.96 391.433 1347.77 392.904C1348.58 394.375 1349.76 395.573 1351.29 396.498C1352.73 397.365 1354.15 397.891 1355.54 398.076C1357.01 398.242 1358.43 398.115 1359.79 397.696L1362.52 408.952C1359.54 409.772 1356.6 409.992 1353.69 409.612C1350.81 409.184 1347.95 408.117 1345.12 406.412Z" fill="white"/>
<path d="M1305.22 382.231L1325.14 346.598L1336.36 352.87L1316.44 388.503L1305.22 382.231ZM1333.54 344.842C1331.78 343.858 1330.64 342.452 1330.12 340.623C1329.68 338.772 1329.94 336.992 1330.89 335.281C1331.88 333.521 1333.26 332.369 1335.04 331.825C1336.87 331.307 1338.66 331.541 1340.42 332.524C1342.18 333.508 1343.3 334.901 1343.76 336.703C1344.23 338.504 1343.97 340.285 1342.99 342.044C1342.03 343.755 1340.65 344.907 1338.85 345.501C1337.07 346.045 1335.3 345.826 1333.54 344.842Z" fill="white"/>
<path d="M1235.56 346.404L1253.8 309.882L1265.3 315.625L1247.06 352.147L1235.56 346.404ZM1258.93 358.077L1269.59 336.735C1270.52 334.881 1270.66 333.166 1270 331.588C1269.43 329.986 1268.31 328.771 1266.66 327.946C1265.51 327.37 1264.36 327.108 1263.2 327.158C1262.08 327.159 1261.02 327.447 1260.05 328.024C1259.12 328.625 1258.35 329.552 1257.72 330.805L1254.26 326.636C1255.71 323.731 1257.58 321.563 1259.86 320.135C1262.16 318.656 1264.66 317.904 1267.37 317.878C1270.1 317.801 1272.82 318.439 1275.52 319.79C1278.08 321.066 1280.07 322.781 1281.5 324.934C1282.98 327.112 1283.8 329.528 1283.98 332.183C1284.16 334.838 1283.53 337.593 1282.1 340.448L1270.43 363.82L1258.93 358.077ZM1282.31 369.75L1292.96 348.408C1293.89 346.554 1294.03 344.838 1293.38 343.261C1292.8 341.658 1291.68 340.444 1290.03 339.618C1288.88 339.043 1287.73 338.781 1286.57 338.831C1285.45 338.832 1284.4 339.12 1283.42 339.697C1282.49 340.298 1281.72 341.225 1281.09 342.477L1274.93 338.273C1276.58 335.217 1278.63 332.924 1281.09 331.395C1283.62 329.842 1286.31 329.027 1289.16 328.95C1292.09 328.849 1294.98 329.511 1297.84 330.937C1300.65 332.339 1302.83 334.178 1304.38 336.457C1306.01 338.71 1306.9 341.252 1307.05 344.081C1307.28 346.886 1306.63 349.817 1305.1 352.873L1293.8 375.492L1282.31 369.75Z" fill="white"/>
<path d="M1200.37 332.184C1196.92 330.708 1194.19 328.537 1192.19 325.671C1190.24 322.826 1189.09 319.595 1188.75 315.978C1188.46 312.382 1189.12 308.705 1190.73 304.947C1192.34 301.188 1194.54 298.172 1197.34 295.898C1200.19 293.646 1203.32 292.243 1206.72 291.689C1210.18 291.157 1213.63 291.629 1217.08 293.105C1219.61 294.184 1221.66 295.642 1223.25 297.48C1224.89 299.339 1225.98 301.419 1226.52 303.72C1227.08 305.97 1226.96 308.235 1226.17 310.515L1219.23 326.733C1218.13 328.881 1216.56 330.555 1214.53 331.755C1212.56 332.925 1210.34 333.559 1207.87 333.657C1205.39 333.754 1202.89 333.263 1200.37 332.184ZM1207.32 322.55C1209.84 323.629 1212.23 323.675 1214.48 322.688C1216.75 321.65 1218.43 319.844 1219.54 317.269C1220.29 315.519 1220.59 313.82 1220.44 312.173C1220.34 310.548 1219.8 309.1 1218.82 307.828C1217.92 306.528 1216.64 305.525 1214.99 304.82C1213.35 304.115 1211.71 303.874 1210.1 304.095C1208.55 304.288 1207.11 304.888 1205.76 305.896C1204.47 306.926 1203.45 308.317 1202.7 310.067C1201.97 311.766 1201.68 313.44 1201.83 315.087C1201.98 316.734 1202.53 318.218 1203.49 319.541C1204.45 320.864 1205.72 321.867 1207.32 322.55ZM1211.04 335.838L1215.37 325.721L1221.05 317.368L1223.17 307.495L1227.1 298.304L1238.69 303.26L1222.63 340.794L1211.04 335.838Z" fill="white"/>
<path d="M1160.68 315.308L1168.79 293.502C1169.54 291.508 1169.5 289.673 1168.69 287.997C1167.96 286.288 1166.64 285.081 1164.75 284.378C1163.44 283.89 1162.18 283.748 1160.97 283.954C1159.77 284.108 1158.69 284.602 1157.73 285.437C1156.78 286.219 1156.06 287.266 1155.57 288.578L1151.78 284.566C1152.89 281.575 1154.52 279.195 1156.67 277.427C1158.83 275.658 1161.28 274.601 1164.04 274.253C1166.87 273.873 1169.76 274.23 1172.69 275.324C1175.53 276.379 1177.77 277.99 1179.41 280.155C1181.13 282.288 1182.2 284.691 1182.64 287.364C1183.08 290.037 1182.81 292.686 1181.84 295.31L1172.72 319.792L1160.68 315.308ZM1135.41 305.9L1149.65 267.641L1161.7 272.125L1147.45 310.384L1135.41 305.9Z" fill="white"/>
<path d="M1099.97 294.391L1096.51 250.225L1109.71 254.464L1109.92 288.677L1105.04 287.11L1125.38 259.501L1138.58 263.74L1109.4 297.423L1099.97 294.391ZM1084.75 307.413L1104.52 285.973L1109.4 297.423L1097.31 311.448L1084.75 307.413Z" fill="white"/>
<path d="M1031.86 274.89L1034.82 263.683L1049.03 267.442C1052.5 268.358 1055.71 268.484 1058.66 267.818C1061.63 267.097 1064.17 265.597 1066.28 263.316C1068.39 261.036 1069.93 258.082 1070.89 254.455C1071.85 250.828 1071.94 247.521 1071.16 244.536C1070.44 241.565 1068.97 239.032 1066.74 236.937C1064.57 234.857 1061.75 233.358 1058.29 232.442L1043.67 228.575L1046.61 217.45L1061.39 221.359C1065.73 222.505 1069.52 224.261 1072.77 226.628C1076.1 228.955 1078.77 231.776 1080.79 235.091C1082.88 238.365 1084.19 241.956 1084.72 245.861C1085.32 249.727 1085.06 253.771 1083.94 257.994C1082.84 262.163 1081.06 265.806 1078.62 268.924C1076.22 272.057 1073.34 274.537 1069.96 276.366C1066.58 278.194 1062.86 279.325 1058.81 279.759C1054.81 280.207 1050.67 279.866 1046.39 278.735L1031.86 274.89ZM1023.25 272.613L1038.41 215.281L1051.16 218.653L1036 275.985L1023.25 272.613Z" fill="white"/>
<path d="M964.594 261.321C960.797 260.608 957.582 259.065 954.951 256.691C952.374 254.328 950.527 251.417 949.41 247.96C948.347 244.513 948.193 240.78 948.947 236.762C949.7 232.744 951.197 229.322 953.437 226.494C955.732 223.677 958.508 221.634 961.766 220.365C965.079 219.106 968.634 218.833 972.432 219.546C975.184 220.062 977.563 221.05 979.568 222.508C981.628 223.977 983.199 225.782 984.279 227.922C985.424 230.017 985.857 232.263 985.578 234.661L982.403 251.586C981.794 253.921 980.593 255.918 978.801 257.576C977.018 259.179 974.891 260.347 972.417 261.079C969.954 261.757 967.346 261.837 964.594 261.321ZM968.961 250.346C970.777 250.687 972.418 250.596 973.884 250.073C975.36 249.495 976.617 248.563 977.656 247.277C978.695 245.99 979.39 244.411 979.741 242.54C980.092 240.668 980.012 238.973 979.499 237.452C979.052 235.887 978.218 234.562 976.997 233.478C975.831 232.405 974.367 231.703 972.606 231.373C970.845 231.042 969.199 231.161 967.668 231.728C966.192 232.306 964.907 233.233 963.813 234.509C962.774 235.795 962.084 237.347 961.743 239.163C961.403 240.979 961.483 242.675 961.985 244.251C962.487 245.827 963.349 247.156 964.57 248.24C965.791 249.324 967.255 250.026 968.961 250.346ZM987.866 264.832L975.482 262.509L977.511 251.694L981.238 242.308L980.919 232.163L986.48 202.524L999.111 204.894L987.866 264.832Z" fill="white"/>
<path d="M921.859 253.398L925.052 230.35C925.344 228.243 924.913 226.459 923.758 224.998C922.667 223.49 921.123 222.598 919.126 222.321C917.739 222.129 916.476 222.265 915.338 222.729C914.207 223.138 913.26 223.855 912.496 224.88C911.74 225.849 911.266 227.027 911.074 228.414L906.499 225.321C906.937 222.159 908.014 219.482 909.731 217.289C911.449 215.096 913.616 213.53 916.233 212.592C918.914 211.607 921.807 211.329 924.914 211.76C927.909 212.175 930.444 213.261 932.519 215.018C934.656 216.727 936.229 218.839 937.238 221.353C938.246 223.868 938.559 226.511 938.174 229.285L934.59 255.162L921.859 253.398ZM895.15 249.698L900.752 209.261L913.483 211.024L907.881 251.462L895.15 249.698Z" fill="white"/>
<path d="M857.326 246.773C853.589 246.436 850.325 245.215 847.535 243.108C844.801 241.006 842.712 238.288 841.27 234.953C839.883 231.623 839.373 227.922 839.74 223.851C840.107 219.779 841.27 216.229 843.229 213.201C845.245 210.178 847.786 207.876 850.852 206.297C853.973 204.723 857.403 204.104 861.14 204.441C863.873 204.687 866.279 205.438 868.359 206.693C870.494 207.954 872.174 209.595 873.397 211.617C874.626 213.584 875.216 215.773 875.167 218.187L873.584 235.756C873.201 238.139 872.226 240.216 870.661 241.986C869.157 243.706 867.241 244.996 864.915 245.854C862.588 246.713 860.059 247.019 857.326 246.773ZM860.959 235.462C863.692 235.708 865.976 235.014 867.81 233.38C869.649 231.69 870.694 229.451 870.945 226.662C871.116 224.766 870.876 223.057 870.226 221.537C869.632 220.021 868.673 218.81 867.349 217.904C866.085 216.947 864.561 216.388 862.777 216.227C860.992 216.066 859.365 216.341 857.895 217.052C856.486 217.713 855.298 218.73 854.331 220.105C853.419 221.485 852.878 223.123 852.707 225.019C852.541 226.86 852.784 228.54 853.434 230.061C854.084 231.581 855.069 232.822 856.388 233.785C857.706 234.747 859.23 235.306 860.959 235.462ZM868.612 246.947L869.599 235.987L872.413 226.288L871.378 216.243L872.275 206.287L884.824 207.418L881.161 248.077L868.612 246.947Z" fill="white"/>
<path d="M790.39 252.168L796.909 240.961L800.724 239.999C800.304 240.825 799.804 241.509 799.225 242.049C798.648 242.534 797.996 242.763 797.269 242.738C795.646 242.683 794.185 241.96 792.888 240.571C791.591 239.182 790.977 237.48 791.046 235.465C791.121 233.282 791.913 231.432 793.421 229.915C794.986 228.4 796.86 227.68 799.043 227.754C801.113 227.825 802.878 228.67 804.335 230.289C805.85 231.854 806.57 233.756 806.493 235.994C806.462 236.89 806.259 237.919 805.883 239.083C805.507 240.247 804.782 241.763 803.71 243.631L796.484 255.823L790.39 252.168Z" fill="white"/>
<path d="M753.48 241.855L736.658 200.872L750.518 200.864L761.204 233.366L756.08 233.369L766.982 200.855L780.842 200.848L763.392 241.849L753.48 241.855ZM742.99 258.913L755.239 232.446L763.392 241.849L756.178 258.905L742.99 258.913Z" fill="white"/>
<path d="M713.966 242.579L711.861 181.631L724.705 181.188L726.811 242.135L713.966 242.579Z" fill="white"/>
<path d="M676.494 245.567C672.64 245.84 669.139 245.162 665.992 243.532C662.901 241.899 660.377 239.552 658.419 236.49C656.518 233.425 655.422 229.854 655.133 225.776C654.844 221.698 655.425 218.008 656.875 214.705C658.381 211.398 660.549 208.718 663.379 206.665C666.264 204.608 669.634 203.443 673.489 203.169C676.282 202.971 678.833 203.324 681.143 204.227C683.508 205.126 685.484 206.473 687.071 208.27C688.71 210.006 689.699 212.069 690.036 214.459L691.254 231.636C691.257 234.05 690.601 236.286 689.288 238.344C687.97 240.346 686.207 242.015 684 243.351C681.789 244.63 679.287 245.369 676.494 245.567ZM677.937 233.844C679.78 233.713 681.345 233.209 682.63 232.332C683.911 231.399 684.891 230.179 685.57 228.671C686.249 227.163 686.522 225.46 686.387 223.56C686.252 221.661 685.744 220.041 684.863 218.7C684.034 217.299 682.892 216.229 681.436 215.49C680.036 214.747 678.442 214.439 676.655 214.566C674.867 214.693 673.305 215.225 671.968 216.161C670.686 217.094 669.678 218.317 668.943 219.828C668.264 221.336 667.99 223.012 668.121 224.855C668.251 226.699 668.759 228.319 669.644 229.716C670.529 231.113 671.7 232.18 673.156 232.919C674.611 233.658 676.205 233.966 677.937 233.844ZM699.896 243.066L687.327 243.957L686.549 232.98L687.776 222.957L684.896 213.224L682.764 183.143L695.584 182.235L699.896 243.066Z" fill="white"/>
<path d="M633.146 248.734L630.394 225.629C630.142 223.516 629.273 221.9 627.786 220.78C626.348 219.597 624.628 219.126 622.626 219.364C621.236 219.53 620.049 219.981 619.065 220.719C618.075 221.401 617.34 222.334 616.861 223.519C616.375 224.649 616.215 225.908 616.381 227.299L611.172 225.466C610.794 222.296 611.158 219.433 612.263 216.876C613.368 214.32 615.068 212.256 617.363 210.686C619.706 209.053 622.435 208.051 625.549 207.68C628.551 207.323 631.279 207.731 633.731 208.905C636.232 210.017 638.289 211.661 639.902 213.838C641.514 216.014 642.487 218.492 642.818 221.273L645.908 247.213L633.146 248.734ZM606.372 251.923L601.542 211.386L614.304 209.866L619.133 250.403L606.372 251.923Z" fill="white"/>
<path d="M576.013 257.598C571.649 258.324 567.608 258.087 563.889 256.888C560.216 255.625 557.147 253.552 554.681 250.669C552.216 247.786 550.648 244.328 549.978 240.295C549.308 236.263 549.65 232.516 551.005 229.055C552.407 225.53 554.585 222.585 557.542 220.22C560.498 217.856 564.021 216.334 568.109 215.655C572.086 214.994 575.736 215.268 579.059 216.475C582.382 217.683 585.152 219.664 587.369 222.418C589.642 225.162 591.104 228.496 591.756 232.418C591.875 233.136 591.948 233.919 591.975 234.766C592.049 235.548 592.062 236.483 592.015 237.569L557.309 243.42L555.863 234.719L585.184 229.763L580.32 234.318C579.88 232.007 579.204 230.161 578.293 228.779C577.373 227.343 576.186 226.348 574.732 225.794C573.324 225.177 571.68 225.024 569.802 225.336C567.813 225.667 566.151 226.425 564.816 227.612C563.526 228.735 562.605 230.193 562.051 231.988C561.553 233.774 561.502 235.855 561.896 238.23C562.291 240.606 563.045 242.581 564.158 244.156C565.317 245.666 566.748 246.762 568.451 247.445C570.2 248.062 572.152 248.192 574.306 247.834C576.295 247.504 578.035 246.874 579.527 245.945C581.01 244.961 582.244 243.677 583.23 242.094L591.347 247.898C589.744 250.549 587.63 252.688 585.005 254.316C582.38 255.945 579.383 257.039 576.013 257.598Z" fill="white"/>
<path d="M529.57 265.284L521.495 225.266L534.093 222.724L542.168 262.741L529.57 265.284ZM526.722 218.47C524.746 218.869 522.966 218.542 521.383 217.491C519.843 216.373 518.88 214.854 518.492 212.933C518.093 210.956 518.392 209.182 519.389 207.61C520.44 206.027 521.954 205.036 523.93 204.637C525.906 204.238 527.659 204.57 529.187 205.633C530.716 206.695 531.679 208.215 532.078 210.191C532.466 212.112 532.167 213.886 531.181 215.513C530.184 217.086 528.698 218.071 526.722 218.47Z" fill="white"/>
<path d="M488.311 274.591L479.014 234.84L491.529 231.913L500.826 271.664L488.311 274.591ZM495.718 249.826L489.527 246.96C489.479 242.083 490.382 238.076 492.236 234.939C494.091 231.803 497.199 229.724 501.561 228.704C503.47 228.257 505.203 228.168 506.761 228.437C508.361 228.638 509.846 229.21 511.218 230.155L505.974 241.302C505.289 240.83 504.499 240.526 503.604 240.39C502.71 240.254 501.745 240.307 500.709 240.549C498.637 241.034 497.126 242.077 496.178 243.679C495.272 245.214 495.119 247.263 495.718 249.826Z" fill="white"/>
<path d="M436.781 288.548L420.814 231.434L433.514 227.883L449.482 284.997L436.781 288.548ZM440.224 263.425L437.171 252.504L465.728 244.52L468.781 255.441L440.224 263.425ZM433.575 239.641L430.521 228.72L460.373 220.374L463.426 231.296L433.575 239.641Z" fill="white"/>
<path d="M391.617 313.85L393.741 301.059L396.968 298.807C396.868 299.729 396.642 300.545 396.293 301.256C395.925 301.913 395.397 302.359 394.707 302.594C393.17 303.117 391.549 302.959 389.843 302.12C388.138 301.28 386.96 299.906 386.311 297.998C385.607 295.93 385.692 293.92 386.565 291.966C387.491 289.995 388.988 288.657 391.056 287.954C393.017 287.286 394.966 287.451 396.903 288.448C398.874 289.374 400.221 290.898 400.943 293.018C401.231 293.866 401.406 294.901 401.467 296.123C401.528 297.344 401.388 299.019 401.047 301.146L398.611 315.107L391.617 313.85Z" fill="white"/>
<path d="M365.088 312.684L344.219 297.971L350.504 274.554L363.93 269.45L355.763 296.189L354.275 291.093L379.222 307.311L365.088 312.684ZM340.669 321.967L318.999 264.962L331.013 260.396L352.683 317.4L340.669 321.967Z" fill="white"/>
<path d="M316.198 333.224C312.34 334.884 308.477 335.541 304.609 335.194C300.74 334.847 297.264 333.569 294.18 331.361C291.095 329.152 288.756 326.196 287.162 322.492C285.546 318.737 285.007 315.006 285.546 311.3C286.113 307.519 287.601 304.105 290.008 301.057C292.415 298.009 295.573 295.644 299.483 293.961C302.415 292.7 305.311 292.063 308.171 292.051C311.061 291.966 313.889 292.516 316.655 293.703L312.348 304.519C311.053 303.918 309.715 303.641 308.332 303.687C307.001 303.711 305.59 304.044 304.098 304.686C302.401 305.417 301.05 306.456 300.044 307.803C299.068 309.077 298.482 310.548 298.286 312.218C298.12 313.813 298.413 315.486 299.165 317.235C299.918 318.984 300.942 320.372 302.238 321.399C303.585 322.405 305.094 323.005 306.763 323.201C308.433 323.397 310.09 323.141 311.736 322.432C313.279 321.768 314.532 320.924 315.494 319.901C316.485 318.804 317.207 317.578 317.661 316.225L328.399 320.565C327.33 323.464 325.794 325.984 323.79 328.127C321.763 330.219 319.233 331.918 316.198 333.224Z" fill="white"/>
<path d="M273.298 351.562L255.946 314.609L267.58 309.146L284.931 346.099L273.298 351.562ZM259.409 306.765C257.584 307.622 255.778 307.728 253.99 307.083C252.229 306.363 250.932 305.116 250.099 303.342C249.242 301.517 249.111 299.722 249.706 297.958C250.351 296.171 251.586 294.848 253.411 293.991C255.236 293.135 257.017 293.041 258.754 293.71C260.491 294.379 261.788 295.626 262.645 297.451C263.478 299.225 263.609 301.019 263.038 302.834C262.443 304.598 261.234 305.908 259.409 306.765Z" fill="white"/>
<path d="M244.918 366.634C241.578 368.344 238.268 369.19 234.987 369.171C231.73 369.076 228.766 368.203 226.096 366.55C223.4 364.848 221.248 362.426 219.64 359.286L208.846 338.2L220.286 332.344L231.004 353.28C231.642 354.526 232.39 355.496 233.248 356.189C234.156 356.856 235.161 357.222 236.264 357.287C237.366 357.352 238.516 357.078 239.712 356.465C241.407 355.598 242.485 354.385 242.946 352.828C243.382 351.221 243.114 349.471 242.145 347.576L231.427 326.64L242.867 320.784L253.623 341.794C255.256 344.985 255.975 348.171 255.78 351.354C255.56 354.486 254.535 357.401 252.708 360.099C250.854 362.746 248.258 364.925 244.918 366.634Z" fill="white"/>
<path d="M190.218 396.666C186.397 398.896 182.446 400.292 178.367 400.856C174.288 401.421 170.309 401.213 166.431 400.234C162.602 399.226 159.055 397.535 155.79 395.16C152.545 392.709 149.836 389.622 147.663 385.897C145.462 382.124 144.108 378.246 143.6 374.264C143.092 370.281 143.356 366.399 144.392 362.618C145.449 358.761 147.216 355.234 149.695 352.037C152.195 348.764 155.355 346.013 159.176 343.784C163.046 341.526 166.996 340.13 171.027 339.594C175.079 338.981 179.019 339.179 182.848 340.186C186.698 341.118 190.245 342.809 193.49 345.26C196.707 347.662 199.415 350.75 201.616 354.523C203.789 358.247 205.143 362.125 205.679 366.156C206.187 370.139 205.913 374.059 204.857 377.917C203.821 381.698 202.077 385.211 199.626 388.455C197.176 391.7 194.039 394.437 190.218 396.666ZM184.021 386.375C187.116 384.569 189.406 382.326 190.889 379.646C192.373 376.965 193.038 374.049 192.885 370.896C192.752 367.668 191.754 364.457 189.892 361.264C188.481 358.846 186.849 356.881 184.994 355.369C183.112 353.809 181.084 352.723 178.912 352.11C176.711 351.449 174.456 351.306 172.146 351.681C169.856 351.979 167.55 352.805 165.229 354.16C162.181 355.937 159.916 358.166 158.432 360.847C156.921 363.479 156.217 366.385 156.322 369.566C156.447 372.67 157.455 375.842 159.345 379.083C160.756 381.502 162.403 383.491 164.285 385.051C166.167 386.611 168.209 387.721 170.41 388.383C172.583 388.995 174.814 389.152 177.103 388.854C179.441 388.528 181.747 387.701 184.021 386.375ZM214.936 386.527L177.025 376.55L179.776 366.095L217.687 376.073L214.936 386.527Z" fill="white"/>
</svg>
