<svg width="174" height="175" viewBox="0 0 174 175" fill="none" xmlns="http://www.w3.org/2000/svg">
<g filter="url(#filter0_d_107_28683)">
<rect x="6" y="56.2383" width="120" height="120" rx="30" transform="rotate(-27.9468 6 56.2383)" fill="#6F2FF7"/>
</g>
<g clip-path="url(#clip0_107_28683)">
<path fill-rule="evenodd" clip-rule="evenodd" d="M51.4567 85.8344C59.0487 61.0843 85.2672 47.1749 110.017 54.7669C111.255 55.1465 111.95 56.4573 111.571 57.6948L110.883 59.9356C110.701 60.5299 110.29 61.0275 109.741 61.3188C109.192 61.6101 108.55 61.6714 107.955 61.4891C86.9178 55.0359 64.6321 66.8589 58.1789 87.8965C57.9966 88.4908 57.5857 88.9883 57.0366 89.2796C56.4874 89.5709 55.8451 89.6322 55.2508 89.4499L53.01 88.7624C51.7726 88.3828 51.0771 87.0719 51.4567 85.8344ZM64.901 89.9585C70.2154 72.6334 88.5683 62.8968 105.893 68.2112C107.131 68.5908 107.826 69.9017 107.447 71.1392L106.76 73.3799C106.577 73.9742 106.166 74.4717 105.617 74.763C105.068 75.0544 104.426 75.1156 103.831 74.9333C90.2189 70.7577 75.7988 78.4079 71.6232 92.0205C71.2436 93.2579 69.9327 93.9534 68.6952 93.5738L66.4544 92.8865C65.8602 92.7043 65.3626 92.2934 65.0713 91.7443C64.78 91.1951 64.7187 90.5528 64.901 89.9585ZM78.4061 94.05C81.4429 84.1499 91.9303 78.5862 101.83 81.623C103.068 82.0026 103.763 83.3135 103.384 84.551L102.696 86.7917C102.514 87.386 102.103 87.8835 101.554 88.1748C101.005 88.4661 100.363 88.5274 99.7684 88.3451C93.5808 86.4471 87.0262 89.9244 85.1282 96.1119C84.7486 97.3495 83.4377 98.0449 82.2002 97.6653L79.9595 96.978C78.722 96.5984 78.0265 95.2875 78.4061 94.05Z" fill="white"/>
</g>
<defs>
<filter id="filter0_d_107_28683" x="0.554688" y="0.955054" width="173.135" height="173.134" filterUnits="userSpaceOnUse" color-interpolation-filters="sRGB">
<feFlood flood-opacity="0" result="BackgroundImageFix"/>
<feColorMatrix in="SourceAlpha" type="matrix" values="0 0 0 0 0 0 0 0 0 0 0 0 0 0 0 0 0 0 127 0" result="hardAlpha"/>
<feOffset dy="6.4"/>
<feGaussianBlur stdDeviation="8"/>
<feComposite in2="hardAlpha" operator="out"/>
<feColorMatrix type="matrix" values="0 0 0 0 0 0 0 0 0 0 0 0 0 0 0 0 0 0 0.15 0"/>
<feBlend mode="normal" in2="BackgroundImageFix" result="effect1_dropShadow_107_28683"/>
<feBlend mode="normal" in="SourceGraphic" in2="effect1_dropShadow_107_28683" result="shape"/>
</filter>
<clipPath id="clip0_107_28683">
<rect x="35.7451" y="65.3623" width="75" height="75" rx="30" transform="rotate(-27.9468 35.7451 65.3623)" fill="white"/>
</clipPath>
</defs>
</svg>
