<svg width="1121" height="707" viewBox="0 0 1121 707" fill="none" xmlns="http://www.w3.org/2000/svg">
<path d="M199.674 516.782L0.819336 516.473C0.819336 516.473 10.7129 503.628 21.6183 502.026C21.6183 502.026 42.9231 438.955 78.4219 438.561C111.419 438.196 124.573 477.433 124.573 477.433C124.573 477.433 139.891 459.866 154.479 467.933C169.066 475.999 177.301 499.047 177.301 499.047C177.301 499.047 193.715 507.928 199.674 516.782Z" fill="#EBEBEB"/>
<path d="M648.538 630.753L900.008 631.146C900.008 631.146 900.008 615.069 865.409 611.893C865.409 611.893 833.874 541.627 785.586 550.958C755.484 556.804 740.053 598.065 740.053 598.065C740.053 598.065 717.371 565.545 699.186 571.785C681.001 578.025 670.152 612.483 670.152 612.483C670.152 612.483 651.405 621.534 648.538 630.753Z" fill="#EBEBEB"/>
<path d="M148.802 81.3524L400.272 81.7459C400.272 81.7459 400.272 65.6689 365.673 62.4648C365.673 62.4648 334.137 -7.80192 285.822 1.55761C255.748 7.37569 240.317 48.6644 240.317 48.6644C240.317 48.6644 217.635 16.1169 199.45 22.3847C181.265 28.6524 170.416 63.2237 170.416 63.2237C170.416 63.2237 151.669 72.274 148.802 81.3524Z" fill="#EBEBEB"/>
<path d="M949.278 706.134L1120.25 706.387C1120.25 706.387 1104.15 691.35 1096.98 691.322C1089.81 691.294 1068.87 640.87 1042.2 642.978C1015.53 645.086 1001.19 682.609 1001.19 682.609C1001.19 682.609 968.7 672.35 949.278 706.134Z" fill="#EBEBEB"/>
<path d="M288.66 316.465L459.661 316.746C459.661 316.746 443.528 301.681 436.361 301.681C429.194 301.681 408.254 251.089 381.581 253.309C354.908 255.53 340.601 292.94 340.601 292.94C340.601 292.94 308.082 282.709 288.66 316.465Z" fill="#EBEBEB"/>
<path d="M935.451 368.744L1081.61 368.968C1081.61 368.968 1074.33 359.496 1066.32 358.316C1066.32 358.316 1050.8 311.856 1024.72 311.49C1000.43 311.153 990.681 339.99 990.681 339.99C990.681 339.99 979.438 327.033 968.701 332.936C957.965 338.838 951.837 355.758 951.837 355.758C951.837 355.758 939.976 362.251 935.451 368.744Z" fill="#EBEBEB"/>
<path d="M193.659 625.808L339.814 626.032C339.814 626.032 332.562 616.532 324.524 615.352C324.524 615.352 309.009 568.92 282.926 568.554C258.642 568.189 248.889 597.026 248.889 597.026C248.889 597.026 237.646 584.069 226.909 589.971C216.173 595.874 210.045 612.794 210.045 612.794C210.045 612.794 197.96 619.287 193.659 625.808Z" fill="#EBEBEB"/>
<path d="M612.195 95.9965L758.35 96.2213C758.35 96.2213 751.099 86.7494 743.088 85.5689C743.088 85.5689 727.573 39.1367 701.462 38.7432C677.206 38.4059 667.425 67.2433 667.425 67.2433C667.425 67.2433 656.182 54.2862 645.474 60.1886C634.765 66.091 628.61 83.0112 628.61 83.0112C628.61 83.0112 616.58 89.5038 612.195 95.9965Z" fill="#EBEBEB"/>
</svg>
