<svg width="1280" height="344" viewBox="0 0 1280 344" fill="none" xmlns="http://www.w3.org/2000/svg">
<mask id="mask0_62_1428" style="mask-type:alpha" maskUnits="userSpaceOnUse" x="0" y="0" width="1280" height="344">
<rect width="1280" height="343.793" fill="url(#paint0_linear_62_1428)"/>
</mask>
<g mask="url(#mask0_62_1428)">
<path fill-rule="evenodd" clip-rule="evenodd" d="M88.8169 173.082C88.8169 187.478 81.5571 200.526 69.7867 210.045C103.619 216.061 131.21 235.201 143.642 260.384C152.156 257.234 161.651 255.475 171.663 255.475C194.747 255.475 215.08 264.826 226.985 279.019C238.386 271.707 252.893 267.329 268.689 267.329C300.25 267.329 326.67 284.81 333.436 308.246C333.994 308.235 334.553 308.229 335.114 308.229C371.8 308.229 401.54 331.848 401.54 360.984C401.54 390.119 371.8 413.738 335.114 413.738C303.553 413.738 277.133 396.257 270.367 372.821C269.81 372.832 269.25 372.837 268.689 372.837C245.605 372.837 225.271 363.486 213.367 349.293C201.966 356.605 187.458 360.984 171.663 360.984C153.179 360.984 136.459 354.988 124.417 345.312C105.419 362.204 77.7836 372.838 47.0208 372.838C-10.2751 372.838 -56.7227 335.95 -56.7227 290.446C-56.7227 260.778 -36.9775 234.772 -7.35429 220.265C-29.1054 211.599 -44.0344 193.725 -44.0344 173.082C-44.0344 143.947 -14.2946 120.328 22.3913 120.328C59.0771 120.328 88.8169 143.947 88.8169 173.082ZM552.17 392.145C540.082 405.238 520.574 413.738 498.566 413.738C461.88 413.738 432.14 390.119 432.14 360.984C432.14 331.848 461.88 308.229 498.566 308.229C507.75 308.229 516.499 309.71 524.455 312.386C537.086 286.044 569.185 267.329 606.787 267.329C621.274 267.329 634.944 270.107 646.999 275.028C655.84 243.818 690.953 220.503 732.922 220.503C775.534 220.503 811.077 244.537 819.233 276.467C822.763 274.868 826.446 273.458 830.26 272.254C828.593 266.878 827.709 261.258 827.709 255.474C827.709 216.845 867.139 185.53 915.779 185.53C964.419 185.53 1003.85 216.845 1003.85 255.474C1003.85 256.139 1003.84 256.802 1003.81 257.463C1010.52 256.163 1017.53 255.475 1024.75 255.475C1038.47 255.475 1051.47 257.969 1063.05 262.418C1079.98 227.168 1122.94 202.128 1173.27 202.128C1185.47 202.128 1197.24 203.599 1208.31 206.331C1219.39 186.069 1244.81 171.898 1274.4 171.898C1314.18 171.898 1346.43 197.507 1346.43 229.098C1346.43 256.32 1322.48 279.101 1290.41 284.881C1290.93 288.457 1291.2 292.094 1291.2 295.781C1291.2 347.505 1238.4 389.435 1173.27 389.435C1143.72 389.435 1116.7 380.8 1096 366.532C1079.99 384.005 1054.04 395.363 1024.75 395.363C990.984 395.363 961.658 380.274 946.878 358.123C935.707 386.569 902.283 407.217 862.787 407.217C820.176 407.217 784.633 383.183 776.477 351.253C763.632 357.068 748.766 360.391 732.922 360.391C718.435 360.391 704.765 357.613 692.711 352.691C683.869 383.902 648.757 407.217 606.787 407.217C586.156 407.217 567.181 401.582 552.17 392.145Z" fill="#455A64"/>
</g>
<defs>
<linearGradient id="paint0_linear_62_1428" x1="0.000122326" y1="3.01333" x2="530.614" y2="828.502" gradientUnits="userSpaceOnUse">
<stop stop-color="#CF4258"/>
<stop offset="1" stop-color="#F38D56"/>
</linearGradient>
</defs>
</svg>
