<svg width="168" height="168" viewBox="0 0 168 168" fill="none" xmlns="http://www.w3.org/2000/svg">
<path d="M83.8064 167.613C130.091 167.613 167.613 130.091 167.613 83.8064C167.613 37.5214 130.091 0 83.8064 0C37.5214 0 0 37.5214 0 83.8064C0 130.091 37.5214 167.613 83.8064 167.613Z" fill="#EBEBEB"/>
<path d="M114.313 34.083C114.507 38.0669 113.42 42.0083 111.21 45.329C108.988 48.8082 105.84 51.5986 102.119 53.3865C98.2991 55.311 93.8825 55.6816 89.7955 54.4206C85.9134 53.2057 82.5862 50.6568 80.4023 47.2249C83.3978 49.3987 86.8436 50.8713 90.4849 51.5337C92.1788 51.8574 93.9186 51.8574 95.6124 51.5337C97.3078 51.2796 98.9515 50.7559 100.481 49.9825C101.294 49.5942 102.085 49.1627 102.851 48.6899C103.603 48.237 104.323 47.7331 105.006 47.1818C106.454 46.1212 107.77 44.8917 108.927 43.5193C111.314 40.7505 113.142 37.5463 114.313 34.083Z" fill="#C7C7C7"/>
<path d="M84.194 38.9093C83.8228 36.1189 84.432 33.2861 85.9175 30.8949C87.4324 28.4142 89.632 26.4241 92.2515 25.1642C94.9342 23.8423 98.0284 23.6257 100.869 24.561C103.565 25.4664 105.804 27.3816 107.117 29.9039C105.002 28.5842 102.642 27.7049 100.18 27.3186C97.9622 27.0569 95.7165 27.4462 93.7165 28.4389C89.3669 30.6448 85.9784 34.3706 84.194 38.9093Z" fill="#C7C7C7"/>
<path d="M83.8062 123.189C84.8483 125.746 84.9248 128.595 84.0216 131.204C83.1296 133.893 81.4479 136.25 79.1958 137.969C78.0361 138.875 76.7066 139.541 75.2858 139.925C73.865 140.31 72.3815 140.407 70.9228 140.209C68.1845 139.824 65.6842 138.443 63.8994 136.331C66.2032 137.098 68.6253 137.449 71.0521 137.365C73.2 137.195 75.2515 136.401 76.9551 135.082C78.694 133.703 80.156 132.007 81.2639 130.084C82.5211 127.958 83.3826 125.622 83.8062 123.189Z" fill="#C7C7C7"/>
<path d="M66.4416 132.712C65.5254 130.991 65.3243 128.978 65.8816 127.11C66.451 125.157 67.6283 123.436 69.2424 122.198C70.0791 121.541 71.0447 121.067 72.0765 120.807C73.1084 120.547 74.1834 120.507 75.2316 120.69C76.1997 120.849 77.1245 121.207 77.9476 121.741C78.7707 122.275 79.4745 122.973 80.0145 123.792C78.3996 123.459 76.7434 123.372 75.1024 123.534C73.7862 123.744 72.5426 124.277 71.483 125.085C69.0206 127.014 67.2513 129.69 66.4416 132.712Z" fill="#C7C7C7"/>
<path d="M53.6027 47.8271C54.3484 48.515 54.9467 49.347 55.3614 50.2727C55.7762 51.1985 55.9987 52.1989 56.0156 53.2132C56.0345 55.4163 55.1828 57.5377 53.6458 59.1162C52.8474 59.9141 51.8772 60.5191 50.8094 60.885C49.7415 61.2509 48.6041 61.3681 47.4841 61.2276C45.5047 61.0081 43.6624 60.1097 42.2705 58.6853C44.0044 58.724 45.7376 58.5796 47.4411 58.2545C48.8016 58.0667 50.0603 57.4297 51.0174 56.4448C52.0342 55.4432 52.7762 54.1967 53.1718 52.8254C53.5812 51.1929 53.7267 49.5055 53.6027 47.8271Z" fill="#C7C7C7"/>
<path d="M43.2174 55.9716C42.6143 55.5412 42.1154 54.9809 41.7575 54.3322C41.3996 53.6834 41.1916 52.9627 41.1491 52.223C41.1115 51.4308 41.2374 50.6394 41.5191 49.8981C41.8008 49.1567 42.2323 48.4814 42.7865 47.9141C43.3467 47.3715 44.0174 46.9559 44.7527 46.6958C45.488 46.4356 46.2707 46.3369 47.0475 46.4064C47.8244 46.4759 48.5771 46.712 49.2545 47.0986C49.932 47.4851 50.5181 48.0131 50.9732 48.6466C49.7808 48.7941 48.6003 49.0244 47.44 49.3361C46.6708 49.53 45.97 49.9326 45.4149 50.4994C44.8155 51.1101 44.3335 51.8258 43.9929 52.6108C43.5854 53.6914 43.3246 54.8217 43.2174 55.9716Z" fill="#C7C7C7"/>
<path d="M111.857 136.159C111.358 137.039 110.69 137.813 109.892 138.434C109.093 139.055 108.179 139.512 107.203 139.778C106.144 140.064 105.037 140.136 103.949 139.988C102.862 139.84 101.814 139.476 100.869 138.917C99.9101 138.336 99.0941 137.546 98.4823 136.606C97.8706 135.666 97.4788 134.6 97.3362 133.488C97.0757 131.501 97.4851 129.484 98.4995 127.757C98.8955 129.454 99.4435 131.113 100.137 132.712C100.662 133.988 101.583 135.06 102.765 135.771C103.998 136.488 105.39 136.888 106.816 136.935C108.527 136.948 110.229 136.686 111.857 136.159Z" fill="#C7C7C7"/>
<path d="M101.429 128.058C101.676 127.366 102.082 126.741 102.613 126.232C103.144 125.724 103.786 125.346 104.488 125.128C105.266 124.887 106.087 124.813 106.896 124.909C107.705 125.006 108.485 125.271 109.185 125.688C109.908 126.103 110.518 126.689 110.962 127.396C111.405 128.102 111.668 128.907 111.727 129.738C111.801 130.463 111.728 131.195 111.514 131.891C111.299 132.586 110.946 133.232 110.477 133.789C110.048 132.665 109.544 131.571 108.969 130.514C108.574 129.824 108.011 129.246 107.332 128.834C106.596 128.382 105.774 128.088 104.919 127.972C103.757 127.832 102.582 127.861 101.429 128.058Z" fill="#C7C7C7"/>
<path d="M140.553 77.1699C140.65 78.1777 140.54 79.1946 140.229 80.158C139.917 81.1214 139.412 82.0108 138.744 82.7714C138.04 83.6084 137.172 84.2924 136.194 84.7815C135.216 85.2706 134.148 85.5543 133.056 85.6152C131.932 85.6934 130.805 85.5083 129.766 85.0744C128.726 84.6406 127.802 83.97 127.067 83.1161C125.716 81.6358 124.924 79.7313 124.826 77.7301C126.086 78.9332 127.457 80.0151 128.919 80.9617C130.093 81.6917 131.459 82.052 132.84 81.9958C134.266 81.8899 135.644 81.4308 136.848 80.66C138.277 79.7218 139.531 78.5406 140.553 77.1699Z" fill="#C7C7C7"/>
<path d="M127.37 76.352C127.171 75.6132 127.15 74.8381 127.307 74.0895C127.464 73.3409 127.796 72.6399 128.274 72.0432C128.791 71.3872 129.444 70.8509 130.188 70.4716C130.931 70.0922 131.749 69.8787 132.583 69.8458C133.404 69.8033 134.223 69.9571 134.972 70.2943C135.721 70.6315 136.379 71.1424 136.892 71.7847C137.358 72.335 137.708 72.9732 137.923 73.6616C138.138 74.3499 138.212 75.0743 138.142 75.7919C137.145 75.1258 136.109 74.5214 135.039 73.9822C134.323 73.6094 133.517 73.4452 132.712 73.5083C131.858 73.5495 131.021 73.7697 130.256 74.1546C129.19 74.739 128.217 75.4797 127.37 76.352Z" fill="#C7C7C7"/>
<path d="M29.5592 96.1729C29.6536 97.1805 29.5418 98.1968 29.2307 99.1598C28.9196 100.123 28.4156 101.012 27.7495 101.774C27.0424 102.607 26.1739 103.289 25.1964 103.778C24.219 104.266 23.1527 104.552 22.0619 104.618C20.939 104.686 19.8154 104.497 18.7773 104.063C17.7391 103.63 16.814 102.965 16.0727 102.119C14.7224 100.639 13.9301 98.7342 13.832 96.733C15.1629 97.9313 16.6058 98.9991 18.1408 99.9215C19.2922 100.666 20.6494 101.028 22.0187 100.956C23.4408 100.863 24.8177 100.419 26.026 99.663C27.3731 98.6845 28.5642 97.5078 29.5592 96.1729Z" fill="#C7C7C7"/>
<path d="M16.4161 95.3543C16.2213 94.6152 16.2017 93.8409 16.3588 93.0928C16.5159 92.3448 16.8453 91.6438 17.3209 91.0455C17.8397 90.3952 18.4939 89.8656 19.238 89.4935C19.9821 89.1215 20.7982 88.9159 21.6297 88.8911C22.4512 88.8414 23.2725 88.9919 24.0231 89.3297C24.7736 89.6674 25.4309 90.1823 25.9385 90.8301C26.4003 91.3829 26.7485 92.0214 26.9629 92.7091C27.1773 93.3967 27.2538 94.1199 27.1881 94.8373C26.1914 94.1591 25.1555 93.5404 24.0858 92.9845C23.3585 92.645 22.5611 92.4826 21.759 92.5105C20.9075 92.573 20.075 92.7921 19.3031 93.1568C18.2498 93.7614 17.2794 94.5001 16.4161 95.3543Z" fill="#C7C7C7"/>
<path d="M143.095 143.095C132.017 154.132 118.07 161.847 102.834 165.368C87.5982 168.888 71.6809 168.073 56.8839 163.016C42.0868 157.958 29.0011 148.859 19.1079 136.748C9.2146 124.638 2.90878 110 0.904297 94.4919C4.14614 107.989 10.9508 120.368 20.6081 130.338C30.2654 140.309 42.4215 147.505 55.808 151.176C69.1945 154.846 83.3207 154.857 96.7129 151.207C110.105 147.557 122.272 140.38 131.945 130.424C141.618 120.469 148.441 108.1 151.704 94.608C154.966 81.1162 154.548 66.9961 150.493 53.7209C146.439 40.4458 138.895 28.5021 128.651 19.1362C118.406 9.77019 105.836 3.32518 92.2511 0.473633C108.048 2.02443 123.079 8.03178 135.594 17.7959C148.108 27.5599 157.591 40.6788 162.937 55.6243C168.283 70.5698 169.272 86.7267 165.79 102.213C162.308 117.699 154.497 131.877 143.267 143.095H143.095Z" fill="#DBDBDB"/>
</svg>
