<svg width="81" height="80" viewBox="0 0 81 80" fill="none" xmlns="http://www.w3.org/2000/svg">
<path d="M71.6704 39.6651C71.6704 38.828 71.3356 38.058 70.6661 37.4218L48.4673 15.2901C47.7307 14.5535 47.0276 14.2856 46.2241 14.2856C44.5833 14.2856 43.311 15.491 43.311 17.1651C43.311 17.9687 43.579 18.7388 44.1147 19.2745L51.6147 26.9084L64.907 39.029L65.5767 37.3548L54.7956 36.6852H12.4406C10.6995 36.6852 9.49414 37.924 9.49414 39.6651C9.49414 41.4062 10.6995 42.645 12.4406 42.645H54.7956L65.5767 41.9754L64.907 40.3348L51.6147 52.4219L44.1147 60.0556C43.579 60.5579 43.311 61.3616 43.311 62.1651C43.311 63.8394 44.5833 65.0445 46.2241 65.0445C47.0276 65.0445 47.7307 64.7434 48.4004 64.1071L70.6661 41.9084C71.3356 41.2722 71.6704 40.5022 71.6704 39.6651Z" fill="#6A6A6A"/>
</svg>
