<svg width="295" height="181" viewBox="0 0 295 181" fill="none" xmlns="http://www.w3.org/2000/svg">
<g clip-path="url(#clip0_72_1655)">
<rect width="295" height="180.651" rx="19.2182" fill="#171717"/>
<path d="M274.474 37.4756C251.583 37.4756 233.024 56.2293 233.024 79.3613C233.024 89.9526 236.919 99.6331 243.343 107.004C243.399 107.079 243.462 107.152 243.533 107.223L244.145 107.91L274.473 141.497L297.36 116.148L290.576 109.293C285.788 111.93 280.301 113.432 274.473 113.432C255.867 113.432 240.732 98.1383 240.732 79.3366C240.732 60.535 255.867 45.2415 274.473 45.2415C293.079 45.2415 308.213 60.535 308.213 79.3366C308.213 84.7986 306.937 89.9671 304.667 94.5459L310.368 100.307C313.899 94.1464 315.918 86.9906 315.918 79.3599C315.92 56.2293 297.365 37.4756 274.474 37.4756Z" fill="url(#paint0_linear_72_1655)"/>
<path d="M295.405 94.645C298.5 90.3422 300.322 85.0531 300.322 79.3398C300.322 64.9368 288.727 53.2197 274.474 53.2197C260.221 53.2197 248.626 64.9368 248.626 79.3398C248.626 93.7429 260.221 105.46 274.474 105.46C280.546 105.46 286.141 103.33 290.557 99.7743L301.904 111.112L306.573 105.931L295.405 94.645ZM254.953 79.3398C254.953 68.4566 263.71 59.6114 274.476 59.6114C285.241 59.6114 293.999 68.4566 293.999 79.3398C293.999 90.2231 285.241 99.0683 274.476 99.0683C263.71 99.0683 254.953 90.2187 254.953 79.3398Z" fill="url(#paint1_linear_72_1655)"/>
<path d="M49.9754 122.952V121.169H52.2662C52.7479 121.169 53.1169 121.046 53.3732 120.8C53.6397 120.554 53.7729 120.221 53.7729 119.8C53.7729 119.411 53.6448 119.088 53.3885 118.832C53.1323 118.576 52.7633 118.448 52.2816 118.448H49.9754V116.572H52.5583C53.2758 116.572 53.9062 116.71 54.4494 116.987C54.9926 117.253 55.418 117.628 55.7255 118.109C56.033 118.591 56.1867 119.144 56.1867 119.77C56.1867 120.405 56.033 120.964 55.7255 121.446C55.418 121.917 54.9875 122.286 54.434 122.553C53.8805 122.819 53.2297 122.952 52.4814 122.952H49.9754ZM48.1304 127.426V116.572H50.5442V127.426H48.1304ZM54.0343 127.426L50.6519 122.752L52.8658 122.153L56.894 127.426H54.0343ZM61.1005 127.595C60.4137 127.595 59.8039 127.457 59.2709 127.18C58.7482 126.893 58.3382 126.504 58.0409 126.012C57.7437 125.51 57.5951 124.936 57.5951 124.29V119.954H59.9474V124.259C59.9474 124.515 59.9884 124.736 60.0704 124.92C60.1626 125.105 60.2959 125.248 60.4701 125.351C60.6443 125.453 60.8545 125.504 61.1005 125.504C61.449 125.504 61.7257 125.397 61.9307 125.182C62.1357 124.956 62.2382 124.649 62.2382 124.259V119.954H64.5905V124.274C64.5905 124.93 64.4419 125.51 64.1446 126.012C63.8474 126.504 63.4374 126.893 62.9147 127.18C62.3919 127.457 61.7872 127.595 61.1005 127.595ZM68.7887 127.611C68.348 127.611 67.9124 127.554 67.4819 127.442C67.0616 127.329 66.667 127.17 66.298 126.965C65.9393 126.75 65.6318 126.504 65.3756 126.227L66.7131 124.874C66.9591 125.141 67.2513 125.351 67.5895 125.504C67.9277 125.648 68.2967 125.72 68.6965 125.72C68.9732 125.72 69.1833 125.679 69.3268 125.597C69.4806 125.515 69.5574 125.402 69.5574 125.258C69.5574 125.074 69.4652 124.936 69.2807 124.843C69.1065 124.741 68.881 124.654 68.6042 124.582C68.3275 124.5 68.0354 124.413 67.7279 124.321C67.4204 124.228 67.1283 124.1 66.8515 123.936C66.5748 123.772 66.3493 123.547 66.175 123.26C66.0008 122.963 65.9137 122.588 65.9137 122.137C65.9137 121.656 66.0367 121.241 66.2827 120.892C66.5287 120.533 66.8771 120.251 67.3281 120.046C67.7791 119.841 68.307 119.739 68.9117 119.739C69.5472 119.739 70.1314 119.852 70.6644 120.077C71.2077 120.292 71.6484 120.615 71.9866 121.046L70.649 122.399C70.4133 122.122 70.1468 121.927 69.8496 121.815C69.5626 121.702 69.2807 121.645 69.004 121.645C68.7375 121.645 68.5376 121.686 68.4044 121.768C68.2711 121.84 68.2045 121.948 68.2045 122.091C68.2045 122.245 68.2916 122.368 68.4659 122.46C68.6401 122.553 68.8656 122.635 69.1423 122.706C69.4191 122.778 69.7112 122.865 70.0187 122.968C70.3262 123.07 70.6183 123.209 70.895 123.383C71.1718 123.557 71.3973 123.793 71.5715 124.09C71.7458 124.377 71.8329 124.756 71.8329 125.228C71.8329 125.955 71.5561 126.535 71.0027 126.965C70.4594 127.396 69.7214 127.611 68.7887 127.611ZM78.0443 127.426V123.168C78.0443 122.778 77.9213 122.465 77.6754 122.23C77.4396 121.984 77.1372 121.861 76.7683 121.861C76.512 121.861 76.2865 121.917 76.0918 122.03C75.897 122.132 75.7433 122.286 75.6305 122.491C75.5178 122.686 75.4614 122.911 75.4614 123.168L74.5543 122.722C74.5543 122.137 74.6773 121.625 74.9233 121.184C75.1693 120.743 75.5127 120.405 75.9534 120.169C76.3941 119.923 76.9015 119.8 77.4755 119.8C78.0597 119.8 78.5722 119.923 79.0129 120.169C79.4537 120.405 79.7919 120.738 80.0277 121.169C80.2737 121.589 80.3967 122.081 80.3967 122.645V127.426H78.0443ZM73.1091 127.426V116.264H75.4614V127.426H73.1091ZM81.9074 127.426V119.954H84.2598V127.426H81.9074ZM83.0913 118.924C82.7223 118.924 82.4148 118.801 82.1688 118.555C81.9331 118.299 81.8152 117.991 81.8152 117.633C81.8152 117.264 81.9331 116.956 82.1688 116.71C82.4148 116.464 82.7223 116.341 83.0913 116.341C83.4603 116.341 83.7626 116.464 83.9984 116.71C84.2341 116.956 84.352 117.264 84.352 117.633C84.352 117.991 84.2341 118.299 83.9984 118.555C83.7626 118.801 83.4603 118.924 83.0913 118.924ZM85.9163 127.426V116.264H88.2686V127.426H85.9163ZM93.0681 127.426V116.572H94.79L99.0642 123.229L98.1878 123.229L102.447 116.572H104.184V127.426H101.77V120.646L102.201 120.754L99.4178 125.089L97.8188 125.089L95.0514 120.754L95.4665 120.646V127.426H93.0681ZM109.171 127.58C108.485 127.58 107.87 127.411 107.326 127.073C106.793 126.734 106.368 126.273 106.05 125.689C105.743 125.105 105.589 124.438 105.589 123.69C105.589 122.942 105.743 122.276 106.05 121.692C106.368 121.107 106.793 120.646 107.326 120.308C107.87 119.97 108.485 119.8 109.171 119.8C109.674 119.8 110.125 119.898 110.524 120.093C110.934 120.287 111.267 120.559 111.524 120.907C111.78 121.246 111.923 121.635 111.954 122.076V125.305C111.923 125.745 111.78 126.14 111.524 126.488C111.278 126.827 110.95 127.093 110.54 127.288C110.13 127.483 109.674 127.58 109.171 127.58ZM109.648 125.458C110.15 125.458 110.555 125.294 110.863 124.966C111.17 124.628 111.324 124.203 111.324 123.69C111.324 123.342 111.252 123.034 111.109 122.768C110.975 122.501 110.781 122.296 110.524 122.153C110.278 121.999 109.991 121.922 109.663 121.922C109.335 121.922 109.043 121.999 108.787 122.153C108.541 122.296 108.341 122.501 108.187 122.768C108.044 123.034 107.972 123.342 107.972 123.69C107.972 124.028 108.044 124.331 108.187 124.597C108.331 124.864 108.531 125.074 108.787 125.228C109.043 125.381 109.33 125.458 109.648 125.458ZM111.232 127.426V125.412L111.585 123.598L111.232 121.784V119.954H113.538V127.426H111.232ZM120.129 127.426V123.168C120.129 122.778 120.006 122.465 119.76 122.23C119.525 121.984 119.222 121.861 118.853 121.861C118.597 121.861 118.371 121.917 118.177 122.03C117.982 122.132 117.828 122.286 117.715 122.491C117.603 122.686 117.546 122.911 117.546 123.168L116.639 122.722C116.639 122.137 116.762 121.625 117.008 121.184C117.254 120.743 117.598 120.405 118.038 120.169C118.479 119.923 118.986 119.8 119.56 119.8C120.145 119.8 120.657 119.923 121.098 120.169C121.539 120.405 121.877 120.738 122.113 121.169C122.359 121.589 122.482 122.081 122.482 122.645V127.426H120.129ZM115.194 127.426V116.264H117.546V127.426H115.194ZM123.992 127.426V119.954H126.345V127.426H123.992ZM125.176 118.924C124.807 118.924 124.5 118.801 124.254 118.555C124.018 118.299 123.9 117.991 123.9 117.633C123.9 117.264 124.018 116.956 124.254 116.71C124.5 116.464 124.807 116.341 125.176 116.341C125.545 116.341 125.848 116.464 126.083 116.71C126.319 116.956 126.437 117.264 126.437 117.633C126.437 117.991 126.319 118.299 126.083 118.555C125.848 118.801 125.545 118.924 125.176 118.924ZM132.936 127.426V123.168C132.936 122.778 132.813 122.465 132.567 122.23C132.332 121.984 132.029 121.861 131.66 121.861C131.404 121.861 131.179 121.917 130.984 122.03C130.789 122.132 130.635 122.286 130.523 122.491C130.41 122.686 130.354 122.911 130.354 123.168L129.446 122.722C129.446 122.137 129.575 121.625 129.831 121.184C130.087 120.743 130.441 120.405 130.892 120.169C131.353 119.923 131.87 119.8 132.444 119.8C132.998 119.8 133.485 119.934 133.905 120.2C134.336 120.456 134.674 120.8 134.92 121.23C135.166 121.661 135.289 122.132 135.289 122.645V127.426H132.936ZM128.001 127.426V119.954H130.354V127.426H128.001ZM139.982 127.58C139.275 127.58 138.645 127.411 138.091 127.073C137.548 126.734 137.117 126.273 136.8 125.689C136.492 125.105 136.338 124.438 136.338 123.69C136.338 122.942 136.492 122.276 136.8 121.692C137.117 121.107 137.548 120.646 138.091 120.308C138.645 119.97 139.275 119.8 139.982 119.8C140.495 119.8 140.956 119.898 141.366 120.093C141.786 120.287 142.129 120.559 142.396 120.907C142.673 121.246 142.826 121.635 142.857 122.076V125.228C142.826 125.668 142.678 126.068 142.411 126.427C142.145 126.775 141.801 127.057 141.381 127.273C140.961 127.478 140.495 127.58 139.982 127.58ZM140.397 125.458C140.735 125.458 141.028 125.387 141.274 125.243C141.52 125.089 141.714 124.879 141.858 124.613C142.001 124.346 142.073 124.039 142.073 123.69C142.073 123.342 142.001 123.039 141.858 122.783C141.725 122.517 141.53 122.307 141.274 122.153C141.028 121.999 140.741 121.922 140.413 121.922C140.085 121.922 139.792 121.999 139.536 122.153C139.29 122.307 139.09 122.517 138.937 122.783C138.793 123.05 138.721 123.352 138.721 123.69C138.721 124.028 138.793 124.331 138.937 124.597C139.08 124.864 139.28 125.074 139.536 125.228C139.792 125.381 140.079 125.458 140.397 125.458ZM144.287 127.426H141.981V125.412L142.334 123.598L141.935 121.784V116.264H144.287V127.426ZM145.943 127.426V119.954H148.296V127.426H145.943ZM148.296 123.321L147.312 122.553C147.506 121.681 147.834 121.005 148.296 120.523C148.757 120.041 149.397 119.8 150.217 119.8C150.576 119.8 150.889 119.857 151.155 119.97C151.432 120.072 151.673 120.236 151.878 120.462L150.479 122.23C150.376 122.117 150.248 122.03 150.094 121.968C149.941 121.907 149.766 121.876 149.572 121.876C149.182 121.876 148.87 121.999 148.634 122.245C148.408 122.481 148.296 122.84 148.296 123.321ZM155.415 127.58C154.729 127.58 154.114 127.411 153.57 127.073C153.037 126.734 152.612 126.273 152.294 125.689C151.987 125.105 151.833 124.438 151.833 123.69C151.833 122.942 151.987 122.276 152.294 121.692C152.612 121.107 153.037 120.646 153.57 120.308C154.114 119.97 154.729 119.8 155.415 119.8C155.918 119.8 156.369 119.898 156.768 120.093C157.178 120.287 157.511 120.559 157.768 120.907C158.024 121.246 158.167 121.635 158.198 122.076V125.305C158.167 125.745 158.024 126.14 157.768 126.488C157.522 126.827 157.194 127.093 156.784 127.288C156.374 127.483 155.918 127.58 155.415 127.58ZM155.892 125.458C156.394 125.458 156.799 125.294 157.107 124.966C157.414 124.628 157.568 124.203 157.568 123.69C157.568 123.342 157.496 123.034 157.352 122.768C157.219 122.501 157.025 122.296 156.768 122.153C156.522 121.999 156.235 121.922 155.907 121.922C155.579 121.922 155.287 121.999 155.031 122.153C154.785 122.296 154.585 122.501 154.431 122.768C154.288 123.034 154.216 123.342 154.216 123.69C154.216 124.028 154.288 124.331 154.431 124.597C154.575 124.864 154.775 125.074 155.031 125.228C155.287 125.381 155.574 125.458 155.892 125.458ZM157.475 127.426V125.412L157.829 123.598L157.475 121.784V119.954H159.782V127.426H157.475ZM51.3898 146.595C50.4981 146.595 49.7294 146.452 49.0837 146.165C48.4482 145.868 47.8639 145.422 47.331 144.827L48.8992 143.274C49.2477 143.674 49.632 143.987 50.0523 144.212C50.4827 144.428 50.9799 144.535 51.5436 144.535C52.0561 144.535 52.4507 144.443 52.7274 144.258C53.0144 144.074 53.1579 143.818 53.1579 143.49C53.1579 143.192 53.0657 142.952 52.8812 142.767C52.6967 142.583 52.4507 142.424 52.1432 142.291C51.846 142.157 51.5128 142.029 51.1439 141.906C50.7851 141.783 50.4264 141.645 50.0676 141.491C49.7089 141.327 49.3758 141.127 49.0683 140.891C48.771 140.645 48.5302 140.343 48.3457 139.984C48.1612 139.615 48.0689 139.154 48.0689 138.601C48.0689 137.934 48.2278 137.36 48.5455 136.879C48.8735 136.397 49.3245 136.033 49.8985 135.787C50.4725 135.531 51.1336 135.403 51.8818 135.403C52.6403 135.403 53.3322 135.536 53.9574 135.802C54.5929 136.069 55.1156 136.433 55.5256 136.894L53.9574 138.447C53.6294 138.109 53.2963 137.857 52.9581 137.694C52.6301 137.53 52.2559 137.448 51.8357 137.448C51.4155 137.448 51.0824 137.53 50.8364 137.694C50.5904 137.847 50.4674 138.073 50.4674 138.37C50.4674 138.647 50.5596 138.872 50.7441 139.046C50.9286 139.21 51.1695 139.354 51.4667 139.477C51.7742 139.6 52.1073 139.723 52.4661 139.846C52.8351 139.969 53.1989 140.112 53.5577 140.276C53.9164 140.44 54.2444 140.651 54.5416 140.907C54.8491 141.153 55.0951 141.471 55.2796 141.86C55.4641 142.239 55.5564 142.711 55.5564 143.274C55.5564 144.31 55.1874 145.125 54.4494 145.719C53.7114 146.303 52.6916 146.595 51.3898 146.595ZM60.5236 146.595C59.7138 146.595 58.9912 146.431 58.3557 146.103C57.7305 145.765 57.2385 145.299 56.8798 144.704C56.521 144.11 56.3417 143.438 56.3417 142.69C56.3417 141.942 56.5159 141.276 56.8644 140.692C57.2231 140.097 57.7049 139.631 58.3096 139.292C58.9143 138.954 59.596 138.785 60.3544 138.785C61.0924 138.785 61.7433 138.944 62.307 139.262C62.8707 139.579 63.3115 140.02 63.6292 140.584C63.9572 141.148 64.1212 141.793 64.1212 142.521C64.1212 142.654 64.111 142.798 64.0905 142.952C64.0802 143.095 64.0546 143.264 64.0136 143.459L57.5716 143.474V141.86L63.0142 141.845L61.9995 142.521C61.9893 142.091 61.9226 141.737 61.7996 141.46C61.6767 141.173 61.4922 140.958 61.2462 140.815C61.0104 140.661 60.7183 140.584 60.3698 140.584C60.0008 140.584 59.678 140.671 59.4012 140.845C59.1347 141.009 58.9246 141.245 58.7709 141.553C58.6274 141.86 58.5556 142.234 58.5556 142.675C58.5556 143.116 58.6325 143.495 58.7862 143.813C58.9502 144.12 59.1757 144.361 59.4627 144.535C59.76 144.699 60.1084 144.781 60.5082 144.781C60.8772 144.781 61.2103 144.72 61.5075 144.597C61.8048 144.463 62.0661 144.269 62.2916 144.012L63.5831 145.304C63.2141 145.734 62.7682 146.057 62.2455 146.273C61.7228 146.488 61.1488 146.595 60.5236 146.595ZM70.1919 146.426V142.168C70.1919 141.778 70.0689 141.465 69.8229 141.23C69.5872 140.984 69.2848 140.861 68.9158 140.861C68.6596 140.861 68.4341 140.917 68.2393 141.03C68.0446 141.132 67.8908 141.286 67.7781 141.491C67.6653 141.686 67.609 141.911 67.609 142.168L66.7019 141.722C66.7019 141.137 66.8249 140.625 67.0709 140.184C67.3168 139.743 67.6602 139.405 68.1009 139.169C68.5417 138.923 69.049 138.8 69.623 138.8C70.2073 138.8 70.7198 138.923 71.1605 139.169C71.6012 139.405 71.9395 139.738 72.1752 140.169C72.4212 140.589 72.5442 141.081 72.5442 141.645V146.426H70.1919ZM65.2566 146.426V135.264H67.609V146.426H65.2566ZM77.2222 149.778C76.4022 149.778 75.6796 149.634 75.0543 149.347C74.4394 149.071 73.9525 148.676 73.5938 148.164L75.039 146.718C75.3055 147.036 75.6027 147.277 75.9307 147.441C76.2689 147.605 76.6738 147.687 77.1453 147.687C77.7295 147.687 78.1856 147.543 78.5136 147.256C78.8519 146.97 79.021 146.565 79.021 146.042V144.135L79.4207 142.506L79.0671 140.876V138.954H81.3733V145.98C81.3733 146.749 81.1939 147.415 80.8352 147.979C80.4765 148.543 79.9845 148.984 79.3592 149.301C78.734 149.619 78.0216 149.778 77.2222 149.778ZM77.1145 146.196C76.4278 146.196 75.818 146.032 75.285 145.704C74.752 145.376 74.3317 144.93 74.0242 144.366C73.7168 143.802 73.563 143.177 73.563 142.49C73.563 141.793 73.7168 141.168 74.0242 140.615C74.3317 140.051 74.752 139.61 75.285 139.292C75.818 138.964 76.4278 138.8 77.1145 138.8C77.627 138.8 78.0831 138.898 78.4829 139.093C78.8929 139.277 79.2209 139.544 79.4669 139.892C79.7231 140.23 79.8666 140.625 79.8973 141.076V143.92C79.8666 144.361 79.7231 144.756 79.4669 145.104C79.2209 145.442 78.8929 145.709 78.4829 145.904C78.0729 146.098 77.6168 146.196 77.1145 146.196ZM77.5604 144.105C77.8884 144.105 78.1703 144.033 78.406 143.889C78.652 143.746 78.8365 143.556 78.9595 143.321C79.0927 143.075 79.1594 142.798 79.1594 142.49C79.1594 142.183 79.0927 141.906 78.9595 141.66C78.8365 141.414 78.652 141.219 78.406 141.076C78.1703 140.932 77.8884 140.861 77.5604 140.861C77.2427 140.861 76.9608 140.932 76.7148 141.076C76.4688 141.219 76.2792 141.414 76.1459 141.66C76.0127 141.906 75.9461 142.183 75.9461 142.49C75.9461 142.777 76.0127 143.049 76.1459 143.305C76.2792 143.551 76.4637 143.746 76.6994 143.889C76.9454 144.033 77.2324 144.105 77.5604 144.105ZM86.1546 146.58C85.4678 146.58 84.8528 146.411 84.3096 146.073C83.7766 145.734 83.3513 145.273 83.0335 144.689C82.726 144.105 82.5723 143.438 82.5723 142.69C82.5723 141.942 82.726 141.276 83.0335 140.692C83.3513 140.107 83.7766 139.646 84.3096 139.308C84.8528 138.97 85.4678 138.8 86.1546 138.8C86.6568 138.8 87.1078 138.898 87.5075 139.093C87.9175 139.287 88.2506 139.559 88.5069 139.907C88.7631 140.246 88.9066 140.635 88.9374 141.076V144.305C88.9066 144.745 88.7631 145.14 88.5069 145.488C88.2609 145.827 87.9329 146.093 87.5229 146.288C87.1129 146.483 86.6568 146.58 86.1546 146.58ZM86.6312 144.458C87.1334 144.458 87.5383 144.294 87.8458 143.966C88.1533 143.628 88.307 143.203 88.307 142.69C88.307 142.342 88.2353 142.034 88.0918 141.768C87.9585 141.501 87.7638 141.296 87.5075 141.153C87.2615 140.999 86.9745 140.922 86.6465 140.922C86.3186 140.922 86.0264 140.999 85.7702 141.153C85.5242 141.296 85.3243 141.501 85.1706 141.768C85.0271 142.034 84.9553 142.342 84.9553 142.69C84.9553 143.028 85.0271 143.331 85.1706 143.597C85.3141 143.864 85.514 144.074 85.7702 144.228C86.0264 144.381 86.3134 144.458 86.6312 144.458ZM88.2148 146.426V144.412L88.5684 142.598L88.2148 140.784V138.954H90.5209V146.426H88.2148ZM92.1772 146.426V135.264H94.5295V146.426H92.1772Z" fill="url(#paint2_linear_72_1655)"/>
<path fill-rule="evenodd" clip-rule="evenodd" d="M23.2923 27.1811C34.5501 15.9233 52.8025 15.9233 64.0603 27.1811C64.6232 27.744 64.6232 28.6566 64.0604 29.2195L63.0412 30.2388C62.7709 30.5091 62.4042 30.661 62.022 30.661C61.6397 30.661 61.273 30.5091 61.0027 30.2388C51.4336 20.6697 35.919 20.6697 26.3499 30.2388C26.0796 30.5091 25.7129 30.661 25.3307 30.661C24.9484 30.661 24.5817 30.5091 24.3114 30.2388L23.2922 29.2195C22.7294 28.6566 22.7294 27.744 23.2923 27.1811ZM29.4075 33.2964C37.2879 25.416 50.0647 25.416 57.9451 33.2964C58.508 33.8593 58.508 34.7719 57.9451 35.3348L56.926 36.354C56.6557 36.6243 56.2891 36.7762 55.9068 36.7762C55.5245 36.7762 55.1579 36.6244 54.8876 36.354C48.6958 30.1623 38.6569 30.1623 32.4651 36.354C31.9023 36.9169 30.9896 36.9169 30.4268 36.3541L29.4075 35.3349C29.1372 35.0646 28.9853 34.6979 28.9853 34.3157C28.9853 33.9334 29.1372 33.5668 29.4075 33.2964ZM35.5651 39.4115C40.0683 34.9084 47.3692 34.9084 51.8724 39.4115C52.4353 39.9744 52.4353 40.8871 51.8724 41.45L50.8532 42.4692C50.5829 42.7395 50.2162 42.8913 49.834 42.8913C49.4517 42.8913 49.0851 42.7395 48.8148 42.4692C46.0003 39.6547 41.4372 39.6547 38.6227 42.4692C38.0599 43.032 37.1472 43.032 36.5843 42.4692L35.5651 41.45C35.0023 40.8871 35.0023 39.9744 35.5651 39.4115Z" fill="url(#paint3_linear_72_1655)"/>
</g>
<defs>
<linearGradient id="paint0_linear_72_1655" x1="233.024" y1="40.0308" x2="311.515" y2="39.9973" gradientUnits="userSpaceOnUse">
<stop stop-color="#FFD956"/>
<stop offset="0.155" stop-color="#F7CB61"/>
<stop offset="0.35" stop-color="#FFD46A"/>
<stop offset="0.565" stop-color="#FFD675"/>
<stop offset="0.715" stop-color="#FBD67E"/>
<stop offset="0.84" stop-color="#F9C762"/>
<stop offset="1" stop-color="#F1B856"/>
</linearGradient>
<linearGradient id="paint1_linear_72_1655" x1="248.626" y1="54.6418" x2="303.495" y2="54.6124" gradientUnits="userSpaceOnUse">
<stop stop-color="#FFD956"/>
<stop offset="0.155" stop-color="#F7CB61"/>
<stop offset="0.35" stop-color="#FFD46A"/>
<stop offset="0.565" stop-color="#FFD675"/>
<stop offset="0.715" stop-color="#FBD67E"/>
<stop offset="0.84" stop-color="#F9C762"/>
<stop offset="1" stop-color="#F1B856"/>
</linearGradient>
<linearGradient id="paint2_linear_72_1655" x1="47.085" y1="113.36" x2="157.87" y2="113.177" gradientUnits="userSpaceOnUse">
<stop stop-color="#FFD956"/>
<stop offset="0.155" stop-color="#F7CB61"/>
<stop offset="0.35" stop-color="#FFD46A"/>
<stop offset="0.565" stop-color="#FFD675"/>
<stop offset="0.715" stop-color="#FBD67E"/>
<stop offset="0.84" stop-color="#F9C762"/>
<stop offset="1" stop-color="#F1B856"/>
</linearGradient>
<linearGradient id="paint3_linear_72_1655" x1="22.8701" y1="19.3311" x2="62.2723" y2="19.2947" gradientUnits="userSpaceOnUse">
<stop stop-color="#FFD956"/>
<stop offset="0.155" stop-color="#F7CB61"/>
<stop offset="0.35" stop-color="#FFD46A"/>
<stop offset="0.565" stop-color="#FFD675"/>
<stop offset="0.715" stop-color="#FBD67E"/>
<stop offset="0.84" stop-color="#F9C762"/>
<stop offset="1" stop-color="#F1B856"/>
</linearGradient>
<clipPath id="clip0_72_1655">
<rect width="295" height="180.627" fill="white"/>
</clipPath>
</defs>
</svg>
