<svg width="282" height="461" viewBox="0 0 282 461" fill="none" xmlns="http://www.w3.org/2000/svg">
<g clip-path="url(#clip0_25_64)">
<rect x="-0.00390625" y="460.5" width="460.5" height="282" rx="30" transform="rotate(-90 -0.00390625 460.5)" fill="#171717"/>
<path d="M58.4961 32.0461C58.4961 67.7798 87.771 96.75 123.88 96.75C140.414 96.75 155.525 90.671 167.031 80.6425C167.149 80.555 167.262 80.4562 167.373 80.3463L168.446 79.3903L220.875 32.0484L181.305 -3.67851L170.605 6.91096C174.72 14.3858 177.065 22.9512 177.065 32.0484C177.065 61.0926 153.192 84.7176 123.842 84.7176C94.4922 84.7176 70.6187 61.0926 70.6187 32.0484C70.6187 3.00415 94.4922 -20.6208 123.842 -20.6208C132.368 -20.6208 140.436 -18.6281 147.584 -15.0848L156.577 -23.9846C146.96 -29.4959 135.79 -32.6487 123.878 -32.6487C87.771 -32.6509 58.4961 -3.6875 58.4961 32.0461Z" fill="url(#paint0_linear_25_64)"/>
<path d="M147.738 -0.627373C141.021 -5.45872 132.765 -8.30412 123.846 -8.30412C101.363 -8.30412 83.0723 9.79606 83.0723 32.0454C83.0723 54.2948 101.363 72.395 123.846 72.395C146.33 72.395 164.62 54.2948 164.62 32.0454C164.62 22.5667 161.296 13.833 155.745 6.93943L173.443 -10.7725L165.355 -18.0611L147.738 -0.627373ZM123.846 62.5191C106.857 62.5191 93.0498 48.8486 93.0498 32.0432C93.0498 15.2378 106.857 1.56728 123.846 1.56728C140.835 1.56728 154.643 15.2378 154.643 32.0432C154.643 48.8486 140.828 62.5191 123.846 62.5191Z" fill="url(#paint1_linear_25_64)"/>
<path d="M192.512 382.488H189.728V378.912C189.728 378.16 189.536 377.584 189.152 377.184C188.768 376.768 188.248 376.56 187.592 376.56C186.984 376.56 186.48 376.76 186.08 377.16C185.68 377.56 185.48 378.136 185.48 378.888V382.488H182.552V378.456C182.552 377.336 182.768 376.352 183.2 375.504C183.616 374.656 184.2 373.992 184.952 373.512C185.704 373.032 186.568 372.792 187.544 372.792C188.536 372.792 189.408 373.032 190.16 373.512C190.896 373.992 191.472 374.664 191.888 375.528C192.304 376.392 192.512 377.408 192.512 378.576V382.488ZM199.496 385.368H182.552V381.6H199.496V385.368ZM199.496 376.152L192.2 381.432L191.264 377.976L199.496 371.688V376.152ZM199.76 365.122C199.76 366.194 199.544 367.146 199.112 367.978C198.664 368.794 198.056 369.434 197.288 369.898C196.504 370.362 195.608 370.594 194.6 370.594H187.832V366.922H194.552C194.952 366.922 195.296 366.858 195.584 366.73C195.872 366.586 196.096 366.378 196.256 366.106C196.416 365.834 196.496 365.506 196.496 365.122C196.496 364.578 196.328 364.146 195.992 363.826C195.64 363.506 195.16 363.346 194.552 363.346H187.832V359.674H194.576C195.6 359.674 196.504 359.906 197.288 360.37C198.056 360.834 198.664 361.474 199.112 362.29C199.544 363.106 199.76 364.05 199.76 365.122ZM199.784 353.12C199.784 353.808 199.696 354.488 199.52 355.16C199.344 355.816 199.096 356.432 198.776 357.008C198.44 357.568 198.056 358.048 197.624 358.448L195.512 356.36C195.928 355.976 196.256 355.52 196.496 354.992C196.72 354.464 196.832 353.888 196.832 353.264C196.832 352.832 196.768 352.504 196.64 352.28C196.512 352.04 196.336 351.92 196.112 351.92C195.824 351.92 195.608 352.064 195.464 352.352C195.304 352.624 195.168 352.976 195.056 353.408C194.928 353.84 194.792 354.296 194.648 354.776C194.504 355.256 194.304 355.712 194.048 356.144C193.792 356.576 193.44 356.928 192.992 357.2C192.528 357.472 191.944 357.608 191.24 357.608C190.488 357.608 189.84 357.416 189.296 357.032C188.736 356.648 188.296 356.104 187.976 355.4C187.656 354.696 187.496 353.872 187.496 352.928C187.496 351.936 187.672 351.024 188.024 350.192C188.36 349.344 188.864 348.656 189.536 348.128L191.648 350.216C191.216 350.584 190.912 351 190.736 351.464C190.56 351.912 190.472 352.352 190.472 352.784C190.472 353.2 190.536 353.512 190.664 353.72C190.776 353.928 190.944 354.032 191.168 354.032C191.408 354.032 191.6 353.896 191.744 353.624C191.888 353.352 192.016 353 192.128 352.568C192.24 352.136 192.376 351.68 192.536 351.2C192.696 350.72 192.912 350.264 193.184 349.832C193.456 349.4 193.824 349.048 194.288 348.776C194.736 348.504 195.328 348.368 196.064 348.368C197.2 348.368 198.104 348.8 198.776 349.664C199.448 350.512 199.784 351.664 199.784 353.12ZM199.496 338.672H192.848C192.24 338.672 191.752 338.864 191.384 339.248C191 339.616 190.808 340.088 190.808 340.664C190.808 341.064 190.896 341.416 191.072 341.72C191.232 342.024 191.472 342.264 191.792 342.44C192.096 342.616 192.448 342.704 192.848 342.704L192.152 344.12C191.24 344.12 190.44 343.928 189.752 343.544C189.064 343.16 188.536 342.624 188.168 341.936C187.784 341.248 187.592 340.456 187.592 339.56C187.592 338.648 187.784 337.848 188.168 337.16C188.536 336.472 189.056 335.944 189.728 335.576C190.384 335.192 191.152 335 192.032 335H199.496V338.672ZM199.496 346.376H182.072V342.704H199.496V346.376ZM199.496 332.641H187.832V328.969H199.496V332.641ZM186.224 330.793C186.224 331.369 186.032 331.849 185.648 332.233C185.248 332.601 184.768 332.785 184.208 332.785C183.632 332.785 183.152 332.601 182.768 332.233C182.384 331.849 182.192 331.369 182.192 330.793C182.192 330.217 182.384 329.745 182.768 329.377C183.152 329.009 183.632 328.825 184.208 328.825C184.768 328.825 185.248 329.009 185.648 329.377C186.032 329.745 186.224 330.217 186.224 330.793ZM199.496 326.384H182.072V322.712H199.496V326.384ZM199.496 315.22H182.552V312.532L192.944 305.86V307.228L182.552 300.58V297.868H199.496V301.636H188.912L189.08 300.964L195.848 305.308V307.804L189.08 312.124L188.912 311.476H199.496V315.22ZM199.736 290.082C199.736 291.154 199.472 292.114 198.944 292.962C198.416 293.794 197.696 294.458 196.784 294.954C195.872 295.434 194.832 295.674 193.664 295.674C192.496 295.674 191.456 295.434 190.544 294.954C189.632 294.458 188.912 293.794 188.384 292.962C187.856 292.114 187.592 291.154 187.592 290.082C187.592 289.298 187.744 288.594 188.048 287.97C188.352 287.33 188.776 286.81 189.32 286.41C189.848 286.01 190.456 285.786 191.144 285.738H196.184C196.872 285.786 197.488 286.01 198.032 286.41C198.56 286.794 198.976 287.306 199.28 287.946C199.584 288.586 199.736 289.298 199.736 290.082ZM196.424 289.338C196.424 288.554 196.168 287.922 195.656 287.442C195.128 286.962 194.464 286.722 193.664 286.722C193.12 286.722 192.64 286.834 192.224 287.058C191.808 287.266 191.488 287.57 191.264 287.97C191.024 288.354 190.904 288.802 190.904 289.314C190.904 289.826 191.024 290.282 191.264 290.682C191.488 291.066 191.808 291.378 192.224 291.618C192.64 291.842 193.12 291.954 193.664 291.954C194.192 291.954 194.664 291.842 195.08 291.618C195.496 291.394 195.824 291.082 196.064 290.682C196.304 290.282 196.424 289.834 196.424 289.338ZM199.496 286.866H196.352L193.52 286.314L190.688 286.866H187.832V283.266H199.496V286.866ZM199.496 272.977H192.848C192.24 272.977 191.752 273.169 191.384 273.553C191 273.921 190.808 274.393 190.808 274.969C190.808 275.369 190.896 275.721 191.072 276.025C191.232 276.329 191.472 276.569 191.792 276.745C192.096 276.921 192.448 277.009 192.848 277.009L192.152 278.425C191.24 278.425 190.44 278.233 189.752 277.849C189.064 277.465 188.536 276.929 188.168 276.241C187.784 275.553 187.592 274.761 187.592 273.865C187.592 272.953 187.784 272.153 188.168 271.465C188.536 270.777 189.056 270.249 189.728 269.881C190.384 269.497 191.152 269.305 192.032 269.305H199.496V272.977ZM199.496 280.681H182.072V277.009H199.496V280.681ZM199.496 266.946H187.832V263.274H199.496V266.946ZM186.224 265.098C186.224 265.674 186.032 266.154 185.648 266.538C185.248 266.906 184.768 267.09 184.208 267.09C183.632 267.09 183.152 266.906 182.768 266.538C182.384 266.154 182.192 265.674 182.192 265.098C182.192 264.522 182.384 264.05 182.768 263.682C183.152 263.314 183.632 263.13 184.208 263.13C184.768 263.13 185.248 263.314 185.648 263.682C186.032 264.05 186.224 264.522 186.224 265.098ZM199.496 252.984H192.848C192.24 252.984 191.752 253.176 191.384 253.56C191 253.928 190.808 254.4 190.808 254.976C190.808 255.376 190.896 255.728 191.072 256.032C191.232 256.336 191.472 256.576 191.792 256.752C192.096 256.928 192.448 257.016 192.848 257.016L192.152 258.432C191.24 258.432 190.44 258.232 189.752 257.832C189.064 257.432 188.536 256.88 188.168 256.176C187.784 255.456 187.592 254.648 187.592 253.752C187.592 252.888 187.8 252.128 188.216 251.472C188.616 250.8 189.152 250.272 189.824 249.888C190.496 249.504 191.232 249.312 192.032 249.312H199.496V252.984ZM199.496 260.688H187.832V257.016H199.496V260.688ZM199.736 241.986C199.736 243.09 199.472 244.074 198.944 244.938C198.416 245.786 197.696 246.458 196.784 246.954C195.872 247.434 194.832 247.674 193.664 247.674C192.496 247.674 191.456 247.434 190.544 246.954C189.632 246.458 188.912 245.786 188.384 244.938C187.856 244.074 187.592 243.09 187.592 241.986C187.592 241.186 187.744 240.466 188.048 239.826C188.352 239.17 188.776 238.634 189.32 238.218C189.848 237.786 190.456 237.546 191.144 237.498H196.064C196.752 237.546 197.376 237.778 197.936 238.194C198.48 238.61 198.92 239.146 199.256 239.802C199.576 240.458 199.736 241.186 199.736 241.986ZM196.424 241.338C196.424 240.81 196.312 240.354 196.088 239.97C195.848 239.586 195.52 239.282 195.104 239.058C194.688 238.834 194.208 238.722 193.664 238.722C193.12 238.722 192.648 238.834 192.248 239.058C191.832 239.266 191.504 239.57 191.264 239.97C191.024 240.354 190.904 240.802 190.904 241.314C190.904 241.826 191.024 242.282 191.264 242.682C191.504 243.066 191.832 243.378 192.248 243.618C192.664 243.842 193.136 243.954 193.664 243.954C194.192 243.954 194.664 243.842 195.08 243.618C195.496 243.394 195.824 243.082 196.064 242.682C196.304 242.282 196.424 241.834 196.424 241.338ZM199.496 235.266V238.866H196.352L193.52 238.314L190.688 238.938H182.072V235.266H199.496ZM199.496 232.681H187.832V229.009H199.496V232.681ZM193.088 229.009L191.888 230.545C190.528 230.241 189.472 229.729 188.72 229.009C187.968 228.289 187.592 227.289 187.592 226.009C187.592 225.449 187.68 224.961 187.856 224.545C188.016 224.113 188.272 223.737 188.624 223.417L191.384 225.601C191.208 225.761 191.072 225.961 190.976 226.201C190.88 226.441 190.832 226.713 190.832 227.017C190.832 227.625 191.024 228.113 191.408 228.481C191.776 228.833 192.336 229.009 193.088 229.009ZM199.736 217.894C199.736 218.966 199.472 219.926 198.944 220.774C198.416 221.606 197.696 222.27 196.784 222.766C195.872 223.246 194.832 223.486 193.664 223.486C192.496 223.486 191.456 223.246 190.544 222.766C189.632 222.27 188.912 221.606 188.384 220.774C187.856 219.926 187.592 218.966 187.592 217.894C187.592 217.11 187.744 216.406 188.048 215.782C188.352 215.142 188.776 214.622 189.32 214.222C189.848 213.822 190.456 213.598 191.144 213.55H196.184C196.872 213.598 197.488 213.822 198.032 214.222C198.56 214.606 198.976 215.118 199.28 215.758C199.584 216.398 199.736 217.11 199.736 217.894ZM196.424 217.15C196.424 216.366 196.168 215.734 195.656 215.254C195.128 214.774 194.464 214.534 193.664 214.534C193.12 214.534 192.64 214.646 192.224 214.87C191.808 215.078 191.488 215.382 191.264 215.782C191.024 216.166 190.904 216.614 190.904 217.126C190.904 217.638 191.024 218.094 191.264 218.494C191.488 218.878 191.808 219.19 192.224 219.43C192.64 219.654 193.12 219.766 193.664 219.766C194.192 219.766 194.664 219.654 195.08 219.43C195.496 219.206 195.824 218.894 196.064 218.494C196.304 218.094 196.424 217.646 196.424 217.15ZM199.496 214.678H196.352L193.52 214.126L190.688 214.678H187.832V211.078H199.496V214.678ZM229.76 380.28C229.76 381.672 229.536 382.872 229.088 383.88C228.624 384.872 227.928 385.784 227 386.616L224.576 384.168C225.2 383.624 225.688 383.024 226.04 382.368C226.376 381.696 226.544 380.92 226.544 380.04C226.544 379.24 226.4 378.624 226.112 378.192C225.824 377.744 225.424 377.52 224.912 377.52C224.448 377.52 224.072 377.664 223.784 377.952C223.496 378.24 223.248 378.624 223.04 379.104C222.832 379.568 222.632 380.088 222.44 380.664C222.248 381.224 222.032 381.784 221.792 382.344C221.536 382.904 221.224 383.424 220.856 383.904C220.472 384.368 220 384.744 219.44 385.032C218.864 385.32 218.144 385.464 217.28 385.464C216.24 385.464 215.344 385.216 214.592 384.72C213.84 384.208 213.272 383.504 212.888 382.608C212.488 381.712 212.288 380.68 212.288 379.512C212.288 378.328 212.496 377.248 212.912 376.272C213.328 375.28 213.896 374.464 214.616 373.824L217.04 376.272C216.512 376.784 216.12 377.304 215.864 377.832C215.608 378.344 215.48 378.928 215.48 379.584C215.48 380.24 215.608 380.76 215.864 381.144C216.104 381.528 216.456 381.72 216.92 381.72C217.352 381.72 217.704 381.576 217.976 381.288C218.232 381 218.456 380.624 218.648 380.16C218.84 379.68 219.032 379.16 219.224 378.6C219.416 378.024 219.64 377.456 219.896 376.896C220.152 376.336 220.48 375.824 220.88 375.36C221.264 374.88 221.76 374.496 222.368 374.208C222.96 373.92 223.696 373.776 224.576 373.776C226.192 373.776 227.464 374.352 228.392 375.504C229.304 376.656 229.76 378.248 229.76 380.28ZM229.76 366.022C229.76 367.286 229.504 368.414 228.992 369.406C228.464 370.382 227.736 371.15 226.808 371.71C225.88 372.27 224.832 372.55 223.664 372.55C222.496 372.55 221.456 372.278 220.544 371.734C219.616 371.174 218.888 370.422 218.36 369.478C217.832 368.534 217.568 367.47 217.568 366.286C217.568 365.134 217.816 364.118 218.312 363.238C218.808 362.358 219.496 361.67 220.376 361.174C221.256 360.662 222.264 360.406 223.4 360.406C223.608 360.406 223.832 360.422 224.072 360.454C224.296 360.47 224.56 360.51 224.864 360.574L224.888 370.63H222.368L222.344 362.134L223.4 363.718C222.728 363.734 222.176 363.838 221.744 364.03C221.296 364.222 220.96 364.51 220.736 364.894C220.496 365.262 220.376 365.718 220.376 366.262C220.376 366.838 220.512 367.342 220.784 367.774C221.04 368.19 221.408 368.518 221.888 368.758C222.368 368.982 222.952 369.094 223.64 369.094C224.328 369.094 224.92 368.974 225.416 368.734C225.896 368.478 226.272 368.126 226.544 367.678C226.8 367.214 226.928 366.67 226.928 366.046C226.928 365.47 226.832 364.95 226.64 364.486C226.432 364.022 226.128 363.614 225.728 363.262L227.744 361.246C228.416 361.822 228.92 362.518 229.256 363.334C229.592 364.15 229.76 365.046 229.76 366.022ZM229.496 350.93H222.848C222.24 350.93 221.752 351.122 221.384 351.506C221 351.874 220.808 352.346 220.808 352.922C220.808 353.322 220.896 353.674 221.072 353.978C221.232 354.282 221.472 354.522 221.792 354.698C222.096 354.874 222.448 354.962 222.848 354.962L222.152 356.378C221.24 356.378 220.44 356.186 219.752 355.802C219.064 355.418 218.536 354.882 218.168 354.194C217.784 353.506 217.592 352.714 217.592 351.818C217.592 350.906 217.784 350.106 218.168 349.418C218.536 348.73 219.056 348.202 219.728 347.834C220.384 347.45 221.152 347.258 222.032 347.258H229.496V350.93ZM229.496 358.634H212.072V354.962H229.496V358.634ZM234.728 339.955C234.728 341.235 234.504 342.363 234.056 343.339C233.624 344.299 233.008 345.059 232.208 345.619L229.952 343.363C230.448 342.947 230.824 342.483 231.08 341.971C231.336 341.443 231.464 340.811 231.464 340.075C231.464 339.163 231.24 338.451 230.792 337.939C230.344 337.411 229.712 337.147 228.896 337.147H225.92L223.376 336.523L220.832 337.075H217.832V333.475H228.8C230 333.475 231.04 333.755 231.92 334.315C232.8 334.875 233.488 335.643 233.984 336.619C234.48 337.595 234.728 338.707 234.728 339.955ZM229.136 340.123C229.136 341.195 228.88 342.147 228.368 342.979C227.856 343.811 227.16 344.467 226.28 344.947C225.4 345.427 224.424 345.667 223.352 345.667C222.264 345.667 221.288 345.427 220.424 344.947C219.544 344.467 218.856 343.811 218.36 342.979C217.848 342.147 217.592 341.195 217.592 340.123C217.592 339.323 217.744 338.611 218.048 337.987C218.336 337.347 218.752 336.835 219.296 336.451C219.824 336.051 220.44 335.827 221.144 335.779H225.584C226.272 335.827 226.888 336.051 227.432 336.451C227.96 336.835 228.376 337.347 228.68 337.987C228.984 338.627 229.136 339.339 229.136 340.123ZM225.872 339.427C225.872 338.915 225.76 338.475 225.536 338.107C225.312 337.723 225.016 337.435 224.648 337.243C224.264 337.035 223.832 336.931 223.352 336.931C222.872 336.931 222.44 337.035 222.056 337.243C221.672 337.435 221.368 337.723 221.144 338.107C220.92 338.475 220.808 338.915 220.808 339.427C220.808 339.923 220.92 340.363 221.144 340.747C221.368 341.131 221.672 341.427 222.056 341.635C222.44 341.843 222.872 341.947 223.352 341.947C223.8 341.947 224.224 341.843 224.624 341.635C225.008 341.427 225.312 341.139 225.536 340.771C225.76 340.387 225.872 339.939 225.872 339.427ZM229.736 326.012C229.736 327.084 229.472 328.044 228.944 328.892C228.416 329.724 227.696 330.388 226.784 330.884C225.872 331.364 224.832 331.604 223.664 331.604C222.496 331.604 221.456 331.364 220.544 330.884C219.632 330.388 218.912 329.724 218.384 328.892C217.856 328.044 217.592 327.084 217.592 326.012C217.592 325.228 217.744 324.524 218.048 323.9C218.352 323.26 218.776 322.74 219.32 322.34C219.848 321.94 220.456 321.716 221.144 321.668H226.184C226.872 321.716 227.488 321.94 228.032 322.34C228.56 322.724 228.976 323.236 229.28 323.876C229.584 324.516 229.736 325.228 229.736 326.012ZM226.424 325.268C226.424 324.484 226.168 323.852 225.656 323.372C225.128 322.892 224.464 322.652 223.664 322.652C223.12 322.652 222.64 322.764 222.224 322.988C221.808 323.196 221.488 323.5 221.264 323.9C221.024 324.284 220.904 324.732 220.904 325.244C220.904 325.756 221.024 326.212 221.264 326.612C221.488 326.996 221.808 327.308 222.224 327.548C222.64 327.772 223.12 327.884 223.664 327.884C224.192 327.884 224.664 327.772 225.08 327.548C225.496 327.324 225.824 327.012 226.064 326.612C226.304 326.212 226.424 325.764 226.424 325.268ZM229.496 322.796H226.352L223.52 322.244L220.688 322.796H217.832V319.196H229.496V322.796ZM229.496 316.61H212.072V312.938H229.496V316.61Z" fill="url(#paint2_linear_25_64)"/>
<path fill-rule="evenodd" clip-rule="evenodd" d="M42.4263 424.135C24.8527 406.562 24.8527 378.069 42.4263 360.496C43.3049 359.617 44.7295 359.617 45.6082 360.496L47.1993 362.087C47.6213 362.509 47.8584 363.081 47.8584 363.678C47.8584 364.275 47.6214 364.847 47.1994 365.269C32.2618 380.206 32.2618 404.425 47.1994 419.362C47.6214 419.784 47.8584 420.357 47.8584 420.953C47.8584 421.55 47.6213 422.123 47.1993 422.545L45.6082 424.135C44.7295 425.014 43.3049 425.014 42.4263 424.135ZM51.9724 414.589C39.6709 402.288 39.6709 382.343 51.9724 370.042C52.8511 369.163 54.2757 369.163 55.1543 370.042L56.7453 371.633C57.1673 372.055 57.4044 372.627 57.4044 373.224C57.4044 373.82 57.1673 374.393 56.7454 374.815C47.0799 384.48 47.0799 400.151 56.7454 409.816C57.624 410.695 57.624 412.12 56.7454 412.998L55.1544 414.589C54.7324 415.011 54.1601 415.248 53.5634 415.248C52.9667 415.248 52.3944 415.011 51.9724 414.589ZM61.5182 404.977C54.4887 397.948 54.4887 386.551 61.5182 379.521C62.3969 378.643 63.8215 378.643 64.7002 379.521L66.2911 381.112C66.7131 381.534 66.9502 382.107 66.9502 382.703C66.9502 383.3 66.7131 383.872 66.2911 384.294C61.8977 388.688 61.8977 395.811 66.2911 400.204C67.1698 401.083 67.1698 402.508 66.2911 403.386L64.7002 404.977C63.8215 405.856 62.3969 405.856 61.5182 404.977Z" fill="url(#paint3_linear_25_64)"/>
</g>
<defs>
<linearGradient id="paint0_linear_25_64" x1="62.4849" y1="96.75" x2="62.4326" y2="-25.7758" gradientUnits="userSpaceOnUse">
<stop stop-color="#FFD956"/>
<stop offset="0.155" stop-color="#F7CB61"/>
<stop offset="0.35" stop-color="#FFD46A"/>
<stop offset="0.565" stop-color="#FFD675"/>
<stop offset="0.715" stop-color="#FBD67E"/>
<stop offset="0.84" stop-color="#F9C762"/>
<stop offset="1" stop-color="#F1B856"/>
</linearGradient>
<linearGradient id="paint1_linear_25_64" x1="85.2922" y1="72.395" x2="85.2463" y2="-13.2566" gradientUnits="userSpaceOnUse">
<stop stop-color="#FFD956"/>
<stop offset="0.155" stop-color="#F7CB61"/>
<stop offset="0.35" stop-color="#FFD46A"/>
<stop offset="0.565" stop-color="#FFD675"/>
<stop offset="0.715" stop-color="#FBD67E"/>
<stop offset="0.84" stop-color="#F9C762"/>
<stop offset="1" stop-color="#F1B856"/>
</linearGradient>
<linearGradient id="paint2_linear_25_64" x1="176.97" y1="387" x2="176.69" y2="214.667" gradientUnits="userSpaceOnUse">
<stop stop-color="#FFD956"/>
<stop offset="0.155" stop-color="#F7CB61"/>
<stop offset="0.35" stop-color="#FFD46A"/>
<stop offset="0.565" stop-color="#FFD675"/>
<stop offset="0.715" stop-color="#FBD67E"/>
<stop offset="0.84" stop-color="#F9C762"/>
<stop offset="1" stop-color="#F1B856"/>
</linearGradient>
<linearGradient id="paint3_linear_25_64" x1="30.1723" y1="424.794" x2="30.1155" y2="363.287" gradientUnits="userSpaceOnUse">
<stop stop-color="#FFD956"/>
<stop offset="0.155" stop-color="#F7CB61"/>
<stop offset="0.35" stop-color="#FFD46A"/>
<stop offset="0.565" stop-color="#FFD675"/>
<stop offset="0.715" stop-color="#FBD67E"/>
<stop offset="0.84" stop-color="#F9C762"/>
<stop offset="1" stop-color="#F1B856"/>
</linearGradient>
<clipPath id="clip0_25_64">
<rect width="460.5" height="281.961" fill="white" transform="matrix(0 -1 1 0 -0.00390625 460.5)"/>
</clipPath>
</defs>
</svg>
