<svg width="283" height="461" viewBox="0 0 283 461" fill="none" xmlns="http://www.w3.org/2000/svg">
<g clip-path="url(#clip0_33_319)">
<rect x="282.854" width="460.5" height="282" rx="30" transform="rotate(90 282.854 0)" fill="url(#paint0_linear_33_319)"/>
<path d="M224.354 428.454C224.354 392.72 195.08 363.75 158.97 363.75C142.437 363.75 127.326 369.829 115.82 379.858C115.702 379.945 115.588 380.044 115.477 380.154L114.405 381.11L61.9753 428.452L101.545 464.179L112.246 453.589C108.13 446.114 105.786 437.549 105.786 428.452C105.786 399.407 129.659 375.782 159.009 375.782C188.358 375.782 212.232 399.407 212.232 428.452C212.232 457.496 188.358 481.121 159.009 481.121C150.482 481.121 142.414 479.128 135.267 475.585L126.273 484.485C135.89 489.996 147.061 493.149 158.972 493.149C195.08 493.151 224.354 464.188 224.354 428.454Z" fill="black"/>
<path d="M135.113 461.127C141.829 465.959 150.086 468.804 159.004 468.804C181.488 468.804 199.778 450.704 199.778 428.455C199.778 406.205 181.488 388.105 159.004 388.105C136.521 388.105 118.23 406.205 118.23 428.455C118.23 437.933 121.555 446.667 127.106 453.561L109.407 471.273L117.496 478.561L135.113 461.127ZM159.004 397.981C175.993 397.981 189.801 411.651 189.801 428.457C189.801 445.262 175.993 458.933 159.004 458.933C142.015 458.933 128.208 445.262 128.208 428.457C128.208 411.651 142.022 397.981 159.004 397.981Z" fill="black"/>
<path d="M90.3385 78.012H93.1225V81.588C93.1225 82.34 93.3145 82.916 93.6985 83.316C94.0825 83.732 94.6025 83.94 95.2585 83.94C95.8665 83.94 96.3705 83.74 96.7705 83.34C97.1705 82.94 97.3705 82.364 97.3705 81.612V78.012H100.298V82.044C100.298 83.164 100.082 84.148 99.6505 84.996C99.2345 85.844 98.6505 86.508 97.8985 86.988C97.1465 87.468 96.2825 87.708 95.3065 87.708C94.3145 87.708 93.4425 87.468 92.6905 86.988C91.9545 86.508 91.3785 85.836 90.9625 84.972C90.5465 84.108 90.3385 83.092 90.3385 81.924V78.012ZM83.3545 75.132H100.298V78.9H83.3545V75.132ZM83.3545 84.348L90.6505 79.068L91.5865 82.524L83.3545 88.812V84.348ZM83.0905 95.3784C83.0905 94.3064 83.3065 93.3544 83.7385 92.5224C84.1865 91.7064 84.7945 91.0664 85.5625 90.6024C86.3465 90.1384 87.2425 89.9064 88.2505 89.9064H95.0185V93.5784H88.2985C87.8985 93.5784 87.5545 93.6424 87.2665 93.7704C86.9785 93.9144 86.7545 94.1224 86.5945 94.3944C86.4345 94.6664 86.3545 94.9944 86.3545 95.3784C86.3545 95.9224 86.5225 96.3544 86.8585 96.6744C87.2105 96.9944 87.6905 97.1544 88.2985 97.1544H95.0185V100.826H88.2745C87.2505 100.826 86.3465 100.594 85.5625 100.13C84.7945 99.6664 84.1865 99.0264 83.7385 98.2104C83.3065 97.3944 83.0905 96.4504 83.0905 95.3784ZM83.0665 107.38C83.0665 106.692 83.1545 106.012 83.3305 105.34C83.5065 104.684 83.7545 104.068 84.0745 103.492C84.4105 102.932 84.7945 102.452 85.2265 102.052L87.3385 104.14C86.9225 104.524 86.5945 104.98 86.3545 105.508C86.1305 106.036 86.0185 106.612 86.0185 107.236C86.0185 107.668 86.0825 107.996 86.2105 108.22C86.3385 108.46 86.5145 108.58 86.7385 108.58C87.0265 108.58 87.2425 108.436 87.3865 108.148C87.5465 107.876 87.6825 107.524 87.7945 107.092C87.9225 106.66 88.0585 106.204 88.2025 105.724C88.3465 105.244 88.5465 104.788 88.8025 104.356C89.0585 103.924 89.4105 103.572 89.8585 103.3C90.3225 103.028 90.9065 102.892 91.6105 102.892C92.3625 102.892 93.0105 103.084 93.5545 103.468C94.1145 103.852 94.5545 104.396 94.8745 105.1C95.1945 105.804 95.3545 106.628 95.3545 107.572C95.3545 108.564 95.1785 109.476 94.8265 110.308C94.4905 111.156 93.9865 111.844 93.3145 112.372L91.2025 110.284C91.6345 109.916 91.9385 109.5 92.1145 109.036C92.2905 108.588 92.3785 108.148 92.3785 107.716C92.3785 107.3 92.3145 106.988 92.1865 106.78C92.0745 106.572 91.9065 106.468 91.6825 106.468C91.4425 106.468 91.2505 106.604 91.1065 106.876C90.9625 107.148 90.8345 107.5 90.7225 107.932C90.6105 108.364 90.4745 108.82 90.3145 109.3C90.1545 109.78 89.9385 110.236 89.6665 110.668C89.3945 111.1 89.0265 111.452 88.5625 111.724C88.1145 111.996 87.5225 112.132 86.7865 112.132C85.6505 112.132 84.7465 111.7 84.0745 110.836C83.4025 109.988 83.0665 108.836 83.0665 107.38ZM83.3545 121.828H90.0025C90.6105 121.828 91.0985 121.636 91.4665 121.252C91.8505 120.884 92.0425 120.412 92.0425 119.836C92.0425 119.436 91.9545 119.084 91.7785 118.78C91.6185 118.476 91.3785 118.236 91.0585 118.06C90.7545 117.884 90.4025 117.796 90.0025 117.796L90.6985 116.38C91.6105 116.38 92.4105 116.572 93.0985 116.956C93.7865 117.34 94.3145 117.876 94.6825 118.564C95.0665 119.252 95.2585 120.044 95.2585 120.94C95.2585 121.852 95.0665 122.652 94.6825 123.34C94.3145 124.028 93.7945 124.556 93.1225 124.924C92.4665 125.308 91.6985 125.5 90.8185 125.5H83.3545V121.828ZM83.3545 114.124H100.778V117.796H83.3545V114.124ZM83.3545 127.859H95.0185V131.531H83.3545V127.859ZM96.6265 129.707C96.6265 129.131 96.8185 128.651 97.2025 128.267C97.6025 127.899 98.0825 127.715 98.6425 127.715C99.2185 127.715 99.6985 127.899 100.082 128.267C100.466 128.651 100.658 129.131 100.658 129.707C100.658 130.283 100.466 130.755 100.082 131.123C99.6985 131.491 99.2185 131.675 98.6425 131.675C98.0825 131.675 97.6025 131.491 97.2025 131.123C96.8185 130.755 96.6265 130.283 96.6265 129.707ZM83.3545 134.116H100.778V137.788H83.3545V134.116ZM83.3545 145.28H100.298V147.968L89.9065 154.64V153.272L100.298 159.92V162.632H83.3545V158.864H93.9385L93.7705 159.536L87.0025 155.192V152.696L93.7705 148.376L93.9385 149.024H83.3545V145.28ZM83.1145 170.418C83.1145 169.346 83.3785 168.386 83.9065 167.538C84.4345 166.706 85.1545 166.042 86.0665 165.546C86.9785 165.066 88.0185 164.826 89.1865 164.826C90.3545 164.826 91.3945 165.066 92.3065 165.546C93.2185 166.042 93.9385 166.706 94.4665 167.538C94.9945 168.386 95.2585 169.346 95.2585 170.418C95.2585 171.202 95.1065 171.906 94.8025 172.53C94.4985 173.17 94.0745 173.69 93.5305 174.09C93.0025 174.49 92.3945 174.714 91.7065 174.762H86.6665C85.9785 174.714 85.3625 174.49 84.8185 174.09C84.2905 173.706 83.8745 173.194 83.5705 172.554C83.2665 171.914 83.1145 171.202 83.1145 170.418ZM86.4265 171.162C86.4265 171.946 86.6825 172.578 87.1945 173.058C87.7225 173.538 88.3865 173.778 89.1865 173.778C89.7305 173.778 90.2105 173.666 90.6265 173.442C91.0425 173.234 91.3625 172.93 91.5865 172.53C91.8265 172.146 91.9465 171.698 91.9465 171.186C91.9465 170.674 91.8265 170.218 91.5865 169.818C91.3625 169.434 91.0425 169.122 90.6265 168.882C90.2105 168.658 89.7305 168.546 89.1865 168.546C88.6585 168.546 88.1865 168.658 87.7705 168.882C87.3545 169.106 87.0265 169.418 86.7865 169.818C86.5465 170.218 86.4265 170.666 86.4265 171.162ZM83.3545 173.634H86.4985L89.3305 174.186L92.1625 173.634H95.0185V177.234H83.3545V173.634ZM83.3545 187.523H90.0025C90.6105 187.523 91.0985 187.331 91.4665 186.947C91.8505 186.579 92.0425 186.107 92.0425 185.531C92.0425 185.131 91.9545 184.779 91.7785 184.475C91.6185 184.171 91.3785 183.931 91.0585 183.755C90.7545 183.579 90.4025 183.491 90.0025 183.491L90.6985 182.075C91.6105 182.075 92.4105 182.267 93.0985 182.651C93.7865 183.035 94.3145 183.571 94.6825 184.259C95.0665 184.947 95.2585 185.739 95.2585 186.635C95.2585 187.547 95.0665 188.347 94.6825 189.035C94.3145 189.723 93.7945 190.251 93.1225 190.619C92.4665 191.003 91.6985 191.195 90.8185 191.195H83.3545V187.523ZM83.3545 179.819H100.778V183.491H83.3545V179.819ZM83.3545 193.554H95.0185V197.226H83.3545V193.554ZM96.6265 195.402C96.6265 194.826 96.8185 194.346 97.2025 193.962C97.6025 193.594 98.0825 193.41 98.6425 193.41C99.2185 193.41 99.6985 193.594 100.082 193.962C100.466 194.346 100.658 194.826 100.658 195.402C100.658 195.978 100.466 196.45 100.082 196.818C99.6985 197.186 99.2185 197.37 98.6425 197.37C98.0825 197.37 97.6025 197.186 97.2025 196.818C96.8185 196.45 96.6265 195.978 96.6265 195.402ZM83.3545 207.516H90.0025C90.6105 207.516 91.0985 207.324 91.4665 206.94C91.8505 206.572 92.0425 206.1 92.0425 205.524C92.0425 205.124 91.9545 204.772 91.7785 204.468C91.6185 204.164 91.3785 203.924 91.0585 203.748C90.7545 203.572 90.4025 203.484 90.0025 203.484L90.6985 202.068C91.6105 202.068 92.4105 202.268 93.0985 202.668C93.7865 203.068 94.3145 203.62 94.6825 204.324C95.0665 205.044 95.2585 205.852 95.2585 206.748C95.2585 207.612 95.0505 208.372 94.6345 209.028C94.2345 209.7 93.6985 210.228 93.0265 210.612C92.3545 210.996 91.6185 211.188 90.8185 211.188H83.3545V207.516ZM83.3545 199.812H95.0185V203.484H83.3545V199.812ZM83.1145 218.514C83.1145 217.41 83.3785 216.426 83.9065 215.562C84.4345 214.714 85.1545 214.042 86.0665 213.546C86.9785 213.066 88.0185 212.826 89.1865 212.826C90.3545 212.826 91.3945 213.066 92.3065 213.546C93.2185 214.042 93.9385 214.714 94.4665 215.562C94.9945 216.426 95.2585 217.41 95.2585 218.514C95.2585 219.314 95.1065 220.034 94.8025 220.674C94.4985 221.33 94.0745 221.866 93.5305 222.282C93.0025 222.714 92.3945 222.954 91.7065 223.002H86.7865C86.0985 222.954 85.4745 222.722 84.9145 222.306C84.3705 221.89 83.9305 221.354 83.5945 220.698C83.2745 220.042 83.1145 219.314 83.1145 218.514ZM86.4265 219.162C86.4265 219.69 86.5385 220.146 86.7625 220.53C87.0025 220.914 87.3305 221.218 87.7465 221.442C88.1625 221.666 88.6425 221.778 89.1865 221.778C89.7305 221.778 90.2025 221.666 90.6025 221.442C91.0185 221.234 91.3465 220.93 91.5865 220.53C91.8265 220.146 91.9465 219.698 91.9465 219.186C91.9465 218.674 91.8265 218.218 91.5865 217.818C91.3465 217.434 91.0185 217.122 90.6025 216.882C90.1865 216.658 89.7145 216.546 89.1865 216.546C88.6585 216.546 88.1865 216.658 87.7705 216.882C87.3545 217.106 87.0265 217.418 86.7865 217.818C86.5465 218.218 86.4265 218.666 86.4265 219.162ZM83.3545 225.234V221.634H86.4985L89.3305 222.186L92.1625 221.562H100.778V225.234H83.3545ZM83.3545 227.819H95.0185V231.491H83.3545V227.819ZM89.7625 231.491L90.9625 229.955C92.3225 230.259 93.3785 230.771 94.1305 231.491C94.8825 232.211 95.2585 233.211 95.2585 234.491C95.2585 235.051 95.1705 235.539 94.9945 235.955C94.8345 236.387 94.5785 236.763 94.2265 237.083L91.4665 234.899C91.6425 234.739 91.7785 234.539 91.8745 234.299C91.9705 234.059 92.0185 233.787 92.0185 233.483C92.0185 232.875 91.8265 232.387 91.4425 232.019C91.0745 231.667 90.5145 231.491 89.7625 231.491ZM83.1145 242.606C83.1145 241.534 83.3785 240.574 83.9065 239.726C84.4345 238.894 85.1545 238.23 86.0665 237.734C86.9785 237.254 88.0185 237.014 89.1865 237.014C90.3545 237.014 91.3945 237.254 92.3065 237.734C93.2185 238.23 93.9385 238.894 94.4665 239.726C94.9945 240.574 95.2585 241.534 95.2585 242.606C95.2585 243.39 95.1065 244.094 94.8025 244.718C94.4985 245.358 94.0745 245.878 93.5305 246.278C93.0025 246.678 92.3945 246.902 91.7065 246.95H86.6665C85.9785 246.902 85.3625 246.678 84.8185 246.278C84.2905 245.894 83.8745 245.382 83.5705 244.742C83.2665 244.102 83.1145 243.39 83.1145 242.606ZM86.4265 243.35C86.4265 244.134 86.6825 244.766 87.1945 245.246C87.7225 245.726 88.3865 245.966 89.1865 245.966C89.7305 245.966 90.2105 245.854 90.6265 245.63C91.0425 245.422 91.3625 245.118 91.5865 244.718C91.8265 244.334 91.9465 243.886 91.9465 243.374C91.9465 242.862 91.8265 242.406 91.5865 242.006C91.3625 241.622 91.0425 241.31 90.6265 241.07C90.2105 240.846 89.7305 240.734 89.1865 240.734C88.6585 240.734 88.1865 240.846 87.7705 241.07C87.3545 241.294 87.0265 241.606 86.7865 242.006C86.5465 242.406 86.4265 242.854 86.4265 243.35ZM83.3545 245.822H86.4985L89.3305 246.374L92.1625 245.822H95.0185L95.0185 249.422H83.3545V245.822ZM53.0905 80.22C53.0905 78.828 53.3145 77.628 53.7625 76.62C54.2265 75.628 54.9225 74.716 55.8505 73.884L58.2745 76.332C57.6505 76.876 57.1625 77.476 56.8105 78.132C56.4745 78.804 56.3065 79.58 56.3065 80.46C56.3065 81.26 56.4505 81.876 56.7385 82.308C57.0265 82.756 57.4265 82.98 57.9385 82.98C58.4025 82.98 58.7785 82.836 59.0665 82.548C59.3545 82.26 59.6025 81.876 59.8105 81.396C60.0185 80.932 60.2185 80.412 60.4105 79.836C60.6025 79.276 60.8185 78.716 61.0585 78.156C61.3145 77.596 61.6265 77.076 61.9945 76.596C62.3785 76.132 62.8505 75.756 63.4105 75.468C63.9865 75.18 64.7065 75.036 65.5705 75.036C66.6105 75.036 67.5065 75.284 68.2585 75.78C69.0105 76.292 69.5785 76.996 69.9625 77.892C70.3625 78.788 70.5625 79.82 70.5625 80.988C70.5625 82.172 70.3545 83.252 69.9385 84.228C69.5225 85.22 68.9545 86.036 68.2345 86.676L65.8105 84.228C66.3385 83.716 66.7305 83.196 66.9865 82.668C67.2425 82.156 67.3705 81.572 67.3705 80.916C67.3705 80.26 67.2425 79.74 66.9865 79.356C66.7465 78.972 66.3945 78.78 65.9305 78.78C65.4985 78.78 65.1465 78.924 64.8745 79.212C64.6185 79.5 64.3945 79.876 64.2025 80.34C64.0105 80.82 63.8185 81.34 63.6265 81.9C63.4345 82.476 63.2105 83.044 62.9545 83.604C62.6985 84.164 62.3705 84.676 61.9705 85.14C61.5865 85.62 61.0905 86.004 60.4825 86.292C59.8905 86.58 59.1545 86.724 58.2745 86.724C56.6585 86.724 55.3865 86.148 54.4585 84.996C53.5465 83.844 53.0905 82.252 53.0905 80.22ZM53.0905 94.4779C53.0905 93.2139 53.3465 92.0859 53.8585 91.0939C54.3865 90.1179 55.1145 89.3499 56.0425 88.7899C56.9705 88.2299 58.0185 87.9499 59.1865 87.9499C60.3545 87.9499 61.3945 88.2219 62.3065 88.7659C63.2345 89.3259 63.9625 90.0779 64.4905 91.0219C65.0185 91.9659 65.2825 93.0299 65.2825 94.2139C65.2825 95.3659 65.0345 96.3819 64.5385 97.2619C64.0425 98.1419 63.3545 98.8299 62.4745 99.3259C61.5945 99.8379 60.5865 100.094 59.4505 100.094C59.2425 100.094 59.0185 100.078 58.7785 100.046C58.5545 100.03 58.2905 99.9899 57.9865 99.9259L57.9625 89.8699H60.4825L60.5065 98.3659L59.4505 96.7819C60.1225 96.7659 60.6745 96.6619 61.1065 96.4699C61.5545 96.2779 61.8905 95.9899 62.1145 95.6059C62.3545 95.2379 62.4745 94.7819 62.4745 94.2379C62.4745 93.6619 62.3385 93.1579 62.0665 92.7259C61.8105 92.3099 61.4425 91.9819 60.9625 91.7419C60.4825 91.5179 59.8985 91.4059 59.2105 91.4059C58.5225 91.4059 57.9305 91.5259 57.4345 91.7659C56.9545 92.0219 56.5785 92.3739 56.3065 92.8219C56.0505 93.2859 55.9225 93.8299 55.9225 94.4539C55.9225 95.0299 56.0185 95.5499 56.2105 96.0139C56.4185 96.4779 56.7225 96.8859 57.1225 97.2379L55.1065 99.2539C54.4345 98.6779 53.9305 97.9819 53.5945 97.1659C53.2585 96.3499 53.0905 95.4539 53.0905 94.4779ZM53.3545 109.57H60.0025C60.6105 109.57 61.0985 109.378 61.4665 108.994C61.8505 108.626 62.0425 108.154 62.0425 107.578C62.0425 107.178 61.9545 106.826 61.7785 106.522C61.6185 106.218 61.3785 105.978 61.0585 105.802C60.7545 105.626 60.4025 105.538 60.0025 105.538L60.6985 104.122C61.6105 104.122 62.4105 104.314 63.0985 104.698C63.7865 105.082 64.3145 105.618 64.6825 106.306C65.0665 106.994 65.2585 107.786 65.2585 108.682C65.2585 109.594 65.0665 110.394 64.6825 111.082C64.3145 111.77 63.7945 112.298 63.1225 112.666C62.4665 113.05 61.6985 113.242 60.8185 113.242H53.3545V109.57ZM53.3545 101.866H70.7785V105.538H53.3545L53.3545 101.866ZM48.1225 120.545C48.1225 119.265 48.3465 118.137 48.7945 117.161C49.2265 116.201 49.8425 115.441 50.6425 114.881L52.8985 117.137C52.4025 117.553 52.0265 118.017 51.7705 118.529C51.5145 119.057 51.3865 119.689 51.3865 120.425C51.3865 121.337 51.6105 122.049 52.0585 122.561C52.5065 123.089 53.1385 123.353 53.9545 123.353H56.9305L59.4745 123.977L62.0185 123.425H65.0185V127.025H54.0505C52.8505 127.025 51.8105 126.745 50.9305 126.185C50.0505 125.625 49.3625 124.857 48.8665 123.881C48.3705 122.905 48.1225 121.793 48.1225 120.545ZM53.7145 120.377C53.7145 119.305 53.9705 118.353 54.4825 117.521C54.9945 116.689 55.6905 116.033 56.5705 115.553C57.4505 115.073 58.4265 114.833 59.4985 114.833C60.5865 114.833 61.5625 115.073 62.4265 115.553C63.3065 116.033 63.9945 116.689 64.4905 117.521C65.0025 118.353 65.2585 119.305 65.2585 120.377C65.2585 121.177 65.1065 121.889 64.8025 122.513C64.5145 123.153 64.0985 123.665 63.5545 124.049C63.0265 124.449 62.4105 124.673 61.7065 124.721H57.2665C56.5785 124.673 55.9625 124.449 55.4185 124.049C54.8905 123.665 54.4745 123.153 54.1705 122.513C53.8665 121.873 53.7145 121.161 53.7145 120.377ZM56.9785 121.073C56.9785 121.585 57.0905 122.025 57.3145 122.393C57.5385 122.777 57.8345 123.065 58.2025 123.257C58.5865 123.465 59.0185 123.569 59.4985 123.569C59.9785 123.569 60.4105 123.465 60.7945 123.257C61.1785 123.065 61.4825 122.777 61.7065 122.393C61.9305 122.025 62.0425 121.585 62.0425 121.073C62.0425 120.577 61.9305 120.137 61.7065 119.753C61.4825 119.369 61.1785 119.073 60.7945 118.865C60.4105 118.657 59.9785 118.553 59.4985 118.553C59.0505 118.553 58.6265 118.657 58.2265 118.865C57.8425 119.073 57.5385 119.361 57.3145 119.729C57.0905 120.113 56.9785 120.561 56.9785 121.073ZM53.1145 134.488C53.1145 133.416 53.3785 132.456 53.9065 131.608C54.4345 130.776 55.1545 130.112 56.0665 129.616C56.9785 129.136 58.0185 128.896 59.1865 128.896C60.3545 128.896 61.3945 129.136 62.3065 129.616C63.2185 130.112 63.9385 130.776 64.4665 131.608C64.9945 132.456 65.2585 133.416 65.2585 134.488C65.2585 135.272 65.1065 135.976 64.8025 136.6C64.4985 137.24 64.0745 137.76 63.5305 138.16C63.0025 138.56 62.3945 138.784 61.7065 138.832H56.6665C55.9785 138.784 55.3625 138.56 54.8185 138.16C54.2905 137.776 53.8745 137.264 53.5705 136.624C53.2665 135.984 53.1145 135.272 53.1145 134.488ZM56.4265 135.232C56.4265 136.016 56.6825 136.648 57.1945 137.128C57.7225 137.608 58.3865 137.848 59.1865 137.848C59.7305 137.848 60.2105 137.736 60.6265 137.512C61.0425 137.304 61.3625 137 61.5865 136.6C61.8265 136.216 61.9465 135.768 61.9465 135.256C61.9465 134.744 61.8265 134.288 61.5865 133.888C61.3625 133.504 61.0425 133.192 60.6265 132.952C60.2105 132.728 59.7305 132.616 59.1865 132.616C58.6585 132.616 58.1865 132.728 57.7705 132.952C57.3545 133.176 57.0265 133.488 56.7865 133.888C56.5465 134.288 56.4265 134.736 56.4265 135.232ZM53.3545 137.704H56.4985L59.3305 138.256L62.1625 137.704H65.0185V141.304H53.3545V137.704ZM53.3545 143.89H70.7785V147.562H53.3545V143.89Z" fill="black"/>
<path fill-rule="evenodd" clip-rule="evenodd" d="M240.424 36.3646C257.998 53.9382 257.998 82.4306 240.424 100.004C239.546 100.883 238.121 100.883 237.242 100.004L235.651 98.4133C235.229 97.9913 234.992 97.419 234.992 96.8223C234.992 96.2255 235.229 95.6532 235.651 95.2312C250.589 80.2937 250.589 56.0751 235.651 41.1375C235.229 40.7156 234.992 40.1433 234.992 39.5465C234.992 38.9498 235.229 38.3774 235.651 37.9555L237.242 36.3645C238.121 35.4859 239.546 35.4859 240.424 36.3646ZM230.878 45.9105C243.18 58.212 243.18 78.1567 230.878 90.4582C230 91.3369 228.575 91.3369 227.696 90.4583L226.105 88.8674C225.683 88.4454 225.446 87.8731 225.446 87.2764C225.446 86.6796 225.683 86.1073 226.105 85.6853C235.771 76.0199 235.771 60.349 226.105 50.6836C225.227 49.8049 225.227 48.3803 226.105 47.5016L227.696 45.9105C228.118 45.4886 228.69 45.2515 229.287 45.2515C229.884 45.2515 230.456 45.4886 230.878 45.9105ZM221.332 55.5227C228.362 62.5522 228.362 73.9491 221.332 80.9786C220.454 81.8572 219.029 81.8572 218.15 80.9786L216.559 79.3876C216.137 78.9656 215.9 78.3933 215.9 77.7966C215.9 77.1998 216.137 76.6275 216.559 76.2056C220.953 71.8122 220.953 64.6891 216.559 60.2957C215.681 59.417 215.681 57.9924 216.559 57.1137L218.15 55.5227C219.029 54.644 220.454 54.644 221.332 55.5227Z" fill="black"/>
</g>
<defs>
<linearGradient id="paint0_linear_33_319" x1="282.854" y1="6.92725" x2="718.895" y2="6.54565" gradientUnits="userSpaceOnUse">
<stop stop-color="#FFD956"/>
<stop offset="0.155" stop-color="#F7CB61"/>
<stop offset="0.35" stop-color="#FFD46A"/>
<stop offset="0.565" stop-color="#FFD675"/>
<stop offset="0.715" stop-color="#FBD67E"/>
<stop offset="0.84" stop-color="#F9C762"/>
<stop offset="1" stop-color="#F1B856"/>
</linearGradient>
<clipPath id="clip0_33_319">
<rect width="460.5" height="281.961" fill="white" transform="matrix(0 1 -1 0 282.854 0)"/>
</clipPath>
</defs>
</svg>
