<svg width="86" height="86" viewBox="0 0 86 86" fill="none" xmlns="http://www.w3.org/2000/svg">
<path d="M41.4356 1.17873C42.2982 0.48944 43.5231 0.489441 44.3857 1.17873L49.3221 5.12361C49.9213 5.60242 50.7156 5.76061 51.4525 5.54788L57.5189 3.79657C58.5792 3.49046 59.7102 3.95915 60.2432 4.92553L63.2998 10.4675C63.6698 11.1384 64.3422 11.5883 65.1036 11.6742L71.3807 12.383C72.4761 12.5067 73.3404 13.3714 73.4636 14.4668L74.1718 20.7652C74.2573 21.5256 74.7057 22.1974 75.375 22.5681L80.909 25.6331C81.8722 26.1665 82.3393 27.2946 82.0351 28.3528L80.2831 34.4469C80.0719 35.1815 80.2291 35.9729 80.7051 36.571L84.6504 41.5287C85.3357 42.3899 85.3357 43.6101 84.6504 44.4713L80.7051 49.429C80.2291 50.0271 80.0719 50.8185 80.2831 51.5531L82.0351 57.6472C82.3393 58.7054 81.8722 59.8335 80.909 60.3669L75.375 63.4319C74.7057 63.8026 74.2573 64.4744 74.1718 65.2348L73.4636 71.5332C73.3404 72.6286 72.4761 73.4933 71.3807 73.617L65.1036 74.3258C64.3422 74.4117 63.6698 74.8616 63.2998 75.5325L60.2432 81.0745C59.7102 82.0409 58.5792 82.5095 57.5189 82.2034L51.4525 80.4521C50.7156 80.2394 49.9213 80.3976 49.3221 80.8764L44.3857 84.8213C43.5231 85.5106 42.2982 85.5106 41.4356 84.8213L36.4992 80.8764C35.9 80.3976 35.1057 80.2394 34.3688 80.4521L28.3024 82.2034C27.2421 82.5095 26.1111 82.0409 25.5781 81.0745L22.5215 75.5325C22.1515 74.8616 21.4791 74.4117 20.7177 74.3258L14.4406 73.617C13.3452 73.4933 12.4809 72.6286 12.3577 71.5332L11.6495 65.2348C11.564 64.4744 11.1156 63.8026 10.4463 63.4319L4.91227 60.3669C3.94905 59.8335 3.482 58.7054 3.78623 57.6472L5.53824 51.5531C5.74944 50.8185 5.59221 50.0271 5.11624 49.429L1.17086 44.4713C0.485549 43.6101 0.485549 42.3899 1.17086 41.5287L5.11624 36.571C5.59221 35.9729 5.74944 35.1815 5.53824 34.4469L3.78623 28.3528C3.482 27.2946 3.94905 26.1665 4.91227 25.6331L10.4463 22.5681C11.1156 22.1974 11.564 21.5256 11.6495 20.7652L12.3577 14.4668C12.4809 13.3714 13.3452 12.5067 14.4406 12.383L20.7177 11.6742C21.4791 11.5883 22.1515 11.1384 22.5215 10.4675L25.5781 4.92553C26.1111 3.95915 27.2421 3.49046 28.3024 3.79657L34.3688 5.54788C35.1057 5.76061 35.9 5.60242 36.4992 5.12361L41.4356 1.17873Z" fill="url(#paint0_linear_182_322)"/>
<path d="M27.0268 37.24C25.8588 37.24 24.7948 37.04 23.8348 36.64C22.8748 36.224 22.0748 35.632 21.4348 34.864L23.5948 32.728C23.9148 33.208 24.3708 33.592 24.9628 33.88C25.5708 34.168 26.2348 34.312 26.9548 34.312C27.6108 34.312 28.1788 34.192 28.6588 33.952C29.1548 33.712 29.5388 33.376 29.8108 32.944C30.0988 32.496 30.2428 31.976 30.2428 31.384C30.2428 30.76 30.0988 30.232 29.8108 29.8C29.5388 29.368 29.1708 29.04 28.7068 28.816C28.2428 28.592 27.7228 28.48 27.1468 28.48C26.5388 28.48 25.9868 28.56 25.4908 28.72C25.0108 28.864 24.5468 29.104 24.0988 29.44L24.2908 27.376C24.5948 27.056 24.9148 26.8 25.2508 26.608C25.5868 26.4 25.9628 26.248 26.3788 26.152C26.8108 26.04 27.3148 25.984 27.8908 25.984C29.1228 25.984 30.1468 26.24 30.9628 26.752C31.7948 27.248 32.4268 27.92 32.8588 28.768C33.2908 29.6 33.5068 30.52 33.5068 31.528C33.5068 32.632 33.2348 33.616 32.6908 34.48C32.1468 35.344 31.3868 36.024 30.4108 36.52C29.4508 37 28.3228 37.24 27.0268 37.24ZM24.0988 29.44L22.5388 27.904L23.3068 20.128H26.2588L25.3948 28.024L24.0988 29.44ZM23.8108 22.96L23.3068 20.128H32.5708V22.96H23.8108ZM40.5805 37.24C39.2525 37.24 38.0525 36.88 36.9805 36.16C35.9085 35.44 35.0525 34.424 34.4125 33.112C33.7885 31.8 33.4765 30.272 33.4765 28.528C33.4765 26.784 33.7885 25.264 34.4125 23.968C35.0365 22.672 35.8765 21.664 36.9325 20.944C38.0045 20.224 39.1965 19.864 40.5085 19.864C41.8525 19.864 43.0525 20.224 44.1085 20.944C45.1805 21.664 46.0285 22.68 46.6525 23.992C47.2765 25.288 47.5885 26.816 47.5885 28.576C47.5885 30.32 47.2765 31.848 46.6525 33.16C46.0285 34.456 45.1885 35.464 44.1325 36.184C43.0765 36.888 41.8925 37.24 40.5805 37.24ZM40.5325 34.288C41.3005 34.288 41.9645 34.072 42.5245 33.64C43.0845 33.208 43.5165 32.568 43.8205 31.72C44.1405 30.872 44.3005 29.816 44.3005 28.552C44.3005 27.288 44.1405 26.232 43.8205 25.384C43.5165 24.536 43.0765 23.904 42.5005 23.488C41.9405 23.056 41.2765 22.84 40.5085 22.84C39.7565 22.84 39.1005 23.056 38.5405 23.488C37.9805 23.904 37.5405 24.536 37.2205 25.384C36.9165 26.216 36.7645 27.264 36.7645 28.528C36.7645 29.808 36.9165 30.872 37.2205 31.72C37.5405 32.568 37.9805 33.208 38.5405 33.64C39.1005 34.072 39.7645 34.288 40.5325 34.288ZM51.1202 26.824C50.4962 26.824 49.9122 26.672 49.3682 26.368C48.8402 26.048 48.4242 25.624 48.1202 25.096C47.8162 24.568 47.6642 23.984 47.6642 23.344C47.6642 22.688 47.8162 22.104 48.1202 21.592C48.4242 21.08 48.8402 20.672 49.3682 20.368C49.8962 20.048 50.4802 19.888 51.1202 19.888C51.7762 19.888 52.3682 20.048 52.8962 20.368C53.4402 20.672 53.8642 21.08 54.1682 21.592C54.4722 22.104 54.6242 22.688 54.6242 23.344C54.6242 23.984 54.4642 24.568 54.1442 25.096C53.8402 25.624 53.4242 26.048 52.8962 26.368C52.3842 26.672 51.7922 26.824 51.1202 26.824ZM51.1202 24.544C51.4882 24.544 51.7762 24.432 51.9842 24.208C52.1922 23.984 52.2962 23.696 52.2962 23.344C52.2962 22.992 52.1842 22.704 51.9602 22.48C51.7522 22.256 51.4722 22.144 51.1202 22.144C50.7842 22.144 50.5122 22.256 50.3042 22.48C50.0962 22.704 49.9922 22.992 49.9922 23.344C49.9922 23.696 50.0962 23.984 50.3042 24.208C50.5122 24.432 50.7842 24.544 51.1202 24.544ZM58.5122 37.24C57.8722 37.24 57.2882 37.088 56.7602 36.784C56.2322 36.464 55.8082 36.048 55.4882 35.536C55.1842 35.008 55.0322 34.416 55.0322 33.76C55.0322 33.104 55.1842 32.52 55.4882 32.008C55.8082 31.496 56.2242 31.088 56.7362 30.784C57.2642 30.464 57.8562 30.304 58.5122 30.304C59.1682 30.304 59.7602 30.464 60.2882 30.784C60.8162 31.088 61.2322 31.496 61.5362 32.008C61.8562 32.52 62.0162 33.104 62.0162 33.76C62.0162 34.416 61.8562 35.008 61.5362 35.536C61.2322 36.048 60.8162 36.464 60.2882 36.784C59.7762 37.088 59.1842 37.24 58.5122 37.24ZM58.5122 34.96C58.8642 34.96 59.1522 34.848 59.3762 34.624C59.6002 34.4 59.7122 34.112 59.7122 33.76C59.7122 33.424 59.5922 33.144 59.3522 32.92C59.1282 32.696 58.8482 32.584 58.5122 32.584C58.1762 32.584 57.8962 32.696 57.6722 32.92C57.4642 33.144 57.3602 33.424 57.3602 33.76C57.3602 34.112 57.4642 34.4 57.6722 34.624C57.8962 34.848 58.1762 34.96 58.5122 34.96ZM48.1202 37L58.5842 20.128H61.5602L51.0962 37H48.1202ZM36.2873 67.24C35.1673 67.24 34.1593 66.976 33.2633 66.448C32.3673 65.92 31.6553 65.208 31.1273 64.312C30.5993 63.4 30.3353 62.384 30.3353 61.264C30.3353 60.16 30.5993 59.168 31.1273 58.288C31.6553 57.392 32.3673 56.68 33.2633 56.152C34.1593 55.624 35.1673 55.36 36.2873 55.36C37.3913 55.36 38.3913 55.624 39.2873 56.152C40.1993 56.664 40.9193 57.368 41.4473 58.264C41.9753 59.16 42.2393 60.16 42.2393 61.264C42.2393 62.384 41.9753 63.4 41.4473 64.312C40.9193 65.208 40.1993 65.92 39.2873 66.448C38.3913 66.976 37.3913 67.24 36.2873 67.24ZM36.2873 65.152C37.0073 65.152 37.6473 64.984 38.2073 64.648C38.7673 64.312 39.2073 63.856 39.5273 63.28C39.8473 62.688 40.0073 62.016 40.0073 61.264C40.0073 60.528 39.8393 59.872 39.5033 59.296C39.1833 58.72 38.7433 58.272 38.1833 57.952C37.6393 57.616 37.0073 57.448 36.2873 57.448C35.5673 57.448 34.9273 57.616 34.3673 57.952C33.8073 58.272 33.3673 58.72 33.0473 59.296C32.7273 59.872 32.5673 60.528 32.5673 61.264C32.5673 62.016 32.7273 62.688 33.0473 63.28C33.3673 63.856 33.8073 64.312 34.3673 64.648C34.9273 64.984 35.5673 65.152 36.2873 65.152ZM44.2735 67V54.352C44.2735 53.472 44.4575 52.704 44.8255 52.048C45.2095 51.376 45.7375 50.848 46.4095 50.464C47.0815 50.064 47.8575 49.864 48.7375 49.864C49.6335 49.864 50.3695 50.056 50.9455 50.44C51.5215 50.824 51.9455 51.352 52.2175 52.024C52.5055 52.68 52.6495 53.432 52.6495 54.28L51.0655 54.256C51.0495 53.52 50.8495 52.936 50.4655 52.504C50.0815 52.056 49.5055 51.832 48.7375 51.832C47.9855 51.832 47.4095 52.056 47.0095 52.504C46.6255 52.936 46.4335 53.536 46.4335 54.304V67H44.2735ZM41.4655 57.568V55.6H56.8495V57.568H41.4655ZM51.0655 67V53.896C51.0655 53.048 51.2495 52.312 51.6175 51.688C51.9855 51.048 52.4895 50.544 53.1295 50.176C53.7855 49.808 54.5455 49.624 55.4095 49.624C56.0655 49.624 56.6335 49.736 57.1135 49.96C57.5935 50.184 58.0335 50.512 58.4335 50.944L57.0175 52.336C56.8095 52.112 56.5775 51.944 56.3215 51.832C56.0655 51.704 55.7535 51.64 55.3855 51.64C54.6975 51.64 54.1615 51.84 53.7775 52.24C53.4095 52.64 53.2255 53.192 53.2255 53.896V67H51.0655Z" fill="white"/>
<defs>
<linearGradient id="paint0_linear_182_322" x1="8.20167e-06" y1="0.753786" x2="103.658" y2="43.9772" gradientUnits="userSpaceOnUse">
<stop stop-color="#CF4258"/>
<stop offset="1" stop-color="#F38D56"/>
</linearGradient>
</defs>
</svg>
