<svg width="157" height="157" viewBox="0 0 157 157" fill="none" xmlns="http://www.w3.org/2000/svg">
<g filter="url(#filter0_d_281_2227)">
<path d="M15 15H102C124.091 15 142 32.9086 142 55V142L75.279 76.5L15 15Z" fill="#FFD956"/>
</g>
<path fill-rule="evenodd" clip-rule="evenodd" d="M99.75 37.25L118.5 37.25C118.832 37.25 119.149 37.3817 119.384 37.6161C119.618 37.8505 119.75 38.1685 119.75 38.5V57.25C119.75 57.9404 119.19 58.5 118.5 58.5C117.81 58.5 117.25 57.9404 117.25 57.25V41.5178L94.3839 64.3839C93.8957 64.872 93.1043 64.872 92.6161 64.3839C92.128 63.8957 92.128 63.1043 92.6161 62.6161L115.482 39.75L99.75 39.75C99.0596 39.75 98.5 39.1904 98.5 38.5C98.5 37.8096 99.0596 37.25 99.75 37.25Z" fill="black"/>
<defs>
<filter id="filter0_d_281_2227" x="0" y="0" width="157" height="157" filterUnits="userSpaceOnUse" color-interpolation-filters="sRGB">
<feFlood flood-opacity="0" result="BackgroundImageFix"/>
<feColorMatrix in="SourceAlpha" type="matrix" values="0 0 0 0 0 0 0 0 0 0 0 0 0 0 0 0 0 0 127 0" result="hardAlpha"/>
<feOffset/>
<feGaussianBlur stdDeviation="7.5"/>
<feComposite in2="hardAlpha" operator="out"/>
<feColorMatrix type="matrix" values="0 0 0 0 0 0 0 0 0 0 0 0 0 0 0 0 0 0 0.2 0"/>
<feBlend mode="normal" in2="BackgroundImageFix" result="effect1_dropShadow_281_2227"/>
<feBlend mode="normal" in="SourceGraphic" in2="effect1_dropShadow_281_2227" result="shape"/>
</filter>
</defs>
</svg>
