<svg width="358" height="334" viewBox="0 0 358 334" fill="none" xmlns="http://www.w3.org/2000/svg">
<g clip-path="url(#clip0_146_98)" filter="url(#filter0_dddd_146_98)">
<rect x="47" y="9" width="264" height="161.668" rx="17.1987" fill="url(#paint0_linear_146_98)"/>
<path d="M292.628 42.5376C272.143 42.5376 255.534 59.3206 255.534 80.0218C255.534 89.5001 259.019 98.1633 264.768 104.759C264.819 104.827 264.875 104.892 264.938 104.956L265.486 105.571L292.627 135.628L313.109 112.943L307.038 106.808C302.753 109.168 297.842 110.512 292.627 110.512C275.976 110.512 262.432 96.8256 262.432 79.9997C262.432 63.1738 275.976 49.4874 292.627 49.4874C309.278 49.4874 322.822 63.1738 322.822 79.9997C322.822 84.8877 321.679 89.5131 319.648 93.6107L324.75 98.7665C327.91 93.2532 329.717 86.8494 329.717 80.0205C329.718 59.3206 313.114 42.5376 292.628 42.5376Z" fill="#FAFAFA"/>
<path d="M311.359 93.6995C314.129 89.8489 315.76 85.1156 315.76 80.0027C315.76 67.1132 305.383 56.6274 292.628 56.6274C279.873 56.6274 269.496 67.1132 269.496 80.0027C269.496 92.8922 279.873 103.378 292.628 103.378C298.062 103.378 303.069 101.472 307.021 98.2898L317.175 108.436L321.354 103.799L311.359 93.6995ZM275.158 80.0027C275.158 70.2631 282.995 62.3474 292.629 62.3474C302.264 62.3474 310.101 70.2631 310.101 80.0027C310.101 89.7423 302.264 97.658 292.629 97.658C282.995 97.658 275.158 89.7384 275.158 80.0027Z" fill="#FAFAFA"/>
<path d="M91.7234 119.609V118.013H93.7735C94.2046 118.013 94.5348 117.903 94.7641 117.683C95.0026 117.463 95.1219 117.164 95.1219 116.788C95.1219 116.44 95.0072 116.151 94.7779 115.922C94.5486 115.692 94.2184 115.578 93.7872 115.578H91.7234V113.899H94.0349C94.677 113.899 95.2411 114.023 95.7273 114.27C96.2134 114.509 96.5941 114.844 96.8693 115.275C97.1444 115.706 97.282 116.201 97.282 116.761C97.282 117.33 97.1444 117.829 96.8693 118.261C96.5941 118.682 96.2088 119.013 95.7135 119.251C95.2182 119.49 94.6357 119.609 93.9661 119.609H91.7234ZM90.0723 123.613V113.899H92.2325V123.613H90.0723ZM95.3558 123.613L92.3288 119.43L94.3101 118.893L97.9149 123.613H95.3558ZM101.679 123.764C101.065 123.764 100.519 123.64 100.042 123.393C99.5743 123.136 99.2074 122.787 98.9414 122.347C98.6754 121.898 98.5424 121.384 98.5424 120.806V116.926H100.647V120.778C100.647 121.008 100.684 121.205 100.758 121.37C100.84 121.535 100.959 121.664 101.115 121.755C101.271 121.847 101.459 121.893 101.679 121.893C101.991 121.893 102.239 121.797 102.422 121.604C102.606 121.402 102.698 121.127 102.698 120.778V116.926H104.803V120.792C104.803 121.379 104.67 121.898 104.404 122.347C104.138 122.787 103.771 123.136 103.303 123.393C102.835 123.64 102.294 123.764 101.679 123.764ZM108.56 123.778C108.165 123.778 107.775 123.727 107.39 123.627C107.014 123.526 106.661 123.383 106.331 123.2C106.01 123.007 105.735 122.787 105.505 122.54L106.702 121.329C106.922 121.567 107.184 121.755 107.487 121.893C107.789 122.021 108.119 122.086 108.477 122.086C108.725 122.086 108.913 122.049 109.041 121.975C109.179 121.902 109.248 121.801 109.248 121.673C109.248 121.508 109.165 121.384 109 121.301C108.844 121.21 108.642 121.132 108.395 121.067C108.147 120.994 107.886 120.916 107.61 120.833C107.335 120.751 107.074 120.636 106.826 120.49C106.578 120.343 106.377 120.141 106.221 119.884C106.065 119.618 105.987 119.283 105.987 118.88C105.987 118.449 106.097 118.077 106.317 117.765C106.537 117.444 106.849 117.192 107.253 117.008C107.656 116.825 108.129 116.733 108.67 116.733C109.239 116.733 109.761 116.834 110.238 117.036C110.724 117.229 111.119 117.518 111.422 117.903L110.225 119.114C110.014 118.866 109.775 118.692 109.509 118.591C109.252 118.49 109 118.439 108.752 118.439C108.514 118.439 108.335 118.476 108.216 118.549C108.097 118.614 108.037 118.71 108.037 118.838C108.037 118.976 108.115 119.086 108.271 119.169C108.427 119.251 108.629 119.325 108.876 119.389C109.124 119.453 109.385 119.531 109.66 119.623C109.936 119.714 110.197 119.838 110.445 119.994C110.692 120.15 110.894 120.361 111.05 120.627C111.206 120.884 111.284 121.223 111.284 121.645C111.284 122.297 111.036 122.815 110.541 123.2C110.055 123.585 109.394 123.778 108.56 123.778ZM116.843 123.613V119.802C116.843 119.453 116.733 119.173 116.513 118.962C116.302 118.742 116.031 118.632 115.701 118.632C115.471 118.632 115.27 118.682 115.095 118.783C114.921 118.875 114.783 119.013 114.683 119.196C114.582 119.37 114.531 119.572 114.531 119.802L113.719 119.403C113.719 118.88 113.83 118.421 114.05 118.027C114.27 117.632 114.577 117.33 114.972 117.119C115.366 116.898 115.82 116.788 116.334 116.788C116.857 116.788 117.315 116.898 117.71 117.119C118.104 117.33 118.407 117.628 118.618 118.013C118.838 118.389 118.948 118.829 118.948 119.334V123.613H116.843ZM112.426 123.613V113.624H114.531V123.613H112.426ZM120.3 123.613V116.926H122.405V123.613H120.3ZM121.359 116.004C121.029 116.004 120.754 115.894 120.534 115.674C120.323 115.445 120.217 115.169 120.217 114.848C120.217 114.518 120.323 114.243 120.534 114.023C120.754 113.803 121.029 113.693 121.359 113.693C121.69 113.693 121.96 113.803 122.171 114.023C122.382 114.243 122.488 114.518 122.488 114.848C122.488 115.169 122.382 115.445 122.171 115.674C121.96 115.894 121.69 116.004 121.359 116.004ZM123.887 123.613V113.624H125.993V123.613H123.887ZM130.288 123.613V113.899H131.829L135.654 119.857H134.869L138.681 113.899H140.235V123.613H138.075V117.545L138.461 117.641L135.97 121.521H134.539L132.063 117.641L132.434 117.545V123.613H130.288ZM144.699 123.75C144.084 123.75 143.534 123.599 143.048 123.296C142.571 122.994 142.19 122.581 141.906 122.058C141.631 121.535 141.493 120.939 141.493 120.269C141.493 119.6 141.631 119.004 141.906 118.481C142.19 117.958 142.571 117.545 143.048 117.242C143.534 116.94 144.084 116.788 144.699 116.788C145.148 116.788 145.552 116.875 145.91 117.05C146.277 117.224 146.575 117.467 146.804 117.779C147.033 118.082 147.162 118.43 147.189 118.825V121.714C147.162 122.108 147.033 122.462 146.804 122.773C146.584 123.076 146.29 123.315 145.923 123.489C145.556 123.663 145.148 123.75 144.699 123.75ZM145.125 121.852C145.575 121.852 145.937 121.705 146.212 121.411C146.487 121.109 146.625 120.728 146.625 120.269C146.625 119.957 146.561 119.682 146.432 119.444C146.313 119.205 146.139 119.022 145.91 118.893C145.689 118.756 145.433 118.687 145.139 118.687C144.846 118.687 144.584 118.756 144.355 118.893C144.135 119.022 143.956 119.205 143.818 119.444C143.69 119.682 143.626 119.957 143.626 120.269C143.626 120.572 143.69 120.843 143.818 121.081C143.947 121.32 144.126 121.508 144.355 121.645C144.584 121.783 144.841 121.852 145.125 121.852ZM146.543 123.613V121.81L146.859 120.187L146.543 118.563V116.926H148.606V123.613H146.543ZM154.505 123.613V119.802C154.505 119.453 154.395 119.173 154.175 118.962C153.964 118.742 153.693 118.632 153.363 118.632C153.134 118.632 152.932 118.682 152.758 118.783C152.584 118.875 152.446 119.013 152.345 119.196C152.244 119.37 152.194 119.572 152.194 119.802L151.382 119.403C151.382 118.88 151.492 118.421 151.712 118.027C151.932 117.632 152.24 117.33 152.634 117.119C153.028 116.898 153.482 116.788 153.996 116.788C154.519 116.788 154.978 116.898 155.372 117.119C155.766 117.33 156.069 117.628 156.28 118.013C156.5 118.389 156.61 118.829 156.61 119.334V123.613H154.505ZM150.089 123.613V113.624H152.194V123.613H150.089ZM157.962 123.613V116.926H160.067V123.613H157.962ZM159.022 116.004C158.692 116.004 158.416 115.894 158.196 115.674C157.985 115.445 157.88 115.169 157.88 114.848C157.88 114.518 157.985 114.243 158.196 114.023C158.416 113.803 158.692 113.693 159.022 113.693C159.352 113.693 159.623 113.803 159.834 114.023C160.045 114.243 160.15 114.518 160.15 114.848C160.15 115.169 160.045 115.445 159.834 115.674C159.623 115.894 159.352 116.004 159.022 116.004ZM165.967 123.613V119.802C165.967 119.453 165.856 119.173 165.636 118.962C165.425 118.742 165.155 118.632 164.825 118.632C164.595 118.632 164.393 118.682 164.219 118.783C164.045 118.875 163.907 119.013 163.806 119.196C163.705 119.37 163.655 119.572 163.655 119.802L162.843 119.403C162.843 118.88 162.958 118.421 163.187 118.027C163.417 117.632 163.733 117.33 164.137 117.119C164.549 116.898 165.013 116.788 165.526 116.788C166.022 116.788 166.457 116.908 166.833 117.146C167.219 117.375 167.521 117.683 167.741 118.068C167.962 118.453 168.072 118.875 168.072 119.334V123.613H165.967ZM161.55 123.613V116.926H163.655V123.613H161.55ZM172.272 123.75C171.639 123.75 171.075 123.599 170.579 123.296C170.093 122.994 169.708 122.581 169.424 122.058C169.149 121.535 169.011 120.939 169.011 120.269C169.011 119.6 169.149 119.004 169.424 118.481C169.708 117.958 170.093 117.545 170.579 117.242C171.075 116.94 171.639 116.788 172.272 116.788C172.73 116.788 173.143 116.875 173.51 117.05C173.886 117.224 174.193 117.467 174.432 117.779C174.68 118.082 174.817 118.43 174.845 118.825V121.645C174.817 122.04 174.684 122.397 174.446 122.718C174.207 123.03 173.9 123.283 173.524 123.475C173.148 123.659 172.73 123.75 172.272 123.75ZM172.643 121.852C172.946 121.852 173.207 121.787 173.428 121.659C173.648 121.521 173.822 121.333 173.95 121.095C174.079 120.856 174.143 120.581 174.143 120.269C174.143 119.957 174.079 119.687 173.95 119.458C173.831 119.219 173.657 119.031 173.428 118.893C173.207 118.756 172.951 118.687 172.657 118.687C172.364 118.687 172.102 118.756 171.873 118.893C171.653 119.031 171.474 119.219 171.336 119.458C171.208 119.696 171.144 119.967 171.144 120.269C171.144 120.572 171.208 120.843 171.336 121.081C171.465 121.32 171.643 121.508 171.873 121.645C172.102 121.783 172.359 121.852 172.643 121.852ZM176.124 123.613H174.06V121.81L174.377 120.187L174.019 118.563V113.624H176.124V123.613ZM177.607 123.613V116.926H179.712V123.613H177.607ZM179.712 119.939L178.831 119.251C179.005 118.472 179.299 117.866 179.712 117.435C180.124 117.004 180.698 116.788 181.431 116.788C181.753 116.788 182.032 116.839 182.271 116.94C182.518 117.031 182.734 117.178 182.917 117.38L181.665 118.962C181.574 118.861 181.459 118.783 181.321 118.728C181.184 118.673 181.028 118.646 180.854 118.646C180.505 118.646 180.225 118.756 180.014 118.976C179.813 119.187 179.712 119.508 179.712 119.939ZM186.083 123.75C185.469 123.75 184.918 123.599 184.432 123.296C183.955 122.994 183.574 122.581 183.29 122.058C183.015 121.535 182.877 120.939 182.877 120.269C182.877 119.6 183.015 119.004 183.29 118.481C183.574 117.958 183.955 117.545 184.432 117.242C184.918 116.94 185.469 116.788 186.083 116.788C186.533 116.788 186.936 116.875 187.294 117.05C187.661 117.224 187.959 117.467 188.188 117.779C188.418 118.082 188.546 118.43 188.574 118.825V121.714C188.546 122.108 188.418 122.462 188.188 122.773C187.968 123.076 187.675 123.315 187.308 123.489C186.941 123.663 186.533 123.75 186.083 123.75ZM186.51 121.852C186.959 121.852 187.322 121.705 187.597 121.411C187.872 121.109 188.009 120.728 188.009 120.269C188.009 119.957 187.945 119.682 187.817 119.444C187.698 119.205 187.523 119.022 187.294 118.893C187.074 118.756 186.817 118.687 186.523 118.687C186.23 118.687 185.969 118.756 185.739 118.893C185.519 119.022 185.34 119.205 185.203 119.444C185.074 119.682 185.01 119.957 185.01 120.269C185.01 120.572 185.074 120.843 185.203 121.081C185.331 121.32 185.51 121.508 185.739 121.645C185.969 121.783 186.225 121.852 186.51 121.852ZM187.927 123.613V121.81L188.243 120.187L187.927 118.563V116.926H189.991V123.613H187.927ZM92.9892 140.764C92.1912 140.764 91.5033 140.636 90.9254 140.379C90.3567 140.113 89.8338 139.714 89.3569 139.182L90.7603 137.792C91.0721 138.15 91.4161 138.43 91.7922 138.632C92.1774 138.824 92.6223 138.92 93.1268 138.92C93.5854 138.92 93.9386 138.838 94.1863 138.673C94.4431 138.508 94.5715 138.278 94.5715 137.985C94.5715 137.719 94.489 137.503 94.3238 137.338C94.1587 137.173 93.9386 137.031 93.6634 136.912C93.3974 136.792 93.0993 136.678 92.7691 136.568C92.448 136.458 92.127 136.334 91.806 136.196C91.4849 136.049 91.1868 135.871 90.9116 135.66C90.6456 135.439 90.4301 135.169 90.265 134.848C90.0998 134.518 90.0173 134.105 90.0173 133.609C90.0173 133.013 90.1595 132.5 90.4438 132.068C90.7373 131.637 91.1409 131.312 91.6546 131.092C92.1683 130.862 92.7599 130.748 93.4295 130.748C94.1083 130.748 94.7274 130.867 95.287 131.105C95.8557 131.344 96.3235 131.669 96.6904 132.082L95.287 133.472C94.9934 133.169 94.6953 132.944 94.3926 132.798C94.0991 132.651 93.7643 132.578 93.3882 132.578C93.0122 132.578 92.714 132.651 92.4939 132.798C92.2738 132.935 92.1637 133.137 92.1637 133.403C92.1637 133.651 92.2462 133.853 92.4114 134.008C92.5765 134.155 92.792 134.284 93.058 134.394C93.3332 134.504 93.6313 134.614 93.9524 134.724C94.2826 134.834 94.6082 134.962 94.9292 135.109C95.2503 135.256 95.5438 135.444 95.8098 135.673C96.085 135.893 96.3051 136.178 96.4702 136.526C96.6354 136.866 96.7179 137.288 96.7179 137.792C96.7179 138.719 96.3877 139.448 95.7273 139.98C95.0668 140.503 94.1542 140.764 92.9892 140.764ZM101.163 140.764C100.438 140.764 99.7918 140.617 99.2231 140.324C98.6636 140.021 98.2233 139.604 97.9023 139.072C97.5812 138.54 97.4207 137.939 97.4207 137.269C97.4207 136.6 97.5766 136.004 97.8885 135.481C98.2095 134.949 98.6406 134.531 99.1818 134.229C99.723 133.926 100.333 133.775 101.012 133.775C101.672 133.775 102.255 133.917 102.759 134.201C103.264 134.485 103.658 134.88 103.942 135.384C104.236 135.889 104.383 136.467 104.383 137.118C104.383 137.237 104.374 137.366 104.355 137.503C104.346 137.632 104.323 137.783 104.286 137.957L98.5214 137.971V136.526L103.392 136.513L102.484 137.118C102.475 136.733 102.415 136.416 102.305 136.169C102.195 135.912 102.03 135.719 101.81 135.591C101.599 135.453 101.337 135.384 101.026 135.384C100.695 135.384 100.406 135.462 100.159 135.618C99.9202 135.765 99.7322 135.976 99.5946 136.251C99.4662 136.526 99.402 136.861 99.402 137.256C99.402 137.65 99.4708 137.989 99.6084 138.274C99.7551 138.549 99.9569 138.765 100.214 138.92C100.48 139.067 100.792 139.141 101.149 139.141C101.48 139.141 101.778 139.086 102.044 138.975C102.31 138.856 102.544 138.682 102.745 138.453L103.901 139.608C103.571 139.994 103.172 140.283 102.704 140.475C102.236 140.668 101.723 140.764 101.163 140.764ZM109.815 140.613V136.802C109.815 136.453 109.705 136.173 109.485 135.962C109.274 135.742 109.004 135.632 108.673 135.632C108.444 135.632 108.242 135.682 108.068 135.783C107.894 135.875 107.756 136.013 107.655 136.196C107.554 136.37 107.504 136.572 107.504 136.802L106.692 136.403C106.692 135.88 106.802 135.421 107.022 135.027C107.243 134.632 107.55 134.33 107.944 134.119C108.339 133.898 108.793 133.788 109.306 133.788C109.829 133.788 110.288 133.898 110.682 134.119C111.077 134.33 111.379 134.628 111.59 135.013C111.811 135.389 111.921 135.829 111.921 136.334V140.613H109.815ZM105.399 140.613V130.624H107.504V140.613H105.399ZM116.107 143.612C115.373 143.612 114.726 143.484 114.167 143.227C113.617 142.979 113.181 142.626 112.86 142.168L114.153 140.874C114.392 141.159 114.658 141.374 114.951 141.521C115.254 141.668 115.616 141.741 116.038 141.741C116.561 141.741 116.969 141.613 117.263 141.356C117.565 141.099 117.717 140.737 117.717 140.269V138.563L118.074 137.104L117.758 135.646V133.926H119.822V140.214C119.822 140.902 119.661 141.498 119.34 142.002C119.019 142.507 118.579 142.901 118.019 143.186C117.46 143.47 116.822 143.612 116.107 143.612ZM116.011 140.406C115.396 140.406 114.85 140.26 114.373 139.966C113.896 139.673 113.52 139.274 113.245 138.769C112.97 138.265 112.832 137.705 112.832 137.09C112.832 136.467 112.97 135.907 113.245 135.412C113.52 134.907 113.896 134.513 114.373 134.229C114.85 133.935 115.396 133.788 116.011 133.788C116.469 133.788 116.877 133.875 117.235 134.05C117.602 134.215 117.896 134.453 118.116 134.765C118.345 135.068 118.474 135.421 118.501 135.825V138.37C118.474 138.765 118.345 139.118 118.116 139.43C117.896 139.732 117.602 139.971 117.235 140.145C116.868 140.319 116.46 140.406 116.011 140.406ZM116.41 138.535C116.703 138.535 116.955 138.471 117.166 138.343C117.387 138.214 117.552 138.044 117.662 137.833C117.781 137.613 117.841 137.366 117.841 137.09C117.841 136.815 117.781 136.568 117.662 136.348C117.552 136.127 117.387 135.953 117.166 135.825C116.955 135.696 116.703 135.632 116.41 135.632C116.125 135.632 115.873 135.696 115.653 135.825C115.433 135.953 115.263 136.127 115.144 136.348C115.025 136.568 114.965 136.815 114.965 137.09C114.965 137.347 115.025 137.59 115.144 137.82C115.263 138.04 115.428 138.214 115.639 138.343C115.859 138.471 116.116 138.535 116.41 138.535ZM124.101 140.75C123.486 140.75 122.936 140.599 122.45 140.296C121.973 139.994 121.592 139.581 121.308 139.058C121.032 138.535 120.895 137.939 120.895 137.269C120.895 136.6 121.032 136.004 121.308 135.481C121.592 134.958 121.973 134.545 122.45 134.242C122.936 133.94 123.486 133.788 124.101 133.788C124.55 133.788 124.954 133.875 125.311 134.05C125.678 134.224 125.977 134.467 126.206 134.779C126.435 135.082 126.564 135.43 126.591 135.825V138.714C126.564 139.108 126.435 139.462 126.206 139.773C125.986 140.076 125.692 140.315 125.325 140.489C124.958 140.663 124.55 140.75 124.101 140.75ZM124.527 138.852C124.977 138.852 125.339 138.705 125.614 138.411C125.889 138.109 126.027 137.728 126.027 137.269C126.027 136.957 125.963 136.682 125.834 136.444C125.715 136.205 125.541 136.022 125.311 135.893C125.091 135.756 124.835 135.687 124.541 135.687C124.247 135.687 123.986 135.756 123.757 135.893C123.537 136.022 123.358 136.205 123.22 136.444C123.092 136.682 123.028 136.957 123.028 137.269C123.028 137.572 123.092 137.843 123.22 138.081C123.349 138.32 123.527 138.508 123.757 138.645C123.986 138.783 124.243 138.852 124.527 138.852ZM125.944 140.613V138.81L126.261 137.187L125.944 135.563V133.926H128.008V140.613H125.944ZM129.49 140.613V130.624H131.596V140.613H129.49Z" fill="#FAFAFA"/>
<path fill-rule="evenodd" clip-rule="evenodd" d="M67.8475 33.3251C77.9223 23.2504 94.2567 23.2504 104.331 33.3251C104.835 33.8288 104.835 34.6455 104.332 35.1493L103.419 36.0615C103.178 36.3034 102.849 36.4393 102.507 36.4393C102.165 36.4393 101.837 36.3034 101.595 36.0615C93.0316 27.4979 79.1474 27.4979 70.5838 36.0615C70.3419 36.3034 70.0138 36.4393 69.6717 36.4393C69.3296 36.4393 69.0015 36.3034 68.7596 36.0615L67.8475 35.1493C67.3438 34.6455 67.3438 33.8288 67.8475 33.3251ZM73.3201 38.7978C80.3725 31.7455 91.8065 31.7455 98.8589 38.7978C99.3626 39.3015 99.3626 40.1182 98.8589 40.622L97.9468 41.5341C97.7049 41.776 97.3769 41.9119 97.0347 41.9119C96.6926 41.9119 96.3645 41.776 96.1226 41.5341C90.5815 35.993 81.5976 35.993 76.0565 41.5341C75.5527 42.0378 74.736 42.0378 74.2323 41.5341L73.3201 40.622C73.0782 40.3801 72.9423 40.052 72.9423 39.7099C72.9423 39.3678 73.0782 39.0397 73.3201 38.7978ZM78.8307 44.2703C82.8606 40.2404 89.3944 40.2404 93.4243 44.2703C93.928 44.774 93.928 45.5908 93.4243 46.0945L92.5122 47.0066C92.2703 47.2485 91.9422 47.3844 91.6001 47.3844C91.258 47.3844 90.9299 47.2485 90.688 47.0066C88.1693 44.4879 84.0857 44.4879 81.567 47.0066C81.0633 47.5103 80.2465 47.5103 79.7428 47.0066L78.8307 46.0945C78.327 45.5908 78.327 44.774 78.8307 44.2703Z" fill="#FAFAFA"/>
</g>
<defs>
<filter id="filter0_dddd_146_98" x="0.563519" y="0.400651" width="356.873" height="333.414" filterUnits="userSpaceOnUse" color-interpolation-filters="sRGB">
<feFlood flood-opacity="0" result="BackgroundImageFix"/>
<feColorMatrix in="SourceAlpha" type="matrix" values="0 0 0 0 0 0 0 0 0 0 0 0 0 0 0 0 0 0 127 0" result="hardAlpha"/>
<feOffset dy="7.45277"/>
<feGaussianBlur stdDeviation="8.02606"/>
<feColorMatrix type="matrix" values="0 0 0 0 0 0 0 0 0 0 0 0 0 0 0 0 0 0 0.1 0"/>
<feBlend mode="normal" in2="BackgroundImageFix" result="effect1_dropShadow_146_98"/>
<feColorMatrix in="SourceAlpha" type="matrix" values="0 0 0 0 0 0 0 0 0 0 0 0 0 0 0 0 0 0 127 0" result="hardAlpha"/>
<feOffset dy="29.2378"/>
<feGaussianBlur stdDeviation="14.6189"/>
<feColorMatrix type="matrix" values="0 0 0 0 0 0 0 0 0 0 0 0 0 0 0 0 0 0 0.09 0"/>
<feBlend mode="normal" in2="effect1_dropShadow_146_98" result="effect2_dropShadow_146_98"/>
<feColorMatrix in="SourceAlpha" type="matrix" values="0 0 0 0 0 0 0 0 0 0 0 0 0 0 0 0 0 0 127 0" result="hardAlpha"/>
<feOffset dy="65.355"/>
<feGaussianBlur stdDeviation="19.4919"/>
<feColorMatrix type="matrix" values="0 0 0 0 0 0 0 0 0 0 0 0 0 0 0 0 0 0 0.05 0"/>
<feBlend mode="normal" in2="effect2_dropShadow_146_98" result="effect3_dropShadow_146_98"/>
<feColorMatrix in="SourceAlpha" type="matrix" values="0 0 0 0 0 0 0 0 0 0 0 0 0 0 0 0 0 0 127 0" result="hardAlpha"/>
<feOffset dy="116.378"/>
<feGaussianBlur stdDeviation="23.2182"/>
<feColorMatrix type="matrix" values="0 0 0 0 0 0 0 0 0 0 0 0 0 0 0 0 0 0 0.01 0"/>
<feBlend mode="normal" in2="effect3_dropShadow_146_98" result="effect4_dropShadow_146_98"/>
<feBlend mode="normal" in="SourceGraphic" in2="effect4_dropShadow_146_98" result="shape"/>
</filter>
<linearGradient id="paint0_linear_146_98" x1="47" y1="10.417" x2="302.401" y2="184.687" gradientUnits="userSpaceOnUse">
<stop/>
<stop offset="1" stop-color="#303030"/>
</linearGradient>
<clipPath id="clip0_146_98">
<rect width="264" height="162" fill="white" transform="translate(47 9)"/>
</clipPath>
</defs>
</svg>
