<svg width="25" height="24" viewBox="0 0 25 24" fill="none" xmlns="http://www.w3.org/2000/svg">
<path fill-rule="evenodd" clip-rule="evenodd" d="M12.2383 2.25C6.85351 2.25 2.48828 6.61522 2.48828 12C2.48828 17.3848 6.85351 21.75 12.2383 21.75C17.6231 21.75 21.9883 17.3848 21.9883 12C21.9883 6.61522 17.6231 2.25 12.2383 2.25ZM16.5186 12.5303C16.6593 12.3897 16.7383 12.1989 16.7383 12C16.7383 11.8011 16.6593 11.6103 16.5186 11.4697L13.5186 8.46967C13.2257 8.17678 12.7508 8.17678 12.458 8.46967C12.1651 8.76256 12.1651 9.23744 12.458 9.53033L14.1776 11.25L8.48828 11.25C8.07407 11.25 7.73828 11.5858 7.73828 12C7.73828 12.4142 8.07407 12.75 8.48828 12.75L14.1776 12.75L12.458 14.4697C12.1651 14.7626 12.1651 15.2374 12.4579 15.5303C12.7508 15.8232 13.2257 15.8232 13.5186 15.5303L16.5186 12.5303Z" fill="white"/>
</svg>
