<svg width="369" height="289" viewBox="0 0 369 289" fill="none" xmlns="http://www.w3.org/2000/svg">
<path d="M118.523 287.091H21.5631C9.85149 287.042 -0.0347434 277.051 9.17797e-05 265.333L1.03122 21.1312C1.04217 18.3441 1.60222 15.5865 2.67936 13.0159C3.75651 10.4453 5.32963 8.11212 7.30883 6.14973C9.28804 4.18735 11.6345 2.6342 14.2142 1.57904C16.7939 0.523881 19.5563 -0.012611 22.3434 0.000225001L119.749 0.453083C122.535 0.46495 125.291 1.02549 127.86 2.10269C130.429 3.17989 132.761 4.75264 134.722 6.73111C136.683 8.70958 138.235 11.055 139.289 13.6334C140.343 16.2118 140.879 18.9727 140.867 21.7583L139.835 265.96C139.824 268.747 139.264 271.505 138.187 274.075C137.11 276.646 135.537 278.979 133.558 280.941C131.579 282.904 129.232 284.457 126.652 285.512C124.073 286.567 121.31 287.104 118.523 287.091Z" fill="#263238"/>
<path d="M119.617 9.72623L100.729 9.67049C100.113 9.68137 99.5056 9.81345 98.9409 10.0592C98.3762 10.3049 97.8654 10.6595 97.4377 11.1027C97.0101 11.5459 96.6739 12.069 96.4485 12.6421C96.223 13.2152 96.1127 13.8271 96.1237 14.4429V17.8707C96.1443 19.1138 95.671 20.3142 94.8077 21.2089C93.9444 22.1035 92.7616 22.6193 91.5185 22.6431L54.7047 22.4689C54.0889 22.4527 53.4823 22.3152 52.9197 22.0645C52.357 21.8137 51.8493 21.4545 51.4255 21.0074C51.0017 20.5603 50.6701 20.0341 50.4498 19.4588C50.2295 18.8836 50.1246 18.2705 50.1413 17.6547V14.2339C50.1713 12.9894 49.7074 11.7837 48.851 10.8802C47.9945 9.9768 46.8153 9.44918 45.5709 9.41271H38.9314L22.3986 9.33607C20.4471 9.32782 18.513 9.70403 16.7069 10.4432C14.9007 11.1824 13.2579 12.2702 11.8721 13.6443C10.4863 15.0184 9.38478 16.652 8.63036 18.4519C7.87594 20.2517 7.48342 22.1825 7.47521 24.1341L6.46498 262.441C6.44831 266.382 7.99707 270.167 10.7707 272.965C13.5444 275.764 17.3159 277.346 21.256 277.365L118.467 277.811C120.419 277.821 122.355 277.446 124.162 276.707C125.969 275.969 127.613 274.881 129 273.507C130.387 272.133 131.489 270.498 132.243 268.698C132.998 266.897 133.39 264.965 133.397 263.013L134.38 24.6496C134.395 20.7149 132.849 16.9347 130.082 14.1374C127.315 11.3401 123.551 9.75385 119.617 9.72623Z" fill="#F5F5F5"/>
<path d="M78.3583 232.769C78.2468 235.647 78.1423 238.343 78.0518 240.593H91.9858L90.2789 232.01L78.3583 232.769Z" fill="#F5F5F5"/>
<path d="M21.6045 236.357L21.7229 240.593H76.658C76.7486 238.21 76.8531 235.577 76.9576 232.859L21.6045 236.357Z" fill="#F5F5F5"/>
<path d="M91.0107 231.969L92.7246 240.587H118.475L118.161 230.255L91.0107 231.969Z" fill="#F5F5F5"/>
<path d="M79.7518 111.445L84.6217 83.2219L71.8721 82.2744V111.445H79.7518Z" fill="#F5F5F5"/>
<path d="M20.4555 220.688L6.61895 226.109L6.57715 235.911L20.8665 235.006L20.4555 220.688Z" fill="#F5F5F5"/>
<path d="M20.3928 218.487L19.6404 192.2H19.6265V182.927L6.79318 184.285L6.62598 223.865L20.3859 218.473L20.3928 218.487Z" fill="#F5F5F5"/>
<path d="M19.626 162.235L6.89722 160.549L6.80664 182.188L19.626 180.83V162.235Z" fill="#F5F5F5"/>
<path d="M114.51 183.318L113.973 190.856L98.9385 192.472L100.102 198.436L117.164 197.147L116.913 188.599L118.272 182.941L114.51 183.318Z" fill="#F5F5F5"/>
<path d="M87.4081 199.39L99.3984 198.484L96.7858 185.107L86.3213 186.166L87.4081 199.39Z" fill="#F5F5F5"/>
<path d="M87.5273 200.783L88.44 211.938L90.0634 227.237L90.7322 230.588L118.12 228.861L117.207 198.54L87.5273 200.783Z" fill="#F5F5F5"/>
<path d="M40.3876 148.106L41.4396 149.911L20.3225 162.249V191.476L42.617 189.894L85.6106 185.54L84.0361 166.388L42.9933 161.023L43.265 158.933L83.8619 164.235L81.2005 131.817L41.0146 135.677L40.8823 134.284L81.082 130.424L79.6886 113.508H41.0216L7.08517 119.681L6.91797 158.417L19.7582 160.159L40.3876 148.106ZM22.4823 188.661C22.4823 188.661 22.6426 164.569 22.4823 163.67L39.7188 154.502L41.9552 187.435L22.4823 188.661Z" fill="#F5F5F5"/>
<path d="M113.096 183.463L97.4824 185.037L98.6668 191.099L112.664 189.594L113.096 183.463Z" fill="#F5F5F5"/>
<path d="M78.5534 227.606C78.5046 228.874 78.4559 230.129 78.4141 231.369L90.0351 230.63L89.4359 227.634L78.5534 227.606Z" fill="#F5F5F5"/>
<path d="M53.5204 111.445L55.5687 102.158H71.1748V82.2253L22.3847 78.6094V97.3298L7.1478 100.778L7.07812 117.583L40.8195 111.445H53.5204Z" fill="#F5F5F5"/>
<path d="M86.0778 55.9673L85.6598 54.2604L104.29 46.8892L92.174 22.5604C91.9436 22.5977 91.7106 22.6163 91.4772 22.6161L70.8896 22.5186L71.447 56.5664L86.0778 55.9673Z" fill="#F5F5F5"/>
<path d="M114.308 42.9176V9.70574L100.73 9.6709C100.114 9.68178 99.5062 9.81387 98.9415 10.0596C98.3768 10.3054 97.866 10.6599 97.4384 11.1031C97.0107 11.5463 96.6746 12.0694 96.4491 12.6425C96.2237 13.2156 96.1133 13.8275 96.1244 14.4433V17.8711C96.1239 18.6365 95.9433 19.391 95.5971 20.0736C95.251 20.7563 94.749 21.3478 94.1318 21.8005L106.254 46.1433L114.308 42.9176Z" fill="#F5F5F5"/>
<path d="M44.2761 44.3459L42.7015 9.37143H38.9324L24.1971 9.30176L17.9268 40.5768L44.2761 44.3459ZM40.918 12.9176L41.4196 41.3989L21.8353 38.5354L26.12 12.9176H40.918Z" fill="#F5F5F5"/>
<path d="M44.9862 44.4498V44.7425C44.9862 47.4735 45.0698 52.4062 45.1116 57.6385L70.7712 56.5934L70.2138 22.5176L54.6843 22.441C54.0685 22.4247 53.4619 22.2873 52.8993 22.0365C52.3366 21.7857 51.8288 21.4266 51.4051 20.9795C50.9813 20.5324 50.6497 20.0062 50.4294 19.4309C50.209 18.8556 50.1042 18.2426 50.1209 17.6268V14.206C50.1509 12.9615 49.687 11.7557 48.8306 10.8523C47.9741 9.94885 46.7949 9.42123 45.5505 9.38477H43.3838L44.9583 44.4498H44.9862Z" fill="#F5F5F5"/>
<path d="M15.8503 40.2634L22.0649 9.29492C18.1835 9.36407 14.4835 10.95 11.7568 13.7131C9.03012 16.4762 7.49352 20.197 7.47592 24.079L7.40625 39.5179L7.47592 39.0651L15.8503 40.2634Z" fill="#F5F5F5"/>
<path d="M20.2951 78.4567L7.24585 77.4883L7.15527 98.6332L20.2951 95.6583V78.4567Z" fill="#F5F5F5"/>
<path d="M15.7108 40.9462L7.40608 39.7549L7.25977 73.9979L9.0503 74.1302L15.7108 40.9462Z" fill="#F5F5F5"/>
<path d="M42.0672 218.083L42.2832 190.598L20.3301 192.151L21.1104 219.079L42.0672 218.083Z" fill="#F5F5F5"/>
<path d="M46.1081 211.715L77.195 226.61C77.5713 216.856 77.8918 207.799 77.8918 207.193L78.5885 207.158L78.9229 206.503C79.3618 206.719 79.3618 206.719 79.1319 213.359C78.9995 217.058 78.8184 221.984 78.6303 226.91H89.3804L87.7989 211.972L85.7088 186.194L45.084 190.291L46.1081 211.715Z" fill="#F5F5F5"/>
<path d="M122.32 166.123L121.965 162.493L84.6982 166.374L86.2658 185.47L118.447 182.224L122.32 166.123Z" fill="#F5F5F5"/>
<path d="M71.1757 104.248H57.2486L55.6602 111.445H71.1757V104.248Z" fill="#F5F5F5"/>
<path d="M116.565 106.68L81.6952 104.27L80.3018 112.505L81.7718 130.382L118.544 126.843L116.565 106.68ZM82.9771 112.491L84.8512 107.293L115.137 109.209L116.886 124.077L84.0013 127.978L82.9771 112.491Z" fill="#F5F5F5"/>
<path d="M120.181 144.045L118.648 128.236L81.8555 131.769L83.2419 148.594L120.181 144.045Z" fill="#F5F5F5"/>
<path d="M20.9078 236.406L6.6323 237.305L6.57656 236.378L6.55566 240.586H21.0262L20.9078 236.406Z" fill="#F5F5F5"/>
<path d="M134.15 35.0657L134.359 35.6021L134.38 24.65C134.395 20.7104 132.846 16.926 130.072 14.1279C127.299 11.3299 123.529 9.74684 119.589 9.72656H114.956V42.6667L134.15 35.0657Z" fill="#F5F5F5"/>
<path d="M77.1669 227.398L45.432 212.189L44.3103 190.403L42.9866 190.536L42.7567 218.752L21.124 219.776V220.403L21.542 234.951L76.9927 231.467C77.0623 230.108 77.1181 228.75 77.1669 227.398ZM22.4826 221.574L52.7613 219.484L72.4571 228.618L22.4826 231.321V221.574Z" fill="#F5F5F5"/>
<path d="M125.128 71.677L126.431 63.9784C115.046 59.9166 114.259 48.0448 114.294 44.4707L106.867 47.4108L118.049 69.8655L125.128 71.677Z" fill="#F5F5F5"/>
<path d="M84.5239 164.29L99.9977 162.681L96.9531 149.012L83.4092 150.684L84.5239 164.29Z" fill="#F5F5F5"/>
<path d="M116.614 83.4516H87.715L85.3183 83.2705L82.0508 102.2L116.356 104.569L115.562 96.3407L118.941 84.1902L116.614 83.4516Z" fill="#F5F5F5"/>
<path d="M115.91 79.9686L116.273 70.9115L104.916 48.1084L87.3037 55.0754L93.3581 79.9338L115.91 79.9686ZM104.227 50.9091L114.635 70.7095L113.131 76.8822L95.3228 76.1855L90.8708 57.4582L104.227 50.9091Z" fill="#F5F5F5"/>
<path d="M120.404 188.96L120.941 206.705L133.461 206.001L133.502 206.698L120.962 207.402L121.596 228.637L133.44 227.885L133.523 229.278L121.637 230.031L121.958 240.586H133.495L133.746 181.38L121.944 182.571L120.404 188.96Z" fill="#F5F5F5"/>
<path d="M44.2966 45.0491L17.7801 41.2451L11.1475 74.2828L44.415 76.7491C44.5474 71.6771 44.429 56.057 44.2966 45.0491Z" fill="#F5F5F5"/>
<path d="M87.9105 79.9689H91.9236L86.2454 56.6572L71.4893 57.2634L71.8446 78.7776L87.9105 79.9689Z" fill="#F5F5F5"/>
<path d="M45.0908 76.7977L71.1406 78.7276L70.7922 57.29L45.1257 58.3351C45.2023 65.5878 45.2023 73.3212 45.0908 76.7977Z" fill="#F5F5F5"/>
<path d="M120.383 146.127L97.6426 148.928L100.701 162.604L121.762 160.416L120.383 146.127Z" fill="#F5F5F5"/>
<path d="M126.55 63.2467L128.006 54.6076L134.276 55.0953L134.36 36.4863L114.998 44.1501C114.601 57.2411 122.829 61.8463 126.55 63.2467Z" fill="#F5F5F5"/>
<path d="M119.095 96.6473L119.882 104.813L134.067 105.795L134.137 88.9836L122.265 85.2354L119.095 96.6473Z" fill="#F5F5F5"/>
<path d="M125.839 166.366L122.118 181.854L133.746 180.677L133.816 164.437C130.249 163.496 127.134 162.73 125.455 162.409L125.839 166.366Z" fill="#F5F5F5"/>
<path d="M117.994 80.2322L134.151 85.339L134.192 76.1495L118.322 72.0459L117.994 80.2322Z" fill="#F5F5F5"/>
<path d="M125.253 160.285C126.556 160.48 129.022 160.981 133.823 162.27L133.976 126.738L122.132 127.881L125.253 160.285Z" fill="#F5F5F5"/>
<path d="M121.986 126.515L133.983 125.359L134.053 107.892L120.084 106.924L121.986 126.515Z" fill="#F5F5F5"/>
<path d="M127.887 63.6859C129.974 64.3331 132.092 64.8748 134.234 65.3092V56.4889L129.127 56.0918L127.887 63.6859Z" fill="#F5F5F5"/>
<path d="M126.486 71.9978L134.199 73.9904L134.234 66.027C132.234 65.6229 130.053 65.0795 127.768 64.3828L126.486 71.9978Z" fill="#F5F5F5"/>
<path d="M20.908 236.399L21.0264 240.579H21.7231L21.6047 236.343L76.9577 232.86C76.8532 235.577 76.7487 238.211 76.6581 240.593H78.0516C78.1421 238.343 78.2466 235.647 78.3581 232.769L90.3066 232.01L92.0135 240.593H92.7102L90.9963 231.968L118.168 230.254L118.481 240.593H121.965L121.644 230.031L133.53 229.279L133.446 227.885L121.603 228.638L120.968 207.402L133.509 206.706L133.467 206.009L120.927 206.706L120.39 188.961L121.93 182.572L133.732 181.381V180.684L122.104 181.861L125.825 166.374L125.441 162.416C127.12 162.737 130.235 163.503 133.802 164.444V162.249C129.001 160.981 126.535 160.459 125.232 160.263L122.097 127.881L133.941 126.738V125.345L121.944 126.501L120.042 106.91L133.976 107.878V105.788L119.791 104.806L119.004 96.6405L122.174 85.2285L134.018 88.9768V85.333L117.861 80.2262L118.189 72.0399L134.06 76.1435V73.9837L126.347 71.9911L127.629 64.3762C129.942 65.0729 132.095 65.6163 134.094 66.0204V65.3237C131.953 64.8894 129.835 64.3476 127.747 63.7004L129.022 56.1063L134.129 56.5034V55.11L127.859 54.6223L126.403 63.2614C122.682 61.868 114.454 57.2559 114.851 44.1578L134.213 36.4941V35.6093L134.004 35.0728L114.858 42.6529V9.71281H114.162V42.9247L106.094 46.1225L93.9712 21.7797C93.3959 22.1944 92.7292 22.4644 92.0274 22.567L104.143 46.8959L85.6596 54.26L86.0776 55.9669L71.4468 56.5661L70.8895 22.5182H70.1927L70.7501 56.594L45.0905 57.639C45.0487 52.3859 44.993 47.4741 44.9651 44.7431V44.4504L43.3906 9.38536H42.6939L44.2684 44.3599L17.9121 40.5768L24.1825 9.30176H22.385H22.0505L15.836 40.2702L7.47551 39.0719L7.40583 39.5248V39.7616L15.7105 40.953L9.05006 74.137L7.25952 74.0046V77.4881L20.3088 78.4565V95.6581L7.16896 98.6331V100.779L22.4059 97.2954V78.6447L71.1751 82.2605V102.2H55.5689L53.5206 111.48H40.8197L7.07838 117.618V119.743L41.0218 113.536H79.6749L81.0683 130.452L40.8685 134.311L41.0009 135.705L81.1867 131.845L83.8481 164.263L43.2512 158.961L42.9795 161.051L84.0223 166.415L85.6108 185.54L42.6451 189.873L20.3506 191.455V162.249L41.4677 149.931L40.4156 148.127L19.7584 160.159L6.88331 158.445V160.535L19.626 162.249V180.844L6.80667 182.203V184.293L19.6399 182.934V192.207L20.3993 218.494L6.63946 223.886V226.13L20.476 220.709L20.8871 235.027L6.59766 235.932V236.399L6.65339 237.326L20.908 236.399ZM78.4139 231.369C78.4557 230.129 78.5044 228.875 78.5532 227.607H89.4357L90.0349 230.603L78.4139 231.369ZM90.7316 230.589L90.0349 227.238L88.4115 211.91L87.4989 200.763L117.178 198.519L118.091 228.833L90.7316 230.589ZM97.4548 185.038L113.075 183.464L112.636 189.595L98.6392 191.1L97.4548 185.038ZM96.758 185.108L99.3707 198.485L87.3804 199.39L86.2936 186.153L96.758 185.108ZM117.137 197.147L100.074 198.436L98.9109 192.472L113.946 190.856L114.482 183.317L118.244 182.941L116.886 188.598L117.137 197.147ZM96.9322 149.012L99.9768 162.681L84.503 164.29L83.3883 150.684L96.9322 149.012ZM100.68 162.604L97.622 148.928L120.362 146.141L121.756 160.431L100.68 162.604ZM116.335 104.569L82.0297 102.193L85.2973 83.2708L87.6939 83.4519H116.6L118.92 84.1904L115.569 96.3409L116.335 104.569ZM114.245 44.4226C114.21 48.0176 114.998 59.8894 126.382 63.9303L125.128 71.6776L118.049 69.8453L106.867 47.3627L114.245 44.4226ZM104.868 48.136L116.266 70.9391L115.903 79.9963H93.3581L87.3038 55.1379L104.868 48.136ZM86.196 56.6567L91.8742 79.9684H87.9099L71.8439 78.784L71.4886 57.2628L86.196 56.6567ZM70.7431 57.2907L71.0915 78.7282L45.0418 76.7984C45.1532 73.3149 45.1323 65.5884 45.0418 58.3358L70.7431 57.2907ZM17.731 41.2665L44.2475 45.0705C44.3799 56.0784 44.4983 71.6846 44.366 76.7705L11.0984 74.3042L17.731 41.2665ZM84.5727 83.2429L79.6958 111.466H71.8718V82.2745L84.5727 83.2429ZM57.1992 104.276H71.1333V111.466H55.6525L57.1992 104.276ZM80.1904 112.525L81.5838 104.29L116.454 106.701L118.405 126.864L81.6326 130.403L80.1904 112.525ZM118.565 128.257L120.098 144.065L83.1723 148.622L81.7789 131.789L118.565 128.257ZM84.6145 166.394L121.881 162.514L122.237 166.144L118.363 182.244L86.1821 185.491L84.6145 166.394ZM87.6661 212.022L89.2476 226.959H78.5811C78.7692 222.033 78.9503 217.107 79.0827 213.408C79.3126 206.768 79.3126 206.768 78.8737 206.552L78.5393 207.207L77.8426 207.242C77.8426 207.82 77.543 216.926 77.1459 226.659L46.1077 211.715L45.0069 190.305L85.6108 186.237L87.6661 212.022ZM42.1992 190.619L41.9832 218.104L21.0264 219.1L20.2461 192.172L42.1992 190.619ZM21.0612 220.438V219.811L42.6939 218.787L42.9238 190.57L44.2475 190.438L45.3692 212.224L77.104 227.433C77.0553 228.784 76.9995 230.143 76.9508 231.494L21.5001 234.978L21.0612 220.438Z" fill="white"/>
<path d="M52.7612 219.448L22.4824 221.566V231.292L72.4639 228.582L52.7612 219.448Z" fill="#EBEBEB"/>
<path d="M115.137 109.209L84.8517 107.293L82.9775 112.49L84.0017 127.978L116.886 124.077L115.137 109.209Z" fill="#EBEBEB"/>
<path d="M21.2564 277.365L118.467 277.811C120.42 277.821 122.355 277.446 124.162 276.707C125.97 275.969 127.614 274.881 129.001 273.507C130.387 272.133 131.489 270.498 132.244 268.698C132.998 266.897 133.391 264.965 133.398 263.013L133.495 240.593H6.556L6.48633 257.551V262.887C6.58406 266.747 8.18063 270.417 10.9377 273.119C13.6948 275.821 17.3958 277.344 21.2564 277.365Z" fill="#EBEBEB"/>
<path d="M41.4193 41.3982L40.9177 12.917H26.1266L21.835 38.5348L41.4193 41.3982Z" fill="#EBEBEB"/>
<path d="M113.131 76.8823L114.636 70.7095L104.227 50.9092L90.8711 57.4861L95.323 76.2134L113.131 76.8823Z" fill="#EBEBEB"/>
<path d="M22.4824 163.642C22.6427 164.541 22.4824 188.633 22.4824 188.633L41.9901 187.407L39.7537 154.474L22.4824 163.642Z" fill="#EBEBEB"/>
<path d="M87.4159 183.234L86.3848 168.303L119.778 164.012V166.59L115.737 180.322L87.4159 183.234Z" fill="#EBEBEB"/>
<path d="M62.7176 59.4086C62.7176 60.2133 62.4789 61 62.0319 61.6691C61.5848 62.3382 60.9493 62.8597 60.2059 63.1676C59.4624 63.4756 58.6443 63.5561 57.8551 63.3992C57.0658 63.2422 56.3408 62.8547 55.7718 62.2856C55.2028 61.7166 54.8153 60.9916 54.6583 60.2024C54.5013 59.4131 54.5818 58.595 54.8898 57.8516C55.1977 57.1081 55.7192 56.4726 56.3883 56.0255C57.0574 55.5785 57.8441 55.3398 58.6488 55.3398C59.7279 55.3398 60.7628 55.7685 61.5259 56.5316C62.2889 57.2946 62.7176 58.3295 62.7176 59.4086Z" fill="#BC3C50"/>
<g opacity="0.6">
<path d="M62.7108 59.235C62.7459 60.0392 62.5417 60.8358 62.1239 61.5239C61.7062 62.212 61.0937 62.7608 60.364 63.1007C59.6343 63.4406 58.8202 63.5565 58.0246 63.4335C57.2291 63.3106 56.4878 62.9545 55.8948 62.4102C55.3017 61.8658 54.8834 61.1578 54.6928 60.3757C54.5022 59.5936 54.5479 58.7725 54.8242 58.0164C55.1004 57.2603 55.5947 56.6031 56.2445 56.128C56.8944 55.6529 57.6705 55.3812 58.4748 55.3474C59.5518 55.302 60.6028 55.686 61.397 56.4148C62.1912 57.1437 62.6637 58.158 62.7108 59.235Z" fill="white"/>
</g>
<path d="M58.6485 61.9728C60.1415 61.9728 61.3517 60.7626 61.3517 59.2696C61.3517 57.7767 60.1415 56.5664 58.6485 56.5664C57.1556 56.5664 55.9453 57.7767 55.9453 59.2696C55.9453 60.7626 57.1556 61.9728 58.6485 61.9728Z" fill="#BC3C50"/>
<path d="M121.513 221.845C121.507 222.187 121.401 222.52 121.207 222.803C121.013 223.085 120.741 223.304 120.423 223.432C120.106 223.56 119.757 223.592 119.422 223.523C119.086 223.455 118.779 223.289 118.537 223.046C118.295 222.804 118.131 222.495 118.063 222.159C117.996 221.824 118.029 221.476 118.159 221.159C118.288 220.842 118.508 220.57 118.791 220.377C119.074 220.184 119.408 220.079 119.75 220.075C119.983 220.072 120.214 220.116 120.429 220.204C120.645 220.292 120.841 220.423 121.005 220.588C121.169 220.753 121.299 220.949 121.386 221.165C121.473 221.381 121.516 221.612 121.513 221.845Z" fill="#BC3C50"/>
<path d="M118.733 221.28L118.308 211.526L88.9625 212.954C88.1933 212.99 87.4278 212.827 86.74 212.481L45.112 191.454C44.6382 191.214 44.2362 190.853 43.9463 190.408C43.6564 189.962 43.489 189.449 43.4608 188.918L37.7896 79.0201C37.776 78.7598 37.818 78.4995 37.9129 78.2568C38.0079 78.014 38.1535 77.7942 38.3401 77.6122C38.5267 77.4302 38.75 77.2901 38.9951 77.2013C39.2402 77.1125 39.5014 77.077 39.7613 77.0972L57.6039 78.4139V58.9062H59.694V78.6787C59.699 78.9312 59.652 79.1821 59.5562 79.4158C59.4603 79.6495 59.3175 79.861 59.1366 80.0373C58.9489 80.2074 58.7287 80.3377 58.4892 80.4204C58.2497 80.503 57.9959 80.5362 57.7432 80.518L39.9146 79.2012L45.5648 188.814C45.5751 188.976 45.6274 189.132 45.7165 189.268C45.8057 189.403 45.9287 189.513 46.0734 189.587L87.7015 210.627C88.0657 210.811 88.4713 210.898 88.8789 210.878L118.475 209.436C118.964 209.415 119.443 209.587 119.806 209.917C119.987 210.08 120.135 210.279 120.239 210.5C120.343 210.721 120.402 210.961 120.412 211.206L120.837 221.189L118.733 221.28Z" fill="#BC3C50"/>
<path d="M41.2036 132.019C44.1125 132.019 46.4707 129.66 46.4707 126.751C46.4707 123.843 44.1125 121.484 41.2036 121.484C38.2947 121.484 35.9365 123.843 35.9365 126.751C35.9365 129.66 38.2947 132.019 41.2036 132.019Z" fill="#BC3C50"/>
<path d="M41.2026 130.41C43.2227 130.41 44.8603 128.773 44.8603 126.752C44.8603 124.732 43.2227 123.095 41.2026 123.095C39.1825 123.095 37.5449 124.732 37.5449 126.752C37.5449 128.773 39.1825 130.41 41.2026 130.41Z" fill="#FAFAFA"/>
<path d="M41.2028 130.675C40.4268 130.676 39.6677 130.447 39.0218 130.017C38.3758 129.587 37.872 128.975 37.574 128.258C37.2761 127.542 37.1974 126.753 37.348 125.992C37.4985 125.23 37.8716 124.531 38.4198 123.981C38.9681 123.432 39.667 123.058 40.4281 122.906C41.1892 122.754 41.9782 122.831 42.6953 123.128C43.4125 123.425 44.0255 123.927 44.4568 124.573C44.8881 125.218 45.1183 125.976 45.1183 126.753C45.1165 127.791 44.7036 128.787 43.9699 129.522C43.2362 130.257 42.2414 130.671 41.2028 130.675ZM41.2028 123.353C40.5301 123.351 39.8721 123.549 39.3121 123.922C38.752 124.295 38.3152 124.825 38.0568 125.447C37.7984 126.068 37.7301 126.752 37.8605 127.412C37.9908 128.072 38.3141 128.678 38.7893 129.154C39.2645 129.63 39.8703 129.955 40.53 130.087C41.1897 130.218 41.8737 130.151 42.4954 129.894C43.117 129.637 43.6484 129.201 44.0223 128.642C44.3962 128.083 44.5958 127.425 44.5958 126.753C44.594 125.853 44.2361 124.99 43.6004 124.353C42.9647 123.716 42.1028 123.356 41.2028 123.353Z" fill="#BC3C50"/>
<path d="M72.2274 104.659H47.146C46.5603 104.659 45.9986 104.892 45.5844 105.306C45.1702 105.72 44.9375 106.282 44.9375 106.868V115.925C44.9375 116.511 45.1702 117.072 45.5844 117.487C45.9986 117.901 46.5603 118.134 47.146 118.134H47.4387V120.3L49.9538 118.134H72.2483C72.834 118.134 73.3958 117.901 73.81 117.487C74.2241 117.072 74.4568 116.511 74.4568 115.925V106.868C74.4568 106.576 74.399 106.287 74.2867 106.018C74.1744 105.748 74.0099 105.504 73.8026 105.299C73.5953 105.093 73.3493 104.931 73.079 104.821C72.8086 104.712 72.5192 104.657 72.2274 104.659Z" fill="#BC3C50"/>
<g opacity="0.4">
<path d="M72.2274 104.66H47.146C46.5603 104.66 45.9986 104.893 45.5844 105.307C45.1702 105.721 44.9375 106.283 44.9375 106.869V115.926C44.9375 116.512 45.1702 117.073 45.5844 117.488C45.9986 117.902 46.5603 118.134 47.146 118.134H47.4387V120.301L49.9538 118.134H72.2483C72.834 118.134 73.3958 117.902 73.81 117.488C74.2241 117.073 74.4568 116.512 74.4568 115.926V106.869C74.4568 106.577 74.399 106.288 74.2867 106.019C74.1744 105.749 74.0099 105.505 73.8026 105.3C73.5953 105.094 73.3493 104.932 73.079 104.822C72.8086 104.713 72.5192 104.657 72.2274 104.66Z" fill="white"/>
</g>
<path d="M50.5811 111.265C50.57 110.965 50.6486 110.669 50.8067 110.415C50.9649 110.16 51.1954 109.959 51.4688 109.836C51.7423 109.713 52.0461 109.675 52.3414 109.726C52.6366 109.777 52.91 109.915 53.1263 110.123C53.3426 110.33 53.4921 110.597 53.5557 110.89C53.6192 111.183 53.5938 111.488 53.4828 111.766C53.3718 112.045 53.1802 112.284 52.9326 112.452C52.685 112.621 52.3926 112.712 52.093 112.714C51.8972 112.723 51.7016 112.693 51.518 112.624C51.3344 112.555 51.1668 112.45 51.0253 112.314C50.8838 112.179 50.7715 112.016 50.6951 111.835C50.6187 111.655 50.5799 111.461 50.5811 111.265ZM53.1868 111.265C53.1882 111.046 53.1246 110.833 53.0042 110.651C52.8837 110.468 52.7119 110.326 52.5105 110.242C52.309 110.158 52.0871 110.136 51.873 110.178C51.6588 110.22 51.462 110.325 51.3076 110.479C51.1533 110.634 51.0483 110.831 51.006 111.045C50.9638 111.259 50.9862 111.481 51.0703 111.682C51.1545 111.884 51.2967 112.055 51.4788 112.176C51.6609 112.296 51.8747 112.36 52.093 112.359C52.2379 112.363 52.3823 112.338 52.5172 112.285C52.6521 112.232 52.7746 112.151 52.8772 112.049C52.9798 111.946 53.0601 111.824 53.1134 111.689C53.1667 111.554 53.1916 111.41 53.1868 111.265Z" fill="white"/>
<path d="M56.3494 111.613C56.3573 111.757 56.3349 111.902 56.2836 112.037C56.2323 112.172 56.1533 112.296 56.0516 112.399C55.9499 112.502 55.8278 112.582 55.6931 112.635C55.5585 112.688 55.4142 112.712 55.2695 112.706C55.1219 112.714 54.9746 112.685 54.841 112.621C54.7073 112.558 54.5913 112.463 54.5032 112.344V112.686H54.127V109.676H54.5171V110.86C54.6072 110.749 54.7222 110.66 54.8528 110.6C54.9835 110.541 55.1262 110.513 55.2695 110.519C55.4142 110.513 55.5585 110.537 55.6931 110.59C55.8278 110.643 55.9499 110.724 56.0516 110.827C56.1533 110.93 56.2323 111.053 56.2836 111.188C56.3349 111.324 56.3573 111.468 56.3494 111.613ZM55.9593 111.613C55.9485 111.478 55.8986 111.349 55.8157 111.242C55.7329 111.135 55.6207 111.054 55.4928 111.01C55.365 110.966 55.227 110.96 55.0957 110.992C54.9644 111.025 54.8455 111.096 54.7536 111.195C54.6617 111.294 54.6006 111.418 54.578 111.552C54.5553 111.685 54.572 111.822 54.6259 111.946C54.6799 112.07 54.7689 112.176 54.8819 112.25C54.995 112.325 55.1273 112.365 55.2626 112.365C55.3613 112.369 55.4597 112.353 55.5515 112.316C55.6432 112.279 55.7261 112.223 55.7946 112.152C55.8631 112.081 55.9157 111.996 55.9489 111.903C55.9821 111.81 55.9951 111.711 55.9872 111.613H55.9593Z" fill="white"/>
<path d="M56.1748 113.361L56.3002 113.061C56.3909 113.133 56.5048 113.171 56.6207 113.166C56.8227 113.166 56.9412 113.033 56.9412 112.789V110.539H57.3244V112.782C57.3329 112.876 57.3208 112.97 57.2888 113.059C57.2568 113.147 57.2058 113.228 57.1393 113.294C57.0728 113.361 56.9925 113.412 56.9041 113.444C56.8157 113.476 56.7213 113.488 56.6277 113.479C56.4681 113.487 56.3099 113.446 56.1748 113.361ZM56.8715 109.877C56.8715 109.844 56.8782 109.81 56.8912 109.78C56.9043 109.749 56.9234 109.721 56.9474 109.697C56.9714 109.674 56.9999 109.656 57.0312 109.643C57.0624 109.631 57.0958 109.625 57.1293 109.626C57.1628 109.624 57.1963 109.629 57.2279 109.641C57.2595 109.652 57.2885 109.67 57.3132 109.692C57.3379 109.715 57.3578 109.743 57.3717 109.773C57.3855 109.804 57.3932 109.837 57.394 109.87C57.3951 109.905 57.3889 109.94 57.3758 109.972C57.3628 110.004 57.3432 110.033 57.3183 110.057C57.2934 110.082 57.2638 110.1 57.2312 110.112C57.1987 110.125 57.164 110.13 57.1293 110.128C57.0949 110.13 57.0605 110.125 57.0283 110.113C56.9961 110.1 56.9669 110.081 56.9425 110.057C56.9181 110.033 56.8992 110.003 56.887 109.971C56.8748 109.939 56.8695 109.905 56.8715 109.87V109.877Z" fill="white"/>
<path d="M60 111.737H58.2582C58.2668 111.83 58.294 111.921 58.3382 112.003C58.3824 112.085 58.4427 112.158 58.5155 112.216C58.5883 112.275 58.6721 112.318 58.762 112.343C58.8518 112.369 58.9458 112.376 59.0385 112.364C59.1543 112.368 59.2696 112.347 59.3766 112.303C59.4836 112.258 59.5797 112.191 59.6586 112.107L59.8745 112.357C59.7151 112.517 59.5133 112.627 59.2931 112.675C59.0728 112.723 58.8435 112.707 58.6322 112.628C58.4209 112.55 58.2366 112.412 58.1011 112.232C57.9657 112.052 57.8848 111.837 57.868 111.612C57.8623 111.468 57.8861 111.324 57.9382 111.19C57.9902 111.055 58.0693 110.933 58.1706 110.831C58.2718 110.728 58.3931 110.647 58.5268 110.594C58.6605 110.54 58.8039 110.514 58.9479 110.518C59.0917 110.514 59.2348 110.54 59.368 110.594C59.5012 110.648 59.6215 110.73 59.7213 110.834C59.821 110.938 59.8979 111.061 59.9471 111.196C59.9963 111.331 60.0167 111.475 60.0069 111.619C60.008 111.658 60.0056 111.698 60 111.737ZM58.2582 111.459H59.6516C59.6516 111.274 59.5782 111.097 59.4475 110.966C59.3169 110.835 59.1397 110.762 58.9549 110.762C58.7701 110.762 58.5929 110.835 58.4623 110.966C58.3316 111.097 58.2582 111.274 58.2582 111.459Z" fill="white"/>
<path d="M60.3489 111.612C60.3457 111.464 60.3733 111.317 60.4298 111.18C60.4863 111.043 60.5706 110.92 60.6772 110.817C60.7839 110.714 60.9107 110.635 61.0496 110.583C61.1886 110.532 61.3366 110.51 61.4845 110.519C61.6572 110.507 61.8296 110.544 61.9832 110.623C62.1367 110.703 62.2654 110.824 62.3554 110.971L62.0628 111.167C61.999 111.07 61.9121 110.99 61.8099 110.936C61.7077 110.881 61.5935 110.852 61.4775 110.853C61.2896 110.871 61.1151 110.959 60.9881 111.098C60.8611 111.238 60.7908 111.42 60.7908 111.609C60.7908 111.798 60.8611 111.98 60.9881 112.12C61.1151 112.259 61.2896 112.347 61.4775 112.365C61.5928 112.366 61.7066 112.339 61.8088 112.285C61.9109 112.232 61.9982 112.154 62.0628 112.058L62.3554 112.246C62.2657 112.395 62.1373 112.516 61.9838 112.597C61.8304 112.678 61.6577 112.716 61.4845 112.706C61.3369 112.714 61.1893 112.691 61.0508 112.639C60.9123 112.588 60.786 112.508 60.6795 112.406C60.573 112.303 60.4888 112.18 60.4319 112.043C60.375 111.907 60.3468 111.76 60.3489 111.612Z" fill="white"/>
<path d="M64.0973 112.56C63.96 112.66 63.7933 112.712 63.6236 112.706C63.5285 112.722 63.4312 112.715 63.3395 112.685C63.2478 112.656 63.1644 112.605 63.0963 112.537C63.0282 112.469 62.9773 112.386 62.9479 112.294C62.9184 112.202 62.9112 112.105 62.9269 112.01V110.825H62.5576V110.512H62.9269V110.038H63.317V110.512H63.9301V110.825H63.317V111.989C63.3095 112.036 63.3127 112.084 63.3264 112.129C63.3401 112.175 63.364 112.216 63.3962 112.251C63.4284 112.286 63.4681 112.313 63.5123 112.331C63.5565 112.348 63.6041 112.355 63.6514 112.351C63.7594 112.353 63.865 112.319 63.951 112.254L64.0973 112.56Z" fill="white"/>
<path d="M64.4941 109.871C64.495 109.837 64.5026 109.804 64.5164 109.773C64.5302 109.742 64.55 109.714 64.5745 109.691C64.5991 109.668 64.6281 109.65 64.6597 109.637C64.6913 109.625 64.725 109.62 64.7589 109.621C64.7924 109.619 64.8259 109.623 64.8575 109.635C64.8891 109.646 64.9181 109.664 64.9428 109.686C64.9675 109.709 64.9874 109.737 65.0013 109.767C65.0151 109.798 65.0228 109.831 65.0236 109.864C65.0236 109.935 64.9957 110.002 64.9461 110.052C64.8964 110.101 64.8291 110.129 64.7589 110.129C64.6887 110.129 64.6213 110.101 64.5717 110.052C64.522 110.002 64.4941 109.935 64.4941 109.864V109.871ZM64.5638 110.568H64.954V112.714H64.5638V110.568Z" fill="white"/>
<path d="M67.5946 110.54L66.6541 112.686H66.257L65.3164 110.54H65.7275L66.4242 112.261L67.1766 110.54H67.5946Z" fill="white"/>
<path d="M69.831 111.737H68.0893C68.0979 111.83 68.1251 111.921 68.1693 112.003C68.2135 112.085 68.2738 112.158 68.3466 112.216C68.4194 112.275 68.5032 112.318 68.593 112.343C68.6828 112.369 68.7769 112.376 68.8696 112.364C68.9853 112.368 69.1007 112.347 69.2076 112.303C69.3146 112.258 69.4108 112.191 69.4896 112.107L69.6986 112.357C69.5933 112.475 69.4628 112.567 69.3168 112.628C69.1709 112.688 69.0133 112.715 68.8556 112.706C68.7063 112.716 68.5564 112.696 68.4155 112.645C68.2745 112.595 68.1456 112.516 68.0368 112.413C67.9281 112.31 67.8419 112.186 67.7838 112.048C67.7256 111.91 67.6968 111.762 67.6991 111.612C67.6933 111.468 67.7172 111.324 67.7692 111.19C67.8213 111.055 67.9004 110.933 68.0016 110.831C68.1029 110.728 68.2241 110.647 68.3579 110.594C68.4916 110.54 68.6349 110.514 68.779 110.518C68.9228 110.514 69.0659 110.54 69.1991 110.594C69.3323 110.648 69.4526 110.73 69.5523 110.834C69.6521 110.938 69.729 111.061 69.7782 111.196C69.8274 111.331 69.8477 111.475 69.838 111.619C69.839 111.658 69.8367 111.698 69.831 111.737ZM68.0893 111.459H69.4827C69.4827 111.274 69.4092 111.097 69.2786 110.966C69.1479 110.835 68.9707 110.762 68.786 110.762C68.6012 110.762 68.424 110.835 68.2933 110.966C68.1626 111.097 68.0893 111.274 68.0893 111.459Z" fill="white"/>
<path d="M30.1813 251.182H29.2129V250.827H31.5538V251.182H30.5715V253.663H30.1674L30.1813 251.182Z" fill="#263238"/>
<path d="M31.5192 252.591C31.5164 252.37 31.5793 252.153 31.6998 251.968C31.8203 251.783 31.993 251.638 32.196 251.552C32.399 251.465 32.6232 251.44 32.8402 251.481C33.0571 251.522 33.257 251.626 33.4146 251.781C33.5722 251.936 33.6803 252.134 33.7252 252.35C33.7701 252.566 33.7499 252.79 33.667 252.995C33.5841 253.2 33.4424 253.375 33.2597 253.499C33.077 253.623 32.8616 253.69 32.6409 253.691C32.4933 253.699 32.3457 253.676 32.2075 253.624C32.0692 253.572 31.9434 253.491 31.8379 253.388C31.7324 253.284 31.6496 253.16 31.5947 253.023C31.5399 252.885 31.5141 252.738 31.5192 252.591ZM33.3585 252.591C33.3585 252.399 33.2825 252.216 33.1473 252.081C33.012 251.945 32.8286 251.869 32.6374 251.869C32.4461 251.869 32.2627 251.945 32.1275 252.081C31.9923 252.216 31.9163 252.399 31.9163 252.591C31.9163 252.782 31.9923 252.965 32.1275 253.1C32.2627 253.236 32.4461 253.312 32.6374 253.312C32.8286 253.312 33.012 253.236 33.1473 253.1C33.2825 252.965 33.3585 252.782 33.3585 252.591Z" fill="#263238"/>
<path d="M35.4975 253.517C35.3656 253.623 35.1997 253.677 35.0307 253.67C34.9359 253.684 34.8392 253.676 34.7482 253.646C34.6573 253.616 34.5746 253.565 34.5068 253.497C34.4391 253.43 34.3882 253.347 34.3582 253.256C34.3281 253.165 34.3199 253.068 34.334 252.973V251.796H33.9717V251.476H34.334V251.009H34.752V251.476H35.3651V251.796H34.752V252.96C34.7444 253.006 34.7477 253.054 34.7614 253.1C34.7751 253.145 34.7989 253.187 34.8312 253.222C34.8634 253.257 34.9031 253.284 34.9473 253.301C34.9915 253.319 35.0391 253.326 35.0864 253.322C35.1971 253.32 35.3044 253.284 35.393 253.217L35.4975 253.517Z" fill="#263238"/>
<path d="M37.6707 252.367V253.663H37.3015V253.384C37.2191 253.488 37.1125 253.57 36.9911 253.624C36.8697 253.677 36.7371 253.7 36.6048 253.691C36.1171 253.691 35.8105 253.433 35.8105 253.057C35.8105 252.68 36.0335 252.43 36.6675 252.43H37.2876V252.353C37.2876 252.026 37.0994 251.83 36.7093 251.83C36.456 251.822 36.2084 251.907 36.0126 252.067L35.8454 251.775C36.1017 251.582 36.4167 251.484 36.7372 251.496C36.859 251.475 36.9841 251.482 37.1026 251.518C37.2211 251.553 37.3298 251.615 37.4202 251.7C37.5106 251.784 37.5803 251.888 37.6238 252.004C37.6672 252.12 37.6833 252.244 37.6707 252.367ZM37.2806 253.008V252.708H36.6814C36.2982 252.708 36.1868 252.862 36.1868 253.043C36.1868 253.224 36.3609 253.391 36.6605 253.391C36.7911 253.401 36.9214 253.369 37.0328 253.3C37.1442 253.231 37.2309 253.129 37.2806 253.008Z" fill="#263238"/>
<path d="M38.3887 250.661H38.7788V253.664H38.3887V250.661Z" fill="#263238"/>
<path d="M42.6313 250.661V253.664H42.2621V253.323C42.1739 253.442 42.0581 253.538 41.9245 253.602C41.791 253.666 41.6438 253.697 41.4957 253.692C41.2198 253.67 40.9623 253.545 40.7745 253.341C40.5867 253.138 40.4824 252.871 40.4824 252.594C40.4824 252.318 40.5867 252.051 40.7745 251.848C40.9623 251.644 41.2198 251.519 41.4957 251.497C41.6398 251.491 41.7833 251.52 41.9141 251.58C42.045 251.641 42.1595 251.732 42.2481 251.846V250.661H42.6313ZM42.2481 252.591C42.236 252.457 42.185 252.329 42.1015 252.222C42.0179 252.116 41.9054 252.037 41.7775 251.994C41.6496 251.95 41.5119 251.945 41.3811 251.979C41.2504 252.012 41.1322 252.083 41.0409 252.183C40.9496 252.282 40.8892 252.406 40.867 252.539C40.8448 252.672 40.8618 252.809 40.9159 252.933C40.97 253.057 41.0589 253.162 41.1717 253.236C41.2845 253.31 41.4164 253.35 41.5514 253.35C41.6485 253.351 41.7445 253.331 41.8334 253.292C41.9223 253.253 42.0021 253.196 42.0677 253.125C42.1332 253.053 42.1832 252.969 42.2143 252.877C42.2453 252.785 42.2569 252.688 42.2481 252.591Z" fill="#263238"/>
<path d="M43.2998 250.856C43.2998 250.822 43.3067 250.787 43.3201 250.756C43.3335 250.724 43.3531 250.695 43.3778 250.671C43.4024 250.647 43.4317 250.628 43.4638 250.616C43.4958 250.603 43.5301 250.597 43.5645 250.598C43.6015 250.592 43.6393 250.594 43.6754 250.604C43.7114 250.614 43.7449 250.632 43.7735 250.656C43.802 250.68 43.8249 250.71 43.8407 250.744C43.8564 250.778 43.8646 250.815 43.8646 250.853C43.8646 250.89 43.8564 250.927 43.8407 250.961C43.8249 250.995 43.802 251.025 43.7735 251.049C43.7449 251.073 43.7114 251.091 43.6754 251.101C43.6393 251.111 43.6015 251.113 43.5645 251.107C43.5307 251.108 43.497 251.102 43.4654 251.09C43.4337 251.078 43.4048 251.06 43.3802 251.036C43.3556 251.013 43.3359 250.985 43.3221 250.954C43.3083 250.923 43.3007 250.89 43.2998 250.856ZM43.3695 251.518H43.7596V253.664H43.3695V251.518Z" fill="#263238"/>
<path d="M44.2266 253.441L44.3938 253.127C44.617 253.275 44.8789 253.352 45.1462 253.35C45.5085 253.35 45.6548 253.246 45.6548 253.065C45.6548 252.577 44.2614 252.995 44.2614 252.145C44.2614 251.755 44.6097 251.497 45.1601 251.497C45.4326 251.494 45.7013 251.562 45.9404 251.692L45.7732 251.999C45.5871 251.884 45.3717 251.826 45.1532 251.832C44.8118 251.832 44.6516 251.957 44.6516 252.124C44.6516 252.633 46.045 252.222 46.045 253.051C46.045 253.441 45.6896 253.692 45.1183 253.692C44.8028 253.698 44.4925 253.611 44.2266 253.441Z" fill="#263238"/>
<path d="M47.738 253.517C47.6043 253.625 47.4356 253.679 47.2642 253.67C47.1695 253.684 47.0727 253.676 46.9818 253.646C46.8908 253.616 46.8081 253.565 46.7404 253.497C46.6726 253.43 46.6217 253.347 46.5917 253.256C46.5617 253.165 46.5534 253.068 46.5675 252.973V251.796H46.1982V251.476H46.5954V251.009H46.9855V251.476H47.5986V251.796H46.9855V252.96C46.978 253.006 46.9812 253.054 46.9949 253.1C47.0086 253.145 47.0325 253.187 47.0647 253.222C47.0969 253.257 47.1366 253.284 47.1808 253.301C47.225 253.319 47.2726 253.326 47.3199 253.322C47.4287 253.321 47.5341 253.285 47.6195 253.217L47.738 253.517Z" fill="#263238"/>
<path d="M49.912 252.368V253.663H49.5427V253.385C49.4599 253.488 49.3533 253.57 49.232 253.624C49.1107 253.677 48.9782 253.7 48.846 253.691C48.3653 253.691 48.0518 253.434 48.0518 253.057C48.0518 252.681 48.2747 252.43 48.9157 252.43H49.5357V252.354C49.5357 252.026 49.3407 251.831 48.9575 251.831C48.7047 251.826 48.4581 251.91 48.2608 252.068L48.1005 251.775C48.3569 251.583 48.6718 251.484 48.9923 251.497C49.1131 251.478 49.2366 251.487 49.3533 251.524C49.47 251.56 49.5768 251.623 49.6656 251.707C49.7543 251.791 49.8227 251.894 49.8654 252.009C49.9081 252.123 49.924 252.246 49.912 252.368ZM49.5218 253.009V252.709H48.9226C48.5325 252.709 48.428 252.862 48.428 253.043C48.428 253.225 48.6022 253.392 48.9017 253.392C49.0323 253.402 49.1626 253.37 49.274 253.301C49.3854 253.232 49.4721 253.13 49.5218 253.009Z" fill="#263238"/>
<path d="M52.6637 252.43V253.663H52.2805V252.472C52.2805 252.054 52.0645 251.845 51.6953 251.845C51.6016 251.836 51.5073 251.848 51.4188 251.88C51.3304 251.912 51.2501 251.963 51.1836 252.03C51.1171 252.096 51.0661 252.176 51.0341 252.265C51.0021 252.353 50.99 252.448 50.9986 252.541V253.642H50.6084V251.496H50.9777V251.824C51.0702 251.707 51.1894 251.615 51.3253 251.554C51.4611 251.493 51.6095 251.466 51.758 251.475C51.8845 251.462 52.0124 251.478 52.1317 251.522C52.2511 251.566 52.3587 251.637 52.4463 251.729C52.5338 251.821 52.599 251.933 52.6367 252.054C52.6744 252.176 52.6836 252.304 52.6637 252.43Z" fill="#263238"/>
<path d="M53.2004 252.59C53.1973 252.442 53.2249 252.295 53.2814 252.158C53.3379 252.021 53.4221 251.897 53.5288 251.794C53.6355 251.692 53.7623 251.612 53.9012 251.561C54.0401 251.509 54.1882 251.487 54.3361 251.496C54.5102 251.486 54.6837 251.524 54.8383 251.605C54.9928 251.686 55.1226 251.807 55.2139 251.956L54.9143 252.144C54.8498 252.048 54.7625 251.97 54.6604 251.917C54.5582 251.863 54.4444 251.836 54.3291 251.837C54.1411 251.855 53.9666 251.943 53.8397 252.083C53.7127 252.222 53.6424 252.404 53.6424 252.593C53.6424 252.782 53.7127 252.964 53.8397 253.104C53.9666 253.244 54.1411 253.331 54.3291 253.349C54.4444 253.351 54.5582 253.323 54.6604 253.27C54.7625 253.216 54.8498 253.138 54.9143 253.043L55.2139 253.224C55.1229 253.373 54.9934 253.495 54.8389 253.577C54.6845 253.66 54.5108 253.699 54.3361 253.691C54.1879 253.698 54.0396 253.675 53.9007 253.623C53.7618 253.571 53.635 253.491 53.5285 253.388C53.4219 253.284 53.3378 253.16 53.2814 253.023C53.2249 252.886 53.1974 252.738 53.2004 252.59Z" fill="#263238"/>
<path d="M57.6103 252.723H55.8685C55.8772 252.816 55.9044 252.906 55.9486 252.988C55.9928 253.071 56.0531 253.143 56.1259 253.202C56.1987 253.26 56.2825 253.303 56.3723 253.329C56.4621 253.354 56.5562 253.361 56.6488 253.35C56.7646 253.354 56.8799 253.333 56.9869 253.288C57.0939 253.244 57.1901 253.177 57.2689 253.092L57.4849 253.343C57.3767 253.459 57.2447 253.55 57.098 253.61C56.9513 253.67 56.7933 253.698 56.6349 253.691C56.485 253.702 56.3345 253.681 56.1931 253.63C56.0516 253.58 55.9224 253.5 55.8135 253.396C55.7046 253.293 55.6186 253.167 55.5609 253.029C55.5032 252.89 55.4751 252.741 55.4784 252.59C55.4726 252.446 55.4965 252.303 55.5485 252.168C55.6006 252.034 55.6797 251.912 55.7809 251.809C55.8822 251.707 56.0034 251.626 56.1371 251.572C56.2709 251.518 56.4142 251.493 56.5583 251.497C56.7027 251.492 56.8464 251.518 56.9801 251.573C57.1138 251.628 57.2345 251.71 57.3344 251.815C57.4342 251.919 57.511 252.043 57.5597 252.179C57.6085 252.315 57.6281 252.46 57.6173 252.604C57.6183 252.644 57.616 252.684 57.6103 252.723ZM55.8685 252.444H57.2619C57.2619 252.259 57.1885 252.082 57.0579 251.951C56.9272 251.821 56.75 251.747 56.5652 251.747C56.3805 251.747 56.2033 251.821 56.0726 251.951C55.9419 252.082 55.8685 252.259 55.8685 252.444Z" fill="#263238"/>
<path d="M32.7317 256.848V263.606H31.1641V258.102H29.8125V256.848H32.7317Z" fill="#263238"/>
<path d="M35.7344 262.742C35.7195 263.078 35.6315 263.406 35.4766 263.704L34.9193 265.097H33.9648L34.3898 263.564C34.2283 263.498 34.0914 263.384 33.9978 263.236C33.9042 263.089 33.8586 262.916 33.8673 262.742C33.8673 262.495 33.9656 262.257 34.1407 262.082C34.3158 261.907 34.5532 261.809 34.8008 261.809C35.0484 261.809 35.2859 261.907 35.461 262.082C35.6361 262.257 35.7344 262.495 35.7344 262.742Z" fill="#263238"/>
<path d="M38.9316 256.848V263.606H37.3291V258.102H35.9775V256.848H38.9316Z" fill="#263238"/>
<path d="M40.0742 260.227C40.0742 257.997 41.3074 256.743 42.9725 256.743C44.6376 256.743 45.8708 258.011 45.8708 260.227C45.8708 262.442 44.6446 263.71 42.9725 263.71C41.3004 263.71 40.0742 262.456 40.0742 260.227ZM44.2962 260.227C44.2962 258.694 43.7528 258.053 42.9725 258.053C42.1922 258.053 41.6557 258.694 41.6557 260.227C41.6557 261.759 42.1992 262.4 42.9725 262.4C43.7458 262.4 44.2962 261.766 44.2962 260.227Z" fill="#263238"/>
<path d="M46.6309 260.227C46.6309 257.997 47.871 256.743 49.5361 256.743C51.2012 256.743 52.4344 258.011 52.4344 260.227C52.4344 262.442 51.2082 263.71 49.5361 263.71C47.864 263.71 46.6309 262.456 46.6309 260.227ZM50.8598 260.227C50.8598 258.694 50.3164 258.053 49.5361 258.053C48.7558 258.053 48.2193 258.694 48.2193 260.227C48.2193 261.759 48.7628 262.4 49.5361 262.4C50.3095 262.4 50.8598 261.766 50.8598 260.227Z" fill="#263238"/>
<path d="M65.0304 260.63V263.605H63.5255V260.866C63.5255 260.023 63.1493 259.633 62.5362 259.633C61.9231 259.633 61.3867 260.072 61.3867 261.027V263.632H59.8818V260.894C59.8818 260.051 59.5265 259.661 58.8994 259.661C58.2724 259.661 57.7568 260.1 57.7568 261.055V263.66H56.252V258.393H57.6872V258.992C57.892 258.763 58.1449 258.582 58.428 258.461C58.711 258.341 59.0171 258.284 59.3244 258.296C59.6581 258.278 59.9906 258.347 60.2897 258.496C60.5888 258.645 60.8443 258.869 61.0313 259.146C61.2587 258.871 61.5456 258.652 61.8703 258.504C62.1951 258.357 62.5491 258.286 62.9055 258.296C64.1456 258.33 65.0304 259.048 65.0304 260.63Z" fill="#263238"/>
<path d="M114.329 246.362H96.7023C95.8061 246.362 94.9466 246.718 94.3129 247.352C93.6792 247.986 93.3232 248.845 93.3232 249.741V263.62C93.3251 264.515 93.6819 265.372 94.3154 266.004C94.9489 266.637 95.8073 266.992 96.7023 266.992H97.1481V270.301L100.987 266.992H114.329C115.224 266.992 116.082 266.637 116.716 266.004C117.349 265.372 117.706 264.515 117.708 263.62V249.741C117.708 248.845 117.352 247.986 116.718 247.352C116.084 246.718 115.225 246.362 114.329 246.362Z" fill="#FFD956"/>
<path d="M98.3818 252.729V259.85C98.3818 259.924 98.4112 259.995 98.4635 260.047C98.5157 260.099 98.5866 260.128 98.6605 260.128H113.584C113.621 260.128 113.657 260.119 113.69 260.105C113.724 260.09 113.754 260.068 113.779 260.042C113.804 260.015 113.824 259.984 113.837 259.95C113.85 259.916 113.857 259.879 113.856 259.843L113.821 257.237C113.822 257.18 113.805 257.124 113.772 257.077L111.626 254.213C111.602 254.179 111.569 254.151 111.532 254.131C111.494 254.112 111.452 254.102 111.41 254.102H108.944C108.871 254.102 108.801 254.074 108.749 254.023C108.697 253.972 108.667 253.903 108.665 253.83V252.75C108.666 252.714 108.66 252.678 108.647 252.644C108.633 252.61 108.613 252.58 108.588 252.554C108.563 252.528 108.533 252.507 108.499 252.493C108.466 252.479 108.43 252.472 108.393 252.472H98.6396C98.5729 252.477 98.5101 252.505 98.4627 252.553C98.4154 252.6 98.3867 252.663 98.3818 252.729Z" fill="#FAFAFA"/>
<path d="M109.362 254.708V257C109.362 257.043 109.378 257.084 109.408 257.114C109.439 257.144 109.479 257.161 109.522 257.161L112.817 257.105C112.846 257.104 112.874 257.095 112.898 257.079C112.922 257.064 112.941 257.042 112.954 257.016C112.967 256.991 112.972 256.962 112.97 256.934C112.968 256.905 112.959 256.878 112.943 256.854L111.389 254.569C111.375 254.546 111.356 254.528 111.332 254.516C111.309 254.504 111.283 254.498 111.257 254.499L109.501 254.548C109.461 254.552 109.425 254.57 109.399 254.6C109.373 254.63 109.36 254.669 109.362 254.708Z" fill="#BC3C50"/>
<path d="M114.155 260.345H98.082V260.839H114.155V260.345Z" fill="#FAFAFA"/>
<path d="M103.398 260.533C103.399 260.849 103.307 261.158 103.132 261.422C102.957 261.685 102.708 261.891 102.416 262.012C102.124 262.134 101.803 262.166 101.493 262.105C101.183 262.044 100.898 261.891 100.674 261.668C100.451 261.444 100.299 261.159 100.237 260.849C100.176 260.539 100.208 260.218 100.33 259.926C100.451 259.634 100.657 259.385 100.92 259.21C101.184 259.036 101.493 258.943 101.809 258.944C102.231 258.944 102.635 259.112 102.933 259.41C103.231 259.707 103.398 260.112 103.398 260.533Z" fill="#BC3C50"/>
<path d="M102.743 260.533C102.745 260.72 102.691 260.903 102.588 261.058C102.485 261.214 102.338 261.336 102.166 261.408C101.994 261.48 101.804 261.499 101.621 261.463C101.438 261.427 101.27 261.337 101.138 261.205C101.006 261.073 100.916 260.905 100.88 260.722C100.844 260.539 100.863 260.349 100.935 260.177C101.007 260.005 101.129 259.858 101.285 259.755C101.44 259.652 101.623 259.598 101.81 259.6C102.057 259.6 102.295 259.698 102.47 259.873C102.645 260.048 102.743 260.286 102.743 260.533Z" fill="#FAFAFA"/>
<path d="M108.658 260.129C108.616 260.129 108.581 258.408 108.581 256.29C108.581 254.172 108.581 252.451 108.658 252.451C108.734 252.451 108.727 254.172 108.727 256.29C108.727 258.408 108.693 260.129 108.658 260.129Z" fill="#BC3C50"/>
<path d="M112.086 260.533C112.086 260.847 111.993 261.154 111.818 261.415C111.644 261.677 111.396 261.88 111.106 262C110.815 262.121 110.496 262.152 110.188 262.091C109.88 262.029 109.597 261.878 109.374 261.656C109.152 261.434 109.001 261.151 108.94 260.843C108.878 260.535 108.91 260.215 109.03 259.925C109.15 259.635 109.354 259.387 109.615 259.212C109.876 259.037 110.183 258.944 110.498 258.944C110.919 258.944 111.323 259.112 111.621 259.41C111.919 259.707 112.086 260.112 112.086 260.533Z" fill="#BC3C50"/>
<path d="M111.389 260.533C111.39 260.72 111.336 260.902 111.234 261.058C111.131 261.213 110.985 261.335 110.813 261.407C110.641 261.479 110.452 261.499 110.269 261.463C110.086 261.428 109.918 261.339 109.786 261.208C109.654 261.076 109.563 260.909 109.526 260.726C109.49 260.544 109.508 260.354 109.579 260.182C109.65 260.01 109.77 259.862 109.925 259.759C110.08 259.655 110.262 259.6 110.448 259.6C110.697 259.6 110.935 259.698 111.111 259.873C111.287 260.047 111.387 260.285 111.389 260.533Z" fill="#FAFAFA"/>
<path d="M110.476 257.6C110.476 257.642 110.246 257.67 109.968 257.67C109.689 257.67 109.459 257.67 109.459 257.6C109.459 257.53 109.689 257.523 109.968 257.523C110.246 257.523 110.476 257.558 110.476 257.6Z" fill="#BC3C50"/>
<path d="M58.7226 31.4922C54.2102 31.4922 50.5518 35.1848 50.5518 39.7396C50.5518 41.825 51.3194 43.7311 52.5858 45.1825C52.5969 45.1973 52.6094 45.2116 52.6232 45.2256L52.744 45.3609L58.7224 51.9742L63.234 46.983L61.8968 45.6332C60.9528 46.1524 59.8712 46.4481 58.7224 46.4481C55.0546 46.4481 52.0712 43.4368 52.0712 39.7347C52.0712 36.0326 55.0546 33.0213 58.7224 33.0213C62.3901 33.0213 65.3735 36.0326 65.3735 39.7347C65.3735 40.8102 65.1219 41.8279 64.6744 42.7295L65.7983 43.8639C66.4943 42.6508 66.8924 41.2418 66.8924 39.7393C66.8927 35.1848 63.2351 31.4922 58.7226 31.4922Z" fill="#D34B58"/>
<path d="M62.8483 42.7495C63.4584 41.9023 63.8178 40.8608 63.8178 39.7359C63.8178 36.8999 61.532 34.5928 58.7224 34.5928C55.9127 34.5928 53.627 36.8999 53.627 39.7359C53.627 42.5719 55.9127 44.879 58.7224 44.879C59.9193 44.879 61.0222 44.4597 61.8928 43.7595L64.1295 45.9919L65.0499 44.9717L62.8483 42.7495ZM54.8741 39.7359C54.8741 37.5929 56.6004 35.8513 58.7226 35.8513C60.8448 35.8513 62.5712 37.5929 62.5712 39.7359C62.5712 41.8788 60.8448 43.6205 58.7226 43.6205C56.6004 43.6205 54.8741 41.878 54.8741 39.7359Z" fill="#D34B58"/>
<path d="M19.8895 262.705C23.5511 262.705 26.5193 259.737 26.5193 256.075C26.5193 252.414 23.5511 249.445 19.8895 249.445C16.228 249.445 13.2598 252.414 13.2598 256.075C13.2598 259.737 16.228 262.705 19.8895 262.705Z" fill="#BC3C50"/>
<path d="M19.6383 251.932C17.9461 251.932 16.5742 253.316 16.5742 255.024C16.5742 255.806 16.8621 256.521 17.337 257.065C17.3411 257.071 17.3458 257.076 17.351 257.082L17.3963 257.132L19.6382 259.612L21.3301 257.741L20.8286 257.235C20.4746 257.429 20.069 257.54 19.6382 257.54C18.2628 257.54 17.144 256.411 17.144 255.023C17.144 253.634 18.2628 252.505 19.6382 252.505C21.0136 252.505 22.1324 253.634 22.1324 255.023C22.1324 255.426 22.038 255.808 21.8702 256.146L22.2917 256.571C22.5527 256.116 22.702 255.588 22.702 255.024C22.7021 253.316 21.3305 251.932 19.6383 251.932Z" fill="white"/>
<path d="M21.1856 256.153C21.4143 255.835 21.5491 255.444 21.5491 255.022C21.5491 253.959 20.6919 253.094 19.6383 253.094C18.5847 253.094 17.7275 253.959 17.7275 255.022C17.7275 256.086 18.5847 256.951 19.6383 256.951C20.0872 256.951 20.5008 256.794 20.8272 256.531L21.666 257.368L22.0111 256.986L21.1856 256.153ZM18.1952 255.022C18.1952 254.219 18.8426 253.566 19.6384 253.566C20.4342 253.566 21.0816 254.219 21.0816 255.022C21.0816 255.826 20.4342 256.479 19.6384 256.479C18.8426 256.479 18.1952 255.826 18.1952 255.022Z" fill="white"/>
<path d="M276.744 140.741C276.744 140.741 287.982 142.636 288.888 142.88C289.793 143.124 293.353 144.81 293.535 145.897C293.629 147.324 293.629 148.755 293.535 150.182C293.535 150.182 292.887 150.704 292.49 149.659C292.223 148.643 292.108 147.594 292.148 146.545L290.156 145.778L291.242 147.708L291.424 152.23C291.424 152.23 290.03 152.104 289.758 151.025C289.588 150.272 289.499 149.504 289.494 148.732L288.045 147.506L289.131 148.976L289.494 152.23C289.494 152.23 288.435 152.578 288.1 151.854C287.856 150.914 287.734 149.947 287.738 148.976L283.641 147.541L280.931 149.053L275.866 146.224L276.744 140.741Z" fill="#FFBE9D"/>
<path d="M237.394 112.964C237.45 113.187 250.938 131.775 250.938 131.775L278.04 140.205L276.807 150.384L243.595 143.695L231.807 130.165L237.394 112.964Z" fill="#BC3C50"/>
<g opacity="0.2">
<path d="M237.394 112.964C237.45 113.187 250.938 131.775 250.938 131.775L278.04 140.205L276.807 150.384L243.595 143.695L231.807 130.165L237.394 112.964Z" fill="black"/>
</g>
<path d="M190.185 138.526H134.811C133.638 138.526 132.687 139.478 132.687 140.651V147.193C132.687 148.367 133.638 149.318 134.811 149.318H190.185C191.359 149.318 192.31 148.367 192.31 147.193V140.651C192.31 139.478 191.359 138.526 190.185 138.526Z" fill="#F5F5F5"/>
<path d="M190.193 149.318C190.193 149.318 190.311 149.318 190.541 149.269C190.984 149.188 191.389 148.965 191.695 148.635C192.002 148.305 192.193 147.885 192.241 147.437C192.241 146.782 192.241 146.002 192.241 145.138C192.241 144.274 192.241 143.305 192.241 142.253C192.241 141.724 192.241 141.174 192.241 140.602C192.232 140.32 192.166 140.042 192.046 139.785C191.926 139.529 191.756 139.3 191.545 139.111C191.316 138.918 191.047 138.777 190.757 138.7C190.449 138.633 190.132 138.612 189.817 138.638H187.782H183.358L134.861 138.693C134.59 138.693 134.321 138.749 134.073 138.858C133.825 138.967 133.602 139.127 133.419 139.327C133.238 139.53 133.1 139.767 133.014 140.025C132.927 140.282 132.894 140.555 132.917 140.825C132.917 141.996 132.917 143.159 132.917 144.309V146.921C132.904 147.188 132.927 147.455 132.987 147.716C133.091 148.092 133.305 148.429 133.601 148.684C133.898 148.938 134.264 149.098 134.652 149.144C134.896 149.144 135.195 149.144 135.474 149.144H148.349L170.149 149.186L184.849 149.241L188.848 149.276L184.849 149.311L170.149 149.367L148.349 149.409H135.425C135.139 149.409 134.875 149.409 134.561 149.409C134.258 149.372 133.965 149.277 133.697 149.13C133.431 148.982 133.196 148.783 133.007 148.543C132.818 148.304 132.679 148.03 132.597 147.737C132.521 147.446 132.493 147.145 132.513 146.845V144.26C132.513 143.11 132.513 141.947 132.513 140.776C132.494 140.461 132.538 140.144 132.642 139.845C132.746 139.546 132.908 139.271 133.119 139.035C133.335 138.796 133.598 138.606 133.892 138.476C134.186 138.347 134.505 138.281 134.826 138.282L183.323 138.338H189.782C190.116 138.324 190.451 138.352 190.778 138.422C191.097 138.508 191.392 138.665 191.642 138.881C191.878 139.086 192.068 139.337 192.201 139.619C192.334 139.9 192.407 140.207 192.415 140.519C192.415 141.09 192.415 141.647 192.415 142.177C192.415 143.229 192.415 144.19 192.415 145.061C192.415 145.932 192.415 146.691 192.381 147.374C192.303 147.952 192 148.476 191.538 148.83C191.256 149.042 190.925 149.178 190.576 149.227C190.454 149.278 190.325 149.308 190.193 149.318Z" fill="#263238"/>
<path d="M340.544 287.219C356.259 286.464 368.387 273.112 367.632 257.397C366.877 241.681 353.525 229.553 337.81 230.308C322.094 231.063 309.966 244.415 310.721 260.13C311.476 275.846 324.828 287.974 340.544 287.219Z" fill="#263238"/>
<path d="M310.701 258.282C310.701 258.282 310.701 258.331 310.701 258.359C310.638 265.884 313.555 273.129 318.816 278.511C324.076 283.893 331.252 286.975 338.777 287.083C346.302 287.192 353.565 284.319 358.978 279.091C364.392 273.863 367.517 266.705 367.671 259.181C367.671 259.181 367.671 259.132 367.671 259.104L310.701 258.282Z" fill="#263238"/>
<path d="M319.181 258.477C319.123 262.433 320.24 266.317 322.39 269.638C324.54 272.959 327.627 275.568 331.26 277.135C334.892 278.702 338.908 279.156 342.799 278.44C346.69 277.725 350.281 275.872 353.119 273.115C355.957 270.358 357.913 266.822 358.741 262.953C359.568 259.084 359.23 255.057 357.769 251.381C356.308 247.704 353.79 244.544 350.532 242.298C347.275 240.053 343.425 238.825 339.469 238.768C334.165 238.691 329.048 240.725 325.243 244.421C321.439 248.117 319.258 253.174 319.181 258.477Z" fill="#FAFAFA"/>
<path d="M339.469 238.768C334.165 238.691 329.048 240.725 325.243 244.421C321.438 248.117 319.258 253.174 319.181 258.477L359.178 259.056C359.255 253.752 357.221 248.635 353.525 244.83C349.829 241.025 344.773 238.845 339.469 238.768Z" fill="#E0E0E0"/>
<path d="M326.997 258.589C326.962 260.999 327.642 263.366 328.951 265.389C330.261 267.413 332.141 269.003 334.354 269.957C336.567 270.912 339.013 271.19 341.384 270.754C343.754 270.318 345.942 269.19 347.671 267.51C349.4 265.831 350.592 263.677 351.097 261.32C351.601 258.963 351.396 256.51 350.506 254.27C349.616 252.03 348.081 250.104 346.097 248.736C344.112 247.369 341.767 246.62 339.357 246.585C336.126 246.539 333.009 247.777 330.692 250.028C328.374 252.279 327.045 255.359 326.997 258.589Z" fill="#263238"/>
<path d="M325.66 216.995C325.66 216.995 354.824 208.175 366.884 239.861L305.853 258.77L325.66 216.995Z" fill="#BC3C50"/>
<path d="M164.78 287.222C180.495 286.467 192.623 273.115 191.868 257.4C191.114 241.684 177.762 229.556 162.046 230.311C146.331 231.066 134.203 244.418 134.958 260.133C135.712 275.849 149.064 287.977 164.78 287.222Z" fill="#263238"/>
<path d="M134.931 258.282C134.931 258.282 134.931 258.331 134.931 258.359C134.867 265.884 137.785 273.129 143.045 278.511C148.305 283.893 155.482 286.975 163.007 287.083C170.532 287.192 177.794 284.319 183.208 279.091C188.621 273.863 191.746 266.705 191.9 259.181V259.09L134.931 258.282Z" fill="#263238"/>
<path d="M143.438 258.477C143.38 262.433 144.497 266.317 146.647 269.638C148.797 272.959 151.884 275.568 155.516 277.135C159.149 278.702 163.165 279.156 167.056 278.44C170.947 277.725 174.538 275.872 177.376 273.115C180.213 270.358 182.17 266.822 182.998 262.953C183.825 259.084 183.487 255.057 182.026 251.381C180.565 247.704 178.046 244.544 174.789 242.298C171.532 240.053 167.681 238.825 163.726 238.768C158.422 238.691 153.305 240.725 149.5 244.421C145.695 248.117 143.515 253.174 143.438 258.477Z" fill="#FAFAFA"/>
<path d="M163.698 238.767C158.398 238.698 153.289 240.735 149.49 244.431C145.691 248.126 143.515 253.178 143.438 258.477L183.435 259.055C183.473 256.427 182.992 253.817 182.021 251.374C181.049 248.931 179.605 246.704 177.772 244.82C175.939 242.936 173.752 241.431 171.337 240.393C168.922 239.354 166.326 238.802 163.698 238.767Z" fill="#E0E0E0"/>
<path d="M151.226 258.589C151.19 260.999 151.87 263.366 153.18 265.389C154.489 267.413 156.369 269.003 158.582 269.957C160.795 270.912 163.242 271.19 165.612 270.754C167.983 270.318 170.171 269.19 171.9 267.51C173.629 265.831 174.821 263.677 175.325 261.32C175.83 258.963 175.624 256.51 174.734 254.27C173.844 252.03 172.31 250.104 170.325 248.736C168.341 247.369 165.995 246.62 163.585 246.585C160.355 246.539 157.238 247.777 154.92 250.028C152.602 252.279 151.274 255.359 151.226 258.589Z" fill="#263238"/>
<path d="M203.932 247.33C203.772 247.414 188.939 245.038 188.939 245.038C188.137 246.085 187.116 246.944 185.948 247.555C184.779 248.167 183.491 248.515 182.174 248.577C175.764 248.884 169.501 249.17 164.06 249.413C161.629 249.522 159.34 250.59 157.694 252.383C156.049 254.176 155.181 256.548 155.281 258.979C155.379 261.287 156.341 263.474 157.976 265.105C159.612 266.736 161.8 267.693 164.108 267.785L195.69 269.033C200.88 269.235 207.778 266.086 211.018 262.024L203.932 247.33Z" fill="#455A64"/>
<path d="M126.424 234.706C126.424 234.706 125.072 206.943 151.164 201.16V197.6H242.558V206.141C242.558 206.141 229.146 222.298 233.5 235.709C237.855 249.121 239.248 250.494 239.248 250.494H291.264C295.369 244.725 297.657 237.862 297.834 230.784C298.113 219.01 293.222 198.882 289.564 186.014C286.262 174.274 284.172 164.492 284.172 164.492L299.778 159.288C299.778 159.288 328.656 197.084 329.834 199.174C331.011 201.264 335.024 206.253 334.083 217.107C333.143 227.962 307.163 261.446 300.349 265.222C293.535 268.998 287.376 269.235 281.238 270.175C275.916 270.998 236.538 270.454 226.234 270.294C222.653 270.271 219.143 269.298 216.062 267.472C212.982 265.605 210.669 262.512 208.112 257.44L202.657 246.822L126.424 234.706Z" fill="#BC3C50"/>
<path d="M133.419 232.797L121.909 250.828C121.567 251.327 121.398 251.925 121.426 252.529C121.454 253.134 121.678 253.713 122.065 254.179C122.451 254.645 122.979 254.973 123.568 255.112C124.157 255.252 124.776 255.195 125.33 254.952C126.762 254.312 128.071 253.425 129.197 252.332C134.457 247.323 143.827 234.128 143.827 234.128L133.419 232.797Z" fill="#455A64"/>
<path d="M215.971 236.044C215.971 236.044 215.971 235.953 216.04 235.779L216.27 235.02C216.547 234.045 216.75 233.05 216.876 232.045C217.262 228.323 216.646 224.566 215.093 221.162C214.048 218.813 212.613 216.658 210.85 214.787C208.824 212.651 206.473 210.85 203.883 209.451C201.012 207.901 197.941 206.756 194.756 206.051C191.322 205.31 187.818 204.948 184.305 204.971C180.809 204.996 177.317 205.255 173.855 205.744C170.483 206.197 167.25 206.754 164.198 207.451C158.781 208.602 153.559 210.533 148.697 213.185C145.432 214.997 142.448 217.276 139.842 219.95C138.922 220.897 138.26 221.685 137.821 222.221L137.327 222.841C137.274 222.915 137.213 222.983 137.146 223.043C137.914 221.906 138.781 220.838 139.737 219.852C142.322 217.128 145.299 214.805 148.571 212.962C153.442 210.262 158.684 208.295 164.129 207.124C167.18 206.427 170.399 205.849 173.806 205.389C177.296 204.895 180.815 204.634 184.34 204.608C187.872 204.585 191.395 204.952 194.846 205.702C198.063 206.432 201.162 207.605 204.057 209.186C206.683 210.605 209.066 212.435 211.115 214.606C212.891 216.509 214.33 218.7 215.371 221.086C216.919 224.535 217.501 228.339 217.057 232.093C216.911 233.103 216.678 234.099 216.361 235.068C216.249 235.389 216.166 235.633 216.096 235.821C216.061 235.899 216.019 235.973 215.971 236.044Z" fill="#263238"/>
<path d="M210.711 229.829C210.669 229.829 210.857 229.39 211.052 228.596C211.313 227.452 211.349 226.269 211.157 225.112C210.886 223.411 210.31 221.773 209.457 220.277C208.974 219.381 208.41 218.532 207.771 217.741C207.102 216.88 206.343 216.093 205.506 215.393C203.876 214.051 202.042 212.978 200.072 212.216C198.461 211.584 196.789 211.117 195.084 210.823C193.931 210.628 192.768 210.495 191.6 210.425C191.171 210.42 190.743 210.387 190.318 210.328C190.429 210.311 190.542 210.311 190.653 210.328C190.869 210.328 191.189 210.328 191.607 210.328C192.774 210.345 193.937 210.441 195.091 210.614C196.824 210.862 198.524 211.299 200.163 211.916C202.183 212.677 204.065 213.762 205.736 215.128C206.589 215.846 207.365 216.652 208.049 217.532C208.69 218.346 209.257 219.216 209.742 220.131C210.605 221.664 211.168 223.347 211.401 225.091C211.574 226.268 211.5 227.469 211.185 228.616C211.102 228.926 210.99 229.227 210.85 229.515C210.819 229.626 210.772 229.731 210.711 229.829Z" fill="#F5F5F5"/>
<g opacity="0.4">
<path d="M192.812 205.487C197.732 206.385 202.415 208.282 206.572 211.06C210.753 213.836 213.972 217.837 215.79 222.514C217.615 227.21 217.343 233.432 215.421 237.319L221.879 237.856C224.053 230.603 221.691 221.706 216.466 216.028C213.476 212.717 209.828 210.067 205.755 208.247C201.682 206.427 197.274 205.477 192.812 205.459" fill="black"/>
</g>
<path d="M190.751 148.774H134.255C130.954 148.774 128.277 151.451 128.277 154.752V191.643C128.277 194.944 130.954 197.62 134.255 197.62H190.751C194.052 197.62 196.728 194.944 196.728 191.643V154.752C196.728 151.451 194.052 148.774 190.751 148.774Z" fill="#FFD956"/>
<path d="M196.728 159.67C196.728 159.775 181.338 159.852 162.36 159.852C143.382 159.852 127.984 159.775 127.984 159.67C127.984 159.566 143.368 159.489 162.36 159.489C181.352 159.489 196.728 159.573 196.728 159.67Z" fill="#263238"/>
<path d="M242.516 200.853C242.516 200.951 221.97 201.034 196.638 201.034C171.306 201.034 150.76 200.951 150.76 200.853C150.76 200.755 171.299 200.672 196.638 200.672C221.977 200.672 242.516 200.755 242.516 200.853Z" fill="#263238"/>
<path d="M242.557 197.621C243.488 196.441 244.064 195.019 244.215 193.524C244.355 191.232 243.31 188.361 240.836 188.361H209.276C206.82 188.361 204.465 189.337 202.729 191.073C200.992 192.81 200.017 195.165 200.017 197.621H242.557Z" fill="#455A64"/>
<path d="M284.171 164.492L278.681 153.045C277.948 151.474 277.828 149.686 278.343 148.03C278.859 146.374 279.973 144.97 281.468 144.093L297.882 134.304C298.739 133.789 299.719 133.517 300.718 133.517H304.264L305.658 156.654L300.195 158.765L303.679 164.394L284.171 164.492Z" fill="#BC3C50"/>
<path d="M304.312 134.38C304.312 134.38 309.928 135.669 310.632 144.322C311.335 152.975 305.678 155.678 305.678 155.678L304.312 134.38Z" fill="#FFD956"/>
<path d="M286.088 148.558C286.088 148.558 274.738 153.937 273.352 154.829C272.39 155.442 271.568 156.515 272.321 158.403C273.603 161.615 278.912 158.591 278.912 158.591L289.481 153.31C289.481 153.31 293.542 151.394 292.037 148.99C290.358 146.301 286.088 148.558 286.088 148.558Z" fill="#263238"/>
<path d="M270.021 146.601C270.021 146.601 280.687 148.426 281.593 148.691C282.499 148.955 286.052 150.621 286.233 151.707C286.327 153.134 286.327 154.565 286.233 155.992C286.233 155.992 285.592 156.515 285.188 155.47C284.926 154.451 284.811 153.4 284.847 152.348L282.854 151.582L283.941 153.512L284.122 158.04C284.122 158.04 282.729 157.915 282.464 156.828C282.293 156.078 282.204 155.312 282.199 154.543L280.743 153.31L281.83 154.78L282.199 158.04C282.199 158.04 281.14 158.382 280.806 157.657C280.561 156.718 280.439 155.751 280.444 154.78L276.347 153.352L273.637 154.863L269.373 152.495L270.021 146.601Z" fill="#FFBE9D"/>
<path d="M286.631 131.747C286.631 136.066 284.645 139.564 282.2 139.564C279.754 139.564 277.769 136.08 277.769 131.747C277.769 127.413 279.747 123.93 282.2 123.93C284.652 123.93 286.631 127.413 286.631 131.747Z" fill="#263238"/>
<path d="M282.924 137.118L285.362 145.562C285.807 145.338 286.163 144.969 286.369 144.515C286.576 144.062 286.621 143.551 286.498 143.068C285.885 140.177 285.536 138.122 284.868 135.586C284.784 135.335 282.924 137.118 282.924 137.118Z" fill="#263238"/>
<g opacity="0.4">
<path d="M234.705 239.283C234.468 238.587 234.218 237.89 234.009 237.145C233.8 236.399 233.535 235.751 233.354 235.054C233.073 234.009 232.868 232.945 232.741 231.87C228.63 248.591 234.907 260.387 245.678 261.216C261.424 262.428 280.618 263.306 288.379 261.271C302.529 257.558 307.72 245.756 308.96 243.812C310.2 241.868 321.452 221.295 314.534 201.487C307.615 181.68 295.618 160.646 295.618 160.646L284.171 164.492C284.171 164.492 286.261 174.246 289.585 185.979C293.242 198.847 298.133 218.974 297.855 230.749C297.677 237.827 295.389 244.69 291.285 250.459H239.276C239.276 250.459 238.161 249.344 234.726 239.311" fill="black"/>
</g>
<path d="M124.347 230.373L124.716 226.401L219.663 237.34C220.932 237.489 222.157 237.896 223.263 238.536C224.369 239.176 225.333 240.035 226.095 241.06C226.857 242.086 227.401 243.256 227.694 244.5C227.988 245.743 228.024 247.034 227.801 248.292L227.376 250.695L129.14 236.42C127.716 236.225 126.421 235.487 125.528 234.36C124.635 233.233 124.212 231.804 124.347 230.373Z" fill="#BC3C50"/>
<g opacity="0.6">
<path d="M124.347 230.373L124.716 226.401L219.663 237.34C220.932 237.489 222.157 237.896 223.263 238.536C224.369 239.176 225.333 240.035 226.095 241.06C226.857 242.086 227.401 243.256 227.694 244.5C227.988 245.743 228.024 247.034 227.801 248.292L227.376 250.695L129.14 236.42C127.716 236.225 126.421 235.487 125.528 234.36C124.635 233.233 124.212 231.804 124.347 230.373Z" fill="black"/>
</g>
<g opacity="0.3">
<path d="M308.96 256.93C308.96 256.93 329.861 233.938 334.174 215.866C336.34 215.853 338.505 216.014 340.646 216.347C340.646 216.347 328.287 249.949 308.96 256.93Z" fill="black"/>
</g>
<path d="M333.867 207.771C333.921 207.961 333.958 208.154 333.978 208.35C334.034 208.733 334.146 209.297 334.215 210.029C334.419 212.118 334.365 214.223 334.055 216.299C333.564 219.365 332.625 222.341 331.268 225.133C329.613 228.533 327.766 231.836 325.736 235.027C322.094 240.849 318.004 246.379 313.502 251.566C311.802 253.58 310.395 255.182 309.42 256.283L308.291 257.544C308.163 257.694 308.025 257.836 307.88 257.969C307.983 257.803 308.102 257.646 308.235 257.502L309.315 256.192L313.307 251.406C317.738 246.18 321.789 240.643 325.43 234.838C327.461 231.658 329.322 228.372 331.003 224.994C332.343 222.229 333.281 219.287 333.79 216.257C334.11 214.212 334.202 212.137 334.062 210.071C334.013 209.339 333.923 208.775 333.895 208.385C333.865 208.182 333.856 207.976 333.867 207.771Z" fill="#263238"/>
<path d="M297.736 256.764C296.539 255.848 295.418 254.837 294.384 253.74C293.269 252.73 292.234 251.632 291.291 250.459C293.606 252.384 295.761 254.492 297.736 256.764Z" fill="#263238"/>
<path d="M235.701 256.06C236.038 254.986 236.559 253.979 237.241 253.085C237.822 252.122 238.564 251.267 239.436 250.556C239.512 250.632 238.558 251.775 237.54 253.287C236.523 254.799 235.799 256.101 235.701 256.06Z" fill="#263238"/>
<path d="M195.544 269.332C196.687 268.289 197.65 267.065 198.393 265.709C199.173 264.228 199.647 262.604 199.787 260.936C199.998 258.902 199.642 256.85 198.76 255.005C197.877 253.161 196.501 251.597 194.784 250.486C193.4 249.546 191.841 248.894 190.2 248.57C188.679 248.295 187.123 248.274 185.595 248.507C185.693 248.465 185.796 248.434 185.901 248.416C186.204 248.337 186.511 248.277 186.821 248.235C187.961 248.083 189.118 248.111 190.249 248.319C191.936 248.617 193.544 249.26 194.972 250.207C196.757 251.341 198.187 252.954 199.098 254.863C200.008 256.772 200.363 258.898 200.121 260.999C199.961 262.711 199.449 264.371 198.616 265.876C198.069 266.887 197.363 267.804 196.526 268.593C196.307 268.81 196.074 269.012 195.829 269.199C195.74 269.255 195.644 269.299 195.544 269.332Z" fill="#263238"/>
<path d="M160.854 262.051C160.615 260.953 160.501 259.831 160.513 258.707C160.393 257.586 160.393 256.456 160.513 255.335C160.861 257.556 160.968 259.807 160.833 262.051H160.854Z" fill="#263238"/>
<path d="M163.391 262.058C162.87 259.851 162.582 257.595 162.534 255.328C162.852 256.419 163.055 257.54 163.14 258.672C163.342 259.789 163.426 260.924 163.391 262.058Z" fill="#263238"/>
<path d="M202.552 197.621C202.552 197.718 191.008 197.802 176.774 197.802C162.54 197.802 150.996 197.718 150.996 197.621C150.996 197.523 162.54 197.439 176.774 197.439C191.008 197.439 202.552 197.516 202.552 197.621Z" fill="#263238"/>
<path d="M165.167 197.585C165.063 197.585 164.986 184.348 164.986 168.059C164.986 151.77 165.035 138.561 165.167 138.561C165.3 138.561 165.349 151.798 165.349 168.094C165.349 184.39 165.265 197.585 165.167 197.585Z" fill="#263238"/>
<path d="M158.068 197.537C157.97 197.537 158.465 184.3 159.176 168.025C159.886 151.75 160.569 138.519 160.639 138.526C160.708 138.533 160.249 151.764 159.538 168.039C158.827 184.314 158.2 197.544 158.068 197.537Z" fill="#263238"/>
<path d="M142.106 278.111C141.994 278.016 141.892 277.911 141.8 277.797C141.619 277.588 141.319 277.289 140.992 276.864C140.028 275.681 139.168 274.417 138.421 273.087C135.899 268.685 134.582 263.696 134.603 258.622C134.624 253.548 135.981 248.57 138.539 244.188C139.295 242.863 140.164 241.607 141.138 240.433C141.472 240.008 141.772 239.736 141.96 239.499C142.148 239.263 142.26 239.186 142.267 239.2C142.198 239.326 142.113 239.443 142.016 239.548C141.849 239.778 141.563 240.085 141.249 240.524C137.675 245.076 135.522 250.581 135.059 256.35C134.595 262.119 135.842 267.897 138.644 272.962C139.365 274.293 140.187 275.567 141.103 276.773C141.41 277.212 141.688 277.525 141.856 277.755C142.023 277.985 142.12 278.097 142.106 278.111Z" fill="#455A64"/>
<path d="M241.917 225.029L241.701 225.433L237.492 233.313L231.612 238.97L243.366 254.618L253.154 252.995C253.154 252.995 252.061 250.759 247.142 250.327L245.282 240.977L252.186 230.275" fill="#455A64"/>
<path d="M231.626 238.99L243.379 254.638L253.168 253.015L251.823 251.726L243.79 252.604L232.88 237.785L231.626 238.99Z" fill="#E0E0E0"/>
<path d="M246.375 246.049C246.319 246.16 245.678 245.93 244.981 246.083C244.285 246.237 243.72 246.634 243.63 246.55C243.539 246.467 243.978 245.812 244.898 245.651C245.817 245.491 246.451 245.958 246.375 246.049Z" fill="#263238"/>
<path d="M245.853 243.763C245.769 243.847 245.233 243.345 244.46 243.318C243.686 243.29 243.066 243.757 243.003 243.666C242.941 243.575 243.052 243.45 243.303 243.248C243.642 243 244.054 242.873 244.474 242.886C244.893 242.897 245.297 243.052 245.616 243.325C245.804 243.52 245.853 243.708 245.853 243.763Z" fill="#263238"/>
<path d="M245.4 240.732C245.302 240.808 244.87 240.3 244.153 240.174C243.435 240.049 242.857 240.376 242.759 240.272C242.662 240.167 242.822 240.07 243.08 239.924C243.42 239.743 243.811 239.683 244.19 239.751C244.569 239.819 244.914 240.012 245.17 240.3C245.407 240.523 245.449 240.704 245.4 240.732Z" fill="#263238"/>
<path d="M247.629 237.981C247.525 238.037 247.155 237.528 246.48 237.235C245.804 236.943 245.191 236.985 245.163 236.866C245.135 236.748 245.86 236.462 246.661 236.866C247.462 237.27 247.748 237.946 247.629 237.981Z" fill="#263238"/>
<path d="M248.576 235.758C248.527 235.793 248.144 235.458 247.552 234.873L246.549 233.835C246.321 233.632 246.124 233.397 245.963 233.138C245.917 233.045 245.889 232.943 245.882 232.839C245.875 232.735 245.888 232.631 245.922 232.532C245.961 232.419 246.033 232.321 246.129 232.249C246.224 232.177 246.339 232.135 246.458 232.128C246.815 232.133 247.162 232.244 247.454 232.448C247.71 232.612 247.944 232.806 248.151 233.027C248.497 233.408 248.752 233.863 248.897 234.357C249.08 234.804 249.08 235.304 248.897 235.751C248.826 235.32 248.728 234.894 248.604 234.476C248.434 234.047 248.181 233.656 247.859 233.326C247.668 233.138 247.455 232.974 247.224 232.839C247.003 232.694 246.75 232.605 246.486 232.581C246.449 232.581 246.414 232.593 246.384 232.614C246.354 232.635 246.331 232.665 246.319 232.699C246.281 232.791 246.281 232.893 246.319 232.985C246.455 233.209 246.618 233.415 246.806 233.598L247.761 234.706C248.087 235.011 248.362 235.366 248.576 235.758Z" fill="#263238"/>
<path d="M248.974 235.988C248.925 235.988 248.876 235.472 249.308 234.796C249.602 234.35 250.032 234.011 250.534 233.829C251.036 233.647 251.584 233.632 252.095 233.786C252.151 233.823 252.199 233.871 252.235 233.927C252.271 233.984 252.294 234.047 252.304 234.114C252.313 234.227 252.289 234.341 252.234 234.441C252.156 234.58 252.055 234.705 251.935 234.81C251.741 234.998 251.531 235.168 251.308 235.319C250.932 235.572 250.518 235.765 250.082 235.89C249.692 236.048 249.264 236.08 248.855 235.981C248.855 235.911 249.308 235.869 249.984 235.598C250.373 235.443 250.741 235.24 251.078 234.991C251.277 234.845 251.463 234.682 251.635 234.504C251.72 234.429 251.793 234.342 251.851 234.246C251.886 234.148 251.851 234.176 251.851 234.155C251.757 234.115 251.655 234.093 251.552 234.093C251.429 234.082 251.305 234.082 251.182 234.093C250.943 234.114 250.709 234.17 250.486 234.26C250.109 234.407 249.776 234.646 249.517 234.957C249.313 235.288 249.132 235.632 248.974 235.988Z" fill="#263238"/>
<path d="M239.387 237.395C239.425 237.625 239.394 237.861 239.298 238.073C239.202 238.286 239.046 238.465 238.848 238.588C238.65 238.711 238.42 238.773 238.187 238.765C237.954 238.758 237.729 238.681 237.54 238.546C237.35 238.41 237.205 238.221 237.123 238.003C237.041 237.785 237.026 237.547 237.079 237.32C237.132 237.094 237.251 236.887 237.421 236.728C237.592 236.569 237.805 236.464 238.035 236.427C238.342 236.378 238.656 236.453 238.909 236.634C239.162 236.815 239.334 237.088 239.387 237.395Z" fill="#E0E0E0"/>
<path d="M277.587 232.552L280.729 252.952L306.138 249.176C305.622 246.772 291.758 243.853 291.758 243.853L290.281 230.699L277.587 232.552Z" fill="#455A64"/>
<path d="M283.739 243.923C283.505 244.033 283.32 244.225 283.22 244.463C283.119 244.701 283.111 244.968 283.196 245.212C283.299 245.448 283.488 245.636 283.724 245.739C283.961 245.841 284.228 245.849 284.47 245.762C284.723 245.644 284.921 245.434 285.025 245.176C285.13 244.918 285.133 244.63 285.035 244.369C284.904 244.131 284.685 243.953 284.424 243.874C284.164 243.794 283.883 243.819 283.641 243.944" fill="#E0E0E0"/>
<path d="M280.729 252.952L280.492 250.862L304.94 248.013C304.94 248.013 306.145 248.34 306.138 249.155L280.729 252.952Z" fill="#E0E0E0"/>
<path d="M292.148 243.666C292.148 243.791 291.556 243.938 290.999 244.425C290.441 244.913 290.205 245.484 290.079 245.456C289.954 245.428 290.037 244.676 290.713 244.098C291.389 243.52 292.162 243.547 292.148 243.666Z" fill="#263238"/>
<path d="M294.977 244.369C295.026 244.488 294.517 244.773 294.176 245.366C293.835 245.958 293.793 246.522 293.667 246.536C293.542 246.55 293.361 245.839 293.8 245.143C294.239 244.446 294.956 244.251 294.977 244.369Z" fill="#263238"/>
<path d="M296.97 247.33C296.859 247.378 296.594 246.779 296.81 246.055C297.026 245.33 297.569 244.968 297.639 245.065C297.709 245.163 297.402 245.581 297.228 246.18C297.054 246.779 297.089 247.302 296.97 247.33Z" fill="#263238"/>
<path d="M291.48 240.705C291.48 240.823 290.853 240.739 290.156 240.886C289.459 241.032 288.951 241.346 288.867 241.248C288.783 241.151 289.25 240.628 290.065 240.461C290.881 240.294 291.528 240.593 291.48 240.705Z" fill="#263238"/>
<path d="M290.441 237.778C290.04 237.952 289.6 238.015 289.166 237.959C288.695 237.946 288.227 237.876 287.773 237.75C287.495 237.684 287.223 237.598 286.958 237.492C286.803 237.437 286.659 237.354 286.533 237.248C286.437 237.174 286.369 237.07 286.341 236.952C286.313 236.834 286.327 236.71 286.379 236.601C286.429 236.504 286.5 236.421 286.587 236.357C286.674 236.293 286.774 236.25 286.881 236.231C287.04 236.207 287.202 236.207 287.362 236.231C287.645 236.252 287.925 236.304 288.198 236.385C288.655 236.514 289.09 236.714 289.487 236.977C290.183 237.437 290.427 237.869 290.385 237.903C290.344 237.938 289.988 237.604 289.326 237.241C288.938 237.032 288.523 236.875 288.093 236.775C287.843 236.709 287.586 236.669 287.327 236.656C287.048 236.656 286.818 236.656 286.769 236.789C286.721 236.921 286.769 236.851 286.818 236.928C286.914 237 287.02 237.059 287.132 237.102C287.37 237.21 287.615 237.305 287.863 237.388C288.288 237.523 288.724 237.619 289.166 237.673C289.593 237.678 290.019 237.713 290.441 237.778Z" fill="#263238"/>
<path d="M290.295 237.98C290.253 237.98 289.94 237.597 289.773 236.803C289.697 236.342 289.697 235.871 289.773 235.41C289.818 235.13 289.888 234.855 289.982 234.587C290.023 234.412 290.109 234.25 290.231 234.117C290.353 233.984 290.507 233.885 290.678 233.828C290.792 233.814 290.907 233.832 291.01 233.88C291.114 233.928 291.201 234.004 291.264 234.1C291.351 234.241 291.419 234.393 291.466 234.553C291.551 234.83 291.593 235.119 291.591 235.41C291.591 235.896 291.471 236.374 291.243 236.803C290.846 237.5 290.351 237.758 290.337 237.716C290.323 237.674 290.678 237.36 290.964 236.671C291.13 236.274 291.206 235.846 291.187 235.417C291.18 235.167 291.135 234.921 291.055 234.685C290.978 234.42 290.846 234.218 290.748 234.26C290.65 234.302 290.434 234.511 290.365 234.741C290.27 234.98 290.198 235.227 290.149 235.479C290.07 235.909 290.051 236.347 290.093 236.782C290.156 237.493 290.358 237.953 290.295 237.98Z" fill="#263238"/>
<path d="M257.599 184.633L235.813 232.107L250.2 240.746L280.326 183.623" fill="#263238"/>
<path d="M293.528 241.827L277.901 244.335L268.544 188.501L222.318 191.852C221.095 191.937 219.867 191.822 218.681 191.511C205.702 187.95 207.457 171.397 208.711 168.742L272.676 166.91C276.027 166.813 279.296 167.955 281.857 170.119C284.418 172.283 286.09 175.315 286.554 178.636L293.528 241.827Z" fill="#263238"/>
<path d="M208.064 171.361L208.294 147.757C208.294 147.757 205.249 132.43 204.343 126.375C202.95 117.012 201.027 112.56 216.368 105.906L219.726 104.61L224.917 104.68C231.104 105.147 237.625 110.741 237.778 114.434L243.763 167.641L208.064 171.361Z" fill="#BC3C50"/>
<path d="M209.025 111.39C209.025 111.39 204.691 120.712 205.541 129.204L221.684 144.699C225.3 148.726 229.828 150.44 235.618 150.788L269.018 154.439L269.944 145.702L238.189 136.701C236.921 136.464 236.287 135.147 235.318 134.297L209.025 111.39Z" fill="#BC3C50"/>
<path d="M206.412 114.079C206.6 113.899 206.816 113.753 207.053 113.647C207.741 113.344 208.468 113.14 209.213 113.041C210.408 112.845 211.627 112.845 212.822 113.041C213.191 113.108 213.548 113.23 213.881 113.403C214.221 113.616 214.549 113.849 214.863 114.1C215.504 114.601 216.152 115.179 216.814 115.806C218.152 117.054 219.42 118.635 220.904 120.238C222.388 121.84 224.011 123.561 225.78 125.365C227.55 127.17 229.452 129.058 231.486 131.009C232.511 131.984 233.577 132.973 234.684 133.942C235.249 134.401 235.806 134.945 236.342 135.454C236.848 135.976 237.486 136.352 238.189 136.54L270.007 145.528L270.153 145.57V145.723C270.091 146.343 270.014 147.005 269.944 147.681C269.701 150.001 269.457 152.3 269.248 154.46V154.641H269.067L254.91 153.066L248.221 152.335L241.819 151.687C239.728 151.457 237.715 151.22 235.757 150.934C233.845 150.699 231.962 150.263 230.142 149.631C228.464 148.993 226.876 148.138 225.418 147.088C224.025 146.106 222.715 145.082 221.51 144.072C216.737 140.003 213.233 136.359 210.801 133.879C209.596 132.632 208.669 131.65 208.049 130.981L207.353 130.214L207.123 129.943C207.123 129.943 207.213 130.019 207.381 130.186C207.548 130.354 207.792 130.611 208.077 130.932L210.864 133.788C213.323 136.234 216.856 139.85 221.635 143.884C222.84 144.88 224.129 145.897 225.53 146.866C226.978 147.893 228.551 148.731 230.211 149.36C232.02 149.977 233.888 150.402 235.785 150.628C237.743 150.906 239.763 151.143 241.839 151.366L248.242 151.993L254.931 152.725L269.074 154.265L268.872 154.425C269.101 152.265 269.345 149.966 269.568 147.639C269.645 146.942 269.715 146.301 269.777 145.681L269.91 145.876L238.14 136.854C237.364 136.661 236.659 136.253 236.106 135.676C235.541 135.14 235.033 134.638 234.454 134.158C233.333 133.182 232.281 132.186 231.257 131.211C229.222 129.253 227.327 127.351 225.564 125.539C223.802 123.728 222.185 122 220.688 120.377C219.19 118.754 217.963 117.179 216.64 115.932C216.031 115.328 215.389 114.758 214.717 114.225C214.413 113.97 214.092 113.737 213.755 113.528C213.44 113.357 213.099 113.237 212.745 113.173C211.57 112.958 210.367 112.939 209.185 113.117C208.445 113.2 207.721 113.385 207.032 113.668C206.815 113.789 206.608 113.926 206.412 114.079Z" fill="#263238"/>
<path d="M214.751 84.1347L216.368 107.126C216.497 108.934 217.306 110.625 218.632 111.86C219.959 113.095 221.704 113.781 223.516 113.779C224.496 113.78 225.466 113.579 226.365 113.189C227.264 112.799 228.074 112.23 228.744 111.514C229.414 110.799 229.93 109.954 230.26 109.032C230.591 108.109 230.728 107.128 230.664 106.151C230.518 103.963 230.392 102.172 230.392 102.172C230.392 102.172 235.966 101.308 236.022 95.7418C236.064 92.53 235.506 85.2425 235.033 79.6549C234.877 77.8297 234.04 76.1299 232.689 74.8933C231.337 73.6567 229.57 72.9739 227.738 72.9805H224.373C223.003 73.0637 221.663 73.4205 220.432 74.0298C219.202 74.6391 218.106 75.4887 217.21 76.5282C216.313 77.5678 215.633 78.7765 215.211 80.0829C214.789 81.3893 214.633 82.767 214.751 84.1347Z" fill="#FFBE9D"/>
<path d="M230.399 102.082C227.831 102.13 225.307 101.415 223.146 100.026C223.146 100.026 224.86 104.025 230.413 103.51L230.399 102.082Z" fill="#EB996E"/>
<path d="M233.786 86.7957C233.788 87.0028 233.709 87.2025 233.566 87.3522C233.422 87.5018 233.226 87.5897 233.019 87.5969C232.919 87.6065 232.819 87.5959 232.723 87.5659C232.627 87.5358 232.538 87.4869 232.461 87.4219C232.385 87.357 232.322 87.2774 232.277 87.1878C232.231 87.0982 232.204 87.0004 232.197 86.9002C232.195 86.6924 232.274 86.492 232.417 86.3412C232.56 86.1904 232.756 86.1011 232.964 86.0921C233.166 86.0767 233.366 86.1421 233.52 86.274C233.674 86.4059 233.77 86.5935 233.786 86.7957Z" fill="#263238"/>
<path d="M234.078 85.2287C233.973 85.3332 233.381 84.8873 232.517 84.8873C231.653 84.8873 231.04 85.3193 230.943 85.2148C230.845 85.1103 230.998 84.9779 231.277 84.7828C231.644 84.5249 232.082 84.3885 232.531 84.3927C232.977 84.3916 233.411 84.5332 233.771 84.7968C234.008 84.9918 234.12 85.1799 234.078 85.2287Z" fill="#263238"/>
<path d="M225.759 86.7957C225.763 87.0033 225.685 87.2041 225.541 87.3541C225.398 87.5042 225.201 87.5915 224.993 87.5969C224.893 87.6065 224.792 87.5959 224.696 87.5659C224.601 87.5358 224.512 87.4869 224.435 87.4219C224.358 87.357 224.296 87.2774 224.25 87.1878C224.205 87.0982 224.178 87.0004 224.171 86.9002C224.169 86.6924 224.248 86.492 224.391 86.3412C224.534 86.1904 224.73 86.1011 224.937 86.0921C225.14 86.0767 225.34 86.1421 225.494 86.274C225.648 86.4059 225.743 86.5935 225.759 86.7957Z" fill="#263238"/>
<path d="M225.648 85.3889C225.55 85.4934 224.951 85.0475 224.087 85.0475C223.223 85.0475 222.61 85.4795 222.52 85.3749C222.429 85.2704 222.568 85.1381 222.847 84.943C223.214 84.6851 223.653 84.5486 224.101 84.5528C224.546 84.5498 224.981 84.6889 225.341 84.95C225.648 85.152 225.725 85.3401 225.648 85.3889Z" fill="#263238"/>
<path d="M228.776 91.7287C229.228 91.5875 229.696 91.5033 230.169 91.4779C230.385 91.4779 230.594 91.4082 230.629 91.2619C230.652 91.0358 230.601 90.8083 230.483 90.614L229.828 88.9558C229.227 87.5486 228.743 86.0946 228.379 84.6084C229.086 85.9648 229.687 87.3741 230.176 88.8235L230.789 90.4955C230.929 90.7583 230.971 91.0618 230.908 91.3525C230.876 91.43 230.827 91.4991 230.764 91.5547C230.701 91.6102 230.626 91.6507 230.546 91.673C230.425 91.7041 230.301 91.7205 230.176 91.7217C229.712 91.7829 229.241 91.7853 228.776 91.7287Z" fill="#263238"/>
<path d="M226.262 92.3204C226.401 92.3204 226.401 93.2401 227.195 93.895C227.989 94.5499 228.979 94.4524 228.986 94.5917C228.993 94.731 228.763 94.7659 228.345 94.7798C227.802 94.786 227.274 94.601 226.854 94.2573C226.46 93.9223 226.21 93.4481 226.157 92.9335C226.094 92.5782 226.199 92.3135 226.262 92.3204Z" fill="#263238"/>
<path d="M225.892 82.0378C225.808 82.2677 224.958 82.1632 223.955 82.2817C222.952 82.4001 222.137 82.6788 222.004 82.4698C221.872 82.2608 222.088 82.1493 222.415 81.9263C222.851 81.6486 223.344 81.4747 223.858 81.4179C224.371 81.3611 224.891 81.423 225.376 81.5989C225.746 81.7452 225.934 81.9263 225.892 82.0378Z" fill="#263238"/>
<path d="M233.758 82.7551C233.612 82.9501 233.019 82.7551 232.316 82.7551C231.612 82.7551 231.006 82.8805 230.867 82.6784C230.727 82.4764 230.901 82.3858 231.166 82.2047C231.515 81.976 231.927 81.8638 232.344 81.8842C232.758 81.8929 233.159 82.0291 233.493 82.2744C233.744 82.4625 233.828 82.6575 233.758 82.7551Z" fill="#263238"/>
<path d="M216.625 88.3148C216.528 88.273 212.801 87.1792 212.926 90.9832C213.051 94.7872 216.834 93.8815 216.841 93.77C216.848 93.6585 216.625 88.3148 216.625 88.3148Z" fill="#FFBE9D"/>
<path d="M215.63 92.3693C215.63 92.3693 215.567 92.4181 215.456 92.4738C215.296 92.5343 215.12 92.5343 214.961 92.4738C214.712 92.3259 214.506 92.1144 214.366 91.861C214.225 91.6076 214.154 91.3214 214.16 91.0316C214.14 90.706 214.192 90.38 214.313 90.0771C214.345 89.9567 214.405 89.8457 214.489 89.7535C214.572 89.6613 214.677 89.5907 214.794 89.5476C214.87 89.5262 214.951 89.5318 215.024 89.5636C215.096 89.5954 215.155 89.6513 215.191 89.7218C215.247 89.8263 215.226 89.903 215.247 89.9099C215.268 89.9169 215.323 89.8403 215.289 89.687C215.265 89.5914 215.208 89.5073 215.128 89.4501C215.075 89.4126 215.015 89.3859 214.952 89.3716C214.889 89.3572 214.823 89.3555 214.759 89.3665C214.599 89.3978 214.45 89.471 214.328 89.5787C214.205 89.6865 214.114 89.8248 214.062 89.9796C213.91 90.3132 213.843 90.6796 213.867 91.0456C213.858 91.3845 213.949 91.7186 214.131 92.0052C214.312 92.2919 214.574 92.5181 214.884 92.6549C214.987 92.682 215.094 92.6854 215.198 92.6649C215.302 92.6444 215.399 92.6005 215.484 92.5365C215.63 92.4599 215.644 92.3763 215.63 92.3693Z" fill="#EB996E"/>
<path d="M214.501 88.1828C214.863 88.1594 215.224 88.2345 215.547 88.4001C215.869 88.5657 216.141 88.8157 216.333 89.1234C216.577 89.6668 216.633 90.2799 216.877 90.8233C216.982 91.1026 217.174 91.3407 217.425 91.5025C217.676 91.6643 217.972 91.7413 218.27 91.7221C218.468 91.6602 218.645 91.5469 218.785 91.3939C218.924 91.2409 219.021 91.0537 219.064 90.8512C219.144 90.4464 219.144 90.0298 219.064 89.625C218.841 87.8484 218.472 86.0927 218.402 84.3022C218.253 82.5058 218.644 80.7058 219.524 79.1327C219.97 78.3534 220.619 77.7094 221.402 77.2691C222.184 76.8287 223.071 76.6084 223.969 76.6315C225.153 76.729 226.233 77.3282 227.411 77.5093C228.11 77.6008 228.82 77.5324 229.489 77.3091C230.158 77.0858 230.767 76.7136 231.27 76.2204C231.493 76.0333 231.725 75.8589 231.967 75.6979C231.952 75.2773 231.814 74.8704 231.57 74.5275C229.236 72.3677 225.042 71.7406 221.962 72.5419C220.398 72.9273 218.937 73.6485 217.68 74.6555C216.423 75.6625 215.4 76.9311 214.682 78.3733C213.358 81.2576 213.748 85.2637 214.48 88.1828" fill="#263238"/>
<path d="M235.096 78.7904C235.096 78.7904 220.507 74.0946 214.195 86.7189C213.708 85.1312 213.39 83.4965 213.247 81.842C213.247 80.7133 213.944 73.9762 220.855 71.8582C220.855 71.8861 231.299 67.9009 235.096 78.7904Z" fill="#BC3C50"/>
<path d="M222.555 79.1036C222.814 79.5225 223.167 79.8755 223.586 80.1345C224.005 80.3936 224.478 80.5516 224.969 80.5962C225.459 80.6408 225.954 80.5707 226.413 80.3915C226.871 80.2122 227.282 79.9287 227.613 79.5634C227.757 79.9262 228.011 80.2347 228.339 80.4457C228.668 80.6566 229.054 80.7593 229.444 80.7393C229.834 80.7193 230.207 80.5776 230.512 80.3342C230.818 80.0908 231.039 79.7579 231.145 79.3822C231.534 79.8189 232.008 80.1721 232.538 80.4203C232.811 80.5364 233.113 80.5659 233.404 80.5049C233.694 80.4438 233.959 80.2952 234.162 80.0789C234.328 79.8266 234.408 79.527 234.389 79.2254C234.37 78.9238 234.254 78.6365 234.057 78.4069C233.662 77.9494 233.152 77.6055 232.58 77.4106C230.851 76.6509 228.952 76.3624 227.076 76.5745C225.19 76.8011 223.463 77.7409 222.248 79.2011" fill="#263238"/>
<g opacity="0.4">
<path d="M235.096 78.7897C233.879 77.5168 232.215 76.7672 230.456 76.6995C226.15 76.5114 218.096 78.929 214.195 86.7321C213.708 85.1444 213.39 83.5097 213.247 81.8551C213.247 80.7265 213.944 73.9894 220.855 71.8714C220.855 71.8853 231.299 67.9002 235.096 78.7897Z" fill="black"/>
</g>
<path d="M214.801 85.2424C217.013 81.9478 219.913 79.1717 223.301 77.1049C226.659 75.0148 232.204 72.9247 236.022 71.9215C237.155 71.5471 238.355 71.4212 239.541 71.5522C240.131 71.627 240.689 71.8666 241.15 72.2437C241.611 72.6207 241.956 73.1199 242.146 73.6841C242.509 75.1263 239.952 77.3488 238.746 78.2197C237.57 79.0062 236.351 79.7272 235.096 80.3794C235.096 80.3794 235.131 77.7041 230.853 77.1537C225.035 76.4082 214.801 85.2424 214.801 85.2424Z" fill="#BC3C50"/>
<g opacity="0.3">
<path d="M209.666 132.652C211.171 136.282 212.69 140.762 214.87 144.03C217.051 147.297 219.963 150.202 223.586 151.693C228.143 153.602 233.528 153.909 238.057 151.958C238.426 151.798 239.151 151.596 239.081 151.199C239.081 151.199 237.583 151.024 237.116 150.948C227.968 149.429 226.972 148.314 222.59 144.831C219.859 142.678 213.804 136.15 209.666 132.652Z" fill="black"/>
</g>
<path d="M238.76 159.086C238.668 159.384 238.539 159.669 238.377 159.936C237.971 160.69 237.475 161.391 236.9 162.026C234.962 164.058 232.523 165.546 229.829 166.339C227.143 167.103 224.371 167.518 221.58 167.572C220.514 167.614 219.65 167.621 219.057 167.621C218.748 167.633 218.438 167.619 218.131 167.579C218.432 167.509 218.741 167.474 219.051 167.474L221.566 167.314C224.327 167.187 227.064 166.742 229.724 165.99C232.372 165.203 234.781 163.766 236.733 161.81C237.494 160.968 238.172 160.056 238.76 159.086Z" fill="#263238"/>
<path d="M278.173 245.999C278.143 245.931 278.124 245.858 278.117 245.783C278.117 245.623 278.048 245.407 277.992 245.142C277.887 244.557 277.734 243.749 277.546 242.676C277.163 240.502 276.626 237.402 275.957 233.577C274.655 225.872 272.857 215.261 270.872 203.542C269.987 198.233 269.144 193.161 268.37 188.528L268.552 188.675L248.549 190.117L242.808 190.507L241.276 190.597H240.885H240.746H240.878L241.276 190.549L242.801 190.409L248.535 189.922L268.524 188.326H268.677V188.479C269.457 193.113 270.314 198.185 271.206 203.486C273.15 215.212 274.905 225.83 276.187 233.542C276.8 237.374 277.302 240.509 277.657 242.655L278.034 245.142C278.075 245.407 278.103 245.623 278.124 245.783C278.149 245.853 278.166 245.926 278.173 245.999Z" fill="#455A64"/>
<path d="M273.233 183.526C273.296 183.61 272.077 184.655 270.697 186.062C269.318 187.47 268.287 188.703 268.203 188.633C269.488 186.585 271.205 184.842 273.233 183.526Z" fill="#455A64"/>
<path d="M230.525 106.631C230.525 106.631 230.566 106.707 230.608 106.861C230.678 107.087 230.722 107.321 230.741 107.557C230.822 108.417 230.708 109.284 230.406 110.093C229.956 111.303 229.156 112.351 228.107 113.103C226.798 113.999 225.223 114.422 223.641 114.301C222.066 114.194 220.557 113.628 219.301 112.671C218.288 111.893 217.448 110.913 216.834 109.794C216.418 109.048 216.1 108.252 215.887 107.425C215.817 107.132 215.768 106.902 215.748 106.728C215.727 106.554 215.748 106.484 215.748 106.484C216.071 107.583 216.512 108.644 217.064 109.647C217.695 110.71 218.525 111.639 219.51 112.385C220.727 113.287 222.178 113.819 223.69 113.918C225.193 114.033 226.691 113.644 227.947 112.81C228.95 112.101 229.728 111.12 230.19 109.982C230.506 109.211 230.656 108.383 230.629 107.55C230.58 106.965 230.525 106.645 230.525 106.631Z" fill="#263238"/>
<path d="M240.355 137.056C240.276 136.831 240.224 136.597 240.202 136.359C240.125 135.809 240.035 135.14 239.923 134.366C239.693 132.59 239.394 130.305 239.066 127.776C238.739 125.247 238.502 122.899 238.37 121.171C238.293 120.328 238.244 119.638 238.216 119.164C238.183 118.919 238.183 118.671 238.216 118.426C238.289 118.652 238.338 118.886 238.363 119.122C238.439 119.673 238.53 120.335 238.634 121.115C238.857 122.892 239.143 125.177 239.457 127.706C239.77 130.235 240.042 132.583 240.209 134.304C240.286 135.154 240.341 135.836 240.376 136.317C240.398 136.563 240.391 136.811 240.355 137.056Z" fill="#263238"/>
</svg>
