<svg width="726" height="571" viewBox="0 0 726 571" fill="none" xmlns="http://www.w3.org/2000/svg">
<g filter="url(#filter0_dddd_69_638)">
<g clip-path="url(#clip0_69_638)">
<rect x="180.08" y="39.4941" width="295.089" height="180.706" rx="19.224" transform="rotate(48.855 180.08 39.4941)" fill="url(#paint0_linear_69_638)"/>
<path d="M108.401 146.808L109.744 145.634L111.252 147.36C111.569 147.723 111.904 147.92 112.258 147.951C112.619 147.99 112.958 147.871 113.274 147.594C113.568 147.338 113.726 147.029 113.751 146.667C113.775 146.306 113.629 145.943 113.312 145.581L111.794 143.843L113.207 142.609L114.907 144.554C115.379 145.095 115.69 145.661 115.839 146.252C115.996 146.837 115.994 147.403 115.833 147.952C115.673 148.501 115.357 148.981 114.886 149.392C114.407 149.811 113.885 150.062 113.32 150.148C112.763 150.227 112.201 150.145 111.636 149.904C111.071 149.662 110.543 149.26 110.05 148.696L108.401 146.808ZM103.816 148.363L111.993 141.219L113.581 143.037L105.405 150.181L103.816 148.363ZM107.702 152.81L108.996 147.186L110.905 148.459L109.584 154.964L107.702 152.81ZM112.225 158.244C111.773 157.727 111.476 157.177 111.334 156.593C111.206 156.01 111.229 155.445 111.404 154.897C111.587 154.343 111.922 153.853 112.408 153.428L115.674 150.575L117.222 152.347L113.979 155.18C113.786 155.349 113.647 155.525 113.562 155.708C113.484 155.899 113.464 156.093 113.501 156.292C113.539 156.491 113.638 156.683 113.8 156.868C114.03 157.131 114.293 157.268 114.59 157.281C114.895 157.287 115.194 157.162 115.487 156.906L118.73 154.072L120.278 155.844L117.024 158.688C116.53 159.119 115.996 159.389 115.422 159.495C114.855 159.595 114.292 159.543 113.732 159.338C113.179 159.126 112.677 158.762 112.225 158.244ZM117.274 164.046C116.984 163.714 116.739 163.349 116.541 162.95C116.349 162.559 116.209 162.158 116.121 161.745C116.047 161.333 116.03 160.939 116.07 160.564L117.969 160.681C117.93 161.042 117.964 161.4 118.071 161.756C118.186 162.105 118.374 162.431 118.638 162.732C118.82 162.94 118.989 163.071 119.145 163.126C119.308 163.187 119.444 163.171 119.552 163.077C119.691 162.955 119.734 162.795 119.682 162.595C119.645 162.396 119.562 162.169 119.434 161.913C119.313 161.651 119.187 161.374 119.054 161.081C118.921 160.789 118.825 160.485 118.767 160.168C118.708 159.852 118.73 159.533 118.831 159.213C118.94 158.886 119.165 158.575 119.504 158.278C119.867 157.961 120.261 157.78 120.685 157.736C121.118 157.685 121.559 157.762 122.01 157.967C122.462 158.172 122.886 158.502 123.284 158.958C123.703 159.436 124.002 159.951 124.183 160.5C124.379 161.051 124.425 161.596 124.324 162.134L122.424 162.017C122.478 161.657 122.449 161.328 122.338 161.03C122.234 160.74 122.091 160.49 121.909 160.282C121.734 160.081 121.571 159.957 121.422 159.911C121.28 159.858 121.155 159.879 121.047 159.973C120.931 160.074 120.896 160.221 120.941 160.413C120.986 160.605 121.073 160.829 121.201 161.084C121.329 161.34 121.456 161.617 121.581 161.916C121.706 162.215 121.794 162.527 121.845 162.85C121.896 163.173 121.867 163.498 121.757 163.825C121.656 164.145 121.428 164.46 121.072 164.77C120.524 165.249 119.906 165.422 119.217 165.289C118.536 165.163 117.888 164.748 117.274 164.046ZM123.504 170.896L126.713 168.093C127.006 167.837 127.16 167.539 127.176 167.198C127.206 166.859 127.1 166.55 126.857 166.272C126.688 166.079 126.498 165.946 126.284 165.874C126.079 165.795 125.862 165.78 125.633 165.83C125.412 165.873 125.206 165.979 125.013 166.148L124.751 165.171C125.191 164.787 125.658 164.542 126.152 164.437C126.646 164.332 127.127 164.368 127.595 164.545C128.07 164.715 128.497 165.017 128.874 165.449C129.259 165.889 129.504 166.356 129.608 166.85C129.721 167.337 129.693 167.811 129.523 168.272C129.369 168.734 129.079 169.15 128.654 169.521L125.053 172.668L123.504 170.896ZM120.256 167.179L128.664 159.832L130.212 161.604L121.804 168.951L120.256 167.179ZM126.047 173.806L131.676 168.889L133.224 170.661L127.595 175.578L126.047 173.806ZM133.231 169.102C132.988 168.824 132.878 168.512 132.901 168.165C132.939 167.818 133.093 167.527 133.364 167.291C133.642 167.048 133.951 166.935 134.291 166.95C134.638 166.974 134.933 167.124 135.176 167.402C135.419 167.68 135.526 167.989 135.495 168.329C135.465 168.668 135.311 168.959 135.033 169.202C134.763 169.438 134.454 169.552 134.106 169.543C133.765 169.527 133.474 169.38 133.231 169.102ZM128.686 176.826L137.094 169.48L138.642 171.252L130.234 178.598L128.686 176.826ZM133.393 182.213L141.569 175.069L142.702 176.366L140.501 183.968L139.924 183.307L147.742 182.134L148.885 183.443L140.709 190.587L139.12 188.768L144.227 184.306L144.43 184.701L139.332 185.458L138.28 184.254L139.724 179.316L140.078 179.558L134.971 184.02L133.393 182.213ZM143.875 194.445C143.423 193.928 143.146 193.353 143.043 192.721C142.947 192.097 143.015 191.473 143.246 190.849C143.483 190.233 143.884 189.679 144.448 189.186C145.011 188.694 145.614 188.371 146.257 188.218C146.906 188.073 147.533 188.09 148.139 188.269C148.751 188.455 149.284 188.807 149.736 189.325C150.066 189.703 150.29 190.107 150.406 190.536C150.529 190.973 150.544 191.403 150.45 191.825C150.364 192.241 150.165 192.605 149.853 192.918L147.421 195.043C147.069 195.31 146.677 195.462 146.246 195.498C145.829 195.536 145.413 195.464 144.996 195.283C144.58 195.103 144.206 194.823 143.875 194.445ZM145.787 193.407C146.118 193.786 146.508 193.983 146.957 193.999C147.414 194.008 147.836 193.843 148.222 193.506C148.485 193.277 148.669 193.02 148.775 192.737C148.888 192.461 148.915 192.179 148.854 191.892C148.808 191.605 148.677 191.339 148.461 191.092C148.245 190.845 147.995 190.675 147.711 190.583C147.441 190.492 147.155 190.477 146.853 190.536C146.558 190.604 146.279 190.752 146.016 190.981C145.761 191.204 145.581 191.457 145.475 191.741C145.368 192.024 145.342 192.313 145.394 192.607C145.447 192.901 145.578 193.168 145.787 193.407ZM145.347 195.896L146.864 194.57L148.464 193.642L149.597 192.182L150.976 190.978L152.494 192.715L146.865 197.633L145.347 195.896ZM151.203 202.598L154.411 199.795C154.705 199.539 154.859 199.24 154.875 198.9C154.905 198.56 154.799 198.252 154.556 197.974C154.387 197.781 154.196 197.648 153.983 197.575C153.778 197.496 153.561 197.481 153.332 197.531C153.111 197.575 152.904 197.681 152.711 197.849L152.45 196.873C152.89 196.488 153.357 196.243 153.851 196.139C154.345 196.034 154.826 196.07 155.293 196.247C155.769 196.417 156.195 196.718 156.573 197.15C156.958 197.59 157.202 198.057 157.307 198.551C157.42 199.039 157.391 199.513 157.222 199.973C157.068 200.435 156.778 200.852 156.353 201.223L152.752 204.37L151.203 202.598ZM147.955 198.88L156.363 191.534L157.911 193.306L149.503 200.652L147.955 198.88ZM153.746 205.508L159.374 200.59L160.923 202.362L155.294 207.28L153.746 205.508ZM160.929 200.804C160.687 200.526 160.577 200.213 160.6 199.866C160.638 199.52 160.792 199.229 161.062 198.993C161.34 198.75 161.65 198.636 161.99 198.652C162.337 198.675 162.632 198.826 162.875 199.104C163.118 199.382 163.224 199.69 163.194 200.03C163.164 200.369 163.01 200.661 162.732 200.903C162.462 201.14 162.153 201.253 161.804 201.244C161.464 201.229 161.172 201.082 160.929 200.804ZM159.633 212.245L162.841 209.442C163.134 209.186 163.288 208.887 163.304 208.547C163.334 208.208 163.228 207.899 162.985 207.621C162.816 207.428 162.626 207.295 162.412 207.223C162.207 207.143 161.99 207.129 161.761 207.179C161.541 207.222 161.334 207.328 161.141 207.497L160.879 206.52C161.319 206.135 161.79 205.895 162.29 205.797C162.791 205.7 163.279 205.744 163.753 205.929C164.242 206.114 164.675 206.423 165.053 206.856C165.417 207.272 165.637 207.727 165.713 208.219C165.804 208.712 165.767 209.193 165.605 209.661C165.443 210.13 165.169 210.533 164.783 210.87L161.181 214.017L159.633 212.245ZM156.384 208.528L162.013 203.61L163.561 205.382L157.933 210.3L156.384 208.528ZM164.154 217.654C163.688 217.121 163.401 216.535 163.291 215.895C163.189 215.263 163.253 214.636 163.484 214.012C163.721 213.396 164.122 212.841 164.686 212.349C165.249 211.856 165.852 211.534 166.495 211.381C167.144 211.236 167.775 211.256 168.387 211.443C169.006 211.637 169.549 212.001 170.014 212.533C170.351 212.92 170.582 213.331 170.705 213.768C170.835 214.213 170.856 214.65 170.769 215.08C170.696 215.511 170.504 215.884 170.192 216.197L167.818 218.271C167.466 218.538 167.067 218.689 166.621 218.725C166.183 218.753 165.745 218.68 165.306 218.505C164.875 218.324 164.491 218.04 164.154 217.654ZM166.025 216.57C166.248 216.825 166.494 216.998 166.764 217.088C167.042 217.173 167.328 217.181 167.624 217.114C167.919 217.046 168.198 216.898 168.46 216.669C168.723 216.439 168.903 216.186 169.002 215.909C169.115 215.634 169.145 215.349 169.092 215.054C169.046 214.768 168.915 214.501 168.699 214.254C168.483 214.007 168.233 213.838 167.949 213.746C167.671 213.662 167.381 213.649 167.079 213.709C166.784 213.776 166.509 213.921 166.254 214.144C165.999 214.367 165.819 214.62 165.713 214.903C165.606 215.187 165.58 215.475 165.632 215.77C165.685 216.064 165.816 216.331 166.025 216.57ZM167.103 220.795L165.585 219.058L167.102 217.732L168.702 216.805L169.805 215.31L173.963 211.677L175.511 213.449L167.103 220.795ZM168.193 222.043L173.822 217.125L175.37 218.897L169.741 223.815L168.193 222.043ZM172.834 221.113L172.765 219.866C173.549 219.439 174.275 219.241 174.941 219.271C175.608 219.302 176.211 219.626 176.751 220.243C176.987 220.514 177.15 220.786 177.24 221.061C177.345 221.337 177.38 221.626 177.345 221.929L175.093 222.039C175.11 221.888 175.091 221.734 175.037 221.578C174.982 221.421 174.89 221.27 174.762 221.123C174.506 220.83 174.207 220.675 173.867 220.659C173.541 220.645 173.196 220.796 172.834 221.113ZM174.311 229.279C173.86 228.762 173.582 228.187 173.479 227.555C173.383 226.931 173.451 226.307 173.682 225.683C173.92 225.067 174.32 224.513 174.884 224.021C175.447 223.528 176.05 223.205 176.693 223.053C177.342 222.907 177.97 222.924 178.575 223.103C179.187 223.29 179.72 223.642 180.172 224.159C180.502 224.537 180.726 224.941 180.842 225.37C180.965 225.807 180.98 226.237 180.886 226.659C180.8 227.075 180.601 227.439 180.289 227.753L177.857 229.878C177.505 230.145 177.113 230.296 176.682 230.333C176.265 230.37 175.849 230.298 175.432 230.118C175.016 229.937 174.642 229.657 174.311 229.279ZM176.223 228.242C176.554 228.62 176.944 228.817 177.393 228.833C177.851 228.842 178.272 228.678 178.658 228.34C178.921 228.111 179.105 227.855 179.211 227.571C179.324 227.295 179.351 227.014 179.29 226.726C179.244 226.44 179.113 226.173 178.897 225.926C178.681 225.679 178.431 225.509 178.147 225.418C177.877 225.327 177.591 225.311 177.289 225.371C176.994 225.438 176.715 225.586 176.452 225.816C176.197 226.038 176.017 226.291 175.911 226.575C175.804 226.858 175.778 227.147 175.83 227.441C175.883 227.736 176.014 228.002 176.223 228.242ZM175.783 230.73L177.3 229.404L178.9 228.477L180.034 227.016L181.412 225.812L182.93 227.549L177.301 232.467L175.783 230.73ZM91.5262 163.431C90.9393 162.759 90.5414 162.086 90.3326 161.41C90.1382 160.736 90.0896 160.003 90.1866 159.21L92.3884 159.369C92.3167 159.895 92.3342 160.39 92.4409 160.855C92.5621 161.321 92.8082 161.766 93.1792 162.191C93.5165 162.577 93.8457 162.813 94.1669 162.9C94.4947 162.995 94.7822 162.935 95.0293 162.719C95.2532 162.523 95.3739 162.295 95.3914 162.035C95.409 161.774 95.3668 161.484 95.2647 161.165C95.1695 160.854 95.0467 160.518 94.8965 160.159C94.7531 159.808 94.6212 159.447 94.5009 159.075C94.3883 158.697 94.3196 158.315 94.2948 157.928C94.2845 157.542 94.3537 157.162 94.5025 156.787C94.6591 156.405 94.9458 156.032 95.3627 155.668C95.8646 155.229 96.4015 154.971 96.9735 154.893C97.5523 154.823 98.1232 154.923 98.6862 155.194C99.257 155.458 99.7887 155.871 100.281 156.435C100.78 157.006 101.135 157.615 101.346 158.262C101.564 158.916 101.634 159.549 101.556 160.161L99.3541 160.002C99.393 159.532 99.3629 159.116 99.2639 158.753C99.1715 158.398 98.9871 158.063 98.7105 157.746C98.4339 157.429 98.1529 157.233 97.8674 157.155C97.5897 157.071 97.3389 157.127 97.115 157.322C96.9065 157.505 96.7974 157.722 96.7876 157.976C96.7855 158.223 96.8359 158.499 96.9389 158.804C97.0486 159.116 97.1752 159.448 97.3187 159.799C97.4689 160.158 97.6003 160.527 97.7128 160.905C97.8254 161.283 97.883 161.669 97.8856 162.061C97.9027 162.455 97.8253 162.849 97.6533 163.244C97.4891 163.633 97.1946 164.013 96.77 164.384C95.9902 165.065 95.1335 165.324 94.2 165.159C93.2742 164.987 92.3829 164.412 91.5262 163.431ZM97.5376 170.311C97.0047 169.701 96.6526 169.049 96.4815 168.354C96.3247 167.661 96.3522 166.983 96.5639 166.322C96.7756 165.66 97.1633 165.083 97.7269 164.591C98.2905 164.098 98.9071 163.791 99.5765 163.669C100.26 163.548 100.929 163.604 101.582 163.837C102.234 164.07 102.81 164.472 103.31 165.043C103.795 165.599 104.104 166.194 104.236 166.828C104.367 167.462 104.325 168.084 104.11 168.694C103.901 169.312 103.523 169.861 102.975 170.34C102.874 170.427 102.759 170.514 102.63 170.6C102.515 170.687 102.371 170.779 102.197 170.876L97.9458 166.033L99.1618 164.971L102.756 169.061L101.578 168.741C101.896 168.45 102.118 168.167 102.246 167.893C102.381 167.611 102.422 167.33 102.368 167.051C102.328 166.772 102.194 166.501 101.965 166.239C101.722 165.961 101.444 165.775 101.13 165.681C100.831 165.588 100.516 165.585 100.183 165.672C99.8567 165.766 99.5276 165.958 99.1956 166.248C98.8636 166.538 98.6286 166.846 98.4904 167.171C98.3667 167.497 98.3337 167.825 98.3913 168.156C98.4634 168.488 98.631 168.804 98.8941 169.106C99.137 169.383 99.4025 169.594 99.6908 169.737C99.9868 169.873 100.306 169.942 100.647 169.943L100.524 171.766C99.957 171.771 99.4204 171.648 98.9142 171.396C98.408 171.144 97.9491 170.782 97.5376 170.311ZM104.028 177.483L107.236 174.68C107.53 174.423 107.684 174.125 107.7 173.785C107.73 173.445 107.624 173.136 107.381 172.858C107.212 172.665 107.021 172.533 106.808 172.46C106.603 172.381 106.386 172.366 106.157 172.416C105.936 172.46 105.729 172.565 105.536 172.734L105.275 171.757C105.715 171.373 106.182 171.128 106.676 171.023C107.17 170.919 107.651 170.955 108.119 171.132C108.594 171.302 109.021 171.603 109.398 172.035C109.783 172.475 110.027 172.942 110.132 173.436C110.245 173.923 110.216 174.397 110.047 174.858C109.893 175.32 109.603 175.737 109.178 176.108L105.577 179.255L104.028 177.483ZM100.78 173.765L109.188 166.419L110.736 168.191L102.328 175.537L100.78 173.765ZM106.131 184.984C105.591 184.367 105.224 183.728 105.028 183.068C104.832 182.423 104.809 181.796 104.959 181.189L106.999 181.326C106.935 181.736 106.949 182.119 107.041 182.474C107.14 182.836 107.345 183.195 107.655 183.55C108.04 183.99 108.448 184.24 108.88 184.298C109.319 184.364 109.735 184.225 110.129 183.881L111.565 182.626L113.056 181.854L114.051 180.515L115.498 179.25L117.016 180.988L111.723 185.612C111.144 186.118 110.524 186.421 109.864 186.522C109.203 186.623 108.547 186.542 107.896 186.281C107.245 186.019 106.657 185.587 106.131 184.984ZM108.758 182.546C108.306 182.028 108.029 181.461 107.925 180.844C107.821 180.226 107.88 179.616 108.103 179.014C108.325 178.411 108.695 177.884 109.212 177.432C109.737 176.973 110.309 176.677 110.928 176.545C111.555 176.405 112.164 176.432 112.754 176.624C113.352 176.81 113.877 177.161 114.329 177.678C114.666 178.064 114.893 178.472 115.009 178.901C115.14 179.332 115.155 179.754 115.055 180.169C114.969 180.584 114.766 180.952 114.446 181.272L112.304 183.144C111.952 183.411 111.56 183.563 111.129 183.599C110.712 183.636 110.296 183.565 109.879 183.384C109.462 183.203 109.089 182.924 108.758 182.546ZM110.627 181.505C110.843 181.752 111.082 181.917 111.346 182.001C111.616 182.091 111.88 182.106 112.138 182.043C112.411 181.982 112.664 181.85 112.895 181.647C113.127 181.445 113.292 181.213 113.389 180.95C113.493 180.696 113.519 180.429 113.465 180.149C113.418 179.877 113.286 179.617 113.071 179.37C112.861 179.131 112.622 178.966 112.352 178.875C112.082 178.784 111.81 178.769 111.537 178.831C111.264 178.892 111.012 179.024 110.78 179.227C110.564 179.416 110.403 179.645 110.298 179.914C110.201 180.176 110.175 180.443 110.222 180.715C110.276 180.995 110.411 181.258 110.627 181.505ZM114.419 189.608C113.967 189.091 113.689 188.516 113.587 187.885C113.491 187.26 113.558 186.636 113.789 186.013C114.027 185.396 114.427 184.842 114.991 184.35C115.555 183.857 116.158 183.535 116.8 183.382C117.449 183.236 118.077 183.253 118.682 183.432C119.295 183.619 119.827 183.971 120.279 184.488C120.609 184.866 120.833 185.27 120.949 185.699C121.072 186.136 121.087 186.566 120.993 186.988C120.907 187.404 120.708 187.769 120.396 188.082L117.964 190.207C117.612 190.474 117.22 190.625 116.789 190.662C116.372 190.699 115.956 190.627 115.539 190.447C115.123 190.266 114.749 189.987 114.419 189.608ZM116.331 188.571C116.661 188.949 117.051 189.146 117.501 189.162C117.958 189.171 118.379 189.007 118.765 188.669C119.028 188.44 119.212 188.184 119.319 187.9C119.432 187.624 119.458 187.343 119.397 187.055C119.351 186.769 119.22 186.502 119.004 186.255C118.788 186.008 118.538 185.838 118.254 185.747C117.984 185.656 117.698 185.64 117.396 185.7C117.101 185.767 116.822 185.915 116.559 186.145C116.305 186.367 116.124 186.62 116.018 186.904C115.911 187.187 115.885 187.476 115.938 187.77C115.99 188.065 116.121 188.331 116.331 188.571ZM115.89 191.059L117.408 189.733L119.007 188.806L120.141 187.345L121.519 186.141L123.037 187.878L117.408 192.796L115.89 191.059ZM118.498 194.044L126.906 186.697L128.455 188.469L120.047 195.816L118.498 194.044Z" fill="#CD0F63"/>
<g clip-path="url(#clip1_69_638)">
<path fill-rule="evenodd" clip-rule="evenodd" d="M174.937 74.9308C190.827 76.0015 202.84 89.7506 201.769 105.64C201.716 106.435 201.028 107.035 200.234 106.982L198.795 106.885C198.414 106.859 198.058 106.683 197.806 106.395C197.555 106.107 197.428 105.731 197.454 105.35C198.364 91.8433 188.153 80.1566 174.646 79.2465C174.265 79.2207 173.909 79.0445 173.658 78.7565C173.406 78.4686 173.279 78.0924 173.305 77.7109L173.402 76.2723C173.455 75.4779 174.143 74.8772 174.937 74.9308ZM174.356 83.5621C185.478 84.3116 193.888 93.936 193.138 105.059C193.084 105.853 192.397 106.454 191.603 106.4L190.164 106.303C189.783 106.278 189.427 106.102 189.175 105.814C188.924 105.526 188.797 105.149 188.822 104.768C189.411 96.0286 182.804 88.4666 174.065 87.8777C173.27 87.8242 172.67 87.1368 172.723 86.3423L172.82 84.9037C172.846 84.5222 173.022 84.1665 173.31 83.9149C173.598 83.6633 173.974 83.5364 174.356 83.5621ZM173.802 92.2252C180.158 92.6535 184.963 98.1531 184.535 104.509C184.481 105.303 183.794 105.904 182.999 105.851L181.561 105.754C181.179 105.728 180.824 105.552 180.572 105.264C180.32 104.976 180.193 104.6 180.219 104.218C180.487 100.246 177.484 96.8085 173.511 96.5408C172.717 96.4873 172.116 95.7998 172.17 95.0054L172.266 93.5668C172.32 92.7723 173.007 92.1717 173.802 92.2252Z" fill="#CD0F63"/>
</g>
<path fill-rule="evenodd" clip-rule="evenodd" d="M335.605 222.645C337.767 214.99 336.891 206.709 332.427 198.742C332.146 198.242 331.855 197.748 331.552 197.26C344.636 203.824 356.737 214.925 364.493 228.765C379.334 255.25 372.639 281.732 349.539 287.915C333.933 292.092 314.831 285.936 299.504 273.335C321.305 259.959 334.392 241.586 335.605 222.645Z" fill="url(#paint1_linear_69_638)"/>
<g filter="url(#filter1_d_69_638)">
<path fill-rule="evenodd" clip-rule="evenodd" d="M213.11 352.576C238.243 350.644 265.945 339.16 290.003 318.69C330.038 284.627 347.125 236.618 334.111 202.506C332.348 227.954 306.954 258.82 267.224 280.04C231.657 299.036 193.784 305.396 167.484 298.953L213.11 352.576Z" fill="url(#paint2_linear_69_638)"/>
</g>
<path d="M230.734 190.963C222.348 181.366 207.687 180.455 197.989 188.929C193.548 192.809 190.916 197.988 190.179 203.381C190.168 203.433 190.161 203.486 190.156 203.541L190.093 204.05L187.121 229.069L206.133 229.379L206.522 224.023C203.662 222.982 201.023 221.231 198.888 218.788C192.072 210.987 192.94 199.039 200.823 192.152C208.705 185.264 220.662 186.007 227.478 193.808C234.294 201.609 233.426 213.556 225.543 220.444C223.253 222.445 220.618 223.803 217.867 224.529L217.54 229.03C221.416 228.253 225.156 226.478 228.356 223.683C238.054 215.21 239.12 200.561 230.734 190.963Z" fill="#CD0F63" fill-opacity="0.1"/>
<path d="M214.432 220.682C217.37 220.403 220.255 219.23 222.651 217.137C228.689 211.861 229.354 202.707 224.133 196.731C218.912 190.755 209.751 190.186 203.713 195.462C197.674 200.738 197.009 209.892 202.23 215.868C204.455 218.414 207.397 219.979 210.506 220.528L209.909 229.439L213.792 229.498L214.432 220.682ZM206.03 198.115C210.593 194.128 217.51 194.559 221.454 199.073C225.398 203.587 224.897 210.499 220.334 214.485C215.771 218.472 208.855 218.041 204.911 213.527C200.967 209.013 201.469 202.1 206.03 198.115Z" fill="#CD0F63" fill-opacity="0.1"/>
</g>
</g>
<g filter="url(#filter2_dddd_69_638)">
<g clip-path="url(#clip2_69_638)">
<rect x="423.161" y="6" width="295.089" height="180.706" rx="19.224" transform="rotate(74.4166 423.161 6)" fill="url(#paint3_linear_69_638)"/>
<path d="M312.194 71.8829L313.912 71.4036L314.528 73.6109C314.657 74.075 314.875 74.3975 315.181 74.5783C315.489 74.769 315.846 74.8079 316.251 74.6949C316.626 74.5903 316.903 74.3801 317.081 74.0643C317.259 73.7486 317.283 73.3586 317.154 72.8944L316.534 70.6723L318.341 70.1683L319.035 72.657C319.228 73.3483 319.264 73.9929 319.144 74.5907C319.033 75.1857 318.787 75.6961 318.405 76.1218C318.024 76.5476 317.532 76.8444 316.929 77.0125C316.317 77.1832 315.737 77.1852 315.191 77.0184C314.654 76.8488 314.182 76.5332 313.777 76.0715C313.371 75.6098 313.068 75.0185 312.867 74.2975L312.194 71.8829ZM307.387 71.3075L317.846 68.3906L318.494 70.7164L308.036 73.6332L307.387 71.3075ZM308.974 76.996L312.568 72.481L313.741 74.453L309.742 79.7514L308.974 76.996ZM310.709 83.8499C310.525 83.1882 310.494 82.5634 310.618 81.9755C310.754 81.3947 311.019 80.895 311.413 80.4764C311.817 80.055 312.33 79.7576 312.952 79.5841L317.13 78.419L317.762 80.6855L313.614 81.8423C313.367 81.9112 313.166 82.0099 313.01 82.1385C312.857 82.277 312.755 82.4439 312.703 82.6394C312.651 82.8348 312.658 83.051 312.724 83.288C312.818 83.6238 312.996 83.8615 313.258 84.0012C313.531 84.1381 313.854 84.1543 314.23 84.0496L318.378 82.8928L319.01 85.1593L314.847 86.3203C314.215 86.4965 313.617 86.509 313.053 86.3575C312.499 86.2033 312.014 85.913 311.597 85.4864C311.19 85.0571 310.894 84.5116 310.709 83.8499ZM312.761 91.2619C312.642 90.8372 312.579 90.4024 312.572 89.9573C312.568 89.5221 312.615 89.0992 312.713 88.6885C312.824 88.285 312.979 87.9227 313.177 87.6014L314.84 88.5266C314.649 88.8353 314.525 89.1732 314.468 89.5404C314.42 89.9049 314.45 90.2797 314.558 90.6649C314.632 90.9315 314.728 91.1229 314.846 91.2392C314.966 91.3653 315.095 91.4091 315.234 91.3705C315.411 91.3209 315.52 91.1948 315.559 90.9923C315.611 90.7969 315.635 90.5562 315.629 90.2702C315.634 89.9816 315.639 89.6767 315.646 89.3556C315.652 89.0346 315.697 88.7187 315.781 88.4079C315.864 88.0972 316.021 87.8194 316.251 87.5743C316.49 87.3266 316.827 87.1421 317.262 87.0209C317.726 86.8915 318.159 86.8984 318.561 87.0418C318.973 87.1824 319.338 87.4425 319.657 87.8219C319.975 88.2014 320.216 88.6824 320.378 89.2651C320.549 89.8774 320.597 90.4706 320.523 91.0448C320.462 91.626 320.269 92.1375 319.945 92.5791L318.282 91.6538C318.486 91.3523 318.602 91.0432 318.63 90.7265C318.662 90.4197 318.641 90.1329 318.566 89.8663C318.495 89.6095 318.401 89.428 318.287 89.3216C318.182 89.2125 318.06 89.1772 317.922 89.2158C317.774 89.2571 317.679 89.3741 317.636 89.5668C317.594 89.7595 317.576 89.9988 317.581 90.2847C317.586 90.5706 317.581 90.8755 317.565 91.1993C317.549 91.5231 317.494 91.8418 317.4 92.1553C317.307 92.4687 317.14 92.7494 316.901 92.9971C316.671 93.2421 316.329 93.428 315.875 93.5547C315.174 93.7502 314.541 93.6392 313.978 93.2216C313.417 92.8138 313.011 92.1606 312.761 91.2619ZM315.426 100.13L319.529 98.986C319.904 98.8813 320.172 98.6788 320.333 98.3784C320.507 98.0852 320.544 97.7608 320.445 97.4053C320.376 97.1584 320.261 96.9562 320.1 96.7989C319.949 96.6388 319.76 96.532 319.532 96.4784C319.314 96.4221 319.082 96.4284 318.835 96.4973L319.021 95.5034C319.584 95.3464 320.11 95.3272 320.601 95.4458C321.092 95.5644 321.51 95.8043 321.856 96.1657C322.211 96.5242 322.466 96.98 322.62 97.5331C322.777 98.096 322.797 98.6229 322.678 99.1136C322.569 99.6016 322.339 100.017 321.988 100.36C321.649 100.71 321.208 100.961 320.665 101.112L316.058 102.397L315.426 100.13ZM314.099 95.3752L324.854 92.3757L325.486 94.6422L314.731 97.6417L314.099 95.3752ZM316.464 103.853L323.663 101.845L324.295 104.111L317.096 106.119L316.464 103.853ZM324.974 102.709C324.875 102.353 324.911 102.024 325.081 101.721C325.265 101.425 325.53 101.228 325.875 101.132C326.231 101.033 326.559 101.064 326.859 101.225C327.162 101.396 327.363 101.659 327.463 102.015C327.562 102.37 327.524 102.694 327.351 102.988C327.177 103.281 326.912 103.477 326.557 103.576C326.211 103.673 325.883 103.642 325.573 103.483C325.273 103.322 325.073 103.064 324.974 102.709ZM317.541 107.715L328.296 104.716L328.928 106.982L318.173 109.982L317.541 107.715ZM319.463 114.606L329.921 111.689L330.384 113.349L325.118 119.256L324.883 118.411L332.442 120.726L332.908 122.4L322.45 125.317L321.801 122.991L328.334 121.169L328.346 121.613L323.421 120.096L322.991 118.556L326.425 114.724L326.64 115.095L320.107 116.917L319.463 114.606ZM323.642 130.164C323.457 129.502 323.455 128.864 323.635 128.25C323.818 127.645 324.148 127.111 324.625 126.648C325.106 126.195 325.706 125.868 326.427 125.667C327.148 125.466 327.831 125.435 328.477 125.574C329.125 125.723 329.684 126.009 330.153 126.432C330.625 126.864 330.953 127.411 331.138 128.073C331.273 128.557 331.3 129.018 331.22 129.455C331.142 129.903 330.97 130.297 330.703 130.637C330.446 130.975 330.109 131.218 329.693 131.366L326.582 132.233C326.149 132.322 325.73 132.29 325.326 132.137C324.934 131.991 324.589 131.746 324.291 131.404C323.993 131.061 323.777 130.648 323.642 130.164ZM325.814 130.053C325.949 130.537 326.216 130.883 326.615 131.091C327.023 131.296 327.474 131.33 327.968 131.192C328.304 131.099 328.581 130.947 328.799 130.737C329.02 130.537 329.165 130.294 329.235 130.009C329.317 129.73 329.314 129.433 329.226 129.117C329.137 128.801 328.985 128.54 328.768 128.335C328.564 128.136 328.312 127.999 328.014 127.922C327.719 127.856 327.403 127.869 327.068 127.963C326.742 128.054 326.47 128.204 326.251 128.414C326.033 128.624 325.884 128.873 325.805 129.161C325.726 129.449 325.729 129.747 325.814 130.053ZM324.344 132.107L326.284 131.566L328.127 131.419L329.78 130.591L331.543 130.099L332.163 132.322L324.963 134.329L324.344 132.107ZM326.735 140.681L330.838 139.536C331.213 139.431 331.482 139.229 331.643 138.929C331.816 138.635 331.853 138.311 331.754 137.955C331.685 137.708 331.571 137.506 331.41 137.349C331.259 137.189 331.069 137.082 330.841 137.029C330.623 136.972 330.391 136.979 330.144 137.047L330.33 136.054C330.893 135.897 331.42 135.877 331.91 135.996C332.401 136.115 332.819 136.354 333.165 136.716C333.52 137.074 333.775 137.53 333.929 138.083C334.086 138.646 334.106 139.173 333.987 139.664C333.878 140.152 333.648 140.567 333.297 140.91C332.958 141.26 332.517 141.511 331.974 141.662L327.367 142.947L326.735 140.681ZM325.408 135.925L336.163 132.926L336.795 135.192L326.041 138.192L325.408 135.925ZM327.773 144.403L334.972 142.395L335.604 144.661L328.405 146.669L327.773 144.403ZM336.283 143.259C336.184 142.903 336.22 142.574 336.391 142.271C336.574 141.975 336.839 141.779 337.184 141.682C337.54 141.583 337.868 141.614 338.168 141.775C338.471 141.946 338.672 142.209 338.772 142.565C338.871 142.92 338.834 143.245 338.66 143.538C338.486 143.831 338.222 144.027 337.866 144.126C337.52 144.223 337.192 144.192 336.882 144.034C336.582 143.873 336.382 143.614 336.283 143.259ZM330.176 153.021L334.28 151.876C334.655 151.772 334.923 151.569 335.084 151.269C335.258 150.975 335.295 150.651 335.196 150.295C335.127 150.049 335.012 149.846 334.851 149.689C334.7 149.529 334.511 149.422 334.283 149.369C334.065 149.312 333.832 149.319 333.586 149.387L333.771 148.394C334.334 148.237 334.863 148.222 335.356 148.351C335.85 148.479 336.271 148.729 336.619 149.1C336.98 149.479 337.237 149.944 337.392 150.497C337.54 151.031 337.543 151.536 337.399 152.012C337.268 152.496 337.028 152.914 336.679 153.267C336.33 153.619 335.909 153.865 335.415 154.002L330.808 155.287L330.176 153.021ZM328.85 148.265L336.05 146.257L336.682 148.524L329.482 150.532L328.85 148.265ZM331.921 159.851C331.731 159.169 331.725 158.516 331.902 157.892C332.082 157.278 332.411 156.739 332.888 156.276C333.369 155.823 333.969 155.496 334.69 155.294C335.411 155.093 336.094 155.062 336.74 155.202C337.388 155.351 337.948 155.642 338.42 156.074C338.895 156.517 339.227 157.079 339.417 157.76C339.555 158.254 339.585 158.724 339.508 159.172C339.433 159.629 339.263 160.033 338.999 160.383C338.748 160.741 338.414 160.994 337.997 161.142L334.96 161.989C334.528 162.077 334.102 162.042 333.685 161.881C333.278 161.718 332.914 161.463 332.594 161.116C332.283 160.766 332.059 160.344 331.921 159.851ZM334.077 159.68C334.168 160.006 334.316 160.269 334.52 160.467C334.734 160.663 334.989 160.794 335.284 160.861C335.58 160.927 335.895 160.914 336.231 160.82C336.567 160.726 336.839 160.576 337.047 160.369C337.268 160.169 337.418 159.925 337.498 159.637C337.58 159.358 337.577 159.061 337.489 158.745C337.4 158.429 337.248 158.168 337.031 157.963C336.817 157.767 336.56 157.631 336.262 157.554C335.967 157.488 335.656 157.5 335.33 157.591C335.005 157.681 334.733 157.832 334.514 158.042C334.296 158.252 334.147 158.501 334.068 158.789C333.989 159.077 333.992 159.374 334.077 159.68ZM333.226 163.957L332.607 161.735L334.547 161.194L336.39 161.047L338.031 160.174L343.349 158.691L343.981 160.958L333.226 163.957ZM333.671 165.553L340.871 163.545L341.503 165.812L334.303 167.82L333.671 165.553ZM338.259 166.716L338.735 165.562C339.627 165.515 340.367 165.65 340.955 165.965C341.543 166.279 341.947 166.832 342.168 167.622C342.264 167.968 342.294 168.284 342.257 168.571C342.232 168.865 342.139 169.142 341.977 169.4L339.897 168.527C339.978 168.398 340.028 168.251 340.046 168.086C340.064 167.921 340.047 167.745 339.994 167.558C339.89 167.182 339.687 166.914 339.387 166.753C339.099 166.599 338.723 166.587 338.259 166.716ZM336.069 174.721C335.884 174.059 335.882 173.421 336.062 172.807C336.244 172.203 336.574 171.669 337.052 171.206C337.532 170.752 338.133 170.425 338.854 170.224C339.575 170.023 340.258 169.992 340.904 170.131C341.552 170.281 342.111 170.566 342.58 170.989C343.052 171.422 343.38 171.969 343.564 172.63C343.699 173.114 343.727 173.575 343.647 174.013C343.569 174.46 343.397 174.854 343.13 175.194C342.873 175.532 342.536 175.775 342.12 175.923L339.009 176.791C338.576 176.88 338.157 176.847 337.752 176.694C337.36 176.548 337.016 176.304 336.718 175.961C336.42 175.618 336.204 175.205 336.069 174.721ZM338.241 174.61C338.376 175.094 338.643 175.44 339.041 175.648C339.45 175.854 339.901 175.887 340.395 175.75C340.731 175.656 341.008 175.504 341.226 175.294C341.447 175.094 341.592 174.852 341.661 174.566C341.743 174.288 341.74 173.991 341.652 173.675C341.564 173.359 341.412 173.098 341.195 172.892C340.99 172.694 340.739 172.556 340.441 172.48C340.146 172.413 339.83 172.427 339.494 172.52C339.168 172.611 338.896 172.761 338.678 172.971C338.46 173.181 338.311 173.43 338.232 173.719C338.153 174.007 338.156 174.304 338.241 174.61ZM336.77 176.665L338.711 176.123L340.554 175.977L342.207 175.148L343.97 174.657L344.59 176.879L337.39 178.887L336.77 176.665ZM289.798 79.5976C289.559 78.7384 289.49 77.9591 289.593 77.2598C289.709 76.5677 289.982 75.8849 290.411 75.2116L292.329 76.3054C292.037 76.7486 291.839 77.2029 291.735 77.6684C291.643 78.1411 291.673 78.649 291.825 79.1921C291.962 79.6859 292.157 80.0414 292.41 80.2584C292.664 80.4854 292.95 80.5548 293.266 80.4666C293.552 80.3868 293.76 80.2332 293.888 80.0058C294.016 79.7785 294.103 79.4988 294.149 79.1667C294.197 78.8445 294.231 78.4891 294.25 78.1005C294.273 77.7218 294.31 77.3389 294.361 76.952C294.423 76.5622 294.526 76.1876 294.67 75.8279C294.828 75.4754 295.054 75.1621 295.35 74.8879C295.656 74.611 296.076 74.3982 296.609 74.2494C297.251 74.0704 297.847 74.0692 298.396 74.2459C298.949 74.4325 299.421 74.7693 299.812 75.2562C300.213 75.7404 300.514 76.343 300.715 77.0639C300.919 77.7948 300.976 78.4972 300.888 79.1712C300.802 79.8552 300.592 80.4566 300.257 80.9756L298.34 79.8818C298.577 79.4749 298.73 79.0865 298.797 78.7165C298.867 78.3564 298.845 77.9739 298.732 77.569C298.62 77.1641 298.451 76.8651 298.227 76.6722C298.013 76.4765 297.762 76.4186 297.476 76.4984C297.209 76.5728 297.017 76.7223 296.898 76.9469C296.79 77.1687 296.716 77.4394 296.678 77.7588C296.642 78.0881 296.613 78.4422 296.591 78.8209C296.572 79.2094 296.531 79.5986 296.469 79.9883C296.408 80.3781 296.293 80.7506 296.126 81.1058C295.972 81.4682 295.732 81.7906 295.406 82.073C295.09 82.3527 294.661 82.5683 294.118 82.7198C293.12 82.998 292.236 82.8614 291.465 82.3101C290.704 81.756 290.148 80.8519 289.798 79.5976ZM292.253 88.3982C292.035 87.618 291.999 86.8777 292.144 86.1772C292.302 85.4839 292.619 84.8846 293.096 84.3792C293.572 83.8737 294.171 83.5205 294.892 83.3194C295.613 83.1184 296.301 83.1072 296.958 83.286C297.627 83.4719 298.206 83.8108 298.694 84.3026C299.183 84.7944 299.529 85.4057 299.733 86.1365C299.931 86.8475 299.953 87.5174 299.798 88.1459C299.644 88.7745 299.337 89.3176 298.88 89.7752C298.425 90.2427 297.846 90.5743 297.145 90.7698C297.017 90.8056 296.876 90.8343 296.722 90.8559C296.581 90.8846 296.411 90.9053 296.213 90.9181L294.467 84.7153L296.022 84.2815L297.5 89.5214L296.575 88.7255C296.987 88.5999 297.31 88.4407 297.544 88.2479C297.787 88.0522 297.945 87.8166 298.017 87.541C298.102 87.2726 298.097 86.9704 298.004 86.6347C297.905 86.2791 297.734 85.9915 297.492 85.7716C297.262 85.5589 296.978 85.4198 296.641 85.3543C296.306 85.2987 295.926 85.3301 295.501 85.4485C295.077 85.5669 294.732 85.7429 294.467 85.9764C294.215 86.2171 294.044 86.4991 293.953 86.8224C293.875 87.1529 293.889 87.5107 293.997 87.8959C294.096 88.2514 294.245 88.5559 294.443 88.8092C294.651 89.0598 294.909 89.2593 295.217 89.4077L294.319 90.9991C293.805 90.7593 293.374 90.4164 293.027 89.9706C292.679 89.5248 292.421 89.0006 292.253 88.3982ZM295.014 97.6685L299.117 96.5241C299.493 96.4194 299.761 96.2169 299.922 95.9165C300.095 95.6233 300.133 95.2989 300.034 94.9434C299.965 94.6965 299.85 94.4943 299.689 94.337C299.538 94.1769 299.348 94.0701 299.12 94.0165C298.903 93.9602 298.67 93.9665 298.423 94.0353L298.609 93.0415C299.172 92.8845 299.699 92.8653 300.19 92.9839C300.68 93.1025 301.099 93.3424 301.444 93.7038C301.8 94.0623 302.054 94.5181 302.209 95.0712C302.366 95.6341 302.385 96.161 302.266 96.6517C302.158 97.1397 301.927 97.5552 301.576 97.898C301.237 98.2479 300.796 98.4986 300.253 98.6501L295.646 99.935L295.014 97.6685ZM293.688 92.9132L304.443 89.9138L305.075 92.1803L294.32 95.1798L293.688 92.9132ZM293.674 105.343C293.453 104.553 293.397 103.818 293.506 103.139C293.607 102.472 293.857 101.897 294.254 101.413L296.035 102.417C295.8 102.759 295.648 103.111 295.578 103.471C295.511 103.841 295.541 104.253 295.668 104.707C295.825 105.27 296.085 105.671 296.45 105.91C296.818 106.159 297.253 106.213 297.757 106.072L299.594 105.56L301.271 105.507L302.747 104.729L304.598 104.212L305.218 106.434L298.448 108.322C297.707 108.529 297.017 108.535 296.378 108.341C295.738 108.147 295.181 107.791 294.707 107.274C294.233 106.757 293.888 106.113 293.674 105.343ZM297.096 104.277C296.912 103.615 296.906 102.983 297.079 102.382C297.251 101.78 297.568 101.255 298.029 100.807C298.489 100.36 299.05 100.044 299.712 99.859C300.384 99.6717 301.027 99.6518 301.643 99.7994C302.269 99.9442 302.807 100.231 303.256 100.659C303.715 101.084 304.037 101.628 304.222 102.289C304.359 102.783 304.388 103.249 304.308 103.686C304.24 104.131 304.072 104.519 303.802 104.849C303.545 105.187 303.203 105.431 302.777 105.582L300.037 106.347C299.604 106.435 299.185 106.403 298.78 106.25C298.388 106.104 298.043 105.859 297.745 105.517C297.448 105.174 297.231 104.761 297.096 104.277ZM299.231 104.144C299.319 104.46 299.464 104.713 299.665 104.901C299.87 105.1 300.102 105.227 300.362 105.282C300.635 105.344 300.92 105.334 301.216 105.251C301.512 105.169 301.761 105.03 301.962 104.836C302.166 104.651 302.304 104.421 302.376 104.145C302.451 103.88 302.445 103.589 302.357 103.273C302.271 102.967 302.126 102.714 301.922 102.516C301.718 102.317 301.479 102.187 301.206 102.125C300.933 102.062 300.649 102.073 300.352 102.155C300.076 102.232 299.832 102.369 299.621 102.567C299.42 102.761 299.282 102.991 299.207 103.257C299.135 103.533 299.143 103.828 299.231 104.144ZM299.155 113.09C298.971 112.429 298.968 111.791 299.148 111.176C299.331 110.572 299.661 110.038 300.139 109.575C300.619 109.122 301.22 108.794 301.94 108.593C302.661 108.392 303.345 108.361 303.99 108.501C304.639 108.65 305.197 108.936 305.666 109.358C306.138 109.791 306.466 110.338 306.651 111C306.786 111.484 306.813 111.944 306.733 112.382C306.656 112.829 306.483 113.223 306.217 113.564C305.959 113.902 305.623 114.145 305.206 114.293L302.095 115.16C301.663 115.249 301.244 115.217 300.839 115.064C300.447 114.917 300.102 114.673 299.804 114.33C299.507 113.988 299.29 113.574 299.155 113.09ZM301.328 112.979C301.463 113.463 301.729 113.809 302.128 114.018C302.537 114.223 302.988 114.257 303.482 114.119C303.817 114.025 304.094 113.874 304.313 113.664C304.533 113.464 304.679 113.221 304.748 112.936C304.83 112.657 304.827 112.36 304.739 112.044C304.651 111.728 304.498 111.467 304.281 111.262C304.077 111.063 303.826 110.926 303.528 110.849C303.232 110.782 302.917 110.796 302.581 110.89C302.255 110.98 301.983 111.131 301.765 111.341C301.546 111.551 301.398 111.8 301.318 112.088C301.239 112.376 301.242 112.673 301.328 112.979ZM299.857 115.034L301.798 114.493L303.641 114.346L305.294 113.518L307.056 113.026L307.676 115.248L300.477 117.256L299.857 115.034ZM300.922 118.852L311.677 115.853L312.309 118.119L301.554 121.119L300.922 118.852Z" fill="#CD0F63"/>
<g clip-path="url(#clip3_69_638)">
<path fill-rule="evenodd" clip-rule="evenodd" d="M403.232 35.7499C417.104 43.5719 422.009 61.1587 414.187 75.0311C413.796 75.7247 412.917 75.97 412.223 75.5789L410.967 74.8708C410.634 74.683 410.389 74.3705 410.286 74.0022C410.184 73.6339 410.232 73.2398 410.419 72.9067C417.068 61.1151 412.899 46.1664 401.107 39.5177C400.774 39.3298 400.529 39.0174 400.427 38.649C400.324 38.2807 400.372 37.8866 400.56 37.5535L401.268 36.2976C401.659 35.604 402.538 35.3588 403.232 35.7499ZM398.983 43.2854C408.694 48.7608 412.127 61.0716 406.652 70.7823C406.261 71.4759 405.381 71.7211 404.688 71.33L403.432 70.6219C403.099 70.4341 402.854 70.1217 402.751 69.7533C402.648 69.385 402.696 68.9909 402.884 68.6578C407.186 61.028 404.488 51.3553 396.858 47.0532C396.165 46.6621 395.92 45.7827 396.311 45.0891L397.019 43.8332C397.207 43.5001 397.519 43.2552 397.887 43.1525C398.256 43.0498 398.65 43.0976 398.983 43.2854ZM394.746 50.8617C400.295 53.9905 402.256 61.0253 399.128 66.5742C398.737 67.2678 397.857 67.5131 397.164 67.122L395.908 66.4138C395.575 66.226 395.33 65.9136 395.227 65.5453C395.124 65.1769 395.172 64.7829 395.36 64.4498C397.315 60.9817 396.089 56.585 392.621 54.6295C391.927 54.2384 391.682 53.359 392.073 52.6654L392.781 51.4095C393.173 50.7159 394.052 50.4706 394.746 50.8617Z" fill="#CD0F63"/>
</g>
<path fill-rule="evenodd" clip-rule="evenodd" d="M484.443 238.325C489.693 232.353 492.474 224.507 491.884 215.396C491.847 214.824 491.797 214.251 491.734 213.679C500.706 225.246 506.834 240.483 507.858 256.316C509.82 286.612 492.353 307.614 468.846 303.224C452.965 300.259 438.39 286.463 430 268.482C455.441 265.821 475.177 254.892 484.443 238.325Z" fill="url(#paint4_linear_69_638)"/>
<g filter="url(#filter3_d_69_638)">
<path fill-rule="evenodd" clip-rule="evenodd" d="M317.869 302.688C341.376 311.79 371.322 313.383 401.858 305.297C452.673 291.842 488.803 255.904 491.78 219.515C479.21 241.712 442.983 258.601 397.986 260.6C357.702 262.391 320.792 251.786 299.847 234.626L317.869 302.688Z" fill="url(#paint5_linear_69_638)"/>
</g>
<path d="M403.502 164.501C400.079 152.224 387.245 145.076 374.84 148.536C369.16 150.12 364.55 153.657 361.558 158.205C361.526 158.246 361.497 158.291 361.469 158.339L361.192 158.77L347.716 180.058L364.734 188.541L367.395 183.878C365.265 181.704 363.639 178.986 362.767 175.861C359.984 165.882 365.923 155.478 376.006 152.666C386.089 149.854 396.554 155.683 399.337 165.662C402.12 175.64 396.182 186.044 386.099 188.856C383.17 189.673 380.207 189.761 377.412 189.229L375.175 193.148C379.007 194.12 383.146 194.133 387.239 192.992C399.644 189.533 406.926 176.777 403.502 164.501Z" fill="#CD0F63" fill-opacity="0.1"/>
<path d="M375.973 184.277C378.743 185.293 381.852 185.48 384.916 184.625C392.641 182.471 397.19 174.5 395.058 166.856C392.927 159.213 384.909 154.747 377.184 156.901C369.46 159.055 364.911 167.026 367.042 174.67C367.951 177.926 369.929 180.608 372.497 182.445L368.114 190.226L371.591 191.955L375.973 184.277ZM378.131 160.294C383.967 158.666 390.021 162.04 391.631 167.813C393.241 173.587 389.807 179.606 383.971 181.234C378.134 182.862 372.081 179.488 370.47 173.715C368.86 167.941 372.296 161.921 378.131 160.294Z" fill="#CD0F63" fill-opacity="0.1"/>
</g>
</g>
<g filter="url(#filter4_dddd_69_638)">
<g clip-path="url(#clip4_69_638)">
<rect x="678.646" y="106.129" width="295.089" height="180.706" rx="19.224" transform="rotate(106.535 678.646 106.129)" fill="url(#paint6_linear_69_638)"/>
<path d="M549.634 102.931L551.344 103.438L550.692 105.635C550.555 106.097 550.567 106.486 550.73 106.802C550.89 107.127 551.172 107.35 551.575 107.47C551.948 107.58 552.294 107.55 552.613 107.377C552.932 107.204 553.16 106.887 553.297 106.425L553.953 104.213L555.752 104.747L555.017 107.224C554.813 107.912 554.5 108.477 554.08 108.919C553.67 109.364 553.19 109.666 552.641 109.823C552.091 109.981 551.517 109.971 550.917 109.793C550.308 109.612 549.816 109.306 549.442 108.874C549.077 108.445 548.846 107.927 548.748 107.32C548.65 106.713 548.707 106.051 548.92 105.334L549.634 102.931ZM545.869 99.8879L556.277 102.978L555.59 105.293L545.181 102.203L545.869 99.8879ZM544.188 105.549L549.633 103.636L549.577 105.93L543.374 108.292L544.188 105.549ZM542.014 112.277C542.21 111.619 542.516 111.073 542.933 110.641C543.357 110.221 543.847 109.939 544.404 109.794C544.97 109.652 545.563 109.673 546.182 109.857L550.339 111.091L549.67 113.347L545.542 112.121C545.296 112.048 545.073 112.025 544.873 112.051C544.669 112.087 544.494 112.174 544.346 112.312C544.198 112.45 544.089 112.637 544.019 112.872C543.92 113.207 543.944 113.503 544.092 113.76C544.25 114.021 544.516 114.207 544.889 114.318L549.018 115.543L548.348 117.799L544.205 116.569C543.576 116.383 543.063 116.075 542.666 115.647C542.279 115.222 542.022 114.718 541.896 114.135C541.779 113.555 541.819 112.936 542.014 112.277ZM539.811 119.645C539.936 119.223 540.114 118.821 540.345 118.44C540.573 118.069 540.837 117.736 541.139 117.441C541.447 117.158 541.771 116.933 542.109 116.766L543.026 118.434C542.7 118.594 542.416 118.814 542.172 119.095C541.938 119.379 541.764 119.712 541.65 120.095C541.572 120.361 541.551 120.574 541.589 120.735C541.624 120.906 541.71 121.011 541.847 121.052C542.024 121.105 542.183 121.056 542.324 120.905C542.472 120.767 542.62 120.576 542.768 120.331C542.925 120.089 543.092 119.833 543.268 119.565C543.444 119.296 543.65 119.052 543.886 118.834C544.122 118.615 544.402 118.463 544.727 118.378C545.062 118.295 545.445 118.318 545.878 118.447C546.34 118.584 546.703 118.82 546.967 119.155C547.241 119.493 547.412 119.907 547.48 120.398C547.548 120.889 547.496 121.424 547.324 122.004C547.143 122.614 546.869 123.142 546.501 123.589C546.14 124.048 545.705 124.379 545.196 124.581L544.279 122.913C544.611 122.766 544.874 122.566 545.067 122.313C545.257 122.07 545.391 121.815 545.47 121.55C545.546 121.294 545.563 121.091 545.522 120.94C545.492 120.792 545.407 120.697 545.27 120.656C545.122 120.613 544.98 120.661 544.842 120.802C544.703 120.943 544.561 121.136 544.413 121.381C544.265 121.626 544.099 121.881 543.913 122.147C543.727 122.412 543.511 122.653 543.265 122.869C543.019 123.085 542.729 123.234 542.395 123.316C542.07 123.402 541.681 123.377 541.229 123.243C540.531 123.036 540.055 122.606 539.8 121.952C539.541 121.309 539.545 120.54 539.811 119.645ZM537.353 128.573L541.437 129.786C541.81 129.897 542.145 129.868 542.441 129.699C542.744 129.543 542.948 129.288 543.053 128.934C543.126 128.688 543.136 128.456 543.083 128.237C543.041 128.021 542.937 127.83 542.772 127.664C542.618 127.5 542.418 127.382 542.172 127.309L542.858 126.566C543.418 126.732 543.874 126.996 544.227 127.358C544.579 127.719 544.806 128.144 544.907 128.634C545.017 129.127 544.991 129.648 544.827 130.199C544.661 130.759 544.397 131.216 544.036 131.568C543.684 131.924 543.268 132.153 542.789 132.257C542.316 132.373 541.809 132.351 541.268 132.19L536.683 130.829L537.353 128.573ZM538.758 123.841L549.461 127.018L548.792 129.274L538.088 126.097L538.758 123.841ZM536.253 132.278L543.418 134.405L542.748 136.661L535.583 134.534L536.253 132.278ZM544.069 135.834C544.174 135.48 544.379 135.22 544.685 135.054C544.998 134.901 545.327 134.875 545.671 134.977C546.024 135.083 546.286 135.283 546.455 135.579C546.62 135.885 546.651 136.215 546.546 136.569C546.441 136.923 546.237 137.178 545.934 137.334C545.631 137.49 545.302 137.515 544.948 137.41C544.604 137.308 544.343 137.107 544.164 136.808C543.996 136.512 543.964 136.187 544.069 135.834ZM535.112 136.122L545.815 139.3L545.146 141.555L534.442 138.378L535.112 136.122ZM533.076 142.98L543.484 146.07L542.994 147.722L535.394 149.925L535.643 149.085L540.814 155.064L540.32 156.73L529.911 153.64L530.598 151.325L537.1 153.255L536.874 153.637L533.509 149.734L533.964 148.201L538.91 146.782L538.895 147.21L532.393 145.28L533.076 142.98ZM528.344 158.379C528.539 157.72 528.877 157.178 529.356 156.754C529.832 156.339 530.395 156.062 531.046 155.924C531.694 155.795 532.376 155.838 533.094 156.051C533.811 156.264 534.406 156.601 534.879 157.062C535.349 157.533 535.67 158.072 535.843 158.68C536.012 159.297 535.999 159.935 535.804 160.593C535.661 161.075 535.439 161.48 535.139 161.807C534.835 162.145 534.48 162.387 534.073 162.534C533.676 162.683 533.261 162.71 532.83 162.614L529.734 161.695C529.32 161.54 528.982 161.29 528.721 160.945C528.467 160.613 528.305 160.222 528.234 159.774C528.164 159.325 528.201 158.86 528.344 158.379ZM530.243 159.44C530.1 159.921 530.142 160.356 530.369 160.744C530.606 161.135 530.97 161.404 531.461 161.55C531.795 161.649 532.111 161.668 532.407 161.606C532.701 161.554 532.953 161.426 533.163 161.221C533.381 161.029 533.536 160.775 533.629 160.461C533.723 160.146 533.732 159.844 533.658 159.555C533.59 159.278 533.45 159.028 533.239 158.805C533.024 158.591 532.75 158.435 532.415 158.336C532.091 158.24 531.781 158.222 531.484 158.284C531.188 158.346 530.929 158.478 530.709 158.68C530.489 158.882 530.333 159.135 530.243 159.44ZM527.905 160.398L529.836 160.971L531.475 161.827L533.316 162.004L535.07 162.525L534.414 164.737L527.248 162.609L527.905 160.398ZM525.372 168.93L529.456 170.143C529.829 170.253 530.164 170.225 530.46 170.056C530.763 169.9 530.967 169.645 531.072 169.291C531.145 169.045 531.155 168.813 531.103 168.594C531.06 168.378 530.956 168.187 530.792 168.02C530.637 167.857 530.437 167.739 530.191 167.666L530.877 166.923C531.437 167.089 531.893 167.353 532.246 167.714C532.599 168.076 532.825 168.501 532.926 168.991C533.036 169.484 533.01 170.005 532.846 170.556C532.68 171.116 532.416 171.572 532.055 171.925C531.703 172.28 531.288 172.51 530.808 172.613C530.335 172.73 529.828 172.708 529.287 172.547L524.702 171.186L525.372 168.93ZM526.777 164.198L537.48 167.375L536.811 169.631L526.107 166.453L526.777 164.198ZM524.272 172.635L531.437 174.762L530.768 177.018L523.602 174.89L524.272 172.635ZM532.088 176.19C532.193 175.836 532.399 175.577 532.705 175.411C533.017 175.258 533.346 175.232 533.69 175.334C534.044 175.439 534.305 175.64 534.474 175.936C534.64 176.242 534.67 176.572 534.565 176.926C534.46 177.279 534.256 177.534 533.953 177.69C533.65 177.846 533.321 177.872 532.968 177.767C532.624 177.665 532.362 177.464 532.184 177.165C532.015 176.869 531.983 176.544 532.088 176.19ZM521.726 181.211L525.81 182.424C526.183 182.535 526.518 182.506 526.814 182.337C527.117 182.181 527.321 181.926 527.426 181.572C527.499 181.326 527.509 181.094 527.457 180.875C527.414 180.659 527.31 180.468 527.146 180.302C526.991 180.138 526.791 180.02 526.545 179.947L527.231 179.204C527.791 179.37 528.246 179.639 528.596 180.01C528.945 180.381 529.169 180.817 529.267 181.316C529.371 181.829 529.342 182.36 529.179 182.911C529.021 183.441 528.755 183.87 528.379 184.197C528.011 184.537 527.586 184.764 527.103 184.877C526.62 184.991 526.133 184.974 525.641 184.828L521.056 183.467L521.726 181.211ZM523.131 176.479L530.296 178.606L529.626 180.862L522.461 178.735L523.131 176.479ZM519.573 187.924C519.774 187.246 520.116 186.689 520.598 186.255C521.077 185.83 521.641 185.549 522.292 185.41C522.94 185.282 523.623 185.324 524.34 185.537C525.058 185.75 525.653 186.087 526.125 186.548C526.595 187.019 526.915 187.564 527.085 188.181C527.251 188.808 527.234 189.46 527.033 190.139C526.887 190.63 526.662 191.045 526.359 191.382C526.052 191.73 525.694 191.982 525.284 192.138C524.881 192.307 524.464 192.344 524.032 192.248L521.01 191.351C520.596 191.196 520.255 190.939 519.987 190.582C519.729 190.227 519.556 189.817 519.469 189.353C519.392 188.892 519.427 188.415 519.573 187.924ZM521.489 188.926C521.393 189.25 521.378 189.551 521.446 189.828C521.523 190.107 521.669 190.354 521.884 190.567C522.099 190.781 522.373 190.937 522.707 191.036C523.042 191.136 523.352 191.153 523.639 191.088C523.932 191.036 524.189 190.909 524.409 190.707C524.627 190.515 524.782 190.262 524.876 189.947C524.969 189.633 524.978 189.331 524.904 189.041C524.827 188.762 524.682 188.51 524.47 188.287C524.255 188.074 523.986 187.919 523.662 187.822C523.337 187.726 523.027 187.709 522.73 187.771C522.434 187.832 522.176 187.964 521.955 188.166C521.735 188.368 521.58 188.621 521.489 188.926ZM518.495 192.096L519.151 189.884L521.082 190.458L522.722 191.313L524.575 191.446L529.868 193.018L529.198 195.273L518.495 192.096ZM518.023 193.684L525.188 195.811L524.519 198.067L517.353 195.94L518.023 193.684ZM521.29 197.108L522.307 196.384C523.087 196.818 523.642 197.326 523.973 197.905C524.304 198.484 524.352 199.167 524.119 199.954C524.017 200.298 523.874 200.581 523.69 200.805C523.513 201.041 523.287 201.225 523.012 201.358L521.715 199.513C521.852 199.447 521.972 199.348 522.075 199.219C522.178 199.089 522.257 198.93 522.312 198.744C522.423 198.37 522.394 198.035 522.226 197.739C522.064 197.456 521.752 197.246 521.29 197.108ZM515.179 202.723C515.375 202.065 515.712 201.523 516.191 201.099C516.667 200.684 517.23 200.407 517.881 200.269C518.529 200.14 519.211 200.183 519.929 200.396C520.646 200.609 521.242 200.946 521.714 201.407C522.184 201.878 522.505 202.417 522.678 203.024C522.848 203.642 522.835 204.28 522.639 204.938C522.496 205.42 522.274 205.824 521.974 206.152C521.67 206.49 521.315 206.732 520.908 206.879C520.511 207.028 520.096 207.055 519.665 206.959L516.569 206.04C516.155 205.885 515.817 205.635 515.556 205.29C515.302 204.958 515.14 204.567 515.07 204.119C515 203.67 515.036 203.205 515.179 202.723ZM517.078 203.784C516.935 204.266 516.977 204.701 517.204 205.089C517.441 205.48 517.805 205.749 518.296 205.895C518.631 205.994 518.946 206.013 519.242 205.951C519.536 205.899 519.788 205.771 519.998 205.566C520.216 205.374 520.371 205.12 520.465 204.806C520.558 204.491 520.567 204.189 520.493 203.9C520.425 203.623 520.286 203.373 520.074 203.15C519.859 202.936 519.585 202.78 519.251 202.681C518.926 202.585 518.616 202.567 518.319 202.629C518.023 202.691 517.765 202.823 517.544 203.025C517.324 203.226 517.168 203.48 517.078 203.784ZM514.74 204.743L516.671 205.316L518.31 206.172L520.151 206.349L521.905 206.87L521.249 209.081L514.084 206.954L514.74 204.743ZM526.564 97.558C526.818 96.7029 527.174 96.0066 527.634 95.4691C528.099 94.9443 528.693 94.511 529.415 94.1691L530.458 96.115C529.975 96.3354 529.566 96.615 529.23 96.9538C528.901 97.3053 528.656 97.7513 528.496 98.2919C528.35 98.7834 528.326 99.188 528.424 99.5059C528.52 99.8337 528.724 100.044 529.039 100.138C529.324 100.222 529.581 100.202 529.811 100.078C530.04 99.9535 530.263 99.7629 530.478 99.5059C530.69 99.2588 530.908 98.9759 531.131 98.6571C531.351 98.3481 531.586 98.0434 531.835 97.7432C532.095 97.4459 532.381 97.1833 532.695 96.9556C533.015 96.7406 533.374 96.5957 533.77 96.5209C534.177 96.449 534.645 96.4919 535.176 96.6494C535.815 96.8391 536.32 97.1548 536.692 97.5967C537.06 98.0483 537.281 98.5844 537.353 99.2048C537.436 99.8282 537.37 100.499 537.157 101.216C536.941 101.943 536.617 102.569 536.183 103.093C535.747 103.626 535.249 104.024 534.69 104.286L533.647 102.34C534.065 102.122 534.401 101.874 534.654 101.596C534.905 101.328 535.09 100.993 535.209 100.59C535.329 100.187 535.345 99.844 535.258 99.5614C535.181 99.2818 534.999 99.0996 534.714 99.015C534.449 98.9362 534.207 98.9605 533.987 99.0878C533.777 99.2181 533.571 99.4082 533.368 99.6582C533.163 99.9181 532.95 100.202 532.73 100.511C532.507 100.83 532.266 101.138 532.007 101.436C531.747 101.733 531.452 101.988 531.122 102.2C530.798 102.425 530.424 102.57 529.998 102.636C529.582 102.705 529.103 102.659 528.563 102.499C527.57 102.204 526.894 101.618 526.534 100.741C526.183 99.8674 526.194 98.8063 526.564 97.558ZM523.964 106.317C524.195 105.54 524.557 104.894 525.053 104.378C525.555 103.875 526.143 103.536 526.815 103.361C527.487 103.186 528.182 103.205 528.899 103.418C529.617 103.631 530.206 103.988 530.667 104.488C531.135 105.002 531.445 105.596 531.597 106.273C531.749 106.949 531.718 107.651 531.502 108.378C531.292 109.086 530.954 109.664 530.489 110.115C530.024 110.565 529.476 110.862 528.844 111.006C528.211 111.16 527.545 111.134 526.847 110.926C526.719 110.888 526.584 110.838 526.443 110.774C526.308 110.724 526.153 110.651 525.978 110.556L527.797 104.374L529.345 104.834L527.811 110.057L527.451 108.892C527.866 109.005 528.225 109.041 528.525 109.002C528.835 108.966 529.094 108.85 529.302 108.655C529.516 108.473 529.673 108.215 529.772 107.881C529.877 107.527 529.886 107.192 529.797 106.877C529.716 106.575 529.55 106.306 529.299 106.072C529.045 105.846 528.706 105.671 528.284 105.546C527.861 105.42 527.476 105.386 527.127 105.443C526.786 105.513 526.49 105.66 526.242 105.886C526 106.124 525.822 106.435 525.708 106.818C525.603 107.172 525.567 107.509 525.6 107.829C525.644 108.152 525.756 108.458 525.938 108.747L524.331 109.618C524.024 109.142 523.841 108.622 523.783 108.06C523.726 107.497 523.786 106.916 523.964 106.317ZM521.374 115.636L525.458 116.848C525.831 116.959 526.166 116.93 526.462 116.762C526.765 116.606 526.969 116.351 527.074 115.997C527.147 115.751 527.157 115.519 527.105 115.3C527.062 115.084 526.958 114.893 526.794 114.726C526.639 114.563 526.439 114.445 526.193 114.372L526.879 113.629C527.439 113.795 527.895 114.059 528.248 114.42C528.601 114.782 528.827 115.207 528.928 115.697C529.038 116.19 529.012 116.711 528.848 117.262C528.682 117.822 528.418 118.278 528.057 118.631C527.705 118.986 527.29 119.216 526.81 119.319C526.337 119.436 525.83 119.414 525.289 119.253L520.704 117.892L521.374 115.636ZM522.779 110.904L533.482 114.081L532.813 116.337L522.109 113.159L522.779 110.904ZM516.158 121.424C516.392 120.637 516.735 119.985 517.188 119.467C517.629 118.956 518.146 118.602 518.739 118.404L519.714 120.201C519.333 120.366 519.018 120.583 518.767 120.85C518.513 121.128 518.32 121.493 518.185 121.945C518.019 122.505 518.027 122.984 518.209 123.38C518.388 123.786 518.728 124.063 519.229 124.212L521.057 124.755L522.506 125.602L524.169 125.727L526.012 126.274L525.356 128.486L518.618 126.485C517.881 126.266 517.293 125.905 516.855 125.4C516.416 124.896 516.134 124.299 516.007 123.609C515.88 122.919 515.931 122.19 516.158 121.424ZM519.624 122.34C519.82 121.682 520.151 121.143 520.617 120.726C521.083 120.308 521.63 120.032 522.258 119.898C522.886 119.763 523.53 119.794 524.188 119.989C524.857 120.188 525.412 120.513 525.856 120.966C526.309 121.421 526.612 121.949 526.765 122.551C526.928 123.155 526.911 123.787 526.716 124.445C526.57 124.937 526.347 125.347 526.046 125.674C525.752 126.015 525.403 126.254 524.999 126.39C524.602 126.54 524.183 126.565 523.741 126.466L521.014 125.656C520.6 125.501 520.263 125.252 520.001 124.907C519.747 124.574 519.585 124.184 519.515 123.735C519.445 123.287 519.481 122.822 519.624 122.34ZM521.502 123.363C521.409 123.677 521.398 123.968 521.468 124.235C521.536 124.512 521.665 124.743 521.856 124.928C522.054 125.126 522.3 125.268 522.595 125.356C522.89 125.443 523.174 125.458 523.448 125.4C523.719 125.353 523.958 125.231 524.166 125.036C524.371 124.851 524.52 124.601 524.613 124.286C524.704 123.982 524.715 123.691 524.647 123.414C524.58 123.138 524.447 122.9 524.249 122.702C524.051 122.505 523.805 122.362 523.51 122.274C523.235 122.193 522.955 122.179 522.672 122.234C522.398 122.292 522.159 122.413 521.954 122.599C521.746 122.794 521.596 123.048 521.502 123.363ZM516.682 130.9C516.878 130.241 517.215 129.699 517.694 129.275C518.17 128.86 518.733 128.583 519.384 128.445C520.032 128.316 520.714 128.359 521.432 128.572C522.149 128.785 522.745 129.122 523.217 129.583C523.687 130.054 524.008 130.593 524.181 131.201C524.351 131.818 524.338 132.456 524.142 133.114C523.999 133.596 523.777 134.001 523.477 134.328C523.173 134.666 522.818 134.908 522.411 135.055C522.014 135.204 521.599 135.231 521.168 135.135L518.072 134.216C517.658 134.061 517.32 133.811 517.059 133.466C516.805 133.134 516.643 132.743 516.573 132.295C516.503 131.846 516.539 131.381 516.682 130.9ZM518.581 131.961C518.438 132.442 518.48 132.877 518.707 133.265C518.944 133.656 519.308 133.925 519.799 134.071C520.134 134.17 520.449 134.189 520.745 134.127C521.039 134.075 521.291 133.947 521.501 133.742C521.719 133.55 521.874 133.297 521.968 132.982C522.061 132.667 522.07 132.365 521.996 132.076C521.928 131.799 521.789 131.549 521.577 131.326C521.362 131.112 521.088 130.956 520.753 130.857C520.429 130.761 520.119 130.743 519.822 130.805C519.526 130.867 519.268 130.999 519.047 131.201C518.827 131.403 518.671 131.656 518.581 131.961ZM516.243 132.919L518.174 133.492L519.813 134.348L521.654 134.525L523.408 135.046L522.752 137.258L515.586 135.13L516.243 132.919ZM515.115 136.719L525.819 139.896L525.149 142.152L514.445 138.974L515.115 136.719Z" fill="#CD0F63"/>
<g clip-path="url(#clip5_69_638)">
<path fill-rule="evenodd" clip-rule="evenodd" d="M645.948 120.73C653.539 134.73 648.343 152.233 634.342 159.824C633.642 160.203 632.767 159.943 632.388 159.243L631.7 157.976C631.518 157.64 631.477 157.245 631.586 156.878C631.694 156.512 631.944 156.203 632.281 156.021C644.181 149.569 648.598 134.692 642.146 122.791C641.963 122.455 641.922 122.06 642.031 121.694C642.14 121.327 642.39 121.019 642.726 120.837L643.994 120.149C644.694 119.77 645.569 120.03 645.948 120.73ZM638.343 124.853C643.657 134.653 640.019 146.905 630.219 152.219C629.519 152.598 628.644 152.338 628.264 151.638L627.577 150.371C627.395 150.035 627.354 149.64 627.462 149.273C627.571 148.907 627.821 148.598 628.157 148.416C635.858 144.241 638.715 134.615 634.541 126.915C634.161 126.214 634.421 125.339 635.121 124.96L636.388 124.273C636.725 124.09 637.119 124.049 637.486 124.158C637.853 124.267 638.161 124.517 638.343 124.853ZM630.726 129.017C633.762 134.617 631.684 141.618 626.084 144.654C625.384 145.034 624.509 144.774 624.129 144.074L623.442 142.807C623.26 142.47 623.218 142.076 623.327 141.709C623.436 141.342 623.686 141.034 624.022 140.852C627.522 138.954 628.821 134.578 626.924 131.078C626.544 130.378 626.804 129.503 627.504 129.124L628.772 128.437C629.472 128.057 630.347 128.317 630.726 129.017Z" fill="#CD0F63"/>
</g>
<path fill-rule="evenodd" clip-rule="evenodd" d="M607.023 335.48C614.647 333.214 621.176 328.047 625.522 320.015C625.795 319.51 626.057 318.998 626.308 318.48C627.757 333.047 624.845 349.21 617.296 363.164C602.849 389.866 576.89 398.368 559.315 382.152C547.441 371.197 542.431 351.763 544.885 332.073C567.844 343.345 590.367 344.582 607.023 335.48Z" fill="url(#paint7_linear_69_638)"/>
<g filter="url(#filter5_d_69_638)">
<path fill-rule="evenodd" clip-rule="evenodd" d="M431.728 301.431C446.799 321.637 471.314 338.908 501.476 348.295C551.667 363.915 601.374 352.686 623.242 323.45C600.795 335.566 561.133 330.609 521.96 308.379C486.89 288.479 461.267 259.873 452.65 234.204L431.728 301.431Z" fill="url(#paint8_linear_69_638)"/>
</g>
<path d="M577.724 229.919C581.351 217.701 574.282 204.824 561.936 201.159C556.283 199.481 550.499 200.025 545.547 202.286C545.498 202.304 545.449 202.327 545.4 202.353L544.936 202.571L522.204 213.436L532.107 229.668L536.841 227.134C536.193 224.16 536.26 220.994 537.184 217.883C540.132 207.952 550.693 202.298 560.728 205.277C570.763 208.256 576.528 218.757 573.579 228.688C570.631 238.619 560.071 244.273 550.035 241.294C547.12 240.428 544.564 238.928 542.48 236.991L538.501 239.121C541.23 241.982 544.729 244.194 548.802 245.403C561.148 249.069 574.097 242.137 577.724 229.919Z" fill="#CD0F63" fill-opacity="0.1"/>
<path d="M543.895 232.033C545.701 234.366 548.235 236.177 551.284 237.082C558.972 239.365 567.063 235.033 569.321 227.425C571.58 219.818 567.163 211.772 559.476 209.49C551.788 207.208 543.697 211.54 541.439 219.148C540.477 222.388 540.727 225.712 541.925 228.633L534.076 232.892L536.101 236.205L543.895 232.033ZM558.473 212.867C564.282 214.591 567.615 220.667 565.91 226.413C564.204 232.159 558.095 235.432 552.286 233.707C546.478 231.983 543.144 225.907 544.85 220.161C546.556 214.415 552.667 211.143 558.473 212.867Z" fill="#CD0F63" fill-opacity="0.1"/>
</g>
</g>
<defs>
<filter id="filter0_dddd_69_638" x="-7.90484" y="29.8821" width="434.048" height="532.714" filterUnits="userSpaceOnUse" color-interpolation-filters="sRGB">
<feFlood flood-opacity="0" result="BackgroundImageFix"/>
<feColorMatrix in="SourceAlpha" type="matrix" values="0 0 0 0 0 0 0 0 0 0 0 0 0 0 0 0 0 0 127 0" result="hardAlpha"/>
<feOffset dy="8.33041"/>
<feGaussianBlur stdDeviation="8.97121"/>
<feColorMatrix type="matrix" values="0 0 0 0 0 0 0 0 0 0 0 0 0 0 0 0 0 0 0.1 0"/>
<feBlend mode="normal" in2="BackgroundImageFix" result="effect1_dropShadow_69_638"/>
<feColorMatrix in="SourceAlpha" type="matrix" values="0 0 0 0 0 0 0 0 0 0 0 0 0 0 0 0 0 0 127 0" result="hardAlpha"/>
<feOffset dy="32.6808"/>
<feGaussianBlur stdDeviation="16.3404"/>
<feColorMatrix type="matrix" values="0 0 0 0 0 0 0 0 0 0 0 0 0 0 0 0 0 0 0.09 0"/>
<feBlend mode="normal" in2="effect1_dropShadow_69_638" result="effect2_dropShadow_69_638"/>
<feColorMatrix in="SourceAlpha" type="matrix" values="0 0 0 0 0 0 0 0 0 0 0 0 0 0 0 0 0 0 127 0" result="hardAlpha"/>
<feOffset dy="73.0513"/>
<feGaussianBlur stdDeviation="21.7872"/>
<feColorMatrix type="matrix" values="0 0 0 0 0 0 0 0 0 0 0 0 0 0 0 0 0 0 0.05 0"/>
<feBlend mode="normal" in2="effect2_dropShadow_69_638" result="effect3_dropShadow_69_638"/>
<feColorMatrix in="SourceAlpha" type="matrix" values="0 0 0 0 0 0 0 0 0 0 0 0 0 0 0 0 0 0 127 0" result="hardAlpha"/>
<feOffset dy="130.083"/>
<feGaussianBlur stdDeviation="25.9524"/>
<feColorMatrix type="matrix" values="0 0 0 0 0 0 0 0 0 0 0 0 0 0 0 0 0 0 0.01 0"/>
<feBlend mode="normal" in2="effect3_dropShadow_69_638" result="effect4_dropShadow_69_638"/>
<feBlend mode="normal" in="SourceGraphic" in2="effect4_dropShadow_69_638" result="shape"/>
</filter>
<filter id="filter1_d_69_638" x="155.752" y="195.468" width="194.386" height="173.533" filterUnits="userSpaceOnUse" color-interpolation-filters="sRGB">
<feFlood flood-opacity="0" result="BackgroundImageFix"/>
<feColorMatrix in="SourceAlpha" type="matrix" values="0 0 0 0 0 0 0 0 0 0 0 0 0 0 0 0 0 0 127 0" result="hardAlpha"/>
<feOffset dy="4.6928"/>
<feGaussianBlur stdDeviation="5.866"/>
<feComposite in2="hardAlpha" operator="out"/>
<feColorMatrix type="matrix" values="0 0 0 0 0.541176 0 0 0 0 0.101961 0 0 0 0 0.521569 0 0 0 0.25 0"/>
<feBlend mode="normal" in2="BackgroundImageFix" result="effect1_dropShadow_69_638"/>
<feBlend mode="normal" in="SourceGraphic" in2="effect1_dropShadow_69_638" result="shape"/>
</filter>
<filter id="filter2_dddd_69_638" x="197.193" y="-3.61201" width="357.146" height="524.385" filterUnits="userSpaceOnUse" color-interpolation-filters="sRGB">
<feFlood flood-opacity="0" result="BackgroundImageFix"/>
<feColorMatrix in="SourceAlpha" type="matrix" values="0 0 0 0 0 0 0 0 0 0 0 0 0 0 0 0 0 0 127 0" result="hardAlpha"/>
<feOffset dy="8.33041"/>
<feGaussianBlur stdDeviation="8.97121"/>
<feColorMatrix type="matrix" values="0 0 0 0 0 0 0 0 0 0 0 0 0 0 0 0 0 0 0.1 0"/>
<feBlend mode="normal" in2="BackgroundImageFix" result="effect1_dropShadow_69_638"/>
<feColorMatrix in="SourceAlpha" type="matrix" values="0 0 0 0 0 0 0 0 0 0 0 0 0 0 0 0 0 0 127 0" result="hardAlpha"/>
<feOffset dy="32.6808"/>
<feGaussianBlur stdDeviation="16.3404"/>
<feColorMatrix type="matrix" values="0 0 0 0 0 0 0 0 0 0 0 0 0 0 0 0 0 0 0.09 0"/>
<feBlend mode="normal" in2="effect1_dropShadow_69_638" result="effect2_dropShadow_69_638"/>
<feColorMatrix in="SourceAlpha" type="matrix" values="0 0 0 0 0 0 0 0 0 0 0 0 0 0 0 0 0 0 127 0" result="hardAlpha"/>
<feOffset dy="73.0513"/>
<feGaussianBlur stdDeviation="21.7872"/>
<feColorMatrix type="matrix" values="0 0 0 0 0 0 0 0 0 0 0 0 0 0 0 0 0 0 0.05 0"/>
<feBlend mode="normal" in2="effect2_dropShadow_69_638" result="effect3_dropShadow_69_638"/>
<feColorMatrix in="SourceAlpha" type="matrix" values="0 0 0 0 0 0 0 0 0 0 0 0 0 0 0 0 0 0 127 0" result="hardAlpha"/>
<feOffset dy="130.083"/>
<feGaussianBlur stdDeviation="25.9524"/>
<feColorMatrix type="matrix" values="0 0 0 0 0 0 0 0 0 0 0 0 0 0 0 0 0 0 0.01 0"/>
<feBlend mode="normal" in2="effect3_dropShadow_69_638" result="effect4_dropShadow_69_638"/>
<feBlend mode="normal" in="SourceGraphic" in2="effect4_dropShadow_69_638" result="shape"/>
</filter>
<filter id="filter3_d_69_638" x="288.115" y="212.476" width="215.398" height="114.482" filterUnits="userSpaceOnUse" color-interpolation-filters="sRGB">
<feFlood flood-opacity="0" result="BackgroundImageFix"/>
<feColorMatrix in="SourceAlpha" type="matrix" values="0 0 0 0 0 0 0 0 0 0 0 0 0 0 0 0 0 0 127 0" result="hardAlpha"/>
<feOffset dy="4.6928"/>
<feGaussianBlur stdDeviation="5.866"/>
<feComposite in2="hardAlpha" operator="out"/>
<feColorMatrix type="matrix" values="0 0 0 0 0.541176 0 0 0 0 0.101961 0 0 0 0 0.521569 0 0 0 0.25 0"/>
<feBlend mode="normal" in2="BackgroundImageFix" result="effect1_dropShadow_69_638"/>
<feBlend mode="normal" in="SourceGraphic" in2="effect1_dropShadow_69_638" result="shape"/>
</filter>
<filter id="filter4_dddd_69_638" x="369.527" y="45.0892" width="361.024" height="525.913" filterUnits="userSpaceOnUse" color-interpolation-filters="sRGB">
<feFlood flood-opacity="0" result="BackgroundImageFix"/>
<feColorMatrix in="SourceAlpha" type="matrix" values="0 0 0 0 0 0 0 0 0 0 0 0 0 0 0 0 0 0 127 0" result="hardAlpha"/>
<feOffset dy="8.33041"/>
<feGaussianBlur stdDeviation="8.97121"/>
<feColorMatrix type="matrix" values="0 0 0 0 0 0 0 0 0 0 0 0 0 0 0 0 0 0 0.1 0"/>
<feBlend mode="normal" in2="BackgroundImageFix" result="effect1_dropShadow_69_638"/>
<feColorMatrix in="SourceAlpha" type="matrix" values="0 0 0 0 0 0 0 0 0 0 0 0 0 0 0 0 0 0 127 0" result="hardAlpha"/>
<feOffset dy="32.6808"/>
<feGaussianBlur stdDeviation="16.3404"/>
<feColorMatrix type="matrix" values="0 0 0 0 0 0 0 0 0 0 0 0 0 0 0 0 0 0 0.09 0"/>
<feBlend mode="normal" in2="effect1_dropShadow_69_638" result="effect2_dropShadow_69_638"/>
<feColorMatrix in="SourceAlpha" type="matrix" values="0 0 0 0 0 0 0 0 0 0 0 0 0 0 0 0 0 0 127 0" result="hardAlpha"/>
<feOffset dy="73.0513"/>
<feGaussianBlur stdDeviation="21.7872"/>
<feColorMatrix type="matrix" values="0 0 0 0 0 0 0 0 0 0 0 0 0 0 0 0 0 0 0.05 0"/>
<feBlend mode="normal" in2="effect2_dropShadow_69_638" result="effect3_dropShadow_69_638"/>
<feColorMatrix in="SourceAlpha" type="matrix" values="0 0 0 0 0 0 0 0 0 0 0 0 0 0 0 0 0 0 127 0" result="hardAlpha"/>
<feOffset dy="130.083"/>
<feGaussianBlur stdDeviation="25.9524"/>
<feColorMatrix type="matrix" values="0 0 0 0 0 0 0 0 0 0 0 0 0 0 0 0 0 0 0.01 0"/>
<feBlend mode="normal" in2="effect3_dropShadow_69_638" result="effect4_dropShadow_69_638"/>
<feBlend mode="normal" in="SourceGraphic" in2="effect4_dropShadow_69_638" result="shape"/>
</filter>
<filter id="filter5_d_69_638" x="419.997" y="227.165" width="214.978" height="144.606" filterUnits="userSpaceOnUse" color-interpolation-filters="sRGB">
<feFlood flood-opacity="0" result="BackgroundImageFix"/>
<feColorMatrix in="SourceAlpha" type="matrix" values="0 0 0 0 0 0 0 0 0 0 0 0 0 0 0 0 0 0 127 0" result="hardAlpha"/>
<feOffset dy="4.6928"/>
<feGaussianBlur stdDeviation="5.866"/>
<feComposite in2="hardAlpha" operator="out"/>
<feColorMatrix type="matrix" values="0 0 0 0 0.541176 0 0 0 0 0.101961 0 0 0 0 0.521569 0 0 0 0.25 0"/>
<feBlend mode="normal" in2="BackgroundImageFix" result="effect1_dropShadow_69_638"/>
<feBlend mode="normal" in="SourceGraphic" in2="effect1_dropShadow_69_638" result="shape"/>
</filter>
<linearGradient id="paint0_linear_69_638" x1="180.08" y1="41.078" x2="465.557" y2="235.87" gradientUnits="userSpaceOnUse">
<stop stop-color="#E6E9F0"/>
<stop offset="1" stop-color="#EEF1F5"/>
</linearGradient>
<linearGradient id="paint1_linear_69_638" x1="319.933" y1="260.192" x2="367.299" y2="230.621" gradientUnits="userSpaceOnUse">
<stop stop-color="#8A1A85"/>
<stop offset="1" stop-color="#E40B57"/>
</linearGradient>
<linearGradient id="paint2_linear_69_638" x1="188.67" y1="323.852" x2="334.594" y2="202.925" gradientUnits="userSpaceOnUse">
<stop stop-color="#871B87"/>
<stop offset="1" stop-color="#EA0A54"/>
</linearGradient>
<linearGradient id="paint3_linear_69_638" x1="423.161" y1="7.58388" x2="708.638" y2="202.376" gradientUnits="userSpaceOnUse">
<stop stop-color="#E6E9F0"/>
<stop offset="1" stop-color="#EEF1F5"/>
</linearGradient>
<linearGradient id="paint4_linear_69_638" x1="454.1" y1="265.44" x2="509.59" y2="259.2" gradientUnits="userSpaceOnUse">
<stop stop-color="#8A1A85"/>
<stop offset="1" stop-color="#E40B57"/>
</linearGradient>
<linearGradient id="paint5_linear_69_638" x1="308.215" y1="266.229" x2="492.035" y2="220.102" gradientUnits="userSpaceOnUse">
<stop stop-color="#871B87"/>
<stop offset="1" stop-color="#EA0A54"/>
</linearGradient>
<linearGradient id="paint6_linear_69_638" x1="678.646" y1="107.713" x2="964.123" y2="302.505" gradientUnits="userSpaceOnUse">
<stop stop-color="#E6E9F0"/>
<stop offset="1" stop-color="#EEF1F5"/>
</linearGradient>
<linearGradient id="paint7_linear_69_638" x1="566.914" y1="342.31" x2="617.228" y2="366.528" gradientUnits="userSpaceOnUse">
<stop stop-color="#8A1A85"/>
<stop offset="1" stop-color="#E40B57"/>
</linearGradient>
<linearGradient id="paint8_linear_69_638" x1="442.936" y1="265.42" x2="623.146" y2="324.082" gradientUnits="userSpaceOnUse">
<stop stop-color="#871B87"/>
<stop offset="1" stop-color="#EA0A54"/>
</linearGradient>
<clipPath id="clip0_69_638">
<rect x="180.08" y="39.4941" width="295.089" height="180.706" rx="19.224" transform="rotate(48.855 180.08 39.4941)" fill="white"/>
</clipPath>
<clipPath id="clip1_69_638">
<rect width="46.1376" height="46.1376" fill="white" transform="translate(184.992 62.6445) rotate(48.855)"/>
</clipPath>
<clipPath id="clip2_69_638">
<rect x="423.161" y="6" width="295.089" height="180.706" rx="19.224" transform="rotate(74.4166 423.161 6)" fill="white"/>
</clipPath>
<clipPath id="clip3_69_638">
<rect width="46.1376" height="46.1376" fill="white" transform="translate(417.603 29.0049) rotate(74.4166)"/>
</clipPath>
<clipPath id="clip4_69_638">
<rect x="678.646" y="106.129" width="295.089" height="180.706" rx="19.224" transform="rotate(106.535 678.646 106.129)" fill="white"/>
</clipPath>
<clipPath id="clip5_69_638">
<rect width="46.1376" height="46.1376" fill="white" transform="translate(661.707 122.657) rotate(106.535)"/>
</clipPath>
</defs>
</svg>
