<svg width="779" height="1397" viewBox="0 0 779 1397" fill="none" xmlns="http://www.w3.org/2000/svg">
<path fill-rule="evenodd" clip-rule="evenodd" d="M186 354.314V409.743C186.024 409.751 186.048 409.76 186.072 409.769C186.024 410.152 186 410.537 186 410.922C186 438.688 310.241 461.197 463.5 461.197C616.759 461.197 741 438.688 741 410.922C741 410.535 740.976 410.149 740.928 409.764C740.952 409.757 740.976 409.75 741 409.743V354.314H186Z" fill="#BC3C50"/>
<path d="M739.021 353.918C739.021 356.593 737.531 359.486 734.05 362.568C730.578 365.642 725.342 368.7 718.413 371.668C704.571 377.597 684.42 382.982 659.369 387.52C609.3 396.591 540.049 402.213 463.5 402.213C386.951 402.213 317.7 396.591 267.631 387.52C242.58 382.982 222.429 377.597 208.587 371.668C201.658 368.7 196.422 365.642 192.95 362.568C189.469 359.486 187.979 356.593 187.979 353.918C187.979 351.243 189.469 348.35 192.95 345.268C196.422 342.194 201.658 339.136 208.587 336.168C222.429 330.239 242.58 324.855 267.631 320.316C317.7 311.245 386.951 305.623 463.5 305.623C540.049 305.623 609.3 311.245 659.369 320.316C684.42 324.855 704.571 330.239 718.413 336.168C725.342 339.136 730.578 342.194 734.05 345.268C737.531 348.35 739.021 351.243 739.021 353.918Z" fill="#BC3C50" stroke="#FFD956" stroke-width="3.95863"/>
<g clip-path="url(#clip0_64_589)">
<rect x="372.757" y="280.979" width="294.873" height="180.574" rx="19.21" transform="rotate(-57.9679 372.757 280.979)" fill="url(#paint0_linear_64_589)"/>
<path d="M550.028 68.2642C537.892 87.6619 543.944 113.331 563.546 125.595C572.521 131.21 582.789 133.042 592.441 131.506C592.534 131.498 592.629 131.483 592.727 131.461L593.634 131.307L638.174 123.414L628.827 90.5809L619.422 92.695C619.117 98.1505 617.481 103.596 614.392 108.535C604.527 124.301 583.544 129.018 567.612 119.05C551.679 109.082 546.744 88.149 556.608 72.3826C566.472 56.6161 587.455 51.8996 603.388 61.8676C608.016 64.7634 611.719 68.5853 614.396 72.9362L622.3 71.1595C618.952 64.9015 613.959 59.3963 607.492 55.3507C587.893 43.0864 562.164 48.8664 550.028 68.2642Z" fill="url(#paint1_linear_64_589)"/>
<path d="M609.57 80.8363C607.564 75.9324 604.049 71.5837 599.208 68.5547C587.003 60.9187 570.926 64.5323 563.37 76.6102C555.813 88.6881 559.595 104.726 571.8 112.362C584.005 119.998 600.081 116.384 607.638 104.306C610.857 99.1608 612.018 93.2907 611.346 87.6632L626.969 84.0594L625.054 77.3558L609.57 80.8363ZM575.154 107.001C565.932 101.231 563.079 89.1203 568.787 79.9976C574.494 70.8749 586.633 68.1434 595.855 73.9134C605.077 79.6833 607.93 91.7937 602.222 100.916C596.515 110.039 584.373 112.768 575.154 107.001Z" fill="url(#paint2_linear_64_589)"/>
<path d="M503.446 303.82L501.934 302.874L503.149 300.933C503.404 300.525 503.496 300.147 503.423 299.799C503.356 299.443 503.144 299.154 502.788 298.931C502.458 298.724 502.117 298.662 501.764 298.743C501.411 298.824 501.107 299.069 500.851 299.477L499.628 301.431L498.039 300.437L499.408 298.248C499.789 297.64 500.24 297.179 500.763 296.866C501.277 296.547 501.819 296.385 502.39 296.38C502.962 296.374 503.512 296.538 504.042 296.869C504.58 297.206 504.972 297.632 505.217 298.148C505.454 298.659 505.538 299.219 505.471 299.83C505.403 300.44 505.171 301.062 504.774 301.696L503.446 303.82ZM506.259 307.755L497.061 302L498.341 299.955L507.539 305.71L506.259 307.755ZM509.389 302.752L503.635 303.14L504.301 300.947L510.905 300.329L509.389 302.752ZM513.278 296.854C512.914 297.436 512.474 297.879 511.957 298.184C511.436 298.475 510.889 298.616 510.314 298.607C509.731 298.593 509.166 298.414 508.619 298.072L504.945 295.773L506.192 293.78L509.84 296.062C510.057 296.198 510.266 296.28 510.465 296.309C510.671 296.328 510.863 296.291 511.042 296.198C511.221 296.105 511.376 295.954 511.507 295.746C511.691 295.45 511.747 295.159 511.673 294.871C511.591 294.578 511.385 294.328 511.054 294.121L507.407 291.839L508.654 289.846L512.315 292.136C512.87 292.484 513.282 292.917 513.55 293.435C513.81 293.948 513.922 294.502 513.888 295.097C513.846 295.686 513.642 296.272 513.278 296.854ZM517.367 290.347C517.134 290.721 516.855 291.06 516.531 291.365C516.213 291.661 515.869 291.912 515.5 292.116C515.127 292.305 514.756 292.436 514.385 292.506L513.948 290.655C514.304 290.588 514.637 290.452 514.947 290.247C515.248 290.036 515.504 289.762 515.716 289.423C515.863 289.188 515.939 288.989 515.946 288.824C515.958 288.65 515.903 288.525 515.782 288.449C515.625 288.351 515.459 288.356 515.283 288.463C515.104 288.557 514.911 288.701 514.703 288.898C514.487 289.089 514.258 289.29 514.017 289.502C513.776 289.714 513.512 289.893 513.227 290.041C512.941 290.188 512.63 290.26 512.295 290.255C511.951 290.245 511.587 290.121 511.205 289.882C510.797 289.626 510.51 289.302 510.346 288.909C510.172 288.51 510.118 288.065 510.183 287.575C510.249 287.084 510.442 286.582 510.762 286.07C511.099 285.531 511.504 285.096 511.978 284.764C512.448 284.418 512.956 284.215 513.5 284.157L513.937 286.008C513.578 286.061 513.271 286.183 513.018 286.375C512.771 286.559 512.573 286.768 512.427 287.002C512.285 287.228 512.214 287.419 512.213 287.576C512.203 287.727 512.259 287.84 512.381 287.916C512.511 287.998 512.661 287.989 512.832 287.89C513.002 287.792 513.191 287.644 513.399 287.447C513.606 287.251 513.835 287.05 514.085 286.843C514.335 286.637 514.607 286.463 514.901 286.321C515.196 286.179 515.515 286.113 515.859 286.123C516.195 286.127 516.563 286.254 516.962 286.504C517.579 286.89 517.923 287.432 517.994 288.129C518.071 288.817 517.862 289.557 517.367 290.347ZM522.118 282.406L518.509 280.149C518.179 279.942 517.849 279.881 517.519 279.964C517.186 280.033 516.921 280.224 516.725 280.537C516.59 280.754 516.518 280.975 516.51 281.2C516.494 281.419 516.542 281.631 516.656 281.835C516.762 282.034 516.923 282.201 517.14 282.337L516.281 282.87C515.786 282.56 515.417 282.184 515.174 281.742C514.931 281.3 514.826 280.829 514.86 280.331C514.886 279.827 515.05 279.332 515.355 278.846C515.664 278.35 516.04 277.981 516.482 277.738C516.916 277.49 517.377 277.38 517.867 277.408C518.354 277.423 518.836 277.579 519.314 277.878L523.365 280.413L522.118 282.406ZM519.502 286.588L510.043 280.671L511.29 278.677L520.749 284.595L519.502 286.588ZM524.166 279.133L517.835 275.171L519.082 273.178L525.413 277.14L524.166 279.133ZM517.589 273.622C517.394 273.935 517.126 274.13 516.788 274.208C516.445 274.272 516.122 274.209 515.818 274.019C515.506 273.823 515.308 273.56 515.224 273.23C515.146 272.891 515.205 272.565 515.401 272.253C515.596 271.94 515.861 271.749 516.194 271.68C516.528 271.61 516.851 271.673 517.163 271.869C517.467 272.059 517.665 272.322 517.758 272.658C517.841 272.988 517.785 273.309 517.589 273.622ZM526.292 275.736L516.833 269.818L518.08 267.825L527.539 273.743L526.292 275.736ZM530.083 269.675L520.885 263.921L521.798 262.462L529.705 262.369L529.241 263.112L525.858 255.974L526.779 254.501L535.977 260.256L534.697 262.302L528.951 258.707L529.271 258.399L531.469 263.056L530.622 264.411L525.481 264.457L525.609 264.048L531.355 267.643L530.083 269.675ZM538.751 256.111C538.387 256.693 537.918 257.125 537.343 257.406C536.774 257.678 536.157 257.794 535.494 257.753C534.836 257.704 534.19 257.481 533.556 257.085C532.922 256.688 532.439 256.204 532.107 255.634C531.78 255.055 531.615 254.45 531.611 253.819C531.612 253.18 531.795 252.569 532.159 251.987C532.425 251.561 532.747 251.231 533.124 250.995C533.506 250.751 533.913 250.613 534.344 250.58C534.766 250.543 535.172 250.627 535.562 250.835L538.298 252.547C538.655 252.807 538.914 253.137 539.073 253.539C539.229 253.927 539.281 254.346 539.229 254.797C539.177 255.248 539.017 255.686 538.751 256.111ZM537.206 254.583C537.472 254.157 537.548 253.727 537.433 253.292C537.309 252.853 537.03 252.497 536.596 252.225C536.301 252.04 536.002 251.938 535.7 251.918C535.404 251.89 535.127 251.946 534.869 252.087C534.609 252.214 534.391 252.417 534.217 252.695C534.044 252.973 533.954 253.261 533.948 253.56C533.939 253.844 534.007 254.122 534.151 254.394C534.301 254.657 534.524 254.88 534.819 255.065C535.106 255.245 535.4 255.344 535.702 255.364C536.004 255.383 536.288 255.325 536.554 255.19C536.82 255.054 537.037 254.852 537.206 254.583ZM539.713 254.284L538.006 253.216L536.656 251.955L534.932 251.293L533.381 250.323L534.604 248.368L540.936 252.33L539.713 254.284ZM544.43 246.744L540.821 244.486C540.491 244.28 540.161 244.218 539.831 244.302C539.498 244.371 539.233 244.562 539.037 244.875C538.902 245.092 538.83 245.313 538.822 245.538C538.806 245.757 538.854 245.969 538.968 246.173C539.074 246.372 539.235 246.539 539.452 246.675L538.593 247.207C538.098 246.898 537.729 246.522 537.486 246.08C537.243 245.637 537.138 245.167 537.172 244.669C537.198 244.165 537.362 243.67 537.667 243.183C537.976 242.688 538.352 242.319 538.794 242.076C539.228 241.828 539.689 241.718 540.179 241.746C540.666 241.76 541.148 241.917 541.626 242.216L545.677 244.751L544.43 246.744ZM541.814 250.926L532.355 245.009L533.602 243.015L543.061 248.933L541.814 250.926ZM546.478 243.471L540.147 239.509L541.394 237.516L547.725 241.477L546.478 243.471ZM539.901 237.96C539.706 238.273 539.438 238.468 539.1 238.546C538.757 238.61 538.434 238.547 538.13 238.357C537.818 238.161 537.62 237.898 537.536 237.568C537.458 237.229 537.517 236.903 537.713 236.591C537.908 236.278 538.173 236.087 538.506 236.017C538.84 235.948 539.163 236.011 539.475 236.207C539.779 236.397 539.977 236.66 540.07 236.996C540.153 237.326 540.097 237.647 539.901 237.96ZM551.22 235.892L547.611 233.634C547.281 233.427 546.951 233.366 546.621 233.449C546.288 233.519 546.023 233.71 545.827 234.022C545.692 234.239 545.62 234.46 545.612 234.685C545.596 234.904 545.644 235.116 545.758 235.32C545.864 235.519 546.025 235.687 546.242 235.822L545.383 236.355C544.888 236.045 544.522 235.665 544.284 235.214C544.047 234.763 543.947 234.284 543.987 233.777C544.023 233.256 544.193 232.752 544.497 232.266C544.791 231.797 545.162 231.455 545.61 231.24C546.056 231.011 546.526 230.906 547.021 230.926C547.516 230.946 547.981 231.092 548.415 231.363L552.467 233.898L551.22 235.892ZM548.604 240.074L542.272 236.112L543.519 234.119L549.851 238.08L548.604 240.074ZM555.086 230.003C554.711 230.602 554.233 231.046 553.653 231.336C553.079 231.617 552.46 231.737 551.796 231.697C551.138 231.648 550.492 231.425 549.858 231.028C549.224 230.631 548.741 230.148 548.409 229.578C548.082 228.999 547.919 228.389 547.921 227.75C547.928 227.101 548.119 226.478 548.494 225.878C548.765 225.444 549.092 225.105 549.475 224.861C549.862 224.608 550.275 224.461 550.711 224.42C551.145 224.364 551.556 224.441 551.946 224.648L554.617 226.319C554.974 226.579 555.234 226.917 555.397 227.333C555.551 227.743 555.607 228.184 555.567 228.654C555.518 229.119 555.357 229.568 555.086 230.003ZM553.508 228.526C553.687 228.239 553.781 227.954 553.79 227.669C553.79 227.379 553.716 227.103 553.566 226.84C553.416 226.577 553.194 226.353 552.898 226.169C552.603 225.984 552.309 225.884 552.015 225.87C551.719 225.842 551.438 225.895 551.172 226.031C550.911 226.158 550.694 226.36 550.52 226.638C550.346 226.916 550.256 227.205 550.25 227.503C550.25 227.793 550.322 228.074 550.467 228.345C550.616 228.608 550.835 228.829 551.121 229.009C551.408 229.188 551.702 229.288 552.004 229.307C552.306 229.327 552.59 229.269 552.856 229.133C553.122 228.998 553.34 228.795 553.508 228.526ZM557.238 226.273L556.015 228.228L554.308 227.16L552.959 225.898L551.209 225.275L546.532 222.349L547.779 220.356L557.238 226.273ZM558.116 224.87L551.784 220.908L553.031 218.915L559.363 222.876L558.116 224.87ZM555.884 220.7L554.711 221.126C554.076 220.499 553.677 219.863 553.513 219.217C553.35 218.57 553.485 217.9 553.92 217.205C554.11 216.901 554.324 216.666 554.56 216.5C554.794 216.32 555.061 216.203 555.36 216.148L556.117 218.271C555.967 218.298 555.825 218.361 555.692 218.459C555.558 218.556 555.44 218.688 555.336 218.853C555.13 219.183 555.068 219.513 555.152 219.843C555.232 220.159 555.476 220.445 555.884 220.7ZM563.268 216.925C562.904 217.507 562.435 217.938 561.86 218.219C561.291 218.492 560.674 218.607 560.011 218.567C559.353 218.518 558.707 218.295 558.073 217.898C557.439 217.501 556.956 217.018 556.623 216.448C556.297 215.869 556.132 215.264 556.127 214.633C556.129 213.993 556.312 213.382 556.676 212.8C556.942 212.375 557.264 212.044 557.641 211.809C558.023 211.565 558.43 211.426 558.861 211.394C559.283 211.356 559.689 211.441 560.079 211.649L562.815 213.36C563.172 213.62 563.431 213.951 563.59 214.353C563.746 214.741 563.798 215.16 563.746 215.61C563.694 216.061 563.534 216.499 563.268 216.925ZM561.723 215.396C561.989 214.97 562.065 214.54 561.95 214.106C561.826 213.666 561.547 213.31 561.113 213.039C560.818 212.854 560.519 212.752 560.217 212.732C559.921 212.704 559.644 212.76 559.386 212.901C559.126 213.028 558.908 213.23 558.734 213.508C558.561 213.786 558.471 214.075 558.465 214.373C558.456 214.658 558.524 214.936 558.668 215.207C558.818 215.47 559.041 215.694 559.336 215.879C559.623 216.058 559.917 216.158 560.219 216.177C560.521 216.197 560.805 216.139 561.071 216.003C561.337 215.868 561.554 215.665 561.723 215.396ZM564.23 215.097L562.523 214.03L561.173 212.768L559.449 212.106L557.898 211.136L559.121 209.182L565.453 213.143L564.23 215.097ZM524.237 315.16C523.765 315.916 523.236 316.491 522.65 316.886C522.061 317.267 521.374 317.526 520.587 317.662L520.103 315.51C520.626 315.427 521.095 315.267 521.509 315.03C521.92 314.78 522.274 314.415 522.573 313.938C522.845 313.503 522.976 313.12 522.966 312.788C522.962 312.447 522.821 312.189 522.543 312.015C522.291 311.858 522.038 311.808 521.784 311.867C521.53 311.925 521.265 312.05 520.989 312.24C520.718 312.421 520.433 312.635 520.133 312.883C519.839 313.121 519.532 313.352 519.211 313.574C518.882 313.792 518.536 313.968 518.173 314.103C517.807 314.225 517.423 314.269 517.021 314.235C516.611 314.196 516.171 314.029 515.702 313.736C515.138 313.383 514.735 312.944 514.496 312.419C514.261 311.886 514.192 311.311 514.288 310.694C514.375 310.072 514.617 309.443 515.014 308.809C515.416 308.167 515.896 307.651 516.453 307.262C517.016 306.865 517.601 306.615 518.209 306.512L518.694 308.664C518.233 308.763 517.844 308.912 517.526 309.112C517.213 309.303 516.945 309.576 516.722 309.933C516.499 310.289 516.392 310.614 516.401 310.91C516.401 311.2 516.526 311.423 516.778 311.581C517.013 311.728 517.253 311.769 517.498 311.705C517.735 311.636 517.984 311.508 518.246 311.321C518.513 311.126 518.794 310.909 519.089 310.67C519.388 310.422 519.703 310.19 520.032 309.973C520.361 309.756 520.713 309.59 521.088 309.474C521.459 309.343 521.859 309.303 522.287 309.354C522.706 309.398 523.155 309.57 523.632 309.869C524.51 310.418 525.004 311.162 525.117 312.103C525.221 313.038 524.928 314.057 524.237 315.16ZM529.08 307.42C528.651 308.107 528.128 308.632 527.514 308.997C526.896 309.347 526.239 309.517 525.546 309.506C524.852 309.494 524.188 309.29 523.554 308.894C522.92 308.497 522.447 307.996 522.137 307.391C521.823 306.772 521.684 306.117 521.718 305.425C521.752 304.733 521.97 304.066 522.372 303.423C522.763 302.798 523.243 302.33 523.811 302.021C524.379 301.712 524.986 301.572 525.632 301.602C526.284 301.623 526.918 301.826 527.535 302.212C527.648 302.282 527.764 302.367 527.883 302.466C527.999 302.551 528.129 302.662 528.272 302.8L524.87 308.267L523.502 307.411L526.375 302.791L526.41 304.01C526.04 303.79 525.705 303.659 525.405 303.617C525.097 303.569 524.816 303.611 524.564 303.743C524.309 303.862 524.089 304.068 523.904 304.364C523.709 304.676 523.611 304.996 523.612 305.323C523.61 305.636 523.698 305.939 523.877 306.232C524.062 306.517 524.341 306.776 524.714 307.01C525.088 307.243 525.45 307.379 525.801 307.417C526.148 307.441 526.472 307.378 526.772 307.227C527.068 307.062 527.322 306.81 527.534 306.472C527.73 306.159 527.854 305.844 527.908 305.527C527.952 305.204 527.926 304.88 527.828 304.553L529.608 304.143C529.777 304.684 529.814 305.233 529.719 305.79C529.624 306.347 529.411 306.891 529.08 307.42ZM534.062 299.138L530.454 296.88C530.123 296.674 529.793 296.612 529.463 296.696C529.13 296.765 528.865 296.956 528.67 297.269C528.534 297.486 528.462 297.707 528.454 297.932C528.438 298.151 528.487 298.363 528.601 298.567C528.706 298.766 528.867 298.933 529.084 299.069L528.225 299.601C527.73 299.291 527.361 298.915 527.118 298.473C526.875 298.031 526.771 297.561 526.804 297.062C526.83 296.559 526.994 296.063 527.299 295.577C527.608 295.082 527.984 294.713 528.427 294.47C528.86 294.221 529.322 294.111 529.811 294.14C530.298 294.154 530.78 294.311 531.258 294.61L535.309 297.145L534.062 299.138ZM531.446 303.32L521.987 297.402L523.234 295.409L532.693 301.327L531.446 303.32ZM540.63 294.958C540.195 295.652 539.69 296.189 539.116 296.566C538.555 296.941 537.963 297.144 537.338 297.176L536.88 295.185C537.29 295.128 537.652 295.004 537.965 294.813C538.283 294.613 538.567 294.314 538.817 293.914C539.127 293.419 539.247 292.956 539.178 292.526C539.114 292.088 538.86 291.73 538.418 291.453L536.802 290.442L535.633 289.239L534.064 288.675L532.436 287.656L533.659 285.702L539.613 289.427C540.264 289.834 540.733 290.339 541.021 290.942C541.308 291.545 541.421 292.196 541.359 292.894C541.297 293.592 541.054 294.28 540.63 294.958ZM537.537 293.15C537.173 293.731 536.711 294.161 536.15 294.439C535.59 294.717 534.989 294.837 534.348 294.798C533.708 294.76 533.096 294.559 532.514 294.195C531.924 293.825 531.475 293.363 531.169 292.809C530.855 292.25 530.704 291.66 530.717 291.04C530.722 290.415 530.906 289.811 531.27 289.229C531.542 288.795 531.867 288.46 532.243 288.224C532.617 287.975 533.017 287.838 533.443 287.814C533.865 287.776 534.276 287.864 534.674 288.077L537.084 289.585C537.441 289.845 537.7 290.176 537.859 290.577C538.015 290.965 538.067 291.384 538.015 291.835C537.963 292.286 537.803 292.724 537.537 293.15ZM536.002 291.663C536.176 291.385 536.264 291.108 536.268 290.832C536.276 290.548 536.213 290.291 536.079 290.062C535.941 289.819 535.742 289.615 535.481 289.452C535.221 289.289 534.951 289.199 534.672 289.182C534.398 289.155 534.135 289.208 533.883 289.341C533.637 289.465 533.427 289.665 533.253 289.943C533.084 290.213 532.996 290.489 532.987 290.774C532.978 291.058 533.042 291.322 533.18 291.566C533.318 291.809 533.517 292.012 533.778 292.175C534.021 292.327 534.286 292.415 534.574 292.438C534.853 292.455 535.116 292.402 535.363 292.279C535.615 292.146 535.828 291.941 536.002 291.663ZM542.655 285.693C542.291 286.275 541.822 286.706 541.247 286.987C540.678 287.26 540.062 287.376 539.398 287.335C538.74 287.286 538.094 287.063 537.46 286.666C536.826 286.27 536.343 285.786 536.011 285.216C535.684 284.637 535.519 284.032 535.515 283.401C535.516 282.761 535.699 282.15 536.063 281.568C536.329 281.143 536.651 280.812 537.028 280.577C537.41 280.333 537.817 280.194 538.248 280.162C538.671 280.124 539.077 280.209 539.467 280.417L542.203 282.128C542.56 282.388 542.818 282.719 542.978 283.121C543.134 283.509 543.186 283.928 543.133 284.379C543.081 284.829 542.922 285.267 542.655 285.693ZM541.11 284.164C541.377 283.739 541.452 283.309 541.337 282.874C541.214 282.434 540.935 282.078 540.501 281.807C540.205 281.622 539.907 281.52 539.605 281.5C539.308 281.472 539.031 281.528 538.774 281.669C538.513 281.796 538.296 281.998 538.122 282.276C537.948 282.554 537.858 282.843 537.853 283.141C537.844 283.426 537.912 283.704 538.056 283.975C538.206 284.238 538.428 284.462 538.724 284.647C539.01 284.826 539.304 284.926 539.606 284.945C539.908 284.965 540.192 284.907 540.458 284.772C540.725 284.636 540.942 284.433 541.11 284.164ZM543.617 283.866L541.911 282.798L540.561 281.536L538.836 280.874L537.286 279.904L538.508 277.95L544.84 281.911L543.617 283.866ZM545.718 280.508L536.26 274.59L537.507 272.597L546.965 278.515L545.718 280.508Z" fill="url(#paint3_linear_64_589)"/>
<g clip-path="url(#clip1_64_589)">
<path fill-rule="evenodd" clip-rule="evenodd" d="M408.14 275.649C404.569 260.141 414.246 244.674 429.754 241.103C430.53 240.924 431.303 241.408 431.481 242.183L431.805 243.587C431.891 243.96 431.825 244.351 431.622 244.675C431.42 244.999 431.097 245.229 430.724 245.315C417.542 248.35 409.317 261.497 412.352 274.679C412.438 275.051 412.372 275.443 412.17 275.767C411.967 276.09 411.644 276.321 411.272 276.406L409.868 276.73C409.092 276.908 408.319 276.424 408.14 275.649ZM416.564 273.709C414.065 262.853 420.838 252.027 431.694 249.527C432.47 249.348 433.243 249.832 433.421 250.607L433.745 252.011C433.831 252.384 433.765 252.775 433.562 253.099C433.36 253.423 433.036 253.653 432.664 253.739C424.135 255.703 418.812 264.21 420.776 272.739C420.955 273.515 420.471 274.288 419.696 274.466L418.292 274.79C417.919 274.876 417.528 274.81 417.204 274.607C416.88 274.405 416.65 274.081 416.564 273.709ZM425.011 271.733C423.582 265.53 427.453 259.343 433.656 257.915C434.432 257.736 435.205 258.22 435.384 258.995L435.707 260.399C435.793 260.772 435.727 261.163 435.524 261.487C435.322 261.811 434.999 262.041 434.626 262.127C430.749 263.02 428.33 266.886 429.223 270.763C429.401 271.539 428.918 272.312 428.142 272.491L426.738 272.814C425.963 272.992 425.189 272.509 425.011 271.733Z" fill="url(#paint4_linear_64_589)"/>
</g>
</g>
<g clip-path="url(#clip2_64_589)" filter="url(#filter0_dddd_64_589)">
<rect x="299" y="351.227" width="294.873" height="180.574" rx="19.21" transform="rotate(-90 299 351.227)" fill="black"/>
<path d="M336.461 76.8746C336.461 99.7561 355.207 118.307 378.329 118.307C388.915 118.307 398.592 114.414 405.959 107.992C406.035 107.936 406.107 107.873 406.179 107.803L406.865 107.191L440.438 76.8761L415.1 53.999L408.248 60.7798C410.883 65.5661 412.384 71.0508 412.384 76.8761C412.384 95.4741 397.098 110.602 378.304 110.602C359.51 110.602 344.223 95.4741 344.223 76.8761C344.223 58.2781 359.51 43.1503 378.304 43.1503C383.764 43.1503 388.93 44.4263 393.507 46.6952L399.265 40.9964C393.107 37.4673 385.955 35.4484 378.327 35.4484C355.207 35.447 336.461 53.9932 336.461 76.8746Z" fill="url(#paint5_linear_64_589)"/>
<path d="M393.605 55.9523C389.304 52.8586 384.017 51.0366 378.306 51.0366C363.909 51.0366 352.197 62.6268 352.197 76.8738C352.197 91.1208 363.909 102.711 378.306 102.711C392.703 102.711 404.415 91.1208 404.415 76.8738C404.415 70.8043 402.286 65.2118 398.732 60.7976L410.065 49.456L404.885 44.7889L393.605 55.9523ZM378.306 96.3871C367.428 96.3871 358.586 87.6334 358.586 76.8723C358.586 66.1113 367.428 57.3576 378.306 57.3576C389.185 57.3576 398.026 66.1113 398.026 76.8723C398.026 87.6334 389.18 96.3871 378.306 96.3871Z" fill="url(#paint6_linear_64_589)"/>
<path d="M421.906 301.274H420.123V298.984C420.123 298.503 420 298.134 419.754 297.878C419.508 297.611 419.175 297.478 418.755 297.478C418.366 297.478 418.043 297.606 417.787 297.862C417.531 298.118 417.403 298.487 417.403 298.969V301.274H415.528V298.692C415.528 297.975 415.666 297.345 415.943 296.802C416.209 296.259 416.583 295.834 417.065 295.526C417.546 295.219 418.1 295.065 418.725 295.065C419.36 295.065 419.918 295.219 420.4 295.526C420.871 295.834 421.24 296.264 421.506 296.817C421.773 297.37 421.906 298.021 421.906 298.769V301.274ZM426.378 303.118H415.528V300.705H426.378V303.118ZM426.378 297.217L421.706 300.598L421.107 298.385L426.378 294.358V297.217ZM426.547 290.154C426.547 290.84 426.409 291.45 426.132 291.982C425.845 292.505 425.456 292.915 424.964 293.212C424.462 293.509 423.888 293.658 423.243 293.658H418.909V291.306H423.212C423.468 291.306 423.689 291.265 423.873 291.183C424.057 291.091 424.201 290.958 424.303 290.784C424.406 290.61 424.457 290.399 424.457 290.154C424.457 289.805 424.349 289.529 424.134 289.324C423.909 289.119 423.601 289.016 423.212 289.016H418.909V286.665H423.227C423.883 286.665 424.462 286.814 424.964 287.111C425.456 287.408 425.845 287.818 426.132 288.34C426.409 288.863 426.547 289.467 426.547 290.154ZM426.562 282.469C426.562 282.909 426.506 283.345 426.393 283.775C426.281 284.195 426.122 284.589 425.917 284.958C425.702 285.317 425.456 285.624 425.179 285.88L423.827 284.543C424.093 284.297 424.303 284.005 424.457 283.667C424.6 283.329 424.672 282.96 424.672 282.561C424.672 282.284 424.631 282.074 424.549 281.931C424.467 281.777 424.354 281.7 424.211 281.7C424.027 281.7 423.888 281.792 423.796 281.977C423.694 282.151 423.607 282.376 423.535 282.653C423.453 282.93 423.366 283.222 423.274 283.529C423.181 283.836 423.053 284.128 422.889 284.405C422.725 284.682 422.5 284.907 422.213 285.081C421.916 285.255 421.542 285.342 421.091 285.342C420.61 285.342 420.195 285.22 419.847 284.974C419.488 284.728 419.206 284.379 419.001 283.929C418.796 283.478 418.694 282.95 418.694 282.346C418.694 281.71 418.807 281.127 419.032 280.594C419.247 280.051 419.57 279.61 420 279.272L421.353 280.609C421.076 280.845 420.881 281.111 420.769 281.408C420.656 281.695 420.6 281.977 420.6 282.253C420.6 282.52 420.641 282.72 420.723 282.853C420.794 282.986 420.902 283.053 421.045 283.053C421.199 283.053 421.322 282.966 421.414 282.791C421.506 282.617 421.588 282.392 421.66 282.115C421.732 281.839 421.819 281.547 421.921 281.239C422.024 280.932 422.162 280.64 422.336 280.363C422.51 280.087 422.746 279.861 423.043 279.687C423.33 279.513 423.709 279.426 424.18 279.426C424.908 279.426 425.487 279.702 425.917 280.256C426.347 280.799 426.562 281.536 426.562 282.469ZM426.378 273.217H422.121C421.732 273.217 421.419 273.34 421.184 273.586C420.938 273.821 420.815 274.124 420.815 274.493C420.815 274.749 420.871 274.974 420.984 275.169C421.086 275.363 421.24 275.517 421.445 275.63C421.639 275.742 421.865 275.799 422.121 275.799L421.675 276.706C421.091 276.706 420.579 276.583 420.139 276.337C419.698 276.091 419.36 275.748 419.124 275.307C418.878 274.866 418.755 274.359 418.755 273.786C418.755 273.202 418.878 272.689 419.124 272.249C419.36 271.808 419.693 271.47 420.123 271.235C420.543 270.989 421.035 270.866 421.598 270.866H426.378V273.217ZM426.378 278.15H415.221V275.799H426.378V278.15ZM426.378 269.356H418.909V267.004H426.378V269.356ZM417.879 268.172C417.879 268.541 417.756 268.848 417.511 269.094C417.254 269.33 416.947 269.448 416.589 269.448C416.22 269.448 415.912 269.33 415.666 269.094C415.421 268.848 415.298 268.541 415.298 268.172C415.298 267.803 415.421 267.501 415.666 267.266C415.912 267.03 416.22 266.912 416.589 266.912C416.947 266.912 417.254 267.03 417.511 267.266C417.756 267.501 417.879 267.803 417.879 268.172ZM426.378 265.348H415.221V262.997H426.378V265.348ZM426.378 258.2H415.528V256.479L422.182 252.206V253.082L415.528 248.825V247.089H426.378V249.501H419.601L419.708 249.071L424.042 251.853V253.451L419.708 256.217L419.601 255.802H426.378V258.2ZM426.532 242.103C426.532 242.79 426.363 243.404 426.024 243.947C425.686 244.48 425.225 244.905 424.641 245.223C424.057 245.53 423.391 245.684 422.644 245.684C421.896 245.684 421.23 245.53 420.646 245.223C420.062 244.905 419.601 244.48 419.263 243.947C418.924 243.404 418.755 242.79 418.755 242.103C418.755 241.601 418.853 241.15 419.047 240.751C419.242 240.341 419.514 240.008 419.862 239.752C420.2 239.496 420.589 239.352 421.03 239.322H424.257C424.698 239.352 425.092 239.496 425.44 239.752C425.779 239.998 426.045 240.326 426.24 240.736C426.434 241.145 426.532 241.601 426.532 242.103ZM424.411 241.627C424.411 241.125 424.247 240.72 423.919 240.413C423.581 240.105 423.156 239.952 422.644 239.952C422.295 239.952 421.988 240.024 421.721 240.167C421.455 240.3 421.25 240.495 421.107 240.751C420.953 240.997 420.876 241.284 420.876 241.612C420.876 241.939 420.953 242.231 421.107 242.488C421.25 242.733 421.455 242.933 421.721 243.087C421.988 243.23 422.295 243.302 422.644 243.302C422.982 243.302 423.284 243.23 423.55 243.087C423.817 242.943 424.027 242.744 424.18 242.488C424.334 242.231 424.411 241.945 424.411 241.627ZM426.378 240.044H424.365L422.551 239.691L420.738 240.044H418.909V237.739H426.378V240.044ZM426.378 231.15H422.121C421.732 231.15 421.419 231.273 421.184 231.519C420.938 231.755 420.815 232.057 420.815 232.426C420.815 232.682 420.871 232.907 420.984 233.102C421.086 233.297 421.24 233.45 421.445 233.563C421.639 233.676 421.865 233.732 422.121 233.732L421.675 234.639C421.091 234.639 420.579 234.516 420.139 234.27C419.698 234.024 419.36 233.681 419.124 233.24C418.878 232.8 418.755 232.292 418.755 231.719C418.755 231.135 418.878 230.623 419.124 230.182C419.36 229.741 419.693 229.403 420.123 229.168C420.543 228.922 421.035 228.799 421.598 228.799H426.378V231.15ZM426.378 236.083H415.221V233.732H426.378V236.083ZM426.378 227.289H418.909V224.937H426.378V227.289ZM417.879 226.105C417.879 226.474 417.756 226.782 417.511 227.027C417.254 227.263 416.947 227.381 416.589 227.381C416.22 227.381 415.912 227.263 415.666 227.027C415.421 226.782 415.298 226.474 415.298 226.105C415.298 225.737 415.421 225.434 415.666 225.199C415.912 224.963 416.22 224.845 416.589 224.845C416.947 224.845 417.254 224.963 417.511 225.199C417.756 225.434 417.879 225.737 417.879 226.105ZM426.378 218.348H422.121C421.732 218.348 421.419 218.471 421.184 218.717C420.938 218.953 420.815 219.255 420.815 219.624C420.815 219.88 420.871 220.106 420.984 220.3C421.086 220.495 421.24 220.649 421.445 220.761C421.639 220.874 421.865 220.93 422.121 220.93L421.675 221.837C421.091 221.837 420.579 221.709 420.139 221.453C419.698 221.197 419.36 220.843 419.124 220.392C418.878 219.931 418.755 219.414 418.755 218.84C418.755 218.287 418.889 217.8 419.155 217.38C419.411 216.95 419.754 216.612 420.185 216.366C420.615 216.12 421.086 215.997 421.598 215.997H426.378V218.348ZM426.378 223.282H418.909V220.93H426.378V223.282ZM426.532 211.306C426.532 212.013 426.363 212.643 426.024 213.196C425.686 213.739 425.225 214.169 424.641 214.487C424.057 214.794 423.391 214.948 422.644 214.948C421.896 214.948 421.23 214.794 420.646 214.487C420.062 214.169 419.601 213.739 419.263 213.196C418.924 212.643 418.755 212.013 418.755 211.306C418.755 210.794 418.853 210.333 419.047 209.923C419.242 209.503 419.514 209.159 419.862 208.893C420.2 208.616 420.589 208.463 421.03 208.432H424.18C424.621 208.463 425.02 208.611 425.379 208.878C425.727 209.144 426.009 209.487 426.224 209.907C426.429 210.327 426.532 210.794 426.532 211.306ZM424.411 210.891C424.411 210.553 424.339 210.261 424.196 210.015C424.042 209.769 423.832 209.574 423.566 209.431C423.299 209.288 422.992 209.216 422.644 209.216C422.295 209.216 421.993 209.288 421.737 209.431C421.47 209.564 421.26 209.759 421.107 210.015C420.953 210.261 420.876 210.548 420.876 210.876C420.876 211.203 420.953 211.495 421.107 211.752C421.26 211.997 421.47 212.197 421.737 212.351C422.003 212.494 422.305 212.566 422.644 212.566C422.982 212.566 423.284 212.494 423.55 212.351C423.817 212.207 424.027 212.008 424.18 211.752C424.334 211.495 424.411 211.209 424.411 210.891ZM426.378 207.003V209.308H424.365L422.551 208.955L420.738 209.354H415.221V207.003H426.378ZM426.378 205.347H418.909V202.996H426.378V205.347ZM422.275 202.996L421.506 203.98C420.635 203.785 419.959 203.457 419.478 202.996C418.996 202.535 418.755 201.895 418.755 201.075C418.755 200.716 418.812 200.404 418.924 200.138C419.027 199.861 419.191 199.62 419.416 199.415L421.184 200.814C421.071 200.916 420.984 201.044 420.922 201.198C420.861 201.352 420.83 201.526 420.83 201.72C420.83 202.11 420.953 202.422 421.199 202.658C421.435 202.883 421.793 202.996 422.275 202.996ZM426.532 195.879C426.532 196.566 426.363 197.18 426.024 197.723C425.686 198.256 425.225 198.681 424.641 198.999C424.057 199.306 423.391 199.46 422.644 199.46C421.896 199.46 421.23 199.306 420.646 198.999C420.062 198.681 419.601 198.256 419.263 197.723C418.924 197.18 418.755 196.566 418.755 195.879C418.755 195.377 418.853 194.926 419.047 194.527C419.242 194.117 419.514 193.784 419.862 193.528C420.2 193.272 420.589 193.128 421.03 193.098H424.257C424.698 193.128 425.092 193.272 425.44 193.528C425.779 193.774 426.045 194.102 426.24 194.512C426.434 194.921 426.532 195.377 426.532 195.879ZM424.411 195.403C424.411 194.901 424.247 194.496 423.919 194.189C423.581 193.881 423.156 193.728 422.644 193.728C422.295 193.728 421.988 193.799 421.721 193.943C421.455 194.076 421.25 194.271 421.107 194.527C420.953 194.773 420.876 195.06 420.876 195.388C420.876 195.715 420.953 196.007 421.107 196.263C421.25 196.509 421.455 196.709 421.721 196.863C421.988 197.006 422.295 197.078 422.644 197.078C422.982 197.078 423.284 197.006 423.55 196.863C423.817 196.719 424.027 196.52 424.18 196.263C424.334 196.007 424.411 195.72 424.411 195.403ZM426.378 193.82H424.365L422.551 193.467L420.738 193.82H418.909V191.515H426.378V193.82ZM445.547 299.86C445.547 300.751 445.404 301.52 445.117 302.165C444.82 302.8 444.374 303.384 443.78 303.917L442.227 302.35C442.627 302.001 442.94 301.617 443.165 301.197C443.38 300.767 443.488 300.27 443.488 299.706C443.488 299.194 443.395 298.8 443.211 298.523C443.027 298.236 442.77 298.093 442.443 298.093C442.146 298.093 441.905 298.185 441.72 298.369C441.536 298.554 441.377 298.8 441.244 299.107C441.111 299.404 440.983 299.737 440.86 300.106C440.737 300.465 440.598 300.823 440.445 301.182C440.281 301.54 440.081 301.873 439.845 302.181C439.6 302.478 439.297 302.718 438.939 302.903C438.57 303.087 438.109 303.18 437.556 303.18C436.89 303.18 436.316 303.021 435.834 302.703C435.353 302.375 434.989 301.924 434.743 301.351C434.487 300.777 434.359 300.116 434.359 299.368C434.359 298.61 434.492 297.919 434.759 297.294C435.025 296.658 435.389 296.136 435.85 295.726L437.402 297.294C437.064 297.621 436.813 297.954 436.649 298.293C436.485 298.62 436.403 298.994 436.403 299.414C436.403 299.834 436.485 300.167 436.649 300.413C436.803 300.659 437.028 300.782 437.325 300.782C437.602 300.782 437.827 300.69 438.001 300.506C438.165 300.321 438.309 300.08 438.432 299.783C438.555 299.476 438.677 299.143 438.8 298.784C438.923 298.415 439.067 298.052 439.231 297.693C439.395 297.335 439.605 297.007 439.861 296.71C440.107 296.402 440.424 296.156 440.814 295.972C441.193 295.788 441.664 295.695 442.227 295.695C443.262 295.695 444.077 296.064 444.671 296.802C445.255 297.539 445.547 298.559 445.547 299.86ZM445.547 290.73C445.547 291.54 445.383 292.262 445.055 292.897C444.717 293.522 444.251 294.014 443.657 294.372C443.062 294.731 442.391 294.91 441.644 294.91C440.896 294.91 440.23 294.736 439.646 294.388C439.051 294.029 438.585 293.548 438.247 292.943C437.909 292.339 437.74 291.657 437.74 290.899C437.74 290.162 437.899 289.511 438.216 288.948C438.534 288.384 438.975 287.944 439.538 287.626C440.102 287.298 440.747 287.134 441.474 287.134C441.608 287.134 441.751 287.144 441.905 287.165C442.048 287.175 442.217 287.201 442.412 287.242L442.427 293.681H440.814L440.798 288.241L441.474 289.255C441.044 289.265 440.691 289.332 440.414 289.455C440.127 289.578 439.912 289.762 439.769 290.008C439.615 290.244 439.538 290.536 439.538 290.884C439.538 291.253 439.625 291.576 439.799 291.852C439.963 292.119 440.199 292.329 440.506 292.482C440.814 292.626 441.188 292.697 441.628 292.697C442.069 292.697 442.448 292.621 442.765 292.467C443.073 292.303 443.313 292.078 443.488 291.791C443.652 291.494 443.734 291.145 443.734 290.746C443.734 290.377 443.672 290.044 443.549 289.747C443.416 289.45 443.221 289.188 442.965 288.963L444.256 287.672C444.686 288.041 445.009 288.487 445.224 289.009C445.439 289.532 445.547 290.105 445.547 290.73ZM445.378 281.066H441.121C440.732 281.066 440.419 281.189 440.184 281.435C439.938 281.671 439.815 281.973 439.815 282.342C439.815 282.598 439.871 282.823 439.984 283.018C440.086 283.212 440.24 283.366 440.445 283.479C440.639 283.592 440.865 283.648 441.121 283.648L440.675 284.555C440.091 284.555 439.579 284.432 439.139 284.186C438.698 283.94 438.36 283.597 438.124 283.156C437.878 282.716 437.755 282.208 437.755 281.635C437.755 281.051 437.878 280.538 438.124 280.098C438.36 279.657 438.693 279.319 439.123 279.084C439.543 278.838 440.035 278.715 440.598 278.715H445.378V281.066ZM445.378 285.999H434.221V283.648H445.378V285.999ZM448.728 274.039C448.728 274.858 448.585 275.581 448.298 276.206C448.021 276.82 447.627 277.307 447.115 277.666L445.67 276.221C445.988 275.955 446.228 275.658 446.392 275.33C446.556 274.992 446.638 274.587 446.638 274.116C446.638 273.532 446.495 273.076 446.208 272.748C445.921 272.41 445.516 272.241 444.994 272.241H443.088L441.459 271.841L439.83 272.195H437.909V269.889H444.932C445.701 269.889 446.367 270.069 446.93 270.427C447.494 270.786 447.934 271.278 448.252 271.903C448.569 272.528 448.728 273.24 448.728 274.039ZM445.147 274.146C445.147 274.833 444.983 275.442 444.656 275.975C444.328 276.508 443.882 276.928 443.319 277.235C442.755 277.543 442.13 277.696 441.444 277.696C440.747 277.696 440.122 277.543 439.569 277.235C439.005 276.928 438.565 276.508 438.247 275.975C437.919 275.442 437.755 274.833 437.755 274.146C437.755 273.634 437.853 273.178 438.047 272.779C438.232 272.369 438.498 272.041 438.847 271.795C439.185 271.539 439.579 271.396 440.03 271.365H442.873C443.313 271.396 443.708 271.539 444.056 271.795C444.394 272.041 444.661 272.369 444.855 272.779C445.05 273.188 445.147 273.644 445.147 274.146ZM443.057 273.701C443.057 273.373 442.986 273.091 442.842 272.855C442.699 272.61 442.509 272.425 442.274 272.302C442.028 272.169 441.751 272.102 441.444 272.102C441.136 272.102 440.86 272.169 440.614 272.302C440.368 272.425 440.173 272.61 440.03 272.855C439.886 273.091 439.815 273.373 439.815 273.701C439.815 274.018 439.886 274.3 440.03 274.546C440.173 274.792 440.368 274.981 440.614 275.115C440.86 275.248 441.136 275.314 441.444 275.314C441.731 275.314 442.002 275.248 442.258 275.115C442.504 274.981 442.699 274.797 442.842 274.561C442.986 274.315 443.057 274.029 443.057 273.701ZM445.532 265.11C445.532 265.797 445.363 266.411 445.024 266.954C444.686 267.487 444.225 267.912 443.641 268.23C443.057 268.537 442.391 268.691 441.644 268.691C440.896 268.691 440.23 268.537 439.646 268.23C439.062 267.912 438.601 267.487 438.263 266.954C437.924 266.411 437.755 265.797 437.755 265.11C437.755 264.608 437.853 264.157 438.047 263.758C438.242 263.348 438.514 263.015 438.862 262.759C439.2 262.503 439.589 262.359 440.03 262.329H443.257C443.698 262.359 444.092 262.503 444.44 262.759C444.779 263.005 445.045 263.333 445.24 263.743C445.434 264.152 445.532 264.608 445.532 265.11ZM443.411 264.634C443.411 264.132 443.247 263.727 442.919 263.42C442.581 263.112 442.156 262.959 441.644 262.959C441.295 262.959 440.988 263.03 440.721 263.174C440.455 263.307 440.25 263.502 440.107 263.758C439.953 264.004 439.876 264.291 439.876 264.618C439.876 264.946 439.953 265.238 440.107 265.494C440.25 265.74 440.455 265.94 440.721 266.094C440.988 266.237 441.295 266.309 441.644 266.309C441.982 266.309 442.284 266.237 442.55 266.094C442.817 265.95 443.027 265.751 443.18 265.494C443.334 265.238 443.411 264.951 443.411 264.634ZM445.378 263.051H443.365L441.551 262.697L439.738 263.051H437.909V260.746H445.378V263.051ZM445.378 259.09H434.221V256.739H445.378V259.09Z" fill="url(#paint7_linear_64_589)"/>
<path fill-rule="evenodd" clip-rule="evenodd" d="M326.169 327.941C314.916 316.688 314.916 298.444 326.169 287.191C326.732 286.628 327.644 286.628 328.207 287.191L329.226 288.209C329.496 288.48 329.648 288.846 329.648 289.228C329.648 289.61 329.496 289.977 329.226 290.247C319.661 299.812 319.661 315.32 329.226 324.885C329.496 325.155 329.648 325.522 329.648 325.904C329.648 326.286 329.496 326.652 329.226 326.923L328.207 327.941C327.644 328.504 326.732 328.504 326.169 327.941ZM332.282 321.829C324.405 313.952 324.405 301.18 332.282 293.303C332.845 292.741 333.757 292.741 334.319 293.303L335.338 294.322C335.608 294.592 335.76 294.959 335.76 295.341C335.76 295.723 335.608 296.089 335.338 296.36C329.149 302.549 329.149 312.583 335.338 318.772C335.901 319.335 335.901 320.247 335.338 320.81L334.319 321.829C334.049 322.099 333.683 322.251 333.301 322.251C332.919 322.251 332.552 322.099 332.282 321.829ZM338.394 315.674C333.893 311.173 333.893 303.875 338.394 299.373C338.957 298.811 339.869 298.811 340.432 299.373L341.451 300.392C341.721 300.662 341.873 301.029 341.873 301.411C341.873 301.793 341.721 302.16 341.451 302.43C338.637 305.243 338.637 309.804 341.451 312.617C342.013 313.18 342.013 314.092 341.451 314.655L340.432 315.674C339.869 316.236 338.957 316.236 338.394 315.674Z" fill="url(#paint8_linear_64_589)"/>
</g>
<defs>
<filter id="filter0_dddd_64_589" x="0.53363" y="0.336853" width="777.482" height="1395.96" filterUnits="userSpaceOnUse" color-interpolation-filters="sRGB">
<feFlood flood-opacity="0" result="BackgroundImageFix"/>
<feColorMatrix in="SourceAlpha" type="matrix" values="0 0 0 0 0 0 0 0 0 0 0 0 0 0 0 0 0 0 127 0" result="hardAlpha"/>
<feOffset dy="46.3892"/>
<feGaussianBlur stdDeviation="51.2032"/>
<feColorMatrix type="matrix" values="0 0 0 0 0 0 0 0 0 0 0 0 0 0 0 0 0 0 0.1 0"/>
<feBlend mode="normal" in2="BackgroundImageFix" result="effect1_dropShadow_64_589"/>
<feColorMatrix in="SourceAlpha" type="matrix" values="0 0 0 0 0 0 0 0 0 0 0 0 0 0 0 0 0 0 127 0" result="hardAlpha"/>
<feOffset dy="186.432"/>
<feGaussianBlur stdDeviation="93.216"/>
<feColorMatrix type="matrix" values="0 0 0 0 0 0 0 0 0 0 0 0 0 0 0 0 0 0 0.09 0"/>
<feBlend mode="normal" in2="effect1_dropShadow_64_589" result="effect2_dropShadow_64_589"/>
<feColorMatrix in="SourceAlpha" type="matrix" values="0 0 0 0 0 0 0 0 0 0 0 0 0 0 0 0 0 0 127 0" result="hardAlpha"/>
<feOffset dy="420.129"/>
<feGaussianBlur stdDeviation="126.039"/>
<feColorMatrix type="matrix" values="0 0 0 0 0 0 0 0 0 0 0 0 0 0 0 0 0 0 0.05 0"/>
<feBlend mode="normal" in2="effect2_dropShadow_64_589" result="effect3_dropShadow_64_589"/>
<feColorMatrix in="SourceAlpha" type="matrix" values="0 0 0 0 0 0 0 0 0 0 0 0 0 0 0 0 0 0 127 0" result="hardAlpha"/>
<feOffset dy="746.604"/>
<feGaussianBlur stdDeviation="149.233"/>
<feColorMatrix type="matrix" values="0 0 0 0 0 0 0 0 0 0 0 0 0 0 0 0 0 0 0.01 0"/>
<feBlend mode="normal" in2="effect3_dropShadow_64_589" result="effect4_dropShadow_64_589"/>
<feBlend mode="normal" in="SourceGraphic" in2="effect4_dropShadow_64_589" result="shape"/>
</filter>
<linearGradient id="paint0_linear_64_589" x1="476.525" y1="320.278" x2="538.889" y2="456.171" gradientUnits="userSpaceOnUse">
<stop stop-color="#171717"/>
<stop offset="1"/>
</linearGradient>
<linearGradient id="paint1_linear_64_589" x1="530.218" y1="104.743" x2="571.803" y2="38.2129" gradientUnits="userSpaceOnUse">
<stop stop-color="#FFD956"/>
<stop offset="0.155" stop-color="#F7CB61"/>
<stop offset="0.35" stop-color="#FFD46A"/>
<stop offset="0.565" stop-color="#FFD675"/>
<stop offset="0.715" stop-color="#FBD67E"/>
<stop offset="0.84" stop-color="#F9C762"/>
<stop offset="1" stop-color="#F1B856"/>
</linearGradient>
<linearGradient id="paint2_linear_64_589" x1="550.871" y1="99.2676" x2="579.936" y2="52.7567" gradientUnits="userSpaceOnUse">
<stop stop-color="#FFD956"/>
<stop offset="0.155" stop-color="#F7CB61"/>
<stop offset="0.35" stop-color="#FFD46A"/>
<stop offset="0.565" stop-color="#FFD675"/>
<stop offset="0.715" stop-color="#FBD67E"/>
<stop offset="0.84" stop-color="#F9C762"/>
<stop offset="1" stop-color="#F1B856"/>
</linearGradient>
<linearGradient id="paint3_linear_64_589" x1="493.78" y1="301.18" x2="552.385" y2="207.165" gradientUnits="userSpaceOnUse">
<stop stop-color="#FFD956"/>
<stop offset="0.155" stop-color="#F7CB61"/>
<stop offset="0.35" stop-color="#FFD46A"/>
<stop offset="0.565" stop-color="#FFD675"/>
<stop offset="0.715" stop-color="#FBD67E"/>
<stop offset="0.84" stop-color="#F9C762"/>
<stop offset="1" stop-color="#F1B856"/>
</linearGradient>
<linearGradient id="paint4_linear_64_589" x1="401.264" y1="271.845" x2="422.123" y2="238.437" gradientUnits="userSpaceOnUse">
<stop stop-color="#FFD956"/>
<stop offset="0.155" stop-color="#F7CB61"/>
<stop offset="0.35" stop-color="#FFD46A"/>
<stop offset="0.565" stop-color="#FFD675"/>
<stop offset="0.715" stop-color="#FBD67E"/>
<stop offset="0.84" stop-color="#F9C762"/>
<stop offset="1" stop-color="#F1B856"/>
</linearGradient>
<linearGradient id="paint5_linear_64_589" x1="339.015" y1="118.307" x2="338.982" y2="39.8494" gradientUnits="userSpaceOnUse">
<stop stop-color="#FFD956"/>
<stop offset="0.155" stop-color="#F7CB61"/>
<stop offset="0.35" stop-color="#FFD46A"/>
<stop offset="0.565" stop-color="#FFD675"/>
<stop offset="0.715" stop-color="#FBD67E"/>
<stop offset="0.84" stop-color="#F9C762"/>
<stop offset="1" stop-color="#F1B856"/>
</linearGradient>
<linearGradient id="paint6_linear_64_589" x1="353.619" y1="102.711" x2="353.589" y2="47.8654" gradientUnits="userSpaceOnUse">
<stop stop-color="#FFD956"/>
<stop offset="0.155" stop-color="#F7CB61"/>
<stop offset="0.35" stop-color="#FFD46A"/>
<stop offset="0.565" stop-color="#FFD675"/>
<stop offset="0.715" stop-color="#FBD67E"/>
<stop offset="0.84" stop-color="#F9C762"/>
<stop offset="1" stop-color="#F1B856"/>
</linearGradient>
<linearGradient id="paint7_linear_64_589" x1="412.311" y1="304.163" x2="412.129" y2="193.378" gradientUnits="userSpaceOnUse">
<stop stop-color="#FFD956"/>
<stop offset="0.155" stop-color="#F7CB61"/>
<stop offset="0.35" stop-color="#FFD46A"/>
<stop offset="0.565" stop-color="#FFD675"/>
<stop offset="0.715" stop-color="#FBD67E"/>
<stop offset="0.84" stop-color="#F9C762"/>
<stop offset="1" stop-color="#F1B856"/>
</linearGradient>
<linearGradient id="paint8_linear_64_589" x1="318.323" y1="328.363" x2="318.286" y2="288.978" gradientUnits="userSpaceOnUse">
<stop stop-color="#FFD956"/>
<stop offset="0.155" stop-color="#F7CB61"/>
<stop offset="0.35" stop-color="#FFD46A"/>
<stop offset="0.565" stop-color="#FFD675"/>
<stop offset="0.715" stop-color="#FBD67E"/>
<stop offset="0.84" stop-color="#F9C762"/>
<stop offset="1" stop-color="#F1B856"/>
</linearGradient>
<clipPath id="clip0_64_589">
<rect width="294.873" height="180.549" fill="white" transform="translate(372.757 280.979) rotate(-57.9679)"/>
</clipPath>
<clipPath id="clip1_64_589">
<rect width="46.104" height="46.104" fill="white" transform="translate(393.48 269.585) rotate(-57.9679)"/>
</clipPath>
<clipPath id="clip2_64_589">
<rect width="294.873" height="180.549" fill="white" transform="matrix(0 -1 1 0 299 351.227)"/>
</clipPath>
</defs>
</svg>
