<svg width="856" height="160" viewBox="0 0 856 160" fill="none" xmlns="http://www.w3.org/2000/svg">
<path d="M22.3315 93.1892V70.1826H57.7096C64.9443 70.1826 70.5151 68.3739 74.4219 64.7565C78.4734 60.9944 80.4991 55.8577 80.4991 49.3464C80.4991 43.4139 78.4734 38.4943 74.4219 34.5875C70.5151 30.536 64.9443 28.5103 57.7096 28.5103H22.3315V4.41844H60.3141C70.1534 4.41844 78.7628 6.37182 86.1423 10.2786C93.6664 14.0407 99.4543 19.2497 103.506 25.9057C107.702 32.5617 109.8 40.2306 109.8 48.9123C109.8 57.8835 107.702 65.697 103.506 72.353C99.4543 78.8643 93.6664 84.001 86.1423 87.7631C78.6181 91.3805 69.864 93.1892 59.88 93.1892H22.3315ZM0.627131 157V4.41844H30.145V157H0.627131ZM83.9718 157L33.6177 91.0188L60.7482 82.5541L119.784 157H83.9718ZM179.754 159.17C169.191 159.17 159.641 156.783 151.104 152.008C142.712 147.088 135.984 140.505 130.919 132.257C126 123.865 123.54 114.532 123.54 104.258C123.54 93.985 126 84.7969 130.919 76.6939C135.839 68.4463 142.567 61.935 151.104 57.16C159.641 52.2403 169.119 49.7805 179.537 49.7805C190.245 49.7805 199.794 52.2403 208.187 57.16C216.724 61.935 223.452 68.4463 228.372 76.6939C233.292 84.7969 235.751 93.985 235.751 104.258C235.751 114.532 233.292 123.865 228.372 132.257C223.452 140.505 216.724 147.088 208.187 152.008C199.794 156.783 190.317 159.17 179.754 159.17ZM179.537 132.691C184.891 132.691 189.593 131.534 193.645 129.218C197.841 126.759 201.024 123.431 203.195 119.234C205.51 114.894 206.668 109.974 206.668 104.475C206.668 98.977 205.51 94.1297 203.195 89.9336C200.88 85.7374 197.696 82.4817 193.645 80.1666C189.593 77.7068 184.891 76.4769 179.537 76.4769C174.328 76.4769 169.698 77.7068 165.646 80.1666C161.595 82.4817 158.412 85.7374 156.096 89.9336C153.781 94.1297 152.624 98.977 152.624 104.475C152.624 109.974 153.781 114.894 156.096 119.234C158.412 123.431 161.595 126.759 165.646 129.218C169.698 131.534 174.328 132.691 179.537 132.691ZM303.542 159.17C292.834 159.17 283.212 156.783 274.675 152.008C266.138 147.233 259.41 140.722 254.49 132.474C249.57 124.226 247.111 114.966 247.111 104.693C247.111 94.2744 249.57 84.9416 254.49 76.6939C259.41 68.4463 266.138 61.935 274.675 57.16C283.357 52.2403 292.979 49.7805 303.542 49.7805C311.789 49.7805 319.386 51.2998 326.331 54.3384C333.277 57.377 339.282 61.7179 344.346 67.361L326.114 85.8097C323.365 82.7711 320.037 80.456 316.13 78.8643C312.368 77.2727 308.172 76.4769 303.542 76.4769C298.333 76.4769 293.63 77.7068 289.434 80.1666C285.383 82.4817 282.127 85.7374 279.667 89.9336C277.352 93.985 276.194 98.8323 276.194 104.475C276.194 109.974 277.352 114.894 279.667 119.234C282.127 123.431 285.383 126.759 289.434 129.218C293.63 131.534 298.333 132.691 303.542 132.691C308.317 132.691 312.585 131.895 316.347 130.304C320.254 128.567 323.582 126.107 326.331 122.924L344.78 141.373C339.426 147.161 333.277 151.574 326.331 154.613C319.386 157.651 311.789 159.17 303.542 159.17ZM427.731 157L387.144 102.956L427.514 52.168H460.288L412.972 109.467L414.058 95.5767L462.458 157H427.731ZM360.882 157V0.0775588H389.315V157H360.882ZM505.433 159.387C499.5 159.387 493.64 158.592 487.852 157C482.209 155.408 477 153.238 472.225 150.489C467.45 147.595 463.326 144.122 459.854 140.071L476.783 122.924C480.401 126.976 484.597 130.014 489.372 132.04C494.147 134.066 499.428 135.079 505.216 135.079C509.846 135.079 513.319 134.427 515.634 133.125C518.094 131.823 519.324 129.87 519.324 127.265C519.324 124.371 518.021 122.128 515.417 120.537C512.957 118.945 509.701 117.643 505.65 116.63C501.598 115.472 497.33 114.242 492.844 112.94C488.504 111.493 484.307 109.685 480.256 107.514C476.204 105.199 472.876 102.088 470.272 98.1812C467.812 94.1297 466.582 88.9207 466.582 82.5541C466.582 75.8981 468.174 70.1103 471.357 65.1906C474.685 60.271 479.388 56.4365 485.465 53.6873C491.542 50.9381 498.705 49.5635 506.952 49.5635C515.634 49.5635 523.448 51.0828 530.393 54.1214C537.483 57.16 543.343 61.7179 547.973 67.7951L530.827 84.9416C527.644 81.0348 524.026 78.2132 519.975 76.4769C516.068 74.7405 511.8 73.8723 507.169 73.8723C502.973 73.8723 499.717 74.5235 497.402 75.8257C495.232 77.128 494.147 78.9367 494.147 81.2518C494.147 83.8563 495.377 85.8821 497.836 87.329C500.441 88.776 503.769 90.0783 507.82 91.2358C511.872 92.2487 516.068 93.4786 520.409 94.9256C524.894 96.2278 529.091 98.1089 532.997 100.569C537.049 103.029 540.305 106.284 542.764 110.336C545.369 114.387 546.671 119.596 546.671 125.963C546.671 136.236 542.981 144.411 535.602 150.489C528.222 156.421 518.166 159.387 505.433 159.387ZM581.254 157V8.54226H609.687V157H581.254ZM556.728 77.128V52.168H634.213V77.128H556.728ZM691.502 159.17C681.952 159.17 673.343 156.783 665.674 152.008C658.005 147.233 652 140.722 647.659 132.474C643.318 124.226 641.148 114.966 641.148 104.693C641.148 94.2744 643.318 84.9416 647.659 76.6939C652 68.4463 658.005 61.935 665.674 57.16C673.343 52.385 681.952 49.9976 691.502 49.9976C699.026 49.9976 705.754 51.5169 711.687 54.5555C717.619 57.5941 722.322 61.8626 725.795 67.361C729.412 72.7148 731.366 78.792 731.655 85.5927V123.358C731.366 130.304 729.412 136.453 725.795 141.807C722.322 147.161 717.619 151.429 711.687 154.613C705.754 157.651 699.026 159.17 691.502 159.17ZM696.711 132.908C704.669 132.908 711.108 130.304 716.028 125.095C720.947 119.741 723.407 112.868 723.407 104.475C723.407 98.977 722.25 94.1297 719.935 89.9336C717.764 85.5927 714.653 82.2647 710.602 79.9496C706.695 77.4897 702.065 76.2598 696.711 76.2598C691.502 76.2598 686.872 77.4897 682.82 79.9496C678.913 82.2647 675.802 85.5927 673.487 89.9336C671.317 94.1297 670.232 98.977 670.232 104.475C670.232 110.119 671.317 115.111 673.487 119.451C675.802 123.648 678.913 126.976 682.82 129.435C686.872 131.751 691.502 132.908 696.711 132.908ZM721.888 157V128.784L726.446 103.173L721.888 77.9962V52.168H750.104V157H721.888ZM775.257 157V52.168H803.69V157H775.257ZM803.69 99.0494L792.62 91.6699C793.923 78.792 797.685 68.6633 803.907 61.2838C810.129 53.7596 819.1 49.9976 830.82 49.9976C835.884 49.9976 840.442 50.8657 844.494 52.6021C848.545 54.1937 852.235 56.8706 855.563 60.6327L837.766 81.0348C836.174 79.2984 834.22 77.9962 831.905 77.128C829.735 76.2598 827.203 75.8257 824.309 75.8257C818.232 75.8257 813.24 77.7791 809.333 81.6859C805.571 85.448 803.69 91.2358 803.69 99.0494Z" fill="url(#paint0_linear_69_591)"/>
<defs>
<linearGradient id="paint0_linear_69_591" x1="421" y1="-60" x2="421" y2="213" gradientUnits="userSpaceOnUse">
<stop stop-color="#515151"/>
<stop offset="0.9991" stop-color="#515151" stop-opacity="0"/>
<stop offset="0.9992" stop-color="#515151" stop-opacity="0.1114"/>
<stop offset="0.9993" stop-color="#515151" stop-opacity="0.0984995"/>
<stop offset="0.9994" stop-color="#515151" stop-opacity="0.0853203"/>
<stop offset="0.9995" stop-color="#515151" stop-opacity="0.0718555"/>
<stop offset="0.9996" stop-color="#515151" stop-opacity="0.0580983"/>
<stop offset="0.9997" stop-color="#515151" stop-opacity="0.0440416"/>
<stop offset="0.9998" stop-color="#515151" stop-opacity="0.029678"/>
<stop offset="0.9999" stop-color="#515151" stop-opacity="0.015"/>
<stop offset="1" stop-color="#515151" stop-opacity="0"/>
</linearGradient>
</defs>
</svg>
