<svg width="286" height="317" viewBox="0 0 286 317" fill="none" xmlns="http://www.w3.org/2000/svg">
<path d="M199.941 168.427H40.7373V213.478H199.941V168.427Z" fill="#FFD956"/>
<path d="M199.949 213.478C199.949 213.478 199.949 213.209 199.949 212.695C199.949 212.181 199.949 211.414 199.949 210.412C199.949 208.399 199.949 205.433 199.949 201.584C199.949 193.876 199.949 182.63 199.873 168.427L200.017 168.562L40.8048 168.646L41.0239 168.427C41.0239 183.952 41.0239 199.082 41.0239 213.478L40.8133 213.259L154.536 213.36L187.903 213.419H196.874H199.208H200.05H199.275H196.976H188.046L154.721 213.487L40.8469 213.579H40.6279V213.369C40.6279 198.972 40.6279 183.843 40.6279 168.318V168.099H40.8638L200.076 168.174H200.21V168.318C200.21 182.554 200.151 193.834 200.135 201.55C200.135 205.391 200.135 208.348 200.135 210.353C200.135 211.347 200.135 212.097 200.135 212.611C200.135 213.124 199.949 213.478 199.949 213.478Z" fill="#263238"/>
<path d="M58.9411 193.531C58.4295 193.539 57.927 193.394 57.4981 193.115C57.0692 192.836 56.7334 192.436 56.5337 191.964C56.3341 191.493 56.2796 190.973 56.3774 190.471C56.4752 189.969 56.7208 189.507 57.0826 189.145C57.4444 188.783 57.9061 188.538 58.4084 188.44C58.9107 188.342 59.4307 188.397 59.9019 188.596C60.373 188.796 60.7738 189.132 61.0529 189.561C61.332 189.99 61.4766 190.492 61.4683 191.004C61.4554 191.67 61.185 192.305 60.7138 192.776C60.2426 193.247 59.6073 193.518 58.9411 193.531ZM58.9411 189.184C58.5896 189.184 58.2459 189.288 57.9536 189.484C57.6614 189.679 57.4335 189.957 57.299 190.281C57.1645 190.606 57.1293 190.964 57.1979 191.308C57.2664 191.653 57.4357 191.97 57.6843 192.218C57.9329 192.467 58.2496 192.636 58.5944 192.705C58.9392 192.773 59.2966 192.738 59.6213 192.604C59.9461 192.469 60.2237 192.241 60.419 191.949C60.6144 191.657 60.7186 191.313 60.7186 190.962C60.7186 190.728 60.6726 190.497 60.5833 190.281C60.494 190.066 60.363 189.87 60.198 189.705C60.0329 189.54 59.837 189.409 59.6213 189.319C59.4057 189.23 59.1746 189.184 58.9411 189.184Z" fill="#D34B58"/>
<path d="M171.038 191.357H66.0766C65.9716 191.357 65.8709 191.316 65.7966 191.241C65.7224 191.167 65.6807 191.066 65.6807 190.961C65.6807 190.856 65.7224 190.756 65.7966 190.681C65.8709 190.607 65.9716 190.565 66.0766 190.565H171.038C171.143 190.565 171.244 190.607 171.318 190.681C171.393 190.756 171.434 190.856 171.434 190.961C171.434 191.066 171.393 191.167 171.318 191.241C171.244 191.316 171.143 191.357 171.038 191.357Z" fill="#263238"/>
<path d="M136.677 191.079C136.677 191.767 136.473 192.44 136.09 193.012C135.707 193.585 135.163 194.031 134.527 194.294C133.891 194.557 133.191 194.625 132.516 194.49C131.841 194.355 131.221 194.023 130.735 193.536C130.249 193.048 129.918 192.428 129.785 191.752C129.651 191.077 129.721 190.377 129.986 189.741C130.251 189.106 130.698 188.563 131.271 188.182C131.844 187.801 132.518 187.598 133.206 187.6C133.663 187.6 134.115 187.69 134.536 187.865C134.958 188.04 135.341 188.296 135.663 188.619C135.986 188.942 136.241 189.326 136.415 189.748C136.589 190.17 136.678 190.622 136.677 191.079Z" fill="#D34B58"/>
<path d="M178.004 193.143C177.49 193.143 176.986 192.99 176.558 192.704C176.13 192.418 175.797 192.011 175.6 191.536C175.402 191.06 175.351 190.537 175.451 190.032C175.552 189.527 175.8 189.063 176.164 188.699C176.528 188.335 176.992 188.087 177.497 187.987C178.001 187.886 178.525 187.938 179 188.135C179.476 188.332 179.883 188.665 180.169 189.093C180.455 189.521 180.607 190.025 180.607 190.54C180.607 191.23 180.333 191.892 179.845 192.38C179.357 192.868 178.695 193.143 178.004 193.143ZM178.004 188.737C177.646 188.737 177.295 188.843 176.997 189.043C176.699 189.242 176.467 189.525 176.33 189.857C176.193 190.188 176.158 190.553 176.229 190.904C176.299 191.256 176.473 191.579 176.727 191.832C176.981 192.085 177.304 192.256 177.656 192.325C178.008 192.394 178.373 192.357 178.703 192.219C179.034 192.08 179.316 191.847 179.514 191.548C179.712 191.249 179.817 190.898 179.815 190.54C179.814 190.303 179.767 190.069 179.675 189.85C179.583 189.632 179.45 189.434 179.282 189.267C179.113 189.101 178.914 188.969 178.695 188.879C178.476 188.79 178.241 188.744 178.004 188.745V188.737Z" fill="#D34B58"/>
<path d="M181.93 191.332C181.602 191.257 181.34 191.055 181.357 190.886C181.374 190.718 181.669 190.557 182.006 190.549C182.343 190.541 182.612 190.751 182.587 191.004C182.562 191.257 182.267 191.408 181.93 191.332Z" fill="#D34B58"/>
<path d="M180.228 193.876C180.051 193.589 180.009 193.261 180.144 193.151C180.279 193.042 180.59 193.151 180.835 193.379C181.079 193.606 181.121 193.943 180.927 194.103C180.734 194.263 180.414 194.162 180.228 193.876Z" fill="#D34B58"/>
<path d="M177.23 194.474C177.297 194.145 177.499 193.884 177.676 193.901C177.853 193.918 178.005 194.213 178.005 194.55C178.005 194.887 177.811 195.156 177.558 195.131C177.305 195.106 177.154 194.828 177.23 194.474Z" fill="#D34B58"/>
<path d="M174.677 192.773C174.964 192.587 175.292 192.554 175.41 192.688C175.528 192.823 175.41 193.135 175.174 193.379C174.938 193.623 174.618 193.666 174.45 193.472C174.281 193.278 174.391 192.958 174.677 192.773Z" fill="#D34B58"/>
<path d="M174.062 189.773C174.399 189.841 174.661 190.043 174.644 190.22C174.627 190.397 174.332 190.548 173.987 190.548C173.641 190.548 173.389 190.355 173.414 190.102C173.439 189.849 173.751 189.698 174.062 189.773Z" fill="#D34B58"/>
<path d="M175.747 187.246C175.932 187.533 175.975 187.861 175.84 187.979C175.705 188.097 175.385 187.979 175.141 187.743C174.896 187.507 174.854 187.187 175.056 187.019C175.259 186.85 175.596 186.935 175.747 187.246Z" fill="#D34B58"/>
<path d="M178.788 186.623C178.72 186.96 178.51 187.221 178.341 187.204C178.173 187.187 178.013 186.893 178.004 186.547C177.996 186.202 178.206 185.949 178.459 185.974C178.712 186 178.863 186.295 178.788 186.623Z" fill="#D34B58"/>
<path d="M181.332 188.325C181.045 188.511 180.717 188.553 180.607 188.418C180.498 188.283 180.607 187.963 180.835 187.719C181.062 187.474 181.399 187.432 181.559 187.635C181.719 187.837 181.643 188.14 181.332 188.325Z" fill="#D34B58"/>
<path d="M132.785 191.871H66.2362C66.0262 191.871 65.8248 191.787 65.6763 191.639C65.5278 191.49 65.4443 191.289 65.4443 191.079C65.4443 190.869 65.5278 190.668 65.6763 190.519C65.8248 190.371 66.0262 190.287 66.2362 190.287H132.785C132.995 190.287 133.196 190.371 133.345 190.519C133.493 190.668 133.577 190.869 133.577 191.079C133.577 191.289 133.493 191.49 133.345 191.639C133.196 191.787 132.995 191.871 132.785 191.871Z" fill="#D34B58"/>
<path d="M223.267 0.0927734V91.3658H229.248H241.673H285.258V0.0927734H223.267Z" fill="#FFD956"/>
<path d="M223.267 0.0926635C223.267 0.0926635 223.629 0.0926635 224.362 0.0926635H227.605H240.047L285.258 0H285.435V0.176901C285.435 25.3981 285.435 57.1057 285.477 91.4415V91.6605H285.258H223.267H223.064V91.4583C223.107 64.5018 223.14 41.6899 223.166 25.575C223.166 17.547 223.166 11.1869 223.216 6.83179C223.216 4.67527 223.216 3.00733 223.216 1.87853C223.216 1.32255 223.216 0.901359 223.216 0.606522C223.216 0.311686 223.216 0.185327 223.216 0.185327C223.216 0.185327 223.216 0.336956 223.216 0.631793C223.216 0.926629 223.216 1.35625 223.216 1.92065C223.216 3.0663 223.216 4.74266 223.216 6.91602C223.216 11.288 223.216 17.6565 223.275 25.7013C223.275 41.791 223.334 64.5776 223.368 91.4583L223.174 91.2562H285.165L284.946 91.4752C284.946 57.1393 284.946 25.4318 284.989 0.210598L285.165 0.387499L240.064 0.294835L227.58 0.244294H224.303L223.267 0.0926635Z" fill="#263238"/>
<path d="M240.409 15.9297H240.611C241.058 15.9297 241.486 16.1072 241.802 16.4232C242.118 16.7391 242.296 17.1676 242.296 17.6145V74.678C242.296 75.1248 242.118 75.5534 241.802 75.8693C241.486 76.1853 241.058 76.3628 240.611 76.3628H240.417C239.97 76.3628 239.542 76.1853 239.226 75.8693C238.91 75.5534 238.732 75.1248 238.732 74.678V17.6229C238.731 17.4016 238.774 17.1823 238.857 16.9775C238.941 16.7727 239.064 16.5863 239.22 16.4291C239.376 16.2719 239.561 16.1468 239.765 16.0612C239.969 15.9755 240.188 15.9308 240.409 15.9297Z" fill="#E0E0E0"/>
<path d="M240.611 76.371C241.033 76.3469 241.433 76.1738 241.74 75.8824C242.481 75.3264 242.178 73.9786 242.22 72.4202C242.22 69.236 242.22 64.6534 242.161 59.0093C242.102 53.3653 242.161 46.6093 242.11 39.1289C242.11 35.3803 242.11 31.4547 242.11 27.386V17.9933C242.127 17.7455 242.113 17.4964 242.068 17.252C242.008 17.0241 241.896 16.8134 241.74 16.6371C241.575 16.4589 241.372 16.3212 241.145 16.235C240.919 16.1488 240.675 16.1163 240.434 16.1401C240.198 16.1407 239.966 16.1975 239.756 16.3059C239.547 16.4144 239.366 16.5712 239.229 16.7635C239.091 16.9551 239.001 17.1778 238.968 17.4121C238.968 17.6311 238.968 17.9259 238.968 18.1871V27.5798C238.968 31.6485 238.968 35.5825 238.968 39.3227C238.968 46.8031 238.968 53.5422 238.926 59.2115C238.884 64.8808 238.875 69.4297 238.859 72.6139C238.859 73.4058 238.859 74.105 238.859 74.7199C238.865 74.9694 238.926 75.2144 239.038 75.4373C239.15 75.6602 239.31 75.8554 239.507 76.0088C239.752 76.196 240.043 76.3126 240.35 76.3457H240.67C240.563 76.3591 240.456 76.3591 240.35 76.3457C239.915 76.3283 239.503 76.1432 239.202 75.8291C238.9 75.515 238.732 75.0964 238.732 74.661C238.732 74.046 238.732 73.3468 238.732 72.555C238.732 69.3707 238.732 64.7966 238.665 59.1525C238.597 53.5085 238.665 46.7441 238.623 39.2637C238.623 35.5235 238.623 31.5895 238.623 27.5208C238.623 25.4822 238.623 23.4099 238.623 21.3039V18.1281C238.606 17.8476 238.606 17.5663 238.623 17.2857C238.661 16.9821 238.774 16.6927 238.951 16.4433C239.121 16.1889 239.35 15.9795 239.619 15.8328C239.887 15.6861 240.187 15.6065 240.493 15.601C240.792 15.5752 241.092 15.6188 241.371 15.7284C241.65 15.838 241.9 16.0106 242.102 16.2327C242.304 16.4592 242.448 16.7307 242.523 17.0246C242.583 17.3011 242.603 17.5848 242.582 17.867V27.2596C242.582 31.3284 242.582 35.2539 242.582 39.0026C242.582 46.483 242.582 53.2221 242.54 58.883C242.498 64.5438 242.489 69.1096 242.472 72.2938C242.472 73.0857 242.472 73.7849 242.472 74.3998C242.49 74.6641 242.448 74.929 242.351 75.1752C242.253 75.4214 242.102 75.6429 241.908 75.8234C241.751 76.0117 241.552 76.1597 241.326 76.255C241.1 76.3502 240.855 76.39 240.611 76.371Z" fill="#263238"/>
<path d="M254.35 15.9297H254.165C253.23 15.9297 252.472 16.6878 252.472 17.6229V74.678C252.472 75.6131 253.23 76.3712 254.165 76.3712H254.35C255.285 76.3712 256.043 75.6131 256.043 74.678V17.6229C256.043 16.6878 255.285 15.9297 254.35 15.9297Z" fill="#E0E0E0"/>
<path d="M254.359 76.3712C254.778 76.3452 255.175 76.1722 255.479 75.8826C256.22 75.3266 255.926 73.9788 255.968 72.4204C255.968 69.2361 255.926 64.6535 255.9 59.0095C255.875 53.3655 255.9 46.6095 255.9 39.1291C255.9 35.3805 255.9 31.4549 255.9 27.3862V17.9935C255.919 17.7453 255.902 17.4956 255.85 17.2522C255.794 17.0229 255.681 16.8114 255.521 16.6373C255.359 16.4581 255.158 16.3198 254.932 16.2334C254.707 16.147 254.464 16.1151 254.224 16.1403C253.987 16.1402 253.753 16.1967 253.542 16.3051C253.331 16.4135 253.149 16.5707 253.011 16.7636C252.872 16.9553 252.783 17.178 252.75 17.4123C252.75 17.6313 252.75 17.9261 252.75 18.1873V27.5799C252.75 31.6487 252.75 35.5826 252.75 39.3228C252.75 46.8033 252.75 53.5424 252.699 59.2117C252.649 64.881 252.649 69.4299 252.64 72.6141C252.64 73.406 252.64 74.1052 252.64 74.7201C252.641 74.9697 252.699 75.2157 252.81 75.4392C252.921 75.6627 253.082 75.8577 253.281 76.009C253.525 76.1962 253.817 76.3127 254.123 76.3459H254.443C254.334 76.3589 254.224 76.3589 254.114 76.3459C253.793 76.3294 253.483 76.2212 253.222 76.0342C253.004 75.8795 252.826 75.6765 252.7 75.4412C252.574 75.2059 252.505 74.9446 252.497 74.678C252.497 74.063 252.497 73.3638 252.497 72.572C252.497 69.3878 252.455 64.8136 252.43 59.1696C252.404 53.5256 252.43 46.7612 252.388 39.2807C252.388 35.5405 252.388 31.6066 252.388 27.5378V18.1873C252.371 17.9067 252.371 17.6254 252.388 17.3449C252.426 17.0413 252.539 16.7519 252.716 16.5025C252.901 16.2677 253.133 16.0749 253.398 15.9373C253.663 15.7996 253.955 15.7201 254.253 15.7042C254.551 15.6882 254.85 15.7362 255.128 15.8448C255.406 15.9534 255.658 16.1202 255.867 16.334C256.071 16.5585 256.216 16.8308 256.288 17.1259C256.346 17.4026 256.369 17.6857 256.355 17.9683V21.1441C256.355 23.25 256.355 25.3223 256.355 27.3609C256.355 31.4297 256.355 35.3552 256.355 39.1038C256.355 46.5843 256.355 53.3234 256.313 58.9842C256.271 64.6451 256.263 69.2109 256.246 72.3951C256.246 73.187 256.246 73.8861 256.246 74.5011C256.262 74.766 256.219 75.0313 256.12 75.2776C256.021 75.5238 255.868 75.7449 255.673 75.9247C255.505 76.0984 255.298 76.2295 255.07 76.3071C254.841 76.3848 254.598 76.4068 254.359 76.3712Z" fill="#263238"/>
<path d="M268.098 15.9297H267.913C266.978 15.9297 266.22 16.6878 266.22 17.6229V74.678C266.22 75.6131 266.978 76.3712 267.913 76.3712H268.098C269.033 76.3712 269.791 75.6131 269.791 74.678V17.6229C269.791 16.6878 269.033 15.9297 268.098 15.9297Z" fill="#E0E0E0"/>
<path d="M268.107 76.3712C268.529 76.3465 268.929 76.1734 269.236 75.8826C269.969 75.3267 269.674 73.9788 269.716 72.4204C269.716 69.2362 269.716 64.6536 269.649 59.0096C269.581 53.3656 269.649 46.6096 269.607 39.1291C269.607 35.3805 269.607 31.455 269.607 27.3862C269.607 25.3476 269.607 23.2754 269.607 21.1694V17.9936C269.626 17.7453 269.609 17.4956 269.556 17.2523C269.504 17.0216 269.39 16.8092 269.228 16.6373C269.066 16.4582 268.864 16.3198 268.638 16.2334C268.413 16.1471 268.17 16.1152 267.93 16.1403C267.693 16.1423 267.46 16.1997 267.25 16.3079C267.039 16.4162 266.857 16.5723 266.717 16.7637C266.585 16.9578 266.498 17.1797 266.465 17.4123C266.447 17.6704 266.447 17.9293 266.465 18.1873V21.3631C266.465 23.4691 266.465 25.5414 266.465 27.58C266.465 31.6487 266.465 35.5827 266.465 39.3229C266.465 46.8033 266.465 53.5424 266.422 59.2117C266.38 64.881 266.372 69.4299 266.355 72.6142C266.355 73.406 266.355 74.1052 266.355 74.7201C266.367 75.1264 266.525 75.5148 266.801 75.8135C267.076 76.1123 267.45 76.3014 267.854 76.346H268.175C268.068 76.3588 267.961 76.3588 267.854 76.346C267.53 76.331 267.217 76.2228 266.953 76.0343C266.737 75.8782 266.56 75.6749 266.434 75.4398C266.309 75.2048 266.238 74.9443 266.229 74.678C266.229 74.0631 266.229 73.3639 266.229 72.572C266.229 69.3878 266.187 64.8136 266.161 59.1696C266.136 53.5256 266.161 46.7612 266.119 39.2808C266.119 35.5406 266.119 31.6066 266.119 27.5379V18.1873C266.119 17.9093 266.119 17.6735 266.119 17.3449C266.189 16.8953 266.416 16.4851 266.76 16.1874C267.104 15.8897 267.543 15.7237 267.998 15.7191C268.296 15.6933 268.597 15.737 268.876 15.8466C269.155 15.9561 269.405 16.1288 269.607 16.3509C269.808 16.5774 269.953 16.8489 270.028 17.1428C270.084 17.4198 270.104 17.703 270.087 17.9851V27.3778C270.087 31.4465 270.087 35.3721 270.087 39.1207C270.087 46.6012 270.087 53.3403 270.045 59.0011C270.003 64.662 269.994 69.2277 269.977 72.412C269.977 73.2038 269.977 73.903 269.977 74.518C269.993 74.7821 269.95 75.0464 269.853 75.2924C269.755 75.5383 269.605 75.7599 269.413 75.9416C269.243 76.1093 269.037 76.2355 268.811 76.31C268.584 76.3846 268.343 76.4055 268.107 76.3712Z" fill="#263238"/>
<path d="M240.283 44.2593H239.626C238.704 44.2593 237.821 43.8939 237.168 43.2433C236.516 42.5927 236.149 41.7099 236.146 40.7886C236.146 39.8659 236.513 38.981 237.165 38.3286C237.818 37.6761 238.703 37.3096 239.626 37.3096H240.283C241.202 37.3118 242.084 37.6782 242.734 38.3286C243.385 38.979 243.751 39.8604 243.753 40.7802C243.753 41.7015 243.388 42.5851 242.737 43.2373C242.087 43.8895 241.204 44.2571 240.283 44.2593Z" fill="#D34B58"/>
<path d="M254.932 57.3667H254.275C253.352 57.3667 252.467 57.0002 251.815 56.3477C251.162 55.6953 250.796 54.8104 250.796 53.8876C250.796 53.4312 250.886 52.9792 251.061 52.5575C251.236 52.1359 251.492 51.7529 251.815 51.4305C252.139 51.1082 252.522 50.8527 252.944 50.6788C253.366 50.5048 253.818 50.4159 254.275 50.417H254.932C255.388 50.4159 255.84 50.5049 256.262 50.6789C256.683 50.8529 257.066 51.1085 257.389 51.431C257.711 51.7535 257.967 52.1366 258.141 52.5582C258.315 52.9798 258.404 53.4316 258.403 53.8876C258.404 54.3441 258.315 54.7963 258.141 55.2184C257.967 55.6404 257.712 56.024 257.389 56.3472C257.067 56.6704 256.684 56.9268 256.262 57.1017C255.841 57.2767 255.389 57.3667 254.932 57.3667Z" fill="#D34B58"/>
<path d="M268.183 32.6681H267.568C266.645 32.6681 265.76 32.3016 265.108 31.6491C264.455 30.9966 264.089 30.1117 264.089 29.189C264.089 28.2663 264.455 27.3814 265.108 26.729C265.76 26.0765 266.645 25.71 267.568 25.71H268.225C268.681 25.71 269.133 25.8 269.555 25.9749C269.977 26.1499 270.36 26.4063 270.682 26.7295C271.004 27.0526 271.26 27.4362 271.434 27.8583C271.608 28.2803 271.697 28.7325 271.696 29.189C271.697 29.6491 271.606 30.1048 271.43 30.5296C271.253 30.9544 270.994 31.3399 270.667 31.6636C270.34 31.9874 269.952 32.2429 269.526 32.4153C269.099 32.5878 268.643 32.6737 268.183 32.6681Z" fill="#D34B58"/>
<path d="M212.829 76.4131H85.0049V151.083H212.829V76.4131Z" fill="#FFD956"/>
<path d="M212.812 151.082C212.812 151.082 212.812 150.619 212.812 149.734C212.812 148.85 212.812 147.536 212.812 145.825C212.812 142.397 212.812 137.351 212.77 130.881C212.77 117.942 212.719 99.3003 212.686 76.4125L212.854 76.581L85.0381 76.6315L85.2571 76.4125C85.2571 102.847 85.2571 128.093 85.2571 151.082L85.055 150.88L177.01 150.981L203.402 151.031H210.436H212.256H212.812H212.214H210.42H203.428L177.078 151.09L84.9876 151.183H84.7686V150.973C84.7686 127.984 84.7686 102.737 84.7686 76.303V76.084H84.996L212.812 76.1345H212.98V76.303C212.938 99.2329 212.913 117.917 212.888 130.873C212.888 137.334 212.888 142.363 212.846 145.783C212.846 147.468 212.846 148.782 212.846 149.667C212.846 150.551 212.812 151.082 212.812 151.082Z" fill="#263238"/>
<path d="M128.32 120.908H116.687L115.297 124.117C114.9 124.946 114.668 125.845 114.614 126.762C114.59 127.173 114.682 127.583 114.88 127.943C115.079 128.304 115.375 128.601 115.735 128.801C116.77 129.185 117.865 129.385 118.97 129.391V130.284H108.019V129.391C109.129 129.245 110.157 128.725 110.933 127.916C112.11 126.407 113.058 124.732 113.747 122.946L125.54 96.6553H126.004L137.839 123.679C138.962 126.24 139.895 127.852 140.636 128.514C141.299 129.045 142.12 129.341 142.969 129.357V130.25H127.057V129.357H127.73C128.662 129.437 129.597 129.25 130.426 128.818C130.603 128.692 130.745 128.523 130.84 128.327C130.934 128.131 130.977 127.914 130.965 127.697C130.962 127.394 130.913 127.093 130.822 126.804C130.822 126.653 130.544 126.046 130.089 124.976L128.32 120.908ZM127.478 119.105L122.575 107.758L117.521 119.105H127.478Z" fill="#263238"/>
<path d="M176.32 119.855C179.088 118.31 181.993 117.022 184.996 116.006V114.001C185.074 112.856 184.91 111.708 184.516 110.631C183.985 109.578 182.831 109.047 181.146 109.047C180.342 109.046 179.551 109.258 178.855 109.662C178.529 109.825 178.255 110.075 178.063 110.384C177.871 110.694 177.769 111.05 177.768 111.415C177.781 111.735 177.82 112.053 177.886 112.366C177.941 112.645 177.981 112.926 178.004 113.209C178.042 113.564 177.984 113.922 177.836 114.247C177.688 114.571 177.455 114.85 177.162 115.054C176.805 115.263 176.396 115.368 175.983 115.357C175.675 115.375 175.367 115.321 175.083 115.2C174.799 115.079 174.548 114.893 174.348 114.658C173.983 114.227 173.783 113.681 173.784 113.116C173.784 111.993 174.464 110.836 175.823 109.645C177.182 108.455 179.181 107.854 181.82 107.843C184.87 107.843 186.939 108.834 188.029 110.816C188.686 112.31 188.975 113.939 188.871 115.567V125.044C188.839 125.682 188.905 126.321 189.065 126.94C189.135 127.218 189.301 127.462 189.534 127.63C189.767 127.798 190.051 127.879 190.337 127.858C190.646 127.867 190.954 127.81 191.238 127.689C191.669 127.457 192.081 127.189 192.468 126.889V128.119C192.001 128.699 191.45 129.207 190.834 129.627C190.05 130.198 189.108 130.513 188.138 130.528C187.695 130.567 187.249 130.492 186.842 130.311C186.435 130.129 186.081 129.848 185.813 129.492C185.314 128.743 185.039 127.866 185.021 126.965C184.064 127.823 183.036 128.598 181.947 129.282C180.725 130.069 179.314 130.512 177.861 130.562C177.209 130.569 176.561 130.446 175.957 130.2C175.352 129.954 174.803 129.59 174.34 129.13C173.85 128.664 173.464 128.099 173.207 127.474C172.95 126.848 172.828 126.175 172.849 125.499C172.877 123.275 174.034 121.394 176.32 119.855ZM184.996 117.185C183.428 117.673 181.922 118.34 180.506 119.173C178.232 120.571 177.137 122.163 177.137 123.949C177.089 124.552 177.194 125.157 177.441 125.709C177.689 126.261 178.071 126.742 178.552 127.108C179.145 127.55 179.868 127.784 180.607 127.774C181.663 127.777 182.699 127.485 183.598 126.931C184.017 126.73 184.373 126.416 184.626 126.025C184.879 125.634 185.018 125.181 185.03 124.716L184.996 117.185Z" fill="#263238"/>
<path d="M152.463 137.107C152.337 137.107 152.244 127.479 152.244 115.593C152.244 103.707 152.337 94.0781 152.463 94.0781C152.59 94.0781 152.682 103.715 152.682 115.593C152.682 127.47 152.581 137.107 152.463 137.107Z" fill="#263238"/>
<path d="M210.698 4.71777H78.5186V62.5647H210.698V4.71777Z" fill="#FFD956"/>
<path d="M210.697 62.5728C210.697 62.5728 210.697 62.219 210.697 61.5367C210.697 60.8543 210.697 59.8519 210.697 58.5293C210.697 55.8926 210.697 52.0092 210.697 47.0054C210.697 37.0147 210.647 22.5761 210.613 4.72586L210.765 4.88591L78.5938 4.94488L78.8128 4.72586C78.8128 25.0359 78.8128 44.6046 78.8128 62.5728L78.6022 62.3622L173.447 62.4633L200.892 62.5223H208.229H210.133H210.782H210.158H208.28H200.985L173.582 62.5812L78.6022 62.6823H78.3916V62.5728C78.3916 44.6046 78.3916 25.0359 78.3916 4.72586V4.50684H78.6191L210.79 4.57423H210.95V4.72586C210.95 22.6182 210.883 37.0905 210.866 47.1065C210.866 52.085 210.866 55.96 210.824 58.5967C210.824 59.894 210.824 60.888 210.824 61.5704C210.824 62.2527 210.697 62.5728 210.697 62.5728Z" fill="#263238"/>
<path d="M107.345 35.8682H93.3613V47.2152H107.345V35.8682Z" fill="#FFD956"/>
<path d="M107.345 47.2163C107.345 47.2163 107.345 46.9214 107.345 46.3739C107.345 45.8263 107.345 45.0176 107.345 44.0657C107.345 42.0356 107.345 39.222 107.303 35.8524L107.379 35.9198H93.3954L93.4796 35.8356V41.7323C93.4796 43.6277 93.4796 45.4388 93.4796 47.132L93.4038 47.0478L103.512 47.0899H106.385C107.051 47.0899 107.413 47.0899 107.413 47.0899H106.41H103.563L93.4543 47.132H93.3785V47.0562C93.3785 45.3714 93.3785 43.5519 93.3785 41.6565V35.7598C93.2943 35.8356 93.4796 35.6503 93.4628 35.6671H107.446H107.522V35.7429C107.522 39.1125 107.522 41.9598 107.48 44.0068C107.48 44.9503 107.48 45.6916 107.48 46.2896C107.48 46.8877 107.345 47.2163 107.345 47.2163Z" fill="#263238"/>
<path d="M94.069 36.7781L94.0293 46.2549L106.64 46.3077L106.679 36.8309L94.069 36.7781Z" fill="#D34B58"/>
<g opacity="0.2">
<path d="M94.0264 46.2559L98.4573 40.376L101.17 44.0741L103.032 42.1113L106.637 46.3064L94.0264 46.2559Z" fill="black"/>
</g>
<g opacity="0.2">
<path d="M102.35 39.6763C102.346 39.9392 102.238 40.1899 102.05 40.3742C101.863 40.5586 101.611 40.6619 101.348 40.6619C101.084 40.6619 100.831 40.5571 100.645 40.3707C100.458 40.1843 100.354 39.9315 100.354 39.6678C100.354 39.4042 100.458 39.1514 100.645 38.965C100.831 38.7786 101.084 38.6738 101.348 38.6738C101.613 38.676 101.866 38.7823 102.054 38.9699C102.241 39.1574 102.348 39.4111 102.35 39.6763Z" fill="black"/>
</g>
<path d="M145.952 26.7119H119.408V48.2518H145.952V26.7119Z" fill="#FFD956"/>
<path d="M145.952 48.2523C145.952 48.2523 145.952 47.7047 145.952 46.7023C145.952 45.6998 145.952 44.1751 145.952 42.3303C145.952 38.5395 145.952 33.1735 145.952 26.7123L146.028 26.7882H119.408C119.408 26.7882 119.577 26.6281 119.493 26.7039V37.9751C119.493 41.589 119.493 45.0259 119.493 48.227L119.417 48.1512H138.581H144.015H145.961H144.048H138.632H119.417H119.307V48.2523C119.307 45.0512 119.307 41.6142 119.307 38.0004C119.307 36.1977 119.307 34.3444 119.307 32.4659V26.7292C119.232 26.805 119.417 26.6197 119.4 26.645H146.02V26.7208C146.02 33.1988 146.02 38.5901 145.977 42.3808C145.977 44.2341 145.977 45.6998 145.977 46.736C145.977 47.7721 145.952 48.2523 145.952 48.2523Z" fill="#263238"/>
<path d="M120.749 28.4403L120.674 46.4336L144.614 46.5339L144.69 28.5406L120.749 28.4403Z" fill="#D34B58"/>
<g opacity="0.2">
<path d="M120.672 46.4325L129.079 35.2793L134.234 42.2964L137.756 38.573L144.613 46.5336L120.672 46.4325Z" fill="black"/>
</g>
<g opacity="0.2">
<path d="M136.466 33.9315C136.465 34.3047 136.352 34.669 136.144 34.9784C135.935 35.2878 135.639 35.5283 135.294 35.6696C134.948 35.8109 134.569 35.8466 134.203 35.7721C133.837 35.6977 133.502 35.5165 133.239 35.2514C132.976 34.9863 132.798 34.6493 132.727 34.283C132.656 33.9166 132.695 33.5374 132.839 33.1932C132.984 32.8491 133.227 32.5554 133.538 32.3495C133.849 32.1435 134.215 32.0345 134.588 32.0362C134.836 32.0373 135.081 32.0872 135.309 32.183C135.538 32.2789 135.745 32.4188 135.92 32.5948C136.094 32.7708 136.232 32.9794 136.326 33.2088C136.42 33.4381 136.467 33.6837 136.466 33.9315Z" fill="black"/>
</g>
<path d="M198.77 17.1338H158.074V50.1555H198.77V17.1338Z" fill="#FFD956"/>
<path d="M198.77 50.1559C198.77 48.648 198.77 36.804 198.702 17.1342L198.77 17.2015H158.082L158.166 17.1173V25.9203C158.166 28.8097 158.166 31.6486 158.166 34.4116V50.1306L158.082 50.0548L198.778 50.1306L158.082 50.2064H158.006V50.1306C158.006 45.2195 158.006 39.9545 158.006 34.4116V17.1426C157.922 17.2184 158.107 17.0331 158.099 17.0499H198.787H198.862V17.1257C198.803 36.804 198.778 48.648 198.77 50.1559Z" fill="#263238"/>
<path d="M160.132 19.7801L160.017 47.3682L196.719 47.5219L196.835 19.9339L160.132 19.7801Z" fill="#D34B58"/>
<g opacity="0.2">
<path d="M160.012 47.3597L172.909 30.2676L180.802 41.0333L186.21 35.3135L196.723 47.5197L160.012 47.3597Z" fill="black"/>
</g>
<g opacity="0.2">
<path d="M184.23 28.2114C184.23 28.7852 184.06 29.3461 183.741 29.823C183.421 30.2999 182.968 30.6713 182.437 30.8902C181.907 31.109 181.323 31.1654 180.761 31.0522C180.198 30.939 179.682 30.6613 179.277 30.2544C178.873 29.8474 178.598 29.3295 178.488 28.7663C178.378 28.2031 178.438 27.6199 178.66 27.0907C178.882 26.5615 179.256 26.1101 179.735 25.7937C180.213 25.4773 180.775 25.3102 181.349 25.3135C181.729 25.3146 182.104 25.3905 182.454 25.5367C182.804 25.6829 183.122 25.8967 183.39 26.1658C183.657 26.4349 183.869 26.754 184.013 27.105C184.158 27.456 184.231 27.8319 184.23 28.2114Z" fill="black"/>
</g>
<path d="M9.08888 88.6778C13.9785 88.6778 17.9424 84.7139 17.9424 79.8242C17.9424 74.9346 13.9785 70.9707 9.08888 70.9707C4.19922 70.9707 0.235352 74.9346 0.235352 79.8242C0.235352 84.7139 4.19922 88.6778 9.08888 88.6778Z" fill="#D34B58"/>
<path d="M36.5332 88.6778C41.4229 88.6778 45.3867 84.7139 45.3867 79.8242C45.3867 74.9346 41.4229 70.9707 36.5332 70.9707C31.6436 70.9707 27.6797 74.9346 27.6797 79.8242C27.6797 84.7139 31.6436 88.6778 36.5332 88.6778Z" fill="#D34B58"/>
<g opacity="0.5">
<path d="M36.5332 88.6778C41.4229 88.6778 45.3867 84.7139 45.3867 79.8242C45.3867 74.9346 41.4229 70.9707 36.5332 70.9707C31.6436 70.9707 27.6797 74.9346 27.6797 79.8242C27.6797 84.7139 31.6436 88.6778 36.5332 88.6778Z" fill="black"/>
</g>
<g opacity="0.2">
<path d="M9.08888 88.6778C13.9785 88.6778 17.9424 84.7139 17.9424 79.8242C17.9424 74.9346 13.9785 70.9707 9.08888 70.9707C4.19922 70.9707 0.235352 74.9346 0.235352 79.8242C0.235352 84.7139 4.19922 88.6778 9.08888 88.6778Z" fill="black"/>
</g>
<path d="M17.9337 79.8244C17.8549 79.1047 17.734 78.3903 17.5714 77.6848C17.2641 76.5076 16.7141 75.4077 15.9566 74.4556C15.1991 73.5036 14.2509 72.7204 13.1729 72.1565C12.0949 71.5925 10.9109 71.2601 9.69689 71.1807C8.48286 71.1013 7.26564 71.2766 6.12336 71.6954C5.34049 71.9755 4.6048 72.3732 3.94157 72.8747C3.23683 73.3872 2.61955 74.0101 2.11359 74.7195C1.02436 76.1987 0.436813 77.9875 0.436813 79.8244C0.436813 81.6614 1.02436 83.4501 2.11359 84.9293C2.61748 85.6381 3.23514 86.2586 3.94157 86.7657C4.6025 87.2729 5.33865 87.6737 6.12336 87.9535C7.48519 88.4508 8.9496 88.6003 10.3838 88.3885C11.8181 88.1767 13.1767 87.6102 14.3367 86.7405C15.9213 85.5573 17.0609 83.8746 17.5714 81.9641C17.7332 81.2584 17.8542 80.544 17.9337 79.8244C17.9857 80.5574 17.9203 81.2939 17.7399 82.0062C17.2766 83.9864 16.1427 85.7453 14.5304 86.9848C13.4156 87.8345 12.1174 88.4115 10.7397 88.6695C9.15118 88.9707 7.51112 88.8428 5.98857 88.2989C5.16213 88.0123 4.38603 87.5973 3.68885 87.069C2.94576 86.5407 2.29654 85.8914 1.7682 85.1483C0.61982 83.5965 0 81.717 0 79.7865C0 77.856 0.61982 75.9765 1.7682 74.4247C2.82784 72.9812 4.29452 71.887 5.98015 71.2826C7.50183 70.7346 9.14299 70.6066 10.7312 70.9119C12.4183 71.2373 13.9759 72.042 15.2174 73.2297C16.459 74.4175 17.3318 75.9379 17.7315 77.609C17.9183 78.3317 17.9866 79.0799 17.9337 79.8244Z" fill="#263238"/>
<path d="M45.3624 79.8244C45.2783 79.1055 45.1574 78.3913 45.0002 77.6848C44.6928 76.5076 44.1428 75.4077 43.3853 74.4556C42.6278 73.5036 41.6797 72.7204 40.6017 72.1565C39.5236 71.5925 38.3396 71.2601 37.1256 71.1807C35.9116 71.1013 34.6944 71.2766 33.5521 71.6954C32.7692 71.9755 32.0335 72.3732 31.3703 72.8747C30.6655 73.3872 30.0483 74.0101 29.5423 74.7195C28.4531 76.1987 27.8655 77.9875 27.8655 79.8244C27.8655 81.6614 28.4531 83.4501 29.5423 84.9293C30.0462 85.6381 30.6639 86.2586 31.3703 86.7657C32.0312 87.2729 32.7674 87.6737 33.5521 87.9535C34.9139 88.4508 36.3783 88.6003 37.8125 88.3885C39.2468 88.1767 40.6055 87.6102 41.7654 86.7405C43.35 85.5573 44.4896 83.8746 45.0002 81.9641C45.1566 81.2574 45.2775 80.5433 45.3624 79.8244C45.4144 80.5574 45.349 81.2939 45.1686 82.0062C44.7054 83.9864 43.5714 85.7453 41.9591 86.9848C40.8443 87.8345 39.5461 88.4115 38.1684 88.6695C36.5799 88.9707 34.9398 88.8428 33.4173 88.2989C32.5908 88.0123 31.8147 87.5973 31.1176 87.069C30.3745 86.5407 29.7252 85.8914 29.1969 85.1483C28.0485 83.5965 27.4287 81.717 27.4287 79.7865C27.4287 77.856 28.0485 75.9765 29.1969 74.4247C30.2566 72.9812 31.7232 71.887 33.4089 71.2826C34.9305 70.7346 36.5717 70.6066 38.1599 70.9119C39.8454 71.2412 41.4009 72.0472 42.6417 73.2343C43.8826 74.4215 44.7567 75.9398 45.1602 77.609C45.347 78.3317 45.4153 79.0799 45.3624 79.8244Z" fill="#263238"/>
<path d="M53.6509 26.1818C56.6424 26.1818 59.0675 23.7567 59.0675 20.7652C59.0675 17.7737 56.6424 15.3486 53.6509 15.3486C50.6595 15.3486 48.2344 17.7737 48.2344 20.7652C48.2344 23.7567 50.6595 26.1818 53.6509 26.1818Z" fill="#EBEBEB"/>
<path d="M51.9157 22.7953C51.8335 22.7937 51.7551 22.7605 51.6967 22.7026C51.6669 22.6736 51.6432 22.6389 51.627 22.6005C51.6109 22.5622 51.6025 22.521 51.6025 22.4794C51.6025 22.4378 51.6109 22.3966 51.627 22.3583C51.6432 22.3199 51.6669 22.2852 51.6967 22.2562L55.0663 18.8361C55.096 18.806 55.1314 18.7822 55.1705 18.7659C55.2095 18.7496 55.2514 18.7412 55.2937 18.7412C55.336 18.7412 55.3779 18.7496 55.4169 18.7659C55.456 18.7822 55.4914 18.806 55.5212 18.8361C55.5774 18.8968 55.6086 18.9765 55.6086 19.0593C55.6086 19.1421 55.5774 19.2218 55.5212 19.2825L52.1011 22.7026C52.0505 22.7522 51.9857 22.7846 51.9157 22.7953Z" fill="#263238"/>
<path d="M55.3613 22.7949C55.2766 22.7937 55.1954 22.7606 55.1339 22.7022L51.7643 19.2821C51.7051 19.2229 51.6719 19.1426 51.6719 19.0589C51.6719 18.9751 51.7051 18.8948 51.7643 18.8356C51.8236 18.7764 51.9038 18.7432 51.9876 18.7432C52.0713 18.7432 52.1516 18.7764 52.2108 18.8356L55.6309 22.2557C55.6872 22.3165 55.7184 22.3962 55.7184 22.479C55.7184 22.5617 55.6872 22.6415 55.6309 22.7022C55.5955 22.7364 55.553 22.7624 55.5064 22.7784C55.4598 22.7945 55.4103 22.8001 55.3613 22.7949Z" fill="#263238"/>
<path d="M99.9318 65.2093C98.2371 63.7839 96.8841 61.9962 95.9726 59.9781C94.5911 56.7854 93.6055 49.8694 93.6055 49.8694C93.6055 49.8694 93.9424 41.7066 94.6248 41.4455C95.3071 41.1844 96.0484 41.4455 96.0737 42.667C96.0989 43.8884 96.9161 49.0691 96.9161 49.0691C96.9161 49.0691 98.2723 48.3194 99.0389 48.9596C99.4386 49.2497 99.7481 49.6469 99.9318 50.1053C100.607 49.7888 101.356 49.6663 102.097 49.7515C102.576 49.8909 103.025 50.1195 103.419 50.4254C103.622 50.2662 103.873 50.1797 104.131 50.1797C104.389 50.1797 104.64 50.2662 104.843 50.4254C105.368 50.7838 105.832 51.2247 106.216 51.7311C106.216 51.7311 106.764 55.3955 106.376 56.3727C105.989 57.3498 105.424 58.6218 105.424 58.6218L105.753 60.0455L108.204 62.1178L99.9318 65.2093Z" fill="#FFBE9D"/>
<path d="M72.099 293.581L69.0495 316.326L56.7422 314.928L59.7579 292.124L72.099 293.581Z" fill="#D34B58"/>
<path d="M63.0853 314.776C62.9758 314.776 63.6244 309.78 64.5342 303.648C65.444 297.515 66.2358 292.545 66.3454 292.545C66.4549 292.545 65.8062 297.54 64.9049 303.673C64.0035 309.805 63.1864 314.792 63.0853 314.776Z" fill="#263238"/>
<path d="M69.2601 314.759L56.9528 313.318L56.7422 314.927L69.0495 316.326L69.2601 314.759Z" fill="#263238"/>
<path d="M57.7021 307.64C57.7021 307.64 57.8201 307.455 58.0897 307.185C58.475 306.807 58.8953 306.465 59.3448 306.166C60.011 305.711 60.7404 305.356 61.5098 305.113C62.4588 304.798 63.4677 304.706 64.4581 304.843C65.3567 304.966 66.2202 305.274 66.9943 305.746C67.7684 306.219 68.4365 306.846 68.9565 307.589C69.2618 308.038 69.5002 308.529 69.6641 309.047C69.7419 309.231 69.782 309.428 69.782 309.628C69.5015 308.958 69.1603 308.315 68.7627 307.707C67.7057 306.327 66.1468 305.419 64.4244 305.18C62.7007 305 60.9674 305.417 59.5133 306.36C58.3424 307.084 57.7527 307.707 57.7021 307.64Z" fill="#263238"/>
<g opacity="0.3">
<path d="M70.8691 302.637L70.5743 304.953L58.208 303.824L58.5113 301.482L70.8691 302.637Z" fill="black"/>
</g>
<path d="M95.6862 295.275L94.3552 317L82.6123 316.52L83.9096 294.744L95.6862 295.275Z" fill="#D34B58"/>
<path d="M88.6012 315.946C88.5086 315.946 88.7781 311.178 89.2162 305.315C89.6542 299.452 90.0585 294.709 90.1765 294.718C90.2944 294.726 89.9996 299.477 89.57 305.34C89.1403 311.203 88.7023 315.954 88.6012 315.946Z" fill="#263238"/>
<path d="M94.4479 315.501L82.705 314.979L82.6123 316.52L94.3552 317L94.4479 315.501Z" fill="#263238"/>
<path d="M83.0332 309.562C83.0332 309.562 83.1259 309.376 83.3617 309.107C84.2061 308.142 85.265 307.389 86.4533 306.908C87.6929 306.398 89.0639 306.301 90.3628 306.632C91.6617 306.963 92.8194 307.704 93.6642 308.744C93.9846 309.149 94.2455 309.597 94.4392 310.075C94.5655 310.412 94.6161 310.606 94.5908 310.615C94.2663 310.022 93.8915 309.458 93.4704 308.93C92.3792 307.696 90.8435 306.944 89.1995 306.841C87.5545 306.781 85.9391 307.289 84.6253 308.281C83.5976 308.997 83.0837 309.604 83.0332 309.562Z" fill="#263238"/>
<g opacity="0.3">
<path d="M95.2392 304.052L95.0286 305.99L83.252 305.762L83.3699 303.833L95.2392 304.052Z" fill="black"/>
</g>
<path d="M50.2305 176.296C49.8767 176.296 49.3881 189.428 49.6661 194.896C49.9441 200.363 58.3932 244.226 58.3932 244.226C58.3932 244.226 57.0201 254.638 56.3715 264.132C56.203 266.701 56.9864 301.197 56.9864 301.197L71.0375 303.766C71.0375 303.766 78.0967 252.658 78.3916 245.582C78.6864 238.506 79.4025 193.017 79.4025 193.017C79.4025 193.017 81.719 234.977 81.719 242.053C81.719 249.129 81.5927 303.589 81.5927 303.589C81.5927 303.589 91.9962 305.207 96.9916 303.892C96.9916 303.892 100.479 257.637 101.869 244.201C103.175 231.666 108.549 189.302 108.549 189.302C109.009 180.603 108.625 171.88 107.403 163.255L66.5476 158.108L50.2305 176.296Z" fill="#263238"/>
<path d="M124.892 91.062C121.683 82.1664 115.626 72.5968 111.17 63.9539C110.327 62.3196 108.895 59.9609 108.895 59.9609L96.8741 65.7397C96.8741 65.7397 103.403 79.4286 106.806 84.6009C104.734 82.8571 96.6972 76.3454 93.9932 76.6992L99.2918 104.085C99.2918 104.085 106.713 108.07 111.085 109.477C116.3 111.161 122.365 111.962 124.934 108.205C127.074 105.037 126.661 95.9647 124.892 91.062Z" fill="#D34B58"/>
<path d="M40.2819 88.7705C40.2819 88.7705 18.0175 126.754 17.9333 132.828C17.7732 143.61 46.9031 150.391 46.9031 150.391L52.505 139.887L37.0977 129.188L48.4531 104.532L40.2819 88.7705Z" fill="#D34B58"/>
<path d="M99.931 137.672C99.931 137.672 99.7625 90.9358 99.1813 87.1282C98.6 83.3206 98.1789 78.7548 95.9465 77.289C91.0101 74.0206 62.5036 78.2409 62.5036 78.2409C58.0591 79.3229 53.5599 80.1665 49.0254 80.7681C42.6822 81.5347 39.4895 90.464 39.4895 90.464C37.8637 94.5749 56.8175 140.915 57.264 142.768C58.2496 146.904 46.3129 170.019 49.3707 181.029C49.3707 181.029 62.2172 179.682 77.8267 178.502C94.6155 177.205 109.669 176.363 109.669 175.562C109.787 163.516 99.931 137.672 99.931 137.672Z" fill="#D34B58"/>
<path d="M82.8231 137.672C82.6774 138.005 82.4966 138.321 82.2839 138.615C81.9133 139.213 81.332 140.047 80.5991 141.041C78.6076 143.629 76.3331 145.985 73.8179 148.067C71.2957 150.141 68.5459 151.921 65.6214 153.374C64.5011 153.93 63.566 154.334 62.9174 154.579C62.5865 154.728 62.2425 154.847 61.8896 154.932C62.1981 154.742 62.5222 154.579 62.8584 154.444C63.4902 154.157 64.3915 153.711 65.4951 153.13C71.2332 150.116 76.2932 145.959 80.3633 140.915C81.1383 139.946 81.7532 139.138 82.1576 138.573C82.3508 138.253 82.5736 137.951 82.8231 137.672Z" fill="#263238"/>
<path d="M99.9316 137.672C99.8933 137.52 99.8763 137.364 99.881 137.208C99.881 136.846 99.881 136.366 99.8305 135.86C99.8305 134.631 99.7799 132.946 99.7462 130.907C99.7462 126.695 99.6788 120.916 99.6367 114.565C99.5946 108.213 99.5356 102.401 99.4345 98.2224C99.3756 96.1754 99.325 94.5075 99.2913 93.2692C99.2913 92.73 99.2913 92.2836 99.2492 91.9298C99.2307 91.7731 99.2307 91.6147 99.2492 91.458C99.2952 91.6083 99.3207 91.7642 99.325 91.9213C99.325 92.2751 99.4008 92.7216 99.443 93.2607C99.5356 94.4316 99.6367 96.1249 99.721 98.214C99.9063 102.426 100.007 108.171 100.058 114.556C100.108 120.942 100.058 126.72 100.058 130.907C100.058 132.946 100.016 134.622 100.007 135.86C100.007 136.4 100.007 136.846 100.007 137.208C100 137.365 99.9748 137.521 99.9316 137.672Z" fill="#263238"/>
<path d="M47.5094 117.227C47.3999 117.269 45.614 112.88 43.5333 107.43C41.4526 101.979 39.8521 97.5063 39.97 97.4642C40.0879 97.422 41.8569 101.811 43.9461 107.27C46.0352 112.728 47.6273 117.185 47.5094 117.227Z" fill="#263238"/>
<path d="M97.194 77.8863C96.9997 77.9514 96.7993 77.9966 96.5959 78.0211L94.9111 78.3328L88.5089 79.4194C83.1429 80.3882 75.7551 81.8455 67.6513 83.7578C59.5475 85.67 52.2946 87.6833 47.0633 89.2249L40.8718 91.0697L39.187 91.5667C38.9935 91.6363 38.7929 91.6843 38.5889 91.7099C38.7742 91.6206 38.9656 91.5446 39.1617 91.4825L40.8465 90.9097C42.287 90.4126 44.3929 89.7303 46.9959 88.9216C52.2103 87.3126 59.4717 85.2572 67.5755 83.3366C75.6793 81.4159 83.1008 79.967 88.4837 79.1246C91.1709 78.6697 93.3527 78.3412 94.869 78.139L96.6127 77.9116C96.805 77.8825 96.9999 77.874 97.194 77.8863Z" fill="#FFD956"/>
<path d="M99.5694 99.722C99.3913 99.7874 99.2081 99.8381 99.0218 99.8737L97.4381 100.244L91.6003 101.483C86.6639 102.51 79.8069 103.85 72.2254 105.231C64.6438 106.613 57.7868 107.758 52.8504 108.525L46.9536 109.367L45.3447 109.586C45.1571 109.607 44.9678 109.607 44.7803 109.586C44.9577 109.523 45.1412 109.478 45.3278 109.452L46.9284 109.157L52.8251 108.138C57.7868 107.295 64.6186 106.082 72.2001 104.709C79.7816 103.336 86.605 102.039 91.5751 101.095L97.4718 99.9916L99.0723 99.7052C99.2382 99.6949 99.4046 99.7005 99.5694 99.722Z" fill="#FFD956"/>
<path d="M99.5695 125.053C99.4212 125.113 99.2653 125.153 99.1061 125.171L97.7752 125.407C96.6211 125.6 94.9447 125.861 92.864 126.173C88.711 126.788 82.966 127.555 76.6143 128.347L60.3393 130.402L55.4114 131.034L54.0635 131.185C53.9071 131.207 53.7483 131.207 53.5918 131.185C53.7414 131.131 53.8969 131.094 54.0551 131.076L55.3861 130.84C56.5402 130.638 58.2165 130.377 60.2972 130.073C64.4502 129.45 70.1953 128.683 76.5469 127.892L92.8135 125.836L97.7415 125.213L99.0893 125.053C99.2491 125.041 99.4096 125.041 99.5695 125.053Z" fill="#FFD956"/>
<g opacity="0.3">
<path d="M70.4989 80.1106C69.2522 77.9372 67.6264 75.9997 66.1775 73.9527C64.6435 71.9594 63.5522 69.662 62.9764 67.2136C62.9449 66.8914 62.8412 66.5804 62.6731 66.3038C62.4851 66.0911 62.2391 65.9379 61.9652 65.8631C61.6914 65.7882 61.4016 65.795 61.1316 65.8826C60.6209 66.0256 60.1494 66.2826 59.7525 66.6342C59.3556 66.9859 59.0437 67.4231 58.8403 67.9128C58.4359 68.8931 58.2297 69.9439 58.2337 71.0043C58.1138 74.0159 58.5654 77.0228 59.5647 79.8663C60.5335 82.6462 62.0329 85.2829 62.4288 88.1975C62.8248 91.1122 62.0413 94.0943 61.9571 97.0763C61.856 101.002 62.9511 104.852 64.0462 108.625C65.8815 106.528 67.2146 104.039 67.9444 101.349C68.6742 98.659 68.7815 95.838 68.2582 93.1002C70.6253 92.2579 72.15 89.7896 72.3859 87.2877C72.5115 84.7581 71.8524 82.2514 70.4989 80.1106Z" fill="black"/>
</g>
<path d="M69.2518 150.636C66.9919 150.839 64.721 150.896 62.4537 150.804C60.1869 150.855 57.9192 150.762 55.6641 150.526C57.9244 150.329 60.195 150.275 62.4622 150.366C64.7288 150.311 66.9967 150.401 69.2518 150.636Z" fill="#FFD956"/>
<path d="M102.24 144.604C101.864 144.699 101.481 144.761 101.094 144.79L97.9772 145.135C95.3321 145.43 91.693 145.834 87.6748 146.348C83.6566 146.862 80.0343 147.367 77.406 147.738L74.2892 148.176C73.9117 148.249 73.528 148.285 73.1436 148.286C73.5058 148.152 73.8815 148.059 74.2639 148.008C74.9884 147.856 76.0498 147.662 77.3555 147.435C79.9753 146.98 83.5976 146.415 87.6242 145.91C91.6509 145.405 95.2984 145.068 97.9435 144.832C99.2661 144.722 100.336 144.655 101.086 144.613C101.469 144.57 101.856 144.567 102.24 144.604Z" fill="#FFD956"/>
<path d="M109.097 169.093C108.902 169.152 108.702 169.194 108.499 169.22L106.764 169.506C105.264 169.742 103.082 170.062 100.378 170.433C94.9786 171.182 87.5066 172.117 79.2343 172.96C70.9621 173.802 63.448 174.442 58.0145 174.821C55.2936 175.007 53.095 175.15 51.5702 175.226L49.8181 175.302C49.6137 175.324 49.4075 175.324 49.2031 175.302C49.4022 175.255 49.6053 175.226 49.8096 175.217L51.5618 175.049L57.9893 174.51C63.4227 174.055 70.92 173.381 79.1922 172.522C87.4645 171.662 94.9281 170.769 100.336 170.104L106.747 169.312L108.491 169.11C108.692 169.084 108.895 169.078 109.097 169.093Z" fill="#FFD956"/>
<g opacity="0.3">
<path d="M64.1973 157.341C66.2928 158.059 68.5183 158.315 70.7221 158.094C72.9258 157.873 75.0559 157.179 76.967 156.059C78.8781 154.94 80.5252 153.421 81.7959 151.607C83.0667 149.793 83.9312 147.726 84.3304 145.548C78.1725 149.718 70.9532 154.267 64.1973 157.341Z" fill="black"/>
</g>
<path d="M41.6548 119.012C41.0041 118.59 40.3899 118.113 39.8184 117.589C38.7148 116.687 37.1817 115.449 35.4463 114.126C33.711 112.804 32.0768 111.65 30.948 110.824C30.2948 110.407 29.6752 109.939 29.0947 109.426C29.8117 109.728 30.4926 110.11 31.1249 110.563C32.3379 111.33 33.9722 112.45 35.7159 113.773C37.4597 115.095 38.9591 116.392 40.0205 117.353C40.6225 117.846 41.1703 118.403 41.6548 119.012Z" fill="#FFD956"/>
<path d="M36.6596 128.911C36.6596 129.029 32.5656 130.225 27.4439 131.573C22.3221 132.921 18.1776 133.931 18.1102 133.814C18.0428 133.696 22.2042 132.508 27.3259 131.152C32.4477 129.795 36.6259 128.793 36.6596 128.911Z" fill="#FFD956"/>
<path d="M47.0628 136.61C46.8981 137.27 46.6519 137.907 46.3299 138.506C45.6406 139.987 44.8758 141.432 44.0386 142.836C43.1998 144.238 42.2888 145.596 41.3092 146.904C40.9374 147.471 40.4959 147.989 39.9951 148.446C40.2978 147.854 40.653 147.29 41.0565 146.761C41.7473 145.717 42.6823 144.276 43.6595 142.642C44.6367 141.008 45.4622 139.5 46.0519 138.43C46.3288 137.792 46.6673 137.182 47.0628 136.61Z" fill="#FFD956"/>
<path d="M112.879 89.9414C112.579 90.7891 112.195 91.6047 111.733 92.3759C110.958 93.8417 109.821 95.8381 108.465 97.9862C107.108 100.134 105.786 102.004 104.783 103.327C104.295 104.074 103.73 104.768 103.099 105.399C103.533 104.617 104.019 103.866 104.556 103.15C105.491 101.777 106.771 99.8816 108.119 97.7504C109.467 95.6191 110.646 93.6479 111.489 92.2243C111.903 91.4346 112.367 90.6721 112.879 89.9414Z" fill="#FFD956"/>
<path d="M124.85 107.657C124.445 105.729 123.924 103.828 123.292 101.962C122.509 100.154 121.626 98.3907 120.646 96.6807C121.086 97.0731 121.458 97.5339 121.75 98.0453C122.539 99.223 123.191 100.486 123.696 101.811C124.203 103.132 124.562 104.505 124.766 105.905C124.889 106.48 124.918 107.072 124.85 107.657Z" fill="#FFD956"/>
<path d="M116.08 73.1104C114.139 74.3179 112.121 75.3984 110.04 76.3451C108.022 77.4247 105.937 78.3729 103.798 79.184C105.743 77.9776 107.763 76.8971 109.846 75.9492C111.861 74.8707 113.943 73.9225 116.08 73.1104Z" fill="#FFD956"/>
<path d="M46.8018 150.493C46.8018 150.493 47.0292 152.228 49.9439 150.737C49.9439 150.737 53.7431 150.526 55.9164 148.968C58.0898 147.41 58.5531 146.34 59.9094 146.441C61.2656 146.542 65.1827 146.55 65.2501 146.601C65.3175 146.651 66.6148 144.571 65.4607 144.023C64.3066 143.476 58.8901 143.181 58.8901 143.181L57.3148 143.054L57.0874 141.513L55.967 139.129C55.967 139.129 54.4844 139.761 54.417 140.662C54.417 140.662 52.1846 139.66 51.6539 141.159L46.8018 150.493Z" fill="#FFBE9D"/>
<path d="M91.373 76.1517C91.4953 76.1265 91.6214 76.1265 91.7437 76.1517C92.1015 76.1468 92.4592 76.1693 92.8135 76.2191C94.1133 76.4098 95.3787 76.7871 96.5706 77.3395C98.3064 78.2103 99.9563 79.2425 101.499 80.4226C103.276 81.6778 105.214 83.0846 107.218 84.6346C111.237 87.6672 114.8 90.5313 117.234 92.7468C118.215 93.6066 119.135 94.5326 119.989 95.5183C120.23 95.7866 120.436 96.0837 120.604 96.4028C120.666 96.5086 120.714 96.6218 120.747 96.7397C120.485 96.3555 120.204 95.9844 119.905 95.6278C119.008 94.6941 118.061 93.8111 117.066 92.9827C114.539 90.8262 111.009 88.0126 106.957 84.9884C104.952 83.4721 103.023 82.0569 101.263 80.7764C99.749 79.5962 98.137 78.5478 96.4442 77.6427C95.2821 77.0808 94.0538 76.6676 92.7883 76.4128C91.8869 76.1854 91.373 76.1854 91.373 76.1517Z" fill="#263238"/>
<path d="M81.2979 39.4912C83.3028 43.7032 83.6819 45.9102 85.0634 51.6048C85.2403 52.3377 86.4534 58.6556 86.3944 60.6857C86.2784 61.8749 85.9195 63.0275 85.3399 64.0722C84.7603 65.117 83.9723 66.0316 83.0248 66.7594C82.1066 67.4164 79.4615 69.0086 79.4615 69.0086L79.8153 76.3121L61.7039 78.2749C61.7039 78.2749 59.32 63.1708 59.1094 55.7999" fill="#FFBE9D"/>
<path d="M83.0841 47.9907C82.7179 44.7377 81.9976 41.5345 80.936 38.438C79.8501 35.3173 77.7809 32.6333 75.0392 30.7891C72.6637 29.3065 69.8838 29.2391 67.0871 29.1885C63.0951 29.1273 59.2112 30.4856 56.1276 33.0214C52.1531 36.4059 49.6665 41.2157 49.2031 46.4154C49.1315 47.3322 49.1315 48.2532 49.2031 49.17L49.5653 54.7466L61.2998 67.8205C64.7789 70.811 70.4735 70.1455 73.8683 67.054C77.2631 63.9624 78.5688 59.0681 78.2403 54.4939C78.062 53.2641 77.9915 52.0211 78.0297 50.779C78.0641 50.1545 78.2324 49.5448 78.5231 48.991C78.8137 48.4373 79.2201 47.9525 79.7145 47.5695C80.2281 47.2087 80.8577 47.0519 81.4806 47.1298C82.1034 47.2077 82.675 47.5145 83.0841 47.9907Z" fill="#263238"/>
<path d="M83.4294 54.2579C83.4294 54.2579 83.3283 54.4516 83.0672 54.7212C82.6882 55.1156 82.2323 55.4281 81.7278 55.6394C81.3555 55.7858 80.9487 55.821 80.5569 55.7405C80.1134 55.6352 79.7097 55.4041 79.3944 55.075C78.7138 54.3422 78.2223 53.4545 77.9623 52.4888C77.6558 51.5324 77.6382 50.5068 77.9118 49.5405C78.1506 48.7439 78.6563 48.0539 79.3438 47.5861C79.8012 47.2711 80.3388 47.0928 80.8938 47.0723C81.2813 47.0723 81.4835 47.1565 81.4751 47.1818C80.7775 47.2067 80.1032 47.4383 79.5376 47.8473C78.9416 48.3012 78.5098 48.937 78.3077 49.6584C78.0875 50.5509 78.1195 51.4871 78.4003 52.3625C78.6391 53.2564 79.0801 54.0836 79.6892 54.7801C79.9228 55.0516 80.2306 55.2489 80.5748 55.3477C80.9191 55.4465 81.2847 55.4425 81.6267 55.3361C82.1047 55.1584 82.5512 54.9053 82.9492 54.5864C83.2441 54.3589 83.4126 54.2326 83.4294 54.2579Z" fill="#EB996E"/>
<path d="M81.6521 53.0112C81.6521 53.0618 81.391 53.0955 81.0456 52.9186C80.8223 52.7936 80.6304 52.6195 80.4844 52.4093C80.3385 52.1991 80.2423 51.9584 80.2032 51.7055C80.1693 51.4506 80.1941 51.1912 80.2759 50.9474C80.3577 50.7035 80.4942 50.4817 80.675 50.2987C80.953 50.0207 81.2057 49.9786 81.2225 50.0292C81.2394 50.0797 81.0962 50.2313 80.9277 50.5009C80.705 50.8357 80.6094 51.239 80.6581 51.6381C80.7295 52.0321 80.9348 52.3892 81.2394 52.649C81.4668 52.8596 81.669 52.9438 81.6521 53.0112Z" fill="#EB996E"/>
<path d="M90.3875 61.3596C90.3875 61.3596 90.3369 61.4354 90.2106 61.5365C89.9989 61.6655 89.7589 61.7407 89.5114 61.7555C89.051 61.7504 88.6018 61.6126 88.2178 61.3586C87.8338 61.1046 87.5312 60.7452 87.3464 60.3234C86.8494 59.2283 87.1358 57.7963 87.557 56.44C87.788 55.7378 87.9378 55.0114 88.0035 54.2751C88.0683 53.5117 87.8393 52.7525 87.3633 52.1523C86.344 50.9392 84.7266 50.3495 83.7579 49.1786C82.8723 48.1966 82.2519 47.005 81.9551 45.7164C81.7493 44.8587 81.7065 43.97 81.8288 43.0966C81.8568 42.8627 81.9047 42.6316 81.972 42.4058C81.972 42.2457 82.0478 42.1699 82.0646 42.1699C81.9275 43.3297 81.9959 44.5046 82.2668 45.6406C82.5935 46.8535 83.2092 47.9692 84.0611 48.8922C84.5771 49.4251 85.1571 49.892 85.788 50.2821C86.5061 50.7113 87.1563 51.2451 87.7171 51.8658C88.2636 52.5538 88.5258 53.425 88.45 54.3003C88.3782 55.0725 88.2141 55.8332 87.9614 56.5664C87.5149 57.9226 87.2369 59.2199 87.6413 60.1971C87.7984 60.5753 88.0554 60.9037 88.3848 61.1471C88.7142 61.3905 89.1037 61.5396 89.5114 61.5786C89.8168 61.5772 90.1174 61.5021 90.3875 61.3596Z" fill="#263238"/>
<path d="M61.1818 50.5347C60.0382 49.3098 58.521 48.4983 56.8674 48.227C55.2137 47.9557 53.5168 48.2399 52.0418 49.0352C51.3028 49.4173 50.6827 49.9947 50.249 50.7047C49.8153 51.4146 49.5846 52.2299 49.582 53.0619L50.4244 53.9042C53.1307 54.5964 55.4948 56.2452 57.0793 58.5458C57.5037 59.2777 58.0065 59.9612 58.5788 60.5844C58.8704 60.8942 59.2411 61.1184 59.6509 61.2327C60.0607 61.347 60.4939 61.3471 60.9038 61.233C61.5022 60.9491 61.9779 60.4585 62.2432 59.8515C63.0161 58.3699 63.3281 56.6909 63.139 55.0306C62.9498 53.3702 62.2682 51.8044 61.1818 50.5347Z" fill="#455A64"/>
<path d="M61.7461 49.2877C61.7461 49.1698 62.917 49.3298 64.7955 49.0013C67.379 48.5037 69.7886 47.3425 71.7874 45.6318C74.0227 43.7006 75.8475 41.3401 77.1534 38.6905C78.2233 36.5676 78.6529 35.085 78.7287 35.1187C78.69 35.481 78.608 35.8374 78.4844 36.1801C78.1951 37.107 77.8433 38.0133 77.4314 38.8926C76.1719 41.6713 74.3238 44.1432 72.0148 46.1372C69.9724 47.894 67.4706 49.0308 64.804 49.4141C64.0537 49.4968 63.2966 49.4968 62.5464 49.4141C62.274 49.4235 62.0023 49.3806 61.7461 49.2877Z" fill="#455A64"/>
<path d="M81.7026 42.4388C81.6164 42.8187 81.4834 43.1866 81.3067 43.5339C80.8868 44.4783 80.3881 45.3857 79.8157 46.2464C78.1251 48.8953 75.6939 50.9896 72.8238 52.2695C70.2586 53.3385 67.3765 53.3597 64.7959 52.3284C64.019 52.0135 63.2857 51.6001 62.6141 51.0985C62.1423 50.7279 61.898 50.4836 61.9149 50.4499C62.8825 50.9991 63.8841 51.4858 64.9138 51.9072C67.4558 52.7927 70.2344 52.7148 72.7227 51.6882C75.4908 50.4521 77.8637 48.4757 79.5798 45.9768C81.0203 43.9382 81.6268 42.3545 81.7026 42.4388Z" fill="#455A64"/>
<path d="M69.6811 88.493C69.4807 87.0621 68.9374 85.7009 68.0974 84.5253C66.4632 81.8718 64.5341 79.4036 63.0431 76.6826C61.552 73.9617 60.4317 70.887 60.6591 67.7786C60.9371 63.853 63.2874 59.9443 62.0912 56.1873C61.6809 55.0457 61.0107 54.0153 60.1335 53.1776C59.2562 52.3398 58.196 51.7177 57.0368 51.3604C54.6927 50.6611 52.1954 50.6611 49.8512 51.3604C44.7042 53.5843 40.6355 59.0598 39.633 64.5775C38.6306 70.0952 39.7931 75.8234 41.8064 81.0631C42.8257 83.6913 44.0809 86.4796 43.4154 89.2258C43.0489 90.3541 42.6157 91.4596 42.1181 92.5364C41.8712 93.0761 41.7351 93.6599 41.7177 94.2531C41.7004 94.8463 41.8021 95.437 42.017 95.9902C42.5393 97.0601 44.005 97.675 44.9738 97.0095C44.622 98.6694 44.7958 100.398 45.4708 101.954C46.2542 103.454 48.0738 104.482 49.6828 103.942C49.7417 106.604 50.6852 109.393 52.8165 110.985C55.63 113.082 59.8841 112.442 62.504 110.142C65.1238 107.843 66.3031 104.178 66.3874 100.674C66.3376 97.4278 65.8502 94.2033 64.9385 91.0875C65.2348 91.5778 65.6951 91.9474 66.2378 92.1309C66.7805 92.3144 67.3706 92.2999 67.9037 92.09C68.5245 91.7356 69.0254 91.2039 69.342 90.5631C69.6587 89.9222 69.7768 89.2014 69.6811 88.493Z" fill="#263238"/>
<path d="M34.5957 86.2776C34.5957 86.2776 34.6547 86.446 34.7979 86.724C35.0098 87.1401 35.3413 87.4834 35.7498 87.7096C36.3934 88.0662 37.136 88.2023 37.8642 88.0971C38.3379 88.0241 38.7891 87.8453 39.1843 87.5741C39.5795 87.3028 39.9086 86.9461 40.1471 86.5303C40.7379 85.5109 41.0024 84.335 40.9052 83.1607C40.7623 81.8004 40.401 80.4721 39.8354 79.2268C38.4914 76.3084 37.6974 73.167 37.4935 69.9605C37.299 66.7428 37.8766 63.5253 39.1783 60.5762C40.2688 58.1838 41.8841 56.0676 43.9041 54.3847C45.2567 53.2474 46.7956 52.3525 48.453 51.7396C48.9025 51.5807 49.361 51.4485 49.8261 51.3436C49.987 51.2912 50.1541 51.26 50.3231 51.251C50.3231 51.3015 49.6576 51.4447 48.512 51.8996C46.9068 52.5641 45.4192 53.4828 44.1063 54.6205C42.1545 56.3012 40.5983 58.3925 39.549 60.7447C38.3015 63.6401 37.7531 66.7885 37.9484 69.9352C38.1475 73.0899 38.9211 76.1817 40.2313 79.0583C40.7981 80.3464 41.1537 81.7174 41.2843 83.1186C41.3789 84.3649 41.0846 85.6099 40.4419 86.6819C40.2092 87.0723 39.9011 87.4123 39.5355 87.6823C39.17 87.9522 38.7542 88.1465 38.3127 88.254C37.8711 88.3614 37.4126 88.3798 36.9639 88.308C36.5152 88.2363 36.0852 88.0758 35.6992 87.836C35.2757 87.5827 34.9427 87.2025 34.7473 86.7493C34.6718 86.6012 34.6206 86.4419 34.5957 86.2776Z" fill="#263238"/>
<path d="M84.6255 53.9887C84.4651 53.667 84.1914 53.4159 83.8571 53.2837C83.5228 53.1515 83.1514 53.1476 82.8144 53.2727C82.5242 53.4512 82.3076 53.7279 82.2041 54.0525C82.1005 54.3771 82.1168 54.7281 82.25 55.0417C82.4059 55.3451 82.6686 55.5801 82.9874 55.7014C83.3063 55.8227 83.6587 55.8217 83.9769 55.6987C84.2845 55.5521 84.5236 55.2925 84.6444 54.9739C84.7653 54.6553 84.7585 54.3024 84.6255 53.9887Z" fill="#455A64"/>
<path d="M67.8617 73.9531C67.6494 74.0955 67.4074 74.1877 67.1541 74.2227C66.4616 74.3583 65.7462 74.3177 65.0734 74.1047C64.0725 73.7923 63.1775 73.2092 62.4873 72.42C61.6704 71.4321 61.1194 70.252 60.8868 68.9914C60.5659 66.7517 60.62 64.4742 61.0468 62.2523C61.2911 60.5675 61.3585 59.4893 61.4259 59.4893C61.5156 60.4211 61.4901 61.3604 61.3501 62.286C61.2321 63.9708 60.8109 66.3884 61.3501 68.9409C61.5692 70.1261 62.0754 71.2396 62.8243 72.1841C63.4569 72.9456 64.2792 73.5268 65.2082 73.8689C66.0704 74.127 66.9849 74.156 67.8617 73.9531Z" fill="#263238"/>
</svg>
