<svg width="427" height="432" viewBox="0 0 427 432" fill="none" xmlns="http://www.w3.org/2000/svg">
<path d="M354.878 298.481L386.152 404.948H377.364L334.244 297.74L354.878 298.481Z" fill="#6F4439"/>
<path d="M278.145 298.481L309.419 403.933H300.63L257.511 297.74L278.145 298.481Z" fill="#6F4439"/>
<path d="M182.879 298.481L154.53 403.933H163.319L203.525 297.74L182.879 298.481Z" fill="#AE7461"/>
<path d="M274.694 298.481L247.826 403.933H256.615L295.34 297.74L274.694 298.481Z" fill="#AE7461"/>
<path d="M165.933 252.317C165.933 252.317 163.545 220.219 168.381 211.048C173.218 201.878 220.266 183.297 220.266 183.297C220.266 183.297 252.507 132.38 274.084 121.609C295.662 110.838 379.847 112.319 392.087 128.953C404.326 145.587 390.618 189.16 384.253 215.598L361.243 280.211L354.89 298.481H179.642L165.933 252.317Z" fill="#CF4258"/>
<path d="M384.207 128.439C384.257 128.548 384.301 128.66 384.339 128.774C384.41 128.989 384.53 129.323 384.649 129.765C384.912 130.661 385.258 131.986 385.604 133.717C386.576 138.638 386.941 143.659 386.691 148.668C386.47 152.149 386.071 155.616 385.497 159.057C384.924 162.782 384.243 166.759 383.479 170.998C381.962 179.356 380.159 188.623 378.129 198.403V198.558L377.998 198.618C375.371 199.943 372.601 201.34 369.759 202.713C352.779 210.994 335.35 218.318 317.552 224.649C310.722 227.037 305.145 228.888 301.276 230.094L296.81 231.456L295.616 231.79L295.21 231.886L295.592 231.73L296.786 231.336L301.216 229.868C305.061 228.578 310.614 226.715 317.42 224.231C335.137 217.755 352.503 210.357 369.448 202.069C372.29 200.695 375.06 199.286 377.687 197.973L377.52 198.188C379.562 188.408 381.389 179.165 382.942 170.795C383.718 166.615 384.422 162.651 385.007 158.937C385.592 155.223 386.106 151.772 386.285 148.608C386.568 143.623 386.267 138.621 385.389 133.706C385.079 131.974 384.769 130.649 384.542 129.753C384.434 129.335 384.351 129.001 384.279 128.738C384.243 128.642 384.219 128.541 384.207 128.439Z" fill="#263238"/>
<path d="M188.551 278.551C189.408 281.811 190.066 285.121 190.521 288.462C191.177 291.771 191.631 295.117 191.882 298.481C191.023 295.22 190.365 291.91 189.912 288.569C189.256 285.26 188.802 281.915 188.551 278.551Z" fill="#263238"/>
<path d="M279.268 297.741C279.101 297.741 281.059 285.442 283.638 270.348C286.218 255.254 288.415 243.039 288.618 243.063C288.821 243.086 286.838 255.35 284.259 270.456C281.68 285.561 279.447 297.765 279.268 297.741Z" fill="#263238"/>
<path d="M68.1952 306.518L44.1099 337.003C44.1099 337.003 5.01461 322.758 0.0351562 327.964L57.4601 376.791L96.9614 330.83L68.1952 306.518Z" fill="#263238"/>
<path d="M63.9799 349.613C64.3911 350.25 64.5526 351.017 64.4336 351.766C64.3147 352.515 63.9235 353.194 63.3351 353.673C62.7102 354.104 61.944 354.28 61.1936 354.165C60.4431 354.049 59.7652 353.651 59.299 353.052C58.8676 352.375 58.7022 351.563 58.8345 350.771C58.9668 349.979 59.3875 349.265 60.0154 348.765C61.3289 348.001 63.5978 348.467 64.1351 349.864" fill="#E0E0E0"/>
<path d="M57.4608 376.79L61.258 372.013L4.77646 326.971C4.77646 326.971 1.2777 325.908 0 327.962L57.4608 376.79Z" fill="#455A64"/>
<path d="M43.4298 335.917C43.2029 336.215 44.4925 337.529 45.1015 339.606C45.7105 341.684 45.4478 343.487 45.8061 343.595C46.1643 343.702 47.1196 341.72 46.3315 339.224C45.5434 336.729 43.585 335.618 43.4298 335.917Z" fill="white"/>
<path d="M35.2868 333.29C34.9883 333.505 35.8003 335.021 35.7406 337.015C35.6809 339.009 34.8928 340.502 35.1913 340.729C35.4898 340.956 37.0064 339.535 37.0302 337.027C37.0541 334.519 35.5257 333.027 35.2868 333.29Z" fill="white"/>
<path d="M25.7333 337.587C25.9363 337.862 27.5245 336.799 28.1215 334.65C28.7186 332.501 27.9186 330.781 27.5961 330.912C27.2737 331.044 27.3931 332.548 26.8797 334.304C26.3662 336.059 25.4826 337.325 25.7333 337.587Z" fill="white"/>
<path d="M49.6867 329.587C49.5911 329.933 51.2032 330.65 52.6958 332.095C54.1885 333.539 55.0005 335.104 55.3468 334.984C55.6931 334.865 55.3468 332.859 53.5795 331.175C51.8122 329.491 49.7344 329.241 49.6867 329.587Z" fill="white"/>
<path d="M120.545 254.716C120.545 257.487 108.198 384.433 108.198 384.433L149.909 389.209C149.909 389.209 160.285 325.181 161.85 313.383C163.414 301.585 168.859 280.438 168.859 280.438L257.833 271.637C257.833 271.637 214.188 210.594 209.949 210.331C205.71 210.069 120.545 254.716 120.545 254.716Z" fill="#263238"/>
<path d="M48.4697 324.87C48.4697 324.87 123.138 223.633 127.448 218.331C131.759 213.029 136.727 207.405 152.298 207.405C167.869 207.405 209.998 210.39 209.998 210.39L232.256 200.252L313.097 212.707C313.097 212.707 316.083 251.145 310.781 260.101C305.479 269.057 274.002 271.361 267.375 271.696C260.747 272.03 158.101 258.095 158.101 258.095C158.101 258.095 137.992 286.013 128.332 296.736C121.454 304.391 84.7111 351.546 84.7111 351.546L48.4697 324.87Z" fill="#263238"/>
<path d="M84.7707 352.371L47.6338 324.99L47.9801 324.512C48.7324 323.497 122.72 223.216 126.983 217.961C131.019 212.994 136.046 206.808 152.298 206.808C167.248 206.808 207.096 209.591 209.89 209.782L232.172 199.632H232.351L313.611 212.158V212.624C313.73 214.212 316.548 251.361 311.223 260.388C305.467 270.097 271.22 272.079 267.327 272.329C260.867 272.7 165.982 259.803 158.304 258.764C156.131 261.774 137.742 287.137 128.702 297.179C121.92 304.726 85.4753 351.475 85.1051 351.941L84.7707 352.371ZM49.2936 324.739L84.5439 350.723C88.365 345.815 121.382 303.52 127.842 296.343C137.395 285.751 157.373 258.024 157.576 257.737L157.779 257.451H158.137C159.164 257.594 260.831 271.374 267.291 271.052C268.82 270.968 304.691 269.081 310.219 259.744C315.056 251.588 312.811 217.603 312.488 213.173L232.339 200.874L210.105 211H209.95C209.532 211 167.678 208.015 152.298 208.015C136.619 208.015 131.795 213.985 127.914 218.762C123.818 223.753 54.894 317.157 49.2936 324.739Z" fill="#455A64"/>
<path d="M149.802 244.674C151.56 246.851 153.156 249.154 154.578 251.564C156.189 253.862 157.626 256.277 158.877 258.788C157.116 256.614 155.519 254.31 154.101 251.898C152.49 249.6 151.053 247.185 149.802 244.674Z" fill="#455A64"/>
<path d="M111.566 359.332L113.679 398.129C113.679 398.129 74.9782 413.318 74.6797 420.59L150.04 419.169L149.204 358.58L111.566 359.332Z" fill="#263238"/>
<path d="M136.941 394.428C137.671 394.635 138.298 395.104 138.704 395.745C139.109 396.386 139.264 397.154 139.138 397.902C138.956 398.637 138.499 399.275 137.862 399.683C137.225 400.092 136.455 400.241 135.711 400.1C134.938 399.879 134.275 399.379 133.85 398.698C133.424 398.016 133.266 397.201 133.406 396.41C133.884 394.977 135.878 393.83 137.228 394.511" fill="#E0E0E0"/>
<path d="M150.041 419.11L149.718 413.008L77.5817 416.65C77.5817 416.65 74.274 418.202 74.68 420.59L150.041 419.11Z" fill="#455A64"/>
<path d="M112.485 397.771C112.485 398.142 114.348 398.273 116.175 399.419C118.002 400.566 119.005 402.094 119.339 401.951C119.674 401.807 119.089 399.682 116.844 398.368C114.599 397.055 112.378 397.437 112.485 397.771Z" fill="white"/>
<path d="M104.628 401.186C104.545 401.545 106.157 402.142 107.434 403.67C108.712 405.199 109.106 406.847 109.464 406.823C109.823 406.799 110.026 404.721 108.402 402.834C106.778 400.948 104.628 400.84 104.628 401.186Z" fill="white"/>
<path d="M100.318 410.739C100.652 410.811 101.13 408.96 100.139 406.965C99.1474 404.971 97.4279 404.195 97.2726 404.506C97.1174 404.816 98.216 405.867 98.9921 407.527C99.7683 409.187 99.9474 410.703 100.318 410.739Z" fill="white"/>
<path d="M112.963 388.875C113.13 389.209 114.802 388.672 116.892 388.767C118.981 388.863 120.605 389.496 120.785 389.173C120.964 388.851 119.387 387.573 116.939 387.49C114.492 387.406 112.784 388.588 112.963 388.875Z" fill="white"/>
<path d="M263.875 112.7L266.526 136.905L236.136 197.864C236.136 197.864 218.164 203.835 211.8 210.391L226.356 211.024C247.349 211.898 267.545 219.304 284.127 232.207C291.292 237.819 297.107 243.886 298.182 249.402C301.346 265.642 306.195 263.135 306.195 263.135L324.62 239.432L337.516 213.782L363.416 113.309L338.424 99.5769L332.811 91.4092L295.794 96.5677L288.426 103.84L263.875 112.7Z" fill="#455A64"/>
<path d="M202.486 177.636L218.01 171.14L242.405 136.917C242.405 136.917 253.726 114.288 263.899 112.7C274.073 111.112 266.526 136.905 266.526 136.905L250.884 181.326L225.652 198.987L208.254 197.47L196.993 187.918L202.486 177.636Z" fill="#455A64"/>
<path d="M266.3 121.119C266.233 121.394 266.141 121.662 266.025 121.919C265.81 122.492 265.512 123.233 265.153 124.152C264.365 126.17 263.255 128.929 261.905 132.368C259.171 139.317 255.505 148.954 251.493 159.605C247.48 170.257 243.743 179.905 240.901 186.783C239.492 190.234 238.31 193.017 237.462 194.927L236.483 197.113C236.385 197.377 236.257 197.63 236.101 197.865C236.158 197.589 236.246 197.321 236.363 197.065C236.59 196.504 236.877 195.751 237.247 194.832C238.035 192.826 239.146 190.055 240.495 186.616C243.229 179.678 246.895 170.042 250.908 159.379C254.92 148.715 258.645 139.079 261.487 132.212C262.908 128.761 264.091 125.967 264.938 124.069L265.918 121.871C266.018 121.608 266.146 121.356 266.3 121.119Z" fill="#263238"/>
<path d="M296.762 120.115C296.401 119.596 296.089 119.044 295.83 118.467C295.221 117.273 294.445 115.745 293.442 113.882H293.848C293.036 115.673 292.093 117.799 290.827 120.055C289.502 122.537 287.793 124.794 285.764 126.742L285.179 127.28L285.238 126.492V126.36C285.692 120.199 286.433 114.646 287.065 110.658C287.4 108.664 287.698 107.075 287.925 105.941C288.013 105.36 288.153 104.789 288.343 104.233C288.341 104.819 288.281 105.403 288.164 105.977C287.997 107.171 287.77 108.807 287.507 110.753C286.958 114.754 286.313 120.306 285.859 126.444V126.575L285.346 126.325C287.32 124.415 288.998 122.221 290.325 119.817C291.591 117.596 292.582 115.494 293.442 113.727L293.657 113.285L293.848 113.727C294.72 115.613 295.436 117.19 295.997 118.396C296.3 118.946 296.556 119.521 296.762 120.115Z" fill="#263238"/>
<path d="M335.989 101.464C335.898 101.643 335.781 101.808 335.642 101.953L334.568 103.267C333.612 104.461 332.179 106.013 330.412 107.96C325.741 113.002 320.798 117.786 315.605 122.289C312.835 124.677 310.124 126.922 307.593 128.893L307.139 129.251V128.678C307.065 124.799 306.438 120.951 305.276 117.25L305.575 117.358L301.037 119.961C300.502 120.292 299.943 120.583 299.365 120.832C299.852 120.435 300.371 120.079 300.918 119.77L305.372 117.011L305.575 116.88L305.658 117.119C306.927 120.841 307.619 124.735 307.712 128.666L307.246 128.439C309.754 126.457 312.453 124.224 315.199 121.824C321.277 116.546 326.46 111.411 330.114 107.614C331.941 105.715 333.386 104.139 334.401 103.064L335.595 101.87C335.712 101.721 335.844 101.585 335.989 101.464Z" fill="#263238"/>
<path d="M333.744 94.5973L336.263 43.2504C337.863 27.1776 329.839 12.8363 313.718 11.69H312.226C304.966 11.595 297.936 14.2364 292.535 19.0886C287.134 23.9408 283.758 30.6484 283.077 37.8769C281.776 51.8241 280.51 67.2402 280.498 74.7392C280.498 90.2627 295.962 92.8539 295.962 92.8539C295.962 92.8539 295.556 102.275 295.293 106.813L298.541 118.635L333.744 94.5973Z" fill="#FFBF9D"/>
<path d="M295.996 92.8414C303.169 92.9262 310.215 90.9492 316.296 87.1455C316.296 87.1455 311.281 98.7284 295.829 97.1403L295.996 92.8414Z" fill="#FF9A6C"/>
<path d="M287.699 52.0038C287.686 52.5817 287.9 53.1417 288.295 53.5636C288.69 53.9856 289.235 54.2358 289.812 54.2607C290.094 54.2851 290.377 54.2533 290.646 54.1671C290.914 54.081 291.163 53.9421 291.378 53.7587C291.592 53.5753 291.768 53.351 291.895 53.0989C292.022 52.8468 292.097 52.5719 292.117 52.2904C292.133 51.7136 291.922 51.1535 291.529 50.7313C291.135 50.309 290.592 50.0583 290.015 50.0335C289.733 50.0073 289.449 50.0379 289.179 50.1233C288.908 50.2087 288.658 50.3473 288.442 50.5308C288.226 50.7144 288.049 50.9393 287.922 51.1922C287.794 51.4452 287.718 51.7211 287.699 52.0038Z" fill="#263238"/>
<path d="M286.313 44.1822C286.587 44.4808 288.283 43.2627 290.659 43.2986C293.035 43.3344 294.779 44.5524 295.042 44.2658C295.304 43.9792 294.898 43.6091 294.134 43.0717C293.121 42.3179 291.898 41.9003 290.635 41.8776C289.396 41.8593 288.183 42.2357 287.172 42.9523C286.432 43.5374 286.181 44.0509 286.313 44.1822Z" fill="#263238"/>
<path d="M308.475 52.4579C308.465 53.0349 308.68 53.5932 309.075 54.0145C309.469 54.4358 310.012 54.6869 310.589 54.7148C310.869 54.7409 311.152 54.7107 311.421 54.6259C311.689 54.5411 311.939 54.4034 312.153 54.2209C312.368 54.0385 312.544 53.8149 312.671 53.5634C312.798 53.3119 312.874 53.0375 312.893 52.7564C312.906 52.1793 312.694 51.6196 312.302 51.1961C311.91 50.7726 311.368 50.5185 310.792 50.4876C310.509 50.4614 310.225 50.492 309.955 50.5774C309.685 50.6628 309.434 50.8014 309.218 50.9849C309.003 51.1685 308.826 51.3934 308.698 51.6463C308.57 51.8993 308.494 52.1752 308.475 52.4579Z" fill="#263238"/>
<path d="M309.658 45.0411C309.932 45.3396 311.628 44.1216 314.004 44.1574C316.381 44.1932 318.124 45.3515 318.387 45.1127C318.649 44.8739 318.243 44.4679 317.491 43.9186C316.468 43.1945 315.246 42.8027 313.992 42.7961C312.754 42.771 311.54 43.1435 310.529 43.8589C309.789 44.444 309.514 44.9097 309.658 45.0411Z" fill="#263238"/>
<path d="M300.881 63.2405C299.626 62.8358 298.327 62.5832 297.012 62.4882C296.415 62.4166 295.818 62.2972 295.734 61.8792C295.697 61.249 295.846 60.6219 296.164 60.0761C296.761 58.6074 297.358 57.0789 298.027 55.4668C300.606 48.8992 302.493 43.5257 302.23 43.4063C301.967 43.2869 299.651 48.541 297.071 55.0967C296.438 56.7207 295.877 58.2611 295.28 59.7418C294.885 60.4716 294.762 61.318 294.934 62.13C295.017 62.3482 295.149 62.544 295.322 62.7016C295.494 62.8592 295.7 62.9743 295.925 63.0375C296.26 63.1298 296.605 63.1819 296.952 63.1928C298.254 63.375 299.574 63.3911 300.881 63.2405Z" fill="#263238"/>
<path d="M308.989 37.579C309.299 38.188 311.628 37.579 314.434 37.579C317.24 37.579 319.593 38.0328 319.891 37.3999C320.011 37.1014 319.545 36.5521 318.566 36.0506C317.269 35.4228 315.838 35.1196 314.398 35.1669C312.954 35.1772 311.533 35.5334 310.255 36.2058C309.299 36.7193 308.846 37.2805 308.989 37.579Z" fill="#263238"/>
<path d="M286.301 37.1842C286.778 37.7335 288.689 37.1842 291.077 37.2678C293.466 37.3514 295.376 37.7454 295.854 37.1961C296.057 36.9334 295.77 36.3722 294.922 35.8468C293.745 35.1965 292.422 34.8555 291.077 34.8555C289.732 34.8555 288.409 35.1965 287.232 35.8468C286.372 36.3602 286.086 36.9095 286.301 37.1842Z" fill="#263238"/>
<path d="M334.877 54.1657C335.14 54.0463 345.565 51.1446 345.087 61.7483C344.609 72.352 334.077 69.6772 334.077 69.3667C334.077 69.0563 334.877 54.1657 334.877 54.1657Z" fill="#FFBF9D"/>
<path d="M337.493 65.4972C337.493 65.4972 337.672 65.6405 337.97 65.7958C338.399 66.024 338.901 66.0754 339.367 65.939C340.502 65.5689 341.529 63.8374 341.66 61.9268C341.731 61.0209 341.596 60.1107 341.266 59.264C341.181 58.9287 341.015 58.619 340.785 58.3612C340.554 58.1034 340.264 57.9052 339.941 57.7832C339.73 57.7168 339.503 57.7272 339.3 57.8125C339.096 57.8978 338.93 58.0524 338.83 58.2489C338.675 58.5355 338.734 58.7505 338.675 58.7624C338.615 58.7744 338.448 58.5714 338.555 58.1415C338.629 57.8814 338.789 57.654 339.009 57.4966C339.309 57.2901 339.677 57.2088 340.036 57.2698C340.466 57.3768 340.862 57.592 341.186 57.895C341.51 58.1981 341.751 58.5789 341.887 59.0012C342.295 59.9407 342.471 60.9646 342.4 61.9865C342.233 64.1121 341.051 66.0704 339.499 66.4406C339.211 66.5085 338.912 66.5117 338.622 66.4497C338.333 66.3877 338.062 66.2623 337.827 66.0823C337.493 65.7599 337.457 65.5211 337.493 65.4972Z" fill="#FF9A6C"/>
<path d="M262.49 22.2103C262.695 21.6031 263.121 21.0956 263.684 20.7893C264.948 20.279 266.324 20.1141 267.672 20.3116C271.051 20.3945 274.405 19.7042 277.476 18.2936C276.449 17.7416 275.518 17.0279 274.718 16.18C273.859 15.3195 273.252 14.2401 272.964 13.0591C272.675 11.878 272.716 10.6405 273.082 9.481C273.143 9.26222 273.253 9.06029 273.404 8.8906C273.555 8.72091 273.743 8.58794 273.953 8.50183C274.658 8.32271 275.231 9.02724 275.685 9.57654C276.258 10.4335 277.053 11.1199 277.984 11.5634C278.915 12.0068 279.948 12.1908 280.975 12.0961C282.396 12.0675 283.793 11.7164 285.059 11.0692C285.105 11.0242 285.149 10.9763 285.19 10.9259L286.886 9.3616C291.041 5.57625 294.588 2.98502 298.182 1.71926C303.436 -0.143553 312.129 -0.668966 317.467 1.02668C322.805 2.72232 327.45 7.25995 327.963 12.8245C331.092 10.4363 335.641 10.6154 339.26 12.2513H339.355C343.391 13.8873 345.541 18.3174 346.52 22.5566C346.579 22.7954 346.627 23.0223 346.675 23.2611C347.964 25.5313 349.778 27.4599 351.965 28.8854C352.359 29.1361 352.801 29.4347 352.825 29.9004C352.849 30.3661 352.455 30.7124 352.072 30.9631C351.049 31.6075 349.894 32.0155 348.693 32.1572C349.004 33.1734 349.404 34.1603 349.887 35.1067C350.317 35.9067 350.819 36.874 350.389 37.6621C350.19 37.9556 349.906 38.1814 349.575 38.3094C349.244 38.4374 348.883 38.4615 348.538 38.3786C347.856 38.1937 347.218 37.8728 346.663 37.4352C347.081 38.5457 347.487 39.6682 347.857 40.7787C346.359 40.9636 344.837 40.796 343.415 40.2891C342.376 44.1581 341.409 51.3825 340.286 53.9856C337.468 53.914 336.8 53.5796 335.355 53.9856C333.504 54.511 334.053 57.7949 331.713 56.7679C330.519 56.2425 328.847 51.5496 328.489 50.2958C326.15 41.9292 325.633 33.1581 326.972 24.5746C325.347 22.6861 323.372 21.1292 321.157 19.9892L321.336 20.1564C317.061 18.4727 312.225 16.777 308.034 18.6399C304.774 20.0728 302.756 23.3088 300.26 25.8045C298.147 28.1301 295.564 29.98 292.681 31.2316C289.799 32.4833 286.684 33.1081 283.542 33.0648C282.73 37.7218 282.217 45.3641 281.799 49.7107L278.455 40.8146C278.181 40.2892 277.954 39.7637 277.739 39.2383L277.655 39.0831C277.309 38.2353 276.975 37.3874 276.533 36.5516C276.007 36.9456 275.356 37.137 274.701 37.0907C274.045 37.0444 273.428 36.7636 272.963 36.2996C272.497 35.8356 272.215 35.2195 272.166 34.564C272.118 33.9086 272.307 33.2576 272.7 32.7304C273.093 32.2393 273.56 31.8123 274.085 31.4646C273.561 31.9551 272.923 32.3071 272.228 32.4885C271.534 32.6699 270.805 32.6751 270.108 32.5035C269.406 32.2545 268.806 31.7821 268.398 31.1587C267.99 30.5354 267.798 29.7955 267.852 29.0525C267.932 28.5538 268.141 28.0849 268.46 27.6929C268.779 27.3009 269.195 26.9997 269.667 26.8195C267.718 26.8826 265.794 26.3674 264.138 25.3388C263.087 24.6343 262.06 23.5596 262.49 22.2103Z" fill="#263238"/>
<path d="M323.056 14.3887C323.587 14.8508 324.086 15.3496 324.548 15.8813C325.715 17.4143 326.46 19.2256 326.71 21.1354C326.917 22.4421 326.993 23.7662 326.937 25.0879C326.937 26.5209 326.698 28.0374 326.519 29.6494C326.307 31.333 326.195 33.0277 326.184 34.7244C326.193 35.6289 326.273 36.5312 326.423 37.4231C326.516 38.3762 326.854 39.2891 327.402 40.0741C327.662 40.3854 327.997 40.6255 328.375 40.7717C328.753 40.9179 329.162 40.9655 329.564 40.9099C330.33 40.7948 331.038 40.4345 331.582 39.883C332.468 38.7589 333.041 37.4198 333.241 36.0021H332.919C333.331 37.1934 333.918 38.3164 334.662 39.3337C335.381 40.2812 336.438 40.9144 337.612 41.101C338.155 41.1822 338.71 41.1076 339.212 40.8861C339.685 40.6715 340.081 40.3173 340.346 39.8711C340.596 39.4603 340.732 38.9904 340.74 38.5098C340.73 38.0716 340.57 37.6503 340.287 37.3157L340.12 37.4589C340.996 38.5561 342.095 39.4554 343.344 40.0979C343.67 40.2709 344.01 40.4186 344.359 40.5398C344.476 40.5931 344.601 40.6293 344.729 40.6472L344.383 40.492C344.156 40.3845 343.821 40.2293 343.403 39.9905C342.196 39.3218 341.139 38.4112 340.299 37.3157L340.12 37.4589C340.36 37.7952 340.489 38.1981 340.489 38.6113C340.489 39.0245 340.36 39.4274 340.12 39.7636C339.877 40.1632 339.519 40.4797 339.093 40.6711C338.633 40.8637 338.129 40.9256 337.636 40.8502C336.543 40.6586 335.564 40.0563 334.901 39.1665C334.188 38.1655 333.621 37.0678 333.218 35.9066L333.015 35.4051L332.895 35.9305C332.697 37.2852 332.15 38.565 331.307 39.6442C330.821 40.1377 330.189 40.4603 329.504 40.5636C329.163 40.6142 328.814 40.576 328.492 40.4526C328.17 40.3291 327.885 40.1248 327.665 39.8591C327.159 39.1212 326.851 38.2661 326.769 37.3754C326.619 36.5035 326.539 35.621 326.531 34.7364C326.529 33.0518 326.632 31.3688 326.841 29.6972C327.008 28.0851 327.175 26.5567 327.223 25.1118C327.271 23.7685 327.178 22.4239 326.948 21.0996C326.673 19.1603 325.876 17.3321 324.644 15.8097C324.2 15.2478 323.663 14.7671 323.056 14.3887Z" fill="#455A64"/>
<path d="M274.431 27.4165L274.55 27.5359C274.658 27.6075 274.777 27.715 274.932 27.8344C275.131 27.9988 275.342 28.1466 275.565 28.2762C275.859 28.476 276.166 28.6556 276.485 28.8136C278.524 29.8479 280.79 30.3568 283.076 30.2943C286.491 30.2303 289.812 29.1675 292.629 27.2373C296.022 24.8708 298.895 21.8353 301.071 18.3173C302.265 16.4903 303.28 14.6036 304.367 12.8722C305.369 11.1836 306.603 9.64405 308.033 8.29871C309.329 7.0915 310.905 6.22564 312.618 5.77913C313.401 5.59926 314.207 5.54286 315.007 5.61195C315.739 5.68145 316.458 5.85017 317.144 6.11348C318.33 6.58124 319.404 7.29322 320.297 8.20318C320.973 8.90385 321.529 9.71062 321.944 10.5914C322.268 11.3586 322.504 12.1597 322.649 12.9796C322.649 12.9796 322.649 12.9796 322.649 12.8125C322.649 12.6453 322.649 12.5259 322.649 12.3348C322.546 11.7242 322.373 11.1273 322.136 10.5556C321.722 9.67659 321.17 8.87012 320.5 8.16736C319.602 7.21818 318.51 6.47296 317.299 5.98213C316.59 5.70286 315.848 5.51818 315.09 5.43284C314.267 5.36059 313.438 5.41292 312.63 5.58807C310.848 6.03032 309.206 6.91312 307.854 8.15541C306.389 9.5126 305.126 11.0729 304.104 12.7886C303.006 14.532 302.003 16.3709 300.797 18.2337C298.631 21.71 295.789 24.7151 292.438 27.0702C289.688 28.969 286.451 30.0384 283.112 30.151C280.862 30.2276 278.627 29.7649 276.592 28.8016C275.846 28.3804 275.125 27.918 274.431 27.4165Z" fill="#455A64"/>
<path d="M273.321 20.5622C273.48 20.7223 273.661 20.8589 273.859 20.9682C274.371 21.3134 274.91 21.6168 275.471 21.8757C276.296 22.2733 277.155 22.597 278.038 22.843C280.207 23.4536 282.477 23.6242 284.713 23.3445C285.624 23.2349 286.523 23.043 287.4 22.7713C287.994 22.5995 288.573 22.3798 289.131 22.1146C289.344 22.0339 289.544 21.9255 289.728 21.7922C289.728 21.7922 288.821 22.1265 287.34 22.5206C285.394 23.0297 283.376 23.2153 281.37 23.0699C280.27 22.9774 279.179 22.7936 278.11 22.5206C277.239 22.2961 276.388 22.0005 275.566 21.6369C274.157 21.016 273.357 20.4906 273.321 20.5622Z" fill="#455A64"/>
<path d="M300.702 70.4883C300.845 70.1061 303.293 71.2167 305.98 69.9031C308.667 68.5896 309.562 65.867 309.92 66.0103C310.279 66.1536 310.135 66.7984 309.67 67.909C309.04 69.3508 307.925 70.5258 306.517 71.2286C305.163 71.9026 303.6 72.0226 302.159 71.563C301.156 71.1928 300.618 70.6435 300.702 70.4883Z" fill="#263238"/>
<path d="M279.268 297.741C279.268 296.988 287.626 243.062 290.779 236.184C293.322 230.739 313.694 226.488 335.522 217.675C359.022 208.194 386.26 207.537 386.26 207.537L351.774 287.137L279.268 297.741Z" fill="#CF4258"/>
<path d="M291.483 183.38L271.577 184.861V203.895L294.074 206.582L291.483 183.38Z" fill="#FFBF9D"/>
<path d="M354.592 108.783C364.42 112.819 373.531 121.536 372.934 132.833C372.05 149.55 368.158 185.505 367.214 194.759C366.02 206.844 361.936 217.018 344.156 217.686C326.376 218.355 300.212 214.032 300.212 214.032C300.212 214.032 290.791 218.809 288.188 213.567C287.507 212.17 282.826 184.024 282.826 184.024C282.826 183.642 285.131 180.967 288.427 179.32C290.233 178.427 292.312 178.26 294.238 178.853C296.163 179.446 297.788 180.754 298.78 182.508L333.409 181.373L340.275 148.774" fill="#455A64"/>
<path d="M340.31 148.775C340.293 148.963 340.265 149.151 340.227 149.336C340.143 149.73 340.036 150.279 339.904 150.996C339.606 152.465 339.164 154.578 338.603 157.396C337.409 163.009 335.761 171.164 333.635 181.422V181.565H333.48L309.12 182.401L302.158 182.64L300.367 182.7H299.472H298.767C298.767 182.7 298.325 182.449 298.528 182.556L298.409 182.377C297.799 181.355 296.951 180.494 295.937 179.87C294.9 179.218 293.72 178.828 292.499 178.735C291.277 178.641 290.052 178.846 288.928 179.332C287.768 179.861 286.681 180.535 285.692 181.338C285.181 181.735 284.695 182.162 284.235 182.616C284.008 182.843 283.781 183.082 283.578 183.321C283.375 183.559 283.375 183.571 283.279 183.691C283.184 183.81 283.088 184.025 283.1 183.965C284.199 190.509 285.369 197.387 286.683 204.504C287.017 206.283 287.351 208.086 287.686 209.89C287.865 210.785 288.044 211.693 288.259 212.588C288.318 213.017 288.478 213.426 288.725 213.782C288.834 213.967 288.958 214.143 289.095 214.308L289.572 214.75C290.34 215.221 291.195 215.531 292.085 215.662C292.976 215.794 293.884 215.743 294.755 215.514C296.607 215.173 298.403 214.578 300.093 213.747H300.188H300.284C307.329 214.857 314.768 215.8 322.363 216.517C327.605 216.995 332.811 217.341 337.946 217.436C343.081 217.532 348.168 217.436 352.896 216.015C355.222 215.302 357.397 214.165 359.309 212.66C361.17 211.17 362.689 209.296 363.763 207.167C365.693 202.928 366.803 198.362 367.035 193.709C368.933 175.511 370.617 159.08 371.811 145.336C372.11 141.897 372.36 138.613 372.563 135.508C372.671 133.944 372.766 132.439 372.742 130.994C372.742 130.266 372.599 129.55 372.539 128.857C372.48 128.164 372.265 127.484 372.121 126.815C371.465 124.36 370.373 122.042 368.897 119.973C367.66 118.233 366.239 116.632 364.658 115.196C362.44 113.227 359.99 111.535 357.362 110.157C356.467 109.668 355.762 109.357 355.284 109.142L354.58 108.796C354.58 108.796 354.831 108.879 355.308 109.082C355.786 109.285 356.502 109.584 357.422 110.05C360.087 111.386 362.574 113.051 364.825 115.005C366.429 116.442 367.878 118.043 369.148 119.782C370.654 121.875 371.774 124.221 372.456 126.708C372.599 127.388 372.766 128.069 372.898 128.773C373.029 129.478 373.077 130.206 373.113 130.947C373.113 132.439 373.113 133.956 372.957 135.508C372.766 138.613 372.527 141.909 372.253 145.348C371.13 159.152 369.459 175.547 367.596 193.745C367.357 198.473 366.223 203.113 364.252 207.418C363.14 209.62 361.573 211.561 359.655 213.114C357.679 214.661 355.437 215.834 353.04 216.577C348.263 218.057 343.021 218.093 337.898 218.033C332.775 217.974 327.521 217.592 322.267 217.114C314.661 216.398 307.221 215.454 300.152 214.332H300.343C298.594 215.184 296.739 215.798 294.827 216.159C293.875 216.386 292.887 216.418 291.923 216.254C290.958 216.09 290.037 215.733 289.214 215.203L288.665 214.69C288.501 214.502 288.357 214.298 288.235 214.081C287.96 213.667 287.776 213.199 287.698 212.708C287.471 211.788 287.304 210.881 287.124 209.973C286.79 208.17 286.456 206.391 286.121 204.588C284.844 197.423 283.733 190.581 282.539 184.037C282.582 183.813 282.681 183.604 282.826 183.428C282.933 183.297 283.041 183.153 283.148 183.034C283.256 182.915 283.602 182.532 283.841 182.294C284.313 181.82 284.816 181.377 285.345 180.968C286.379 180.145 287.51 179.451 288.713 178.902C290.514 178.139 292.529 178.05 294.391 178.651C296.252 179.252 297.835 180.502 298.851 182.174L298.982 182.377C299.185 182.497 298.695 182.222 298.755 182.258H299.4H300.307L302.099 182.198L309.06 181.983L333.42 181.231L333.229 181.386C335.426 171.153 337.17 163.009 338.376 157.408L339.773 151.02C339.94 150.303 340.06 149.766 340.143 149.372L340.31 148.775Z" fill="#263238"/>
<path d="M352.502 111.506C352.574 111.59 351.308 112.819 349.517 115.088C347.25 118.063 345.376 121.318 343.941 124.773C342.512 128.225 341.486 131.832 340.884 135.52C340.406 138.35 340.31 140.141 340.191 140.129C340.142 139.712 340.142 139.292 340.191 138.875C340.191 138.063 340.299 136.893 340.466 135.448C340.956 131.689 341.939 128.011 343.391 124.51C344.198 122.586 345.148 120.726 346.233 118.945C347.125 117.495 348.115 116.106 349.195 114.79C349.941 113.908 350.738 113.07 351.583 112.282C352.12 111.757 352.502 111.47 352.502 111.506Z" fill="#263238"/>
<path d="M348.383 195.955C348.275 195.955 348.013 194.76 347.189 192.957C345.06 188.219 341.152 184.509 336.31 182.628C334.459 181.924 333.229 181.721 333.253 181.613C333.277 181.506 333.564 181.613 334.125 181.613C334.917 181.721 335.697 181.905 336.453 182.162C337.585 182.53 338.674 183.018 339.701 183.619C340.96 184.356 342.133 185.229 343.2 186.222C344.246 187.237 345.179 188.362 345.983 189.578C346.63 190.573 347.17 191.634 347.595 192.742C347.894 193.482 348.118 194.25 348.263 195.035C348.395 195.644 348.43 195.943 348.383 195.955Z" fill="#263238"/>
<path d="M300.488 213.042C300.392 213.042 300.87 211.334 301.264 208.54C301.761 204.912 301.965 201.25 301.873 197.59C301.819 195.593 301.659 193.6 301.395 191.619C301.163 190.006 300.824 188.411 300.38 186.843C299.604 184.144 298.673 182.652 298.78 182.592C299.05 182.904 299.278 183.249 299.461 183.619C299.711 184.034 299.927 184.469 300.105 184.92C300.38 185.5 300.611 186.098 300.798 186.712C301.326 188.297 301.726 189.922 301.992 191.572C302.297 193.588 302.477 195.622 302.529 197.662C302.638 201.357 302.37 205.054 301.729 208.695C301.536 209.799 301.281 210.892 300.965 211.967C300.847 212.342 300.687 212.703 300.488 213.042Z" fill="#263238"/>
<path d="M165.324 141.252C165.324 141.252 166.674 138.016 169.36 137.348C169.36 137.348 182.687 140.93 186.579 145.181C186.579 145.181 187.356 142.148 194.508 136.058C199.824 131.517 206.48 128.842 213.459 128.439L220.54 132.894L192.156 152.776L183.714 155.725L165.324 141.252Z" fill="#FAFAFA"/>
<path d="M165.324 141.251C165.451 141.32 165.57 141.4 165.682 141.49L166.674 142.242L170.399 145.096L183.857 155.497H183.63L192.06 152.524L220.039 132.809L220.361 132.582V133.107C217.973 131.591 215.584 130.098 213.28 128.653H213.447C207.583 128.999 201.928 130.963 197.112 134.325C194.98 135.87 192.983 137.591 191.141 139.472C190.259 140.341 189.43 141.263 188.657 142.231C187.919 143.11 187.312 144.091 186.854 145.144L186.711 145.526L186.436 145.252C185.035 143.912 183.421 142.814 181.66 142.004C180.106 141.226 178.511 140.532 176.883 139.926C173.898 138.732 171.319 137.968 169.265 137.37H169.325C167.978 137.834 166.837 138.755 166.1 139.974C165.889 140.278 165.694 140.593 165.515 140.917C165.384 141.132 165.336 141.239 165.324 141.239C165.347 141.113 165.391 140.992 165.456 140.881C165.615 140.544 165.794 140.217 165.993 139.902C166.743 138.634 167.927 137.68 169.325 137.215H169.396C171.462 137.765 174.065 138.541 177.074 139.663C178.701 140.256 180.295 140.934 181.851 141.693C183.654 142.525 185.311 143.642 186.759 145.001L186.341 145.108C186.801 143.979 187.434 142.928 188.215 141.992C188.991 141.008 189.825 140.071 190.711 139.186C192.589 137.292 194.622 135.558 196.789 134.003C201.709 130.539 207.5 128.52 213.507 128.176H213.59H213.674L220.755 132.618L221.149 132.869L220.767 133.143L220.445 133.37L192.299 152.989L183.845 155.903H183.726L183.618 155.82L170.22 145.073L166.638 142.147L165.706 141.383C165.574 141.355 165.446 141.31 165.324 141.251Z" fill="#263238"/>
<path d="M160.644 140.703L161.444 139.091L181.433 150.22C181.433 150.22 188.001 149.814 188.132 145.444C188.132 145.444 220.863 131.759 221.663 132.165C222.463 132.571 274.884 176.108 274.884 176.108L227.538 186.199L205.626 176.503L160.644 140.703Z" fill="#CF4258"/>
<path d="M221.508 183.535C221.401 183.666 212.337 176.31 201.208 167.116C190.079 157.921 181.267 150.398 181.374 150.219C181.481 150.04 190.545 157.384 201.614 166.638C212.684 175.892 221.616 183.392 221.508 183.535Z" fill="#263238"/>
<path d="M234.285 184.55C234.166 184.681 223.849 176.072 211.239 165.324C198.629 154.577 188.551 145.753 188.551 145.622C188.551 145.49 198.975 154.1 211.597 164.859C224.219 175.618 234.345 184.418 234.285 184.55Z" fill="#263238"/>
<path d="M188.407 159.153C188.275 159.153 183.809 158.723 182.746 160.669C181.684 162.616 181.552 163.678 181.982 164.837C182.711 166.12 183.575 167.321 184.562 168.419L185.326 169.828C184.527 171.465 184.276 173.315 184.609 175.106C185.153 176.646 186.163 177.977 187.499 178.915C187.499 178.915 187.857 184.731 191.392 184.778C191.648 185.689 192.19 186.493 192.939 187.071C193.687 187.65 194.602 187.972 195.547 187.991C198.795 187.907 200.431 188.743 204.038 186.88C207.644 185.017 211.823 183.154 212.743 181.292C213.662 179.429 210.45 179.226 210.45 179.226C210.45 179.226 212.193 174.449 206.569 175.07C206.569 175.07 207.202 170.115 203.596 169.518C199.96 169.175 196.302 169.123 192.658 169.362L189.768 165.876C189.768 165.876 191.87 165.278 191.989 163.416C192.108 161.553 190.102 159.212 188.407 159.153Z" fill="#FFBF9D"/>
<path d="M261.977 178.078C261.619 178.198 257.284 180.132 254.394 179.762C251.505 179.392 229.103 167.128 225.855 166.161C222.607 165.194 217.066 166.161 221.079 170.376C225.091 174.591 237.342 181.457 237.581 181.816C237.882 182.572 238.126 183.351 238.31 184.144L225.783 179.368C225.783 179.368 216.625 174.794 215.18 177.565C213.735 180.335 215.908 181.899 218.189 182.616C220.47 183.332 222.965 184.108 222.965 184.108C222.965 184.108 225.616 189.004 228.255 190.927C230.894 192.849 242.955 200.563 244.973 201.411C246.991 202.259 271.709 204.181 272.187 203.799C272.664 203.417 272.187 185.374 272.187 185.374L263.517 177.553L261.977 178.078Z" fill="#FFBF9D"/>
<ellipse cx="234.781" cy="414.56" rx="191.851" ry="17.441" fill="url(#paint0_radial_71_645)"/>
<defs>
<radialGradient id="paint0_radial_71_645" cx="0" cy="0" r="1" gradientUnits="userSpaceOnUse" gradientTransform="translate(234.781 414.56) rotate(90) scale(17.441 191.851)">
<stop stop-opacity="0.4"/>
<stop offset="1" stop-opacity="0"/>
</radialGradient>
</defs>
</svg>
